<svg version="1.1" viewBox="0.0 0.0 600.0 371.0" fill="none" stroke="none" stroke-linecap="square" stroke-miterlimit="10" width="600" height="371" xmlns:xlink="http://www.w3.org/1999/xlink" xmlns="http://www.w3.org/2000/svg"><path fill="#ffffff" d="M0 0L600.0 0L600.0 371.0L0 371.0L0 0Z" fill-rule="nonzero"/><path stroke="#333333" stroke-width="1.0" stroke-linecap="butt" d="M95.5 44.5L95.5 300.5" fill-rule="nonzero"/><path stroke="#000000" stroke-width="1.0" stroke-linecap="butt" d="M192.5 44.5L192.5 300.5" fill-rule="nonzero"/><path stroke="#000000" stroke-width="1.0" stroke-linecap="butt" d="M289.5 44.5L289.5 300.5" fill-rule="nonzero"/><path stroke="#000000" stroke-width="1.0" stroke-linecap="butt" d="M387.5 44.5L387.5 300.5" fill-rule="nonzero"/><path stroke="#000000" stroke-width="1.0" stroke-linecap="butt" d="M484.5 44.5L484.5 300.5" fill-rule="nonzero"/><path stroke="#000000" stroke-width="1.0" stroke-linecap="butt" d="M581.5 44.5L581.5 300.5" fill-rule="nonzero"/><clipPath id="id_0"><path d="M95.55 44.916668L581.45 44.916668L581.45 300.45L95.55 300.45L95.55 44.916668Z" clip-rule="nonzero"/></clipPath><path stroke="#000000" stroke-width="0.0" stroke-linecap="butt" stroke-opacity="0.0" clip-path="url(#id_0)" d="M96.0 154.0L96.0 83.0L329.0 83.0L329.0 154.0Z" fill-rule="nonzero"/><path fill="#a4c2f4" clip-path="url(#id_0)" d="M96.0 154.0L96.0 83.0L329.0 83.0L329.0 154.0Z" fill-rule="nonzero"/><path stroke="#000000" stroke-width="0.0" stroke-linecap="butt" stroke-opacity="0.0" clip-path="url(#id_0)" d="M96.0 263.0L96.0 192.0L368.0 192.0L368.0 263.0Z" fill-rule="nonzero"/><path fill="#a4c2f4" clip-path="url(#id_0)" d="M96.0 263.0L96.0 192.0L368.0 192.0L368.0 263.0Z" fill-rule="nonzero"/><path stroke="#000000" stroke-width="0.0" stroke-linecap="butt" stroke-opacity="0.0" clip-path="url(#id_0)" d="M329.0 154.0L329.0 83.0L523.0 83.0L523.0 154.0Z" fill-rule="nonzero"/><path fill="#ea9999" clip-path="url(#id_0)" d="M329.0 154.0L329.0 83.0L523.0 83.0L523.0 154.0Z" fill-rule="nonzero"/><path stroke="#000000" stroke-width="0.0" stroke-linecap="butt" stroke-opacity="0.0" clip-path="url(#id_0)" d="M368.0 263.0L368.0 192.0L387.0 192.0L387.0 263.0Z" fill-rule="nonzero"/><path fill="#ea9999" clip-path="url(#id_0)" d="M368.0 263.0L368.0 192.0L387.0 192.0L387.0 263.0Z" fill-rule="nonzero"/><path stroke="#000000" stroke-width="0.0" stroke-linecap="butt" stroke-opacity="0.0" clip-path="url(#id_0)" d="M523.0 154.0L523.0 83.0L543.0 83.0L543.0 154.0Z" fill-rule="nonzero"/><path fill="#ffe599" clip-path="url(#id_0)" d="M523.0 154.0L523.0 83.0L543.0 83.0L543.0 154.0Z" fill-rule="nonzero"/><path stroke="#000000" stroke-width="0.0" stroke-linecap="butt" stroke-opacity="0.0" clip-path="url(#id_0)" d="M387.0 263.0L387.0 192.0L387.0 192.0L387.0 263.0Z" fill-rule="nonzero"/><path fill="#ffe599" clip-path="url(#id_0)" d="M387.0 263.0L387.0 192.0L387.0 192.0L387.0 263.0Z" fill-rule="nonzero"/><path stroke="#000000" stroke-width="0.0" stroke-linecap="butt" stroke-opacity="0.0" clip-path="url(#id_0)" d="M543.0 154.0L543.0 83.0L560.0 83.0C561.10455 83.0 562.0 83.89543 562.0 85.0L562.0 152.0C562.0 153.10457 561.10455 154.0 560.0 154.0Z" fill-rule="nonzero"/><path fill="#b6d7a8" clip-path="url(#id_0)" d="M543.0 154.0L543.0 83.0L560.0 83.0C561.10455 83.0 562.0 83.89543 562.0 85.0L562.0 152.0C562.0 153.10457 561.10455 154.0 560.0 154.0Z" fill-rule="nonzero"/><path stroke="#000000" stroke-width="0.0" stroke-linecap="butt" stroke-opacity="0.0" clip-path="url(#id_0)" d="M387.0 263.0L387.0 192.0L387.0 192.0L387.0 263.0Z" fill-rule="nonzero"/><path fill="#b6d7a8" clip-path="url(#id_0)" d="M387.0 263.0L387.0 192.0L387.0 192.0L387.0 263.0Z" fill-rule="nonzero"/><path fill="#000000" d="M295.92188 349.45L295.92188 340.85626L297.07812 340.85626L301.59375 347.60626L301.59375 340.85626L302.6875 340.85626L302.6875 349.45L301.51562 349.45L297.0 342.7L297.0 349.45L295.92188 349.45ZM308.875 349.45L308.875 348.52814Q308.14062 349.59064 306.89062 349.59064Q306.34375 349.59064 305.85938 349.3875Q305.39062 349.16876 305.15625 348.85626Q304.92188 348.52814 304.82812 348.0594Q304.76562 347.7625 304.76562 347.075L304.76562 343.23126L305.82812 343.23126L305.82812 346.6844Q305.82812 347.4969 305.89062 347.79376Q305.98438 348.2 306.29688 348.45Q306.625 348.6844 307.10938 348.6844Q307.57812 348.6844 307.98438 348.45Q308.40625 348.2 308.57812 347.77814Q308.76562 347.35626 308.76562 346.5594L308.76562 343.23126L309.8125 343.23126L309.8125 349.45L308.875 349.45ZM311.79688 349.45L311.79688 343.23126L312.73438 343.23126L312.73438 344.10626Q313.03125 343.6375 313.51562 343.3719Q314.0 343.09064 314.625 343.09064Q315.3125 343.09064 315.75 343.3719Q316.20312 343.65314 316.375 344.16876Q317.125 343.09064 318.29688 343.09064Q319.23438 343.09064 319.71875 343.60626Q320.21875 344.10626 320.21875 345.1844L320.21875 349.45L319.17188 349.45L319.17188 345.52814Q319.17188 344.90314 319.0625 344.6219Q318.96875 344.34064 318.70312 344.16876Q318.4375 343.9969 318.0625 343.9969Q317.40625 343.9969 316.96875 344.4344Q316.54688 344.8719 316.54688 345.84064L316.54688 349.45L315.48438 349.45L315.48438 345.40314Q315.48438 344.7 315.21875 344.35626Q314.96875 343.9969 314.39062 343.9969Q313.9375 343.9969 313.5625 344.23126Q313.1875 344.46564 313.01562 344.91876Q312.84375 345.3719 312.84375 346.21564L312.84375 349.45L311.79688 349.45ZM322.76562 349.45L321.78125 349.45L321.78125 340.85626L322.84375 340.85626L322.84375 343.91876Q323.51562 343.09064 324.54688 343.09064Q325.125 343.09064 325.625 343.325Q326.14062 343.54376 326.46875 343.96564Q326.8125 344.3875 327.0 344.98126Q327.1875 345.575 327.1875 346.2469Q327.1875 347.84064 326.39062 348.71564Q325.59375 349.59064 324.5 349.59064Q323.39062 349.59064 322.76562 348.66876L322.76562 349.45ZM322.75 346.29376Q322.75 347.40314 323.0625 347.90314Q323.5625 348.71564 324.40625 348.71564Q325.09375 348.71564 325.59375 348.1219Q326.10938 347.52814 326.10938 346.325Q326.10938 345.10626 325.625 344.52814Q325.14062 343.95 324.45312 343.95Q323.76562 343.95 323.25 344.5594Q322.75 345.15314 322.75 346.29376ZM333.04688 347.45L334.14062 347.575Q333.89062 348.52814 333.1875 349.0594Q332.48438 349.59064 331.40625 349.59064Q330.04688 349.59064 329.23438 348.7469Q328.4375 347.90314 328.4375 346.3875Q328.4375 344.825 329.25 343.96564Q330.0625 343.09064 331.34375 343.09064Q332.59375 343.09064 333.375 343.9344Q334.17188 344.77814 334.17188 346.325Q334.17188 346.41876 334.17188 346.60626L329.53125 346.60626Q329.59375 347.6375 330.10938 348.1844Q330.625 348.71564 331.40625 348.71564Q331.98438 348.71564 332.39062 348.41876Q332.8125 348.10626 333.04688 347.45ZM329.59375 345.7469L333.0625 345.7469Q333.0 344.95 332.67188 344.5594Q332.15625 343.95 331.35938 343.95Q330.625 343.95 330.125 344.4344Q329.64062 344.91876 329.59375 345.7469ZM335.78125 349.45L335.78125 343.23126L336.73438 343.23126L336.73438 344.16876Q337.09375 343.5125 337.39062 343.3094Q337.70312 343.09064 338.07812 343.09064Q338.60938 343.09064 339.15625 343.41876L338.79688 344.40314Q338.40625 344.16876 338.03125 344.16876Q337.67188 344.16876 337.39062 344.3875Q337.125 344.59064 337.01562 344.96564Q336.82812 345.52814 336.82812 346.1844L336.82812 349.45L335.78125 349.45ZM342.40625 346.34064Q342.40625 344.60626 343.35938 343.77814Q344.15625 343.09064 345.3125 343.09064Q346.59375 343.09064 347.40625 343.9344Q348.23438 344.7625 348.23438 346.2469Q348.23438 347.45 347.875 348.1375Q347.51562 348.825 346.8125 349.21564Q346.125 349.59064 345.3125 349.59064Q344.01562 349.59064 343.20312 348.7625Q342.40625 347.91876 342.40625 346.34064ZM343.48438 346.34064Q343.48438 347.52814 344.0 348.1219Q344.53125 348.71564 345.3125 348.71564Q346.10938 348.71564 346.625 348.1219Q347.14062 347.52814 347.14062 346.3094Q347.14062 345.15314 346.60938 344.5594Q346.09375 343.96564 345.3125 343.96564Q344.53125 343.96564 344.0 344.5594Q343.48438 345.1375 343.48438 346.34064ZM350.04688 349.45L350.04688 344.04376L349.10938 344.04376L349.10938 343.23126L350.04688 343.23126L350.04688 342.5594Q350.04688 341.9344 350.15625 341.6375Q350.3125 341.21564 350.6875 340.96564Q351.07812 340.71564 351.76562 340.71564Q352.21875 340.71564 352.75 340.825L352.59375 341.73126Q352.26562 341.6844 351.96875 341.6844Q351.48438 341.6844 351.28125 341.8875Q351.09375 342.09064 351.09375 342.65314L351.09375 343.23126L352.3125 343.23126L352.3125 344.04376L351.09375 344.04376L351.09375 349.45L350.04688 349.45ZM359.85938 348.6844Q359.26562 349.1844 358.71875 349.3875Q358.1875 349.59064 357.5625 349.59064Q356.53125 349.59064 355.98438 349.09064Q355.4375 348.59064 355.4375 347.8094Q355.4375 347.35626 355.64062 346.98126Q355.84375 346.59064 356.1875 346.3719Q356.53125 346.1375 356.95312 346.02814Q357.25 345.9344 357.89062 345.85626Q359.15625 345.71564 359.76562 345.4969Q359.76562 345.27814 359.76562 345.23126Q359.76562 344.575 359.46875 344.3094Q359.0625 343.96564 358.26562 343.96564Q357.53125 343.96564 357.17188 344.23126Q356.8125 344.48126 356.64062 345.1375L355.60938 344.9969Q355.75 344.34064 356.07812 343.9344Q356.40625 343.52814 357.01562 343.3094Q357.625 343.09064 358.42188 343.09064Q359.21875 343.09064 359.71875 343.27814Q360.21875 343.46564 360.45312 343.7469Q360.6875 344.02814 360.78125 344.46564Q360.82812 344.73126 360.82812 345.4344L360.82812 346.84064Q360.82812 348.3094 360.89062 348.7Q360.96875 349.09064 361.17188 349.45L360.0625 349.45Q359.90625 349.1219 359.85938 348.6844ZM359.76562 346.325Q359.1875 346.5594 358.04688 346.73126Q357.39062 346.825 357.125 346.95Q356.85938 347.0594 356.70312 347.27814Q356.5625 347.4969 356.5625 347.77814Q356.5625 348.2 356.875 348.48126Q357.20312 348.7625 357.8125 348.7625Q358.42188 348.7625 358.89062 348.4969Q359.375 348.23126 359.59375 347.7625Q359.76562 347.40314 359.76562 346.71564L359.76562 346.325ZM362.79688 351.84064L362.79688 343.23126L363.75 343.23126L363.75 344.02814Q364.09375 343.5594 364.51562 343.325Q364.95312 343.09064 365.5625 343.09064Q366.35938 343.09064 366.96875 343.4969Q367.57812 343.90314 367.875 344.65314Q368.1875 345.40314 368.1875 346.29376Q368.1875 347.2469 367.84375 348.0125Q367.51562 348.77814 366.85938 349.1844Q366.20312 349.59064 365.48438 349.59064Q364.95312 349.59064 364.53125 349.3719Q364.10938 349.1375 363.84375 348.8094L363.84375 351.84064L362.79688 351.84064ZM363.75 346.3719Q363.75 347.575 364.23438 348.15314Q364.71875 348.71564 365.40625 348.71564Q366.10938 348.71564 366.60938 348.1219Q367.10938 347.52814 367.10938 346.27814Q367.10938 345.09064 366.625 344.5125Q366.14062 343.91876 365.45312 343.91876Q364.78125 343.91876 364.26562 344.54376Q363.75 345.16876 363.75 346.3719ZM369.79688 351.84064L369.79688 343.23126L370.75 343.23126L370.75 344.02814Q371.09375 343.5594 371.51562 343.325Q371.95312 343.09064 372.5625 343.09064Q373.35938 343.09064 373.96875 343.4969Q374.57812 343.90314 374.875 344.65314Q375.1875 345.40314 375.1875 346.29376Q375.1875 347.2469 374.84375 348.0125Q374.51562 348.77814 373.85938 349.1844Q373.20312 349.59064 372.48438 349.59064Q371.95312 349.59064 371.53125 349.3719Q371.10938 349.1375 370.84375 348.8094L370.84375 351.84064L369.79688 351.84064ZM370.75 346.3719Q370.75 347.575 371.23438 348.15314Q371.71875 348.71564 372.40625 348.71564Q373.10938 348.71564 373.60938 348.1219Q374.10938 347.52814 374.10938 346.27814Q374.10938 345.09064 373.625 344.5125Q373.14062 343.91876 372.45312 343.91876Q371.78125 343.91876 371.26562 344.54376Q370.75 345.16876 370.75 346.3719ZM376.375 347.59064L377.40625 347.4344Q377.5 348.0594 377.89062 348.3875Q378.29688 348.71564 379.03125 348.71564Q379.75 348.71564 380.09375 348.4344Q380.45312 348.1375 380.45312 347.73126Q380.45312 347.3719 380.14062 347.16876Q379.92188 347.02814 379.0625 346.8094Q377.90625 346.5125 377.45312 346.3094Q377.01562 346.09064 376.78125 345.71564Q376.54688 345.34064 376.54688 344.8719Q376.54688 344.46564 376.73438 344.10626Q376.92188 343.7469 377.25 343.5125Q377.5 343.34064 377.92188 343.21564Q378.34375 343.09064 378.84375 343.09064Q379.5625 343.09064 380.10938 343.3094Q380.67188 343.5125 380.9375 343.8719Q381.20312 344.23126 381.29688 344.825L380.26562 344.96564Q380.20312 344.4969 379.85938 344.23126Q379.53125 343.95 378.90625 343.95Q378.1875 343.95 377.875 344.2Q377.5625 344.4344 377.5625 344.7625Q377.5625 344.96564 377.6875 345.1219Q377.82812 345.29376 378.09375 345.40314Q378.25 345.46564 379.03125 345.66876Q380.15625 345.98126 380.59375 346.16876Q381.03125 346.35626 381.28125 346.71564Q381.53125 347.075 381.53125 347.6219Q381.53125 348.15314 381.21875 348.6219Q380.92188 349.075 380.34375 349.34064Q379.76562 349.59064 379.03125 349.59064Q377.8125 349.59064 377.17188 349.09064Q376.54688 348.575 376.375 347.59064Z" fill-rule="nonzero"/><path fill="#000000" d="M25.503124 118.93954L25.503124 117.93954L29.128124 117.92391L29.128124 121.11141Q28.3 121.78329 27.409374 122.12704Q26.51875 122.45516 25.58125 122.45516Q24.315624 122.45516 23.26875 121.92391Q22.2375 121.37704 21.70625 120.36141Q21.190624 119.33016 21.190624 118.06454Q21.190624 116.79891 21.70625 115.72079Q22.2375 114.62704 23.221874 114.11141Q24.20625 113.58016 25.4875 113.58016Q26.425 113.58016 27.175 113.87704Q27.925 114.17391 28.346874 114.72079Q28.784374 115.25204 29.003124 116.12704L27.9875 116.40829Q27.784374 115.75204 27.4875 115.37704Q27.20625 115.00204 26.675 114.78329Q26.14375 114.54891 25.503124 114.54891Q24.721874 114.54891 24.14375 114.78329Q23.58125 115.01766 23.221874 115.40829Q22.878124 115.79891 22.690624 116.26766Q22.3625 117.06454 22.3625 117.98641Q22.3625 119.14266 22.753124 119.92391Q23.159374 120.68954 23.909374 121.06454Q24.659374 121.43954 25.51875 121.43954Q26.253124 121.43954 26.95625 121.15829Q27.659374 120.86141 28.01875 120.54891L28.01875 118.93954L25.503124 118.93954ZM30.315624 122.31454L30.315624 113.72079L31.378124 113.72079L31.378124 122.31454L30.315624 122.31454ZM32.95625 119.20516Q32.95625 117.47079 33.909374 116.64266Q34.70625 115.95516 35.8625 115.95516Q37.14375 115.95516 37.95625 116.79891Q38.784374 117.62704 38.784374 119.11141Q38.784374 120.31454 38.425 121.00204Q38.065624 121.68954 37.3625 122.08016Q36.675 122.45516 35.8625 122.45516Q34.565624 122.45516 33.753124 121.62704Q32.95625 120.78329 32.95625 119.20516ZM34.034374 119.20516Q34.034374 120.39266 34.55 120.98641Q35.08125 121.58016 35.8625 121.58016Q36.659374 121.58016 37.175 120.98641Q37.690624 120.39266 37.690624 119.17391Q37.690624 118.01766 37.159374 117.42391Q36.64375 116.83016 35.8625 116.83016Q35.08125 116.83016 34.55 117.42391Q34.034374 118.00204 34.034374 119.20516ZM41.315624 122.31454L40.33125 122.31454L40.33125 113.72079L41.39375 113.72079L41.39375 116.78329Q42.065624 115.95516 43.096874 115.95516Q43.675 115.95516 44.175 116.18954Q44.690624 116.40829 45.01875 116.83016Q45.3625 117.25204 45.55 117.84579Q45.7375 118.43954 45.7375 119.11141Q45.7375 120.70516 44.940624 121.58016Q44.14375 122.45516 43.05 122.45516Q41.940624 122.45516 41.315624 121.53329L41.315624 122.31454ZM41.3 119.15829Q41.3 120.26766 41.6125 120.76766Q42.1125 121.58016 42.95625 121.58016Q43.64375 121.58016 44.14375 120.98641Q44.659374 120.39266 44.659374 119.18954Q44.659374 117.97079 44.175 117.39266Q43.690624 116.81454 43.003124 116.81454Q42.315624 116.81454 41.8 117.42391Q41.3 118.01766 41.3 119.15829ZM51.409374 121.54891Q50.815624 122.04891 50.26875 122.25204Q49.7375 122.45516 49.1125 122.45516Q48.08125 122.45516 47.534374 121.95516Q46.9875 121.45516 46.9875 120.67391Q46.9875 120.22079 47.190624 119.84579Q47.39375 119.45516 47.7375 119.23641Q48.08125 119.00204 48.503124 118.89266Q48.8 118.79891 49.440624 118.72079Q50.70625 118.58016 51.315624 118.36141Q51.315624 118.14266 51.315624 118.09579Q51.315624 117.43954 51.01875 117.17391Q50.6125 116.83016 49.815624 116.83016Q49.08125 116.83016 48.721874 117.09579Q48.3625 117.34579 48.190624 118.00204L47.159374 117.86141Q47.3 117.20516 47.628124 116.79891Q47.95625 116.39266 48.565624 116.17391Q49.175 115.95516 49.971874 115.95516Q50.76875 115.95516 51.26875 116.14266Q51.76875 116.33016 52.003124 116.61141Q52.2375 116.89266 52.33125 117.33016Q52.378124 117.59579 52.378124 118.29891L52.378124 119.70516Q52.378124 121.17391 52.440624 121.56454Q52.51875 121.95516 52.721874 122.31454L51.6125 122.31454Q51.45625 121.98641 51.409374 121.54891ZM51.315624 119.18954Q50.7375 119.42391 49.596874 119.59579Q48.940624 119.68954 48.675 119.81454Q48.409374 119.92391 48.253124 120.14266Q48.1125 120.36141 48.1125 120.64266Q48.1125 121.06454 48.425 121.34579Q48.753124 121.62704 49.3625 121.62704Q49.971874 121.62704 50.440624 121.36141Q50.925 121.09579 51.14375 120.62704Q51.315624 120.26766 51.315624 119.58016L51.315624 119.18954ZM54.315624 122.31454L54.315624 113.72079L55.378124 113.72079L55.378124 122.31454L54.315624 122.31454ZM60.471874 122.31454L60.471874 113.72079L61.628124 113.72079L66.14375 120.47079L66.14375 113.72079L67.2375 113.72079L67.2375 122.31454L66.06563 122.31454L61.55 115.56454L61.55 122.31454L60.471874 122.31454ZM68.95625 119.20516Q68.95625 117.47079 69.90938 116.64266Q70.70625 115.95516 71.8625 115.95516Q73.14375 115.95516 73.95625 116.79891Q74.78438 117.62704 74.78438 119.11141Q74.78438 120.31454 74.425 121.00204Q74.06563 121.68954 73.3625 122.08016Q72.675 122.45516 71.8625 122.45516Q70.56563 122.45516 69.75313 121.62704Q68.95625 120.78329 68.95625 119.20516ZM70.03438 119.20516Q70.03438 120.39266 70.55 120.98641Q71.08125 121.58016 71.8625 121.58016Q72.65938 121.58016 73.175 120.98641Q73.69063 120.39266 73.69063 119.17391Q73.69063 118.01766 73.15938 117.42391Q72.64375 116.83016 71.8625 116.83016Q71.08125 116.83016 70.55 117.42391Q70.03438 118.00204 70.03438 119.20516ZM76.33125 122.31454L76.33125 116.09579L77.28438 116.09579L77.28438 117.03329Q77.64375 116.37704 77.94063 116.17391Q78.25313 115.95516 78.62813 115.95516Q79.15938 115.95516 79.70625 116.28329L79.34688 117.26766Q78.95625 117.03329 78.58125 117.03329Q78.22188 117.03329 77.94063 117.25204Q77.675 117.45516 77.56563 117.83016Q77.37813 118.39266 77.37813 119.04891L77.37813 122.31454L76.33125 122.31454ZM82.64375 121.37704L82.8 122.29891Q82.34688 122.39266 82.00313 122.39266Q81.425 122.39266 81.1125 122.22079Q80.8 122.03329 80.65938 121.73641Q80.53438 121.43954 80.53438 120.48641L80.53438 116.90829L79.76875 116.90829L79.76875 116.09579L80.53438 116.09579L80.53438 114.54891L81.58125 113.92391L81.58125 116.09579L82.64375 116.09579L82.64375 116.90829L81.58125 116.90829L81.58125 120.54891Q81.58125 121.00204 81.62813 121.12704Q81.69063 121.25204 81.81563 121.33016Q81.94063 121.40829 82.175 121.40829Q82.3625 121.40829 82.64375 121.37704ZM83.34688 122.31454L83.34688 113.72079L84.39375 113.72079L84.39375 116.79891Q85.12813 115.95516 86.25313 115.95516Q86.95625 115.95516 87.45625 116.23641Q87.97188 116.50204 88.19063 116.98641Q88.40938 117.45516 88.40938 118.37704L88.40938 122.31454L87.3625 122.31454L87.3625 118.37704Q87.3625 117.58016 87.01875 117.22079Q86.675 116.86141 86.05 116.86141Q85.58125 116.86141 85.15938 117.11141Q84.75313 117.34579 84.56563 117.76766Q84.39375 118.17391 84.39375 118.90829L84.39375 122.31454L83.34688 122.31454Z" fill-rule="nonzero"/><path fill="#000000" d="M23.503124 227.67712L23.503124 226.67712L27.128124 226.6615L27.128124 229.849Q26.3 230.52087 25.409374 230.86462Q24.51875 231.19275 23.58125 231.19275Q22.315624 231.19275 21.26875 230.6615Q20.2375 230.11462 19.70625 229.099Q19.190624 228.06775 19.190624 226.80212Q19.190624 225.5365 19.70625 224.45837Q20.2375 223.36462 21.221874 222.849Q22.20625 222.31775 23.4875 222.31775Q24.425 222.31775 25.175 222.61462Q25.925 222.9115 26.346874 223.45837Q26.784374 223.98962 27.003124 224.86462L25.9875 225.14587Q25.784374 224.48962 25.4875 224.11462Q25.20625 223.73962 24.675 223.52087Q24.14375 223.2865 23.503124 223.2865Q22.721874 223.2865 22.14375 223.52087Q21.58125 223.75525 21.221874 224.14587Q20.878124 224.5365 20.690624 225.00525Q20.3625 225.80212 20.3625 226.724Q20.3625 227.88025 20.753124 228.6615Q21.159374 229.42712 21.909374 229.80212Q22.659374 230.17712 23.51875 230.17712Q24.253124 230.17712 24.95625 229.89587Q25.659374 229.599 26.01875 229.2865L26.01875 227.67712L23.503124 227.67712ZM28.315624 231.05212L28.315624 222.45837L29.378124 222.45837L29.378124 231.05212L28.315624 231.05212ZM30.95625 227.94275Q30.95625 226.20837 31.909374 225.38025Q32.70625 224.69275 33.8625 224.69275Q35.14375 224.69275 35.95625 225.5365Q36.784374 226.36462 36.784374 227.849Q36.784374 229.05212 36.425 229.73962Q36.065624 230.42712 35.3625 230.81775Q34.675 231.19275 33.8625 231.19275Q32.565624 231.19275 31.753124 230.36462Q30.95625 229.52087 30.95625 227.94275ZM32.034374 227.94275Q32.034374 229.13025 32.55 229.724Q33.08125 230.31775 33.8625 230.31775Q34.659374 230.31775 35.175 229.724Q35.690624 229.13025 35.690624 227.9115Q35.690624 226.75525 35.159374 226.1615Q34.64375 225.56775 33.8625 225.56775Q33.08125 225.56775 32.55 226.1615Q32.034374 226.73962 32.034374 227.94275ZM39.315624 231.05212L38.33125 231.05212L38.33125 222.45837L39.39375 222.45837L39.39375 225.52087Q40.065624 224.69275 41.096874 224.69275Q41.675 224.69275 42.175 224.92712Q42.690624 225.14587 43.01875 225.56775Q43.3625 225.98962 43.55 226.58337Q43.7375 227.17712 43.7375 227.849Q43.7375 229.44275 42.940624 230.31775Q42.14375 231.19275 41.05 231.19275Q39.940624 231.19275 39.315624 230.27087L39.315624 231.05212ZM39.3 227.89587Q39.3 229.00525 39.6125 229.50525Q40.1125 230.31775 40.95625 230.31775Q41.64375 230.31775 42.14375 229.724Q42.659374 229.13025 42.659374 227.92712Q42.659374 226.70837 42.175 226.13025Q41.690624 225.55212 41.003124 225.55212Q40.315624 225.55212 39.8 226.1615Q39.3 226.75525 39.3 227.89587ZM49.409374 230.2865Q48.815624 230.7865 48.26875 230.98962Q47.7375 231.19275 47.1125 231.19275Q46.08125 231.19275 45.534374 230.69275Q44.9875 230.19275 44.9875 229.4115Q44.9875 228.95837 45.190624 228.58337Q45.39375 228.19275 45.7375 227.974Q46.08125 227.73962 46.503124 227.63025Q46.8 227.5365 47.440624 227.45837Q48.70625 227.31775 49.315624 227.099Q49.315624 226.88025 49.315624 226.83337Q49.315624 226.17712 49.01875 225.9115Q48.6125 225.56775 47.815624 225.56775Q47.08125 225.56775 46.721874 225.83337Q46.3625 226.08337 46.190624 226.73962L45.159374 226.599Q45.3 225.94275 45.628124 225.5365Q45.95625 225.13025 46.565624 224.9115Q47.175 224.69275 47.971874 224.69275Q48.76875 224.69275 49.26875 224.88025Q49.76875 225.06775 50.003124 225.349Q50.2375 225.63025 50.33125 226.06775Q50.378124 226.33337 50.378124 227.0365L50.378124 228.44275Q50.378124 229.9115 50.440624 230.30212Q50.51875 230.69275 50.721874 231.05212L49.6125 231.05212Q49.45625 230.724 49.409374 230.2865ZM49.315624 227.92712Q48.7375 228.1615 47.596874 228.33337Q46.940624 228.42712 46.675 228.55212Q46.409374 228.6615 46.253124 228.88025Q46.1125 229.099 46.1125 229.38025Q46.1125 229.80212 46.425 230.08337Q46.753124 230.36462 47.3625 230.36462Q47.971874 230.36462 48.440624 230.099Q48.925 229.83337 49.14375 229.36462Q49.315624 229.00525 49.315624 228.31775L49.315624 227.92712ZM52.315624 231.05212L52.315624 222.45837L53.378124 222.45837L53.378124 231.05212L52.315624 231.05212ZM58.096874 228.2865L59.159374 228.19275Q59.2375 228.849 59.51875 229.25525Q59.8 229.6615 60.378124 229.92712Q60.971874 230.17712 61.70625 230.17712Q62.346874 230.17712 62.846874 229.98962Q63.346874 229.7865 63.58125 229.45837Q63.83125 229.11462 63.83125 228.724Q63.83125 228.31775 63.596874 228.02087Q63.3625 227.70837 62.83125 227.50525Q62.471874 227.36462 61.284374 227.08337Q60.1125 226.80212 59.64375 226.55212Q59.01875 226.224 58.721874 225.75525Q58.425 225.27087 58.425 224.67712Q58.425 224.0365 58.784374 223.474Q59.159374 222.89587 59.8625 222.61462Q60.58125 222.31775 61.440624 222.31775Q62.39375 222.31775 63.128124 222.63025Q63.8625 222.92712 64.25313 223.5365Q64.64375 224.13025 64.675 224.88025L63.58125 224.95837Q63.4875 224.14587 62.971874 223.73962Q62.471874 223.31775 61.4875 223.31775Q60.45625 223.31775 59.9875 223.69275Q59.51875 224.06775 59.51875 224.599Q59.51875 225.06775 59.846874 225.36462Q60.175 225.6615 61.55 225.974Q62.940624 226.2865 63.45625 226.52087Q64.20625 226.88025 64.56563 227.4115Q64.925 227.92712 64.925 228.63025Q64.925 229.31775 64.53438 229.92712Q64.14375 230.52087 63.409374 230.86462Q62.675 231.19275 61.753124 231.19275Q60.58125 231.19275 59.784374 230.86462Q59.003124 230.52087 58.55 229.83337Q58.1125 229.14587 58.096874 228.2865ZM65.95625 227.94275Q65.95625 226.20837 66.90938 225.38025Q67.70625 224.69275 68.8625 224.69275Q70.14375 224.69275 70.95625 225.5365Q71.78438 226.36462 71.78438 227.849Q71.78438 229.05212 71.425 229.73962Q71.06563 230.42712 70.3625 230.81775Q69.675 231.19275 68.8625 231.19275Q67.56563 231.19275 66.75313 230.36462Q65.95625 229.52087 65.95625 227.94275ZM67.03438 227.94275Q67.03438 229.13025 67.55 229.724Q68.08125 230.31775 68.8625 230.31775Q69.65938 230.31775 70.175 229.724Q70.69063 229.13025 70.69063 227.9115Q70.69063 226.75525 70.15938 226.1615Q69.64375 225.56775 68.8625 225.56775Q68.08125 225.56775 67.55 226.1615Q67.03438 226.73962 67.03438 227.94275ZM77.425 231.05212L77.425 230.13025Q76.69063 231.19275 75.44063 231.19275Q74.89375 231.19275 74.40938 230.98962Q73.94063 230.77087 73.70625 230.45837Q73.47188 230.13025 73.37813 229.6615Q73.31563 229.36462 73.31563 228.67712L73.31563 224.83337L74.37813 224.83337L74.37813 228.2865Q74.37813 229.099 74.44063 229.39587Q74.53438 229.80212 74.84688 230.05212Q75.175 230.2865 75.65938 230.2865Q76.12813 230.2865 76.53438 230.05212Q76.95625 229.80212 77.12813 229.38025Q77.31563 228.95837 77.31563 228.1615L77.31563 224.83337L78.3625 224.83337L78.3625 231.05212L77.425 231.05212ZM82.64375 230.11462L82.8 231.0365Q82.34688 231.13025 82.00313 231.13025Q81.425 231.13025 81.1125 230.95837Q80.8 230.77087 80.65938 230.474Q80.53438 230.17712 80.53438 229.224L80.53438 225.64587L79.76875 225.64587L79.76875 224.83337L80.53438 224.83337L80.53438 223.2865L81.58125 222.6615L81.58125 224.83337L82.64375 224.83337L82.64375 225.64587L81.58125 225.64587L81.58125 229.2865Q81.58125 229.73962 81.62813 229.86462Q81.69063 229.98962 81.81563 230.06775Q81.94063 230.14587 82.175 230.14587Q82.3625 230.14587 82.64375 230.11462ZM83.34688 231.05212L83.34688 222.45837L84.39375 222.45837L84.39375 225.5365Q85.12813 224.69275 86.25313 224.69275Q86.95625 224.69275 87.45625 224.974Q87.97188 225.23962 88.19063 225.724Q88.40938 226.19275 88.40938 227.11462L88.40938 231.05212L87.3625 231.05212L87.3625 227.11462Q87.3625 226.31775 87.01875 225.95837Q86.675 225.599 86.05 225.599Q85.58125 225.599 85.15938 225.849Q84.75313 226.08337 84.56563 226.50525Q84.39375 226.9115 84.39375 227.64587L84.39375 231.05212L83.34688 231.05212Z" fill-rule="nonzero"/><path fill="#000000" d="M92.55 313.21564Q92.55 311.6844 92.8625 310.7625Q93.175 309.825 93.78438 309.325Q94.40938 308.825 95.34688 308.825Q96.03438 308.825 96.55 309.10626Q97.08125 309.3875 97.425 309.91876Q97.76875 310.4344 97.95625 311.1844Q98.14375 311.9344 98.14375 313.21564Q98.14375 314.73126 97.83125 315.65314Q97.53438 316.575 96.90938 317.09064Q96.3 317.59064 95.34688 317.59064Q94.1125 317.59064 93.39375 316.7Q92.55 315.6375 92.55 313.21564ZM93.62813 313.21564Q93.62813 315.325 94.12813 316.02814Q94.62813 316.73126 95.34688 316.73126Q96.08125 316.73126 96.56563 316.02814Q97.06563 315.325 97.06563 313.21564Q97.06563 311.09064 96.56563 310.40314Q96.08125 309.7 95.33125 309.7Q94.6125 309.7 94.175 310.3094Q93.62813 311.09064 93.62813 313.21564Z" fill-rule="nonzero"/><path fill="#000000" d="M189.73 315.2L190.83937 315.10626Q190.96437 315.91876 191.40187 316.325Q191.855 316.73126 192.49562 316.73126Q193.24562 316.73126 193.77687 316.15314Q194.30812 315.575 194.30812 314.6375Q194.30812 313.73126 193.7925 313.21564Q193.2925 312.6844 192.46437 312.6844Q191.96437 312.6844 191.5425 312.91876Q191.13625 313.15314 190.90187 313.5125L189.9175 313.3875L190.74562 308.98126L195.02687 308.98126L195.02687 309.98126L191.58937 309.98126L191.13625 312.29376Q191.90187 311.7469 192.74562 311.7469Q193.87062 311.7469 194.63625 312.52814Q195.4175 313.3094 195.4175 314.54376Q195.4175 315.7 194.74562 316.5594Q193.9175 317.59064 192.49562 317.59064Q191.32375 317.59064 190.57375 316.9344Q189.83937 316.27814 189.73 315.2Z" fill-rule="nonzero"/><path fill="#000000" d="M287.37875 317.45L286.33188 317.45L286.33188 310.73126Q285.94125 311.09064 285.31625 311.46564Q284.70688 311.825 284.2225 311.9969L284.2225 310.98126Q285.0975 310.5594 285.75375 309.98126Q286.42563 309.3875 286.70688 308.825L287.37875 308.825L287.37875 317.45ZM290.41 313.21564Q290.41 311.6844 290.7225 310.7625Q291.035 309.825 291.64438 309.325Q292.26938 308.825 293.20688 308.825Q293.89438 308.825 294.41 309.10626Q294.94125 309.3875 295.285 309.91876Q295.62875 310.4344 295.81625 311.1844Q296.00375 311.9344 296.00375 313.21564Q296.00375 314.73126 295.69125 315.65314Q295.39438 316.575 294.76938 317.09064Q294.16 317.59064 293.20688 317.59064Q291.9725 317.59064 291.25375 316.7Q290.41 315.6375 290.41 313.21564ZM291.48813 313.21564Q291.48813 315.325 291.98813 316.02814Q292.48813 316.73126 293.20688 316.73126Q293.94125 316.73126 294.42563 316.02814Q294.92563 315.325 294.92563 313.21564Q294.92563 311.09064 294.42563 310.40314Q293.94125 309.7 293.19125 309.7Q292.4725 309.7 292.035 310.3094Q291.48813 311.09064 291.48813 313.21564Z" fill-rule="nonzero"/><path fill="#000000" d="M384.55875 317.45L383.51187 317.45L383.51187 310.73126Q383.12125 311.09064 382.49625 311.46564Q381.88687 311.825 381.4025 311.9969L381.4025 310.98126Q382.2775 310.5594 382.93375 309.98126Q383.60562 309.3875 383.88687 308.825L384.55875 308.825L384.55875 317.45ZM387.59 315.2L388.69937 315.10626Q388.82437 315.91876 389.26187 316.325Q389.715 316.73126 390.35562 316.73126Q391.10562 316.73126 391.63687 316.15314Q392.16812 315.575 392.16812 314.6375Q392.16812 313.73126 391.6525 313.21564Q391.1525 312.6844 390.32437 312.6844Q389.82437 312.6844 389.4025 312.91876Q388.99625 313.15314 388.76187 313.5125L387.7775 313.3875L388.60562 308.98126L392.88687 308.98126L392.88687 309.98126L389.44937 309.98126L388.99625 312.29376Q389.76187 311.7469 390.60562 311.7469Q391.73062 311.7469 392.49625 312.52814Q393.2775 313.3094 393.2775 314.54376Q393.2775 315.7 392.60562 316.5594Q391.7775 317.59064 390.35562 317.59064Q389.18375 317.59064 388.43375 316.9344Q387.69937 316.27814 387.59 315.2Z" fill-rule="nonzero"/><path fill="#000000" d="M483.31686 316.4344L483.31686 317.45L477.62936 317.45Q477.62936 317.075 477.75436 316.71564Q477.9731 316.1375 478.44186 315.575Q478.92624 315.0125 479.8325 314.27814Q481.23874 313.1219 481.7231 312.45Q482.2231 311.77814 482.2231 311.1844Q482.2231 310.5594 481.77 310.1375Q481.31686 309.7 480.5981 309.7Q479.8325 309.7 479.37936 310.15314Q478.92624 310.60626 478.9106 311.41876L477.8325 311.3094Q477.94186 310.09064 478.6606 309.46564Q479.395 308.825 480.62936 308.825Q481.86374 308.825 482.5825 309.5125Q483.30124 310.2 483.30124 311.21564Q483.30124 311.73126 483.0825 312.23126Q482.87936 312.71564 482.37936 313.27814Q481.895 313.825 480.77 314.77814Q479.81686 315.575 479.5356 315.8719Q479.27 316.15314 479.0981 316.4344L483.31686 316.4344ZM484.77 313.21564Q484.77 311.6844 485.0825 310.7625Q485.395 309.825 486.00436 309.325Q486.62936 308.825 487.56686 308.825Q488.25436 308.825 488.77 309.10626Q489.30124 309.3875 489.645 309.91876Q489.98874 310.4344 490.17624 311.1844Q490.36374 311.9344 490.36374 313.21564Q490.36374 314.73126 490.05124 315.65314Q489.75436 316.575 489.12936 317.09064Q488.52 317.59064 487.56686 317.59064Q486.3325 317.59064 485.61374 316.7Q484.77 315.6375 484.77 313.21564ZM485.8481 313.21564Q485.8481 315.325 486.3481 316.02814Q486.8481 316.73126 487.56686 316.73126Q488.30124 316.73126 488.7856 316.02814Q489.2856 315.325 489.2856 313.21564Q489.2856 311.09064 488.7856 310.40314Q488.30124 309.7 487.55124 309.7Q486.8325 309.7 486.395 310.3094Q485.8481 311.09064 485.8481 313.21564Z" fill-rule="nonzero"/><path fill="#000000" d="M580.4969 316.4344L580.4969 317.45L574.8094 317.45Q574.8094 317.075 574.9344 316.71564Q575.15314 316.1375 575.6219 315.575Q576.10626 315.0125 577.0125 314.27814Q578.41876 313.1219 578.90314 312.45Q579.40314 311.77814 579.40314 311.1844Q579.40314 310.5594 578.95 310.1375Q578.4969 309.7 577.77814 309.7Q577.0125 309.7 576.5594 310.15314Q576.10626 310.60626 576.09064 311.41876L575.0125 311.3094Q575.1219 310.09064 575.84064 309.46564Q576.575 308.825 577.8094 308.825Q579.04376 308.825 579.7625 309.5125Q580.48126 310.2 580.48126 311.21564Q580.48126 311.73126 580.2625 312.23126Q580.0594 312.71564 579.5594 313.27814Q579.075 313.825 577.95 314.77814Q576.9969 315.575 576.71564 315.8719Q576.45 316.15314 576.27814 316.4344L580.4969 316.4344ZM581.95 315.2L583.0594 315.10626Q583.1844 315.91876 583.6219 316.325Q584.075 316.73126 584.71564 316.73126Q585.46564 316.73126 585.9969 316.15314Q586.52814 315.575 586.52814 314.6375Q586.52814 313.73126 586.0125 313.21564Q585.5125 312.6844 584.6844 312.6844Q584.1844 312.6844 583.7625 312.91876Q583.35626 313.15314 583.1219 313.5125L582.1375 313.3875L582.96564 308.98126L587.2469 308.98126L587.2469 309.98126L583.8094 309.98126L583.35626 312.29376Q584.1219 311.7469 584.96564 311.7469Q586.09064 311.7469 586.85626 312.52814Q587.6375 313.3094 587.6375 314.54376Q587.6375 315.7 586.96564 316.5594Q586.1375 317.59064 584.71564 317.59064Q583.54376 317.59064 582.79376 316.9344Q582.0594 316.27814 581.95 315.2Z" fill-rule="nonzero"/><path fill="#a4c2f4" d="M130.0 20.55C130.0 19.997715 130.44771 19.55 131.0 19.55L141.0 19.55C141.55229 19.55 142.0 19.997715 142.0 20.55L142.0 30.55C142.0 31.102285 141.55229 31.55 141.0 31.55L131.0 31.55C130.44771 31.55 130.0 31.102285 130.0 30.55Z" fill-rule="nonzero"/><path fill="#000000" d="M150.54688 26.784374L151.60938 26.690624Q151.6875 27.346874 151.96875 27.753124Q152.25 28.159374 152.82812 28.425Q153.42188 28.675 154.15625 28.675Q154.79688 28.675 155.29688 28.4875Q155.79688 28.284374 156.03125 27.95625Q156.28125 27.6125 156.28125 27.221874Q156.28125 26.815624 156.04688 26.51875Q155.8125 26.20625 155.28125 26.003124Q154.92188 25.8625 153.73438 25.58125Q152.5625 25.3 152.09375 25.05Q151.46875 24.721874 151.17188 24.253124Q150.875 23.76875 150.875 23.175Q150.875 22.534374 151.23438 21.971874Q151.60938 21.39375 152.3125 21.1125Q153.03125 20.815624 153.89062 20.815624Q154.84375 20.815624 155.57812 21.128124Q156.3125 21.425 156.70312 22.034374Q157.09375 22.628124 157.125 23.378124L156.03125 23.45625Q155.9375 22.64375 155.42188 22.2375Q154.92188 21.815624 153.9375 21.815624Q152.90625 21.815624 152.4375 22.190624Q151.96875 22.565624 151.96875 23.096874Q151.96875 23.565624 152.29688 23.8625Q152.625 24.159374 154.0 24.471874Q155.39062 24.784374 155.90625 25.01875Q156.65625 25.378124 157.01562 25.909374Q157.375 26.425 157.375 27.128124Q157.375 27.815624 156.98438 28.425Q156.59375 29.01875 155.85938 29.3625Q155.125 29.690624 154.20312 29.690624Q153.03125 29.690624 152.23438 29.3625Q151.45312 29.01875 151.0 28.33125Q150.5625 27.64375 150.54688 26.784374ZM161.09375 28.6125L161.25 29.534374Q160.79688 29.628124 160.45312 29.628124Q159.875 29.628124 159.5625 29.45625Q159.25 29.26875 159.10938 28.971874Q158.98438 28.675 158.98438 27.721874L158.98438 24.14375L158.21875 24.14375L158.21875 23.33125L158.98438 23.33125L158.98438 21.784374L160.03125 21.159374L160.03125 23.33125L161.09375 23.33125L161.09375 24.14375L160.03125 24.14375L160.03125 27.784374Q160.03125 28.2375 160.07812 28.3625Q160.14062 28.4875 160.26562 28.565624Q160.39062 28.64375 160.625 28.64375Q160.8125 28.64375 161.09375 28.6125ZM165.85938 28.784374Q165.26562 29.284374 164.71875 29.4875Q164.1875 29.690624 163.5625 29.690624Q162.53125 29.690624 161.98438 29.190624Q161.4375 28.690624 161.4375 27.909374Q161.4375 27.45625 161.64062 27.08125Q161.84375 26.690624 162.1875 26.471874Q162.53125 26.2375 162.95312 26.128124Q163.25 26.034374 163.89062 25.95625Q165.15625 25.815624 165.76562 25.596874Q165.76562 25.378124 165.76562 25.33125Q165.76562 24.675 165.46875 24.409374Q165.0625 24.065624 164.26562 24.065624Q163.53125 24.065624 163.17188 24.33125Q162.8125 24.58125 162.64062 25.2375L161.60938 25.096874Q161.75 24.440624 162.07812 24.034374Q162.40625 23.628124 163.01562 23.409374Q163.625 23.190624 164.42188 23.190624Q165.21875 23.190624 165.71875 23.378124Q166.21875 23.565624 166.45312 23.846874Q166.6875 24.128124 166.78125 24.565624Q166.82812 24.83125 166.82812 25.534374L166.82812 26.940624Q166.82812 28.409374 166.89062 28.8Q166.96875 29.190624 167.17188 29.55L166.0625 29.55Q165.90625 29.221874 165.85938 28.784374ZM165.76562 26.425Q165.1875 26.659374 164.04688 26.83125Q163.39062 26.925 163.125 27.05Q162.85938 27.159374 162.70312 27.378124Q162.5625 27.596874 162.5625 27.878124Q162.5625 28.3 162.875 28.58125Q163.20312 28.8625 163.8125 28.8625Q164.42188 28.8625 164.89062 28.596874Q165.375 28.33125 165.59375 27.8625Q165.76562 27.503124 165.76562 26.815624L165.76562 26.425ZM171.09375 28.6125L171.25 29.534374Q170.79688 29.628124 170.45312 29.628124Q169.875 29.628124 169.5625 29.45625Q169.25 29.26875 169.10938 28.971874Q168.98438 28.675 168.98438 27.721874L168.98438 24.14375L168.21875 24.14375L168.21875 23.33125L168.98438 23.33125L168.98438 21.784374L170.03125 21.159374L170.03125 23.33125L171.09375 23.33125L171.09375 24.14375L170.03125 24.14375L170.03125 27.784374Q170.03125 28.2375 170.07812 28.3625Q170.14062 28.4875 170.26562 28.565624Q170.39062 28.64375 170.625 28.64375Q170.8125 28.64375 171.09375 28.6125ZM176.04688 27.55L177.14062 27.675Q176.89062 28.628124 176.1875 29.159374Q175.48438 29.690624 174.40625 29.690624Q173.04688 29.690624 172.23438 28.846874Q171.4375 28.003124 171.4375 26.4875Q171.4375 24.925 172.25 24.065624Q173.0625 23.190624 174.34375 23.190624Q175.59375 23.190624 176.375 24.034374Q177.17188 24.878124 177.17188 26.425Q177.17188 26.51875 177.17188 26.70625L172.53125 26.70625Q172.59375 27.7375 173.10938 28.284374Q173.625 28.815624 174.40625 28.815624Q174.98438 28.815624 175.39062 28.51875Q175.8125 28.20625 176.04688 27.55ZM172.59375 25.846874L176.0625 25.846874Q176.0 25.05 175.67188 24.659374Q175.15625 24.05 174.35938 24.05Q173.625 24.05 173.125 24.534374Q172.64062 25.01875 172.59375 25.846874Z" fill-rule="nonzero"/><path fill="#ea9999" d="M194.0 20.55C194.0 19.997715 194.44771 19.55 195.0 19.55L205.0 19.55C205.55229 19.55 206.0 19.997715 206.0 20.55L206.0 30.55C206.0 31.102285 205.55229 31.55 205.0 31.55L195.0 31.55C194.44771 31.55 194.0 31.102285 194.0 30.55Z" fill-rule="nonzero"/><path fill="#000000" d="M214.92188 29.55L214.92188 20.95625L218.17188 20.95625Q219.01562 20.95625 219.46875 21.034374Q220.10938 21.14375 220.53125 21.440624Q220.96875 21.7375 221.21875 22.26875Q221.48438 22.8 221.48438 23.440624Q221.48438 24.534374 220.78125 25.3Q220.09375 26.05 218.26562 26.05L216.0625 26.05L216.0625 29.55L214.92188 29.55ZM216.0625 25.05L218.28125 25.05Q219.39062 25.05 219.84375 24.64375Q220.3125 24.221874 220.3125 23.471874Q220.3125 22.940624 220.03125 22.565624Q219.76562 22.175 219.32812 22.05Q219.03125 21.971874 218.26562 21.971874L216.0625 21.971874L216.0625 25.05ZM222.78125 29.55L222.78125 23.33125L223.73438 23.33125L223.73438 24.26875Q224.09375 23.6125 224.39062 23.409374Q224.70312 23.190624 225.07812 23.190624Q225.60938 23.190624 226.15625 23.51875L225.79688 24.503124Q225.40625 24.26875 225.03125 24.26875Q224.67188 24.26875 224.39062 24.4875Q224.125 24.690624 224.01562 25.065624Q223.82812 25.628124 223.82812 26.284374L223.82812 29.55L222.78125 29.55ZM226.79688 22.175L226.79688 20.95625L227.85938 20.95625L227.85938 22.175L226.79688 22.175ZM226.79688 29.55L226.79688 23.33125L227.85938 23.33125L227.85938 29.55L226.79688 29.55ZM231.51562 29.55L229.15625 23.33125L230.26562 23.33125L231.60938 27.05Q231.8125 27.659374 232.0 28.3Q232.14062 27.815624 232.39062 27.128124L233.78125 23.33125L234.85938 23.33125L232.5 29.55L231.51562 29.55ZM239.85938 28.784374Q239.26562 29.284374 238.71875 29.4875Q238.1875 29.690624 237.5625 29.690624Q236.53125 29.690624 235.98438 29.190624Q235.4375 28.690624 235.4375 27.909374Q235.4375 27.45625 235.64062 27.08125Q235.84375 26.690624 236.1875 26.471874Q236.53125 26.2375 236.95312 26.128124Q237.25 26.034374 237.89062 25.95625Q239.15625 25.815624 239.76562 25.596874Q239.76562 25.378124 239.76562 25.33125Q239.76562 24.675 239.46875 24.409374Q239.0625 24.065624 238.26562 24.065624Q237.53125 24.065624 237.17188 24.33125Q236.8125 24.58125 236.64062 25.2375L235.60938 25.096874Q235.75 24.440624 236.07812 24.034374Q236.40625 23.628124 237.01562 23.409374Q237.625 23.190624 238.42188 23.190624Q239.21875 23.190624 239.71875 23.378124Q240.21875 23.565624 240.45312 23.846874Q240.6875 24.128124 240.78125 24.565624Q240.82812 24.83125 240.82812 25.534374L240.82812 26.940624Q240.82812 28.409374 240.89062 28.8Q240.96875 29.190624 241.17188 29.55L240.0625 29.55Q239.90625 29.221874 239.85938 28.784374ZM239.76562 26.425Q239.1875 26.659374 238.04688 26.83125Q237.39062 26.925 237.125 27.05Q236.85938 27.159374 236.70312 27.378124Q236.5625 27.596874 236.5625 27.878124Q236.5625 28.3 236.875 28.58125Q237.20312 28.8625 237.8125 28.8625Q238.42188 28.8625 238.89062 28.596874Q239.375 28.33125 239.59375 27.8625Q239.76562 27.503124 239.76562 26.815624L239.76562 26.425ZM245.09375 28.6125L245.25 29.534374Q244.79688 29.628124 244.45312 29.628124Q243.875 29.628124 243.5625 29.45625Q243.25 29.26875 243.10938 28.971874Q242.98438 28.675 242.98438 27.721874L242.98438 24.14375L242.21875 24.14375L242.21875 23.33125L242.98438 23.33125L242.98438 21.784374L244.03125 21.159374L244.03125 23.33125L245.09375 23.33125L245.09375 24.14375L244.03125 24.14375L244.03125 27.784374Q244.03125 28.2375 244.07812 28.3625Q244.14062 28.4875 244.26562 28.565624Q244.39062 28.64375 244.625 28.64375Q244.8125 28.64375 245.09375 28.6125ZM250.04688 27.55L251.14062 27.675Q250.89062 28.628124 250.1875 29.159374Q249.48438 29.690624 248.40625 29.690624Q247.04688 29.690624 246.23438 28.846874Q245.4375 28.003124 245.4375 26.4875Q245.4375 24.925 246.25 24.065624Q247.0625 23.190624 248.34375 23.190624Q249.59375 23.190624 250.375 24.034374Q251.17188 24.878124 251.17188 26.425Q251.17188 26.51875 251.17188 26.70625L246.53125 26.70625Q246.59375 27.7375 247.10938 28.284374Q247.625 28.815624 248.40625 28.815624Q248.98438 28.815624 249.39062 28.51875Q249.8125 28.20625 250.04688 27.55ZM246.59375 25.846874L250.0625 25.846874Q250.0 25.05 249.67188 24.659374Q249.15625 24.05 248.35938 24.05Q247.625 24.05 247.125 24.534374Q246.64062 25.01875 246.59375 25.846874Z" fill-rule="nonzero"/><path fill="#ffe599" d="M268.0 20.55C268.0 19.997715 268.44772 19.55 269.0 19.55L279.0 19.55C279.55228 19.55 280.0 19.997715 280.0 20.55L280.0 30.55C280.0 31.102285 279.55228 31.55 279.0 31.55L269.0 31.55C268.44772 31.55 268.0 31.102285 268.0 30.55Z" fill-rule="nonzero"/><path fill="#000000" d="M288.92188 29.55L288.92188 20.95625L292.17188 20.95625Q293.01562 20.95625 293.46875 21.034374Q294.10938 21.14375 294.53125 21.440624Q294.96875 21.7375 295.21875 22.26875Q295.48438 22.8 295.48438 23.440624Q295.48438 24.534374 294.78125 25.3Q294.09375 26.05 292.26562 26.05L290.0625 26.05L290.0625 29.55L288.92188 29.55ZM290.0625 25.05L292.28125 25.05Q293.39062 25.05 293.84375 24.64375Q294.3125 24.221874 294.3125 23.471874Q294.3125 22.940624 294.03125 22.565624Q293.76562 22.175 293.32812 22.05Q293.03125 21.971874 292.26562 21.971874L290.0625 21.971874L290.0625 25.05ZM300.875 29.55L300.875 28.628124Q300.14062 29.690624 298.89062 29.690624Q298.34375 29.690624 297.85938 29.4875Q297.39062 29.26875 297.15625 28.95625Q296.92188 28.628124 296.82812 28.159374Q296.76562 27.8625 296.76562 27.175L296.76562 23.33125L297.82812 23.33125L297.82812 26.784374Q297.82812 27.596874 297.89062 27.89375Q297.98438 28.3 298.29688 28.55Q298.625 28.784374 299.10938 28.784374Q299.57812 28.784374 299.98438 28.55Q300.40625 28.3 300.57812 27.878124Q300.76562 27.45625 300.76562 26.659374L300.76562 23.33125L301.8125 23.33125L301.8125 29.55L300.875 29.55ZM304.76562 29.55L303.78125 29.55L303.78125 20.95625L304.84375 20.95625L304.84375 24.01875Q305.51562 23.190624 306.54688 23.190624Q307.125 23.190624 307.625 23.425Q308.14062 23.64375 308.46875 24.065624Q308.8125 24.4875 309.0 25.08125Q309.1875 25.675 309.1875 26.346874Q309.1875 27.940624 308.39062 28.815624Q307.59375 29.690624 306.5 29.690624Q305.39062 29.690624 304.76562 28.76875L304.76562 29.55ZM304.75 26.39375Q304.75 27.503124 305.0625 28.003124Q305.5625 28.815624 306.40625 28.815624Q307.09375 28.815624 307.59375 28.221874Q308.10938 27.628124 308.10938 26.425Q308.10938 25.20625 307.625 24.628124Q307.14062 24.05 306.45312 24.05Q305.76562 24.05 305.25 24.659374Q304.75 25.253124 304.75 26.39375ZM310.76562 29.55L310.76562 20.95625L311.82812 20.95625L311.82812 29.55L310.76562 29.55ZM313.79688 22.175L313.79688 20.95625L314.85938 20.95625L314.85938 22.175L313.79688 22.175ZM313.79688 29.55L313.79688 23.33125L314.85938 23.33125L314.85938 29.55L313.79688 29.55ZM320.85938 27.26875L321.89062 27.409374Q321.71875 28.471874 321.01562 29.08125Q320.3125 29.690624 319.29688 29.690624Q318.01562 29.690624 317.23438 28.8625Q316.46875 28.01875 316.46875 26.45625Q316.46875 25.45625 316.79688 24.70625Q317.14062 23.940624 317.8125 23.565624Q318.5 23.190624 319.3125 23.190624Q320.3125 23.190624 320.95312 23.70625Q321.60938 24.20625 321.79688 25.159374L320.76562 25.315624Q320.625 24.690624 320.25 24.378124Q319.875 24.05 319.34375 24.05Q318.54688 24.05 318.04688 24.628124Q317.54688 25.190624 317.54688 26.425Q317.54688 27.690624 318.03125 28.253124Q318.51562 28.815624 319.28125 28.815624Q319.90625 28.815624 320.3125 28.440624Q320.73438 28.065624 320.85938 27.26875ZM322.375 26.971874L322.375 25.909374L325.625 25.909374L325.625 26.971874L322.375 26.971874ZM326.92188 29.55L326.92188 20.95625L330.17188 20.95625Q331.01562 20.95625 331.46875 21.034374Q332.10938 21.14375 332.53125 21.440624Q332.96875 21.7375 333.21875 22.26875Q333.48438 22.8 333.48438 23.440624Q333.48438 24.534374 332.78125 25.3Q332.09375 26.05 330.26562 26.05L328.0625 26.05L328.0625 29.55L326.92188 29.55ZM328.0625 25.05L330.28125 25.05Q331.39062 25.05 331.84375 24.64375Q332.3125 24.221874 332.3125 23.471874Q332.3125 22.940624 332.03125 22.565624Q331.76562 22.175 331.32812 22.05Q331.03125 21.971874 330.26562 21.971874L328.0625 21.971874L328.0625 25.05ZM334.78125 29.55L334.78125 23.33125L335.73438 23.33125L335.73438 24.26875Q336.09375 23.6125 336.39062 23.409374Q336.70312 23.190624 337.07812 23.190624Q337.60938 23.190624 338.15625 23.51875L337.79688 24.503124Q337.40625 24.26875 337.03125 24.26875Q336.67188 24.26875 336.39062 24.4875Q336.125 24.690624 336.01562 25.065624Q335.82812 25.628124 335.82812 26.284374L335.82812 29.55L334.78125 29.55ZM338.79688 22.175L338.79688 20.95625L339.85938 20.95625L339.85938 22.175L338.79688 22.175ZM338.79688 29.55L338.79688 23.33125L339.85938 23.33125L339.85938 29.55L338.79688 29.55ZM343.51562 29.55L341.15625 23.33125L342.26562 23.33125L343.60938 27.05Q343.8125 27.659374 344.0 28.3Q344.14062 27.815624 344.39062 27.128124L345.78125 23.33125L346.85938 23.33125L344.5 29.55L343.51562 29.55ZM351.85938 28.784374Q351.26562 29.284374 350.71875 29.4875Q350.1875 29.690624 349.5625 29.690624Q348.53125 29.690624 347.98438 29.190624Q347.4375 28.690624 347.4375 27.909374Q347.4375 27.45625 347.64062 27.08125Q347.84375 26.690624 348.1875 26.471874Q348.53125 26.2375 348.95312 26.128124Q349.25 26.034374 349.89062 25.95625Q351.15625 25.815624 351.76562 25.596874Q351.76562 25.378124 351.76562 25.33125Q351.76562 24.675 351.46875 24.409374Q351.0625 24.065624 350.26562 24.065624Q349.53125 24.065624 349.17188 24.33125Q348.8125 24.58125 348.64062 25.2375L347.60938 25.096874Q347.75 24.440624 348.07812 24.034374Q348.40625 23.628124 349.01562 23.409374Q349.625 23.190624 350.42188 23.190624Q351.21875 23.190624 351.71875 23.378124Q352.21875 23.565624 352.45312 23.846874Q352.6875 24.128124 352.78125 24.565624Q352.82812 24.83125 352.82812 25.534374L352.82812 26.940624Q352.82812 28.409374 352.89062 28.8Q352.96875 29.190624 353.17188 29.55L352.0625 29.55Q351.90625 29.221874 351.85938 28.784374ZM351.76562 26.425Q351.1875 26.659374 350.04688 26.83125Q349.39062 26.925 349.125 27.05Q348.85938 27.159374 348.70312 27.378124Q348.5625 27.596874 348.5625 27.878124Q348.5625 28.3 348.875 28.58125Q349.20312 28.8625 349.8125 28.8625Q350.42188 28.8625 350.89062 28.596874Q351.375 28.33125 351.59375 27.8625Q351.76562 27.503124 351.76562 26.815624L351.76562 26.425ZM357.09375 28.6125L357.25 29.534374Q356.79688 29.628124 356.45312 29.628124Q355.875 29.628124 355.5625 29.45625Q355.25 29.26875 355.10938 28.971874Q354.98438 28.675 354.98438 27.721874L354.98438 24.14375L354.21875 24.14375L354.21875 23.33125L354.98438 23.33125L354.98438 21.784374L356.03125 21.159374L356.03125 23.33125L357.09375 23.33125L357.09375 24.14375L356.03125 24.14375L356.03125 27.784374Q356.03125 28.2375 356.07812 28.3625Q356.14062 28.4875 356.26562 28.565624Q356.39062 28.64375 356.625 28.64375Q356.8125 28.64375 357.09375 28.6125ZM362.04688 27.55L363.14062 27.675Q362.89062 28.628124 362.1875 29.159374Q361.48438 29.690624 360.40625 29.690624Q359.04688 29.690624 358.23438 28.846874Q357.4375 28.003124 357.4375 26.4875Q357.4375 24.925 358.25 24.065624Q359.0625 23.190624 360.34375 23.190624Q361.59375 23.190624 362.375 24.034374Q363.17188 24.878124 363.17188 26.425Q363.17188 26.51875 363.17188 26.70625L358.53125 26.70625Q358.59375 27.7375 359.10938 28.284374Q359.625 28.815624 360.40625 28.815624Q360.98438 28.815624 361.39062 28.51875Q361.8125 28.20625 362.04688 27.55ZM358.59375 25.846874L362.0625 25.846874Q362.0 25.05 361.67188 24.659374Q361.15625 24.05 360.35938 24.05Q359.625 24.05 359.125 24.534374Q358.64062 25.01875 358.59375 25.846874Z" fill-rule="nonzero"/><path fill="#b6d7a8" d="M380.0 20.55C380.0 19.997715 380.44772 19.55 381.0 19.55L391.0 19.55C391.55228 19.55 392.0 19.997715 392.0 20.55L392.0 30.55C392.0 31.102285 391.55228 31.55 391.0 31.55L381.0 31.55C380.44772 31.55 380.0 31.102285 380.0 30.55Z" fill-rule="nonzero"/><path fill="#000000" d="M400.54688 26.784374L401.60938 26.690624Q401.6875 27.346874 401.96875 27.753124Q402.25 28.159374 402.82812 28.425Q403.42188 28.675 404.15625 28.675Q404.79688 28.675 405.29688 28.4875Q405.79688 28.284374 406.03125 27.95625Q406.28125 27.6125 406.28125 27.221874Q406.28125 26.815624 406.04688 26.51875Q405.8125 26.20625 405.28125 26.003124Q404.92188 25.8625 403.73438 25.58125Q402.5625 25.3 402.09375 25.05Q401.46875 24.721874 401.17188 24.253124Q400.875 23.76875 400.875 23.175Q400.875 22.534374 401.23438 21.971874Q401.60938 21.39375 402.3125 21.1125Q403.03125 20.815624 403.89062 20.815624Q404.84375 20.815624 405.57812 21.128124Q406.3125 21.425 406.70312 22.034374Q407.09375 22.628124 407.125 23.378124L406.03125 23.45625Q405.9375 22.64375 405.42188 22.2375Q404.92188 21.815624 403.9375 21.815624Q402.90625 21.815624 402.4375 22.190624Q401.96875 22.565624 401.96875 23.096874Q401.96875 23.565624 402.29688 23.8625Q402.625 24.159374 404.0 24.471874Q405.39062 24.784374 405.90625 25.01875Q406.65625 25.378124 407.01562 25.909374Q407.375 26.425 407.375 27.128124Q407.375 27.815624 406.98438 28.425Q406.59375 29.01875 405.85938 29.3625Q405.125 29.690624 404.20312 29.690624Q403.03125 29.690624 402.23438 29.3625Q401.45312 29.01875 401.0 28.33125Q400.5625 27.64375 400.54688 26.784374ZM411.09375 28.6125L411.25 29.534374Q410.79688 29.628124 410.45312 29.628124Q409.875 29.628124 409.5625 29.45625Q409.25 29.26875 409.10938 28.971874Q408.98438 28.675 408.98438 27.721874L408.98438 24.14375L408.21875 24.14375L408.21875 23.33125L408.98438 23.33125L408.98438 21.784374L410.03125 21.159374L410.03125 23.33125L411.09375 23.33125L411.09375 24.14375L410.03125 24.14375L410.03125 27.784374Q410.03125 28.2375 410.07812 28.3625Q410.14062 28.4875 410.26562 28.565624Q410.39062 28.64375 410.625 28.64375Q410.8125 28.64375 411.09375 28.6125ZM415.85938 28.784374Q415.26562 29.284374 414.71875 29.4875Q414.1875 29.690624 413.5625 29.690624Q412.53125 29.690624 411.98438 29.190624Q411.4375 28.690624 411.4375 27.909374Q411.4375 27.45625 411.64062 27.08125Q411.84375 26.690624 412.1875 26.471874Q412.53125 26.2375 412.95312 26.128124Q413.25 26.034374 413.89062 25.95625Q415.15625 25.815624 415.76562 25.596874Q415.76562 25.378124 415.76562 25.33125Q415.76562 24.675 415.46875 24.409374Q415.0625 24.065624 414.26562 24.065624Q413.53125 24.065624 413.17188 24.33125Q412.8125 24.58125 412.64062 25.2375L411.60938 25.096874Q411.75 24.440624 412.07812 24.034374Q412.40625 23.628124 413.01562 23.409374Q413.625 23.190624 414.42188 23.190624Q415.21875 23.190624 415.71875 23.378124Q416.21875 23.565624 416.45312 23.846874Q416.6875 24.128124 416.78125 24.565624Q416.82812 24.83125 416.82812 25.534374L416.82812 26.940624Q416.82812 28.409374 416.89062 28.8Q416.96875 29.190624 417.17188 29.55L416.0625 29.55Q415.90625 29.221874 415.85938 28.784374ZM415.76562 26.425Q415.1875 26.659374 414.04688 26.83125Q413.39062 26.925 413.125 27.05Q412.85938 27.159374 412.70312 27.378124Q412.5625 27.596874 412.5625 27.878124Q412.5625 28.3 412.875 28.58125Q413.20312 28.8625 413.8125 28.8625Q414.42188 28.8625 414.89062 28.596874Q415.375 28.33125 415.59375 27.8625Q415.76562 27.503124 415.76562 26.815624L415.76562 26.425ZM421.09375 28.6125L421.25 29.534374Q420.79688 29.628124 420.45312 29.628124Q419.875 29.628124 419.5625 29.45625Q419.25 29.26875 419.10938 28.971874Q418.98438 28.675 418.98438 27.721874L418.98438 24.14375L418.21875 24.14375L418.21875 23.33125L418.98438 23.33125L418.98438 21.784374L420.03125 21.159374L420.03125 23.33125L421.09375 23.33125L421.09375 24.14375L420.03125 24.14375L420.03125 27.784374Q420.03125 28.2375 420.07812 28.3625Q420.14062 28.4875 420.26562 28.565624Q420.39062 28.64375 420.625 28.64375Q420.8125 28.64375 421.09375 28.6125ZM426.04688 27.55L427.14062 27.675Q426.89062 28.628124 426.1875 29.159374Q425.48438 29.690624 424.40625 29.690624Q423.04688 29.690624 422.23438 28.846874Q421.4375 28.003124 421.4375 26.4875Q421.4375 24.925 422.25 24.065624Q423.0625 23.190624 424.34375 23.190624Q425.59375 23.190624 426.375 24.034374Q427.17188 24.878124 427.17188 26.425Q427.17188 26.51875 427.17188 26.70625L422.53125 26.70625Q422.59375 27.7375 423.10938 28.284374Q423.625 28.815624 424.40625 28.815624Q424.98438 28.815624 425.39062 28.51875Q425.8125 28.20625 426.04688 27.55ZM422.59375 25.846874L426.0625 25.846874Q426.0 25.05 425.67188 24.659374Q425.15625 24.05 424.35938 24.05Q423.625 24.05 423.125 24.534374Q422.64062 25.01875 422.59375 25.846874ZM428.375 26.971874L428.375 25.909374L431.625 25.909374L431.625 26.971874L428.375 26.971874ZM432.92188 29.55L432.92188 20.95625L436.17188 20.95625Q437.01562 20.95625 437.46875 21.034374Q438.10938 21.14375 438.53125 21.440624Q438.96875 21.7375 439.21875 22.26875Q439.48438 22.8 439.48438 23.440624Q439.48438 24.534374 438.78125 25.3Q438.09375 26.05 436.26562 26.05L434.0625 26.05L434.0625 29.55L432.92188 29.55ZM434.0625 25.05L436.28125 25.05Q437.39062 25.05 437.84375 24.64375Q438.3125 24.221874 438.3125 23.471874Q438.3125 22.940624 438.03125 22.565624Q437.76562 22.175 437.32812 22.05Q437.03125 21.971874 436.26562 21.971874L434.0625 21.971874L434.0625 25.05ZM440.78125 29.55L440.78125 23.33125L441.73438 23.33125L441.73438 24.26875Q442.09375 23.6125 442.39062 23.409374Q442.70312 23.190624 443.07812 23.190624Q443.60938 23.190624 444.15625 23.51875L443.79688 24.503124Q443.40625 24.26875 443.03125 24.26875Q442.67188 24.26875 442.39062 24.4875Q442.125 24.690624 442.01562 25.065624Q441.82812 25.628124 441.82812 26.284374L441.82812 29.55L440.78125 29.55ZM444.79688 22.175L444.79688 20.95625L445.85938 20.95625L445.85938 22.175L444.79688 22.175ZM444.79688 29.55L444.79688 23.33125L445.85938 23.33125L445.85938 29.55L444.79688 29.55ZM449.51562 29.55L447.15625 23.33125L448.26562 23.33125L449.60938 27.05Q449.8125 27.659374 450.0 28.3Q450.14062 27.815624 450.39062 27.128124L451.78125 23.33125L452.85938 23.33125L450.5 29.55L449.51562 29.55ZM457.85938 28.784374Q457.26562 29.284374 456.71875 29.4875Q456.1875 29.690624 455.5625 29.690624Q454.53125 29.690624 453.98438 29.190624Q453.4375 28.690624 453.4375 27.909374Q453.4375 27.45625 453.64062 27.08125Q453.84375 26.690624 454.1875 26.471874Q454.53125 26.2375 454.95312 26.128124Q455.25 26.034374 455.89062 25.95625Q457.15625 25.815624 457.76562 25.596874Q457.76562 25.378124 457.76562 25.33125Q457.76562 24.675 457.46875 24.409374Q457.0625 24.065624 456.26562 24.065624Q455.53125 24.065624 455.17188 24.33125Q454.8125 24.58125 454.64062 25.2375L453.60938 25.096874Q453.75 24.440624 454.07812 24.034374Q454.40625 23.628124 455.01562 23.409374Q455.625 23.190624 456.42188 23.190624Q457.21875 23.190624 457.71875 23.378124Q458.21875 23.565624 458.45312 23.846874Q458.6875 24.128124 458.78125 24.565624Q458.82812 24.83125 458.82812 25.534374L458.82812 26.940624Q458.82812 28.409374 458.89062 28.8Q458.96875 29.190624 459.17188 29.55L458.0625 29.55Q457.90625 29.221874 457.85938 28.784374ZM457.76562 26.425Q457.1875 26.659374 456.04688 26.83125Q455.39062 26.925 455.125 27.05Q454.85938 27.159374 454.70312 27.378124Q454.5625 27.596874 454.5625 27.878124Q454.5625 28.3 454.875 28.58125Q455.20312 28.8625 455.8125 28.8625Q456.42188 28.8625 456.89062 28.596874Q457.375 28.33125 457.59375 27.8625Q457.76562 27.503124 457.76562 26.815624L457.76562 26.425ZM463.09375 28.6125L463.25 29.534374Q462.79688 29.628124 462.45312 29.628124Q461.875 29.628124 461.5625 29.45625Q461.25 29.26875 461.10938 28.971874Q460.98438 28.675 460.98438 27.721874L460.98438 24.14375L460.21875 24.14375L460.21875 23.33125L460.98438 23.33125L460.98438 21.784374L462.03125 21.159374L462.03125 23.33125L463.09375 23.33125L463.09375 24.14375L462.03125 24.14375L462.03125 27.784374Q462.03125 28.2375 462.07812 28.3625Q462.14062 28.4875 462.26562 28.565624Q462.39062 28.64375 462.625 28.64375Q462.8125 28.64375 463.09375 28.6125ZM468.04688 27.55L469.14062 27.675Q468.89062 28.628124 468.1875 29.159374Q467.48438 29.690624 466.40625 29.690624Q465.04688 29.690624 464.23438 28.846874Q463.4375 28.003124 463.4375 26.4875Q463.4375 24.925 464.25 24.065624Q465.0625 23.190624 466.34375 23.190624Q467.59375 23.190624 468.375 24.034374Q469.17188 24.878124 469.17188 26.425Q469.17188 26.51875 469.17188 26.70625L464.53125 26.70625Q464.59375 27.7375 465.10938 28.284374Q465.625 28.815624 466.40625 28.815624Q466.98438 28.815624 467.39062 28.51875Q467.8125 28.20625 468.04688 27.55ZM464.59375 25.846874L468.0625 25.846874Q468.0 25.05 467.67188 24.659374Q467.15625 24.05 466.35938 24.05Q465.625 24.05 465.125 24.534374Q464.64062 25.01875 464.59375 25.846874Z" fill-rule="nonzero"/></svg>