<svg version="1.1" viewBox="0.0 0.0 600.0 371.0" fill="none" stroke="none" stroke-linecap="square" stroke-miterlimit="10" width="600" height="371" xmlns:xlink="http://www.w3.org/1999/xlink" xmlns="http://www.w3.org/2000/svg"><path fill="#ffffff" d="M0 0L600.0 0L600.0 371.0L0 371.0L0 0Z" fill-rule="nonzero"/><path fill="#7388ab" d="M189.29167 285.49597C153.52496 263.31537 133.05 231.46992 133.05 198.02126L133.05 172.97874C133.05 206.42743 153.52496 238.27289 189.29167 260.45346Z" fill-rule="nonzero"/><path fill="#a4c2f4" d="M189.29167 260.45346C137.37125 228.25522 119.30188 176.938 143.89903 131.53786C168.4962 86.13769 230.63504 56.11375 300.0 56.11375L300.0 172.97874Z" fill-rule="nonzero"/><path fill="#b3a06b" d="M466.95 198.02126C466.95 244.00662 428.4242 285.71744 368.51843 304.59042C308.61264 323.4634 238.46388 315.9899 189.29167 285.49597L189.29167 260.45346C238.46388 290.9474 308.61264 298.4209 368.51843 279.5479C428.4242 260.67493 466.95 218.96413 466.95 172.97874Z" fill-rule="nonzero"/><path fill="#ffe599" d="M300.0 56.11375C374.3148 56.11375 439.68283 90.49837 460.3585 140.46486C481.03418 190.43137 452.0392 243.94879 389.22906 271.7519C326.41895 299.555 244.9171 294.94934 189.29167 260.45346L300.0 172.97874Z" fill-rule="nonzero"/><path fill="#000000" d="M23.503124 125.73489L23.503124 124.73489L27.128124 124.71927L27.128124 127.90677Q26.3 128.57864 25.409374 128.9224Q24.51875 129.25052 23.58125 129.25052Q22.315624 129.25052 21.26875 128.71927Q20.2375 128.1724 19.70625 127.15677Q19.190624 126.12552 19.190624 124.85989Q19.190624 123.59427 19.70625 122.51614Q20.2375 121.42239 21.221874 120.90677Q22.20625 120.37552 23.4875 120.37552Q24.425 120.37552 25.175 120.67239Q25.925 120.96927 26.346874 121.51614Q26.784374 122.04739 27.003124 122.92239L25.9875 123.20364Q25.784374 122.54739 25.4875 122.17239Q25.20625 121.79739 24.675 121.57864Q24.14375 121.34427 23.503124 121.34427Q22.721874 121.34427 22.14375 121.57864Q21.58125 121.81302 21.221874 122.20364Q20.878124 122.59427 20.690624 123.06302Q20.3625 123.85989 20.3625 124.78177Q20.3625 125.93802 20.753124 126.71927Q21.159374 127.48489 21.909374 127.85989Q22.659374 128.2349 23.51875 128.2349Q24.253124 128.2349 24.95625 127.95364Q25.659374 127.65677 26.01875 127.34427L26.01875 125.73489L23.503124 125.73489ZM28.315624 129.1099L28.315624 120.51614L29.378124 120.51614L29.378124 129.1099L28.315624 129.1099ZM30.95625 126.00052Q30.95625 124.26614 31.909374 123.43802Q32.70625 122.75052 33.8625 122.75052Q35.14375 122.75052 35.95625 123.59427Q36.784374 124.42239 36.784374 125.90677Q36.784374 127.10989 36.425 127.79739Q36.065624 128.4849 35.3625 128.87552Q34.675 129.25052 33.8625 129.25052Q32.565624 129.25052 31.753124 128.4224Q30.95625 127.57864 30.95625 126.00052ZM32.034374 126.00052Q32.034374 127.18802 32.55 127.78177Q33.08125 128.37552 33.8625 128.37552Q34.659374 128.37552 35.175 127.78177Q35.690624 127.18802 35.690624 125.96927Q35.690624 124.81302 35.159374 124.21927Q34.64375 123.62552 33.8625 123.62552Q33.08125 123.62552 32.55 124.21927Q32.034374 124.79739 32.034374 126.00052ZM39.315624 129.1099L38.33125 129.1099L38.33125 120.51614L39.39375 120.51614L39.39375 123.57864Q40.065624 122.75052 41.096874 122.75052Q41.675 122.75052 42.175 122.98489Q42.690624 123.20364 43.01875 123.62552Q43.3625 124.04739 43.55 124.64114Q43.7375 125.23489 43.7375 125.90677Q43.7375 127.50052 42.940624 128.37552Q42.14375 129.25052 41.05 129.25052Q39.940624 129.25052 39.315624 128.32864L39.315624 129.1099ZM39.3 125.95364Q39.3 127.06302 39.6125 127.56302Q40.1125 128.37552 40.95625 128.37552Q41.64375 128.37552 42.14375 127.78177Q42.659374 127.18802 42.659374 125.98489Q42.659374 124.76614 42.175 124.18802Q41.690624 123.60989 41.003124 123.60989Q40.315624 123.60989 39.8 124.21927Q39.3 124.81302 39.3 125.95364ZM49.409374 128.34427Q48.815624 128.84427 48.26875 129.0474Q47.7375 129.25052 47.1125 129.25052Q46.08125 129.25052 45.534374 128.75052Q44.9875 128.25052 44.9875 127.46927Q44.9875 127.01614 45.190624 126.64114Q45.39375 126.25052 45.7375 126.03177Q46.08125 125.79739 46.503124 125.68802Q46.8 125.59427 47.440624 125.51614Q48.70625 125.37552 49.315624 125.15677Q49.315624 124.93802 49.315624 124.89114Q49.315624 124.23489 49.01875 123.96927Q48.6125 123.62552 47.815624 123.62552Q47.08125 123.62552 46.721874 123.89114Q46.3625 124.14114 46.190624 124.79739L45.159374 124.65677Q45.3 124.00052 45.628124 123.59427Q45.95625 123.18802 46.565624 122.96927Q47.175 122.75052 47.971874 122.75052Q48.76875 122.75052 49.26875 122.93802Q49.76875 123.12552 50.003124 123.40677Q50.2375 123.68802 50.33125 124.12552Q50.378124 124.39114 50.378124 125.09427L50.378124 126.50052Q50.378124 127.96927 50.440624 128.3599Q50.51875 128.75052 50.721874 129.1099L49.6125 129.1099Q49.45625 128.78177 49.409374 128.34427ZM49.315624 125.98489Q48.7375 126.21927 47.596874 126.39114Q46.940624 126.48489 46.675 126.60989Q46.409374 126.71927 46.253124 126.93802Q46.1125 127.15677 46.1125 127.43802Q46.1125 127.85989 46.425 128.14114Q46.753124 128.4224 47.3625 128.4224Q47.971874 128.4224 48.440624 128.15677Q48.925 127.89114 49.14375 127.42239Q49.315624 127.06302 49.315624 126.37552L49.315624 125.98489ZM52.315624 129.1099L52.315624 120.51614L53.378124 120.51614L53.378124 129.1099L52.315624 129.1099ZM58.096874 126.34427L59.159374 126.25052Q59.2375 126.90677 59.51875 127.31302Q59.8 127.71927 60.378124 127.98489Q60.971874 128.2349 61.70625 128.2349Q62.346874 128.2349 62.846874 128.0474Q63.346874 127.84427 63.58125 127.51614Q63.83125 127.17239 63.83125 126.78177Q63.83125 126.37552 63.596874 126.07864Q63.3625 125.76614 62.83125 125.56302Q62.471874 125.42239 61.284374 125.14114Q60.1125 124.85989 59.64375 124.60989Q59.01875 124.28177 58.721874 123.81302Q58.425 123.32864 58.425 122.73489Q58.425 122.09427 58.784374 121.53177Q59.159374 120.95364 59.8625 120.67239Q60.58125 120.37552 61.440624 120.37552Q62.39375 120.37552 63.128124 120.68802Q63.8625 120.98489 64.25313 121.59427Q64.64375 122.18802 64.675 122.93802L63.58125 123.01614Q63.4875 122.20364 62.971874 121.79739Q62.471874 121.37552 61.4875 121.37552Q60.45625 121.37552 59.9875 121.75052Q59.51875 122.12552 59.51875 122.65677Q59.51875 123.12552 59.846874 123.42239Q60.175 123.71927 61.55 124.03177Q62.940624 124.34427 63.45625 124.57864Q64.20625 124.93802 64.56563 125.46927Q64.925 125.98489 64.925 126.68802Q64.925 127.37552 64.53438 127.98489Q64.14375 128.57864 63.409374 128.9224Q62.675 129.25052 61.753124 129.25052Q60.58125 129.25052 59.784374 128.9224Q59.003124 128.57864 58.55 127.89114Q58.1125 127.20364 58.096874 126.34427ZM65.95625 126.00052Q65.95625 124.26614 66.90938 123.43802Q67.70625 122.75052 68.8625 122.75052Q70.14375 122.75052 70.95625 123.59427Q71.78438 124.42239 71.78438 125.90677Q71.78438 127.10989 71.425 127.79739Q71.06563 128.4849 70.3625 128.87552Q69.675 129.25052 68.8625 129.25052Q67.56563 129.25052 66.75313 128.4224Q65.95625 127.57864 65.95625 126.00052ZM67.03438 126.00052Q67.03438 127.18802 67.55 127.78177Q68.08125 128.37552 68.8625 128.37552Q69.65938 128.37552 70.175 127.78177Q70.69063 127.18802 70.69063 125.96927Q70.69063 124.81302 70.15938 124.21927Q69.64375 123.62552 68.8625 123.62552Q68.08125 123.62552 67.55 124.21927Q67.03438 124.79739 67.03438 126.00052ZM77.425 129.1099L77.425 128.18802Q76.69063 129.25052 75.44063 129.25052Q74.89375 129.25052 74.40938 129.0474Q73.94063 128.82864 73.70625 128.51614Q73.47188 128.18802 73.37813 127.71927Q73.31563 127.42239 73.31563 126.73489L73.31563 122.89114L74.37813 122.89114L74.37813 126.34427Q74.37813 127.15677 74.44063 127.45364Q74.53438 127.85989 74.84688 128.1099Q75.175 128.34427 75.65938 128.34427Q76.12813 128.34427 76.53438 128.1099Q76.95625 127.85989 77.12813 127.43802Q77.31563 127.01614 77.31563 126.21927L77.31563 122.89114L78.3625 122.89114L78.3625 129.1099L77.425 129.1099ZM82.64375 128.1724L82.8 129.09427Q82.34688 129.18802 82.00313 129.18802Q81.425 129.18802 81.1125 129.01614Q80.8 128.82864 80.65938 128.53177Q80.53438 128.2349 80.53438 127.28177L80.53438 123.70364L79.76875 123.70364L79.76875 122.89114L80.53438 122.89114L80.53438 121.34427L81.58125 120.71927L81.58125 122.89114L82.64375 122.89114L82.64375 123.70364L81.58125 123.70364L81.58125 127.34427Q81.58125 127.79739 81.62813 127.92239Q81.69063 128.0474 81.81563 128.12552Q81.94063 128.20364 82.175 128.20364Q82.3625 128.20364 82.64375 128.1724ZM83.34688 129.1099L83.34688 120.51614L84.39375 120.51614L84.39375 123.59427Q85.12813 122.75052 86.25313 122.75052Q86.95625 122.75052 87.45625 123.03177Q87.97188 123.29739 88.19063 123.78177Q88.40938 124.25052 88.40938 125.17239L88.40938 129.1099L87.3625 129.1099L87.3625 125.17239Q87.3625 124.37552 87.01875 124.01614Q86.675 123.65677 86.05 123.65677Q85.58125 123.65677 85.15938 123.90677Q84.75313 124.14114 84.56563 124.56302Q84.39375 124.96927 84.39375 125.70364L84.39375 129.1099L83.34688 129.1099Z" fill-rule="nonzero"/><path fill="#9e9e9e" d="M19.05 143.84427L20.1125 143.70364Q20.284374 144.59427 20.721874 145.00052Q21.159374 145.39114 21.784374 145.39114Q22.534374 145.39114 23.05 144.87552Q23.565624 144.3599 23.565624 143.59427Q23.565624 142.87552 23.08125 142.40677Q22.6125 141.9224 21.878124 141.9224Q21.58125 141.9224 21.128124 142.0474L21.253124 141.1099Q21.3625 141.12552 21.425 141.12552Q22.096874 141.12552 22.628124 140.78177Q23.175 140.4224 23.175 139.68802Q23.175 139.1099 22.784374 138.7349Q22.39375 138.34427 21.76875 138.34427Q21.159374 138.34427 20.7375 138.7349Q20.33125 139.12552 20.221874 139.89114L19.159374 139.70364Q19.346874 138.65677 20.034374 138.07864Q20.721874 137.4849 21.7375 137.4849Q22.440624 137.4849 23.034374 137.7974Q23.628124 138.09427 23.940624 138.6099Q24.253124 139.12552 24.253124 139.71927Q24.253124 140.26614 23.95625 140.7349Q23.659374 141.18802 23.08125 141.45364Q23.83125 141.62552 24.253124 142.18802Q24.675 142.7349 24.675 143.57864Q24.675 144.70364 23.846874 145.4849Q23.034374 146.26614 21.784374 146.26614Q20.659374 146.26614 19.909374 145.59427Q19.159374 144.90677 19.05 143.84427ZM27.675 141.45364Q27.01875 141.20364 26.690624 140.76614Q26.378124 140.31302 26.378124 139.70364Q26.378124 138.76614 27.05 138.12552Q27.7375 137.4849 28.846874 137.4849Q29.971874 137.4849 30.659374 138.14114Q31.346874 138.7974 31.346874 139.7349Q31.346874 140.32864 31.034374 140.76614Q30.721874 141.20364 30.08125 141.45364Q30.878124 141.70364 31.284374 142.28177Q31.690624 142.8599 31.690624 143.65677Q31.690624 144.75052 30.909374 145.50052Q30.14375 146.25052 28.8625 146.25052Q27.596874 146.25052 26.815624 145.50052Q26.034374 144.75052 26.034374 143.62552Q26.034374 142.78177 26.45625 142.21927Q26.89375 141.65677 27.675 141.45364ZM27.45625 139.65677Q27.45625 140.26614 27.846874 140.65677Q28.253124 141.0474 28.878124 141.0474Q29.4875 141.0474 29.878124 140.6724Q30.26875 140.28177 30.26875 139.71927Q30.26875 139.14114 29.8625 138.75052Q29.45625 138.34427 28.8625 138.34427Q28.253124 138.34427 27.846874 138.7349Q27.45625 139.12552 27.45625 139.65677ZM27.128124 143.62552Q27.128124 144.07864 27.33125 144.50052Q27.55 144.9224 27.971874 145.15677Q28.39375 145.39114 28.878124 145.39114Q29.628124 145.39114 30.1125 144.90677Q30.6125 144.4224 30.6125 143.6724Q30.6125 142.90677 30.1125 142.40677Q29.6125 141.90677 28.846874 141.90677Q28.096874 141.90677 27.6125 142.40677Q27.128124 142.89114 27.128124 143.62552ZM33.64375 146.1099L33.64375 144.90677L34.846874 144.90677L34.846874 146.1099L33.64375 146.1099ZM36.05 143.8599L37.159374 143.76614Q37.284374 144.57864 37.721874 144.9849Q38.175 145.39114 38.815624 145.39114Q39.565624 145.39114 40.096874 144.81302Q40.628124 144.2349 40.628124 143.2974Q40.628124 142.39114 40.1125 141.87552Q39.6125 141.34427 38.784374 141.34427Q38.284374 141.34427 37.8625 141.57864Q37.45625 141.81302 37.221874 142.1724L36.2375 142.0474L37.065624 137.64114L41.346874 137.64114L41.346874 138.64114L37.909374 138.64114L37.45625 140.95364Q38.221874 140.40677 39.065624 140.40677Q40.190624 140.40677 40.95625 141.18802Q41.7375 141.96927 41.7375 143.20364Q41.7375 144.3599 41.065624 145.21927Q40.2375 146.25052 38.815624 146.25052Q37.64375 146.25052 36.89375 145.59427Q36.159374 144.93802 36.05 143.8599ZM43.253124 139.57864Q43.253124 138.65677 43.70625 138.01614Q44.175 137.37552 45.05 137.37552Q45.8625 137.37552 46.39375 137.95364Q46.925 138.53177 46.925 139.64114Q46.925 140.7349 46.378124 141.32864Q45.846874 141.90677 45.065624 141.90677Q44.284374 141.90677 43.76875 141.32864Q43.253124 140.75052 43.253124 139.57864ZM45.08125 138.09427Q44.690624 138.09427 44.425 138.43802Q44.175 138.78177 44.175 139.68802Q44.175 140.51614 44.425 140.8599Q44.690624 141.18802 45.08125 141.18802Q45.4875 141.18802 45.7375 140.84427Q46.003124 140.50052 46.003124 139.6099Q46.003124 138.76614 45.7375 138.43802Q45.471874 138.09427 45.08125 138.09427ZM45.08125 146.4224L49.784374 137.37552L50.64375 137.37552L45.95625 146.4224L45.08125 146.4224ZM48.8 144.09427Q48.8 143.1724 49.253124 142.53177Q49.721874 141.89114 50.6125 141.89114Q51.425 141.89114 51.95625 142.46927Q52.4875 143.03177 52.4875 144.15677Q52.4875 145.25052 51.940624 145.84427Q51.409374 146.4224 50.6125 146.4224Q49.846874 146.4224 49.315624 145.84427Q48.8 145.26614 48.8 144.09427ZM50.64375 142.6099Q50.2375 142.6099 49.971874 142.95364Q49.721874 143.2974 49.721874 144.20364Q49.721874 145.01614 49.9875 145.3599Q50.253124 145.70364 50.64375 145.70364Q51.034374 145.70364 51.3 145.3599Q51.565624 145.01614 51.565624 144.1099Q51.565624 143.28177 51.3 142.95364Q51.034374 142.6099 50.64375 142.6099Z" fill-rule="nonzero"/><path stroke="#757575" stroke-width="1.0" stroke-linecap="butt" d="M18.55 133.6099L127.05 133.6099L151.70409 133.6099" fill-rule="nonzero"/><path fill="#9e9e9e" d="M153.70409 133.6099C153.70409 132.50533 152.80865 131.6099 151.70409 131.6099C150.59952 131.6099 149.70409 132.50533 149.70409 133.6099C149.70409 134.71446 150.59952 135.6099 151.70409 135.6099C152.80865 135.6099 153.70409 134.71446 153.70409 133.6099" fill-rule="nonzero"/><path fill="#000000" d="M517.40314 204.47261L517.40314 203.47261L521.02814 203.45699L521.02814 206.64449Q520.2 207.31636 519.3094 207.66011Q518.41876 207.98824 517.48126 207.98824Q516.21564 207.98824 515.16876 207.45699Q514.1375 206.91011 513.60626 205.89449Q513.09064 204.86324 513.09064 203.59761Q513.09064 202.33199 513.60626 201.25386Q514.1375 200.16011 515.1219 199.64449Q516.10626 199.11324 517.3875 199.11324Q518.325 199.11324 519.075 199.41011Q519.825 199.70699 520.2469 200.25386Q520.6844 200.78511 520.90314 201.66011L519.8875 201.94136Q519.6844 201.28511 519.3875 200.91011Q519.10626 200.53511 518.575 200.31636Q518.04376 200.08199 517.40314 200.08199Q516.6219 200.08199 516.04376 200.31636Q515.48126 200.55074 515.1219 200.94136Q514.77814 201.33199 514.59064 201.80074Q514.2625 202.59761 514.2625 203.51949Q514.2625 204.67574 514.65314 205.45699Q515.0594 206.22261 515.8094 206.59761Q516.5594 206.97261 517.41876 206.97261Q518.15314 206.97261 518.85626 206.69136Q519.5594 206.39449 519.91876 206.08199L519.91876 204.47261L517.40314 204.47261ZM522.21564 207.84761L522.21564 199.25386L523.27814 199.25386L523.27814 207.84761L522.21564 207.84761ZM524.85626 204.73824Q524.85626 203.00386 525.8094 202.17574Q526.60626 201.48824 527.7625 201.48824Q529.04376 201.48824 529.85626 202.33199Q530.6844 203.16011 530.6844 204.64449Q530.6844 205.84761 530.325 206.53511Q529.96564 207.22261 529.2625 207.61324Q528.575 207.98824 527.7625 207.98824Q526.46564 207.98824 525.65314 207.16011Q524.85626 206.31636 524.85626 204.73824ZM525.9344 204.73824Q525.9344 205.92574 526.45 206.51949Q526.98126 207.11324 527.7625 207.11324Q528.5594 207.11324 529.075 206.51949Q529.59064 205.92574 529.59064 204.70699Q529.59064 203.55074 529.0594 202.95699Q528.54376 202.36324 527.7625 202.36324Q526.98126 202.36324 526.45 202.95699Q525.9344 203.53511 525.9344 204.73824ZM533.21564 207.84761L532.23126 207.84761L532.23126 199.25386L533.29376 199.25386L533.29376 202.31636Q533.96564 201.48824 534.9969 201.48824Q535.575 201.48824 536.075 201.72261Q536.59064 201.94136 536.91876 202.36324Q537.2625 202.78511 537.45 203.37886Q537.6375 203.97261 537.6375 204.64449Q537.6375 206.23824 536.84064 207.11324Q536.04376 207.98824 534.95 207.98824Q533.84064 207.98824 533.21564 207.06636L533.21564 207.84761ZM533.2 204.69136Q533.2 205.80074 533.5125 206.30074Q534.0125 207.11324 534.85626 207.11324Q535.54376 207.11324 536.04376 206.51949Q536.5594 205.92574 536.5594 204.72261Q536.5594 203.50386 536.075 202.92574Q535.59064 202.34761 534.90314 202.34761Q534.21564 202.34761 533.7 202.95699Q533.2 203.55074 533.2 204.69136ZM543.3094 207.08199Q542.71564 207.58199 542.16876 207.78511Q541.6375 207.98824 541.0125 207.98824Q539.98126 207.98824 539.4344 207.48824Q538.8875 206.98824 538.8875 206.20699Q538.8875 205.75386 539.09064 205.37886Q539.29376 204.98824 539.6375 204.76949Q539.98126 204.53511 540.40314 204.42574Q540.7 204.33199 541.34064 204.25386Q542.60626 204.11324 543.21564 203.89449Q543.21564 203.67574 543.21564 203.62886Q543.21564 202.97261 542.91876 202.70699Q542.5125 202.36324 541.71564 202.36324Q540.98126 202.36324 540.6219 202.62886Q540.2625 202.87886 540.09064 203.53511L539.0594 203.39449Q539.2 202.73824 539.52814 202.33199Q539.85626 201.92574 540.46564 201.70699Q541.075 201.48824 541.8719 201.48824Q542.66876 201.48824 543.16876 201.67574Q543.66876 201.86324 543.90314 202.14449Q544.1375 202.42574 544.23126 202.86324Q544.27814 203.12886 544.27814 203.83199L544.27814 205.23824Q544.27814 206.70699 544.34064 207.09761Q544.41876 207.48824 544.6219 207.84761L543.5125 207.84761Q543.35626 207.51949 543.3094 207.08199ZM543.21564 204.72261Q542.6375 204.95699 541.4969 205.12886Q540.84064 205.22261 540.575 205.34761Q540.3094 205.45699 540.15314 205.67574Q540.0125 205.89449 540.0125 206.17574Q540.0125 206.59761 540.325 206.87886Q540.65314 207.16011 541.2625 207.16011Q541.8719 207.16011 542.34064 206.89449Q542.825 206.62886 543.04376 206.16011Q543.21564 205.80074 543.21564 205.11324L543.21564 204.72261ZM546.21564 207.84761L546.21564 199.25386L547.27814 199.25386L547.27814 207.84761L546.21564 207.84761ZM552.3719 207.84761L552.3719 199.25386L553.52814 199.25386L558.04376 206.00386L558.04376 199.25386L559.1375 199.25386L559.1375 207.84761L557.96564 207.84761L553.45 201.09761L553.45 207.84761L552.3719 207.84761ZM560.85626 204.73824Q560.85626 203.00386 561.8094 202.17574Q562.60626 201.48824 563.7625 201.48824Q565.04376 201.48824 565.85626 202.33199Q566.6844 203.16011 566.6844 204.64449Q566.6844 205.84761 566.325 206.53511Q565.96564 207.22261 565.2625 207.61324Q564.575 207.98824 563.7625 207.98824Q562.46564 207.98824 561.65314 207.16011Q560.85626 206.31636 560.85626 204.73824ZM561.9344 204.73824Q561.9344 205.92574 562.45 206.51949Q562.98126 207.11324 563.7625 207.11324Q564.5594 207.11324 565.075 206.51949Q565.59064 205.92574 565.59064 204.70699Q565.59064 203.55074 565.0594 202.95699Q564.54376 202.36324 563.7625 202.36324Q562.98126 202.36324 562.45 202.95699Q561.9344 203.53511 561.9344 204.73824ZM568.23126 207.84761L568.23126 201.62886L569.1844 201.62886L569.1844 202.56636Q569.54376 201.91011 569.84064 201.70699Q570.15314 201.48824 570.52814 201.48824Q571.0594 201.48824 571.60626 201.81636L571.2469 202.80074Q570.85626 202.56636 570.48126 202.56636Q570.1219 202.56636 569.84064 202.78511Q569.575 202.98824 569.46564 203.36324Q569.27814 203.92574 569.27814 204.58199L569.27814 207.84761L568.23126 207.84761ZM574.54376 206.91011L574.7 207.83199Q574.2469 207.92574 573.90314 207.92574Q573.325 207.92574 573.0125 207.75386Q572.7 207.56636 572.5594 207.26949Q572.4344 206.97261 572.4344 206.01949L572.4344 202.44136L571.66876 202.44136L571.66876 201.62886L572.4344 201.62886L572.4344 200.08199L573.48126 199.45699L573.48126 201.62886L574.54376 201.62886L574.54376 202.44136L573.48126 202.44136L573.48126 206.08199Q573.48126 206.53511 573.52814 206.66011Q573.59064 206.78511 573.71564 206.86324Q573.84064 206.94136 574.075 206.94136Q574.2625 206.94136 574.54376 206.91011ZM575.2469 207.84761L575.2469 199.25386L576.29376 199.25386L576.29376 202.33199Q577.02814 201.48824 578.15314 201.48824Q578.85626 201.48824 579.35626 201.76949Q579.8719 202.03511 580.09064 202.51949Q580.3094 202.98824 580.3094 203.91011L580.3094 207.84761L579.2625 207.84761L579.2625 203.91011Q579.2625 203.11324 578.91876 202.75386Q578.575 202.39449 577.95 202.39449Q577.48126 202.39449 577.0594 202.64449Q576.65314 202.87886 576.46564 203.30074Q576.29376 203.70699 576.29376 204.44136L576.29376 207.84761L575.2469 207.84761Z" fill-rule="nonzero"/><path fill="#9e9e9e" d="M552.41876 218.36324L551.3719 218.44136Q551.23126 217.81636 550.98126 217.53511Q550.54376 217.08199 549.91876 217.08199Q549.41876 217.08199 549.02814 217.36324Q548.54376 217.73824 548.2469 218.44136Q547.96564 219.12886 547.95 220.41011Q548.325 219.83199 548.8719 219.55074Q549.4344 219.26949 550.04376 219.26949Q551.09064 219.26949 551.825 220.05074Q552.575 220.83199 552.575 222.05074Q552.575 222.86324 552.21564 223.56636Q551.8719 224.25386 551.2625 224.62886Q550.65314 224.98824 549.8875 224.98824Q548.5594 224.98824 547.73126 224.01949Q546.90314 223.05074 546.90314 220.83199Q546.90314 218.33199 547.825 217.20699Q548.6219 216.22261 549.98126 216.22261Q550.9969 216.22261 551.6375 216.80074Q552.29376 217.36324 552.41876 218.36324ZM548.1219 222.06636Q548.1219 222.61324 548.34064 223.11324Q548.575 223.59761 548.98126 223.86324Q549.40314 224.12886 549.8719 224.12886Q550.52814 224.12886 551.0125 223.59761Q551.4969 223.05074 551.4969 222.12886Q551.4969 221.23824 551.0125 220.72261Q550.54376 220.20699 549.825 220.20699Q549.10626 220.20699 548.60626 220.72261Q548.1219 221.23824 548.1219 222.06636ZM557.91876 224.84761L556.8719 224.84761L556.8719 218.12886Q556.48126 218.48824 555.85626 218.86324Q555.2469 219.22261 554.7625 219.39449L554.7625 218.37886Q555.6375 217.95699 556.29376 217.37886Q556.96564 216.78511 557.2469 216.22261L557.91876 216.22261L557.91876 224.84761ZM561.54376 224.84761L561.54376 223.64449L562.7469 223.64449L562.7469 224.84761L561.54376 224.84761ZM563.95 222.59761L565.0594 222.50386Q565.1844 223.31636 565.6219 223.72261Q566.075 224.12886 566.71564 224.12886Q567.46564 224.12886 567.9969 223.55074Q568.52814 222.97261 568.52814 222.03511Q568.52814 221.12886 568.0125 220.61324Q567.5125 220.08199 566.6844 220.08199Q566.1844 220.08199 565.7625 220.31636Q565.35626 220.55074 565.1219 220.91011L564.1375 220.78511L564.96564 216.37886L569.2469 216.37886L569.2469 217.37886L565.8094 217.37886L565.35626 219.69136Q566.1219 219.14449 566.96564 219.14449Q568.09064 219.14449 568.85626 219.92574Q569.6375 220.70699 569.6375 221.94136Q569.6375 223.09761 568.96564 223.95699Q568.1375 224.98824 566.71564 224.98824Q565.54376 224.98824 564.79376 224.33199Q564.0594 223.67574 563.95 222.59761ZM571.15314 218.31636Q571.15314 217.39449 571.60626 216.75386Q572.075 216.11324 572.95 216.11324Q573.7625 216.11324 574.29376 216.69136Q574.825 217.26949 574.825 218.37886Q574.825 219.47261 574.27814 220.06636Q573.7469 220.64449 572.96564 220.64449Q572.1844 220.64449 571.66876 220.06636Q571.15314 219.48824 571.15314 218.31636ZM572.98126 216.83199Q572.59064 216.83199 572.325 217.17574Q572.075 217.51949 572.075 218.42574Q572.075 219.25386 572.325 219.59761Q572.59064 219.92574 572.98126 219.92574Q573.3875 219.92574 573.6375 219.58199Q573.90314 219.23824 573.90314 218.34761Q573.90314 217.50386 573.6375 217.17574Q573.3719 216.83199 572.98126 216.83199ZM572.98126 225.16011L577.6844 216.11324L578.54376 216.11324L573.85626 225.16011L572.98126 225.16011ZM576.7 222.83199Q576.7 221.91011 577.15314 221.26949Q577.6219 220.62886 578.5125 220.62886Q579.325 220.62886 579.85626 221.20699Q580.3875 221.76949 580.3875 222.89449Q580.3875 223.98824 579.84064 224.58199Q579.3094 225.16011 578.5125 225.16011Q577.7469 225.16011 577.21564 224.58199Q576.7 224.00386 576.7 222.83199ZM578.54376 221.34761Q578.1375 221.34761 577.8719 221.69136Q577.6219 222.03511 577.6219 222.94136Q577.6219 223.75386 577.8875 224.09761Q578.15314 224.44136 578.54376 224.44136Q578.9344 224.44136 579.2 224.09761Q579.46564 223.75386 579.46564 222.84761Q579.46564 222.01949 579.2 221.69136Q578.9344 221.34761 578.54376 221.34761Z" fill-rule="nonzero"/><path stroke="#757575" stroke-width="1.0" stroke-linecap="butt" d="M581.45 212.34761L472.95 212.34761L448.2959 212.34761" fill-rule="nonzero"/><path fill="#9e9e9e" d="M450.2959 212.34761C450.2959 211.24304 449.40048 210.34761 448.2959 210.34761C447.19135 210.34761 446.2959 211.24304 446.2959 212.34761C446.2959 213.45218 447.19135 214.34761 448.2959 214.34761C449.40048 214.34761 450.2959 213.45218 450.2959 212.34761" fill-rule="nonzero"/></svg>