<svg version="1.1" viewBox="0.0 0.0 600.0 371.0" fill="none" stroke="none" stroke-linecap="square" stroke-miterlimit="10" width="600" height="371" xmlns:xlink="http://www.w3.org/1999/xlink" xmlns="http://www.w3.org/2000/svg"><path fill="#ffffff" d="M0 0L600.0 0L600.0 371.0L0 371.0L0 0Z" fill-rule="nonzero"/><path stroke="#333333" stroke-width="1.0" stroke-linecap="butt" d="M77.5 332.5L581.5 332.5" fill-rule="nonzero"/><path stroke="#000000" stroke-width="1.0" stroke-linecap="butt" d="M77.5 238.5L581.5 238.5" fill-rule="nonzero"/><path stroke="#000000" stroke-width="1.0" stroke-linecap="butt" d="M77.5 145.5L581.5 145.5" fill-rule="nonzero"/><path stroke="#000000" stroke-width="1.0" stroke-linecap="butt" d="M77.5 51.5L581.5 51.5" fill-rule="nonzero"/><clipPath id="id_0"><path d="M77.55 51.916668L581.45 51.916668L581.45 332.45L77.55 332.45L77.55 51.916668Z" clip-rule="nonzero"/></clipPath><path stroke="#000000" stroke-width="0.0" stroke-linecap="butt" stroke-opacity="0.0" clip-path="url(#id_0)" d="M178.0 332.0L130.0 332.0L130.0 204.0C130.0 202.89543 130.89543 202.0 132.0 202.0L176.0 202.0C177.10457 202.0 178.0 202.89543 178.0 204.0Z" fill-rule="nonzero"/><path fill="#a4c2f4" clip-path="url(#id_0)" d="M178.0 332.0L130.0 332.0L130.0 204.0C130.0 202.89543 130.89543 202.0 132.0 202.0L176.0 202.0C177.10457 202.0 178.0 202.89543 178.0 204.0Z" fill-rule="nonzero"/><path stroke="#000000" stroke-width="0.0" stroke-linecap="butt" stroke-opacity="0.0" clip-path="url(#id_0)" d="M329.0 332.0L281.0 332.0L281.0 278.0C281.0 276.89542 281.89542 276.0 283.0 276.0L327.0 276.0C328.10458 276.0 329.0 276.89542 329.0 278.0Z" fill-rule="nonzero"/><path fill="#a4c2f4" clip-path="url(#id_0)" d="M329.0 332.0L281.0 332.0L281.0 278.0C281.0 276.89542 281.89542 276.0 283.0 276.0L327.0 276.0C328.10458 276.0 329.0 276.89542 329.0 278.0Z" fill-rule="nonzero"/><path stroke="#000000" stroke-width="0.0" stroke-linecap="butt" stroke-opacity="0.0" clip-path="url(#id_0)" d="M479.0 332.0L431.0 332.0L431.0 91.0C431.0 89.89543 431.89542 89.0 433.0 89.0L477.0 89.0C478.10458 89.0 479.0 89.89543 479.0 91.0Z" fill-rule="nonzero"/><path fill="#a4c2f4" clip-path="url(#id_0)" d="M479.0 332.0L431.0 332.0L431.0 91.0C431.0 89.89543 431.89542 89.0 433.0 89.0L477.0 89.0C478.10458 89.0 479.0 89.89543 479.0 91.0Z" fill-rule="nonzero"/><path stroke="#000000" stroke-width="0.0" stroke-linecap="butt" stroke-opacity="0.0" clip-path="url(#id_0)" d="M227.0 332.0L179.0 332.0L179.0 185.0C179.0 183.89543 179.89543 183.0 181.0 183.0L225.0 183.0C226.10457 183.0 227.0 183.89543 227.0 185.0Z" fill-rule="nonzero"/><path fill="#ffd966" clip-path="url(#id_0)" d="M227.0 332.0L179.0 332.0L179.0 185.0C179.0 183.89543 179.89543 183.0 181.0 183.0L225.0 183.0C226.10457 183.0 227.0 183.89543 227.0 185.0Z" fill-rule="nonzero"/><path stroke="#000000" stroke-width="0.0" stroke-linecap="butt" stroke-opacity="0.0" clip-path="url(#id_0)" d="M378.0 332.0L330.0 332.0L330.0 297.0C330.0 295.89542 330.89542 295.0 332.0 295.0L376.0 295.0C377.10458 295.0 378.0 295.89542 378.0 297.0Z" fill-rule="nonzero"/><path fill="#ffd966" clip-path="url(#id_0)" d="M378.0 332.0L330.0 332.0L330.0 297.0C330.0 295.89542 330.89542 295.0 332.0 295.0L376.0 295.0C377.10458 295.0 378.0 295.89542 378.0 297.0Z" fill-rule="nonzero"/><path stroke="#000000" stroke-width="0.0" stroke-linecap="butt" stroke-opacity="0.0" clip-path="url(#id_0)" d="M528.0 332.0L480.0 332.0L480.0 241.0C480.0 239.89543 480.89542 239.0 482.0 239.0L526.0 239.0C527.10455 239.0 528.0 239.89543 528.0 241.0Z" fill-rule="nonzero"/><path fill="#ffd966" clip-path="url(#id_0)" d="M528.0 332.0L480.0 332.0L480.0 241.0C480.0 239.89543 480.89542 239.0 482.0 239.0L526.0 239.0C527.10455 239.0 528.0 239.89543 528.0 241.0Z" fill-rule="nonzero"/><path fill="#000000" d="M29.550013 241.26146L20.956263 241.26146L20.956263 240.10521L27.706263 235.58958L20.956263 235.58958L20.956263 234.49583L29.550013 234.49583L29.550013 235.66771L22.800013 240.18333L29.550013 240.18333L29.550013 241.26146ZM29.550013 228.30833L28.628138 228.30833Q29.690638 229.04271 29.690638 230.29271Q29.690638 230.83958 29.487513 231.32396Q29.268763 231.79271 28.956263 232.02708Q28.628138 232.26146 28.159388 232.35521Q27.862513 232.41771 27.175013 232.41771L23.331263 232.41771L23.331263 231.35521L26.784388 231.35521Q27.596888 231.35521 27.893763 231.29271Q28.300013 231.19896 28.550013 230.88646Q28.784388 230.55833 28.784388 230.07396Q28.784388 229.60521 28.550013 229.19896Q28.300013 228.77708 27.878138 228.60521Q27.456263 228.41771 26.659388 228.41771L23.331263 228.41771L23.331263 227.37083L29.550013 227.37083L29.550013 228.30833ZM29.550013 225.38646L23.331263 225.38646L23.331263 224.44896L24.206263 224.44896Q23.737513 224.15208 23.471888 223.66771Q23.190638 223.18333 23.190638 222.55833Q23.190638 221.87083 23.471888 221.43333Q23.753138 220.98021 24.268763 220.80833Q23.190638 220.05833 23.190638 218.88646Q23.190638 217.94896 23.706263 217.46458Q24.206263 216.96458 25.284388 216.96458L29.550013 216.96458L29.550013 218.01146L25.628138 218.01146Q25.003138 218.01146 24.721888 218.12083Q24.440638 218.21458 24.268763 218.48021Q24.096888 218.74583 24.096888 219.12083Q24.096888 219.77708 24.534388 220.21458Q24.971888 220.63646 25.940638 220.63646L29.550013 220.63646L29.550013 221.69896L25.503138 221.69896Q24.800013 221.69896 24.456263 221.96458Q24.096888 222.21458 24.096888 222.79271Q24.096888 223.24583 24.331263 223.62083Q24.565638 223.99583 25.018763 224.16771Q25.471888 224.33958 26.315638 224.33958L29.550013 224.33958L29.550013 225.38646ZM29.550013 214.41771L29.550013 215.40208L20.956263 215.40208L20.956263 214.33958L24.018763 214.33958Q23.190638 213.66771 23.190638 212.63646Q23.190638 212.05833 23.425013 211.55833Q23.643763 211.04271 24.065638 210.71458Q24.487513 210.37083 25.081263 210.18333Q25.675013 209.99583 26.346888 209.99583Q27.940638 209.99583 28.815638 210.79271Q29.690638 211.58958 29.690638 212.68333Q29.690638 213.79271 28.768763 214.41771L29.550013 214.41771ZM26.393763 214.43333Q27.503138 214.43333 28.003138 214.12083Q28.815638 213.62083 28.815638 212.77708Q28.815638 212.08958 28.221888 211.58958Q27.628138 211.07396 26.425013 211.07396Q25.206263 211.07396 24.628138 211.55833Q24.050013 212.04271 24.050013 212.73021Q24.050013 213.41771 24.659388 213.93333Q25.253138 214.43333 26.393763 214.43333ZM27.550013 204.13646L27.675013 203.04271Q28.628138 203.29271 29.159388 203.99583Q29.690638 204.69896 29.690638 205.77708Q29.690638 207.13646 28.846888 207.94896Q28.003138 208.74583 26.487513 208.74583Q24.925013 208.74583 24.065638 207.93333Q23.190638 207.12083 23.190638 205.83958Q23.190638 204.58958 24.034388 203.80833Q24.878138 203.01146 26.425013 203.01146Q26.518763 203.01146 26.706263 203.01146L26.706263 207.65208Q27.737513 207.58958 28.284388 207.07396Q28.815638 206.55833 28.815638 205.77708Q28.815638 205.19896 28.518763 204.79271Q28.206263 204.37083 27.550013 204.13646ZM25.846888 207.58958L25.846888 204.12083Q25.050013 204.18333 24.659388 204.51146Q24.050013 205.02708 24.050013 205.82396Q24.050013 206.55833 24.534388 207.05833Q25.018763 207.54271 25.846888 207.58958ZM29.550013 201.40208L23.331263 201.40208L23.331263 200.44896L24.268763 200.44896Q23.612513 200.08958 23.409388 199.79271Q23.190638 199.48021 23.190638 199.10521Q23.190638 198.57396 23.518763 198.02708L24.503138 198.38646Q24.268763 198.77708 24.268763 199.15208Q24.268763 199.51146 24.487513 199.79271Q24.690638 200.05833 25.065638 200.16771Q25.628138 200.35521 26.284388 200.35521L29.550013 200.35521L29.550013 201.40208ZM26.440638 194.77708Q24.706263 194.77708 23.878138 193.82396Q23.190638 193.02708 23.190638 191.87083Q23.190638 190.58958 24.034388 189.77708Q24.862513 188.94896 26.346888 188.94896Q27.550013 188.94896 28.237513 189.30833Q28.925013 189.66771 29.315638 190.37083Q29.690638 191.05833 29.690638 191.87083Q29.690638 193.16771 28.862513 193.98021Q28.018763 194.77708 26.440638 194.77708ZM26.440638 193.69896Q27.628138 193.69896 28.221888 193.18333Q28.815638 192.65208 28.815638 191.87083Q28.815638 191.07396 28.221888 190.55833Q27.628138 190.04271 26.409388 190.04271Q25.253138 190.04271 24.659388 190.57396Q24.065638 191.08958 24.065638 191.87083Q24.065638 192.65208 24.659388 193.18333Q25.237513 193.69896 26.440638 193.69896ZM29.550013 187.13646L24.143763 187.13646L24.143763 188.07396L23.331263 188.07396L23.331263 187.13646L22.659388 187.13646Q22.034388 187.13646 21.737513 187.02708Q21.315638 186.87083 21.065638 186.49583Q20.815638 186.10521 20.815638 185.41771Q20.815638 184.96458 20.925013 184.43333L21.831263 184.58958Q21.784388 184.91771 21.784388 185.21458Q21.784388 185.69896 21.987513 185.90208Q22.190638 186.08958 22.753138 186.08958L23.331263 186.08958L23.331263 184.87083L24.143763 184.87083L24.143763 186.08958L29.550013 186.08958L29.550013 187.13646ZM28.784388 177.32396Q29.284388 177.91771 29.487513 178.46458Q29.690638 178.99583 29.690638 179.62083Q29.690638 180.65208 29.190638 181.19896Q28.690638 181.74583 27.909388 181.74583Q27.456263 181.74583 27.081263 181.54271Q26.690638 181.33958 26.471888 180.99583Q26.237513 180.65208 26.128138 180.23021Q26.034388 179.93333 25.956263 179.29271Q25.815638 178.02708 25.596888 177.41771Q25.378138 177.41771 25.331263 177.41771Q24.675013 177.41771 24.409388 177.71458Q24.065638 178.12083 24.065638 178.91771Q24.065638 179.65208 24.331263 180.01146Q24.581263 180.37083 25.237513 180.54271L25.096888 181.57396Q24.440638 181.43333 24.034388 181.10521Q23.628138 180.77708 23.409388 180.16771Q23.190638 179.55833 23.190638 178.76146Q23.190638 177.96458 23.378138 177.46458Q23.565638 176.96458 23.846888 176.73021Q24.128138 176.49583 24.565638 176.40208Q24.831263 176.35521 25.534388 176.35521L26.940638 176.35521Q28.409388 176.35521 28.800013 176.29271Q29.190638 176.21458 29.550013 176.01146L29.550013 177.12083Q29.221888 177.27708 28.784388 177.32396ZM26.425013 177.41771Q26.659388 177.99583 26.831263 179.13646Q26.925013 179.79271 27.050013 180.05833Q27.159388 180.32396 27.378138 180.48021Q27.596888 180.62083 27.878138 180.62083Q28.300013 180.62083 28.581263 180.30833Q28.862513 179.98021 28.862513 179.37083Q28.862513 178.76146 28.596888 178.29271Q28.331263 177.80833 27.862513 177.58958Q27.503138 177.41771 26.815638 177.41771L26.425013 177.41771ZM31.940638 174.38646L23.331263 174.38646L23.331263 173.43333L24.128138 173.43333Q23.659388 173.08958 23.425013 172.66771Q23.190638 172.23021 23.190638 171.62083Q23.190638 170.82396 23.596888 170.21458Q24.003138 169.60521 24.753138 169.30833Q25.503138 168.99583 26.393763 168.99583Q27.346888 168.99583 28.112513 169.33958Q28.878138 169.66771 29.284388 170.32396Q29.690638 170.98021 29.690638 171.69896Q29.690638 172.23021 29.471888 172.65208Q29.237513 173.07396 28.909388 173.33958L31.940638 173.33958L31.940638 174.38646ZM26.471888 173.43333Q27.675013 173.43333 28.253138 172.94896Q28.815638 172.46458 28.815638 171.77708Q28.815638 171.07396 28.221888 170.57396Q27.628138 170.07396 26.378138 170.07396Q25.190638 170.07396 24.612513 170.55833Q24.018763 171.04271 24.018763 171.73021Q24.018763 172.40208 24.643763 172.91771Q25.268763 173.43333 26.471888 173.43333ZM31.940638 167.38646L23.331263 167.38646L23.331263 166.43333L24.128138 166.43333Q23.659388 166.08958 23.425013 165.66771Q23.190638 165.23021 23.190638 164.62083Q23.190638 163.82396 23.596888 163.21458Q24.003138 162.60521 24.753138 162.30833Q25.503138 161.99583 26.393763 161.99583Q27.346888 161.99583 28.112513 162.33958Q28.878138 162.66771 29.284388 163.32396Q29.690638 163.98021 29.690638 164.69896Q29.690638 165.23021 29.471888 165.65208Q29.237513 166.07396 28.909388 166.33958L31.940638 166.33958L31.940638 167.38646ZM26.471888 166.43333Q27.675013 166.43333 28.253138 165.94896Q28.815638 165.46458 28.815638 164.77708Q28.815638 164.07396 28.221888 163.57396Q27.628138 163.07396 26.378138 163.07396Q25.190638 163.07396 24.612513 163.55833Q24.018763 164.04271 24.018763 164.73021Q24.018763 165.40208 24.643763 165.91771Q25.268763 166.43333 26.471888 166.43333ZM27.690638 160.80833L27.534388 159.77708Q28.159388 159.68333 28.487513 159.29271Q28.815638 158.88646 28.815638 158.15208Q28.815638 157.43333 28.534388 157.08958Q28.237513 156.73021 27.831263 156.73021Q27.471888 156.73021 27.268763 157.04271Q27.128138 157.26146 26.909388 158.12083Q26.612513 159.27708 26.409388 159.73021Q26.190638 160.16771 25.815638 160.40208Q25.440638 160.63646 24.971888 160.63646Q24.565638 160.63646 24.206263 160.44896Q23.846888 160.26146 23.612513 159.93333Q23.440638 159.68333 23.315638 159.26146Q23.190638 158.83958 23.190638 158.33958Q23.190638 157.62083 23.409388 157.07396Q23.612513 156.51146 23.971888 156.24583Q24.331263 155.98021 24.925013 155.88646L25.065638 156.91771Q24.596888 156.98021 24.331263 157.32396Q24.050013 157.65208 24.050013 158.27708Q24.050013 158.99583 24.300013 159.30833Q24.534388 159.62083 24.862513 159.62083Q25.065638 159.62083 25.221888 159.49583Q25.393763 159.35521 25.503138 159.08958Q25.565638 158.93333 25.768763 158.15208Q26.081263 157.02708 26.268763 156.58958Q26.456263 156.15208 26.815638 155.90208Q27.175013 155.65208 27.721888 155.65208Q28.253138 155.65208 28.721888 155.96458Q29.175013 156.26146 29.440638 156.83958Q29.690638 157.41771 29.690638 158.15208Q29.690638 159.37083 29.190638 160.01146Q28.675013 160.63646 27.690638 160.80833Z" fill-rule="nonzero"/><path fill="#000000" d="M65.05 332.21564Q65.05 330.6844 65.3625 329.7625Q65.675 328.825 66.28438 328.325Q66.90938 327.825 67.84688 327.825Q68.53438 327.825 69.05 328.10626Q69.58125 328.3875 69.925 328.91876Q70.26875 329.4344 70.45625 330.1844Q70.64375 330.9344 70.64375 332.21564Q70.64375 333.73126 70.33125 334.65314Q70.03438 335.575 69.40938 336.09064Q68.8 336.59064 67.84688 336.59064Q66.6125 336.59064 65.89375 335.7Q65.05 334.6375 65.05 332.21564ZM66.12813 332.21564Q66.12813 334.325 66.62813 335.02814Q67.12813 335.73126 67.84688 335.73126Q68.58125 335.73126 69.06563 335.02814Q69.56563 334.325 69.56563 332.21564Q69.56563 330.09064 69.06563 329.40314Q68.58125 328.7 67.83125 328.7Q67.1125 328.7 66.675 329.3094Q66.12813 330.09064 66.12813 332.21564Z" fill-rule="nonzero"/><path fill="#000000" d="M65.05 240.68889L66.15938 240.59514Q66.28438 241.40764 66.72188 241.81389Q67.175 242.22014 67.81563 242.22014Q68.56563 242.22014 69.09688 241.64201Q69.62813 241.06389 69.62813 240.12639Q69.62813 239.22014 69.1125 238.70451Q68.6125 238.17326 67.78438 238.17326Q67.28438 238.17326 66.8625 238.40764Q66.45625 238.64201 66.22188 239.00139L65.2375 238.87639L66.06563 234.47014L70.34688 234.47014L70.34688 235.47014L66.90938 235.47014L66.45625 237.78264Q67.22188 237.23576 68.06563 237.23576Q69.19063 237.23576 69.95625 238.01701Q70.7375 238.79826 70.7375 240.03264Q70.7375 241.18889 70.06563 242.04826Q69.2375 243.07951 67.81563 243.07951Q66.64375 243.07951 65.89375 242.42326Q65.15938 241.76701 65.05 240.68889Z" fill-rule="nonzero"/><path fill="#000000" d="M62.01875 149.42778L60.971874 149.42778L60.971874 142.70903Q60.58125 143.0684 59.95625 143.4434Q59.346874 143.80278 58.8625 143.97466L58.8625 142.95903Q59.7375 142.53716 60.39375 141.95903Q61.065624 141.36528 61.346874 140.80278L62.01875 140.80278L62.01875 149.42778ZM65.05 145.1934Q65.05 143.66216 65.3625 142.74028Q65.675 141.80278 66.28438 141.30278Q66.90938 140.80278 67.84688 140.80278Q68.53438 140.80278 69.05 141.08403Q69.58125 141.36528 69.925 141.89653Q70.26875 142.41216 70.45625 143.16216Q70.64375 143.91216 70.64375 145.1934Q70.64375 146.70903 70.33125 147.6309Q70.03438 148.55278 69.40938 149.0684Q68.8 149.5684 67.84688 149.5684Q66.6125 149.5684 65.89375 148.67778Q65.05 147.61528 65.05 145.1934ZM66.12813 145.1934Q66.12813 147.30278 66.62813 148.0059Q67.12813 148.70903 67.84688 148.70903Q68.58125 148.70903 69.06563 148.0059Q69.56563 147.30278 69.56563 145.1934Q69.56563 143.0684 69.06563 142.3809Q68.58125 141.67778 67.83125 141.67778Q67.1125 141.67778 66.675 142.28716Q66.12813 143.0684 66.12813 145.1934Z" fill-rule="nonzero"/><path fill="#000000" d="M62.01875 55.916668L60.971874 55.916668L60.971874 49.197918Q60.58125 49.557293 59.95625 49.932293Q59.346874 50.291668 58.8625 50.463543L58.8625 49.447918Q59.7375 49.026043 60.39375 48.447918Q61.065624 47.854168 61.346874 47.291668L62.01875 47.291668L62.01875 55.916668ZM65.05 53.666668L66.15938 53.572918Q66.28438 54.385418 66.72188 54.791668Q67.175 55.197918 67.81563 55.197918Q68.56563 55.197918 69.09688 54.619793Q69.62813 54.041668 69.62813 53.104168Q69.62813 52.197918 69.1125 51.682293Q68.6125 51.151043 67.78438 51.151043Q67.28438 51.151043 66.8625 51.385418Q66.45625 51.619793 66.22188 51.979168L65.2375 51.854168L66.06563 47.447918L70.34688 47.447918L70.34688 48.447918L66.90938 48.447918L66.45625 50.760418Q67.22188 50.213543 68.06563 50.213543Q69.19063 50.213543 69.95625 50.994793Q70.7375 51.776043 70.7375 53.010418Q70.7375 54.166668 70.06563 55.026043Q69.2375 56.057293 67.81563 56.057293Q66.64375 56.057293 65.89375 55.401043Q65.15938 54.744793 65.05 53.666668Z" fill-rule="nonzero"/><path fill="#000000" d="M154.64459 346.4344L155.76959 346.73126Q155.41022 348.1219 154.48834 348.85626Q153.56647 349.59064 152.22272 349.59064Q150.83209 349.59064 149.95709 349.02814Q149.08209 348.46564 148.62897 347.40314Q148.17584 346.325 148.17584 345.09064Q148.17584 343.7469 148.69147 342.7469Q149.20709 341.7469 150.14459 341.23126Q151.09772 340.71564 152.23834 340.71564Q153.51959 340.71564 154.39459 341.3719Q155.28522 342.02814 155.62897 343.21564L154.50397 343.48126Q154.20709 342.54376 153.62897 342.1219Q153.06647 341.6844 152.20709 341.6844Q151.22272 341.6844 150.55084 342.16876Q149.89459 342.6375 149.61334 343.4344Q149.34772 344.23126 149.34772 345.09064Q149.34772 346.1844 149.66022 346.9969Q149.98834 347.8094 150.66022 348.21564Q151.33209 348.6219 152.12897 348.6219Q153.08209 348.6219 153.73834 348.075Q154.41022 347.52814 154.64459 346.4344ZM161.62897 347.45L162.72272 347.575Q162.47272 348.52814 161.76959 349.0594Q161.06647 349.59064 159.98834 349.59064Q158.62897 349.59064 157.81647 348.7469Q157.01959 347.90314 157.01959 346.3875Q157.01959 344.825 157.83209 343.96564Q158.64459 343.09064 159.92584 343.09064Q161.17584 343.09064 161.95709 343.9344Q162.75397 344.77814 162.75397 346.325Q162.75397 346.41876 162.75397 346.60626L158.11334 346.60626Q158.17584 347.6375 158.69147 348.1844Q159.20709 348.71564 159.98834 348.71564Q160.56647 348.71564 160.97272 348.41876Q161.39459 348.10626 161.62897 347.45ZM158.17584 345.7469L161.64459 345.7469Q161.58209 344.95 161.25397 344.5594Q160.73834 343.95 159.94147 343.95Q159.20709 343.95 158.70709 344.4344Q158.22272 344.91876 158.17584 345.7469ZM164.37897 349.45L164.37897 343.23126L165.31647 343.23126L165.31647 344.10626Q166.00397 343.09064 167.30084 343.09064Q167.86334 343.09064 168.33209 343.29376Q168.81647 343.4969 169.05084 343.825Q169.28522 344.15314 169.37897 344.59064Q169.42584 344.8875 169.42584 345.6219L169.42584 349.45L168.37897 349.45L168.37897 345.66876Q168.37897 345.0125 168.25397 344.7Q168.12897 344.3875 167.81647 344.2Q167.50397 343.9969 167.08209 343.9969Q166.41022 343.9969 165.91022 344.4344Q165.42584 344.85626 165.42584 346.04376L165.42584 349.45L164.37897 349.45ZM173.67584 348.5125L173.83209 349.4344Q173.37897 349.52814 173.03522 349.52814Q172.45709 349.52814 172.14459 349.35626Q171.83209 349.16876 171.69147 348.8719Q171.56647 348.575 171.56647 347.6219L171.56647 344.04376L170.80084 344.04376L170.80084 343.23126L171.56647 343.23126L171.56647 341.6844L172.61334 341.0594L172.61334 343.23126L173.67584 343.23126L173.67584 344.04376L172.61334 344.04376L172.61334 347.6844Q172.61334 348.1375 172.66022 348.2625Q172.72272 348.3875 172.84772 348.46564Q172.97272 348.54376 173.20709 348.54376Q173.39459 348.54376 173.67584 348.5125ZM174.36334 349.45L174.36334 343.23126L175.31647 343.23126L175.31647 344.16876Q175.67584 343.5125 175.97272 343.3094Q176.28522 343.09064 176.66022 343.09064Q177.19147 343.09064 177.73834 343.41876L177.37897 344.40314Q176.98834 344.16876 176.61334 344.16876Q176.25397 344.16876 175.97272 344.3875Q175.70709 344.59064 175.59772 344.96564Q175.41022 345.52814 175.41022 346.1844L175.41022 349.45L174.36334 349.45ZM182.44147 348.6844Q181.84772 349.1844 181.30084 349.3875Q180.76959 349.59064 180.14459 349.59064Q179.11334 349.59064 178.56647 349.09064Q178.01959 348.59064 178.01959 347.8094Q178.01959 347.35626 178.22272 346.98126Q178.42584 346.59064 178.76959 346.3719Q179.11334 346.1375 179.53522 346.02814Q179.83209 345.9344 180.47272 345.85626Q181.73834 345.71564 182.34772 345.4969Q182.34772 345.27814 182.34772 345.23126Q182.34772 344.575 182.05084 344.3094Q181.64459 343.96564 180.84772 343.96564Q180.11334 343.96564 179.75397 344.23126Q179.39459 344.48126 179.22272 345.1375L178.19147 344.9969Q178.33209 344.34064 178.66022 343.9344Q178.98834 343.52814 179.59772 343.3094Q180.20709 343.09064 181.00397 343.09064Q181.80084 343.09064 182.30084 343.27814Q182.80084 343.46564 183.03522 343.7469Q183.26959 344.02814 183.36334 344.46564Q183.41022 344.73126 183.41022 345.4344L183.41022 346.84064Q183.41022 348.3094 183.47272 348.7Q183.55084 349.09064 183.75397 349.45L182.64459 349.45Q182.48834 349.1219 182.44147 348.6844ZM182.34772 346.325Q181.76959 346.5594 180.62897 346.73126Q179.97272 346.825 179.70709 346.95Q179.44147 347.0594 179.28522 347.27814Q179.14459 347.4969 179.14459 347.77814Q179.14459 348.2 179.45709 348.48126Q179.78522 348.7625 180.39459 348.7625Q181.00397 348.7625 181.47272 348.4969Q181.95709 348.23126 182.17584 347.7625Q182.34772 347.40314 182.34772 346.71564L182.34772 346.325ZM185.34772 349.45L185.34772 340.85626L186.41022 340.85626L186.41022 349.45L185.34772 349.45ZM188.37897 342.075L188.37897 340.85626L189.44147 340.85626L189.44147 342.075L188.37897 342.075ZM188.37897 349.45L188.37897 343.23126L189.44147 343.23126L189.44147 349.45L188.37897 349.45ZM190.81647 349.45L190.81647 348.59064L194.78522 344.04376Q194.09772 344.075 193.58209 344.075L191.05084 344.075L191.05084 343.23126L196.14459 343.23126L196.14459 343.91876L192.76959 347.8719L192.11334 348.59064Q192.83209 348.54376 193.44147 348.54376L196.33209 348.54376L196.33209 349.45L190.81647 349.45ZM201.62897 347.45L202.72272 347.575Q202.47272 348.52814 201.76959 349.0594Q201.06647 349.59064 199.98834 349.59064Q198.62897 349.59064 197.81647 348.7469Q197.01959 347.90314 197.01959 346.3875Q197.01959 344.825 197.83209 343.96564Q198.64459 343.09064 199.92584 343.09064Q201.17584 343.09064 201.95709 343.9344Q202.75397 344.77814 202.75397 346.325Q202.75397 346.41876 202.75397 346.60626L198.11334 346.60626Q198.17584 347.6375 198.69147 348.1844Q199.20709 348.71564 199.98834 348.71564Q200.56647 348.71564 200.97272 348.41876Q201.39459 348.10626 201.62897 347.45ZM198.17584 345.7469L201.64459 345.7469Q201.58209 344.95 201.25397 344.5594Q200.73834 343.95 199.94147 343.95Q199.20709 343.95 198.70709 344.4344Q198.22272 344.91876 198.17584 345.7469ZM208.41022 349.45L208.41022 348.66876Q207.81647 349.59064 206.67584 349.59064Q205.92584 349.59064 205.30084 349.1844Q204.67584 348.7625 204.33209 348.02814Q203.98834 347.29376 203.98834 346.34064Q203.98834 345.41876 204.30084 344.65314Q204.61334 343.8875 205.23834 343.4969Q205.86334 343.09064 206.62897 343.09064Q207.19147 343.09064 207.62897 343.325Q208.06647 343.5594 208.34772 343.9344L208.34772 340.85626L209.39459 340.85626L209.39459 349.45L208.41022 349.45ZM205.08209 346.34064Q205.08209 347.54376 205.58209 348.1375Q206.08209 348.71564 206.76959 348.71564Q207.45709 348.71564 207.94147 348.15314Q208.42584 347.59064 208.42584 346.4344Q208.42584 345.15314 207.92584 344.5594Q207.44147 343.96564 206.72272 343.96564Q206.01959 343.96564 205.55084 344.54376Q205.08209 345.10626 205.08209 346.34064Z" fill-rule="nonzero"/><path fill="#000000" d="M292.42188 349.45L292.42188 340.85626L295.39062 340.85626Q296.39062 340.85626 296.92188 340.98126Q297.65625 341.15314 298.17188 341.59064Q298.85938 342.16876 299.1875 343.075Q299.53125 343.96564 299.53125 345.10626Q299.53125 346.09064 299.29688 346.84064Q299.07812 347.59064 298.71875 348.09064Q298.35938 348.59064 297.92188 348.8719Q297.5 349.15314 296.90625 349.3094Q296.3125 349.45 295.53125 349.45L292.42188 349.45ZM293.5625 348.4344L295.39062 348.4344Q296.25 348.4344 296.73438 348.27814Q297.21875 348.1219 297.5 347.825Q297.90625 347.4344 298.125 346.7469Q298.35938 346.0594 298.35938 345.09064Q298.35938 343.7469 297.90625 343.02814Q297.46875 342.29376 296.84375 342.04376Q296.375 341.8719 295.375 341.8719L293.5625 341.8719L293.5625 348.4344ZM305.54688 347.45L306.64062 347.575Q306.39062 348.52814 305.6875 349.0594Q304.98438 349.59064 303.90625 349.59064Q302.54688 349.59064 301.73438 348.7469Q300.9375 347.90314 300.9375 346.3875Q300.9375 344.825 301.75 343.96564Q302.5625 343.09064 303.84375 343.09064Q305.09375 343.09064 305.875 343.9344Q306.67188 344.77814 306.67188 346.325Q306.67188 346.41876 306.67188 346.60626L302.03125 346.60626Q302.09375 347.6375 302.60938 348.1844Q303.125 348.71564 303.90625 348.71564Q304.48438 348.71564 304.89062 348.41876Q305.3125 348.10626 305.54688 347.45ZM302.09375 345.7469L305.5625 345.7469Q305.5 344.95 305.17188 344.5594Q304.65625 343.95 303.85938 343.95Q303.125 343.95 302.625 344.4344Q302.14062 344.91876 302.09375 345.7469ZM312.35938 347.16876L313.39062 347.3094Q313.21875 348.3719 312.51562 348.98126Q311.8125 349.59064 310.79688 349.59064Q309.51562 349.59064 308.73438 348.7625Q307.96875 347.91876 307.96875 346.35626Q307.96875 345.35626 308.29688 344.60626Q308.64062 343.84064 309.3125 343.46564Q310.0 343.09064 310.8125 343.09064Q311.8125 343.09064 312.45312 343.60626Q313.10938 344.10626 313.29688 345.0594L312.26562 345.21564Q312.125 344.59064 311.75 344.27814Q311.375 343.95 310.84375 343.95Q310.04688 343.95 309.54688 344.52814Q309.04688 345.09064 309.04688 346.325Q309.04688 347.59064 309.53125 348.15314Q310.01562 348.71564 310.78125 348.71564Q311.40625 348.71564 311.8125 348.34064Q312.23438 347.96564 312.35938 347.16876ZM318.54688 347.45L319.64062 347.575Q319.39062 348.52814 318.6875 349.0594Q317.98438 349.59064 316.90625 349.59064Q315.54688 349.59064 314.73438 348.7469Q313.9375 347.90314 313.9375 346.3875Q313.9375 344.825 314.75 343.96564Q315.5625 343.09064 316.84375 343.09064Q318.09375 343.09064 318.875 343.9344Q319.67188 344.77814 319.67188 346.325Q319.67188 346.41876 319.67188 346.60626L315.03125 346.60626Q315.09375 347.6375 315.60938 348.1844Q316.125 348.71564 316.90625 348.71564Q317.48438 348.71564 317.89062 348.41876Q318.3125 348.10626 318.54688 347.45ZM315.09375 345.7469L318.5625 345.7469Q318.5 344.95 318.17188 344.5594Q317.65625 343.95 316.85938 343.95Q316.125 343.95 315.625 344.4344Q315.14062 344.91876 315.09375 345.7469ZM321.29688 349.45L321.29688 343.23126L322.23438 343.23126L322.23438 344.10626Q322.92188 343.09064 324.21875 343.09064Q324.78125 343.09064 325.25 343.29376Q325.73438 343.4969 325.96875 343.825Q326.20312 344.15314 326.29688 344.59064Q326.34375 344.8875 326.34375 345.6219L326.34375 349.45L325.29688 349.45L325.29688 345.66876Q325.29688 345.0125 325.17188 344.7Q325.04688 344.3875 324.73438 344.2Q324.42188 343.9969 324.0 343.9969Q323.32812 343.9969 322.82812 344.4344Q322.34375 344.85626 322.34375 346.04376L322.34375 349.45L321.29688 349.45ZM330.59375 348.5125L330.75 349.4344Q330.29688 349.52814 329.95312 349.52814Q329.375 349.52814 329.0625 349.35626Q328.75 349.16876 328.60938 348.8719Q328.48438 348.575 328.48438 347.6219L328.48438 344.04376L327.71875 344.04376L327.71875 343.23126L328.48438 343.23126L328.48438 341.6844L329.53125 341.0594L329.53125 343.23126L330.59375 343.23126L330.59375 344.04376L329.53125 344.04376L329.53125 347.6844Q329.53125 348.1375 329.57812 348.2625Q329.64062 348.3875 329.76562 348.46564Q329.89062 348.54376 330.125 348.54376Q330.3125 348.54376 330.59375 348.5125ZM331.28125 349.45L331.28125 343.23126L332.23438 343.23126L332.23438 344.16876Q332.59375 343.5125 332.89062 343.3094Q333.20312 343.09064 333.57812 343.09064Q334.10938 343.09064 334.65625 343.41876L334.29688 344.40314Q333.90625 344.16876 333.53125 344.16876Q333.17188 344.16876 332.89062 344.3875Q332.625 344.59064 332.51562 344.96564Q332.32812 345.52814 332.32812 346.1844L332.32812 349.45L331.28125 349.45ZM339.35938 348.6844Q338.76562 349.1844 338.21875 349.3875Q337.6875 349.59064 337.0625 349.59064Q336.03125 349.59064 335.48438 349.09064Q334.9375 348.59064 334.9375 347.8094Q334.9375 347.35626 335.14062 346.98126Q335.34375 346.59064 335.6875 346.3719Q336.03125 346.1375 336.45312 346.02814Q336.75 345.9344 337.39062 345.85626Q338.65625 345.71564 339.26562 345.4969Q339.26562 345.27814 339.26562 345.23126Q339.26562 344.575 338.96875 344.3094Q338.5625 343.96564 337.76562 343.96564Q337.03125 343.96564 336.67188 344.23126Q336.3125 344.48126 336.14062 345.1375L335.10938 344.9969Q335.25 344.34064 335.57812 343.9344Q335.90625 343.52814 336.51562 343.3094Q337.125 343.09064 337.92188 343.09064Q338.71875 343.09064 339.21875 343.27814Q339.71875 343.46564 339.95312 343.7469Q340.1875 344.02814 340.28125 344.46564Q340.32812 344.73126 340.32812 345.4344L340.32812 346.84064Q340.32812 348.3094 340.39062 348.7Q340.46875 349.09064 340.67188 349.45L339.5625 349.45Q339.40625 349.1219 339.35938 348.6844ZM339.26562 346.325Q338.6875 346.5594 337.54688 346.73126Q336.89062 346.825 336.625 346.95Q336.35938 347.0594 336.20312 347.27814Q336.0625 347.4969 336.0625 347.77814Q336.0625 348.2 336.375 348.48126Q336.70312 348.7625 337.3125 348.7625Q337.92188 348.7625 338.39062 348.4969Q338.875 348.23126 339.09375 347.7625Q339.26562 347.40314 339.26562 346.71564L339.26562 346.325ZM342.26562 349.45L342.26562 340.85626L343.32812 340.85626L343.32812 349.45L342.26562 349.45ZM345.29688 342.075L345.29688 340.85626L346.35938 340.85626L346.35938 342.075L345.29688 342.075ZM345.29688 349.45L345.29688 343.23126L346.35938 343.23126L346.35938 349.45L345.29688 349.45ZM347.73438 349.45L347.73438 348.59064L351.70312 344.04376Q351.01562 344.075 350.5 344.075L347.96875 344.075L347.96875 343.23126L353.0625 343.23126L353.0625 343.91876L349.6875 347.8719L349.03125 348.59064Q349.75 348.54376 350.35938 348.54376L353.25 348.54376L353.25 349.45L347.73438 349.45ZM358.54688 347.45L359.64062 347.575Q359.39062 348.52814 358.6875 349.0594Q357.98438 349.59064 356.90625 349.59064Q355.54688 349.59064 354.73438 348.7469Q353.9375 347.90314 353.9375 346.3875Q353.9375 344.825 354.75 343.96564Q355.5625 343.09064 356.84375 343.09064Q358.09375 343.09064 358.875 343.9344Q359.67188 344.77814 359.67188 346.325Q359.67188 346.41876 359.67188 346.60626L355.03125 346.60626Q355.09375 347.6375 355.60938 348.1844Q356.125 348.71564 356.90625 348.71564Q357.48438 348.71564 357.89062 348.41876Q358.3125 348.10626 358.54688 347.45ZM355.09375 345.7469L358.5625 345.7469Q358.5 344.95 358.17188 344.5594Q357.65625 343.95 356.85938 343.95Q356.125 343.95 355.625 344.4344Q355.14062 344.91876 355.09375 345.7469ZM365.32812 349.45L365.32812 348.66876Q364.73438 349.59064 363.59375 349.59064Q362.84375 349.59064 362.21875 349.1844Q361.59375 348.7625 361.25 348.02814Q360.90625 347.29376 360.90625 346.34064Q360.90625 345.41876 361.21875 344.65314Q361.53125 343.8875 362.15625 343.4969Q362.78125 343.09064 363.54688 343.09064Q364.10938 343.09064 364.54688 343.325Q364.98438 343.5594 365.26562 343.9344L365.26562 340.85626L366.3125 340.85626L366.3125 349.45L365.32812 349.45ZM362.0 346.34064Q362.0 347.54376 362.5 348.1375Q363.0 348.71564 363.6875 348.71564Q364.375 348.71564 364.85938 348.15314Q365.34375 347.59064 365.34375 346.4344Q365.34375 345.15314 364.84375 344.5594Q364.35938 343.96564 363.64062 343.96564Q362.9375 343.96564 362.46875 344.54376Q362.0 345.10626 362.0 346.34064Z" fill-rule="nonzero"/><path fill="#000000" d="M470.83978 349.45L470.83978 340.85626L471.99603 340.85626L476.51166 347.60626L476.51166 340.85626L477.6054 340.85626L477.6054 349.45L476.43353 349.45L471.9179 342.7L471.9179 349.45L470.83978 349.45ZM478.9179 349.59064L481.40228 340.71564L482.24603 340.71564L479.76166 349.59064L478.9179 349.59064ZM481.90228 349.45L485.19916 340.85626L486.4179 340.85626L489.93353 349.45L488.65228 349.45L487.63666 346.84064L484.05853 346.84064L483.1054 349.45L481.90228 349.45ZM484.38666 345.91876L487.2929 345.91876L486.40228 343.54376Q485.9804 342.46564 485.7929 341.7625Q485.62103 342.59064 485.32416 343.40314L484.38666 345.91876Z" fill-rule="nonzero"/><path fill="#a4c2f4" d="M202.0 20.55C202.0 19.997715 202.44771 19.55 203.0 19.55L213.0 19.55C213.55229 19.55 214.0 19.997715 214.0 20.55L214.0 30.55C214.0 31.102285 213.55229 31.55 213.0 31.55L203.0 31.55C202.44771 31.55 202.0 31.102285 202.0 30.55Z" fill-rule="nonzero"/><path fill="#000000" d="M226.95312 26.175L226.95312 25.175L230.57812 25.159374L230.57812 28.346874Q229.75 29.01875 228.85938 29.3625Q227.96875 29.690624 227.03125 29.690624Q225.76562 29.690624 224.71875 29.159374Q223.6875 28.6125 223.15625 27.596874Q222.64062 26.565624 222.64062 25.3Q222.64062 24.034374 223.15625 22.95625Q223.6875 21.8625 224.67188 21.346874Q225.65625 20.815624 226.9375 20.815624Q227.875 20.815624 228.625 21.1125Q229.375 21.409374 229.79688 21.95625Q230.23438 22.4875 230.45312 23.3625L229.4375 23.64375Q229.23438 22.9875 228.9375 22.6125Q228.65625 22.2375 228.125 22.01875Q227.59375 21.784374 226.95312 21.784374Q226.17188 21.784374 225.59375 22.01875Q225.03125 22.253124 224.67188 22.64375Q224.32812 23.034374 224.14062 23.503124Q223.8125 24.3 223.8125 25.221874Q223.8125 26.378124 224.20312 27.159374Q224.60938 27.925 225.35938 28.3Q226.10938 28.675 226.96875 28.675Q227.70312 28.675 228.40625 28.39375Q229.10938 28.096874 229.46875 27.784374L229.46875 26.175L226.95312 26.175ZM231.76562 29.55L231.76562 20.95625L232.82812 20.95625L232.82812 29.55L231.76562 29.55ZM234.40625 26.440624Q234.40625 24.70625 235.35938 23.878124Q236.15625 23.190624 237.3125 23.190624Q238.59375 23.190624 239.40625 24.034374Q240.23438 24.8625 240.23438 26.346874Q240.23438 27.55 239.875 28.2375Q239.51562 28.925 238.8125 29.315624Q238.125 29.690624 237.3125 29.690624Q236.01562 29.690624 235.20312 28.8625Q234.40625 28.01875 234.40625 26.440624ZM235.48438 26.440624Q235.48438 27.628124 236.0 28.221874Q236.53125 28.815624 237.3125 28.815624Q238.10938 28.815624 238.625 28.221874Q239.14062 27.628124 239.14062 26.409374Q239.14062 25.253124 238.60938 24.659374Q238.09375 24.065624 237.3125 24.065624Q236.53125 24.065624 236.0 24.659374Q235.48438 25.2375 235.48438 26.440624ZM242.76562 29.55L241.78125 29.55L241.78125 20.95625L242.84375 20.95625L242.84375 24.01875Q243.51562 23.190624 244.54688 23.190624Q245.125 23.190624 245.625 23.425Q246.14062 23.64375 246.46875 24.065624Q246.8125 24.4875 247.0 25.08125Q247.1875 25.675 247.1875 26.346874Q247.1875 27.940624 246.39062 28.815624Q245.59375 29.690624 244.5 29.690624Q243.39062 29.690624 242.76562 28.76875L242.76562 29.55ZM242.75 26.39375Q242.75 27.503124 243.0625 28.003124Q243.5625 28.815624 244.40625 28.815624Q245.09375 28.815624 245.59375 28.221874Q246.10938 27.628124 246.10938 26.425Q246.10938 25.20625 245.625 24.628124Q245.14062 24.05 244.45312 24.05Q243.76562 24.05 243.25 24.659374Q242.75 25.253124 242.75 26.39375ZM252.85938 28.784374Q252.26562 29.284374 251.71875 29.4875Q251.1875 29.690624 250.5625 29.690624Q249.53125 29.690624 248.98438 29.190624Q248.4375 28.690624 248.4375 27.909374Q248.4375 27.45625 248.64062 27.08125Q248.84375 26.690624 249.1875 26.471874Q249.53125 26.2375 249.95312 26.128124Q250.25 26.034374 250.89062 25.95625Q252.15625 25.815624 252.76562 25.596874Q252.76562 25.378124 252.76562 25.33125Q252.76562 24.675 252.46875 24.409374Q252.0625 24.065624 251.26562 24.065624Q250.53125 24.065624 250.17188 24.33125Q249.8125 24.58125 249.64062 25.2375L248.60938 25.096874Q248.75 24.440624 249.07812 24.034374Q249.40625 23.628124 250.01562 23.409374Q250.625 23.190624 251.42188 23.190624Q252.21875 23.190624 252.71875 23.378124Q253.21875 23.565624 253.45312 23.846874Q253.6875 24.128124 253.78125 24.565624Q253.82812 24.83125 253.82812 25.534374L253.82812 26.940624Q253.82812 28.409374 253.89062 28.8Q253.96875 29.190624 254.17188 29.55L253.0625 29.55Q252.90625 29.221874 252.85938 28.784374ZM252.76562 26.425Q252.1875 26.659374 251.04688 26.83125Q250.39062 26.925 250.125 27.05Q249.85938 27.159374 249.70312 27.378124Q249.5625 27.596874 249.5625 27.878124Q249.5625 28.3 249.875 28.58125Q250.20312 28.8625 250.8125 28.8625Q251.42188 28.8625 251.89062 28.596874Q252.375 28.33125 252.59375 27.8625Q252.76562 27.503124 252.76562 26.815624L252.76562 26.425ZM255.76562 29.55L255.76562 20.95625L256.82812 20.95625L256.82812 29.55L255.76562 29.55ZM261.92188 29.55L261.92188 20.95625L263.07812 20.95625L267.59375 27.70625L267.59375 20.95625L268.6875 20.95625L268.6875 29.55L267.51562 29.55L263.0 22.8L263.0 29.55L261.92188 29.55ZM270.40625 26.440624Q270.40625 24.70625 271.35938 23.878124Q272.15625 23.190624 273.3125 23.190624Q274.59375 23.190624 275.40625 24.034374Q276.23438 24.8625 276.23438 26.346874Q276.23438 27.55 275.875 28.2375Q275.51562 28.925 274.8125 29.315624Q274.125 29.690624 273.3125 29.690624Q272.01562 29.690624 271.20312 28.8625Q270.40625 28.01875 270.40625 26.440624ZM271.48438 26.440624Q271.48438 27.628124 272.0 28.221874Q272.53125 28.815624 273.3125 28.815624Q274.10938 28.815624 274.625 28.221874Q275.14062 27.628124 275.14062 26.409374Q275.14062 25.253124 274.60938 24.659374Q274.09375 24.065624 273.3125 24.065624Q272.53125 24.065624 272.0 24.659374Q271.48438 25.2375 271.48438 26.440624ZM277.78125 29.55L277.78125 23.33125L278.73438 23.33125L278.73438 24.26875Q279.09375 23.6125 279.39062 23.409374Q279.70312 23.190624 280.07812 23.190624Q280.60938 23.190624 281.15625 23.51875L280.79688 24.503124Q280.40625 24.26875 280.03125 24.26875Q279.67188 24.26875 279.39062 24.4875Q279.125 24.690624 279.01562 25.065624Q278.82812 25.628124 278.82812 26.284374L278.82812 29.55L277.78125 29.55ZM284.09375 28.6125L284.25 29.534374Q283.79688 29.628124 283.45312 29.628124Q282.875 29.628124 282.5625 29.45625Q282.25 29.26875 282.10938 28.971874Q281.98438 28.675 281.98438 27.721874L281.98438 24.14375L281.21875 24.14375L281.21875 23.33125L281.98438 23.33125L281.98438 21.784374L283.03125 21.159374L283.03125 23.33125L284.09375 23.33125L284.09375 24.14375L283.03125 24.14375L283.03125 27.784374Q283.03125 28.2375 283.07812 28.3625Q283.14062 28.4875 283.26562 28.565624Q283.39062 28.64375 283.625 28.64375Q283.8125 28.64375 284.09375 28.6125ZM284.79688 29.55L284.79688 20.95625L285.84375 20.95625L285.84375 24.034374Q286.57812 23.190624 287.70312 23.190624Q288.40625 23.190624 288.90625 23.471874Q289.42188 23.7375 289.64062 24.221874Q289.85938 24.690624 289.85938 25.6125L289.85938 29.55L288.8125 29.55L288.8125 25.6125Q288.8125 24.815624 288.46875 24.45625Q288.125 24.096874 287.5 24.096874Q287.03125 24.096874 286.60938 24.346874Q286.20312 24.58125 286.01562 25.003124Q285.84375 25.409374 285.84375 26.14375L285.84375 29.55L284.79688 29.55Z" fill-rule="nonzero"/><path fill="#ffd966" d="M307.0 20.55C307.0 19.997715 307.44772 19.55 308.0 19.55L318.0 19.55C318.55228 19.55 319.0 19.997715 319.0 20.55L319.0 30.55C319.0 31.102285 318.55228 31.55 318.0 31.55L308.0 31.55C307.44772 31.55 307.0 31.102285 307.0 30.55Z" fill-rule="nonzero"/><path fill="#000000" d="M331.95312 26.175L331.95312 25.175L335.57812 25.159374L335.57812 28.346874Q334.75 29.01875 333.85938 29.3625Q332.96875 29.690624 332.03125 29.690624Q330.76562 29.690624 329.71875 29.159374Q328.6875 28.6125 328.15625 27.596874Q327.64062 26.565624 327.64062 25.3Q327.64062 24.034374 328.15625 22.95625Q328.6875 21.8625 329.67188 21.346874Q330.65625 20.815624 331.9375 20.815624Q332.875 20.815624 333.625 21.1125Q334.375 21.409374 334.79688 21.95625Q335.23438 22.4875 335.45312 23.3625L334.4375 23.64375Q334.23438 22.9875 333.9375 22.6125Q333.65625 22.2375 333.125 22.01875Q332.59375 21.784374 331.95312 21.784374Q331.17188 21.784374 330.59375 22.01875Q330.03125 22.253124 329.67188 22.64375Q329.32812 23.034374 329.14062 23.503124Q328.8125 24.3 328.8125 25.221874Q328.8125 26.378124 329.20312 27.159374Q329.60938 27.925 330.35938 28.3Q331.10938 28.675 331.96875 28.675Q332.70312 28.675 333.40625 28.39375Q334.10938 28.096874 334.46875 27.784374L334.46875 26.175L331.95312 26.175ZM336.76562 29.55L336.76562 20.95625L337.82812 20.95625L337.82812 29.55L336.76562 29.55ZM339.40625 26.440624Q339.40625 24.70625 340.35938 23.878124Q341.15625 23.190624 342.3125 23.190624Q343.59375 23.190624 344.40625 24.034374Q345.23438 24.8625 345.23438 26.346874Q345.23438 27.55 344.875 28.2375Q344.51562 28.925 343.8125 29.315624Q343.125 29.690624 342.3125 29.690624Q341.01562 29.690624 340.20312 28.8625Q339.40625 28.01875 339.40625 26.440624ZM340.48438 26.440624Q340.48438 27.628124 341.0 28.221874Q341.53125 28.815624 342.3125 28.815624Q343.10938 28.815624 343.625 28.221874Q344.14062 27.628124 344.14062 26.409374Q344.14062 25.253124 343.60938 24.659374Q343.09375 24.065624 342.3125 24.065624Q341.53125 24.065624 341.0 24.659374Q340.48438 25.2375 340.48438 26.440624ZM347.76562 29.55L346.78125 29.55L346.78125 20.95625L347.84375 20.95625L347.84375 24.01875Q348.51562 23.190624 349.54688 23.190624Q350.125 23.190624 350.625 23.425Q351.14062 23.64375 351.46875 24.065624Q351.8125 24.4875 352.0 25.08125Q352.1875 25.675 352.1875 26.346874Q352.1875 27.940624 351.39062 28.815624Q350.59375 29.690624 349.5 29.690624Q348.39062 29.690624 347.76562 28.76875L347.76562 29.55ZM347.75 26.39375Q347.75 27.503124 348.0625 28.003124Q348.5625 28.815624 349.40625 28.815624Q350.09375 28.815624 350.59375 28.221874Q351.10938 27.628124 351.10938 26.425Q351.10938 25.20625 350.625 24.628124Q350.14062 24.05 349.45312 24.05Q348.76562 24.05 348.25 24.659374Q347.75 25.253124 347.75 26.39375ZM357.85938 28.784374Q357.26562 29.284374 356.71875 29.4875Q356.1875 29.690624 355.5625 29.690624Q354.53125 29.690624 353.98438 29.190624Q353.4375 28.690624 353.4375 27.909374Q353.4375 27.45625 353.64062 27.08125Q353.84375 26.690624 354.1875 26.471874Q354.53125 26.2375 354.95312 26.128124Q355.25 26.034374 355.89062 25.95625Q357.15625 25.815624 357.76562 25.596874Q357.76562 25.378124 357.76562 25.33125Q357.76562 24.675 357.46875 24.409374Q357.0625 24.065624 356.26562 24.065624Q355.53125 24.065624 355.17188 24.33125Q354.8125 24.58125 354.64062 25.2375L353.60938 25.096874Q353.75 24.440624 354.07812 24.034374Q354.40625 23.628124 355.01562 23.409374Q355.625 23.190624 356.42188 23.190624Q357.21875 23.190624 357.71875 23.378124Q358.21875 23.565624 358.45312 23.846874Q358.6875 24.128124 358.78125 24.565624Q358.82812 24.83125 358.82812 25.534374L358.82812 26.940624Q358.82812 28.409374 358.89062 28.8Q358.96875 29.190624 359.17188 29.55L358.0625 29.55Q357.90625 29.221874 357.85938 28.784374ZM357.76562 26.425Q357.1875 26.659374 356.04688 26.83125Q355.39062 26.925 355.125 27.05Q354.85938 27.159374 354.70312 27.378124Q354.5625 27.596874 354.5625 27.878124Q354.5625 28.3 354.875 28.58125Q355.20312 28.8625 355.8125 28.8625Q356.42188 28.8625 356.89062 28.596874Q357.375 28.33125 357.59375 27.8625Q357.76562 27.503124 357.76562 26.815624L357.76562 26.425ZM360.76562 29.55L360.76562 20.95625L361.82812 20.95625L361.82812 29.55L360.76562 29.55ZM366.54688 26.784374L367.60938 26.690624Q367.6875 27.346874 367.96875 27.753124Q368.25 28.159374 368.82812 28.425Q369.42188 28.675 370.15625 28.675Q370.79688 28.675 371.29688 28.4875Q371.79688 28.284374 372.03125 27.95625Q372.28125 27.6125 372.28125 27.221874Q372.28125 26.815624 372.04688 26.51875Q371.8125 26.20625 371.28125 26.003124Q370.92188 25.8625 369.73438 25.58125Q368.5625 25.3 368.09375 25.05Q367.46875 24.721874 367.17188 24.253124Q366.875 23.76875 366.875 23.175Q366.875 22.534374 367.23438 21.971874Q367.60938 21.39375 368.3125 21.1125Q369.03125 20.815624 369.89062 20.815624Q370.84375 20.815624 371.57812 21.128124Q372.3125 21.425 372.70312 22.034374Q373.09375 22.628124 373.125 23.378124L372.03125 23.45625Q371.9375 22.64375 371.42188 22.2375Q370.92188 21.815624 369.9375 21.815624Q368.90625 21.815624 368.4375 22.190624Q367.96875 22.565624 367.96875 23.096874Q367.96875 23.565624 368.29688 23.8625Q368.625 24.159374 370.0 24.471874Q371.39062 24.784374 371.90625 25.01875Q372.65625 25.378124 373.01562 25.909374Q373.375 26.425 373.375 27.128124Q373.375 27.815624 372.98438 28.425Q372.59375 29.01875 371.85938 29.3625Q371.125 29.690624 370.20312 29.690624Q369.03125 29.690624 368.23438 29.3625Q367.45312 29.01875 367.0 28.33125Q366.5625 27.64375 366.54688 26.784374ZM374.40625 26.440624Q374.40625 24.70625 375.35938 23.878124Q376.15625 23.190624 377.3125 23.190624Q378.59375 23.190624 379.40625 24.034374Q380.23438 24.8625 380.23438 26.346874Q380.23438 27.55 379.875 28.2375Q379.51562 28.925 378.8125 29.315624Q378.125 29.690624 377.3125 29.690624Q376.01562 29.690624 375.20312 28.8625Q374.40625 28.01875 374.40625 26.440624ZM375.48438 26.440624Q375.48438 27.628124 376.0 28.221874Q376.53125 28.815624 377.3125 28.815624Q378.10938 28.815624 378.625 28.221874Q379.14062 27.628124 379.14062 26.409374Q379.14062 25.253124 378.60938 24.659374Q378.09375 24.065624 377.3125 24.065624Q376.53125 24.065624 376.0 24.659374Q375.48438 25.2375 375.48438 26.440624ZM385.875 29.55L385.875 28.628124Q385.14062 29.690624 383.89062 29.690624Q383.34375 29.690624 382.85938 29.4875Q382.39062 29.26875 382.15625 28.95625Q381.92188 28.628124 381.82812 28.159374Q381.76562 27.8625 381.76562 27.175L381.76562 23.33125L382.82812 23.33125L382.82812 26.784374Q382.82812 27.596874 382.89062 27.89375Q382.98438 28.3 383.29688 28.55Q383.625 28.784374 384.10938 28.784374Q384.57812 28.784374 384.98438 28.55Q385.40625 28.3 385.57812 27.878124Q385.76562 27.45625 385.76562 26.659374L385.76562 23.33125L386.8125 23.33125L386.8125 29.55L385.875 29.55ZM391.09375 28.6125L391.25 29.534374Q390.79688 29.628124 390.45312 29.628124Q389.875 29.628124 389.5625 29.45625Q389.25 29.26875 389.10938 28.971874Q388.98438 28.675 388.98438 27.721874L388.98438 24.14375L388.21875 24.14375L388.21875 23.33125L388.98438 23.33125L388.98438 21.784374L390.03125 21.159374L390.03125 23.33125L391.09375 23.33125L391.09375 24.14375L390.03125 24.14375L390.03125 27.784374Q390.03125 28.2375 390.07812 28.3625Q390.14062 28.4875 390.26562 28.565624Q390.39062 28.64375 390.625 28.64375Q390.8125 28.64375 391.09375 28.6125ZM391.79688 29.55L391.79688 20.95625L392.84375 20.95625L392.84375 24.034374Q393.57812 23.190624 394.70312 23.190624Q395.40625 23.190624 395.90625 23.471874Q396.42188 23.7375 396.64062 24.221874Q396.85938 24.690624 396.85938 25.6125L396.85938 29.55L395.8125 29.55L395.8125 25.6125Q395.8125 24.815624 395.46875 24.45625Q395.125 24.096874 394.5 24.096874Q394.03125 24.096874 393.60938 24.346874Q393.20312 24.58125 393.01562 25.003124Q392.84375 25.409374 392.84375 26.14375L392.84375 29.55L391.79688 29.55Z" fill-rule="nonzero"/></svg>