<svg version="1.1" viewBox="0.0 0.0 600.0 371.0" fill="none" stroke="none" stroke-linecap="square" stroke-miterlimit="10" width="600" height="371" xmlns:xlink="http://www.w3.org/1999/xlink" xmlns="http://www.w3.org/2000/svg"><path fill="#ffffff" d="M0 0L600.0 0L600.0 371.0L0 371.0L0 0Z" fill-rule="nonzero"/><path stroke="#333333" stroke-width="1.0" stroke-linecap="butt" d="M77.5 332.5L581.5 332.5" fill-rule="nonzero"/><path stroke="#000000" stroke-width="1.0" stroke-linecap="butt" d="M77.5 238.5L581.5 238.5" fill-rule="nonzero"/><path stroke="#000000" stroke-width="1.0" stroke-linecap="butt" d="M77.5 145.5L581.5 145.5" fill-rule="nonzero"/><path stroke="#000000" stroke-width="1.0" stroke-linecap="butt" d="M77.5 51.5L581.5 51.5" fill-rule="nonzero"/><clipPath id="id_0"><path d="M77.55 51.916668L581.45 51.916668L581.45 332.45L77.55 332.45L77.55 51.916668Z" clip-rule="nonzero"/></clipPath><path stroke="#000000" stroke-width="0.0" stroke-linecap="butt" stroke-opacity="0.0" clip-path="url(#id_0)" d="M155.0 332.0L118.0 332.0L118.0 297.0C118.0 295.89542 118.89543 295.0 120.0 295.0L153.0 295.0C154.10457 295.0 155.0 295.89542 155.0 297.0Z" fill-rule="nonzero"/><path fill="#a4c2f4" clip-path="url(#id_0)" d="M155.0 332.0L118.0 332.0L118.0 297.0C118.0 295.89542 118.89543 295.0 120.0 295.0L153.0 295.0C154.10457 295.0 155.0 295.89542 155.0 297.0Z" fill-rule="nonzero"/><path stroke="#000000" stroke-width="0.0" stroke-linecap="butt" stroke-opacity="0.0" clip-path="url(#id_0)" d="M271.0 332.0L234.0 332.0L234.0 73.0C234.0 71.89543 234.89543 71.0 236.0 71.0L269.0 71.0C270.10458 71.0 271.0 71.89543 271.0 73.0Z" fill-rule="nonzero"/><path fill="#a4c2f4" clip-path="url(#id_0)" d="M271.0 332.0L234.0 332.0L234.0 73.0C234.0 71.89543 234.89543 71.0 236.0 71.0L269.0 71.0C270.10458 71.0 271.0 71.89543 271.0 73.0Z" fill-rule="nonzero"/><path stroke="#000000" stroke-width="0.0" stroke-linecap="butt" stroke-opacity="0.0" clip-path="url(#id_0)" d="M386.0 332.0L349.0 332.0L349.0 316.0C349.0 314.89542 349.89542 314.0 351.0 314.0L384.0 314.0C385.10458 314.0 386.0 314.89542 386.0 316.0Z" fill-rule="nonzero"/><path fill="#a4c2f4" clip-path="url(#id_0)" d="M386.0 332.0L349.0 332.0L349.0 316.0C349.0 314.89542 349.89542 314.0 351.0 314.0L384.0 314.0C385.10458 314.0 386.0 314.89542 386.0 316.0Z" fill-rule="nonzero"/><path stroke="#000000" stroke-width="0.0" stroke-linecap="butt" stroke-opacity="0.0" clip-path="url(#id_0)" d="M502.0 332.0L465.0 332.0L465.0 204.0C465.0 202.89543 465.89542 202.0 467.0 202.0L500.0 202.0C501.10458 202.0 502.0 202.89543 502.0 204.0Z" fill-rule="nonzero"/><path fill="#a4c2f4" clip-path="url(#id_0)" d="M502.0 332.0L465.0 332.0L465.0 204.0C465.0 202.89543 465.89542 202.0 467.0 202.0L500.0 202.0C501.10458 202.0 502.0 202.89543 502.0 204.0Z" fill-rule="nonzero"/><path stroke="#000000" stroke-width="0.0" stroke-linecap="butt" stroke-opacity="0.0" clip-path="url(#id_0)" d="M193.0 332.0L156.0 332.0L156.0 297.0C156.0 295.89542 156.89543 295.0 158.0 295.0L191.0 295.0C192.10457 295.0 193.0 295.89542 193.0 297.0Z" fill-rule="nonzero"/><path fill="#ffd966" clip-path="url(#id_0)" d="M193.0 332.0L156.0 332.0L156.0 297.0C156.0 295.89542 156.89543 295.0 158.0 295.0L191.0 295.0C192.10457 295.0 193.0 295.89542 193.0 297.0Z" fill-rule="nonzero"/><path stroke="#000000" stroke-width="0.0" stroke-linecap="butt" stroke-opacity="0.0" clip-path="url(#id_0)" d="M309.0 332.0L272.0 332.0L272.0 166.0C272.0 164.89543 272.89542 164.0 274.0 164.0L307.0 164.0C308.10458 164.0 309.0 164.89543 309.0 166.0Z" fill-rule="nonzero"/><path fill="#ffd966" clip-path="url(#id_0)" d="M309.0 332.0L272.0 332.0L272.0 166.0C272.0 164.89543 272.89542 164.0 274.0 164.0L307.0 164.0C308.10458 164.0 309.0 164.89543 309.0 166.0Z" fill-rule="nonzero"/><path stroke="#000000" stroke-width="0.0" stroke-linecap="butt" stroke-opacity="0.0" clip-path="url(#id_0)" d="M424.0 332.0L387.0 332.0L387.0 297.0C387.0 295.89542 387.89542 295.0 389.0 295.0L422.0 295.0C423.10458 295.0 424.0 295.89542 424.0 297.0Z" fill-rule="nonzero"/><path fill="#ffd966" clip-path="url(#id_0)" d="M424.0 332.0L387.0 332.0L387.0 297.0C387.0 295.89542 387.89542 295.0 389.0 295.0L422.0 295.0C423.10458 295.0 424.0 295.89542 424.0 297.0Z" fill-rule="nonzero"/><path stroke="#000000" stroke-width="0.0" stroke-linecap="butt" stroke-opacity="0.0" clip-path="url(#id_0)" d="M540.0 332.0L503.0 332.0L503.0 297.0C503.0 295.89542 503.89542 295.0 505.0 295.0L538.0 295.0C539.10455 295.0 540.0 295.89542 540.0 297.0Z" fill-rule="nonzero"/><path fill="#ffd966" clip-path="url(#id_0)" d="M540.0 332.0L503.0 332.0L503.0 297.0C503.0 295.89542 503.89542 295.0 505.0 295.0L538.0 295.0C539.10455 295.0 540.0 295.89542 540.0 297.0Z" fill-rule="nonzero"/><path fill="#000000" d="M29.550013 241.26146L20.956263 241.26146L20.956263 240.10521L27.706263 235.58958L20.956263 235.58958L20.956263 234.49583L29.550013 234.49583L29.550013 235.66771L22.800013 240.18333L29.550013 240.18333L29.550013 241.26146ZM29.550013 228.30833L28.628138 228.30833Q29.690638 229.04271 29.690638 230.29271Q29.690638 230.83958 29.487513 231.32396Q29.268763 231.79271 28.956263 232.02708Q28.628138 232.26146 28.159388 232.35521Q27.862513 232.41771 27.175013 232.41771L23.331263 232.41771L23.331263 231.35521L26.784388 231.35521Q27.596888 231.35521 27.893763 231.29271Q28.300013 231.19896 28.550013 230.88646Q28.784388 230.55833 28.784388 230.07396Q28.784388 229.60521 28.550013 229.19896Q28.300013 228.77708 27.878138 228.60521Q27.456263 228.41771 26.659388 228.41771L23.331263 228.41771L23.331263 227.37083L29.550013 227.37083L29.550013 228.30833ZM29.550013 225.38646L23.331263 225.38646L23.331263 224.44896L24.206263 224.44896Q23.737513 224.15208 23.471888 223.66771Q23.190638 223.18333 23.190638 222.55833Q23.190638 221.87083 23.471888 221.43333Q23.753138 220.98021 24.268763 220.80833Q23.190638 220.05833 23.190638 218.88646Q23.190638 217.94896 23.706263 217.46458Q24.206263 216.96458 25.284388 216.96458L29.550013 216.96458L29.550013 218.01146L25.628138 218.01146Q25.003138 218.01146 24.721888 218.12083Q24.440638 218.21458 24.268763 218.48021Q24.096888 218.74583 24.096888 219.12083Q24.096888 219.77708 24.534388 220.21458Q24.971888 220.63646 25.940638 220.63646L29.550013 220.63646L29.550013 221.69896L25.503138 221.69896Q24.800013 221.69896 24.456263 221.96458Q24.096888 222.21458 24.096888 222.79271Q24.096888 223.24583 24.331263 223.62083Q24.565638 223.99583 25.018763 224.16771Q25.471888 224.33958 26.315638 224.33958L29.550013 224.33958L29.550013 225.38646ZM29.550013 214.41771L29.550013 215.40208L20.956263 215.40208L20.956263 214.33958L24.018763 214.33958Q23.190638 213.66771 23.190638 212.63646Q23.190638 212.05833 23.425013 211.55833Q23.643763 211.04271 24.065638 210.71458Q24.487513 210.37083 25.081263 210.18333Q25.675013 209.99583 26.346888 209.99583Q27.940638 209.99583 28.815638 210.79271Q29.690638 211.58958 29.690638 212.68333Q29.690638 213.79271 28.768763 214.41771L29.550013 214.41771ZM26.393763 214.43333Q27.503138 214.43333 28.003138 214.12083Q28.815638 213.62083 28.815638 212.77708Q28.815638 212.08958 28.221888 211.58958Q27.628138 211.07396 26.425013 211.07396Q25.206263 211.07396 24.628138 211.55833Q24.050013 212.04271 24.050013 212.73021Q24.050013 213.41771 24.659388 213.93333Q25.253138 214.43333 26.393763 214.43333ZM27.550013 204.13646L27.675013 203.04271Q28.628138 203.29271 29.159388 203.99583Q29.690638 204.69896 29.690638 205.77708Q29.690638 207.13646 28.846888 207.94896Q28.003138 208.74583 26.487513 208.74583Q24.925013 208.74583 24.065638 207.93333Q23.190638 207.12083 23.190638 205.83958Q23.190638 204.58958 24.034388 203.80833Q24.878138 203.01146 26.425013 203.01146Q26.518763 203.01146 26.706263 203.01146L26.706263 207.65208Q27.737513 207.58958 28.284388 207.07396Q28.815638 206.55833 28.815638 205.77708Q28.815638 205.19896 28.518763 204.79271Q28.206263 204.37083 27.550013 204.13646ZM25.846888 207.58958L25.846888 204.12083Q25.050013 204.18333 24.659388 204.51146Q24.050013 205.02708 24.050013 205.82396Q24.050013 206.55833 24.534388 207.05833Q25.018763 207.54271 25.846888 207.58958ZM29.550013 201.40208L23.331263 201.40208L23.331263 200.44896L24.268763 200.44896Q23.612513 200.08958 23.409388 199.79271Q23.190638 199.48021 23.190638 199.10521Q23.190638 198.57396 23.518763 198.02708L24.503138 198.38646Q24.268763 198.77708 24.268763 199.15208Q24.268763 199.51146 24.487513 199.79271Q24.690638 200.05833 25.065638 200.16771Q25.628138 200.35521 26.284388 200.35521L29.550013 200.35521L29.550013 201.40208ZM26.440638 194.77708Q24.706263 194.77708 23.878138 193.82396Q23.190638 193.02708 23.190638 191.87083Q23.190638 190.58958 24.034388 189.77708Q24.862513 188.94896 26.346888 188.94896Q27.550013 188.94896 28.237513 189.30833Q28.925013 189.66771 29.315638 190.37083Q29.690638 191.05833 29.690638 191.87083Q29.690638 193.16771 28.862513 193.98021Q28.018763 194.77708 26.440638 194.77708ZM26.440638 193.69896Q27.628138 193.69896 28.221888 193.18333Q28.815638 192.65208 28.815638 191.87083Q28.815638 191.07396 28.221888 190.55833Q27.628138 190.04271 26.409388 190.04271Q25.253138 190.04271 24.659388 190.57396Q24.065638 191.08958 24.065638 191.87083Q24.065638 192.65208 24.659388 193.18333Q25.237513 193.69896 26.440638 193.69896ZM29.550013 187.13646L24.143763 187.13646L24.143763 188.07396L23.331263 188.07396L23.331263 187.13646L22.659388 187.13646Q22.034388 187.13646 21.737513 187.02708Q21.315638 186.87083 21.065638 186.49583Q20.815638 186.10521 20.815638 185.41771Q20.815638 184.96458 20.925013 184.43333L21.831263 184.58958Q21.784388 184.91771 21.784388 185.21458Q21.784388 185.69896 21.987513 185.90208Q22.190638 186.08958 22.753138 186.08958L23.331263 186.08958L23.331263 184.87083L24.143763 184.87083L24.143763 186.08958L29.550013 186.08958L29.550013 187.13646ZM28.784388 177.32396Q29.284388 177.91771 29.487513 178.46458Q29.690638 178.99583 29.690638 179.62083Q29.690638 180.65208 29.190638 181.19896Q28.690638 181.74583 27.909388 181.74583Q27.456263 181.74583 27.081263 181.54271Q26.690638 181.33958 26.471888 180.99583Q26.237513 180.65208 26.128138 180.23021Q26.034388 179.93333 25.956263 179.29271Q25.815638 178.02708 25.596888 177.41771Q25.378138 177.41771 25.331263 177.41771Q24.675013 177.41771 24.409388 177.71458Q24.065638 178.12083 24.065638 178.91771Q24.065638 179.65208 24.331263 180.01146Q24.581263 180.37083 25.237513 180.54271L25.096888 181.57396Q24.440638 181.43333 24.034388 181.10521Q23.628138 180.77708 23.409388 180.16771Q23.190638 179.55833 23.190638 178.76146Q23.190638 177.96458 23.378138 177.46458Q23.565638 176.96458 23.846888 176.73021Q24.128138 176.49583 24.565638 176.40208Q24.831263 176.35521 25.534388 176.35521L26.940638 176.35521Q28.409388 176.35521 28.800013 176.29271Q29.190638 176.21458 29.550013 176.01146L29.550013 177.12083Q29.221888 177.27708 28.784388 177.32396ZM26.425013 177.41771Q26.659388 177.99583 26.831263 179.13646Q26.925013 179.79271 27.050013 180.05833Q27.159388 180.32396 27.378138 180.48021Q27.596888 180.62083 27.878138 180.62083Q28.300013 180.62083 28.581263 180.30833Q28.862513 179.98021 28.862513 179.37083Q28.862513 178.76146 28.596888 178.29271Q28.331263 177.80833 27.862513 177.58958Q27.503138 177.41771 26.815638 177.41771L26.425013 177.41771ZM31.940638 174.38646L23.331263 174.38646L23.331263 173.43333L24.128138 173.43333Q23.659388 173.08958 23.425013 172.66771Q23.190638 172.23021 23.190638 171.62083Q23.190638 170.82396 23.596888 170.21458Q24.003138 169.60521 24.753138 169.30833Q25.503138 168.99583 26.393763 168.99583Q27.346888 168.99583 28.112513 169.33958Q28.878138 169.66771 29.284388 170.32396Q29.690638 170.98021 29.690638 171.69896Q29.690638 172.23021 29.471888 172.65208Q29.237513 173.07396 28.909388 173.33958L31.940638 173.33958L31.940638 174.38646ZM26.471888 173.43333Q27.675013 173.43333 28.253138 172.94896Q28.815638 172.46458 28.815638 171.77708Q28.815638 171.07396 28.221888 170.57396Q27.628138 170.07396 26.378138 170.07396Q25.190638 170.07396 24.612513 170.55833Q24.018763 171.04271 24.018763 171.73021Q24.018763 172.40208 24.643763 172.91771Q25.268763 173.43333 26.471888 173.43333ZM31.940638 167.38646L23.331263 167.38646L23.331263 166.43333L24.128138 166.43333Q23.659388 166.08958 23.425013 165.66771Q23.190638 165.23021 23.190638 164.62083Q23.190638 163.82396 23.596888 163.21458Q24.003138 162.60521 24.753138 162.30833Q25.503138 161.99583 26.393763 161.99583Q27.346888 161.99583 28.112513 162.33958Q28.878138 162.66771 29.284388 163.32396Q29.690638 163.98021 29.690638 164.69896Q29.690638 165.23021 29.471888 165.65208Q29.237513 166.07396 28.909388 166.33958L31.940638 166.33958L31.940638 167.38646ZM26.471888 166.43333Q27.675013 166.43333 28.253138 165.94896Q28.815638 165.46458 28.815638 164.77708Q28.815638 164.07396 28.221888 163.57396Q27.628138 163.07396 26.378138 163.07396Q25.190638 163.07396 24.612513 163.55833Q24.018763 164.04271 24.018763 164.73021Q24.018763 165.40208 24.643763 165.91771Q25.268763 166.43333 26.471888 166.43333ZM27.690638 160.80833L27.534388 159.77708Q28.159388 159.68333 28.487513 159.29271Q28.815638 158.88646 28.815638 158.15208Q28.815638 157.43333 28.534388 157.08958Q28.237513 156.73021 27.831263 156.73021Q27.471888 156.73021 27.268763 157.04271Q27.128138 157.26146 26.909388 158.12083Q26.612513 159.27708 26.409388 159.73021Q26.190638 160.16771 25.815638 160.40208Q25.440638 160.63646 24.971888 160.63646Q24.565638 160.63646 24.206263 160.44896Q23.846888 160.26146 23.612513 159.93333Q23.440638 159.68333 23.315638 159.26146Q23.190638 158.83958 23.190638 158.33958Q23.190638 157.62083 23.409388 157.07396Q23.612513 156.51146 23.971888 156.24583Q24.331263 155.98021 24.925013 155.88646L25.065638 156.91771Q24.596888 156.98021 24.331263 157.32396Q24.050013 157.65208 24.050013 158.27708Q24.050013 158.99583 24.300013 159.30833Q24.534388 159.62083 24.862513 159.62083Q25.065638 159.62083 25.221888 159.49583Q25.393763 159.35521 25.503138 159.08958Q25.565638 158.93333 25.768763 158.15208Q26.081263 157.02708 26.268763 156.58958Q26.456263 156.15208 26.815638 155.90208Q27.175013 155.65208 27.721888 155.65208Q28.253138 155.65208 28.721888 155.96458Q29.175013 156.26146 29.440638 156.83958Q29.690638 157.41771 29.690638 158.15208Q29.690638 159.37083 29.190638 160.01146Q28.675013 160.63646 27.690638 160.80833Z" fill-rule="nonzero"/><path fill="#000000" d="M65.05 332.21564Q65.05 330.6844 65.3625 329.7625Q65.675 328.825 66.28438 328.325Q66.90938 327.825 67.84688 327.825Q68.53438 327.825 69.05 328.10626Q69.58125 328.3875 69.925 328.91876Q70.26875 329.4344 70.45625 330.1844Q70.64375 330.9344 70.64375 332.21564Q70.64375 333.73126 70.33125 334.65314Q70.03438 335.575 69.40938 336.09064Q68.8 336.59064 67.84688 336.59064Q66.6125 336.59064 65.89375 335.7Q65.05 334.6375 65.05 332.21564ZM66.12813 332.21564Q66.12813 334.325 66.62813 335.02814Q67.12813 335.73126 67.84688 335.73126Q68.58125 335.73126 69.06563 335.02814Q69.56563 334.325 69.56563 332.21564Q69.56563 330.09064 69.06563 329.40314Q68.58125 328.7 67.83125 328.7Q67.1125 328.7 66.675 329.3094Q66.12813 330.09064 66.12813 332.21564Z" fill-rule="nonzero"/><path fill="#000000" d="M65.05 240.68889L66.15938 240.59514Q66.28438 241.40764 66.72188 241.81389Q67.175 242.22014 67.81563 242.22014Q68.56563 242.22014 69.09688 241.64201Q69.62813 241.06389 69.62813 240.12639Q69.62813 239.22014 69.1125 238.70451Q68.6125 238.17326 67.78438 238.17326Q67.28438 238.17326 66.8625 238.40764Q66.45625 238.64201 66.22188 239.00139L65.2375 238.87639L66.06563 234.47014L70.34688 234.47014L70.34688 235.47014L66.90938 235.47014L66.45625 237.78264Q67.22188 237.23576 68.06563 237.23576Q69.19063 237.23576 69.95625 238.01701Q70.7375 238.79826 70.7375 240.03264Q70.7375 241.18889 70.06563 242.04826Q69.2375 243.07951 67.81563 243.07951Q66.64375 243.07951 65.89375 242.42326Q65.15938 241.76701 65.05 240.68889Z" fill-rule="nonzero"/><path fill="#000000" d="M62.01875 149.42778L60.971874 149.42778L60.971874 142.70903Q60.58125 143.0684 59.95625 143.4434Q59.346874 143.80278 58.8625 143.97466L58.8625 142.95903Q59.7375 142.53716 60.39375 141.95903Q61.065624 141.36528 61.346874 140.80278L62.01875 140.80278L62.01875 149.42778ZM65.05 145.1934Q65.05 143.66216 65.3625 142.74028Q65.675 141.80278 66.28438 141.30278Q66.90938 140.80278 67.84688 140.80278Q68.53438 140.80278 69.05 141.08403Q69.58125 141.36528 69.925 141.89653Q70.26875 142.41216 70.45625 143.16216Q70.64375 143.91216 70.64375 145.1934Q70.64375 146.70903 70.33125 147.6309Q70.03438 148.55278 69.40938 149.0684Q68.8 149.5684 67.84688 149.5684Q66.6125 149.5684 65.89375 148.67778Q65.05 147.61528 65.05 145.1934ZM66.12813 145.1934Q66.12813 147.30278 66.62813 148.0059Q67.12813 148.70903 67.84688 148.70903Q68.58125 148.70903 69.06563 148.0059Q69.56563 147.30278 69.56563 145.1934Q69.56563 143.0684 69.06563 142.3809Q68.58125 141.67778 67.83125 141.67778Q67.1125 141.67778 66.675 142.28716Q66.12813 143.0684 66.12813 145.1934Z" fill-rule="nonzero"/><path fill="#000000" d="M62.01875 55.916668L60.971874 55.916668L60.971874 49.197918Q60.58125 49.557293 59.95625 49.932293Q59.346874 50.291668 58.8625 50.463543L58.8625 49.447918Q59.7375 49.026043 60.39375 48.447918Q61.065624 47.854168 61.346874 47.291668L62.01875 47.291668L62.01875 55.916668ZM65.05 53.666668L66.15938 53.572918Q66.28438 54.385418 66.72188 54.791668Q67.175 55.197918 67.81563 55.197918Q68.56563 55.197918 69.09688 54.619793Q69.62813 54.041668 69.62813 53.104168Q69.62813 52.197918 69.1125 51.682293Q68.6125 51.151043 67.78438 51.151043Q67.28438 51.151043 66.8625 51.385418Q66.45625 51.619793 66.22188 51.979168L65.2375 51.854168L66.06563 47.447918L70.34688 47.447918L70.34688 48.447918L66.90938 48.447918L66.45625 50.760418Q67.22188 50.213543 68.06563 50.213543Q69.19063 50.213543 69.95625 50.994793Q70.7375 51.776043 70.7375 53.010418Q70.7375 54.166668 70.06563 55.026043Q69.2375 56.057293 67.81563 56.057293Q66.64375 56.057293 65.89375 55.401043Q65.15938 54.744793 65.05 53.666668Z" fill-rule="nonzero"/><path fill="#000000" d="M130.61638 349.45L130.61638 340.85626L133.85075 340.85626Q134.83513 340.85626 135.42888 341.1219Q136.02263 341.3875 136.35075 341.9344Q136.6945 342.46564 136.6945 343.0594Q136.6945 343.60626 136.39763 344.09064Q136.10075 344.575 135.49138 344.8719Q136.27263 345.10626 136.67888 345.66876Q137.10075 346.21564 137.10075 346.96564Q137.10075 347.5594 136.85075 348.09064Q136.60075 348.60626 136.22575 348.8875Q135.85075 349.16876 135.27263 349.3094Q134.71013 349.45 133.89763 349.45L130.61638 349.45ZM131.757 344.46564L133.61638 344.46564Q134.36638 344.46564 134.6945 344.3719Q135.132 344.2469 135.35075 343.95Q135.5695 343.6375 135.5695 343.1844Q135.5695 342.7625 135.36638 342.4344Q135.16325 342.10626 134.77263 341.9969Q134.39763 341.8719 133.47575 341.8719L131.757 341.8719L131.757 344.46564ZM131.757 348.4344L133.89763 348.4344Q134.4445 348.4344 134.66325 348.3875Q135.0695 348.325 135.3195 348.16876Q135.58513 347.9969 135.757 347.6844Q135.92888 347.3719 135.92888 346.96564Q135.92888 346.48126 135.67888 346.1219Q135.4445 345.7625 135.007 345.6219Q134.5695 345.48126 133.74138 345.48126L131.757 345.48126L131.757 348.4344ZM138.507 349.45L138.507 340.85626L139.5695 340.85626L139.5695 349.45L138.507 349.45ZM145.61638 349.45L145.61638 348.52814Q144.882 349.59064 143.632 349.59064Q143.08513 349.59064 142.60075 349.3875Q142.132 349.16876 141.89763 348.85626Q141.66325 348.52814 141.5695 348.0594Q141.507 347.7625 141.507 347.075L141.507 343.23126L142.5695 343.23126L142.5695 346.6844Q142.5695 347.4969 142.632 347.79376Q142.72575 348.2 143.03825 348.45Q143.36638 348.6844 143.85075 348.6844Q144.3195 348.6844 144.72575 348.45Q145.14763 348.2 145.3195 347.77814Q145.507 347.35626 145.507 346.5594L145.507 343.23126L146.55388 343.23126L146.55388 349.45L145.61638 349.45ZM152.78825 347.45L153.882 347.575Q153.632 348.52814 152.92888 349.0594Q152.22575 349.59064 151.14763 349.59064Q149.78825 349.59064 148.97575 348.7469Q148.17888 347.90314 148.17888 346.3875Q148.17888 344.825 148.99138 343.96564Q149.80388 343.09064 151.08513 343.09064Q152.33513 343.09064 153.11638 343.9344Q153.91325 344.77814 153.91325 346.325Q153.91325 346.41876 153.91325 346.60626L149.27263 346.60626Q149.33513 347.6375 149.85075 348.1844Q150.36638 348.71564 151.14763 348.71564Q151.72575 348.71564 152.132 348.41876Q152.55388 348.10626 152.78825 347.45ZM149.33513 345.7469L152.80388 345.7469Q152.74138 344.95 152.41325 344.5594Q151.89763 343.95 151.10075 343.95Q150.36638 343.95 149.86638 344.4344Q149.382 344.91876 149.33513 345.7469ZM157.83513 348.5125L157.99138 349.4344Q157.53825 349.52814 157.1945 349.52814Q156.61638 349.52814 156.30388 349.35626Q155.99138 349.16876 155.85075 348.8719Q155.72575 348.575 155.72575 347.6219L155.72575 344.04376L154.96013 344.04376L154.96013 343.23126L155.72575 343.23126L155.72575 341.6844L156.77263 341.0594L156.77263 343.23126L157.83513 343.23126L157.83513 344.04376L156.77263 344.04376L156.77263 347.6844Q156.77263 348.1375 156.8195 348.2625Q156.882 348.3875 157.007 348.46564Q157.132 348.54376 157.36638 348.54376Q157.55388 348.54376 157.83513 348.5125ZM158.14763 346.34064Q158.14763 344.60626 159.10075 343.77814Q159.89763 343.09064 161.05388 343.09064Q162.33513 343.09064 163.14763 343.9344Q163.97575 344.7625 163.97575 346.2469Q163.97575 347.45 163.61638 348.1375Q163.257 348.825 162.55388 349.21564Q161.86638 349.59064 161.05388 349.59064Q159.757 349.59064 158.9445 348.7625Q158.14763 347.91876 158.14763 346.34064ZM159.22575 346.34064Q159.22575 347.52814 159.74138 348.1219Q160.27263 348.71564 161.05388 348.71564Q161.85075 348.71564 162.36638 348.1219Q162.882 347.52814 162.882 346.3094Q162.882 345.15314 162.35075 344.5594Q161.83513 343.96564 161.05388 343.96564Q160.27263 343.96564 159.74138 344.5594Q159.22575 345.1375 159.22575 346.34064ZM165.14763 346.34064Q165.14763 344.60626 166.10075 343.77814Q166.89763 343.09064 168.05388 343.09064Q169.33513 343.09064 170.14763 343.9344Q170.97575 344.7625 170.97575 346.2469Q170.97575 347.45 170.61638 348.1375Q170.257 348.825 169.55388 349.21564Q168.86638 349.59064 168.05388 349.59064Q166.757 349.59064 165.9445 348.7625Q165.14763 347.91876 165.14763 346.34064ZM166.22575 346.34064Q166.22575 347.52814 166.74138 348.1219Q167.27263 348.71564 168.05388 348.71564Q168.85075 348.71564 169.36638 348.1219Q169.882 347.52814 169.882 346.3094Q169.882 345.15314 169.35075 344.5594Q168.83513 343.96564 168.05388 343.96564Q167.27263 343.96564 166.74138 344.5594Q166.22575 345.1375 166.22575 346.34064ZM174.83513 348.5125L174.99138 349.4344Q174.53825 349.52814 174.1945 349.52814Q173.61638 349.52814 173.30388 349.35626Q172.99138 349.16876 172.85075 348.8719Q172.72575 348.575 172.72575 347.6219L172.72575 344.04376L171.96013 344.04376L171.96013 343.23126L172.72575 343.23126L172.72575 341.6844L173.77263 341.0594L173.77263 343.23126L174.83513 343.23126L174.83513 344.04376L173.77263 344.04376L173.77263 347.6844Q173.77263 348.1375 173.8195 348.2625Q173.882 348.3875 174.007 348.46564Q174.132 348.54376 174.36638 348.54376Q174.55388 348.54376 174.83513 348.5125ZM175.53825 349.45L175.53825 340.85626L176.58513 340.85626L176.58513 343.9344Q177.3195 343.09064 178.4445 343.09064Q179.14763 343.09064 179.64763 343.3719Q180.16325 343.6375 180.382 344.1219Q180.60075 344.59064 180.60075 345.5125L180.60075 349.45L179.55388 349.45L179.55388 345.5125Q179.55388 344.71564 179.21013 344.35626Q178.86638 343.9969 178.24138 343.9969Q177.77263 343.9969 177.35075 344.2469Q176.9445 344.48126 176.757 344.90314Q176.58513 345.3094 176.58513 346.04376L176.58513 349.45L175.53825 349.45Z" fill-rule="nonzero"/><path fill="#000000" d="M264.0336 346.075L264.0336 345.075L267.6586 345.0594L267.6586 348.2469Q266.83047 348.91876 265.93985 349.2625Q265.04922 349.59064 264.11172 349.59064Q262.8461 349.59064 261.79922 349.0594Q260.76797 348.5125 260.23672 347.4969Q259.7211 346.46564 259.7211 345.2Q259.7211 343.9344 260.23672 342.85626Q260.76797 341.7625 261.75235 341.2469Q262.73672 340.71564 264.01797 340.71564Q264.95547 340.71564 265.70547 341.0125Q266.45547 341.3094 266.87735 341.85626Q267.31485 342.3875 267.5336 343.2625L266.51797 343.54376Q266.31485 342.8875 266.01797 342.5125Q265.73672 342.1375 265.20547 341.91876Q264.67422 341.6844 264.0336 341.6844Q263.25235 341.6844 262.67422 341.91876Q262.11172 342.15314 261.75235 342.54376Q261.4086 342.9344 261.2211 343.40314Q260.89297 344.2 260.89297 345.1219Q260.89297 346.27814 261.2836 347.0594Q261.68985 347.825 262.43985 348.2Q263.18985 348.575 264.04922 348.575Q264.7836 348.575 265.48672 348.29376Q266.18985 347.9969 266.54922 347.6844L266.54922 346.075L264.0336 346.075ZM269.00235 349.45L269.00235 340.85626L272.25235 340.85626Q273.0961 340.85626 273.54922 340.9344Q274.18985 341.04376 274.61172 341.34064Q275.04922 341.6375 275.29922 342.16876Q275.56485 342.7 275.56485 343.34064Q275.56485 344.4344 274.86172 345.2Q274.17422 345.95 272.3461 345.95L270.14297 345.95L270.14297 349.45L269.00235 349.45ZM270.14297 344.95L272.36172 344.95Q273.4711 344.95 273.92422 344.54376Q274.39297 344.1219 274.39297 343.3719Q274.39297 342.84064 274.11172 342.46564Q273.8461 342.075 273.4086 341.95Q273.11172 341.8719 272.3461 341.8719L270.14297 341.8719L270.14297 344.95ZM276.62735 346.6844L277.68985 346.59064Q277.76797 347.2469 278.04922 347.65314Q278.33047 348.0594 278.9086 348.325Q279.50235 348.575 280.23672 348.575Q280.87735 348.575 281.37735 348.3875Q281.87735 348.1844 282.11172 347.85626Q282.36172 347.5125 282.36172 347.1219Q282.36172 346.71564 282.12735 346.41876Q281.89297 346.10626 281.36172 345.90314Q281.00235 345.7625 279.81485 345.48126Q278.64297 345.2 278.17422 344.95Q277.54922 344.6219 277.25235 344.15314Q276.95547 343.66876 276.95547 343.075Q276.95547 342.4344 277.31485 341.8719Q277.68985 341.29376 278.39297 341.0125Q279.11172 340.71564 279.9711 340.71564Q280.92422 340.71564 281.6586 341.02814Q282.39297 341.325 282.7836 341.9344Q283.17422 342.52814 283.20547 343.27814L282.11172 343.35626Q282.01797 342.54376 281.50235 342.1375Q281.00235 341.71564 280.01797 341.71564Q278.98672 341.71564 278.51797 342.09064Q278.04922 342.46564 278.04922 342.9969Q278.04922 343.46564 278.37735 343.7625Q278.70547 344.0594 280.08047 344.3719Q281.4711 344.6844 281.98672 344.91876Q282.73672 345.27814 283.0961 345.8094Q283.45547 346.325 283.45547 347.02814Q283.45547 347.71564 283.06485 348.325Q282.67422 348.91876 281.93985 349.2625Q281.20547 349.59064 280.2836 349.59064Q279.11172 349.59064 278.31485 349.2625Q277.5336 348.91876 277.08047 348.23126Q276.64297 347.54376 276.62735 346.6844Z" fill-rule="nonzero"/><path fill="#000000" d="M346.29453 349.45L346.29453 340.85626L349.5289 340.85626Q350.51328 340.85626 351.10703 341.1219Q351.70078 341.3875 352.0289 341.9344Q352.37265 342.46564 352.37265 343.0594Q352.37265 343.60626 352.07578 344.09064Q351.7789 344.575 351.16953 344.8719Q351.95078 345.10626 352.35703 345.66876Q352.7789 346.21564 352.7789 346.96564Q352.7789 347.5594 352.5289 348.09064Q352.2789 348.60626 351.9039 348.8875Q351.5289 349.16876 350.95078 349.3094Q350.38828 349.45 349.57578 349.45L346.29453 349.45ZM347.43515 344.46564L349.29453 344.46564Q350.04453 344.46564 350.37265 344.3719Q350.81015 344.2469 351.0289 343.95Q351.24765 343.6375 351.24765 343.1844Q351.24765 342.7625 351.04453 342.4344Q350.8414 342.10626 350.45078 341.9969Q350.07578 341.8719 349.1539 341.8719L347.43515 341.8719L347.43515 344.46564ZM347.43515 348.4344L349.57578 348.4344Q350.12265 348.4344 350.3414 348.3875Q350.74765 348.325 350.99765 348.16876Q351.26328 347.9969 351.43515 347.6844Q351.60703 347.3719 351.60703 346.96564Q351.60703 346.48126 351.35703 346.1219Q351.12265 345.7625 350.68515 345.6219Q350.24765 345.48126 349.41953 345.48126L347.43515 345.48126L347.43515 348.4344ZM354.18515 349.45L354.18515 340.85626L355.24765 340.85626L355.24765 349.45L354.18515 349.45ZM361.29453 349.45L361.29453 348.52814Q360.56015 349.59064 359.31015 349.59064Q358.76328 349.59064 358.2789 349.3875Q357.81015 349.16876 357.57578 348.85626Q357.3414 348.52814 357.24765 348.0594Q357.18515 347.7625 357.18515 347.075L357.18515 343.23126L358.24765 343.23126L358.24765 346.6844Q358.24765 347.4969 358.31015 347.79376Q358.4039 348.2 358.7164 348.45Q359.04453 348.6844 359.5289 348.6844Q359.99765 348.6844 360.4039 348.45Q360.82578 348.2 360.99765 347.77814Q361.18515 347.35626 361.18515 346.5594L361.18515 343.23126L362.23203 343.23126L362.23203 349.45L361.29453 349.45ZM368.4664 347.45L369.56015 347.575Q369.31015 348.52814 368.60703 349.0594Q367.9039 349.59064 366.82578 349.59064Q365.4664 349.59064 364.6539 348.7469Q363.85703 347.90314 363.85703 346.3875Q363.85703 344.825 364.66953 343.96564Q365.48203 343.09064 366.76328 343.09064Q368.01328 343.09064 368.79453 343.9344Q369.5914 344.77814 369.5914 346.325Q369.5914 346.41876 369.5914 346.60626L364.95078 346.60626Q365.01328 347.6375 365.5289 348.1844Q366.04453 348.71564 366.82578 348.71564Q367.4039 348.71564 367.81015 348.41876Q368.23203 348.10626 368.4664 347.45ZM365.01328 345.7469L368.48203 345.7469Q368.41953 344.95 368.0914 344.5594Q367.57578 343.95 366.7789 343.95Q366.04453 343.95 365.54453 344.4344Q365.06015 344.91876 365.01328 345.7469ZM373.51328 348.5125L373.66953 349.4344Q373.2164 349.52814 372.87265 349.52814Q372.29453 349.52814 371.98203 349.35626Q371.66953 349.16876 371.5289 348.8719Q371.4039 348.575 371.4039 347.6219L371.4039 344.04376L370.63828 344.04376L370.63828 343.23126L371.4039 343.23126L371.4039 341.6844L372.45078 341.0594L372.45078 343.23126L373.51328 343.23126L373.51328 344.04376L372.45078 344.04376L372.45078 347.6844Q372.45078 348.1375 372.49765 348.2625Q372.56015 348.3875 372.68515 348.46564Q372.81015 348.54376 373.04453 348.54376Q373.23203 348.54376 373.51328 348.5125ZM373.82578 346.34064Q373.82578 344.60626 374.7789 343.77814Q375.57578 343.09064 376.73203 343.09064Q378.01328 343.09064 378.82578 343.9344Q379.6539 344.7625 379.6539 346.2469Q379.6539 347.45 379.29453 348.1375Q378.93515 348.825 378.23203 349.21564Q377.54453 349.59064 376.73203 349.59064Q375.43515 349.59064 374.62265 348.7625Q373.82578 347.91876 373.82578 346.34064ZM374.9039 346.34064Q374.9039 347.52814 375.41953 348.1219Q375.95078 348.71564 376.73203 348.71564Q377.5289 348.71564 378.04453 348.1219Q378.56015 347.52814 378.56015 346.3094Q378.56015 345.15314 378.0289 344.5594Q377.51328 343.96564 376.73203 343.96564Q375.95078 343.96564 375.41953 344.5594Q374.9039 345.1375 374.9039 346.34064ZM380.82578 346.34064Q380.82578 344.60626 381.7789 343.77814Q382.57578 343.09064 383.73203 343.09064Q385.01328 343.09064 385.82578 343.9344Q386.6539 344.7625 386.6539 346.2469Q386.6539 347.45 386.29453 348.1375Q385.93515 348.825 385.23203 349.21564Q384.54453 349.59064 383.73203 349.59064Q382.43515 349.59064 381.62265 348.7625Q380.82578 347.91876 380.82578 346.34064ZM381.9039 346.34064Q381.9039 347.52814 382.41953 348.1219Q382.95078 348.71564 383.73203 348.71564Q384.5289 348.71564 385.04453 348.1219Q385.56015 347.52814 385.56015 346.3094Q385.56015 345.15314 385.0289 344.5594Q384.51328 343.96564 383.73203 343.96564Q382.95078 343.96564 382.41953 344.5594Q381.9039 345.1375 381.9039 346.34064ZM390.51328 348.5125L390.66953 349.4344Q390.2164 349.52814 389.87265 349.52814Q389.29453 349.52814 388.98203 349.35626Q388.66953 349.16876 388.5289 348.8719Q388.4039 348.575 388.4039 347.6219L388.4039 344.04376L387.63828 344.04376L387.63828 343.23126L388.4039 343.23126L388.4039 341.6844L389.45078 341.0594L389.45078 343.23126L390.51328 343.23126L390.51328 344.04376L389.45078 344.04376L389.45078 347.6844Q389.45078 348.1375 389.49765 348.2625Q389.56015 348.3875 389.68515 348.46564Q389.81015 348.54376 390.04453 348.54376Q390.23203 348.54376 390.51328 348.5125ZM391.2164 349.45L391.2164 340.85626L392.26328 340.85626L392.26328 343.9344Q392.99765 343.09064 394.12265 343.09064Q394.82578 343.09064 395.32578 343.3719Q395.8414 343.6375 396.06015 344.1219Q396.2789 344.59064 396.2789 345.5125L396.2789 349.45L395.23203 349.45L395.23203 345.5125Q395.23203 344.71564 394.88828 344.35626Q394.54453 343.9969 393.91953 343.9969Q393.45078 343.9969 393.0289 344.2469Q392.62265 344.48126 392.43515 344.90314Q392.26328 345.3094 392.26328 346.04376L392.26328 349.45L391.2164 349.45ZM400.41953 348.0594L400.41953 345.7L398.0914 345.7L398.0914 344.71564L400.41953 344.71564L400.41953 342.3875L401.41953 342.3875L401.41953 344.71564L403.76328 344.71564L403.76328 345.7L401.41953 345.7L401.41953 348.0594L400.41953 348.0594ZM409.37265 346.075L409.37265 345.075L412.99765 345.0594L412.99765 348.2469Q412.16953 348.91876 411.2789 349.2625Q410.38828 349.59064 409.45078 349.59064Q408.18515 349.59064 407.13828 349.0594Q406.10703 348.5125 405.57578 347.4969Q405.06015 346.46564 405.06015 345.2Q405.06015 343.9344 405.57578 342.85626Q406.10703 341.7625 407.0914 341.2469Q408.07578 340.71564 409.35703 340.71564Q410.29453 340.71564 411.04453 341.0125Q411.79453 341.3094 412.2164 341.85626Q412.6539 342.3875 412.87265 343.2625L411.85703 343.54376Q411.6539 342.8875 411.35703 342.5125Q411.07578 342.1375 410.54453 341.91876Q410.01328 341.6844 409.37265 341.6844Q408.5914 341.6844 408.01328 341.91876Q407.45078 342.15314 407.0914 342.54376Q406.74765 342.9344 406.56015 343.40314Q406.23203 344.2 406.23203 345.1219Q406.23203 346.27814 406.62265 347.0594Q407.0289 347.825 407.7789 348.2Q408.5289 348.575 409.38828 348.575Q410.12265 348.575 410.82578 348.29376Q411.5289 347.9969 411.88828 347.6844L411.88828 346.075L409.37265 346.075ZM414.3414 349.45L414.3414 340.85626L417.5914 340.85626Q418.43515 340.85626 418.88828 340.9344Q419.5289 341.04376 419.95078 341.34064Q420.38828 341.6375 420.63828 342.16876Q420.9039 342.7 420.9039 343.34064Q420.9039 344.4344 420.20078 345.2Q419.51328 345.95 417.68515 345.95L415.48203 345.95L415.48203 349.45L414.3414 349.45ZM415.48203 344.95L417.70078 344.95Q418.81015 344.95 419.26328 344.54376Q419.73203 344.1219 419.73203 343.3719Q419.73203 342.84064 419.45078 342.46564Q419.18515 342.075 418.74765 341.95Q418.45078 341.8719 417.68515 341.8719L415.48203 341.8719L415.48203 344.95ZM421.9664 346.6844L423.0289 346.59064Q423.10703 347.2469 423.38828 347.65314Q423.66953 348.0594 424.24765 348.325Q424.8414 348.575 425.57578 348.575Q426.2164 348.575 426.7164 348.3875Q427.2164 348.1844 427.45078 347.85626Q427.70078 347.5125 427.70078 347.1219Q427.70078 346.71564 427.4664 346.41876Q427.23203 346.10626 426.70078 345.90314Q426.3414 345.7625 425.1539 345.48126Q423.98203 345.2 423.51328 344.95Q422.88828 344.6219 422.5914 344.15314Q422.29453 343.66876 422.29453 343.075Q422.29453 342.4344 422.6539 341.8719Q423.0289 341.29376 423.73203 341.0125Q424.45078 340.71564 425.31015 340.71564Q426.26328 340.71564 426.99765 341.02814Q427.73203 341.325 428.12265 341.9344Q428.51328 342.52814 428.54453 343.27814L427.45078 343.35626Q427.35703 342.54376 426.8414 342.1375Q426.3414 341.71564 425.35703 341.71564Q424.32578 341.71564 423.85703 342.09064Q423.38828 342.46564 423.38828 342.9969Q423.38828 343.46564 423.7164 343.7625Q424.04453 344.0594 425.41953 344.3719Q426.81015 344.6844 427.32578 344.91876Q428.07578 345.27814 428.43515 345.8094Q428.79453 346.325 428.79453 347.02814Q428.79453 347.71564 428.4039 348.325Q428.01328 348.91876 427.2789 349.2625Q426.54453 349.59064 425.62265 349.59064Q424.45078 349.59064 423.6539 349.2625Q422.87265 348.91876 422.41953 348.23126Q421.98203 347.54376 421.9664 346.6844Z" fill-rule="nonzero"/><path fill="#000000" d="M494.18048 349.45L494.18048 340.85626L495.33673 340.85626L499.85236 347.60626L499.85236 340.85626L500.9461 340.85626L500.9461 349.45L499.77423 349.45L495.2586 342.7L495.2586 349.45L494.18048 349.45ZM502.2586 349.59064L504.74298 340.71564L505.58673 340.71564L503.10236 349.59064L502.2586 349.59064ZM505.24298 349.45L508.53986 340.85626L509.7586 340.85626L513.27423 349.45L511.99298 349.45L510.97736 346.84064L507.39923 346.84064L506.4461 349.45L505.24298 349.45ZM507.72736 345.91876L510.6336 345.91876L509.74298 343.54376Q509.3211 342.46564 509.1336 341.7625Q508.96173 342.59064 508.66486 343.40314L507.72736 345.91876Z" fill-rule="nonzero"/><path fill="#a4c2f4" d="M202.0 20.55C202.0 19.997715 202.44771 19.55 203.0 19.55L213.0 19.55C213.55229 19.55 214.0 19.997715 214.0 20.55L214.0 30.55C214.0 31.102285 213.55229 31.55 213.0 31.55L203.0 31.55C202.44771 31.55 202.0 31.102285 202.0 30.55Z" fill-rule="nonzero"/><path fill="#000000" d="M226.95312 26.175L226.95312 25.175L230.57812 25.159374L230.57812 28.346874Q229.75 29.01875 228.85938 29.3625Q227.96875 29.690624 227.03125 29.690624Q225.76562 29.690624 224.71875 29.159374Q223.6875 28.6125 223.15625 27.596874Q222.64062 26.565624 222.64062 25.3Q222.64062 24.034374 223.15625 22.95625Q223.6875 21.8625 224.67188 21.346874Q225.65625 20.815624 226.9375 20.815624Q227.875 20.815624 228.625 21.1125Q229.375 21.409374 229.79688 21.95625Q230.23438 22.4875 230.45312 23.3625L229.4375 23.64375Q229.23438 22.9875 228.9375 22.6125Q228.65625 22.2375 228.125 22.01875Q227.59375 21.784374 226.95312 21.784374Q226.17188 21.784374 225.59375 22.01875Q225.03125 22.253124 224.67188 22.64375Q224.32812 23.034374 224.14062 23.503124Q223.8125 24.3 223.8125 25.221874Q223.8125 26.378124 224.20312 27.159374Q224.60938 27.925 225.35938 28.3Q226.10938 28.675 226.96875 28.675Q227.70312 28.675 228.40625 28.39375Q229.10938 28.096874 229.46875 27.784374L229.46875 26.175L226.95312 26.175ZM231.76562 29.55L231.76562 20.95625L232.82812 20.95625L232.82812 29.55L231.76562 29.55ZM234.40625 26.440624Q234.40625 24.70625 235.35938 23.878124Q236.15625 23.190624 237.3125 23.190624Q238.59375 23.190624 239.40625 24.034374Q240.23438 24.8625 240.23438 26.346874Q240.23438 27.55 239.875 28.2375Q239.51562 28.925 238.8125 29.315624Q238.125 29.690624 237.3125 29.690624Q236.01562 29.690624 235.20312 28.8625Q234.40625 28.01875 234.40625 26.440624ZM235.48438 26.440624Q235.48438 27.628124 236.0 28.221874Q236.53125 28.815624 237.3125 28.815624Q238.10938 28.815624 238.625 28.221874Q239.14062 27.628124 239.14062 26.409374Q239.14062 25.253124 238.60938 24.659374Q238.09375 24.065624 237.3125 24.065624Q236.53125 24.065624 236.0 24.659374Q235.48438 25.2375 235.48438 26.440624ZM242.76562 29.55L241.78125 29.55L241.78125 20.95625L242.84375 20.95625L242.84375 24.01875Q243.51562 23.190624 244.54688 23.190624Q245.125 23.190624 245.625 23.425Q246.14062 23.64375 246.46875 24.065624Q246.8125 24.4875 247.0 25.08125Q247.1875 25.675 247.1875 26.346874Q247.1875 27.940624 246.39062 28.815624Q245.59375 29.690624 244.5 29.690624Q243.39062 29.690624 242.76562 28.76875L242.76562 29.55ZM242.75 26.39375Q242.75 27.503124 243.0625 28.003124Q243.5625 28.815624 244.40625 28.815624Q245.09375 28.815624 245.59375 28.221874Q246.10938 27.628124 246.10938 26.425Q246.10938 25.20625 245.625 24.628124Q245.14062 24.05 244.45312 24.05Q243.76562 24.05 243.25 24.659374Q242.75 25.253124 242.75 26.39375ZM252.85938 28.784374Q252.26562 29.284374 251.71875 29.4875Q251.1875 29.690624 250.5625 29.690624Q249.53125 29.690624 248.98438 29.190624Q248.4375 28.690624 248.4375 27.909374Q248.4375 27.45625 248.64062 27.08125Q248.84375 26.690624 249.1875 26.471874Q249.53125 26.2375 249.95312 26.128124Q250.25 26.034374 250.89062 25.95625Q252.15625 25.815624 252.76562 25.596874Q252.76562 25.378124 252.76562 25.33125Q252.76562 24.675 252.46875 24.409374Q252.0625 24.065624 251.26562 24.065624Q250.53125 24.065624 250.17188 24.33125Q249.8125 24.58125 249.64062 25.2375L248.60938 25.096874Q248.75 24.440624 249.07812 24.034374Q249.40625 23.628124 250.01562 23.409374Q250.625 23.190624 251.42188 23.190624Q252.21875 23.190624 252.71875 23.378124Q253.21875 23.565624 253.45312 23.846874Q253.6875 24.128124 253.78125 24.565624Q253.82812 24.83125 253.82812 25.534374L253.82812 26.940624Q253.82812 28.409374 253.89062 28.8Q253.96875 29.190624 254.17188 29.55L253.0625 29.55Q252.90625 29.221874 252.85938 28.784374ZM252.76562 26.425Q252.1875 26.659374 251.04688 26.83125Q250.39062 26.925 250.125 27.05Q249.85938 27.159374 249.70312 27.378124Q249.5625 27.596874 249.5625 27.878124Q249.5625 28.3 249.875 28.58125Q250.20312 28.8625 250.8125 28.8625Q251.42188 28.8625 251.89062 28.596874Q252.375 28.33125 252.59375 27.8625Q252.76562 27.503124 252.76562 26.815624L252.76562 26.425ZM255.76562 29.55L255.76562 20.95625L256.82812 20.95625L256.82812 29.55L255.76562 29.55ZM261.92188 29.55L261.92188 20.95625L263.07812 20.95625L267.59375 27.70625L267.59375 20.95625L268.6875 20.95625L268.6875 29.55L267.51562 29.55L263.0 22.8L263.0 29.55L261.92188 29.55ZM270.40625 26.440624Q270.40625 24.70625 271.35938 23.878124Q272.15625 23.190624 273.3125 23.190624Q274.59375 23.190624 275.40625 24.034374Q276.23438 24.8625 276.23438 26.346874Q276.23438 27.55 275.875 28.2375Q275.51562 28.925 274.8125 29.315624Q274.125 29.690624 273.3125 29.690624Q272.01562 29.690624 271.20312 28.8625Q270.40625 28.01875 270.40625 26.440624ZM271.48438 26.440624Q271.48438 27.628124 272.0 28.221874Q272.53125 28.815624 273.3125 28.815624Q274.10938 28.815624 274.625 28.221874Q275.14062 27.628124 275.14062 26.409374Q275.14062 25.253124 274.60938 24.659374Q274.09375 24.065624 273.3125 24.065624Q272.53125 24.065624 272.0 24.659374Q271.48438 25.2375 271.48438 26.440624ZM277.78125 29.55L277.78125 23.33125L278.73438 23.33125L278.73438 24.26875Q279.09375 23.6125 279.39062 23.409374Q279.70312 23.190624 280.07812 23.190624Q280.60938 23.190624 281.15625 23.51875L280.79688 24.503124Q280.40625 24.26875 280.03125 24.26875Q279.67188 24.26875 279.39062 24.4875Q279.125 24.690624 279.01562 25.065624Q278.82812 25.628124 278.82812 26.284374L278.82812 29.55L277.78125 29.55ZM284.09375 28.6125L284.25 29.534374Q283.79688 29.628124 283.45312 29.628124Q282.875 29.628124 282.5625 29.45625Q282.25 29.26875 282.10938 28.971874Q281.98438 28.675 281.98438 27.721874L281.98438 24.14375L281.21875 24.14375L281.21875 23.33125L281.98438 23.33125L281.98438 21.784374L283.03125 21.159374L283.03125 23.33125L284.09375 23.33125L284.09375 24.14375L283.03125 24.14375L283.03125 27.784374Q283.03125 28.2375 283.07812 28.3625Q283.14062 28.4875 283.26562 28.565624Q283.39062 28.64375 283.625 28.64375Q283.8125 28.64375 284.09375 28.6125ZM284.79688 29.55L284.79688 20.95625L285.84375 20.95625L285.84375 24.034374Q286.57812 23.190624 287.70312 23.190624Q288.40625 23.190624 288.90625 23.471874Q289.42188 23.7375 289.64062 24.221874Q289.85938 24.690624 289.85938 25.6125L289.85938 29.55L288.8125 29.55L288.8125 25.6125Q288.8125 24.815624 288.46875 24.45625Q288.125 24.096874 287.5 24.096874Q287.03125 24.096874 286.60938 24.346874Q286.20312 24.58125 286.01562 25.003124Q285.84375 25.409374 285.84375 26.14375L285.84375 29.55L284.79688 29.55Z" fill-rule="nonzero"/><path fill="#ffd966" d="M307.0 20.55C307.0 19.997715 307.44772 19.55 308.0 19.55L318.0 19.55C318.55228 19.55 319.0 19.997715 319.0 20.55L319.0 30.55C319.0 31.102285 318.55228 31.55 318.0 31.55L308.0 31.55C307.44772 31.55 307.0 31.102285 307.0 30.55Z" fill-rule="nonzero"/><path fill="#000000" d="M331.95312 26.175L331.95312 25.175L335.57812 25.159374L335.57812 28.346874Q334.75 29.01875 333.85938 29.3625Q332.96875 29.690624 332.03125 29.690624Q330.76562 29.690624 329.71875 29.159374Q328.6875 28.6125 328.15625 27.596874Q327.64062 26.565624 327.64062 25.3Q327.64062 24.034374 328.15625 22.95625Q328.6875 21.8625 329.67188 21.346874Q330.65625 20.815624 331.9375 20.815624Q332.875 20.815624 333.625 21.1125Q334.375 21.409374 334.79688 21.95625Q335.23438 22.4875 335.45312 23.3625L334.4375 23.64375Q334.23438 22.9875 333.9375 22.6125Q333.65625 22.2375 333.125 22.01875Q332.59375 21.784374 331.95312 21.784374Q331.17188 21.784374 330.59375 22.01875Q330.03125 22.253124 329.67188 22.64375Q329.32812 23.034374 329.14062 23.503124Q328.8125 24.3 328.8125 25.221874Q328.8125 26.378124 329.20312 27.159374Q329.60938 27.925 330.35938 28.3Q331.10938 28.675 331.96875 28.675Q332.70312 28.675 333.40625 28.39375Q334.10938 28.096874 334.46875 27.784374L334.46875 26.175L331.95312 26.175ZM336.76562 29.55L336.76562 20.95625L337.82812 20.95625L337.82812 29.55L336.76562 29.55ZM339.40625 26.440624Q339.40625 24.70625 340.35938 23.878124Q341.15625 23.190624 342.3125 23.190624Q343.59375 23.190624 344.40625 24.034374Q345.23438 24.8625 345.23438 26.346874Q345.23438 27.55 344.875 28.2375Q344.51562 28.925 343.8125 29.315624Q343.125 29.690624 342.3125 29.690624Q341.01562 29.690624 340.20312 28.8625Q339.40625 28.01875 339.40625 26.440624ZM340.48438 26.440624Q340.48438 27.628124 341.0 28.221874Q341.53125 28.815624 342.3125 28.815624Q343.10938 28.815624 343.625 28.221874Q344.14062 27.628124 344.14062 26.409374Q344.14062 25.253124 343.60938 24.659374Q343.09375 24.065624 342.3125 24.065624Q341.53125 24.065624 341.0 24.659374Q340.48438 25.2375 340.48438 26.440624ZM347.76562 29.55L346.78125 29.55L346.78125 20.95625L347.84375 20.95625L347.84375 24.01875Q348.51562 23.190624 349.54688 23.190624Q350.125 23.190624 350.625 23.425Q351.14062 23.64375 351.46875 24.065624Q351.8125 24.4875 352.0 25.08125Q352.1875 25.675 352.1875 26.346874Q352.1875 27.940624 351.39062 28.815624Q350.59375 29.690624 349.5 29.690624Q348.39062 29.690624 347.76562 28.76875L347.76562 29.55ZM347.75 26.39375Q347.75 27.503124 348.0625 28.003124Q348.5625 28.815624 349.40625 28.815624Q350.09375 28.815624 350.59375 28.221874Q351.10938 27.628124 351.10938 26.425Q351.10938 25.20625 350.625 24.628124Q350.14062 24.05 349.45312 24.05Q348.76562 24.05 348.25 24.659374Q347.75 25.253124 347.75 26.39375ZM357.85938 28.784374Q357.26562 29.284374 356.71875 29.4875Q356.1875 29.690624 355.5625 29.690624Q354.53125 29.690624 353.98438 29.190624Q353.4375 28.690624 353.4375 27.909374Q353.4375 27.45625 353.64062 27.08125Q353.84375 26.690624 354.1875 26.471874Q354.53125 26.2375 354.95312 26.128124Q355.25 26.034374 355.89062 25.95625Q357.15625 25.815624 357.76562 25.596874Q357.76562 25.378124 357.76562 25.33125Q357.76562 24.675 357.46875 24.409374Q357.0625 24.065624 356.26562 24.065624Q355.53125 24.065624 355.17188 24.33125Q354.8125 24.58125 354.64062 25.2375L353.60938 25.096874Q353.75 24.440624 354.07812 24.034374Q354.40625 23.628124 355.01562 23.409374Q355.625 23.190624 356.42188 23.190624Q357.21875 23.190624 357.71875 23.378124Q358.21875 23.565624 358.45312 23.846874Q358.6875 24.128124 358.78125 24.565624Q358.82812 24.83125 358.82812 25.534374L358.82812 26.940624Q358.82812 28.409374 358.89062 28.8Q358.96875 29.190624 359.17188 29.55L358.0625 29.55Q357.90625 29.221874 357.85938 28.784374ZM357.76562 26.425Q357.1875 26.659374 356.04688 26.83125Q355.39062 26.925 355.125 27.05Q354.85938 27.159374 354.70312 27.378124Q354.5625 27.596874 354.5625 27.878124Q354.5625 28.3 354.875 28.58125Q355.20312 28.8625 355.8125 28.8625Q356.42188 28.8625 356.89062 28.596874Q357.375 28.33125 357.59375 27.8625Q357.76562 27.503124 357.76562 26.815624L357.76562 26.425ZM360.76562 29.55L360.76562 20.95625L361.82812 20.95625L361.82812 29.55L360.76562 29.55ZM366.54688 26.784374L367.60938 26.690624Q367.6875 27.346874 367.96875 27.753124Q368.25 28.159374 368.82812 28.425Q369.42188 28.675 370.15625 28.675Q370.79688 28.675 371.29688 28.4875Q371.79688 28.284374 372.03125 27.95625Q372.28125 27.6125 372.28125 27.221874Q372.28125 26.815624 372.04688 26.51875Q371.8125 26.20625 371.28125 26.003124Q370.92188 25.8625 369.73438 25.58125Q368.5625 25.3 368.09375 25.05Q367.46875 24.721874 367.17188 24.253124Q366.875 23.76875 366.875 23.175Q366.875 22.534374 367.23438 21.971874Q367.60938 21.39375 368.3125 21.1125Q369.03125 20.815624 369.89062 20.815624Q370.84375 20.815624 371.57812 21.128124Q372.3125 21.425 372.70312 22.034374Q373.09375 22.628124 373.125 23.378124L372.03125 23.45625Q371.9375 22.64375 371.42188 22.2375Q370.92188 21.815624 369.9375 21.815624Q368.90625 21.815624 368.4375 22.190624Q367.96875 22.565624 367.96875 23.096874Q367.96875 23.565624 368.29688 23.8625Q368.625 24.159374 370.0 24.471874Q371.39062 24.784374 371.90625 25.01875Q372.65625 25.378124 373.01562 25.909374Q373.375 26.425 373.375 27.128124Q373.375 27.815624 372.98438 28.425Q372.59375 29.01875 371.85938 29.3625Q371.125 29.690624 370.20312 29.690624Q369.03125 29.690624 368.23438 29.3625Q367.45312 29.01875 367.0 28.33125Q366.5625 27.64375 366.54688 26.784374ZM374.40625 26.440624Q374.40625 24.70625 375.35938 23.878124Q376.15625 23.190624 377.3125 23.190624Q378.59375 23.190624 379.40625 24.034374Q380.23438 24.8625 380.23438 26.346874Q380.23438 27.55 379.875 28.2375Q379.51562 28.925 378.8125 29.315624Q378.125 29.690624 377.3125 29.690624Q376.01562 29.690624 375.20312 28.8625Q374.40625 28.01875 374.40625 26.440624ZM375.48438 26.440624Q375.48438 27.628124 376.0 28.221874Q376.53125 28.815624 377.3125 28.815624Q378.10938 28.815624 378.625 28.221874Q379.14062 27.628124 379.14062 26.409374Q379.14062 25.253124 378.60938 24.659374Q378.09375 24.065624 377.3125 24.065624Q376.53125 24.065624 376.0 24.659374Q375.48438 25.2375 375.48438 26.440624ZM385.875 29.55L385.875 28.628124Q385.14062 29.690624 383.89062 29.690624Q383.34375 29.690624 382.85938 29.4875Q382.39062 29.26875 382.15625 28.95625Q381.92188 28.628124 381.82812 28.159374Q381.76562 27.8625 381.76562 27.175L381.76562 23.33125L382.82812 23.33125L382.82812 26.784374Q382.82812 27.596874 382.89062 27.89375Q382.98438 28.3 383.29688 28.55Q383.625 28.784374 384.10938 28.784374Q384.57812 28.784374 384.98438 28.55Q385.40625 28.3 385.57812 27.878124Q385.76562 27.45625 385.76562 26.659374L385.76562 23.33125L386.8125 23.33125L386.8125 29.55L385.875 29.55ZM391.09375 28.6125L391.25 29.534374Q390.79688 29.628124 390.45312 29.628124Q389.875 29.628124 389.5625 29.45625Q389.25 29.26875 389.10938 28.971874Q388.98438 28.675 388.98438 27.721874L388.98438 24.14375L388.21875 24.14375L388.21875 23.33125L388.98438 23.33125L388.98438 21.784374L390.03125 21.159374L390.03125 23.33125L391.09375 23.33125L391.09375 24.14375L390.03125 24.14375L390.03125 27.784374Q390.03125 28.2375 390.07812 28.3625Q390.14062 28.4875 390.26562 28.565624Q390.39062 28.64375 390.625 28.64375Q390.8125 28.64375 391.09375 28.6125ZM391.79688 29.55L391.79688 20.95625L392.84375 20.95625L392.84375 24.034374Q393.57812 23.190624 394.70312 23.190624Q395.40625 23.190624 395.90625 23.471874Q396.42188 23.7375 396.64062 24.221874Q396.85938 24.690624 396.85938 25.6125L396.85938 29.55L395.8125 29.55L395.8125 25.6125Q395.8125 24.815624 395.46875 24.45625Q395.125 24.096874 394.5 24.096874Q394.03125 24.096874 393.60938 24.346874Q393.20312 24.58125 393.01562 25.003124Q392.84375 25.409374 392.84375 26.14375L392.84375 29.55L391.79688 29.55Z" fill-rule="nonzero"/></svg>