<svg version="1.1" viewBox="0.0 0.0 600.0 371.0" fill="none" stroke="none" stroke-linecap="square" stroke-miterlimit="10" width="600" height="371" xmlns:xlink="http://www.w3.org/1999/xlink" xmlns="http://www.w3.org/2000/svg"><path fill="#ffffff" d="M0 0L600.0 0L600.0 371.0L0 371.0L0 0Z" fill-rule="nonzero"/><path stroke="#333333" stroke-width="1.0" stroke-linecap="butt" d="M95.5 44.5L95.5 300.5" fill-rule="nonzero"/><path stroke="#000000" stroke-width="1.0" stroke-linecap="butt" d="M192.5 44.5L192.5 300.5" fill-rule="nonzero"/><path stroke="#000000" stroke-width="1.0" stroke-linecap="butt" d="M289.5 44.5L289.5 300.5" fill-rule="nonzero"/><path stroke="#000000" stroke-width="1.0" stroke-linecap="butt" d="M387.5 44.5L387.5 300.5" fill-rule="nonzero"/><path stroke="#000000" stroke-width="1.0" stroke-linecap="butt" d="M484.5 44.5L484.5 300.5" fill-rule="nonzero"/><path stroke="#000000" stroke-width="1.0" stroke-linecap="butt" d="M581.5 44.5L581.5 300.5" fill-rule="nonzero"/><clipPath id="id_0"><path d="M95.55 44.916668L581.45 44.916668L581.45 300.45L95.55 300.45L95.55 44.916668Z" clip-rule="nonzero"/></clipPath><path stroke="#000000" stroke-width="0.0" stroke-linecap="butt" stroke-opacity="0.0" clip-path="url(#id_0)" d="M96.0 154.0L96.0 83.0L232.0 83.0L232.0 154.0Z" fill-rule="nonzero"/><path fill="#a4c2f4" clip-path="url(#id_0)" d="M96.0 154.0L96.0 83.0L232.0 83.0L232.0 154.0Z" fill-rule="nonzero"/><path stroke="#000000" stroke-width="0.0" stroke-linecap="butt" stroke-opacity="0.0" clip-path="url(#id_0)" d="M96.0 263.0L96.0 192.0L134.0 192.0L134.0 263.0Z" fill-rule="nonzero"/><path fill="#a4c2f4" clip-path="url(#id_0)" d="M96.0 263.0L96.0 192.0L134.0 192.0L134.0 263.0Z" fill-rule="nonzero"/><path stroke="#000000" stroke-width="0.0" stroke-linecap="butt" stroke-opacity="0.0" clip-path="url(#id_0)" d="M232.0 154.0L232.0 83.0L465.0 83.0L465.0 154.0Z" fill-rule="nonzero"/><path fill="#ea9999" clip-path="url(#id_0)" d="M232.0 154.0L232.0 83.0L465.0 83.0L465.0 154.0Z" fill-rule="nonzero"/><path stroke="#000000" stroke-width="0.0" stroke-linecap="butt" stroke-opacity="0.0" clip-path="url(#id_0)" d="M134.0 263.0L134.0 192.0L387.0 192.0L387.0 263.0Z" fill-rule="nonzero"/><path fill="#ea9999" clip-path="url(#id_0)" d="M134.0 263.0L134.0 192.0L387.0 192.0L387.0 263.0Z" fill-rule="nonzero"/><path stroke="#000000" stroke-width="0.0" stroke-linecap="butt" stroke-opacity="0.0" clip-path="url(#id_0)" d="M465.0 154.0L465.0 83.0L523.0 83.0L523.0 154.0Z" fill-rule="nonzero"/><path fill="#ffe599" clip-path="url(#id_0)" d="M465.0 154.0L465.0 83.0L523.0 83.0L523.0 154.0Z" fill-rule="nonzero"/><path stroke="#000000" stroke-width="0.0" stroke-linecap="butt" stroke-opacity="0.0" clip-path="url(#id_0)" d="M387.0 263.0L387.0 192.0L387.0 192.0L387.0 263.0Z" fill-rule="nonzero"/><path fill="#ffe599" clip-path="url(#id_0)" d="M387.0 263.0L387.0 192.0L387.0 192.0L387.0 263.0Z" fill-rule="nonzero"/><path stroke="#000000" stroke-width="0.0" stroke-linecap="butt" stroke-opacity="0.0" clip-path="url(#id_0)" d="M523.0 154.0L523.0 83.0L541.0 83.0C542.10455 83.0 543.0 83.89543 543.0 85.0L543.0 152.0C543.0 153.10457 542.10455 154.0 541.0 154.0Z" fill-rule="nonzero"/><path fill="#b6d7a8" clip-path="url(#id_0)" d="M523.0 154.0L523.0 83.0L541.0 83.0C542.10455 83.0 543.0 83.89543 543.0 85.0L543.0 152.0C543.0 153.10457 542.10455 154.0 541.0 154.0Z" fill-rule="nonzero"/><path stroke="#000000" stroke-width="0.0" stroke-linecap="butt" stroke-opacity="0.0" clip-path="url(#id_0)" d="M387.0 263.0L387.0 192.0L387.0 192.0L387.0 263.0Z" fill-rule="nonzero"/><path fill="#b6d7a8" clip-path="url(#id_0)" d="M387.0 263.0L387.0 192.0L387.0 192.0L387.0 263.0Z" fill-rule="nonzero"/><path fill="#000000" d="M295.92188 349.45L295.92188 340.85626L297.07812 340.85626L301.59375 347.60626L301.59375 340.85626L302.6875 340.85626L302.6875 349.45L301.51562 349.45L297.0 342.7L297.0 349.45L295.92188 349.45ZM308.875 349.45L308.875 348.52814Q308.14062 349.59064 306.89062 349.59064Q306.34375 349.59064 305.85938 349.3875Q305.39062 349.16876 305.15625 348.85626Q304.92188 348.52814 304.82812 348.0594Q304.76562 347.7625 304.76562 347.075L304.76562 343.23126L305.82812 343.23126L305.82812 346.6844Q305.82812 347.4969 305.89062 347.79376Q305.98438 348.2 306.29688 348.45Q306.625 348.6844 307.10938 348.6844Q307.57812 348.6844 307.98438 348.45Q308.40625 348.2 308.57812 347.77814Q308.76562 347.35626 308.76562 346.5594L308.76562 343.23126L309.8125 343.23126L309.8125 349.45L308.875 349.45ZM311.79688 349.45L311.79688 343.23126L312.73438 343.23126L312.73438 344.10626Q313.03125 343.6375 313.51562 343.3719Q314.0 343.09064 314.625 343.09064Q315.3125 343.09064 315.75 343.3719Q316.20312 343.65314 316.375 344.16876Q317.125 343.09064 318.29688 343.09064Q319.23438 343.09064 319.71875 343.60626Q320.21875 344.10626 320.21875 345.1844L320.21875 349.45L319.17188 349.45L319.17188 345.52814Q319.17188 344.90314 319.0625 344.6219Q318.96875 344.34064 318.70312 344.16876Q318.4375 343.9969 318.0625 343.9969Q317.40625 343.9969 316.96875 344.4344Q316.54688 344.8719 316.54688 345.84064L316.54688 349.45L315.48438 349.45L315.48438 345.40314Q315.48438 344.7 315.21875 344.35626Q314.96875 343.9969 314.39062 343.9969Q313.9375 343.9969 313.5625 344.23126Q313.1875 344.46564 313.01562 344.91876Q312.84375 345.3719 312.84375 346.21564L312.84375 349.45L311.79688 349.45ZM322.76562 349.45L321.78125 349.45L321.78125 340.85626L322.84375 340.85626L322.84375 343.91876Q323.51562 343.09064 324.54688 343.09064Q325.125 343.09064 325.625 343.325Q326.14062 343.54376 326.46875 343.96564Q326.8125 344.3875 327.0 344.98126Q327.1875 345.575 327.1875 346.2469Q327.1875 347.84064 326.39062 348.71564Q325.59375 349.59064 324.5 349.59064Q323.39062 349.59064 322.76562 348.66876L322.76562 349.45ZM322.75 346.29376Q322.75 347.40314 323.0625 347.90314Q323.5625 348.71564 324.40625 348.71564Q325.09375 348.71564 325.59375 348.1219Q326.10938 347.52814 326.10938 346.325Q326.10938 345.10626 325.625 344.52814Q325.14062 343.95 324.45312 343.95Q323.76562 343.95 323.25 344.5594Q322.75 345.15314 322.75 346.29376ZM333.04688 347.45L334.14062 347.575Q333.89062 348.52814 333.1875 349.0594Q332.48438 349.59064 331.40625 349.59064Q330.04688 349.59064 329.23438 348.7469Q328.4375 347.90314 328.4375 346.3875Q328.4375 344.825 329.25 343.96564Q330.0625 343.09064 331.34375 343.09064Q332.59375 343.09064 333.375 343.9344Q334.17188 344.77814 334.17188 346.325Q334.17188 346.41876 334.17188 346.60626L329.53125 346.60626Q329.59375 347.6375 330.10938 348.1844Q330.625 348.71564 331.40625 348.71564Q331.98438 348.71564 332.39062 348.41876Q332.8125 348.10626 333.04688 347.45ZM329.59375 345.7469L333.0625 345.7469Q333.0 344.95 332.67188 344.5594Q332.15625 343.95 331.35938 343.95Q330.625 343.95 330.125 344.4344Q329.64062 344.91876 329.59375 345.7469ZM335.78125 349.45L335.78125 343.23126L336.73438 343.23126L336.73438 344.16876Q337.09375 343.5125 337.39062 343.3094Q337.70312 343.09064 338.07812 343.09064Q338.60938 343.09064 339.15625 343.41876L338.79688 344.40314Q338.40625 344.16876 338.03125 344.16876Q337.67188 344.16876 337.39062 344.3875Q337.125 344.59064 337.01562 344.96564Q336.82812 345.52814 336.82812 346.1844L336.82812 349.45L335.78125 349.45ZM342.40625 346.34064Q342.40625 344.60626 343.35938 343.77814Q344.15625 343.09064 345.3125 343.09064Q346.59375 343.09064 347.40625 343.9344Q348.23438 344.7625 348.23438 346.2469Q348.23438 347.45 347.875 348.1375Q347.51562 348.825 346.8125 349.21564Q346.125 349.59064 345.3125 349.59064Q344.01562 349.59064 343.20312 348.7625Q342.40625 347.91876 342.40625 346.34064ZM343.48438 346.34064Q343.48438 347.52814 344.0 348.1219Q344.53125 348.71564 345.3125 348.71564Q346.10938 348.71564 346.625 348.1219Q347.14062 347.52814 347.14062 346.3094Q347.14062 345.15314 346.60938 344.5594Q346.09375 343.96564 345.3125 343.96564Q344.53125 343.96564 344.0 344.5594Q343.48438 345.1375 343.48438 346.34064ZM350.04688 349.45L350.04688 344.04376L349.10938 344.04376L349.10938 343.23126L350.04688 343.23126L350.04688 342.5594Q350.04688 341.9344 350.15625 341.6375Q350.3125 341.21564 350.6875 340.96564Q351.07812 340.71564 351.76562 340.71564Q352.21875 340.71564 352.75 340.825L352.59375 341.73126Q352.26562 341.6844 351.96875 341.6844Q351.48438 341.6844 351.28125 341.8875Q351.09375 342.09064 351.09375 342.65314L351.09375 343.23126L352.3125 343.23126L352.3125 344.04376L351.09375 344.04376L351.09375 349.45L350.04688 349.45ZM359.85938 348.6844Q359.26562 349.1844 358.71875 349.3875Q358.1875 349.59064 357.5625 349.59064Q356.53125 349.59064 355.98438 349.09064Q355.4375 348.59064 355.4375 347.8094Q355.4375 347.35626 355.64062 346.98126Q355.84375 346.59064 356.1875 346.3719Q356.53125 346.1375 356.95312 346.02814Q357.25 345.9344 357.89062 345.85626Q359.15625 345.71564 359.76562 345.4969Q359.76562 345.27814 359.76562 345.23126Q359.76562 344.575 359.46875 344.3094Q359.0625 343.96564 358.26562 343.96564Q357.53125 343.96564 357.17188 344.23126Q356.8125 344.48126 356.64062 345.1375L355.60938 344.9969Q355.75 344.34064 356.07812 343.9344Q356.40625 343.52814 357.01562 343.3094Q357.625 343.09064 358.42188 343.09064Q359.21875 343.09064 359.71875 343.27814Q360.21875 343.46564 360.45312 343.7469Q360.6875 344.02814 360.78125 344.46564Q360.82812 344.73126 360.82812 345.4344L360.82812 346.84064Q360.82812 348.3094 360.89062 348.7Q360.96875 349.09064 361.17188 349.45L360.0625 349.45Q359.90625 349.1219 359.85938 348.6844ZM359.76562 346.325Q359.1875 346.5594 358.04688 346.73126Q357.39062 346.825 357.125 346.95Q356.85938 347.0594 356.70312 347.27814Q356.5625 347.4969 356.5625 347.77814Q356.5625 348.2 356.875 348.48126Q357.20312 348.7625 357.8125 348.7625Q358.42188 348.7625 358.89062 348.4969Q359.375 348.23126 359.59375 347.7625Q359.76562 347.40314 359.76562 346.71564L359.76562 346.325ZM362.79688 351.84064L362.79688 343.23126L363.75 343.23126L363.75 344.02814Q364.09375 343.5594 364.51562 343.325Q364.95312 343.09064 365.5625 343.09064Q366.35938 343.09064 366.96875 343.4969Q367.57812 343.90314 367.875 344.65314Q368.1875 345.40314 368.1875 346.29376Q368.1875 347.2469 367.84375 348.0125Q367.51562 348.77814 366.85938 349.1844Q366.20312 349.59064 365.48438 349.59064Q364.95312 349.59064 364.53125 349.3719Q364.10938 349.1375 363.84375 348.8094L363.84375 351.84064L362.79688 351.84064ZM363.75 346.3719Q363.75 347.575 364.23438 348.15314Q364.71875 348.71564 365.40625 348.71564Q366.10938 348.71564 366.60938 348.1219Q367.10938 347.52814 367.10938 346.27814Q367.10938 345.09064 366.625 344.5125Q366.14062 343.91876 365.45312 343.91876Q364.78125 343.91876 364.26562 344.54376Q363.75 345.16876 363.75 346.3719ZM369.79688 351.84064L369.79688 343.23126L370.75 343.23126L370.75 344.02814Q371.09375 343.5594 371.51562 343.325Q371.95312 343.09064 372.5625 343.09064Q373.35938 343.09064 373.96875 343.4969Q374.57812 343.90314 374.875 344.65314Q375.1875 345.40314 375.1875 346.29376Q375.1875 347.2469 374.84375 348.0125Q374.51562 348.77814 373.85938 349.1844Q373.20312 349.59064 372.48438 349.59064Q371.95312 349.59064 371.53125 349.3719Q371.10938 349.1375 370.84375 348.8094L370.84375 351.84064L369.79688 351.84064ZM370.75 346.3719Q370.75 347.575 371.23438 348.15314Q371.71875 348.71564 372.40625 348.71564Q373.10938 348.71564 373.60938 348.1219Q374.10938 347.52814 374.10938 346.27814Q374.10938 345.09064 373.625 344.5125Q373.14062 343.91876 372.45312 343.91876Q371.78125 343.91876 371.26562 344.54376Q370.75 345.16876 370.75 346.3719ZM376.375 347.59064L377.40625 347.4344Q377.5 348.0594 377.89062 348.3875Q378.29688 348.71564 379.03125 348.71564Q379.75 348.71564 380.09375 348.4344Q380.45312 348.1375 380.45312 347.73126Q380.45312 347.3719 380.14062 347.16876Q379.92188 347.02814 379.0625 346.8094Q377.90625 346.5125 377.45312 346.3094Q377.01562 346.09064 376.78125 345.71564Q376.54688 345.34064 376.54688 344.8719Q376.54688 344.46564 376.73438 344.10626Q376.92188 343.7469 377.25 343.5125Q377.5 343.34064 377.92188 343.21564Q378.34375 343.09064 378.84375 343.09064Q379.5625 343.09064 380.10938 343.3094Q380.67188 343.5125 380.9375 343.8719Q381.20312 344.23126 381.29688 344.825L380.26562 344.96564Q380.20312 344.4969 379.85938 344.23126Q379.53125 343.95 378.90625 343.95Q378.1875 343.95 377.875 344.2Q377.5625 344.4344 377.5625 344.7625Q377.5625 344.96564 377.6875 345.1219Q377.82812 345.29376 378.09375 345.40314Q378.25 345.46564 379.03125 345.66876Q380.15625 345.98126 380.59375 346.16876Q381.03125 346.35626 381.28125 346.71564Q381.53125 347.075 381.53125 347.6219Q381.53125 348.15314 381.21875 348.6219Q380.92188 349.075 380.34375 349.34064Q379.76562 349.59064 379.03125 349.59064Q377.8125 349.59064 377.17188 349.09064Q376.54688 348.575 376.375 347.59064Z" fill-rule="nonzero"/><path fill="#000000" d="M25.503124 118.93954L25.503124 117.93954L29.128124 117.92391L29.128124 121.11141Q28.3 121.78329 27.409374 122.12704Q26.51875 122.45516 25.58125 122.45516Q24.315624 122.45516 23.26875 121.92391Q22.2375 121.37704 21.70625 120.36141Q21.190624 119.33016 21.190624 118.06454Q21.190624 116.79891 21.70625 115.72079Q22.2375 114.62704 23.221874 114.11141Q24.20625 113.58016 25.4875 113.58016Q26.425 113.58016 27.175 113.87704Q27.925 114.17391 28.346874 114.72079Q28.784374 115.25204 29.003124 116.12704L27.9875 116.40829Q27.784374 115.75204 27.4875 115.37704Q27.20625 115.00204 26.675 114.78329Q26.14375 114.54891 25.503124 114.54891Q24.721874 114.54891 24.14375 114.78329Q23.58125 115.01766 23.221874 115.40829Q22.878124 115.79891 22.690624 116.26766Q22.3625 117.06454 22.3625 117.98641Q22.3625 119.14266 22.753124 119.92391Q23.159374 120.68954 23.909374 121.06454Q24.659374 121.43954 25.51875 121.43954Q26.253124 121.43954 26.95625 121.15829Q27.659374 120.86141 28.01875 120.54891L28.01875 118.93954L25.503124 118.93954ZM30.315624 122.31454L30.315624 113.72079L31.378124 113.72079L31.378124 122.31454L30.315624 122.31454ZM32.95625 119.20516Q32.95625 117.47079 33.909374 116.64266Q34.70625 115.95516 35.8625 115.95516Q37.14375 115.95516 37.95625 116.79891Q38.784374 117.62704 38.784374 119.11141Q38.784374 120.31454 38.425 121.00204Q38.065624 121.68954 37.3625 122.08016Q36.675 122.45516 35.8625 122.45516Q34.565624 122.45516 33.753124 121.62704Q32.95625 120.78329 32.95625 119.20516ZM34.034374 119.20516Q34.034374 120.39266 34.55 120.98641Q35.08125 121.58016 35.8625 121.58016Q36.659374 121.58016 37.175 120.98641Q37.690624 120.39266 37.690624 119.17391Q37.690624 118.01766 37.159374 117.42391Q36.64375 116.83016 35.8625 116.83016Q35.08125 116.83016 34.55 117.42391Q34.034374 118.00204 34.034374 119.20516ZM41.315624 122.31454L40.33125 122.31454L40.33125 113.72079L41.39375 113.72079L41.39375 116.78329Q42.065624 115.95516 43.096874 115.95516Q43.675 115.95516 44.175 116.18954Q44.690624 116.40829 45.01875 116.83016Q45.3625 117.25204 45.55 117.84579Q45.7375 118.43954 45.7375 119.11141Q45.7375 120.70516 44.940624 121.58016Q44.14375 122.45516 43.05 122.45516Q41.940624 122.45516 41.315624 121.53329L41.315624 122.31454ZM41.3 119.15829Q41.3 120.26766 41.6125 120.76766Q42.1125 121.58016 42.95625 121.58016Q43.64375 121.58016 44.14375 120.98641Q44.659374 120.39266 44.659374 119.18954Q44.659374 117.97079 44.175 117.39266Q43.690624 116.81454 43.003124 116.81454Q42.315624 116.81454 41.8 117.42391Q41.3 118.01766 41.3 119.15829ZM51.409374 121.54891Q50.815624 122.04891 50.26875 122.25204Q49.7375 122.45516 49.1125 122.45516Q48.08125 122.45516 47.534374 121.95516Q46.9875 121.45516 46.9875 120.67391Q46.9875 120.22079 47.190624 119.84579Q47.39375 119.45516 47.7375 119.23641Q48.08125 119.00204 48.503124 118.89266Q48.8 118.79891 49.440624 118.72079Q50.70625 118.58016 51.315624 118.36141Q51.315624 118.14266 51.315624 118.09579Q51.315624 117.43954 51.01875 117.17391Q50.6125 116.83016 49.815624 116.83016Q49.08125 116.83016 48.721874 117.09579Q48.3625 117.34579 48.190624 118.00204L47.159374 117.86141Q47.3 117.20516 47.628124 116.79891Q47.95625 116.39266 48.565624 116.17391Q49.175 115.95516 49.971874 115.95516Q50.76875 115.95516 51.26875 116.14266Q51.76875 116.33016 52.003124 116.61141Q52.2375 116.89266 52.33125 117.33016Q52.378124 117.59579 52.378124 118.29891L52.378124 119.70516Q52.378124 121.17391 52.440624 121.56454Q52.51875 121.95516 52.721874 122.31454L51.6125 122.31454Q51.45625 121.98641 51.409374 121.54891ZM51.315624 119.18954Q50.7375 119.42391 49.596874 119.59579Q48.940624 119.68954 48.675 119.81454Q48.409374 119.92391 48.253124 120.14266Q48.1125 120.36141 48.1125 120.64266Q48.1125 121.06454 48.425 121.34579Q48.753124 121.62704 49.3625 121.62704Q49.971874 121.62704 50.440624 121.36141Q50.925 121.09579 51.14375 120.62704Q51.315624 120.26766 51.315624 119.58016L51.315624 119.18954ZM54.315624 122.31454L54.315624 113.72079L55.378124 113.72079L55.378124 122.31454L54.315624 122.31454ZM60.471874 122.31454L60.471874 113.72079L61.628124 113.72079L66.14375 120.47079L66.14375 113.72079L67.2375 113.72079L67.2375 122.31454L66.06563 122.31454L61.55 115.56454L61.55 122.31454L60.471874 122.31454ZM68.95625 119.20516Q68.95625 117.47079 69.90938 116.64266Q70.70625 115.95516 71.8625 115.95516Q73.14375 115.95516 73.95625 116.79891Q74.78438 117.62704 74.78438 119.11141Q74.78438 120.31454 74.425 121.00204Q74.06563 121.68954 73.3625 122.08016Q72.675 122.45516 71.8625 122.45516Q70.56563 122.45516 69.75313 121.62704Q68.95625 120.78329 68.95625 119.20516ZM70.03438 119.20516Q70.03438 120.39266 70.55 120.98641Q71.08125 121.58016 71.8625 121.58016Q72.65938 121.58016 73.175 120.98641Q73.69063 120.39266 73.69063 119.17391Q73.69063 118.01766 73.15938 117.42391Q72.64375 116.83016 71.8625 116.83016Q71.08125 116.83016 70.55 117.42391Q70.03438 118.00204 70.03438 119.20516ZM76.33125 122.31454L76.33125 116.09579L77.28438 116.09579L77.28438 117.03329Q77.64375 116.37704 77.94063 116.17391Q78.25313 115.95516 78.62813 115.95516Q79.15938 115.95516 79.70625 116.28329L79.34688 117.26766Q78.95625 117.03329 78.58125 117.03329Q78.22188 117.03329 77.94063 117.25204Q77.675 117.45516 77.56563 117.83016Q77.37813 118.39266 77.37813 119.04891L77.37813 122.31454L76.33125 122.31454ZM82.64375 121.37704L82.8 122.29891Q82.34688 122.39266 82.00313 122.39266Q81.425 122.39266 81.1125 122.22079Q80.8 122.03329 80.65938 121.73641Q80.53438 121.43954 80.53438 120.48641L80.53438 116.90829L79.76875 116.90829L79.76875 116.09579L80.53438 116.09579L80.53438 114.54891L81.58125 113.92391L81.58125 116.09579L82.64375 116.09579L82.64375 116.90829L81.58125 116.90829L81.58125 120.54891Q81.58125 121.00204 81.62813 121.12704Q81.69063 121.25204 81.81563 121.33016Q81.94063 121.40829 82.175 121.40829Q82.3625 121.40829 82.64375 121.37704ZM83.34688 122.31454L83.34688 113.72079L84.39375 113.72079L84.39375 116.79891Q85.12813 115.95516 86.25313 115.95516Q86.95625 115.95516 87.45625 116.23641Q87.97188 116.50204 88.19063 116.98641Q88.40938 117.45516 88.40938 118.37704L88.40938 122.31454L87.3625 122.31454L87.3625 118.37704Q87.3625 117.58016 87.01875 117.22079Q86.675 116.86141 86.05 116.86141Q85.58125 116.86141 85.15938 117.11141Q84.75313 117.34579 84.56563 117.76766Q84.39375 118.17391 84.39375 118.90829L84.39375 122.31454L83.34688 122.31454Z" fill-rule="nonzero"/><path fill="#000000" d="M23.503124 227.67712L23.503124 226.67712L27.128124 226.6615L27.128124 229.849Q26.3 230.52087 25.409374 230.86462Q24.51875 231.19275 23.58125 231.19275Q22.315624 231.19275 21.26875 230.6615Q20.2375 230.11462 19.70625 229.099Q19.190624 228.06775 19.190624 226.80212Q19.190624 225.5365 19.70625 224.45837Q20.2375 223.36462 21.221874 222.849Q22.20625 222.31775 23.4875 222.31775Q24.425 222.31775 25.175 222.61462Q25.925 222.9115 26.346874 223.45837Q26.784374 223.98962 27.003124 224.86462L25.9875 225.14587Q25.784374 224.48962 25.4875 224.11462Q25.20625 223.73962 24.675 223.52087Q24.14375 223.2865 23.503124 223.2865Q22.721874 223.2865 22.14375 223.52087Q21.58125 223.75525 21.221874 224.14587Q20.878124 224.5365 20.690624 225.00525Q20.3625 225.80212 20.3625 226.724Q20.3625 227.88025 20.753124 228.6615Q21.159374 229.42712 21.909374 229.80212Q22.659374 230.17712 23.51875 230.17712Q24.253124 230.17712 24.95625 229.89587Q25.659374 229.599 26.01875 229.2865L26.01875 227.67712L23.503124 227.67712ZM28.315624 231.05212L28.315624 222.45837L29.378124 222.45837L29.378124 231.05212L28.315624 231.05212ZM30.95625 227.94275Q30.95625 226.20837 31.909374 225.38025Q32.70625 224.69275 33.8625 224.69275Q35.14375 224.69275 35.95625 225.5365Q36.784374 226.36462 36.784374 227.849Q36.784374 229.05212 36.425 229.73962Q36.065624 230.42712 35.3625 230.81775Q34.675 231.19275 33.8625 231.19275Q32.565624 231.19275 31.753124 230.36462Q30.95625 229.52087 30.95625 227.94275ZM32.034374 227.94275Q32.034374 229.13025 32.55 229.724Q33.08125 230.31775 33.8625 230.31775Q34.659374 230.31775 35.175 229.724Q35.690624 229.13025 35.690624 227.9115Q35.690624 226.75525 35.159374 226.1615Q34.64375 225.56775 33.8625 225.56775Q33.08125 225.56775 32.55 226.1615Q32.034374 226.73962 32.034374 227.94275ZM39.315624 231.05212L38.33125 231.05212L38.33125 222.45837L39.39375 222.45837L39.39375 225.52087Q40.065624 224.69275 41.096874 224.69275Q41.675 224.69275 42.175 224.92712Q42.690624 225.14587 43.01875 225.56775Q43.3625 225.98962 43.55 226.58337Q43.7375 227.17712 43.7375 227.849Q43.7375 229.44275 42.940624 230.31775Q42.14375 231.19275 41.05 231.19275Q39.940624 231.19275 39.315624 230.27087L39.315624 231.05212ZM39.3 227.89587Q39.3 229.00525 39.6125 229.50525Q40.1125 230.31775 40.95625 230.31775Q41.64375 230.31775 42.14375 229.724Q42.659374 229.13025 42.659374 227.92712Q42.659374 226.70837 42.175 226.13025Q41.690624 225.55212 41.003124 225.55212Q40.315624 225.55212 39.8 226.1615Q39.3 226.75525 39.3 227.89587ZM49.409374 230.2865Q48.815624 230.7865 48.26875 230.98962Q47.7375 231.19275 47.1125 231.19275Q46.08125 231.19275 45.534374 230.69275Q44.9875 230.19275 44.9875 229.4115Q44.9875 228.95837 45.190624 228.58337Q45.39375 228.19275 45.7375 227.974Q46.08125 227.73962 46.503124 227.63025Q46.8 227.5365 47.440624 227.45837Q48.70625 227.31775 49.315624 227.099Q49.315624 226.88025 49.315624 226.83337Q49.315624 226.17712 49.01875 225.9115Q48.6125 225.56775 47.815624 225.56775Q47.08125 225.56775 46.721874 225.83337Q46.3625 226.08337 46.190624 226.73962L45.159374 226.599Q45.3 225.94275 45.628124 225.5365Q45.95625 225.13025 46.565624 224.9115Q47.175 224.69275 47.971874 224.69275Q48.76875 224.69275 49.26875 224.88025Q49.76875 225.06775 50.003124 225.349Q50.2375 225.63025 50.33125 226.06775Q50.378124 226.33337 50.378124 227.0365L50.378124 228.44275Q50.378124 229.9115 50.440624 230.30212Q50.51875 230.69275 50.721874 231.05212L49.6125 231.05212Q49.45625 230.724 49.409374 230.2865ZM49.315624 227.92712Q48.7375 228.1615 47.596874 228.33337Q46.940624 228.42712 46.675 228.55212Q46.409374 228.6615 46.253124 228.88025Q46.1125 229.099 46.1125 229.38025Q46.1125 229.80212 46.425 230.08337Q46.753124 230.36462 47.3625 230.36462Q47.971874 230.36462 48.440624 230.099Q48.925 229.83337 49.14375 229.36462Q49.315624 229.00525 49.315624 228.31775L49.315624 227.92712ZM52.315624 231.05212L52.315624 222.45837L53.378124 222.45837L53.378124 231.05212L52.315624 231.05212ZM58.096874 228.2865L59.159374 228.19275Q59.2375 228.849 59.51875 229.25525Q59.8 229.6615 60.378124 229.92712Q60.971874 230.17712 61.70625 230.17712Q62.346874 230.17712 62.846874 229.98962Q63.346874 229.7865 63.58125 229.45837Q63.83125 229.11462 63.83125 228.724Q63.83125 228.31775 63.596874 228.02087Q63.3625 227.70837 62.83125 227.50525Q62.471874 227.36462 61.284374 227.08337Q60.1125 226.80212 59.64375 226.55212Q59.01875 226.224 58.721874 225.75525Q58.425 225.27087 58.425 224.67712Q58.425 224.0365 58.784374 223.474Q59.159374 222.89587 59.8625 222.61462Q60.58125 222.31775 61.440624 222.31775Q62.39375 222.31775 63.128124 222.63025Q63.8625 222.92712 64.25313 223.5365Q64.64375 224.13025 64.675 224.88025L63.58125 224.95837Q63.4875 224.14587 62.971874 223.73962Q62.471874 223.31775 61.4875 223.31775Q60.45625 223.31775 59.9875 223.69275Q59.51875 224.06775 59.51875 224.599Q59.51875 225.06775 59.846874 225.36462Q60.175 225.6615 61.55 225.974Q62.940624 226.2865 63.45625 226.52087Q64.20625 226.88025 64.56563 227.4115Q64.925 227.92712 64.925 228.63025Q64.925 229.31775 64.53438 229.92712Q64.14375 230.52087 63.409374 230.86462Q62.675 231.19275 61.753124 231.19275Q60.58125 231.19275 59.784374 230.86462Q59.003124 230.52087 58.55 229.83337Q58.1125 229.14587 58.096874 228.2865ZM65.95625 227.94275Q65.95625 226.20837 66.90938 225.38025Q67.70625 224.69275 68.8625 224.69275Q70.14375 224.69275 70.95625 225.5365Q71.78438 226.36462 71.78438 227.849Q71.78438 229.05212 71.425 229.73962Q71.06563 230.42712 70.3625 230.81775Q69.675 231.19275 68.8625 231.19275Q67.56563 231.19275 66.75313 230.36462Q65.95625 229.52087 65.95625 227.94275ZM67.03438 227.94275Q67.03438 229.13025 67.55 229.724Q68.08125 230.31775 68.8625 230.31775Q69.65938 230.31775 70.175 229.724Q70.69063 229.13025 70.69063 227.9115Q70.69063 226.75525 70.15938 226.1615Q69.64375 225.56775 68.8625 225.56775Q68.08125 225.56775 67.55 226.1615Q67.03438 226.73962 67.03438 227.94275ZM77.425 231.05212L77.425 230.13025Q76.69063 231.19275 75.44063 231.19275Q74.89375 231.19275 74.40938 230.98962Q73.94063 230.77087 73.70625 230.45837Q73.47188 230.13025 73.37813 229.6615Q73.31563 229.36462 73.31563 228.67712L73.31563 224.83337L74.37813 224.83337L74.37813 228.2865Q74.37813 229.099 74.44063 229.39587Q74.53438 229.80212 74.84688 230.05212Q75.175 230.2865 75.65938 230.2865Q76.12813 230.2865 76.53438 230.05212Q76.95625 229.80212 77.12813 229.38025Q77.31563 228.95837 77.31563 228.1615L77.31563 224.83337L78.3625 224.83337L78.3625 231.05212L77.425 231.05212ZM82.64375 230.11462L82.8 231.0365Q82.34688 231.13025 82.00313 231.13025Q81.425 231.13025 81.1125 230.95837Q80.8 230.77087 80.65938 230.474Q80.53438 230.17712 80.53438 229.224L80.53438 225.64587L79.76875 225.64587L79.76875 224.83337L80.53438 224.83337L80.53438 223.2865L81.58125 222.6615L81.58125 224.83337L82.64375 224.83337L82.64375 225.64587L81.58125 225.64587L81.58125 229.2865Q81.58125 229.73962 81.62813 229.86462Q81.69063 229.98962 81.81563 230.06775Q81.94063 230.14587 82.175 230.14587Q82.3625 230.14587 82.64375 230.11462ZM83.34688 231.05212L83.34688 222.45837L84.39375 222.45837L84.39375 225.5365Q85.12813 224.69275 86.25313 224.69275Q86.95625 224.69275 87.45625 224.974Q87.97188 225.23962 88.19063 225.724Q88.40938 226.19275 88.40938 227.11462L88.40938 231.05212L87.3625 231.05212L87.3625 227.11462Q87.3625 226.31775 87.01875 225.95837Q86.675 225.599 86.05 225.599Q85.58125 225.599 85.15938 225.849Q84.75313 226.08337 84.56563 226.50525Q84.39375 226.9115 84.39375 227.64587L84.39375 231.05212L83.34688 231.05212Z" fill-rule="nonzero"/><path fill="#000000" d="M92.55 313.21564Q92.55 311.6844 92.8625 310.7625Q93.175 309.825 93.78438 309.325Q94.40938 308.825 95.34688 308.825Q96.03438 308.825 96.55 309.10626Q97.08125 309.3875 97.425 309.91876Q97.76875 310.4344 97.95625 311.1844Q98.14375 311.9344 98.14375 313.21564Q98.14375 314.73126 97.83125 315.65314Q97.53438 316.575 96.90938 317.09064Q96.3 317.59064 95.34688 317.59064Q94.1125 317.59064 93.39375 316.7Q92.55 315.6375 92.55 313.21564ZM93.62813 313.21564Q93.62813 315.325 94.12813 316.02814Q94.62813 316.73126 95.34688 316.73126Q96.08125 316.73126 96.56563 316.02814Q97.06563 315.325 97.06563 313.21564Q97.06563 311.09064 96.56563 310.40314Q96.08125 309.7 95.33125 309.7Q94.6125 309.7 94.175 310.3094Q93.62813 311.09064 93.62813 313.21564Z" fill-rule="nonzero"/><path fill="#000000" d="M189.73 315.2L190.83937 315.10626Q190.96437 315.91876 191.40187 316.325Q191.855 316.73126 192.49562 316.73126Q193.24562 316.73126 193.77687 316.15314Q194.30812 315.575 194.30812 314.6375Q194.30812 313.73126 193.7925 313.21564Q193.2925 312.6844 192.46437 312.6844Q191.96437 312.6844 191.5425 312.91876Q191.13625 313.15314 190.90187 313.5125L189.9175 313.3875L190.74562 308.98126L195.02687 308.98126L195.02687 309.98126L191.58937 309.98126L191.13625 312.29376Q191.90187 311.7469 192.74562 311.7469Q193.87062 311.7469 194.63625 312.52814Q195.4175 313.3094 195.4175 314.54376Q195.4175 315.7 194.74562 316.5594Q193.9175 317.59064 192.49562 317.59064Q191.32375 317.59064 190.57375 316.9344Q189.83937 316.27814 189.73 315.2Z" fill-rule="nonzero"/><path fill="#000000" d="M287.37875 317.45L286.33188 317.45L286.33188 310.73126Q285.94125 311.09064 285.31625 311.46564Q284.70688 311.825 284.2225 311.9969L284.2225 310.98126Q285.0975 310.5594 285.75375 309.98126Q286.42563 309.3875 286.70688 308.825L287.37875 308.825L287.37875 317.45ZM290.41 313.21564Q290.41 311.6844 290.7225 310.7625Q291.035 309.825 291.64438 309.325Q292.26938 308.825 293.20688 308.825Q293.89438 308.825 294.41 309.10626Q294.94125 309.3875 295.285 309.91876Q295.62875 310.4344 295.81625 311.1844Q296.00375 311.9344 296.00375 313.21564Q296.00375 314.73126 295.69125 315.65314Q295.39438 316.575 294.76938 317.09064Q294.16 317.59064 293.20688 317.59064Q291.9725 317.59064 291.25375 316.7Q290.41 315.6375 290.41 313.21564ZM291.48813 313.21564Q291.48813 315.325 291.98813 316.02814Q292.48813 316.73126 293.20688 316.73126Q293.94125 316.73126 294.42563 316.02814Q294.92563 315.325 294.92563 313.21564Q294.92563 311.09064 294.42563 310.40314Q293.94125 309.7 293.19125 309.7Q292.4725 309.7 292.035 310.3094Q291.48813 311.09064 291.48813 313.21564Z" fill-rule="nonzero"/><path fill="#000000" d="M384.55875 317.45L383.51187 317.45L383.51187 310.73126Q383.12125 311.09064 382.49625 311.46564Q381.88687 311.825 381.4025 311.9969L381.4025 310.98126Q382.2775 310.5594 382.93375 309.98126Q383.60562 309.3875 383.88687 308.825L384.55875 308.825L384.55875 317.45ZM387.59 315.2L388.69937 315.10626Q388.82437 315.91876 389.26187 316.325Q389.715 316.73126 390.35562 316.73126Q391.10562 316.73126 391.63687 316.15314Q392.16812 315.575 392.16812 314.6375Q392.16812 313.73126 391.6525 313.21564Q391.1525 312.6844 390.32437 312.6844Q389.82437 312.6844 389.4025 312.91876Q388.99625 313.15314 388.76187 313.5125L387.7775 313.3875L388.60562 308.98126L392.88687 308.98126L392.88687 309.98126L389.44937 309.98126L388.99625 312.29376Q389.76187 311.7469 390.60562 311.7469Q391.73062 311.7469 392.49625 312.52814Q393.2775 313.3094 393.2775 314.54376Q393.2775 315.7 392.60562 316.5594Q391.7775 317.59064 390.35562 317.59064Q389.18375 317.59064 388.43375 316.9344Q387.69937 316.27814 387.59 315.2Z" fill-rule="nonzero"/><path fill="#000000" d="M483.31686 316.4344L483.31686 317.45L477.62936 317.45Q477.62936 317.075 477.75436 316.71564Q477.9731 316.1375 478.44186 315.575Q478.92624 315.0125 479.8325 314.27814Q481.23874 313.1219 481.7231 312.45Q482.2231 311.77814 482.2231 311.1844Q482.2231 310.5594 481.77 310.1375Q481.31686 309.7 480.5981 309.7Q479.8325 309.7 479.37936 310.15314Q478.92624 310.60626 478.9106 311.41876L477.8325 311.3094Q477.94186 310.09064 478.6606 309.46564Q479.395 308.825 480.62936 308.825Q481.86374 308.825 482.5825 309.5125Q483.30124 310.2 483.30124 311.21564Q483.30124 311.73126 483.0825 312.23126Q482.87936 312.71564 482.37936 313.27814Q481.895 313.825 480.77 314.77814Q479.81686 315.575 479.5356 315.8719Q479.27 316.15314 479.0981 316.4344L483.31686 316.4344ZM484.77 313.21564Q484.77 311.6844 485.0825 310.7625Q485.395 309.825 486.00436 309.325Q486.62936 308.825 487.56686 308.825Q488.25436 308.825 488.77 309.10626Q489.30124 309.3875 489.645 309.91876Q489.98874 310.4344 490.17624 311.1844Q490.36374 311.9344 490.36374 313.21564Q490.36374 314.73126 490.05124 315.65314Q489.75436 316.575 489.12936 317.09064Q488.52 317.59064 487.56686 317.59064Q486.3325 317.59064 485.61374 316.7Q484.77 315.6375 484.77 313.21564ZM485.8481 313.21564Q485.8481 315.325 486.3481 316.02814Q486.8481 316.73126 487.56686 316.73126Q488.30124 316.73126 488.7856 316.02814Q489.2856 315.325 489.2856 313.21564Q489.2856 311.09064 488.7856 310.40314Q488.30124 309.7 487.55124 309.7Q486.8325 309.7 486.395 310.3094Q485.8481 311.09064 485.8481 313.21564Z" fill-rule="nonzero"/><path fill="#000000" d="M580.4969 316.4344L580.4969 317.45L574.8094 317.45Q574.8094 317.075 574.9344 316.71564Q575.15314 316.1375 575.6219 315.575Q576.10626 315.0125 577.0125 314.27814Q578.41876 313.1219 578.90314 312.45Q579.40314 311.77814 579.40314 311.1844Q579.40314 310.5594 578.95 310.1375Q578.4969 309.7 577.77814 309.7Q577.0125 309.7 576.5594 310.15314Q576.10626 310.60626 576.09064 311.41876L575.0125 311.3094Q575.1219 310.09064 575.84064 309.46564Q576.575 308.825 577.8094 308.825Q579.04376 308.825 579.7625 309.5125Q580.48126 310.2 580.48126 311.21564Q580.48126 311.73126 580.2625 312.23126Q580.0594 312.71564 579.5594 313.27814Q579.075 313.825 577.95 314.77814Q576.9969 315.575 576.71564 315.8719Q576.45 316.15314 576.27814 316.4344L580.4969 316.4344ZM581.95 315.2L583.0594 315.10626Q583.1844 315.91876 583.6219 316.325Q584.075 316.73126 584.71564 316.73126Q585.46564 316.73126 585.9969 316.15314Q586.52814 315.575 586.52814 314.6375Q586.52814 313.73126 586.0125 313.21564Q585.5125 312.6844 584.6844 312.6844Q584.1844 312.6844 583.7625 312.91876Q583.35626 313.15314 583.1219 313.5125L582.1375 313.3875L582.96564 308.98126L587.2469 308.98126L587.2469 309.98126L583.8094 309.98126L583.35626 312.29376Q584.1219 311.7469 584.96564 311.7469Q586.09064 311.7469 586.85626 312.52814Q587.6375 313.3094 587.6375 314.54376Q587.6375 315.7 586.96564 316.5594Q586.1375 317.59064 584.71564 317.59064Q583.54376 317.59064 582.79376 316.9344Q582.0594 316.27814 581.95 315.2Z" fill-rule="nonzero"/><path fill="#a4c2f4" d="M57.0 20.55C57.0 19.997715 57.447716 19.55 58.0 19.55L68.0 19.55C68.552284 19.55 69.0 19.997715 69.0 20.55L69.0 30.55C69.0 31.102285 68.552284 31.55 68.0 31.55L58.0 31.55C57.447716 31.55 57.0 31.102285 57.0 30.55Z" fill-rule="nonzero"/><path fill="#000000" d="M78.125 29.55L78.125 20.95625L79.25 20.95625L79.25 29.55L78.125 29.55ZM80.796875 29.55L80.796875 23.33125L81.734375 23.33125L81.734375 24.20625Q82.421875 23.190624 83.71875 23.190624Q84.28125 23.190624 84.75 23.39375Q85.234375 23.596874 85.46875 23.925Q85.703125 24.253124 85.796875 24.690624Q85.84375 24.9875 85.84375 25.721874L85.84375 29.55L84.796875 29.55L84.796875 25.76875Q84.796875 25.1125 84.671875 24.8Q84.546875 24.4875 84.234375 24.3Q83.921875 24.096874 83.5 24.096874Q82.828125 24.096874 82.328125 24.534374Q81.84375 24.95625 81.84375 26.14375L81.84375 29.55L80.796875 29.55ZM88.046875 29.55L88.046875 24.14375L87.109375 24.14375L87.109375 23.33125L88.046875 23.33125L88.046875 22.659374Q88.046875 22.034374 88.15625 21.7375Q88.3125 21.315624 88.6875 21.065624Q89.078125 20.815624 89.765625 20.815624Q90.21875 20.815624 90.75 20.925L90.59375 21.83125Q90.265625 21.784374 89.96875 21.784374Q89.484375 21.784374 89.28125 21.9875Q89.09375 22.190624 89.09375 22.753124L89.09375 23.33125L90.3125 23.33125L90.3125 24.14375L89.09375 24.14375L89.09375 29.55L88.046875 29.55ZM90.40625 26.440624Q90.40625 24.70625 91.359375 23.878124Q92.15625 23.190624 93.3125 23.190624Q94.59375 23.190624 95.40625 24.034374Q96.234375 24.8625 96.234375 26.346874Q96.234375 27.55 95.875 28.2375Q95.515625 28.925 94.8125 29.315624Q94.125 29.690624 93.3125 29.690624Q92.015625 29.690624 91.203125 28.8625Q90.40625 28.01875 90.40625 26.440624ZM91.484375 26.440624Q91.484375 27.628124 92.0 28.221874Q92.53125 28.815624 93.3125 28.815624Q94.109375 28.815624 94.625 28.221874Q95.140625 27.628124 95.140625 26.409374Q95.140625 25.253124 94.609375 24.659374Q94.09375 24.065624 93.3125 24.065624Q92.53125 24.065624 92.0 24.659374Q91.484375 25.2375 91.484375 26.440624ZM97.78125 29.55L97.78125 23.33125L98.734375 23.33125L98.734375 24.26875Q99.09375 23.6125 99.390625 23.409374Q99.703125 23.190624 100.078125 23.190624Q100.609375 23.190624 101.15625 23.51875L100.796875 24.503124Q100.40625 24.26875 100.03125 24.26875Q99.671875 24.26875 99.390625 24.4875Q99.125 24.690624 99.015625 25.065624Q98.828125 25.628124 98.828125 26.284374L98.828125 29.55L97.78125 29.55ZM101.796875 29.55L101.796875 23.33125L102.734375 23.33125L102.734375 24.20625Q103.03125 23.7375 103.515625 23.471874Q104.0 23.190624 104.625 23.190624Q105.3125 23.190624 105.75 23.471874Q106.203125 23.753124 106.375 24.26875Q107.125 23.190624 108.296875 23.190624Q109.234375 23.190624 109.71875 23.70625Q110.21875 24.20625 110.21875 25.284374L110.21875 29.55L109.171875 29.55L109.171875 25.628124Q109.171875 25.003124 109.0625 24.721874Q108.96875 24.440624 108.703125 24.26875Q108.4375 24.096874 108.0625 24.096874Q107.40625 24.096874 106.96875 24.534374Q106.546875 24.971874 106.546875 25.940624L106.546875 29.55L105.484375 29.55L105.484375 25.503124Q105.484375 24.8 105.21875 24.45625Q104.96875 24.096874 104.390625 24.096874Q103.9375 24.096874 103.5625 24.33125Q103.1875 24.565624 103.015625 25.01875Q102.84375 25.471874 102.84375 26.315624L102.84375 29.55L101.796875 29.55ZM115.859375 28.784374Q115.265625 29.284374 114.71875 29.4875Q114.1875 29.690624 113.5625 29.690624Q112.53125 29.690624 111.984375 29.190624Q111.4375 28.690624 111.4375 27.909374Q111.4375 27.45625 111.640625 27.08125Q111.84375 26.690624 112.1875 26.471874Q112.53125 26.2375 112.953125 26.128124Q113.25 26.034374 113.890625 25.95625Q115.15625 25.815624 115.765625 25.596874Q115.765625 25.378124 115.765625 25.33125Q115.765625 24.675 115.46875 24.409374Q115.0625 24.065624 114.265625 24.065624Q113.53125 24.065624 113.171875 24.33125Q112.8125 24.58125 112.640625 25.2375L111.609375 25.096874Q111.75 24.440624 112.078125 24.034374Q112.40625 23.628124 113.015625 23.409374Q113.625 23.190624 114.421875 23.190624Q115.21875 23.190624 115.71875 23.378124Q116.21875 23.565624 116.453125 23.846874Q116.6875 24.128124 116.78125 24.565624Q116.828125 24.83125 116.828125 25.534374L116.828125 26.940624Q116.828125 28.409374 116.890625 28.8Q116.96875 29.190624 117.171875 29.55L116.0625 29.55Q115.90625 29.221874 115.859375 28.784374ZM115.765625 26.425Q115.1875 26.659374 114.046875 26.83125Q113.390625 26.925 113.125 27.05Q112.859375 27.159374 112.703125 27.378124Q112.5625 27.596874 112.5625 27.878124Q112.5625 28.3 112.875 28.58125Q113.203125 28.8625 113.8125 28.8625Q114.421875 28.8625 114.890625 28.596874Q115.375 28.33125 115.59375 27.8625Q115.765625 27.503124 115.765625 26.815624L115.765625 26.425ZM121.09375 28.6125L121.25 29.534374Q120.796875 29.628124 120.453125 29.628124Q119.875 29.628124 119.5625 29.45625Q119.25 29.26875 119.109375 28.971874Q118.984375 28.675 118.984375 27.721874L118.984375 24.14375L118.21875 24.14375L118.21875 23.33125L118.984375 23.33125L118.984375 21.784374L120.03125 21.159374L120.03125 23.33125L121.09375 23.33125L121.09375 24.14375L120.03125 24.14375L120.03125 27.784374Q120.03125 28.2375 120.078125 28.3625Q120.140625 28.4875 120.265625 28.565624Q120.390625 28.64375 120.625 28.64375Q120.8125 28.64375 121.09375 28.6125ZM121.796875 22.175L121.796875 20.95625L122.859375 20.95625L122.859375 22.175L121.796875 22.175ZM121.796875 29.55L121.796875 23.33125L122.859375 23.33125L122.859375 29.55L121.796875 29.55ZM124.40625 26.440624Q124.40625 24.70625 125.359375 23.878124Q126.15625 23.190624 127.3125 23.190624Q128.59375 23.190624 129.40625 24.034374Q130.23438 24.8625 130.23438 26.346874Q130.23438 27.55 129.875 28.2375Q129.51562 28.925 128.8125 29.315624Q128.125 29.690624 127.3125 29.690624Q126.015625 29.690624 125.203125 28.8625Q124.40625 28.01875 124.40625 26.440624ZM125.484375 26.440624Q125.484375 27.628124 126.0 28.221874Q126.53125 28.815624 127.3125 28.815624Q128.10938 28.815624 128.625 28.221874Q129.14062 27.628124 129.14062 26.409374Q129.14062 25.253124 128.60938 24.659374Q128.09375 24.065624 127.3125 24.065624Q126.53125 24.065624 126.0 24.659374Q125.484375 25.2375 125.484375 26.440624ZM131.79688 29.55L131.79688 23.33125L132.73438 23.33125L132.73438 24.20625Q133.42188 23.190624 134.71875 23.190624Q135.28125 23.190624 135.75 23.39375Q136.23438 23.596874 136.46875 23.925Q136.70312 24.253124 136.79688 24.690624Q136.84375 24.9875 136.84375 25.721874L136.84375 29.55L135.79688 29.55L135.79688 25.76875Q135.79688 25.1125 135.67188 24.8Q135.54688 24.4875 135.23438 24.3Q134.92188 24.096874 134.5 24.096874Q133.82812 24.096874 133.32812 24.534374Q132.84375 24.95625 132.84375 26.14375L132.84375 29.55L131.79688 29.55ZM144.09375 28.6125L144.25 29.534374Q143.79688 29.628124 143.45312 29.628124Q142.875 29.628124 142.5625 29.45625Q142.25 29.26875 142.10938 28.971874Q141.98438 28.675 141.98438 27.721874L141.98438 24.14375L141.21875 24.14375L141.21875 23.33125L141.98438 23.33125L141.98438 21.784374L143.03125 21.159374L143.03125 23.33125L144.09375 23.33125L144.09375 24.14375L143.03125 24.14375L143.03125 27.784374Q143.03125 28.2375 143.07812 28.3625Q143.14062 28.4875 143.26562 28.565624Q143.39062 28.64375 143.625 28.64375Q143.8125 28.64375 144.09375 28.6125ZM144.40625 26.440624Q144.40625 24.70625 145.35938 23.878124Q146.15625 23.190624 147.3125 23.190624Q148.59375 23.190624 149.40625 24.034374Q150.23438 24.8625 150.23438 26.346874Q150.23438 27.55 149.875 28.2375Q149.51562 28.925 148.8125 29.315624Q148.125 29.690624 147.3125 29.690624Q146.01562 29.690624 145.20312 28.8625Q144.40625 28.01875 144.40625 26.440624ZM145.48438 26.440624Q145.48438 27.628124 146.0 28.221874Q146.53125 28.815624 147.3125 28.815624Q148.10938 28.815624 148.625 28.221874Q149.14062 27.628124 149.14062 26.409374Q149.14062 25.253124 148.60938 24.659374Q148.09375 24.065624 147.3125 24.065624Q146.53125 24.065624 146.0 24.659374Q145.48438 25.2375 145.48438 26.440624ZM151.40625 26.440624Q151.40625 24.70625 152.35938 23.878124Q153.15625 23.190624 154.3125 23.190624Q155.59375 23.190624 156.40625 24.034374Q157.23438 24.8625 157.23438 26.346874Q157.23438 27.55 156.875 28.2375Q156.51562 28.925 155.8125 29.315624Q155.125 29.690624 154.3125 29.690624Q153.01562 29.690624 152.20312 28.8625Q151.40625 28.01875 151.40625 26.440624ZM152.48438 26.440624Q152.48438 27.628124 153.0 28.221874Q153.53125 28.815624 154.3125 28.815624Q155.10938 28.815624 155.625 28.221874Q156.14062 27.628124 156.14062 26.409374Q156.14062 25.253124 155.60938 24.659374Q155.09375 24.065624 154.3125 24.065624Q153.53125 24.065624 153.0 24.659374Q152.48438 25.2375 152.48438 26.440624ZM158.76562 29.55L158.76562 20.95625L159.82812 20.95625L159.82812 29.55L158.76562 29.55Z" fill-rule="nonzero"/><path fill="#ea9999" d="M177.0 20.55C177.0 19.997715 177.44771 19.55 178.0 19.55L188.0 19.55C188.55229 19.55 189.0 19.997715 189.0 20.55L189.0 30.55C189.0 31.102285 188.55229 31.55 188.0 31.55L178.0 31.55C177.44771 31.55 177.0 31.102285 177.0 30.55Z" fill-rule="nonzero"/><path fill="#000000" d="M200.10938 29.55L200.10938 21.971874L197.28125 21.971874L197.28125 20.95625L204.09375 20.95625L204.09375 21.971874L201.25 21.971874L201.25 29.55L200.10938 29.55ZM204.78125 29.55L204.78125 23.33125L205.73438 23.33125L205.73438 24.26875Q206.09375 23.6125 206.39062 23.409374Q206.70312 23.190624 207.07812 23.190624Q207.60938 23.190624 208.15625 23.51875L207.79688 24.503124Q207.40625 24.26875 207.03125 24.26875Q206.67188 24.26875 206.39062 24.4875Q206.125 24.690624 206.01562 25.065624Q205.82812 25.628124 205.82812 26.284374L205.82812 29.55L204.78125 29.55ZM212.85938 28.784374Q212.26562 29.284374 211.71875 29.4875Q211.1875 29.690624 210.5625 29.690624Q209.53125 29.690624 208.98438 29.190624Q208.4375 28.690624 208.4375 27.909374Q208.4375 27.45625 208.64062 27.08125Q208.84375 26.690624 209.1875 26.471874Q209.53125 26.2375 209.95312 26.128124Q210.25 26.034374 210.89062 25.95625Q212.15625 25.815624 212.76562 25.596874Q212.76562 25.378124 212.76562 25.33125Q212.76562 24.675 212.46875 24.409374Q212.0625 24.065624 211.26562 24.065624Q210.53125 24.065624 210.17188 24.33125Q209.8125 24.58125 209.64062 25.2375L208.60938 25.096874Q208.75 24.440624 209.07812 24.034374Q209.40625 23.628124 210.01562 23.409374Q210.625 23.190624 211.42188 23.190624Q212.21875 23.190624 212.71875 23.378124Q213.21875 23.565624 213.45312 23.846874Q213.6875 24.128124 213.78125 24.565624Q213.82812 24.83125 213.82812 25.534374L213.82812 26.940624Q213.82812 28.409374 213.89062 28.8Q213.96875 29.190624 214.17188 29.55L213.0625 29.55Q212.90625 29.221874 212.85938 28.784374ZM212.76562 26.425Q212.1875 26.659374 211.04688 26.83125Q210.39062 26.925 210.125 27.05Q209.85938 27.159374 209.70312 27.378124Q209.5625 27.596874 209.5625 27.878124Q209.5625 28.3 209.875 28.58125Q210.20312 28.8625 210.8125 28.8625Q211.42188 28.8625 211.89062 28.596874Q212.375 28.33125 212.59375 27.8625Q212.76562 27.503124 212.76562 26.815624L212.76562 26.425ZM219.85938 27.26875L220.89062 27.409374Q220.71875 28.471874 220.01562 29.08125Q219.3125 29.690624 218.29688 29.690624Q217.01562 29.690624 216.23438 28.8625Q215.46875 28.01875 215.46875 26.45625Q215.46875 25.45625 215.79688 24.70625Q216.14062 23.940624 216.8125 23.565624Q217.5 23.190624 218.3125 23.190624Q219.3125 23.190624 219.95312 23.70625Q220.60938 24.20625 220.79688 25.159374L219.76562 25.315624Q219.625 24.690624 219.25 24.378124Q218.875 24.05 218.34375 24.05Q217.54688 24.05 217.04688 24.628124Q216.54688 25.190624 216.54688 26.425Q216.54688 27.690624 217.03125 28.253124Q217.51562 28.815624 218.28125 28.815624Q218.90625 28.815624 219.3125 28.440624Q219.73438 28.065624 219.85938 27.26875ZM221.79688 29.55L221.79688 20.95625L222.85938 20.95625L222.85938 25.8625L225.34375 23.33125L226.71875 23.33125L224.32812 25.628124L226.95312 29.55L225.65625 29.55L223.59375 26.3625L222.85938 27.08125L222.85938 29.55L221.79688 29.55ZM227.79688 22.175L227.79688 20.95625L228.85938 20.95625L228.85938 22.175L227.79688 22.175ZM227.79688 29.55L227.79688 23.33125L228.85938 23.33125L228.85938 29.55L227.79688 29.55ZM230.79688 29.55L230.79688 23.33125L231.73438 23.33125L231.73438 24.20625Q232.42188 23.190624 233.71875 23.190624Q234.28125 23.190624 234.75 23.39375Q235.23438 23.596874 235.46875 23.925Q235.70312 24.253124 235.79688 24.690624Q235.84375 24.9875 235.84375 25.721874L235.84375 29.55L234.79688 29.55L234.79688 25.76875Q234.79688 25.1125 234.67188 24.8Q234.54688 24.4875 234.23438 24.3Q233.92188 24.096874 233.5 24.096874Q232.82812 24.096874 232.32812 24.534374Q231.84375 24.95625 231.84375 26.14375L231.84375 29.55L230.79688 29.55ZM237.59375 30.065624L238.625 30.221874Q238.6875 30.690624 238.98438 30.909374Q239.375 31.20625 240.04688 31.20625Q240.78125 31.20625 241.17188 30.909374Q241.57812 30.6125 241.71875 30.096874Q241.8125 29.76875 241.79688 28.7375Q241.10938 29.55 240.07812 29.55Q238.79688 29.55 238.09375 28.628124Q237.39062 27.690624 237.39062 26.409374Q237.39062 25.51875 237.70312 24.76875Q238.03125 24.003124 238.64062 23.596874Q239.25 23.190624 240.07812 23.190624Q241.1875 23.190624 241.90625 24.08125L241.90625 23.33125L242.875 23.33125L242.875 28.70625Q242.875 30.159374 242.57812 30.76875Q242.28125 31.378124 241.64062 31.721874Q241.0 32.08125 240.0625 32.08125Q238.95312 32.08125 238.26562 31.58125Q237.57812 31.08125 237.59375 30.065624ZM238.46875 26.33125Q238.46875 27.55 238.95312 28.1125Q239.4375 28.675 240.17188 28.675Q240.90625 28.675 241.39062 28.1125Q241.89062 27.55 241.89062 26.3625Q241.89062 25.221874 241.375 24.64375Q240.875 24.065624 240.15625 24.065624Q239.45312 24.065624 238.95312 24.64375Q238.46875 25.20625 238.46875 26.33125ZM250.09375 28.6125L250.25 29.534374Q249.79688 29.628124 249.45312 29.628124Q248.875 29.628124 248.5625 29.45625Q248.25 29.26875 248.10938 28.971874Q247.98438 28.675 247.98438 27.721874L247.98438 24.14375L247.21875 24.14375L247.21875 23.33125L247.98438 23.33125L247.98438 21.784374L249.03125 21.159374L249.03125 23.33125L250.09375 23.33125L250.09375 24.14375L249.03125 24.14375L249.03125 27.784374Q249.03125 28.2375 249.07812 28.3625Q249.14062 28.4875 249.26562 28.565624Q249.39062 28.64375 249.625 28.64375Q249.8125 28.64375 250.09375 28.6125ZM250.40625 26.440624Q250.40625 24.70625 251.35938 23.878124Q252.15625 23.190624 253.3125 23.190624Q254.59375 23.190624 255.40625 24.034374Q256.23438 24.8625 256.23438 26.346874Q256.23438 27.55 255.875 28.2375Q255.51562 28.925 254.8125 29.315624Q254.125 29.690624 253.3125 29.690624Q252.01562 29.690624 251.20312 28.8625Q250.40625 28.01875 250.40625 26.440624ZM251.48438 26.440624Q251.48438 27.628124 252.0 28.221874Q252.53125 28.815624 253.3125 28.815624Q254.10938 28.815624 254.625 28.221874Q255.14062 27.628124 255.14062 26.409374Q255.14062 25.253124 254.60938 24.659374Q254.09375 24.065624 253.3125 24.065624Q252.53125 24.065624 252.0 24.659374Q251.48438 25.2375 251.48438 26.440624ZM257.40625 26.440624Q257.40625 24.70625 258.35938 23.878124Q259.15625 23.190624 260.3125 23.190624Q261.59375 23.190624 262.40625 24.034374Q263.23438 24.8625 263.23438 26.346874Q263.23438 27.55 262.875 28.2375Q262.51562 28.925 261.8125 29.315624Q261.125 29.690624 260.3125 29.690624Q259.01562 29.690624 258.20312 28.8625Q257.40625 28.01875 257.40625 26.440624ZM258.48438 26.440624Q258.48438 27.628124 259.0 28.221874Q259.53125 28.815624 260.3125 28.815624Q261.10938 28.815624 261.625 28.221874Q262.14062 27.628124 262.14062 26.409374Q262.14062 25.253124 261.60938 24.659374Q261.09375 24.065624 260.3125 24.065624Q259.53125 24.065624 259.0 24.659374Q258.48438 25.2375 258.48438 26.440624ZM264.76562 29.55L264.76562 20.95625L265.82812 20.95625L265.82812 29.55L264.76562 29.55Z" fill-rule="nonzero"/><path fill="#ffe599" d="M283.0 20.55C283.0 19.997715 283.44772 19.55 284.0 19.55L294.0 19.55C294.55228 19.55 295.0 19.997715 295.0 20.55L295.0 30.55C295.0 31.102285 294.55228 31.55 294.0 31.55L284.0 31.55C283.44772 31.55 283.0 31.102285 283.0 30.55Z" fill-rule="nonzero"/><path fill="#000000" d="M303.9375 29.55L303.9375 20.95625L307.75 20.95625Q308.90625 20.95625 309.5 21.190624Q310.09375 21.425 310.45312 22.01875Q310.8125 22.596874 310.8125 23.3Q310.8125 24.221874 310.21875 24.846874Q309.625 25.471874 308.39062 25.64375Q308.84375 25.8625 309.07812 26.065624Q309.57812 26.51875 310.01562 27.20625L311.51562 29.55L310.07812 29.55L308.95312 27.76875Q308.45312 26.9875 308.125 26.58125Q307.8125 26.175 307.54688 26.01875Q307.29688 25.846874 307.03125 25.76875Q306.84375 25.7375 306.40625 25.7375L305.07812 25.7375L305.07812 29.55L303.9375 29.55ZM305.07812 24.753124L307.53125 24.753124Q308.29688 24.753124 308.73438 24.596874Q309.1875 24.425 309.40625 24.08125Q309.64062 23.721874 309.64062 23.3Q309.64062 22.690624 309.1875 22.3Q308.75 21.909374 307.79688 21.909374L305.07812 21.909374L305.07812 24.753124ZM317.04688 27.55L318.14062 27.675Q317.89062 28.628124 317.1875 29.159374Q316.48438 29.690624 315.40625 29.690624Q314.04688 29.690624 313.23438 28.846874Q312.4375 28.003124 312.4375 26.4875Q312.4375 24.925 313.25 24.065624Q314.0625 23.190624 315.34375 23.190624Q316.59375 23.190624 317.375 24.034374Q318.17188 24.878124 318.17188 26.425Q318.17188 26.51875 318.17188 26.70625L313.53125 26.70625Q313.59375 27.7375 314.10938 28.284374Q314.625 28.815624 315.40625 28.815624Q315.98438 28.815624 316.39062 28.51875Q316.8125 28.20625 317.04688 27.55ZM313.59375 25.846874L317.0625 25.846874Q317.0 25.05 316.67188 24.659374Q316.15625 24.05 315.35938 24.05Q314.625 24.05 314.125 24.534374Q313.64062 25.01875 313.59375 25.846874ZM319.375 27.690624L320.40625 27.534374Q320.5 28.159374 320.89062 28.4875Q321.29688 28.815624 322.03125 28.815624Q322.75 28.815624 323.09375 28.534374Q323.45312 28.2375 323.45312 27.83125Q323.45312 27.471874 323.14062 27.26875Q322.92188 27.128124 322.0625 26.909374Q320.90625 26.6125 320.45312 26.409374Q320.01562 26.190624 319.78125 25.815624Q319.54688 25.440624 319.54688 24.971874Q319.54688 24.565624 319.73438 24.20625Q319.92188 23.846874 320.25 23.6125Q320.5 23.440624 320.92188 23.315624Q321.34375 23.190624 321.84375 23.190624Q322.5625 23.190624 323.10938 23.409374Q323.67188 23.6125 323.9375 23.971874Q324.20312 24.33125 324.29688 24.925L323.26562 25.065624Q323.20312 24.596874 322.85938 24.33125Q322.53125 24.05 321.90625 24.05Q321.1875 24.05 320.875 24.3Q320.5625 24.534374 320.5625 24.8625Q320.5625 25.065624 320.6875 25.221874Q320.82812 25.39375 321.09375 25.503124Q321.25 25.565624 322.03125 25.76875Q323.15625 26.08125 323.59375 26.26875Q324.03125 26.45625 324.28125 26.815624Q324.53125 27.175 324.53125 27.721874Q324.53125 28.253124 324.21875 28.721874Q323.92188 29.175 323.34375 29.440624Q322.76562 29.690624 322.03125 29.690624Q320.8125 29.690624 320.17188 29.190624Q319.54688 28.675 319.375 27.690624ZM330.04688 27.55L331.14062 27.675Q330.89062 28.628124 330.1875 29.159374Q329.48438 29.690624 328.40625 29.690624Q327.04688 29.690624 326.23438 28.846874Q325.4375 28.003124 325.4375 26.4875Q325.4375 24.925 326.25 24.065624Q327.0625 23.190624 328.34375 23.190624Q329.59375 23.190624 330.375 24.034374Q331.17188 24.878124 331.17188 26.425Q331.17188 26.51875 331.17188 26.70625L326.53125 26.70625Q326.59375 27.7375 327.10938 28.284374Q327.625 28.815624 328.40625 28.815624Q328.98438 28.815624 329.39062 28.51875Q329.8125 28.20625 330.04688 27.55ZM326.59375 25.846874L330.0625 25.846874Q330.0 25.05 329.67188 24.659374Q329.15625 24.05 328.35938 24.05Q327.625 24.05 327.125 24.534374Q326.64062 25.01875 326.59375 25.846874ZM336.85938 28.784374Q336.26562 29.284374 335.71875 29.4875Q335.1875 29.690624 334.5625 29.690624Q333.53125 29.690624 332.98438 29.190624Q332.4375 28.690624 332.4375 27.909374Q332.4375 27.45625 332.64062 27.08125Q332.84375 26.690624 333.1875 26.471874Q333.53125 26.2375 333.95312 26.128124Q334.25 26.034374 334.89062 25.95625Q336.15625 25.815624 336.76562 25.596874Q336.76562 25.378124 336.76562 25.33125Q336.76562 24.675 336.46875 24.409374Q336.0625 24.065624 335.26562 24.065624Q334.53125 24.065624 334.17188 24.33125Q333.8125 24.58125 333.64062 25.2375L332.60938 25.096874Q332.75 24.440624 333.07812 24.034374Q333.40625 23.628124 334.01562 23.409374Q334.625 23.190624 335.42188 23.190624Q336.21875 23.190624 336.71875 23.378124Q337.21875 23.565624 337.45312 23.846874Q337.6875 24.128124 337.78125 24.565624Q337.82812 24.83125 337.82812 25.534374L337.82812 26.940624Q337.82812 28.409374 337.89062 28.8Q337.96875 29.190624 338.17188 29.55L337.0625 29.55Q336.90625 29.221874 336.85938 28.784374ZM336.76562 26.425Q336.1875 26.659374 335.04688 26.83125Q334.39062 26.925 334.125 27.05Q333.85938 27.159374 333.70312 27.378124Q333.5625 27.596874 333.5625 27.878124Q333.5625 28.3 333.875 28.58125Q334.20312 28.8625 334.8125 28.8625Q335.42188 28.8625 335.89062 28.596874Q336.375 28.33125 336.59375 27.8625Q336.76562 27.503124 336.76562 26.815624L336.76562 26.425ZM339.78125 29.55L339.78125 23.33125L340.73438 23.33125L340.73438 24.26875Q341.09375 23.6125 341.39062 23.409374Q341.70312 23.190624 342.07812 23.190624Q342.60938 23.190624 343.15625 23.51875L342.79688 24.503124Q342.40625 24.26875 342.03125 24.26875Q341.67188 24.26875 341.39062 24.4875Q341.125 24.690624 341.01562 25.065624Q340.82812 25.628124 340.82812 26.284374L340.82812 29.55L339.78125 29.55ZM347.85938 27.26875L348.89062 27.409374Q348.71875 28.471874 348.01562 29.08125Q347.3125 29.690624 346.29688 29.690624Q345.01562 29.690624 344.23438 28.8625Q343.46875 28.01875 343.46875 26.45625Q343.46875 25.45625 343.79688 24.70625Q344.14062 23.940624 344.8125 23.565624Q345.5 23.190624 346.3125 23.190624Q347.3125 23.190624 347.95312 23.70625Q348.60938 24.20625 348.79688 25.159374L347.76562 25.315624Q347.625 24.690624 347.25 24.378124Q346.875 24.05 346.34375 24.05Q345.54688 24.05 345.04688 24.628124Q344.54688 25.190624 344.54688 26.425Q344.54688 27.690624 345.03125 28.253124Q345.51562 28.815624 346.28125 28.815624Q346.90625 28.815624 347.3125 28.440624Q347.73438 28.065624 347.85938 27.26875ZM349.79688 29.55L349.79688 20.95625L350.84375 20.95625L350.84375 24.034374Q351.57812 23.190624 352.70312 23.190624Q353.40625 23.190624 353.90625 23.471874Q354.42188 23.7375 354.64062 24.221874Q354.85938 24.690624 354.85938 25.6125L354.85938 29.55L353.8125 29.55L353.8125 25.6125Q353.8125 24.815624 353.46875 24.45625Q353.125 24.096874 352.5 24.096874Q352.03125 24.096874 351.60938 24.346874Q351.20312 24.58125 351.01562 25.003124Q350.84375 25.409374 350.84375 26.14375L350.84375 29.55L349.79688 29.55ZM362.09375 28.6125L362.25 29.534374Q361.79688 29.628124 361.45312 29.628124Q360.875 29.628124 360.5625 29.45625Q360.25 29.26875 360.10938 28.971874Q359.98438 28.675 359.98438 27.721874L359.98438 24.14375L359.21875 24.14375L359.21875 23.33125L359.98438 23.33125L359.98438 21.784374L361.03125 21.159374L361.03125 23.33125L362.09375 23.33125L362.09375 24.14375L361.03125 24.14375L361.03125 27.784374Q361.03125 28.2375 361.07812 28.3625Q361.14062 28.4875 361.26562 28.565624Q361.39062 28.64375 361.625 28.64375Q361.8125 28.64375 362.09375 28.6125ZM362.40625 26.440624Q362.40625 24.70625 363.35938 23.878124Q364.15625 23.190624 365.3125 23.190624Q366.59375 23.190624 367.40625 24.034374Q368.23438 24.8625 368.23438 26.346874Q368.23438 27.55 367.875 28.2375Q367.51562 28.925 366.8125 29.315624Q366.125 29.690624 365.3125 29.690624Q364.01562 29.690624 363.20312 28.8625Q362.40625 28.01875 362.40625 26.440624ZM363.48438 26.440624Q363.48438 27.628124 364.0 28.221874Q364.53125 28.815624 365.3125 28.815624Q366.10938 28.815624 366.625 28.221874Q367.14062 27.628124 367.14062 26.409374Q367.14062 25.253124 366.60938 24.659374Q366.09375 24.065624 365.3125 24.065624Q364.53125 24.065624 364.0 24.659374Q363.48438 25.2375 363.48438 26.440624ZM369.40625 26.440624Q369.40625 24.70625 370.35938 23.878124Q371.15625 23.190624 372.3125 23.190624Q373.59375 23.190624 374.40625 24.034374Q375.23438 24.8625 375.23438 26.346874Q375.23438 27.55 374.875 28.2375Q374.51562 28.925 373.8125 29.315624Q373.125 29.690624 372.3125 29.690624Q371.01562 29.690624 370.20312 28.8625Q369.40625 28.01875 369.40625 26.440624ZM370.48438 26.440624Q370.48438 27.628124 371.0 28.221874Q371.53125 28.815624 372.3125 28.815624Q373.10938 28.815624 373.625 28.221874Q374.14062 27.628124 374.14062 26.409374Q374.14062 25.253124 373.60938 24.659374Q373.09375 24.065624 372.3125 24.065624Q371.53125 24.065624 371.0 24.659374Q370.48438 25.2375 370.48438 26.440624ZM376.76562 29.55L376.76562 20.95625L377.82812 20.95625L377.82812 29.55L376.76562 29.55Z" fill-rule="nonzero"/><path fill="#b6d7a8" d="M395.0 20.55C395.0 19.997715 395.44772 19.55 396.0 19.55L406.0 19.55C406.55228 19.55 407.0 19.997715 407.0 20.55L407.0 30.55C407.0 31.102285 406.55228 31.55 406.0 31.55L396.0 31.55C395.44772 31.55 395.0 31.102285 395.0 30.55Z" fill-rule="nonzero"/><path fill="#000000" d="M415.96875 29.55L415.96875 20.95625L417.09375 20.95625L417.09375 24.4875L421.5625 24.4875L421.5625 20.95625L422.70312 20.95625L422.70312 29.55L421.5625 29.55L421.5625 25.503124L417.09375 25.503124L417.09375 29.55L415.96875 29.55ZM429.04688 27.55L430.14062 27.675Q429.89062 28.628124 429.1875 29.159374Q428.48438 29.690624 427.40625 29.690624Q426.04688 29.690624 425.23438 28.846874Q424.4375 28.003124 424.4375 26.4875Q424.4375 24.925 425.25 24.065624Q426.0625 23.190624 427.34375 23.190624Q428.59375 23.190624 429.375 24.034374Q430.17188 24.878124 430.17188 26.425Q430.17188 26.51875 430.17188 26.70625L425.53125 26.70625Q425.59375 27.7375 426.10938 28.284374Q426.625 28.815624 427.40625 28.815624Q427.98438 28.815624 428.39062 28.51875Q428.8125 28.20625 429.04688 27.55ZM425.59375 25.846874L429.0625 25.846874Q429.0 25.05 428.67188 24.659374Q428.15625 24.05 427.35938 24.05Q426.625 24.05 426.125 24.534374Q425.64062 25.01875 425.59375 25.846874ZM435.85938 28.784374Q435.26562 29.284374 434.71875 29.4875Q434.1875 29.690624 433.5625 29.690624Q432.53125 29.690624 431.98438 29.190624Q431.4375 28.690624 431.4375 27.909374Q431.4375 27.45625 431.64062 27.08125Q431.84375 26.690624 432.1875 26.471874Q432.53125 26.2375 432.95312 26.128124Q433.25 26.034374 433.89062 25.95625Q435.15625 25.815624 435.76562 25.596874Q435.76562 25.378124 435.76562 25.33125Q435.76562 24.675 435.46875 24.409374Q435.0625 24.065624 434.26562 24.065624Q433.53125 24.065624 433.17188 24.33125Q432.8125 24.58125 432.64062 25.2375L431.60938 25.096874Q431.75 24.440624 432.07812 24.034374Q432.40625 23.628124 433.01562 23.409374Q433.625 23.190624 434.42188 23.190624Q435.21875 23.190624 435.71875 23.378124Q436.21875 23.565624 436.45312 23.846874Q436.6875 24.128124 436.78125 24.565624Q436.82812 24.83125 436.82812 25.534374L436.82812 26.940624Q436.82812 28.409374 436.89062 28.8Q436.96875 29.190624 437.17188 29.55L436.0625 29.55Q435.90625 29.221874 435.85938 28.784374ZM435.76562 26.425Q435.1875 26.659374 434.04688 26.83125Q433.39062 26.925 433.125 27.05Q432.85938 27.159374 432.70312 27.378124Q432.5625 27.596874 432.5625 27.878124Q432.5625 28.3 432.875 28.58125Q433.20312 28.8625 433.8125 28.8625Q434.42188 28.8625 434.89062 28.596874Q435.375 28.33125 435.59375 27.8625Q435.76562 27.503124 435.76562 26.815624L435.76562 26.425ZM438.76562 29.55L438.76562 20.95625L439.82812 20.95625L439.82812 29.55L438.76562 29.55ZM444.09375 28.6125L444.25 29.534374Q443.79688 29.628124 443.45312 29.628124Q442.875 29.628124 442.5625 29.45625Q442.25 29.26875 442.10938 28.971874Q441.98438 28.675 441.98438 27.721874L441.98438 24.14375L441.21875 24.14375L441.21875 23.33125L441.98438 23.33125L441.98438 21.784374L443.03125 21.159374L443.03125 23.33125L444.09375 23.33125L444.09375 24.14375L443.03125 24.14375L443.03125 27.784374Q443.03125 28.2375 443.07812 28.3625Q443.14062 28.4875 443.26562 28.565624Q443.39062 28.64375 443.625 28.64375Q443.8125 28.64375 444.09375 28.6125ZM444.79688 29.55L444.79688 20.95625L445.84375 20.95625L445.84375 24.034374Q446.57812 23.190624 447.70312 23.190624Q448.40625 23.190624 448.90625 23.471874Q449.42188 23.7375 449.64062 24.221874Q449.85938 24.690624 449.85938 25.6125L449.85938 29.55L448.8125 29.55L448.8125 25.6125Q448.8125 24.815624 448.46875 24.45625Q448.125 24.096874 447.5 24.096874Q447.03125 24.096874 446.60938 24.346874Q446.20312 24.58125 446.01562 25.003124Q445.84375 25.409374 445.84375 26.14375L445.84375 29.55L444.79688 29.55ZM453.98438 29.55L457.28125 20.95625L458.5 20.95625L462.01562 29.55L460.73438 29.55L459.71875 26.940624L456.14062 26.940624L455.1875 29.55L453.98438 29.55ZM456.46875 26.01875L459.375 26.01875L458.48438 23.64375Q458.0625 22.565624 457.875 21.8625Q457.70312 22.690624 457.40625 23.503124L456.46875 26.01875ZM462.375 27.690624L463.40625 27.534374Q463.5 28.159374 463.89062 28.4875Q464.29688 28.815624 465.03125 28.815624Q465.75 28.815624 466.09375 28.534374Q466.45312 28.2375 466.45312 27.83125Q466.45312 27.471874 466.14062 27.26875Q465.92188 27.128124 465.0625 26.909374Q463.90625 26.6125 463.45312 26.409374Q463.01562 26.190624 462.78125 25.815624Q462.54688 25.440624 462.54688 24.971874Q462.54688 24.565624 462.73438 24.20625Q462.92188 23.846874 463.25 23.6125Q463.5 23.440624 463.92188 23.315624Q464.34375 23.190624 464.84375 23.190624Q465.5625 23.190624 466.10938 23.409374Q466.67188 23.6125 466.9375 23.971874Q467.20312 24.33125 467.29688 24.925L466.26562 25.065624Q466.20312 24.596874 465.85938 24.33125Q465.53125 24.05 464.90625 24.05Q464.1875 24.05 463.875 24.3Q463.5625 24.534374 463.5625 24.8625Q463.5625 25.065624 463.6875 25.221874Q463.82812 25.39375 464.09375 25.503124Q464.25 25.565624 465.03125 25.76875Q466.15625 26.08125 466.59375 26.26875Q467.03125 26.45625 467.28125 26.815624Q467.53125 27.175 467.53125 27.721874Q467.53125 28.253124 467.21875 28.721874Q466.92188 29.175 466.34375 29.440624Q465.76562 29.690624 465.03125 29.690624Q463.8125 29.690624 463.17188 29.190624Q462.54688 28.675 462.375 27.690624ZM468.375 27.690624L469.40625 27.534374Q469.5 28.159374 469.89062 28.4875Q470.29688 28.815624 471.03125 28.815624Q471.75 28.815624 472.09375 28.534374Q472.45312 28.2375 472.45312 27.83125Q472.45312 27.471874 472.14062 27.26875Q471.92188 27.128124 471.0625 26.909374Q469.90625 26.6125 469.45312 26.409374Q469.01562 26.190624 468.78125 25.815624Q468.54688 25.440624 468.54688 24.971874Q468.54688 24.565624 468.73438 24.20625Q468.92188 23.846874 469.25 23.6125Q469.5 23.440624 469.92188 23.315624Q470.34375 23.190624 470.84375 23.190624Q471.5625 23.190624 472.10938 23.409374Q472.67188 23.6125 472.9375 23.971874Q473.20312 24.33125 473.29688 24.925L472.26562 25.065624Q472.20312 24.596874 471.85938 24.33125Q471.53125 24.05 470.90625 24.05Q470.1875 24.05 469.875 24.3Q469.5625 24.534374 469.5625 24.8625Q469.5625 25.065624 469.6875 25.221874Q469.82812 25.39375 470.09375 25.503124Q470.25 25.565624 471.03125 25.76875Q472.15625 26.08125 472.59375 26.26875Q473.03125 26.45625 473.28125 26.815624Q473.53125 27.175 473.53125 27.721874Q473.53125 28.253124 473.21875 28.721874Q472.92188 29.175 472.34375 29.440624Q471.76562 29.690624 471.03125 29.690624Q469.8125 29.690624 469.17188 29.190624Q468.54688 28.675 468.375 27.690624ZM479.04688 27.55L480.14062 27.675Q479.89062 28.628124 479.1875 29.159374Q478.48438 29.690624 477.40625 29.690624Q476.04688 29.690624 475.23438 28.846874Q474.4375 28.003124 474.4375 26.4875Q474.4375 24.925 475.25 24.065624Q476.0625 23.190624 477.34375 23.190624Q478.59375 23.190624 479.375 24.034374Q480.17188 24.878124 480.17188 26.425Q480.17188 26.51875 480.17188 26.70625L475.53125 26.70625Q475.59375 27.7375 476.10938 28.284374Q476.625 28.815624 477.40625 28.815624Q477.98438 28.815624 478.39062 28.51875Q478.8125 28.20625 479.04688 27.55ZM475.59375 25.846874L479.0625 25.846874Q479.0 25.05 478.67188 24.659374Q478.15625 24.05 477.35938 24.05Q476.625 24.05 476.125 24.534374Q475.64062 25.01875 475.59375 25.846874ZM481.375 27.690624L482.40625 27.534374Q482.5 28.159374 482.89062 28.4875Q483.29688 28.815624 484.03125 28.815624Q484.75 28.815624 485.09375 28.534374Q485.45312 28.2375 485.45312 27.83125Q485.45312 27.471874 485.14062 27.26875Q484.92188 27.128124 484.0625 26.909374Q482.90625 26.6125 482.45312 26.409374Q482.01562 26.190624 481.78125 25.815624Q481.54688 25.440624 481.54688 24.971874Q481.54688 24.565624 481.73438 24.20625Q481.92188 23.846874 482.25 23.6125Q482.5 23.440624 482.92188 23.315624Q483.34375 23.190624 483.84375 23.190624Q484.5625 23.190624 485.10938 23.409374Q485.67188 23.6125 485.9375 23.971874Q486.20312 24.33125 486.29688 24.925L485.26562 25.065624Q485.20312 24.596874 484.85938 24.33125Q484.53125 24.05 483.90625 24.05Q483.1875 24.05 482.875 24.3Q482.5625 24.534374 482.5625 24.8625Q482.5625 25.065624 482.6875 25.221874Q482.82812 25.39375 483.09375 25.503124Q483.25 25.565624 484.03125 25.76875Q485.15625 26.08125 485.59375 26.26875Q486.03125 26.45625 486.28125 26.815624Q486.53125 27.175 486.53125 27.721874Q486.53125 28.253124 486.21875 28.721874Q485.92188 29.175 485.34375 29.440624Q484.76562 29.690624 484.03125 29.690624Q482.8125 29.690624 482.17188 29.190624Q481.54688 28.675 481.375 27.690624ZM487.375 27.690624L488.40625 27.534374Q488.5 28.159374 488.89062 28.4875Q489.29688 28.815624 490.03125 28.815624Q490.75 28.815624 491.09375 28.534374Q491.45312 28.2375 491.45312 27.83125Q491.45312 27.471874 491.14062 27.26875Q490.92188 27.128124 490.0625 26.909374Q488.90625 26.6125 488.45312 26.409374Q488.01562 26.190624 487.78125 25.815624Q487.54688 25.440624 487.54688 24.971874Q487.54688 24.565624 487.73438 24.20625Q487.92188 23.846874 488.25 23.6125Q488.5 23.440624 488.92188 23.315624Q489.34375 23.190624 489.84375 23.190624Q490.5625 23.190624 491.10938 23.409374Q491.67188 23.6125 491.9375 23.971874Q492.20312 24.33125 492.29688 24.925L491.26562 25.065624Q491.20312 24.596874 490.85938 24.33125Q490.53125 24.05 489.90625 24.05Q489.1875 24.05 488.875 24.3Q488.5625 24.534374 488.5625 24.8625Q488.5625 25.065624 488.6875 25.221874Q488.82812 25.39375 489.09375 25.503124Q489.25 25.565624 490.03125 25.76875Q491.15625 26.08125 491.59375 26.26875Q492.03125 26.45625 492.28125 26.815624Q492.53125 27.175 492.53125 27.721874Q492.53125 28.253124 492.21875 28.721874Q491.92188 29.175 491.34375 29.440624Q490.76562 29.690624 490.03125 29.690624Q488.8125 29.690624 488.17188 29.190624Q487.54688 28.675 487.375 27.690624ZM493.79688 29.55L493.79688 23.33125L494.73438 23.33125L494.73438 24.20625Q495.03125 23.7375 495.51562 23.471874Q496.0 23.190624 496.625 23.190624Q497.3125 23.190624 497.75 23.471874Q498.20312 23.753124 498.375 24.26875Q499.125 23.190624 500.29688 23.190624Q501.23438 23.190624 501.71875 23.70625Q502.21875 24.20625 502.21875 25.284374L502.21875 29.55L501.17188 29.55L501.17188 25.628124Q501.17188 25.003124 501.0625 24.721874Q500.96875 24.440624 500.70312 24.26875Q500.4375 24.096874 500.0625 24.096874Q499.40625 24.096874 498.96875 24.534374Q498.54688 24.971874 498.54688 25.940624L498.54688 29.55L497.48438 29.55L497.48438 25.503124Q497.48438 24.8 497.21875 24.45625Q496.96875 24.096874 496.39062 24.096874Q495.9375 24.096874 495.5625 24.33125Q495.1875 24.565624 495.01562 25.01875Q494.84375 25.471874 494.84375 26.315624L494.84375 29.55L493.79688 29.55ZM508.04688 27.55L509.14062 27.675Q508.89062 28.628124 508.1875 29.159374Q507.48438 29.690624 506.40625 29.690624Q505.04688 29.690624 504.23438 28.846874Q503.4375 28.003124 503.4375 26.4875Q503.4375 24.925 504.25 24.065624Q505.0625 23.190624 506.34375 23.190624Q507.59375 23.190624 508.375 24.034374Q509.17188 24.878124 509.17188 26.425Q509.17188 26.51875 509.17188 26.70625L504.53125 26.70625Q504.59375 27.7375 505.10938 28.284374Q505.625 28.815624 506.40625 28.815624Q506.98438 28.815624 507.39062 28.51875Q507.8125 28.20625 508.04688 27.55ZM504.59375 25.846874L508.0625 25.846874Q508.0 25.05 507.67188 24.659374Q507.15625 24.05 506.35938 24.05Q505.625 24.05 505.125 24.534374Q504.64062 25.01875 504.59375 25.846874ZM510.79688 29.55L510.79688 23.33125L511.73438 23.33125L511.73438 24.20625Q512.4219 23.190624 513.71875 23.190624Q514.28125 23.190624 514.75 23.39375Q515.2344 23.596874 515.46875 23.925Q515.7031 24.253124 515.7969 24.690624Q515.84375 24.9875 515.84375 25.721874L515.84375 29.55L514.7969 29.55L514.7969 25.76875Q514.7969 25.1125 514.6719 24.8Q514.5469 24.4875 514.2344 24.3Q513.9219 24.096874 513.5 24.096874Q512.8281 24.096874 512.3281 24.534374Q511.84375 24.95625 511.84375 26.14375L511.84375 29.55L510.79688 29.55ZM520.09375 28.6125L520.25 29.534374Q519.7969 29.628124 519.4531 29.628124Q518.875 29.628124 518.5625 29.45625Q518.25 29.26875 518.1094 28.971874Q517.9844 28.675 517.9844 27.721874L517.9844 24.14375L517.21875 24.14375L517.21875 23.33125L517.9844 23.33125L517.9844 21.784374L519.03125 21.159374L519.03125 23.33125L520.09375 23.33125L520.09375 24.14375L519.03125 24.14375L519.03125 27.784374Q519.03125 28.2375 519.0781 28.3625Q519.1406 28.4875 519.2656 28.565624Q519.3906 28.64375 519.625 28.64375Q519.8125 28.64375 520.09375 28.6125ZM526.09375 28.6125L526.25 29.534374Q525.7969 29.628124 525.4531 29.628124Q524.875 29.628124 524.5625 29.45625Q524.25 29.26875 524.1094 28.971874Q523.9844 28.675 523.9844 27.721874L523.9844 24.14375L523.21875 24.14375L523.21875 23.33125L523.9844 23.33125L523.9844 21.784374L525.03125 21.159374L525.03125 23.33125L526.09375 23.33125L526.09375 24.14375L525.03125 24.14375L525.03125 27.784374Q525.03125 28.2375 525.0781 28.3625Q525.1406 28.4875 525.2656 28.565624Q525.3906 28.64375 525.625 28.64375Q525.8125 28.64375 526.09375 28.6125ZM526.40625 26.440624Q526.40625 24.70625 527.3594 23.878124Q528.15625 23.190624 529.3125 23.190624Q530.59375 23.190624 531.40625 24.034374Q532.2344 24.8625 532.2344 26.346874Q532.2344 27.55 531.875 28.2375Q531.5156 28.925 530.8125 29.315624Q530.125 29.690624 529.3125 29.690624Q528.0156 29.690624 527.2031 28.8625Q526.40625 28.01875 526.40625 26.440624ZM527.4844 26.440624Q527.4844 27.628124 528.0 28.221874Q528.53125 28.815624 529.3125 28.815624Q530.1094 28.815624 530.625 28.221874Q531.1406 27.628124 531.1406 26.409374Q531.1406 25.253124 530.6094 24.659374Q530.09375 24.065624 529.3125 24.065624Q528.53125 24.065624 528.0 24.659374Q527.4844 25.2375 527.4844 26.440624ZM533.40625 26.440624Q533.40625 24.70625 534.3594 23.878124Q535.15625 23.190624 536.3125 23.190624Q537.59375 23.190624 538.40625 24.034374Q539.2344 24.8625 539.2344 26.346874Q539.2344 27.55 538.875 28.2375Q538.5156 28.925 537.8125 29.315624Q537.125 29.690624 536.3125 29.690624Q535.0156 29.690624 534.2031 28.8625Q533.40625 28.01875 533.40625 26.440624ZM534.4844 26.440624Q534.4844 27.628124 535.0 28.221874Q535.53125 28.815624 536.3125 28.815624Q537.1094 28.815624 537.625 28.221874Q538.1406 27.628124 538.1406 26.409374Q538.1406 25.253124 537.6094 24.659374Q537.09375 24.065624 536.3125 24.065624Q535.53125 24.065624 535.0 24.659374Q534.4844 25.2375 534.4844 26.440624ZM540.7656 29.55L540.7656 20.95625L541.8281 20.95625L541.8281 29.55L540.7656 29.55Z" fill-rule="nonzero"/></svg>