<svg version="1.1" viewBox="0.0 0.0 600.0 371.0" fill="none" stroke="none" stroke-linecap="square" stroke-miterlimit="10" width="600" height="371" xmlns:xlink="http://www.w3.org/1999/xlink" xmlns="http://www.w3.org/2000/svg"><path fill="#ffffff" d="M0 0L600.0 0L600.0 371.0L0 371.0L0 0Z" fill-rule="nonzero"/><path stroke="#333333" stroke-width="1.0" stroke-linecap="butt" d="M77.5 332.5L581.5 332.5" fill-rule="nonzero"/><path stroke="#000000" stroke-width="1.0" stroke-linecap="butt" d="M77.5 251.5L581.5 251.5" fill-rule="nonzero"/><path stroke="#000000" stroke-width="1.0" stroke-linecap="butt" d="M77.5 169.5L581.5 169.5" fill-rule="nonzero"/><path stroke="#000000" stroke-width="1.0" stroke-linecap="butt" d="M77.5 88.5L581.5 88.5" fill-rule="nonzero"/><clipPath id="id_0"><path d="M77.55 88.28333L581.45 88.28333L581.45 332.45L77.55 332.45L77.55 88.28333Z" clip-rule="nonzero"/></clipPath><path stroke="#000000" stroke-width="0.0" stroke-linecap="butt" stroke-opacity="0.0" clip-path="url(#id_0)" d="M155.0 332.0L118.0 332.0L118.0 302.0C118.0 300.89542 118.89543 300.0 120.0 300.0L153.0 300.0C154.10457 300.0 155.0 300.89542 155.0 302.0Z" fill-rule="nonzero"/><path fill="#a4c2f4" clip-path="url(#id_0)" d="M155.0 332.0L118.0 332.0L118.0 302.0C118.0 300.89542 118.89543 300.0 120.0 300.0L153.0 300.0C154.10457 300.0 155.0 300.89542 155.0 302.0Z" fill-rule="nonzero"/><path stroke="#000000" stroke-width="0.0" stroke-linecap="butt" stroke-opacity="0.0" clip-path="url(#id_0)" d="M271.0 332.0L234.0 332.0L234.0 107.0C234.0 105.89543 234.89543 105.0 236.0 105.0L269.0 105.0C270.10458 105.0 271.0 105.89543 271.0 107.0Z" fill-rule="nonzero"/><path fill="#a4c2f4" clip-path="url(#id_0)" d="M271.0 332.0L234.0 332.0L234.0 107.0C234.0 105.89543 234.89543 105.0 236.0 105.0L269.0 105.0C270.10458 105.0 271.0 105.89543 271.0 107.0Z" fill-rule="nonzero"/><path stroke="#000000" stroke-width="0.0" stroke-linecap="butt" stroke-opacity="0.0" clip-path="url(#id_0)" d="M386.0 332.0L349.0 332.0L349.0 318.0C349.0 316.89542 349.89542 316.0 351.0 316.0L384.0 316.0C385.10458 316.0 386.0 316.89542 386.0 318.0Z" fill-rule="nonzero"/><path fill="#a4c2f4" clip-path="url(#id_0)" d="M386.0 332.0L349.0 332.0L349.0 318.0C349.0 316.89542 349.89542 316.0 351.0 316.0L384.0 316.0C385.10458 316.0 386.0 316.89542 386.0 318.0Z" fill-rule="nonzero"/><path stroke="#000000" stroke-width="0.0" stroke-linecap="butt" stroke-opacity="0.0" clip-path="url(#id_0)" d="M502.0 332.0L465.0 332.0L465.0 221.0C465.0 219.89543 465.89542 219.0 467.0 219.0L500.0 219.0C501.10458 219.0 502.0 219.89543 502.0 221.0Z" fill-rule="nonzero"/><path fill="#a4c2f4" clip-path="url(#id_0)" d="M502.0 332.0L465.0 332.0L465.0 221.0C465.0 219.89543 465.89542 219.0 467.0 219.0L500.0 219.0C501.10458 219.0 502.0 219.89543 502.0 221.0Z" fill-rule="nonzero"/><path stroke="#000000" stroke-width="0.0" stroke-linecap="butt" stroke-opacity="0.0" clip-path="url(#id_0)" d="M193.0 332.0L156.0 332.0L156.0 302.0C156.0 300.89542 156.89543 300.0 158.0 300.0L191.0 300.0C192.10457 300.0 193.0 300.89542 193.0 302.0Z" fill-rule="nonzero"/><path fill="#ffd966" clip-path="url(#id_0)" d="M193.0 332.0L156.0 332.0L156.0 302.0C156.0 300.89542 156.89543 300.0 158.0 300.0L191.0 300.0C192.10457 300.0 193.0 300.89542 193.0 302.0Z" fill-rule="nonzero"/><path stroke="#000000" stroke-width="0.0" stroke-linecap="butt" stroke-opacity="0.0" clip-path="url(#id_0)" d="M309.0 332.0L272.0 332.0L272.0 188.0C272.0 186.89543 272.89542 186.0 274.0 186.0L307.0 186.0C308.10458 186.0 309.0 186.89543 309.0 188.0Z" fill-rule="nonzero"/><path fill="#ffd966" clip-path="url(#id_0)" d="M309.0 332.0L272.0 332.0L272.0 188.0C272.0 186.89543 272.89542 186.0 274.0 186.0L307.0 186.0C308.10458 186.0 309.0 186.89543 309.0 188.0Z" fill-rule="nonzero"/><path stroke="#000000" stroke-width="0.0" stroke-linecap="butt" stroke-opacity="0.0" clip-path="url(#id_0)" d="M424.0 332.0L387.0 332.0L387.0 302.0C387.0 300.89542 387.89542 300.0 389.0 300.0L422.0 300.0C423.10458 300.0 424.0 300.89542 424.0 302.0Z" fill-rule="nonzero"/><path fill="#ffd966" clip-path="url(#id_0)" d="M424.0 332.0L387.0 332.0L387.0 302.0C387.0 300.89542 387.89542 300.0 389.0 300.0L422.0 300.0C423.10458 300.0 424.0 300.89542 424.0 302.0Z" fill-rule="nonzero"/><path stroke="#000000" stroke-width="0.0" stroke-linecap="butt" stroke-opacity="0.0" clip-path="url(#id_0)" d="M540.0 332.0L503.0 332.0L503.0 302.0C503.0 300.89542 503.89542 300.0 505.0 300.0L538.0 300.0C539.10455 300.0 540.0 300.89542 540.0 302.0Z" fill-rule="nonzero"/><path fill="#ffd966" clip-path="url(#id_0)" d="M540.0 332.0L503.0 332.0L503.0 302.0C503.0 300.89542 503.89542 300.0 505.0 300.0L538.0 300.0C539.10455 300.0 540.0 300.89542 540.0 302.0Z" fill-rule="nonzero"/><path fill="#000000" d="M29.550013 259.4448L20.956263 259.4448L20.956263 258.28854L27.706263 253.77292L20.956263 253.77292L20.956263 252.67917L29.550013 252.67917L29.550013 253.85104L22.800013 258.36667L29.550013 258.36667L29.550013 259.4448ZM29.550013 246.49167L28.628138 246.49167Q29.690638 247.22604 29.690638 248.47604Q29.690638 249.02292 29.487513 249.5073Q29.268763 249.97604 28.956263 250.21042Q28.628138 250.4448 28.159388 250.53854Q27.862513 250.60104 27.175013 250.60104L23.331263 250.60104L23.331263 249.53854L26.784388 249.53854Q27.596888 249.53854 27.893763 249.47604Q28.300013 249.3823 28.550013 249.0698Q28.784388 248.74167 28.784388 248.2573Q28.784388 247.78854 28.550013 247.3823Q28.300013 246.96042 27.878138 246.78854Q27.456263 246.60104 26.659388 246.60104L23.331263 246.60104L23.331263 245.55417L29.550013 245.55417L29.550013 246.49167ZM29.550013 243.5698L23.331263 243.5698L23.331263 242.6323L24.206263 242.6323Q23.737513 242.33542 23.471888 241.85104Q23.190638 241.36667 23.190638 240.74167Q23.190638 240.05417 23.471888 239.61667Q23.753138 239.16354 24.268763 238.99167Q23.190638 238.24167 23.190638 237.0698Q23.190638 236.1323 23.706263 235.64792Q24.206263 235.14792 25.284388 235.14792L29.550013 235.14792L29.550013 236.1948L25.628138 236.1948Q25.003138 236.1948 24.721888 236.30417Q24.440638 236.39792 24.268763 236.66354Q24.096888 236.92917 24.096888 237.30417Q24.096888 237.96042 24.534388 238.39792Q24.971888 238.8198 25.940638 238.8198L29.550013 238.8198L29.550013 239.8823L25.503138 239.8823Q24.800013 239.8823 24.456263 240.14792Q24.096888 240.39792 24.096888 240.97604Q24.096888 241.42917 24.331263 241.80417Q24.565638 242.17917 25.018763 242.35104Q25.471888 242.52292 26.315638 242.52292L29.550013 242.52292L29.550013 243.5698ZM29.550013 232.60104L29.550013 233.58542L20.956263 233.58542L20.956263 232.52292L24.018763 232.52292Q23.190638 231.85104 23.190638 230.8198Q23.190638 230.24167 23.425013 229.74167Q23.643763 229.22604 24.065638 228.89792Q24.487513 228.55417 25.081263 228.36667Q25.675013 228.17917 26.346888 228.17917Q27.940638 228.17917 28.815638 228.97604Q29.690638 229.77292 29.690638 230.86667Q29.690638 231.97604 28.768763 232.60104L29.550013 232.60104ZM26.393763 232.61667Q27.503138 232.61667 28.003138 232.30417Q28.815638 231.80417 28.815638 230.96042Q28.815638 230.27292 28.221888 229.77292Q27.628138 229.2573 26.425013 229.2573Q25.206263 229.2573 24.628138 229.74167Q24.050013 230.22604 24.050013 230.91354Q24.050013 231.60104 24.659388 232.11667Q25.253138 232.61667 26.393763 232.61667ZM27.550013 222.3198L27.675013 221.22604Q28.628138 221.47604 29.159388 222.17917Q29.690638 222.8823 29.690638 223.96042Q29.690638 225.3198 28.846888 226.1323Q28.003138 226.92917 26.487513 226.92917Q24.925013 226.92917 24.065638 226.11667Q23.190638 225.30417 23.190638 224.02292Q23.190638 222.77292 24.034388 221.99167Q24.878138 221.1948 26.425013 221.1948Q26.518763 221.1948 26.706263 221.1948L26.706263 225.83542Q27.737513 225.77292 28.284388 225.2573Q28.815638 224.74167 28.815638 223.96042Q28.815638 223.3823 28.518763 222.97604Q28.206263 222.55417 27.550013 222.3198ZM25.846888 225.77292L25.846888 222.30417Q25.050013 222.36667 24.659388 222.6948Q24.050013 223.21042 24.050013 224.0073Q24.050013 224.74167 24.534388 225.24167Q25.018763 225.72604 25.846888 225.77292ZM29.550013 219.58542L23.331263 219.58542L23.331263 218.6323L24.268763 218.6323Q23.612513 218.27292 23.409388 217.97604Q23.190638 217.66354 23.190638 217.28854Q23.190638 216.7573 23.518763 216.21042L24.503138 216.5698Q24.268763 216.96042 24.268763 217.33542Q24.268763 217.6948 24.487513 217.97604Q24.690638 218.24167 25.065638 218.35104Q25.628138 218.53854 26.284388 218.53854L29.550013 218.53854L29.550013 219.58542ZM26.440638 212.96042Q24.706263 212.96042 23.878138 212.0073Q23.190638 211.21042 23.190638 210.05417Q23.190638 208.77292 24.034388 207.96042Q24.862513 207.1323 26.346888 207.1323Q27.550013 207.1323 28.237513 207.49167Q28.925013 207.85104 29.315638 208.55417Q29.690638 209.24167 29.690638 210.05417Q29.690638 211.35104 28.862513 212.16354Q28.018763 212.96042 26.440638 212.96042ZM26.440638 211.8823Q27.628138 211.8823 28.221888 211.36667Q28.815638 210.83542 28.815638 210.05417Q28.815638 209.2573 28.221888 208.74167Q27.628138 208.22604 26.409388 208.22604Q25.253138 208.22604 24.659388 208.7573Q24.065638 209.27292 24.065638 210.05417Q24.065638 210.83542 24.659388 211.36667Q25.237513 211.8823 26.440638 211.8823ZM29.550013 205.3198L24.143763 205.3198L24.143763 206.2573L23.331263 206.2573L23.331263 205.3198L22.659388 205.3198Q22.034388 205.3198 21.737513 205.21042Q21.315638 205.05417 21.065638 204.67917Q20.815638 204.28854 20.815638 203.60104Q20.815638 203.14792 20.925013 202.61667L21.831263 202.77292Q21.784388 203.10104 21.784388 203.39792Q21.784388 203.8823 21.987513 204.08542Q22.190638 204.27292 22.753138 204.27292L23.331263 204.27292L23.331263 203.05417L24.143763 203.05417L24.143763 204.27292L29.550013 204.27292L29.550013 205.3198ZM28.784388 195.5073Q29.284388 196.10104 29.487513 196.64792Q29.690638 197.17917 29.690638 197.80417Q29.690638 198.83542 29.190638 199.3823Q28.690638 199.92917 27.909388 199.92917Q27.456263 199.92917 27.081263 199.72604Q26.690638 199.52292 26.471888 199.17917Q26.237513 198.83542 26.128138 198.41354Q26.034388 198.11667 25.956263 197.47604Q25.815638 196.21042 25.596888 195.60104Q25.378138 195.60104 25.331263 195.60104Q24.675013 195.60104 24.409388 195.89792Q24.065638 196.30417 24.065638 197.10104Q24.065638 197.83542 24.331263 198.1948Q24.581263 198.55417 25.237513 198.72604L25.096888 199.7573Q24.440638 199.61667 24.034388 199.28854Q23.628138 198.96042 23.409388 198.35104Q23.190638 197.74167 23.190638 196.9448Q23.190638 196.14792 23.378138 195.64792Q23.565638 195.14792 23.846888 194.91354Q24.128138 194.67917 24.565638 194.58542Q24.831263 194.53854 25.534388 194.53854L26.940638 194.53854Q28.409388 194.53854 28.800013 194.47604Q29.190638 194.39792 29.550013 194.1948L29.550013 195.30417Q29.221888 195.46042 28.784388 195.5073ZM26.425013 195.60104Q26.659388 196.17917 26.831263 197.3198Q26.925013 197.97604 27.050013 198.24167Q27.159388 198.5073 27.378138 198.66354Q27.596888 198.80417 27.878138 198.80417Q28.300013 198.80417 28.581263 198.49167Q28.862513 198.16354 28.862513 197.55417Q28.862513 196.9448 28.596888 196.47604Q28.331263 195.99167 27.862513 195.77292Q27.503138 195.60104 26.815638 195.60104L26.425013 195.60104ZM31.940638 192.5698L23.331263 192.5698L23.331263 191.61667L24.128138 191.61667Q23.659388 191.27292 23.425013 190.85104Q23.190638 190.41354 23.190638 189.80417Q23.190638 189.0073 23.596888 188.39792Q24.003138 187.78854 24.753138 187.49167Q25.503138 187.17917 26.393763 187.17917Q27.346888 187.17917 28.112513 187.52292Q28.878138 187.85104 29.284388 188.5073Q29.690638 189.16354 29.690638 189.8823Q29.690638 190.41354 29.471888 190.83542Q29.237513 191.2573 28.909388 191.52292L31.940638 191.52292L31.940638 192.5698ZM26.471888 191.61667Q27.675013 191.61667 28.253138 191.1323Q28.815638 190.64792 28.815638 189.96042Q28.815638 189.2573 28.221888 188.7573Q27.628138 188.2573 26.378138 188.2573Q25.190638 188.2573 24.612513 188.74167Q24.018763 189.22604 24.018763 189.91354Q24.018763 190.58542 24.643763 191.10104Q25.268763 191.61667 26.471888 191.61667ZM31.940638 185.5698L23.331263 185.5698L23.331263 184.61667L24.128138 184.61667Q23.659388 184.27292 23.425013 183.85104Q23.190638 183.41354 23.190638 182.80417Q23.190638 182.0073 23.596888 181.39792Q24.003138 180.78854 24.753138 180.49167Q25.503138 180.17917 26.393763 180.17917Q27.346888 180.17917 28.112513 180.52292Q28.878138 180.85104 29.284388 181.5073Q29.690638 182.16354 29.690638 182.8823Q29.690638 183.41354 29.471888 183.83542Q29.237513 184.2573 28.909388 184.52292L31.940638 184.52292L31.940638 185.5698ZM26.471888 184.61667Q27.675013 184.61667 28.253138 184.1323Q28.815638 183.64792 28.815638 182.96042Q28.815638 182.2573 28.221888 181.7573Q27.628138 181.2573 26.378138 181.2573Q25.190638 181.2573 24.612513 181.74167Q24.018763 182.22604 24.018763 182.91354Q24.018763 183.58542 24.643763 184.10104Q25.268763 184.61667 26.471888 184.61667ZM27.690638 178.99167L27.534388 177.96042Q28.159388 177.86667 28.487513 177.47604Q28.815638 177.0698 28.815638 176.33542Q28.815638 175.61667 28.534388 175.27292Q28.237513 174.91354 27.831263 174.91354Q27.471888 174.91354 27.268763 175.22604Q27.128138 175.4448 26.909388 176.30417Q26.612513 177.46042 26.409388 177.91354Q26.190638 178.35104 25.815638 178.58542Q25.440638 178.8198 24.971888 178.8198Q24.565638 178.8198 24.206263 178.6323Q23.846888 178.4448 23.612513 178.11667Q23.440638 177.86667 23.315638 177.4448Q23.190638 177.02292 23.190638 176.52292Q23.190638 175.80417 23.409388 175.2573Q23.612513 174.6948 23.971888 174.42917Q24.331263 174.16354 24.925013 174.0698L25.065638 175.10104Q24.596888 175.16354 24.331263 175.5073Q24.050013 175.83542 24.050013 176.46042Q24.050013 177.17917 24.300013 177.49167Q24.534388 177.80417 24.862513 177.80417Q25.065638 177.80417 25.221888 177.67917Q25.393763 177.53854 25.503138 177.27292Q25.565638 177.11667 25.768763 176.33542Q26.081263 175.21042 26.268763 174.77292Q26.456263 174.33542 26.815638 174.08542Q27.175013 173.83542 27.721888 173.83542Q28.253138 173.83542 28.721888 174.14792Q29.175013 174.4448 29.440638 175.02292Q29.690638 175.60104 29.690638 176.33542Q29.690638 177.55417 29.190638 178.1948Q28.675013 178.8198 27.690638 178.99167Z" fill-rule="nonzero"/><path fill="#000000" d="M65.05 332.21564Q65.05 330.6844 65.3625 329.7625Q65.675 328.825 66.28438 328.325Q66.90938 327.825 67.84688 327.825Q68.53438 327.825 69.05 328.10626Q69.58125 328.3875 69.925 328.91876Q70.26875 329.4344 70.45625 330.1844Q70.64375 330.9344 70.64375 332.21564Q70.64375 333.73126 70.33125 334.65314Q70.03438 335.575 69.40938 336.09064Q68.8 336.59064 67.84688 336.59064Q66.6125 336.59064 65.89375 335.7Q65.05 334.6375 65.05 332.21564ZM66.12813 332.21564Q66.12813 334.325 66.62813 335.02814Q67.12813 335.73126 67.84688 335.73126Q68.58125 335.73126 69.06563 335.02814Q69.56563 334.325 69.56563 332.21564Q69.56563 330.09064 69.06563 329.40314Q68.58125 328.7 67.83125 328.7Q67.1125 328.7 66.675 329.3094Q66.12813 330.09064 66.12813 332.21564Z" fill-rule="nonzero"/><path fill="#000000" d="M65.05 252.81111L66.15938 252.71736Q66.28438 253.52986 66.72188 253.93611Q67.175 254.34236 67.81563 254.34236Q68.56563 254.34236 69.09688 253.76424Q69.62813 253.18611 69.62813 252.24861Q69.62813 251.34236 69.1125 250.82674Q68.6125 250.29549 67.78438 250.29549Q67.28438 250.29549 66.8625 250.52986Q66.45625 250.76424 66.22188 251.12361L65.2375 250.99861L66.06563 246.59236L70.34688 246.59236L70.34688 247.59236L66.90938 247.59236L66.45625 249.90486Q67.22188 249.35799 68.06563 249.35799Q69.19063 249.35799 69.95625 250.13924Q70.7375 250.92049 70.7375 252.15486Q70.7375 253.31111 70.06563 254.17049Q69.2375 255.20174 67.81563 255.20174Q66.64375 255.20174 65.89375 254.54549Q65.15938 253.88924 65.05 252.81111Z" fill-rule="nonzero"/><path fill="#000000" d="M62.01875 173.67223L60.971874 173.67223L60.971874 166.95348Q60.58125 167.31285 59.95625 167.68785Q59.346874 168.04723 58.8625 168.2191L58.8625 167.20348Q59.7375 166.7816 60.39375 166.20348Q61.065624 165.60973 61.346874 165.04723L62.01875 165.04723L62.01875 173.67223ZM65.05 169.43785Q65.05 167.9066 65.3625 166.98473Q65.675 166.04723 66.28438 165.54723Q66.90938 165.04723 67.84688 165.04723Q68.53438 165.04723 69.05 165.32848Q69.58125 165.60973 69.925 166.14098Q70.26875 166.6566 70.45625 167.4066Q70.64375 168.1566 70.64375 169.43785Q70.64375 170.95348 70.33125 171.87535Q70.03438 172.79723 69.40938 173.31285Q68.8 173.81285 67.84688 173.81285Q66.6125 173.81285 65.89375 172.92223Q65.05 171.85973 65.05 169.43785ZM66.12813 169.43785Q66.12813 171.54723 66.62813 172.25035Q67.12813 172.95348 67.84688 172.95348Q68.58125 172.95348 69.06563 172.25035Q69.56563 171.54723 69.56563 169.43785Q69.56563 167.31285 69.06563 166.62535Q68.58125 165.92223 67.83125 165.92223Q67.1125 165.92223 66.675 166.5316Q66.12813 167.31285 66.12813 169.43785Z" fill-rule="nonzero"/><path fill="#000000" d="M62.01875 92.28333L60.971874 92.28333L60.971874 85.56458Q60.58125 85.92396 59.95625 86.29896Q59.346874 86.65833 58.8625 86.83021L58.8625 85.81458Q59.7375 85.39271 60.39375 84.81458Q61.065624 84.22083 61.346874 83.65833L62.01875 83.65833L62.01875 92.28333ZM65.05 90.03333L66.15938 89.93958Q66.28438 90.75208 66.72188 91.15833Q67.175 91.56458 67.81563 91.56458Q68.56563 91.56458 69.09688 90.98646Q69.62813 90.40833 69.62813 89.47083Q69.62813 88.56458 69.1125 88.04896Q68.6125 87.51771 67.78438 87.51771Q67.28438 87.51771 66.8625 87.75208Q66.45625 87.98646 66.22188 88.34583L65.2375 88.22083L66.06563 83.81458L70.34688 83.81458L70.34688 84.81458L66.90938 84.81458L66.45625 87.12708Q67.22188 86.58021 68.06563 86.58021Q69.19063 86.58021 69.95625 87.36146Q70.7375 88.14271 70.7375 89.37708Q70.7375 90.53333 70.06563 91.39271Q69.2375 92.42396 67.81563 92.42396Q66.64375 92.42396 65.89375 91.76771Q65.15938 91.11146 65.05 90.03333Z" fill-rule="nonzero"/><path fill="#000000" d="M130.61638 349.45L130.61638 340.85626L133.85075 340.85626Q134.83513 340.85626 135.42888 341.1219Q136.02263 341.3875 136.35075 341.9344Q136.6945 342.46564 136.6945 343.0594Q136.6945 343.60626 136.39763 344.09064Q136.10075 344.575 135.49138 344.8719Q136.27263 345.10626 136.67888 345.66876Q137.10075 346.21564 137.10075 346.96564Q137.10075 347.5594 136.85075 348.09064Q136.60075 348.60626 136.22575 348.8875Q135.85075 349.16876 135.27263 349.3094Q134.71013 349.45 133.89763 349.45L130.61638 349.45ZM131.757 344.46564L133.61638 344.46564Q134.36638 344.46564 134.6945 344.3719Q135.132 344.2469 135.35075 343.95Q135.5695 343.6375 135.5695 343.1844Q135.5695 342.7625 135.36638 342.4344Q135.16325 342.10626 134.77263 341.9969Q134.39763 341.8719 133.47575 341.8719L131.757 341.8719L131.757 344.46564ZM131.757 348.4344L133.89763 348.4344Q134.4445 348.4344 134.66325 348.3875Q135.0695 348.325 135.3195 348.16876Q135.58513 347.9969 135.757 347.6844Q135.92888 347.3719 135.92888 346.96564Q135.92888 346.48126 135.67888 346.1219Q135.4445 345.7625 135.007 345.6219Q134.5695 345.48126 133.74138 345.48126L131.757 345.48126L131.757 348.4344ZM138.507 349.45L138.507 340.85626L139.5695 340.85626L139.5695 349.45L138.507 349.45ZM145.61638 349.45L145.61638 348.52814Q144.882 349.59064 143.632 349.59064Q143.08513 349.59064 142.60075 349.3875Q142.132 349.16876 141.89763 348.85626Q141.66325 348.52814 141.5695 348.0594Q141.507 347.7625 141.507 347.075L141.507 343.23126L142.5695 343.23126L142.5695 346.6844Q142.5695 347.4969 142.632 347.79376Q142.72575 348.2 143.03825 348.45Q143.36638 348.6844 143.85075 348.6844Q144.3195 348.6844 144.72575 348.45Q145.14763 348.2 145.3195 347.77814Q145.507 347.35626 145.507 346.5594L145.507 343.23126L146.55388 343.23126L146.55388 349.45L145.61638 349.45ZM152.78825 347.45L153.882 347.575Q153.632 348.52814 152.92888 349.0594Q152.22575 349.59064 151.14763 349.59064Q149.78825 349.59064 148.97575 348.7469Q148.17888 347.90314 148.17888 346.3875Q148.17888 344.825 148.99138 343.96564Q149.80388 343.09064 151.08513 343.09064Q152.33513 343.09064 153.11638 343.9344Q153.91325 344.77814 153.91325 346.325Q153.91325 346.41876 153.91325 346.60626L149.27263 346.60626Q149.33513 347.6375 149.85075 348.1844Q150.36638 348.71564 151.14763 348.71564Q151.72575 348.71564 152.132 348.41876Q152.55388 348.10626 152.78825 347.45ZM149.33513 345.7469L152.80388 345.7469Q152.74138 344.95 152.41325 344.5594Q151.89763 343.95 151.10075 343.95Q150.36638 343.95 149.86638 344.4344Q149.382 344.91876 149.33513 345.7469ZM157.83513 348.5125L157.99138 349.4344Q157.53825 349.52814 157.1945 349.52814Q156.61638 349.52814 156.30388 349.35626Q155.99138 349.16876 155.85075 348.8719Q155.72575 348.575 155.72575 347.6219L155.72575 344.04376L154.96013 344.04376L154.96013 343.23126L155.72575 343.23126L155.72575 341.6844L156.77263 341.0594L156.77263 343.23126L157.83513 343.23126L157.83513 344.04376L156.77263 344.04376L156.77263 347.6844Q156.77263 348.1375 156.8195 348.2625Q156.882 348.3875 157.007 348.46564Q157.132 348.54376 157.36638 348.54376Q157.55388 348.54376 157.83513 348.5125ZM158.14763 346.34064Q158.14763 344.60626 159.10075 343.77814Q159.89763 343.09064 161.05388 343.09064Q162.33513 343.09064 163.14763 343.9344Q163.97575 344.7625 163.97575 346.2469Q163.97575 347.45 163.61638 348.1375Q163.257 348.825 162.55388 349.21564Q161.86638 349.59064 161.05388 349.59064Q159.757 349.59064 158.9445 348.7625Q158.14763 347.91876 158.14763 346.34064ZM159.22575 346.34064Q159.22575 347.52814 159.74138 348.1219Q160.27263 348.71564 161.05388 348.71564Q161.85075 348.71564 162.36638 348.1219Q162.882 347.52814 162.882 346.3094Q162.882 345.15314 162.35075 344.5594Q161.83513 343.96564 161.05388 343.96564Q160.27263 343.96564 159.74138 344.5594Q159.22575 345.1375 159.22575 346.34064ZM165.14763 346.34064Q165.14763 344.60626 166.10075 343.77814Q166.89763 343.09064 168.05388 343.09064Q169.33513 343.09064 170.14763 343.9344Q170.97575 344.7625 170.97575 346.2469Q170.97575 347.45 170.61638 348.1375Q170.257 348.825 169.55388 349.21564Q168.86638 349.59064 168.05388 349.59064Q166.757 349.59064 165.9445 348.7625Q165.14763 347.91876 165.14763 346.34064ZM166.22575 346.34064Q166.22575 347.52814 166.74138 348.1219Q167.27263 348.71564 168.05388 348.71564Q168.85075 348.71564 169.36638 348.1219Q169.882 347.52814 169.882 346.3094Q169.882 345.15314 169.35075 344.5594Q168.83513 343.96564 168.05388 343.96564Q167.27263 343.96564 166.74138 344.5594Q166.22575 345.1375 166.22575 346.34064ZM174.83513 348.5125L174.99138 349.4344Q174.53825 349.52814 174.1945 349.52814Q173.61638 349.52814 173.30388 349.35626Q172.99138 349.16876 172.85075 348.8719Q172.72575 348.575 172.72575 347.6219L172.72575 344.04376L171.96013 344.04376L171.96013 343.23126L172.72575 343.23126L172.72575 341.6844L173.77263 341.0594L173.77263 343.23126L174.83513 343.23126L174.83513 344.04376L173.77263 344.04376L173.77263 347.6844Q173.77263 348.1375 173.8195 348.2625Q173.882 348.3875 174.007 348.46564Q174.132 348.54376 174.36638 348.54376Q174.55388 348.54376 174.83513 348.5125ZM175.53825 349.45L175.53825 340.85626L176.58513 340.85626L176.58513 343.9344Q177.3195 343.09064 178.4445 343.09064Q179.14763 343.09064 179.64763 343.3719Q180.16325 343.6375 180.382 344.1219Q180.60075 344.59064 180.60075 345.5125L180.60075 349.45L179.55388 349.45L179.55388 345.5125Q179.55388 344.71564 179.21013 344.35626Q178.86638 343.9969 178.24138 343.9969Q177.77263 343.9969 177.35075 344.2469Q176.9445 344.48126 176.757 344.90314Q176.58513 345.3094 176.58513 346.04376L176.58513 349.45L175.53825 349.45Z" fill-rule="nonzero"/><path fill="#000000" d="M264.0336 346.075L264.0336 345.075L267.6586 345.0594L267.6586 348.2469Q266.83047 348.91876 265.93985 349.2625Q265.04922 349.59064 264.11172 349.59064Q262.8461 349.59064 261.79922 349.0594Q260.76797 348.5125 260.23672 347.4969Q259.7211 346.46564 259.7211 345.2Q259.7211 343.9344 260.23672 342.85626Q260.76797 341.7625 261.75235 341.2469Q262.73672 340.71564 264.01797 340.71564Q264.95547 340.71564 265.70547 341.0125Q266.45547 341.3094 266.87735 341.85626Q267.31485 342.3875 267.5336 343.2625L266.51797 343.54376Q266.31485 342.8875 266.01797 342.5125Q265.73672 342.1375 265.20547 341.91876Q264.67422 341.6844 264.0336 341.6844Q263.25235 341.6844 262.67422 341.91876Q262.11172 342.15314 261.75235 342.54376Q261.4086 342.9344 261.2211 343.40314Q260.89297 344.2 260.89297 345.1219Q260.89297 346.27814 261.2836 347.0594Q261.68985 347.825 262.43985 348.2Q263.18985 348.575 264.04922 348.575Q264.7836 348.575 265.48672 348.29376Q266.18985 347.9969 266.54922 347.6844L266.54922 346.075L264.0336 346.075ZM269.00235 349.45L269.00235 340.85626L272.25235 340.85626Q273.0961 340.85626 273.54922 340.9344Q274.18985 341.04376 274.61172 341.34064Q275.04922 341.6375 275.29922 342.16876Q275.56485 342.7 275.56485 343.34064Q275.56485 344.4344 274.86172 345.2Q274.17422 345.95 272.3461 345.95L270.14297 345.95L270.14297 349.45L269.00235 349.45ZM270.14297 344.95L272.36172 344.95Q273.4711 344.95 273.92422 344.54376Q274.39297 344.1219 274.39297 343.3719Q274.39297 342.84064 274.11172 342.46564Q273.8461 342.075 273.4086 341.95Q273.11172 341.8719 272.3461 341.8719L270.14297 341.8719L270.14297 344.95ZM276.62735 346.6844L277.68985 346.59064Q277.76797 347.2469 278.04922 347.65314Q278.33047 348.0594 278.9086 348.325Q279.50235 348.575 280.23672 348.575Q280.87735 348.575 281.37735 348.3875Q281.87735 348.1844 282.11172 347.85626Q282.36172 347.5125 282.36172 347.1219Q282.36172 346.71564 282.12735 346.41876Q281.89297 346.10626 281.36172 345.90314Q281.00235 345.7625 279.81485 345.48126Q278.64297 345.2 278.17422 344.95Q277.54922 344.6219 277.25235 344.15314Q276.95547 343.66876 276.95547 343.075Q276.95547 342.4344 277.31485 341.8719Q277.68985 341.29376 278.39297 341.0125Q279.11172 340.71564 279.9711 340.71564Q280.92422 340.71564 281.6586 341.02814Q282.39297 341.325 282.7836 341.9344Q283.17422 342.52814 283.20547 343.27814L282.11172 343.35626Q282.01797 342.54376 281.50235 342.1375Q281.00235 341.71564 280.01797 341.71564Q278.98672 341.71564 278.51797 342.09064Q278.04922 342.46564 278.04922 342.9969Q278.04922 343.46564 278.37735 343.7625Q278.70547 344.0594 280.08047 344.3719Q281.4711 344.6844 281.98672 344.91876Q282.73672 345.27814 283.0961 345.8094Q283.45547 346.325 283.45547 347.02814Q283.45547 347.71564 283.06485 348.325Q282.67422 348.91876 281.93985 349.2625Q281.20547 349.59064 280.2836 349.59064Q279.11172 349.59064 278.31485 349.2625Q277.5336 348.91876 277.08047 348.23126Q276.64297 347.54376 276.62735 346.6844Z" fill-rule="nonzero"/><path fill="#000000" d="M346.29453 349.45L346.29453 340.85626L349.5289 340.85626Q350.51328 340.85626 351.10703 341.1219Q351.70078 341.3875 352.0289 341.9344Q352.37265 342.46564 352.37265 343.0594Q352.37265 343.60626 352.07578 344.09064Q351.7789 344.575 351.16953 344.8719Q351.95078 345.10626 352.35703 345.66876Q352.7789 346.21564 352.7789 346.96564Q352.7789 347.5594 352.5289 348.09064Q352.2789 348.60626 351.9039 348.8875Q351.5289 349.16876 350.95078 349.3094Q350.38828 349.45 349.57578 349.45L346.29453 349.45ZM347.43515 344.46564L349.29453 344.46564Q350.04453 344.46564 350.37265 344.3719Q350.81015 344.2469 351.0289 343.95Q351.24765 343.6375 351.24765 343.1844Q351.24765 342.7625 351.04453 342.4344Q350.8414 342.10626 350.45078 341.9969Q350.07578 341.8719 349.1539 341.8719L347.43515 341.8719L347.43515 344.46564ZM347.43515 348.4344L349.57578 348.4344Q350.12265 348.4344 350.3414 348.3875Q350.74765 348.325 350.99765 348.16876Q351.26328 347.9969 351.43515 347.6844Q351.60703 347.3719 351.60703 346.96564Q351.60703 346.48126 351.35703 346.1219Q351.12265 345.7625 350.68515 345.6219Q350.24765 345.48126 349.41953 345.48126L347.43515 345.48126L347.43515 348.4344ZM354.18515 349.45L354.18515 340.85626L355.24765 340.85626L355.24765 349.45L354.18515 349.45ZM361.29453 349.45L361.29453 348.52814Q360.56015 349.59064 359.31015 349.59064Q358.76328 349.59064 358.2789 349.3875Q357.81015 349.16876 357.57578 348.85626Q357.3414 348.52814 357.24765 348.0594Q357.18515 347.7625 357.18515 347.075L357.18515 343.23126L358.24765 343.23126L358.24765 346.6844Q358.24765 347.4969 358.31015 347.79376Q358.4039 348.2 358.7164 348.45Q359.04453 348.6844 359.5289 348.6844Q359.99765 348.6844 360.4039 348.45Q360.82578 348.2 360.99765 347.77814Q361.18515 347.35626 361.18515 346.5594L361.18515 343.23126L362.23203 343.23126L362.23203 349.45L361.29453 349.45ZM368.4664 347.45L369.56015 347.575Q369.31015 348.52814 368.60703 349.0594Q367.9039 349.59064 366.82578 349.59064Q365.4664 349.59064 364.6539 348.7469Q363.85703 347.90314 363.85703 346.3875Q363.85703 344.825 364.66953 343.96564Q365.48203 343.09064 366.76328 343.09064Q368.01328 343.09064 368.79453 343.9344Q369.5914 344.77814 369.5914 346.325Q369.5914 346.41876 369.5914 346.60626L364.95078 346.60626Q365.01328 347.6375 365.5289 348.1844Q366.04453 348.71564 366.82578 348.71564Q367.4039 348.71564 367.81015 348.41876Q368.23203 348.10626 368.4664 347.45ZM365.01328 345.7469L368.48203 345.7469Q368.41953 344.95 368.0914 344.5594Q367.57578 343.95 366.7789 343.95Q366.04453 343.95 365.54453 344.4344Q365.06015 344.91876 365.01328 345.7469ZM373.51328 348.5125L373.66953 349.4344Q373.2164 349.52814 372.87265 349.52814Q372.29453 349.52814 371.98203 349.35626Q371.66953 349.16876 371.5289 348.8719Q371.4039 348.575 371.4039 347.6219L371.4039 344.04376L370.63828 344.04376L370.63828 343.23126L371.4039 343.23126L371.4039 341.6844L372.45078 341.0594L372.45078 343.23126L373.51328 343.23126L373.51328 344.04376L372.45078 344.04376L372.45078 347.6844Q372.45078 348.1375 372.49765 348.2625Q372.56015 348.3875 372.68515 348.46564Q372.81015 348.54376 373.04453 348.54376Q373.23203 348.54376 373.51328 348.5125ZM373.82578 346.34064Q373.82578 344.60626 374.7789 343.77814Q375.57578 343.09064 376.73203 343.09064Q378.01328 343.09064 378.82578 343.9344Q379.6539 344.7625 379.6539 346.2469Q379.6539 347.45 379.29453 348.1375Q378.93515 348.825 378.23203 349.21564Q377.54453 349.59064 376.73203 349.59064Q375.43515 349.59064 374.62265 348.7625Q373.82578 347.91876 373.82578 346.34064ZM374.9039 346.34064Q374.9039 347.52814 375.41953 348.1219Q375.95078 348.71564 376.73203 348.71564Q377.5289 348.71564 378.04453 348.1219Q378.56015 347.52814 378.56015 346.3094Q378.56015 345.15314 378.0289 344.5594Q377.51328 343.96564 376.73203 343.96564Q375.95078 343.96564 375.41953 344.5594Q374.9039 345.1375 374.9039 346.34064ZM380.82578 346.34064Q380.82578 344.60626 381.7789 343.77814Q382.57578 343.09064 383.73203 343.09064Q385.01328 343.09064 385.82578 343.9344Q386.6539 344.7625 386.6539 346.2469Q386.6539 347.45 386.29453 348.1375Q385.93515 348.825 385.23203 349.21564Q384.54453 349.59064 383.73203 349.59064Q382.43515 349.59064 381.62265 348.7625Q380.82578 347.91876 380.82578 346.34064ZM381.9039 346.34064Q381.9039 347.52814 382.41953 348.1219Q382.95078 348.71564 383.73203 348.71564Q384.5289 348.71564 385.04453 348.1219Q385.56015 347.52814 385.56015 346.3094Q385.56015 345.15314 385.0289 344.5594Q384.51328 343.96564 383.73203 343.96564Q382.95078 343.96564 382.41953 344.5594Q381.9039 345.1375 381.9039 346.34064ZM390.51328 348.5125L390.66953 349.4344Q390.2164 349.52814 389.87265 349.52814Q389.29453 349.52814 388.98203 349.35626Q388.66953 349.16876 388.5289 348.8719Q388.4039 348.575 388.4039 347.6219L388.4039 344.04376L387.63828 344.04376L387.63828 343.23126L388.4039 343.23126L388.4039 341.6844L389.45078 341.0594L389.45078 343.23126L390.51328 343.23126L390.51328 344.04376L389.45078 344.04376L389.45078 347.6844Q389.45078 348.1375 389.49765 348.2625Q389.56015 348.3875 389.68515 348.46564Q389.81015 348.54376 390.04453 348.54376Q390.23203 348.54376 390.51328 348.5125ZM391.2164 349.45L391.2164 340.85626L392.26328 340.85626L392.26328 343.9344Q392.99765 343.09064 394.12265 343.09064Q394.82578 343.09064 395.32578 343.3719Q395.8414 343.6375 396.06015 344.1219Q396.2789 344.59064 396.2789 345.5125L396.2789 349.45L395.23203 349.45L395.23203 345.5125Q395.23203 344.71564 394.88828 344.35626Q394.54453 343.9969 393.91953 343.9969Q393.45078 343.9969 393.0289 344.2469Q392.62265 344.48126 392.43515 344.90314Q392.26328 345.3094 392.26328 346.04376L392.26328 349.45L391.2164 349.45ZM400.41953 348.0594L400.41953 345.7L398.0914 345.7L398.0914 344.71564L400.41953 344.71564L400.41953 342.3875L401.41953 342.3875L401.41953 344.71564L403.76328 344.71564L403.76328 345.7L401.41953 345.7L401.41953 348.0594L400.41953 348.0594ZM409.37265 346.075L409.37265 345.075L412.99765 345.0594L412.99765 348.2469Q412.16953 348.91876 411.2789 349.2625Q410.38828 349.59064 409.45078 349.59064Q408.18515 349.59064 407.13828 349.0594Q406.10703 348.5125 405.57578 347.4969Q405.06015 346.46564 405.06015 345.2Q405.06015 343.9344 405.57578 342.85626Q406.10703 341.7625 407.0914 341.2469Q408.07578 340.71564 409.35703 340.71564Q410.29453 340.71564 411.04453 341.0125Q411.79453 341.3094 412.2164 341.85626Q412.6539 342.3875 412.87265 343.2625L411.85703 343.54376Q411.6539 342.8875 411.35703 342.5125Q411.07578 342.1375 410.54453 341.91876Q410.01328 341.6844 409.37265 341.6844Q408.5914 341.6844 408.01328 341.91876Q407.45078 342.15314 407.0914 342.54376Q406.74765 342.9344 406.56015 343.40314Q406.23203 344.2 406.23203 345.1219Q406.23203 346.27814 406.62265 347.0594Q407.0289 347.825 407.7789 348.2Q408.5289 348.575 409.38828 348.575Q410.12265 348.575 410.82578 348.29376Q411.5289 347.9969 411.88828 347.6844L411.88828 346.075L409.37265 346.075ZM414.3414 349.45L414.3414 340.85626L417.5914 340.85626Q418.43515 340.85626 418.88828 340.9344Q419.5289 341.04376 419.95078 341.34064Q420.38828 341.6375 420.63828 342.16876Q420.9039 342.7 420.9039 343.34064Q420.9039 344.4344 420.20078 345.2Q419.51328 345.95 417.68515 345.95L415.48203 345.95L415.48203 349.45L414.3414 349.45ZM415.48203 344.95L417.70078 344.95Q418.81015 344.95 419.26328 344.54376Q419.73203 344.1219 419.73203 343.3719Q419.73203 342.84064 419.45078 342.46564Q419.18515 342.075 418.74765 341.95Q418.45078 341.8719 417.68515 341.8719L415.48203 341.8719L415.48203 344.95ZM421.9664 346.6844L423.0289 346.59064Q423.10703 347.2469 423.38828 347.65314Q423.66953 348.0594 424.24765 348.325Q424.8414 348.575 425.57578 348.575Q426.2164 348.575 426.7164 348.3875Q427.2164 348.1844 427.45078 347.85626Q427.70078 347.5125 427.70078 347.1219Q427.70078 346.71564 427.4664 346.41876Q427.23203 346.10626 426.70078 345.90314Q426.3414 345.7625 425.1539 345.48126Q423.98203 345.2 423.51328 344.95Q422.88828 344.6219 422.5914 344.15314Q422.29453 343.66876 422.29453 343.075Q422.29453 342.4344 422.6539 341.8719Q423.0289 341.29376 423.73203 341.0125Q424.45078 340.71564 425.31015 340.71564Q426.26328 340.71564 426.99765 341.02814Q427.73203 341.325 428.12265 341.9344Q428.51328 342.52814 428.54453 343.27814L427.45078 343.35626Q427.35703 342.54376 426.8414 342.1375Q426.3414 341.71564 425.35703 341.71564Q424.32578 341.71564 423.85703 342.09064Q423.38828 342.46564 423.38828 342.9969Q423.38828 343.46564 423.7164 343.7625Q424.04453 344.0594 425.41953 344.3719Q426.81015 344.6844 427.32578 344.91876Q428.07578 345.27814 428.43515 345.8094Q428.79453 346.325 428.79453 347.02814Q428.79453 347.71564 428.4039 348.325Q428.01328 348.91876 427.2789 349.2625Q426.54453 349.59064 425.62265 349.59064Q424.45078 349.59064 423.6539 349.2625Q422.87265 348.91876 422.41953 348.23126Q421.98203 347.54376 421.9664 346.6844Z" fill-rule="nonzero"/><path fill="#000000" d="M494.18048 349.45L494.18048 340.85626L495.33673 340.85626L499.85236 347.60626L499.85236 340.85626L500.9461 340.85626L500.9461 349.45L499.77423 349.45L495.2586 342.7L495.2586 349.45L494.18048 349.45ZM502.2586 349.59064L504.74298 340.71564L505.58673 340.71564L503.10236 349.59064L502.2586 349.59064ZM505.24298 349.45L508.53986 340.85626L509.7586 340.85626L513.27423 349.45L511.99298 349.45L510.97736 346.84064L507.39923 346.84064L506.4461 349.45L505.24298 349.45ZM507.72736 345.91876L510.6336 345.91876L509.74298 343.54376Q509.3211 342.46564 509.1336 341.7625Q508.96173 342.59064 508.66486 343.40314L507.72736 345.91876Z" fill-rule="nonzero"/><path fill="#a4c2f4" d="M202.0 56.916668C202.0 56.364384 202.44771 55.916668 203.0 55.916668L213.0 55.916668C213.55229 55.916668 214.0 56.364384 214.0 56.916668L214.0 66.916664C214.0 67.46895 213.55229 67.916664 213.0 67.916664L203.0 67.916664C202.44771 67.916664 202.0 67.46895 202.0 66.916664Z" fill-rule="nonzero"/><path fill="#000000" d="M226.95312 62.541664L226.95312 61.541664L230.57812 61.52604L230.57812 64.71354Q229.75 65.385414 228.85938 65.729164Q227.96875 66.05729 227.03125 66.05729Q225.76562 66.05729 224.71875 65.52604Q223.6875 64.979164 223.15625 63.96354Q222.64062 62.93229 222.64062 61.666664Q222.64062 60.40104 223.15625 59.322914Q223.6875 58.229164 224.67188 57.71354Q225.65625 57.18229 226.9375 57.18229Q227.875 57.18229 228.625 57.479164Q229.375 57.77604 229.79688 58.322914Q230.23438 58.854164 230.45312 59.729164L229.4375 60.010414Q229.23438 59.354164 228.9375 58.979164Q228.65625 58.604164 228.125 58.385414Q227.59375 58.15104 226.95312 58.15104Q226.17188 58.15104 225.59375 58.385414Q225.03125 58.61979 224.67188 59.010414Q224.32812 59.40104 224.14062 59.86979Q223.8125 60.666664 223.8125 61.58854Q223.8125 62.74479 224.20312 63.52604Q224.60938 64.291664 225.35938 64.666664Q226.10938 65.041664 226.96875 65.041664Q227.70312 65.041664 228.40625 64.760414Q229.10938 64.46354 229.46875 64.15104L229.46875 62.541664L226.95312 62.541664ZM231.76562 65.916664L231.76562 57.322914L232.82812 57.322914L232.82812 65.916664L231.76562 65.916664ZM234.40625 62.80729Q234.40625 61.072914 235.35938 60.24479Q236.15625 59.55729 237.3125 59.55729Q238.59375 59.55729 239.40625 60.40104Q240.23438 61.229164 240.23438 62.71354Q240.23438 63.916664 239.875 64.604164Q239.51562 65.291664 238.8125 65.68229Q238.125 66.05729 237.3125 66.05729Q236.01562 66.05729 235.20312 65.229164Q234.40625 64.385414 234.40625 62.80729ZM235.48438 62.80729Q235.48438 63.99479 236.0 64.58854Q236.53125 65.18229 237.3125 65.18229Q238.10938 65.18229 238.625 64.58854Q239.14062 63.99479 239.14062 62.77604Q239.14062 61.61979 238.60938 61.02604Q238.09375 60.43229 237.3125 60.43229Q236.53125 60.43229 236.0 61.02604Q235.48438 61.604164 235.48438 62.80729ZM242.76562 65.916664L241.78125 65.916664L241.78125 57.322914L242.84375 57.322914L242.84375 60.385414Q243.51562 59.55729 244.54688 59.55729Q245.125 59.55729 245.625 59.791664Q246.14062 60.010414 246.46875 60.43229Q246.8125 60.854164 247.0 61.447914Q247.1875 62.041664 247.1875 62.71354Q247.1875 64.30729 246.39062 65.18229Q245.59375 66.05729 244.5 66.05729Q243.39062 66.05729 242.76562 65.135414L242.76562 65.916664ZM242.75 62.760414Q242.75 63.86979 243.0625 64.36979Q243.5625 65.18229 244.40625 65.18229Q245.09375 65.18229 245.59375 64.58854Q246.10938 63.99479 246.10938 62.791664Q246.10938 61.572914 245.625 60.99479Q245.14062 60.416664 244.45312 60.416664Q243.76562 60.416664 243.25 61.02604Q242.75 61.61979 242.75 62.760414ZM252.85938 65.15104Q252.26562 65.65104 251.71875 65.854164Q251.1875 66.05729 250.5625 66.05729Q249.53125 66.05729 248.98438 65.55729Q248.4375 65.05729 248.4375 64.27604Q248.4375 63.822914 248.64062 63.447914Q248.84375 63.05729 249.1875 62.83854Q249.53125 62.604164 249.95312 62.49479Q250.25 62.40104 250.89062 62.322914Q252.15625 62.18229 252.76562 61.96354Q252.76562 61.74479 252.76562 61.697914Q252.76562 61.041664 252.46875 60.77604Q252.0625 60.43229 251.26562 60.43229Q250.53125 60.43229 250.17188 60.697914Q249.8125 60.947914 249.64062 61.604164L248.60938 61.46354Q248.75 60.80729 249.07812 60.40104Q249.40625 59.99479 250.01562 59.77604Q250.625 59.55729 251.42188 59.55729Q252.21875 59.55729 252.71875 59.74479Q253.21875 59.93229 253.45312 60.21354Q253.6875 60.49479 253.78125 60.93229Q253.82812 61.197914 253.82812 61.90104L253.82812 63.30729Q253.82812 64.77604 253.89062 65.166664Q253.96875 65.55729 254.17188 65.916664L253.0625 65.916664Q252.90625 65.58854 252.85938 65.15104ZM252.76562 62.791664Q252.1875 63.02604 251.04688 63.197914Q250.39062 63.291664 250.125 63.416664Q249.85938 63.52604 249.70312 63.74479Q249.5625 63.96354 249.5625 64.24479Q249.5625 64.666664 249.875 64.947914Q250.20312 65.229164 250.8125 65.229164Q251.42188 65.229164 251.89062 64.96354Q252.375 64.697914 252.59375 64.229164Q252.76562 63.86979 252.76562 63.18229L252.76562 62.791664ZM255.76562 65.916664L255.76562 57.322914L256.82812 57.322914L256.82812 65.916664L255.76562 65.916664ZM261.92188 65.916664L261.92188 57.322914L263.07812 57.322914L267.59375 64.072914L267.59375 57.322914L268.6875 57.322914L268.6875 65.916664L267.51562 65.916664L263.0 59.166664L263.0 65.916664L261.92188 65.916664ZM270.40625 62.80729Q270.40625 61.072914 271.35938 60.24479Q272.15625 59.55729 273.3125 59.55729Q274.59375 59.55729 275.40625 60.40104Q276.23438 61.229164 276.23438 62.71354Q276.23438 63.916664 275.875 64.604164Q275.51562 65.291664 274.8125 65.68229Q274.125 66.05729 273.3125 66.05729Q272.01562 66.05729 271.20312 65.229164Q270.40625 64.385414 270.40625 62.80729ZM271.48438 62.80729Q271.48438 63.99479 272.0 64.58854Q272.53125 65.18229 273.3125 65.18229Q274.10938 65.18229 274.625 64.58854Q275.14062 63.99479 275.14062 62.77604Q275.14062 61.61979 274.60938 61.02604Q274.09375 60.43229 273.3125 60.43229Q272.53125 60.43229 272.0 61.02604Q271.48438 61.604164 271.48438 62.80729ZM277.78125 65.916664L277.78125 59.697914L278.73438 59.697914L278.73438 60.635414Q279.09375 59.979164 279.39062 59.77604Q279.70312 59.55729 280.07812 59.55729Q280.60938 59.55729 281.15625 59.885414L280.79688 60.86979Q280.40625 60.635414 280.03125 60.635414Q279.67188 60.635414 279.39062 60.854164Q279.125 61.05729 279.01562 61.43229Q278.82812 61.99479 278.82812 62.65104L278.82812 65.916664L277.78125 65.916664ZM284.09375 64.979164L284.25 65.90104Q283.79688 65.99479 283.45312 65.99479Q282.875 65.99479 282.5625 65.822914Q282.25 65.635414 282.10938 65.33854Q281.98438 65.041664 281.98438 64.08854L281.98438 60.510414L281.21875 60.510414L281.21875 59.697914L281.98438 59.697914L281.98438 58.15104L283.03125 57.52604L283.03125 59.697914L284.09375 59.697914L284.09375 60.510414L283.03125 60.510414L283.03125 64.15104Q283.03125 64.604164 283.07812 64.729164Q283.14062 64.854164 283.26562 64.93229Q283.39062 65.010414 283.625 65.010414Q283.8125 65.010414 284.09375 64.979164ZM284.79688 65.916664L284.79688 57.322914L285.84375 57.322914L285.84375 60.40104Q286.57812 59.55729 287.70312 59.55729Q288.40625 59.55729 288.90625 59.83854Q289.42188 60.104164 289.64062 60.58854Q289.85938 61.05729 289.85938 61.979164L289.85938 65.916664L288.8125 65.916664L288.8125 61.979164Q288.8125 61.18229 288.46875 60.822914Q288.125 60.46354 287.5 60.46354Q287.03125 60.46354 286.60938 60.71354Q286.20312 60.947914 286.01562 61.36979Q285.84375 61.77604 285.84375 62.510414L285.84375 65.916664L284.79688 65.916664Z" fill-rule="nonzero"/><path fill="#ffd966" d="M307.0 56.916668C307.0 56.364384 307.44772 55.916668 308.0 55.916668L318.0 55.916668C318.55228 55.916668 319.0 56.364384 319.0 56.916668L319.0 66.916664C319.0 67.46895 318.55228 67.916664 318.0 67.916664L308.0 67.916664C307.44772 67.916664 307.0 67.46895 307.0 66.916664Z" fill-rule="nonzero"/><path fill="#000000" d="M331.95312 62.541664L331.95312 61.541664L335.57812 61.52604L335.57812 64.71354Q334.75 65.385414 333.85938 65.729164Q332.96875 66.05729 332.03125 66.05729Q330.76562 66.05729 329.71875 65.52604Q328.6875 64.979164 328.15625 63.96354Q327.64062 62.93229 327.64062 61.666664Q327.64062 60.40104 328.15625 59.322914Q328.6875 58.229164 329.67188 57.71354Q330.65625 57.18229 331.9375 57.18229Q332.875 57.18229 333.625 57.479164Q334.375 57.77604 334.79688 58.322914Q335.23438 58.854164 335.45312 59.729164L334.4375 60.010414Q334.23438 59.354164 333.9375 58.979164Q333.65625 58.604164 333.125 58.385414Q332.59375 58.15104 331.95312 58.15104Q331.17188 58.15104 330.59375 58.385414Q330.03125 58.61979 329.67188 59.010414Q329.32812 59.40104 329.14062 59.86979Q328.8125 60.666664 328.8125 61.58854Q328.8125 62.74479 329.20312 63.52604Q329.60938 64.291664 330.35938 64.666664Q331.10938 65.041664 331.96875 65.041664Q332.70312 65.041664 333.40625 64.760414Q334.10938 64.46354 334.46875 64.15104L334.46875 62.541664L331.95312 62.541664ZM336.76562 65.916664L336.76562 57.322914L337.82812 57.322914L337.82812 65.916664L336.76562 65.916664ZM339.40625 62.80729Q339.40625 61.072914 340.35938 60.24479Q341.15625 59.55729 342.3125 59.55729Q343.59375 59.55729 344.40625 60.40104Q345.23438 61.229164 345.23438 62.71354Q345.23438 63.916664 344.875 64.604164Q344.51562 65.291664 343.8125 65.68229Q343.125 66.05729 342.3125 66.05729Q341.01562 66.05729 340.20312 65.229164Q339.40625 64.385414 339.40625 62.80729ZM340.48438 62.80729Q340.48438 63.99479 341.0 64.58854Q341.53125 65.18229 342.3125 65.18229Q343.10938 65.18229 343.625 64.58854Q344.14062 63.99479 344.14062 62.77604Q344.14062 61.61979 343.60938 61.02604Q343.09375 60.43229 342.3125 60.43229Q341.53125 60.43229 341.0 61.02604Q340.48438 61.604164 340.48438 62.80729ZM347.76562 65.916664L346.78125 65.916664L346.78125 57.322914L347.84375 57.322914L347.84375 60.385414Q348.51562 59.55729 349.54688 59.55729Q350.125 59.55729 350.625 59.791664Q351.14062 60.010414 351.46875 60.43229Q351.8125 60.854164 352.0 61.447914Q352.1875 62.041664 352.1875 62.71354Q352.1875 64.30729 351.39062 65.18229Q350.59375 66.05729 349.5 66.05729Q348.39062 66.05729 347.76562 65.135414L347.76562 65.916664ZM347.75 62.760414Q347.75 63.86979 348.0625 64.36979Q348.5625 65.18229 349.40625 65.18229Q350.09375 65.18229 350.59375 64.58854Q351.10938 63.99479 351.10938 62.791664Q351.10938 61.572914 350.625 60.99479Q350.14062 60.416664 349.45312 60.416664Q348.76562 60.416664 348.25 61.02604Q347.75 61.61979 347.75 62.760414ZM357.85938 65.15104Q357.26562 65.65104 356.71875 65.854164Q356.1875 66.05729 355.5625 66.05729Q354.53125 66.05729 353.98438 65.55729Q353.4375 65.05729 353.4375 64.27604Q353.4375 63.822914 353.64062 63.447914Q353.84375 63.05729 354.1875 62.83854Q354.53125 62.604164 354.95312 62.49479Q355.25 62.40104 355.89062 62.322914Q357.15625 62.18229 357.76562 61.96354Q357.76562 61.74479 357.76562 61.697914Q357.76562 61.041664 357.46875 60.77604Q357.0625 60.43229 356.26562 60.43229Q355.53125 60.43229 355.17188 60.697914Q354.8125 60.947914 354.64062 61.604164L353.60938 61.46354Q353.75 60.80729 354.07812 60.40104Q354.40625 59.99479 355.01562 59.77604Q355.625 59.55729 356.42188 59.55729Q357.21875 59.55729 357.71875 59.74479Q358.21875 59.93229 358.45312 60.21354Q358.6875 60.49479 358.78125 60.93229Q358.82812 61.197914 358.82812 61.90104L358.82812 63.30729Q358.82812 64.77604 358.89062 65.166664Q358.96875 65.55729 359.17188 65.916664L358.0625 65.916664Q357.90625 65.58854 357.85938 65.15104ZM357.76562 62.791664Q357.1875 63.02604 356.04688 63.197914Q355.39062 63.291664 355.125 63.416664Q354.85938 63.52604 354.70312 63.74479Q354.5625 63.96354 354.5625 64.24479Q354.5625 64.666664 354.875 64.947914Q355.20312 65.229164 355.8125 65.229164Q356.42188 65.229164 356.89062 64.96354Q357.375 64.697914 357.59375 64.229164Q357.76562 63.86979 357.76562 63.18229L357.76562 62.791664ZM360.76562 65.916664L360.76562 57.322914L361.82812 57.322914L361.82812 65.916664L360.76562 65.916664ZM366.54688 63.15104L367.60938 63.05729Q367.6875 63.71354 367.96875 64.11979Q368.25 64.52604 368.82812 64.791664Q369.42188 65.041664 370.15625 65.041664Q370.79688 65.041664 371.29688 64.854164Q371.79688 64.65104 372.03125 64.322914Q372.28125 63.979164 372.28125 63.58854Q372.28125 63.18229 372.04688 62.885414Q371.8125 62.572914 371.28125 62.36979Q370.92188 62.229164 369.73438 61.947914Q368.5625 61.666664 368.09375 61.416664Q367.46875 61.08854 367.17188 60.61979Q366.875 60.135414 366.875 59.541664Q366.875 58.90104 367.23438 58.33854Q367.60938 57.760414 368.3125 57.479164Q369.03125 57.18229 369.89062 57.18229Q370.84375 57.18229 371.57812 57.49479Q372.3125 57.791664 372.70312 58.40104Q373.09375 58.99479 373.125 59.74479L372.03125 59.822914Q371.9375 59.010414 371.42188 58.604164Q370.92188 58.18229 369.9375 58.18229Q368.90625 58.18229 368.4375 58.55729Q367.96875 58.93229 367.96875 59.46354Q367.96875 59.93229 368.29688 60.229164Q368.625 60.52604 370.0 60.83854Q371.39062 61.15104 371.90625 61.385414Q372.65625 61.74479 373.01562 62.27604Q373.375 62.791664 373.375 63.49479Q373.375 64.18229 372.98438 64.791664Q372.59375 65.385414 371.85938 65.729164Q371.125 66.05729 370.20312 66.05729Q369.03125 66.05729 368.23438 65.729164Q367.45312 65.385414 367.0 64.697914Q366.5625 64.010414 366.54688 63.15104ZM374.40625 62.80729Q374.40625 61.072914 375.35938 60.24479Q376.15625 59.55729 377.3125 59.55729Q378.59375 59.55729 379.40625 60.40104Q380.23438 61.229164 380.23438 62.71354Q380.23438 63.916664 379.875 64.604164Q379.51562 65.291664 378.8125 65.68229Q378.125 66.05729 377.3125 66.05729Q376.01562 66.05729 375.20312 65.229164Q374.40625 64.385414 374.40625 62.80729ZM375.48438 62.80729Q375.48438 63.99479 376.0 64.58854Q376.53125 65.18229 377.3125 65.18229Q378.10938 65.18229 378.625 64.58854Q379.14062 63.99479 379.14062 62.77604Q379.14062 61.61979 378.60938 61.02604Q378.09375 60.43229 377.3125 60.43229Q376.53125 60.43229 376.0 61.02604Q375.48438 61.604164 375.48438 62.80729ZM385.875 65.916664L385.875 64.99479Q385.14062 66.05729 383.89062 66.05729Q383.34375 66.05729 382.85938 65.854164Q382.39062 65.635414 382.15625 65.322914Q381.92188 64.99479 381.82812 64.52604Q381.76562 64.229164 381.76562 63.541664L381.76562 59.697914L382.82812 59.697914L382.82812 63.15104Q382.82812 63.96354 382.89062 64.260414Q382.98438 64.666664 383.29688 64.916664Q383.625 65.15104 384.10938 65.15104Q384.57812 65.15104 384.98438 64.916664Q385.40625 64.666664 385.57812 64.24479Q385.76562 63.822914 385.76562 63.02604L385.76562 59.697914L386.8125 59.697914L386.8125 65.916664L385.875 65.916664ZM391.09375 64.979164L391.25 65.90104Q390.79688 65.99479 390.45312 65.99479Q389.875 65.99479 389.5625 65.822914Q389.25 65.635414 389.10938 65.33854Q388.98438 65.041664 388.98438 64.08854L388.98438 60.510414L388.21875 60.510414L388.21875 59.697914L388.98438 59.697914L388.98438 58.15104L390.03125 57.52604L390.03125 59.697914L391.09375 59.697914L391.09375 60.510414L390.03125 60.510414L390.03125 64.15104Q390.03125 64.604164 390.07812 64.729164Q390.14062 64.854164 390.26562 64.93229Q390.39062 65.010414 390.625 65.010414Q390.8125 65.010414 391.09375 64.979164ZM391.79688 65.916664L391.79688 57.322914L392.84375 57.322914L392.84375 60.40104Q393.57812 59.55729 394.70312 59.55729Q395.40625 59.55729 395.90625 59.83854Q396.42188 60.104164 396.64062 60.58854Q396.85938 61.05729 396.85938 61.979164L396.85938 65.916664L395.8125 65.916664L395.8125 61.979164Q395.8125 61.18229 395.46875 60.822914Q395.125 60.46354 394.5 60.46354Q394.03125 60.46354 393.60938 60.71354Q393.20312 60.947914 393.01562 61.36979Q392.84375 61.77604 392.84375 62.510414L392.84375 65.916664L391.79688 65.916664Z" fill-rule="nonzero"/><path fill="#000000" d="M20.190624 37.55L20.190624 23.2375L29.846874 23.2375L29.846874 24.925L22.08125 24.925L22.08125 29.3625L28.8 29.3625L28.8 31.05L22.08125 31.05L22.08125 37.55L20.190624 37.55ZM38.659374 37.55L38.659374 36.01875Q37.45625 37.784374 35.378124 37.784374Q34.45625 37.784374 33.659374 37.440624Q32.8625 37.08125 32.471874 36.55Q32.096874 36.01875 31.940624 35.2375Q31.83125 34.721874 31.83125 33.596874L31.83125 27.175L33.58125 27.175L33.58125 32.925Q33.58125 34.3 33.690624 34.784374Q33.8625 35.471874 34.39375 35.878124Q34.940624 36.26875 35.721874 36.26875Q36.51875 36.26875 37.20625 35.8625Q37.909374 35.45625 38.190624 34.76875Q38.4875 34.065624 38.4875 32.7375L38.4875 27.175L40.2375 27.175L40.2375 37.55L38.659374 37.55ZM42.8625 37.55L42.8625 27.175L44.45625 27.175L44.45625 28.659374Q45.596874 26.940624 47.753124 26.940624Q48.690624 26.940624 49.471874 27.284374Q50.26875 27.6125 50.659374 28.159374Q51.05 28.70625 51.20625 29.45625Q51.3 29.95625 51.3 31.175L51.3 37.55L49.534374 37.55L49.534374 31.2375Q49.534374 30.159374 49.33125 29.628124Q49.128124 29.096874 48.596874 28.784374Q48.08125 28.471874 47.378124 28.471874Q46.253124 28.471874 45.440624 29.190624Q44.628124 29.89375 44.628124 31.878124L44.628124 37.55L42.8625 37.55ZM60.64375 33.753124L62.3625 33.971874Q62.08125 35.76875 60.909374 36.784374Q59.753124 37.784374 58.05 37.784374Q55.925 37.784374 54.628124 36.39375Q53.33125 35.003124 53.33125 32.409374Q53.33125 30.721874 53.878124 29.471874Q54.440624 28.20625 55.58125 27.58125Q56.721874 26.940624 58.065624 26.940624Q59.753124 26.940624 60.815624 27.8Q61.89375 28.659374 62.20625 30.221874L60.4875 30.4875Q60.253124 29.440624 59.628124 28.925Q59.003124 28.39375 58.128124 28.39375Q56.8 28.39375 55.971874 29.346874Q55.14375 30.3 55.14375 32.346874Q55.14375 34.440624 55.940624 35.39375Q56.7375 36.33125 58.034374 36.33125Q59.065624 36.33125 59.753124 35.70625Q60.45625 35.065624 60.64375 33.753124ZM67.70625 35.971874L67.95625 37.534374Q67.22188 37.690624 66.62813 37.690624Q65.675 37.690624 65.14375 37.39375Q64.62813 37.08125 64.40938 36.596874Q64.19063 36.096874 64.19063 34.51875L64.19063 28.55L62.909374 28.55L62.909374 27.175L64.19063 27.175L64.19063 24.6125L65.94063 23.55L65.94063 27.175L67.70625 27.175L67.70625 28.55L65.94063 28.55L65.94063 34.6125Q65.94063 35.3625 66.03438 35.58125Q66.12813 35.784374 66.33125 35.925Q66.55 36.05 66.94063 36.05Q67.22188 36.05 67.70625 35.971874ZM69.87813 25.253124L69.87813 23.2375L71.64375 23.2375L71.64375 25.253124L69.87813 25.253124ZM69.87813 37.55L69.87813 27.175L71.64375 27.175L71.64375 37.55L69.87813 37.55ZM73.22188 32.3625Q73.22188 29.4875 74.81563 28.096874Q76.15938 26.940624 78.08125 26.940624Q80.22188 26.940624 81.56563 28.346874Q82.925 29.753124 82.925 32.221874Q82.925 34.221874 82.33125 35.378124Q81.7375 36.51875 80.58125 37.159374Q79.44063 37.784374 78.08125 37.784374Q75.89375 37.784374 74.55 36.39375Q73.22188 34.9875 73.22188 32.3625ZM75.01875 32.3625Q75.01875 34.3625 75.87813 35.346874Q76.75313 36.33125 78.08125 36.33125Q79.39375 36.33125 80.25313 35.346874Q81.12813 34.346874 81.12813 32.3Q81.12813 30.378124 80.25313 29.39375Q79.37813 28.39375 78.08125 28.39375Q76.75313 28.39375 75.87813 29.39375Q75.01875 30.378124 75.01875 32.3625ZM84.8625 37.55L84.8625 27.175L86.45625 27.175L86.45625 28.659374Q87.59688 26.940624 89.75313 26.940624Q90.69063 26.940624 91.47188 27.284374Q92.26875 27.6125 92.65938 28.159374Q93.05 28.70625 93.20625 29.45625Q93.3 29.95625 93.3 31.175L93.3 37.55L91.53438 37.55L91.53438 31.2375Q91.53438 30.159374 91.33125 29.628124Q91.12813 29.096874 90.59688 28.784374Q90.08125 28.471874 89.37813 28.471874Q88.25313 28.471874 87.44063 29.190624Q86.62813 29.89375 86.62813 31.878124L86.62813 37.55L84.8625 37.55ZM102.64375 36.26875Q101.65938 37.096874 100.75313 37.440624Q99.84688 37.784374 98.81563 37.784374Q97.1125 37.784374 96.19063 36.95625Q95.26875 36.1125 95.26875 34.815624Q95.26875 34.05 95.6125 33.425Q95.97188 32.8 96.53438 32.425Q97.09688 32.034374 97.8 31.83125Q98.31563 31.70625 99.3625 31.565624Q101.4875 31.315624 102.4875 30.971874Q102.50313 30.6125 102.50313 30.503124Q102.50313 29.440624 102.00313 28.9875Q101.33125 28.39375 100.00313 28.39375Q98.75313 28.39375 98.15938 28.83125Q97.58125 29.26875 97.3 30.378124L95.58125 30.14375Q95.81563 29.034374 96.34688 28.3625Q96.87813 27.675 97.89375 27.315624Q98.90938 26.940624 100.25313 26.940624Q101.58125 26.940624 102.40938 27.253124Q103.2375 27.565624 103.62813 28.05Q104.01875 28.51875 104.175 29.2375Q104.26875 29.690624 104.26875 30.8625L104.26875 33.20625Q104.26875 35.659374 104.37813 36.315624Q104.4875 36.95625 104.83125 37.55L102.9875 37.55Q102.72188 37.003124 102.64375 36.26875ZM102.4875 32.346874Q101.53438 32.7375 99.6125 33.003124Q98.53438 33.159374 98.08125 33.3625Q97.64375 33.55 97.39375 33.925Q97.14375 34.3 97.14375 34.76875Q97.14375 35.471874 97.675 35.940624Q98.20625 36.409374 99.2375 36.409374Q100.25313 36.409374 101.03438 35.971874Q101.83125 35.51875 102.20625 34.753124Q102.4875 34.14375 102.4875 32.9875L102.4875 32.346874ZM106.83125 37.55L106.83125 23.2375L108.58125 23.2375L108.58125 37.55L106.83125 37.55ZM120.7375 37.55L120.7375 24.925L116.01875 24.925L116.01875 23.2375L127.3625 23.2375L127.3625 24.925L122.62813 24.925L122.62813 37.55L120.7375 37.55ZM135.97188 34.20625L137.78438 34.440624Q137.3625 36.01875 136.19063 36.909374Q135.03438 37.784374 133.22188 37.784374Q130.95625 37.784374 129.6125 36.39375Q128.28438 34.9875 128.28438 32.45625Q128.28438 29.83125 129.62813 28.39375Q130.97188 26.940624 133.12813 26.940624Q135.20625 26.940624 136.51875 28.3625Q137.84688 29.76875 137.84688 32.346874Q137.84688 32.503124 137.83125 32.815624L130.09688 32.815624Q130.19063 34.51875 131.06563 35.425Q131.94063 36.33125 133.2375 36.33125Q134.20625 36.33125 134.87813 35.83125Q135.56563 35.315624 135.97188 34.20625ZM130.19063 31.3625L135.9875 31.3625Q135.87813 30.065624 135.33125 29.409374Q134.4875 28.39375 133.14375 28.39375Q131.94063 28.39375 131.1125 29.20625Q130.28438 30.003124 130.19063 31.3625ZM146.64375 33.753124L148.3625 33.971874Q148.08125 35.76875 146.90938 36.784374Q145.75313 37.784374 144.05 37.784374Q141.925 37.784374 140.62813 36.39375Q139.33125 35.003124 139.33125 32.409374Q139.33125 30.721874 139.87813 29.471874Q140.44063 28.20625 141.58125 27.58125Q142.72188 26.940624 144.06563 26.940624Q145.75313 26.940624 146.81563 27.8Q147.89375 28.659374 148.20625 30.221874L146.4875 30.4875Q146.25313 29.440624 145.62813 28.925Q145.00313 28.39375 144.12813 28.39375Q142.8 28.39375 141.97188 29.346874Q141.14375 30.3 141.14375 32.346874Q141.14375 34.440624 141.94063 35.39375Q142.7375 36.33125 144.03438 36.33125Q145.06563 36.33125 145.75313 35.70625Q146.45625 35.065624 146.64375 33.753124ZM149.8625 37.55L149.8625 23.2375L151.62813 23.2375L151.62813 28.3625Q152.8625 26.940624 154.7375 26.940624Q155.87813 26.940624 156.72188 27.39375Q157.58125 27.846874 157.94063 28.659374Q158.31563 29.45625 158.31563 30.971874L158.31563 37.55L156.56563 37.55L156.56563 30.971874Q156.56563 29.659374 155.9875 29.065624Q155.40938 28.45625 154.37813 28.45625Q153.59688 28.45625 152.89375 28.8625Q152.20625 29.26875 151.90938 29.971874Q151.62813 30.659374 151.62813 31.878124L151.62813 37.55L149.8625 37.55ZM160.8625 37.55L160.8625 27.175L162.45625 27.175L162.45625 28.659374Q163.59688 26.940624 165.75313 26.940624Q166.69063 26.940624 167.47188 27.284374Q168.26875 27.6125 168.65938 28.159374Q169.05 28.70625 169.20625 29.45625Q169.3 29.95625 169.3 31.175L169.3 37.55L167.53438 37.55L167.53438 31.2375Q167.53438 30.159374 167.33125 29.628124Q167.12813 29.096874 166.59688 28.784374Q166.08125 28.471874 165.37813 28.471874Q164.25313 28.471874 163.44063 29.190624Q162.62813 29.89375 162.62813 31.878124L162.62813 37.55L160.8625 37.55ZM171.22188 32.3625Q171.22188 29.4875 172.81563 28.096874Q174.15938 26.940624 176.08125 26.940624Q178.22188 26.940624 179.56563 28.346874Q180.925 29.753124 180.925 32.221874Q180.925 34.221874 180.33125 35.378124Q179.7375 36.51875 178.58125 37.159374Q177.44063 37.784374 176.08125 37.784374Q173.89375 37.784374 172.55 36.39375Q171.22188 34.9875 171.22188 32.3625ZM173.01875 32.3625Q173.01875 34.3625 173.87813 35.346874Q174.75313 36.33125 176.08125 36.33125Q177.39375 36.33125 178.25313 35.346874Q179.12813 34.346874 179.12813 32.3Q179.12813 30.378124 178.25313 29.39375Q177.37813 28.39375 176.08125 28.39375Q174.75313 28.39375 173.87813 29.39375Q173.01875 30.378124 173.01875 32.3625ZM182.83125 37.55L182.83125 23.2375L184.58125 23.2375L184.58125 37.55L182.83125 37.55ZM186.22188 32.3625Q186.22188 29.4875 187.81563 28.096874Q189.15938 26.940624 191.08125 26.940624Q193.22188 26.940624 194.56563 28.346874Q195.925 29.753124 195.925 32.221874Q195.925 34.221874 195.33125 35.378124Q194.7375 36.51875 193.58125 37.159374Q192.44063 37.784374 191.08125 37.784374Q188.89375 37.784374 187.55 36.39375Q186.22188 34.9875 186.22188 32.3625ZM188.01875 32.3625Q188.01875 34.3625 188.87813 35.346874Q189.75313 36.33125 191.08125 36.33125Q192.39375 36.33125 193.25313 35.346874Q194.12813 34.346874 194.12813 32.3Q194.12813 30.378124 193.25313 29.39375Q192.37813 28.39375 191.08125 28.39375Q189.75313 28.39375 188.87813 29.39375Q188.01875 30.378124 188.01875 32.3625ZM197.55 38.409374L199.25313 38.659374Q199.3625 39.45625 199.84688 39.815624Q200.50313 40.3 201.64375 40.3Q202.8625 40.3 203.51875 39.815624Q204.19063 39.33125 204.425 38.45625Q204.56563 37.909374 204.55 36.190624Q203.39375 37.55 201.675 37.55Q199.53438 37.55 198.3625 36.003124Q197.19063 34.45625 197.19063 32.3Q197.19063 30.815624 197.72188 29.565624Q198.26875 28.315624 199.28438 27.628124Q200.31563 26.940624 201.69063 26.940624Q203.51875 26.940624 204.72188 28.425L204.72188 27.175L206.33125 27.175L206.33125 36.14375Q206.33125 38.565624 205.83125 39.565624Q205.34688 40.58125 204.26875 41.159374Q203.20625 41.753124 201.64375 41.753124Q199.8 41.753124 198.64375 40.925Q197.50313 40.096874 197.55 38.409374ZM199.00313 32.175Q199.00313 34.221874 199.81563 35.159374Q200.62813 36.096874 201.84688 36.096874Q203.05 36.096874 203.8625 35.159374Q204.69063 34.221874 204.69063 32.2375Q204.69063 30.33125 203.84688 29.3625Q203.00313 28.39375 201.81563 28.39375Q200.64375 28.39375 199.81563 29.346874Q199.00313 30.3 199.00313 32.175ZM208.78438 41.55L208.59688 39.89375Q209.175 40.05 209.59688 40.05Q210.19063 40.05 210.53438 39.846874Q210.89375 39.659374 211.1125 39.315624Q211.28438 39.05 211.65938 38.003124Q211.70625 37.846874 211.81563 37.565624L207.87813 27.175L209.76875 27.175L211.925 33.190624Q212.34688 34.33125 212.675 35.58125Q212.9875 34.378124 213.39375 33.221874L215.6125 27.175L217.37813 27.175L213.425 37.721874Q212.8 39.440624 212.44063 40.08125Q211.97188 40.95625 211.3625 41.346874Q210.76875 41.753124 209.925 41.753124Q209.40938 41.753124 208.78438 41.55ZM225.28438 37.55L225.28438 28.55L223.7375 28.55L223.7375 27.175L225.28438 27.175L225.28438 26.08125Q225.28438 25.034374 225.47188 24.51875Q225.72188 23.83125 226.3625 23.409374Q227.00313 22.9875 228.15938 22.9875Q228.90938 22.9875 229.8 23.159374L229.53438 24.690624Q228.9875 24.596874 228.50313 24.596874Q227.70625 24.596874 227.3625 24.940624Q227.03438 25.284374 227.03438 26.221874L227.03438 27.175L229.06563 27.175L229.06563 28.55L227.03438 28.55L227.03438 37.55L225.28438 37.55ZM230.22188 32.3625Q230.22188 29.4875 231.81563 28.096874Q233.15938 26.940624 235.08125 26.940624Q237.22188 26.940624 238.56563 28.346874Q239.925 29.753124 239.925 32.221874Q239.925 34.221874 239.33125 35.378124Q238.7375 36.51875 237.58125 37.159374Q236.44063 37.784374 235.08125 37.784374Q232.89375 37.784374 231.55 36.39375Q230.22188 34.9875 230.22188 32.3625ZM232.01875 32.3625Q232.01875 34.3625 232.87813 35.346874Q233.75313 36.33125 235.08125 36.33125Q236.39375 36.33125 237.25313 35.346874Q238.12813 34.346874 238.12813 32.3Q238.12813 30.378124 237.25313 29.39375Q236.37813 28.39375 235.08125 28.39375Q233.75313 28.39375 232.87813 29.39375Q232.01875 30.378124 232.01875 32.3625ZM241.84688 37.55L241.84688 27.175L243.425 27.175L243.425 28.753124Q244.03438 27.64375 244.55 27.3Q245.06563 26.940624 245.675 26.940624Q246.56563 26.940624 247.4875 27.503124L246.87813 29.14375Q246.2375 28.753124 245.59688 28.753124Q245.01875 28.753124 244.55 29.1125Q244.09688 29.45625 243.89375 30.065624Q243.6125 31.003124 243.6125 32.1125L243.6125 37.55L241.84688 37.55ZM255.09688 37.55L255.09688 23.2375L260.01874 23.2375Q261.6906 23.2375 262.58124 23.440624Q263.8 23.721874 264.675 24.45625Q265.8 25.425 266.3625 26.909374Q266.925 28.39375 266.925 30.315624Q266.925 31.940624 266.55 33.20625Q266.175 34.45625 265.5656 35.284374Q264.97186 36.1125 264.26874 36.596874Q263.5656 37.065624 262.5656 37.315624Q261.5656 37.55 260.2531 37.55L255.09688 37.55ZM256.9875 35.8625L260.05 35.8625Q261.45624 35.8625 262.2531 35.596874Q263.0656 35.33125 263.55 34.846874Q264.22186 34.175 264.59686 33.05Q264.97186 31.909374 264.97186 30.284374Q264.97186 28.034374 264.2375 26.83125Q263.5031 25.628124 262.4406 25.221874Q261.6906 24.925 260.0031 24.925L256.9875 24.925L256.9875 35.8625ZM275.64374 36.26875Q274.65936 37.096874 273.7531 37.440624Q272.84686 37.784374 271.8156 37.784374Q270.1125 37.784374 269.1906 36.95625Q268.26874 36.1125 268.26874 34.815624Q268.26874 34.05 268.6125 33.425Q268.97186 32.8 269.53436 32.425Q270.09686 32.034374 270.8 31.83125Q271.3156 31.70625 272.3625 31.565624Q274.4875 31.315624 275.4875 30.971874Q275.5031 30.6125 275.5031 30.503124Q275.5031 29.440624 275.0031 28.9875Q274.33124 28.39375 273.0031 28.39375Q271.7531 28.39375 271.15936 28.83125Q270.58124 29.26875 270.3 30.378124L268.58124 30.14375Q268.8156 29.034374 269.34686 28.3625Q269.8781 27.675 270.89374 27.315624Q271.90936 26.940624 273.2531 26.940624Q274.58124 26.940624 275.40936 27.253124Q276.2375 27.565624 276.6281 28.05Q277.01874 28.51875 277.175 29.2375Q277.26874 29.690624 277.26874 30.8625L277.26874 33.20625Q277.26874 35.659374 277.3781 36.315624Q277.4875 36.95625 277.83124 37.55L275.9875 37.55Q275.72186 37.003124 275.64374 36.26875ZM275.4875 32.346874Q274.53436 32.7375 272.6125 33.003124Q271.53436 33.159374 271.08124 33.3625Q270.64374 33.55 270.39374 33.925Q270.14374 34.3 270.14374 34.76875Q270.14374 35.471874 270.675 35.940624Q271.20624 36.409374 272.2375 36.409374Q273.2531 36.409374 274.03436 35.971874Q274.83124 35.51875 275.20624 34.753124Q275.4875 34.14375 275.4875 32.9875L275.4875 32.346874ZM283.70624 35.971874L283.95624 37.534374Q283.22186 37.690624 282.6281 37.690624Q281.675 37.690624 281.14374 37.39375Q280.6281 37.08125 280.40936 36.596874Q280.1906 36.096874 280.1906 34.51875L280.1906 28.55L278.90936 28.55L278.90936 27.175L280.1906 27.175L280.1906 24.6125L281.9406 23.55L281.9406 27.175L283.70624 27.175L283.70624 28.55L281.9406 28.55L281.9406 34.6125Q281.9406 35.3625 282.03436 35.58125Q282.1281 35.784374 282.33124 35.925Q282.55 36.05 282.9406 36.05Q283.22186 36.05 283.70624 35.971874ZM292.64374 36.26875Q291.65936 37.096874 290.7531 37.440624Q289.84686 37.784374 288.8156 37.784374Q287.1125 37.784374 286.1906 36.95625Q285.26874 36.1125 285.26874 34.815624Q285.26874 34.05 285.6125 33.425Q285.97186 32.8 286.53436 32.425Q287.09686 32.034374 287.8 31.83125Q288.3156 31.70625 289.3625 31.565624Q291.4875 31.315624 292.4875 30.971874Q292.5031 30.6125 292.5031 30.503124Q292.5031 29.440624 292.0031 28.9875Q291.33124 28.39375 290.0031 28.39375Q288.7531 28.39375 288.15936 28.83125Q287.58124 29.26875 287.3 30.378124L285.58124 30.14375Q285.8156 29.034374 286.34686 28.3625Q286.8781 27.675 287.89374 27.315624Q288.90936 26.940624 290.2531 26.940624Q291.58124 26.940624 292.40936 27.253124Q293.2375 27.565624 293.6281 28.05Q294.01874 28.51875 294.175 29.2375Q294.26874 29.690624 294.26874 30.8625L294.26874 33.20625Q294.26874 35.659374 294.3781 36.315624Q294.4875 36.95625 294.83124 37.55L292.9875 37.55Q292.72186 37.003124 292.64374 36.26875ZM292.4875 32.346874Q291.53436 32.7375 289.6125 33.003124Q288.53436 33.159374 288.08124 33.3625Q287.64374 33.55 287.39374 33.925Q287.14374 34.3 287.14374 34.76875Q287.14374 35.471874 287.675 35.940624Q288.20624 36.409374 289.2375 36.409374Q290.2531 36.409374 291.03436 35.971874Q291.83124 35.51875 292.20624 34.753124Q292.4875 34.14375 292.4875 32.9875L292.4875 32.346874ZM302.45624 32.95625L304.2375 32.8Q304.3625 33.8625 304.8156 34.55Q305.28436 35.2375 306.2531 35.675Q307.2375 36.096874 308.47186 36.096874Q309.55 36.096874 310.3781 35.784374Q311.20624 35.45625 311.6125 34.89375Q312.01874 34.33125 312.01874 33.659374Q312.01874 32.9875 311.6281 32.4875Q311.2375 31.9875 310.34686 31.64375Q309.76874 31.409374 307.78436 30.940624Q305.8156 30.471874 305.03436 30.05Q304.0031 29.51875 303.5031 28.721874Q303.0031 27.925 303.0031 26.940624Q303.0031 25.846874 303.6125 24.909374Q304.22186 23.971874 305.40936 23.4875Q306.59686 22.9875 308.03436 22.9875Q309.6281 22.9875 310.84686 23.503124Q312.0656 24.01875 312.70624 25.01875Q313.3625 26.003124 313.40936 27.26875L311.59686 27.409374Q311.45624 26.05 310.6125 25.3625Q309.76874 24.659374 308.1125 24.659374Q306.39374 24.659374 305.59686 25.3Q304.8156 25.925 304.8156 26.8Q304.8156 27.58125 305.3781 28.08125Q305.925 28.58125 308.2375 29.096874Q310.55 29.6125 311.40936 30.003124Q312.65936 30.58125 313.2531 31.471874Q313.84686 32.346874 313.84686 33.503124Q313.84686 34.64375 313.1906 35.659374Q312.53436 36.675 311.3 37.2375Q310.08124 37.8 308.55 37.8Q306.6125 37.8 305.3 37.2375Q303.9875 36.659374 303.2375 35.51875Q302.4875 34.378124 302.45624 32.95625ZM315.8625 37.55L315.8625 23.2375L317.6281 23.2375L317.6281 28.3625Q318.8625 26.940624 320.7375 26.940624Q321.8781 26.940624 322.72186 27.39375Q323.58124 27.846874 323.9406 28.659374Q324.3156 29.45625 324.3156 30.971874L324.3156 37.55L322.5656 37.55L322.5656 30.971874Q322.5656 29.659374 321.9875 29.065624Q321.40936 28.45625 320.3781 28.45625Q319.59686 28.45625 318.89374 28.8625Q318.20624 29.26875 317.90936 29.971874Q317.6281 30.659374 317.6281 31.878124L317.6281 37.55L315.8625 37.55ZM333.64374 36.26875Q332.65936 37.096874 331.7531 37.440624Q330.84686 37.784374 329.8156 37.784374Q328.1125 37.784374 327.1906 36.95625Q326.26874 36.1125 326.26874 34.815624Q326.26874 34.05 326.6125 33.425Q326.97186 32.8 327.53436 32.425Q328.09686 32.034374 328.8 31.83125Q329.3156 31.70625 330.3625 31.565624Q332.4875 31.315624 333.4875 30.971874Q333.5031 30.6125 333.5031 30.503124Q333.5031 29.440624 333.0031 28.9875Q332.33124 28.39375 331.0031 28.39375Q329.7531 28.39375 329.15936 28.83125Q328.58124 29.26875 328.3 30.378124L326.58124 30.14375Q326.8156 29.034374 327.34686 28.3625Q327.8781 27.675 328.89374 27.315624Q329.90936 26.940624 331.2531 26.940624Q332.58124 26.940624 333.40936 27.253124Q334.2375 27.565624 334.6281 28.05Q335.01874 28.51875 335.175 29.2375Q335.26874 29.690624 335.26874 30.8625L335.26874 33.20625Q335.26874 35.659374 335.3781 36.315624Q335.4875 36.95625 335.83124 37.55L333.9875 37.55Q333.72186 37.003124 333.64374 36.26875ZM333.4875 32.346874Q332.53436 32.7375 330.6125 33.003124Q329.53436 33.159374 329.08124 33.3625Q328.64374 33.55 328.39374 33.925Q328.14374 34.3 328.14374 34.76875Q328.14374 35.471874 328.675 35.940624Q329.20624 36.409374 330.2375 36.409374Q331.2531 36.409374 332.03436 35.971874Q332.83124 35.51875 333.20624 34.753124Q333.4875 34.14375 333.4875 32.9875L333.4875 32.346874ZM337.84686 37.55L337.84686 27.175L339.425 27.175L339.425 28.753124Q340.03436 27.64375 340.55 27.3Q341.0656 26.940624 341.675 26.940624Q342.5656 26.940624 343.4875 27.503124L342.8781 29.14375Q342.2375 28.753124 341.59686 28.753124Q341.01874 28.753124 340.55 29.1125Q340.09686 29.45625 339.89374 30.065624Q339.6125 31.003124 339.6125 32.1125L339.6125 37.55L337.84686 37.55ZM344.8781 25.253124L344.8781 23.2375L346.64374 23.2375L346.64374 25.253124L344.8781 25.253124ZM344.8781 37.55L344.8781 27.175L346.64374 27.175L346.64374 37.55L344.8781 37.55ZM348.8625 37.55L348.8625 27.175L350.45624 27.175L350.45624 28.659374Q351.59686 26.940624 353.7531 26.940624Q354.6906 26.940624 355.47186 27.284374Q356.26874 27.6125 356.65936 28.159374Q357.05 28.70625 357.20624 29.45625Q357.3 29.95625 357.3 31.175L357.3 37.55L355.53436 37.55L355.53436 31.2375Q355.53436 30.159374 355.33124 29.628124Q355.1281 29.096874 354.59686 28.784374Q354.08124 28.471874 353.3781 28.471874Q352.2531 28.471874 351.4406 29.190624Q350.6281 29.89375 350.6281 31.878124L350.6281 37.55L348.8625 37.55ZM359.55 38.409374L361.2531 38.659374Q361.3625 39.45625 361.84686 39.815624Q362.5031 40.3 363.64374 40.3Q364.8625 40.3 365.51874 39.815624Q366.1906 39.33125 366.425 38.45625Q366.5656 37.909374 366.55 36.190624Q365.39374 37.55 363.675 37.55Q361.53436 37.55 360.3625 36.003124Q359.1906 34.45625 359.1906 32.3Q359.1906 30.815624 359.72186 29.565624Q360.26874 28.315624 361.28436 27.628124Q362.3156 26.940624 363.6906 26.940624Q365.51874 26.940624 366.72186 28.425L366.72186 27.175L368.33124 27.175L368.33124 36.14375Q368.33124 38.565624 367.83124 39.565624Q367.34686 40.58125 366.26874 41.159374Q365.20624 41.753124 363.64374 41.753124Q361.8 41.753124 360.64374 40.925Q359.5031 40.096874 359.55 38.409374ZM361.0031 32.175Q361.0031 34.221874 361.8156 35.159374Q362.6281 36.096874 363.84686 36.096874Q365.05 36.096874 365.8625 35.159374Q366.6906 34.221874 366.6906 32.2375Q366.6906 30.33125 365.84686 29.3625Q365.0031 28.39375 363.8156 28.39375Q362.64374 28.39375 361.8156 29.346874Q361.0031 30.3 361.0031 32.175Z" fill-rule="nonzero"/></svg>