<svg version="1.1" viewBox="0.0 0.0 600.0 371.0" fill="none" stroke="none" stroke-linecap="square" stroke-miterlimit="10" width="600" height="371" xmlns:xlink="http://www.w3.org/1999/xlink" xmlns="http://www.w3.org/2000/svg"><path fill="#ffffff" d="M0 0L600.0 0L600.0 371.0L0 371.0L0 0Z" fill-rule="nonzero"/><path stroke="#333333" stroke-width="1.0" stroke-linecap="butt" d="M138.5 42.5L138.5 328.5" fill-rule="nonzero"/><path stroke="#000000" stroke-width="1.0" stroke-linecap="butt" d="M248.5 42.5L248.5 328.5" fill-rule="nonzero"/><path stroke="#000000" stroke-width="1.0" stroke-linecap="butt" d="M359.5 42.5L359.5 328.5" fill-rule="nonzero"/><path stroke="#000000" stroke-width="1.0" stroke-linecap="butt" d="M470.5 42.5L470.5 328.5" fill-rule="nonzero"/><path stroke="#000000" stroke-width="1.0" stroke-linecap="butt" d="M581.5 42.5L581.5 328.5" fill-rule="nonzero"/><clipPath id="id_0"><path d="M138.13 42.92746L581.45 42.92746L581.45 328.45L138.13 328.45L138.13 42.92746Z" clip-rule="nonzero"/></clipPath><path stroke="#000000" stroke-width="0.0" stroke-linecap="butt" stroke-opacity="0.0" clip-path="url(#id_0)" d="M138.0 165.0L138.0 86.0L204.0 86.0L204.0 165.0Z" fill-rule="nonzero"/><path fill="#f1c232" clip-path="url(#id_0)" d="M138.0 165.0L138.0 86.0L204.0 86.0L204.0 165.0Z" fill-rule="nonzero"/><path stroke="#000000" stroke-width="0.0" stroke-linecap="butt" stroke-opacity="0.0" clip-path="url(#id_0)" d="M138.0 286.0L138.0 207.0L217.0 207.0L217.0 286.0Z" fill-rule="nonzero"/><path fill="#f1c232" clip-path="url(#id_0)" d="M138.0 286.0L138.0 207.0L217.0 207.0L217.0 286.0Z" fill-rule="nonzero"/><path stroke="#000000" stroke-width="0.0" stroke-linecap="butt" stroke-opacity="0.0" clip-path="url(#id_0)" d="M204.0 165.0L204.0 86.0L312.0 86.0L312.0 165.0Z" fill-rule="nonzero"/><path fill="#ffe599" clip-path="url(#id_0)" d="M204.0 165.0L204.0 86.0L312.0 86.0L312.0 165.0Z" fill-rule="nonzero"/><path stroke="#000000" stroke-width="0.0" stroke-linecap="butt" stroke-opacity="0.0" clip-path="url(#id_0)" d="M217.0 286.0L217.0 207.0L380.0 207.0L380.0 286.0Z" fill-rule="nonzero"/><path fill="#ffe599" clip-path="url(#id_0)" d="M217.0 286.0L217.0 207.0L380.0 207.0L380.0 286.0Z" fill-rule="nonzero"/><path stroke="#000000" stroke-width="0.0" stroke-linecap="butt" stroke-opacity="0.0" clip-path="url(#id_0)" d="M312.0 165.0L312.0 86.0L431.0 86.0L431.0 165.0Z" fill-rule="nonzero"/><path fill="#f3f3f3" clip-path="url(#id_0)" d="M312.0 165.0L312.0 86.0L431.0 86.0L431.0 165.0Z" fill-rule="nonzero"/><path stroke="#000000" stroke-width="0.0" stroke-linecap="butt" stroke-opacity="0.0" clip-path="url(#id_0)" d="M380.0 286.0L380.0 207.0L482.0 207.0L482.0 286.0Z" fill-rule="nonzero"/><path fill="#f3f3f3" clip-path="url(#id_0)" d="M380.0 286.0L380.0 207.0L482.0 207.0L482.0 286.0Z" fill-rule="nonzero"/><path stroke="#000000" stroke-width="0.0" stroke-linecap="butt" stroke-opacity="0.0" clip-path="url(#id_0)" d="M431.0 165.0L431.0 86.0L566.0 86.0L566.0 165.0Z" fill-rule="nonzero"/><path fill="#b6d7a8" clip-path="url(#id_0)" d="M431.0 165.0L431.0 86.0L566.0 86.0L566.0 165.0Z" fill-rule="nonzero"/><path stroke="#000000" stroke-width="0.0" stroke-linecap="butt" stroke-opacity="0.0" clip-path="url(#id_0)" d="M482.0 286.0L482.0 207.0L546.0 207.0L546.0 286.0Z" fill-rule="nonzero"/><path fill="#b6d7a8" clip-path="url(#id_0)" d="M482.0 286.0L482.0 207.0L546.0 207.0L546.0 286.0Z" fill-rule="nonzero"/><path stroke="#000000" stroke-width="0.0" stroke-linecap="butt" stroke-opacity="0.0" clip-path="url(#id_0)" d="M566.0 165.0L566.0 86.0L579.0 86.0C580.10455 86.0 581.0 86.89543 581.0 88.0L581.0 163.0C581.0 164.10457 580.10455 165.0 579.0 165.0Z" fill-rule="nonzero"/><path fill="#6aa84f" clip-path="url(#id_0)" d="M566.0 165.0L566.0 86.0L579.0 86.0C580.10455 86.0 581.0 86.89543 581.0 88.0L581.0 163.0C581.0 164.10457 580.10455 165.0 579.0 165.0Z" fill-rule="nonzero"/><path stroke="#000000" stroke-width="0.0" stroke-linecap="butt" stroke-opacity="0.0" clip-path="url(#id_0)" d="M546.0 286.0L546.0 207.0L579.0 207.0C580.10455 207.0 581.0 207.89543 581.0 209.0L581.0 284.0C581.0 285.10458 580.10455 286.0 579.0 286.0Z" fill-rule="nonzero"/><path fill="#6aa84f" clip-path="url(#id_0)" d="M546.0 286.0L546.0 207.0L579.0 207.0C580.10455 207.0 581.0 207.89543 581.0 209.0L581.0 284.0C581.0 285.10458 580.10455 286.0 579.0 286.0Z" fill-rule="nonzero"/><path fill="#000000" d="M41.63 111.126755Q41.13 111.86113 40.22375 112.220505Q39.3175 112.57988 38.114376 112.57988Q36.895626 112.57988 35.9425 112.01738Q35.005 111.439255 34.489376 110.39238Q33.97375 109.32988 33.958126 107.939255L33.958126 107.07988Q33.958126 104.82988 35.005 103.595505Q36.0675 102.345505 37.958126 102.345505Q39.520626 102.345505 40.47375 103.14238Q41.426876 103.939255 41.63 105.408005L40.3175 105.408005Q39.958126 103.42363 37.97375 103.42363Q36.645626 103.42363 35.958126 104.36113Q35.28625 105.283005 35.28625 107.033005L35.28625 107.845505Q35.28625 109.533005 36.051876 110.51738Q36.8175 111.501755 38.114376 111.501755Q38.864376 111.501755 39.41125 111.345505Q39.97375 111.17363 40.333126 110.783005L40.333126 108.54863L38.020626 108.54863L38.020626 107.48613L41.63 107.48613L41.63 111.126755ZM43.755 108.67363Q43.755 107.57988 44.176876 106.720505Q44.614376 105.845505 45.364376 105.376755Q46.13 104.908005 47.114376 104.908005Q48.614376 104.908005 49.551876 105.95488Q50.489376 107.001755 50.489376 108.73613L50.489376 108.82988Q50.489376 109.908005 50.0675 110.76738Q49.66125 111.61113 48.88 112.095505Q48.114376 112.57988 47.13 112.57988Q45.614376 112.57988 44.676876 111.533005Q43.755 110.48613 43.755 108.76738L43.755 108.67363ZM45.020626 108.82988Q45.020626 110.04863 45.583126 110.79863Q46.16125 111.54863 47.13 111.54863Q48.083126 111.54863 48.645626 110.79863Q49.22375 110.033005 49.22375 108.67363Q49.22375 107.45488 48.645626 106.70488Q48.0675 105.939255 47.114376 105.939255Q46.176876 105.939255 45.59875 106.689255Q45.020626 107.439255 45.020626 108.82988ZM54.520626 110.720505L56.364376 105.04863L57.645626 105.04863L55.005 112.439255L54.03625 112.439255L51.34875 105.04863L52.645626 105.04863L54.520626 110.720505ZM60.801876 103.251755L60.801876 105.04863L62.176876 105.04863L62.176876 106.01738L60.801876 106.01738L60.801876 110.61113Q60.801876 111.04863 60.989376 111.283005Q61.176876 111.501755 61.614376 111.501755Q61.833126 111.501755 62.22375 111.408005L62.22375 112.439255Q61.72375 112.57988 61.255 112.57988Q60.395626 112.57988 59.958126 112.064255Q59.53625 111.54863 59.53625 110.61113L59.53625 106.01738L58.1925 106.01738L58.1925 105.04863L59.53625 105.04863L59.53625 103.251755L60.801876 103.251755ZM64.11438 111.783005Q64.11438 111.45488 64.30188 111.23613Q64.505005 111.01738 64.89563 111.01738Q65.286255 111.01738 65.48938 111.23613Q65.692505 111.45488 65.692505 111.783005Q65.692505 112.095505 65.48938 112.314255Q65.286255 112.51738 64.89563 112.51738Q64.505005 112.51738 64.30188 112.314255Q64.11438 112.095505 64.11438 111.783005ZM78.942505 107.783005Q78.942505 109.251755 78.442505 110.345505Q77.95813 111.42363 77.05188 112.001755Q76.14563 112.57988 74.942505 112.57988Q73.77063 112.57988 72.86438 112.001755Q71.95813 111.42363 71.45813 110.36113Q70.95813 109.283005 70.942505 107.876755L70.942505 107.158005Q70.942505 105.720505 71.442505 104.626755Q71.942505 103.51738 72.848755 102.939255Q73.755005 102.345505 74.942505 102.345505Q76.130005 102.345505 77.036255 102.92363Q77.95813 103.501755 78.442505 104.61113Q78.942505 105.70488 78.942505 107.158005L78.942505 107.783005ZM77.630005 107.14238Q77.630005 105.376755 76.911255 104.42363Q76.20813 103.470505 74.942505 103.470505Q73.692505 103.470505 72.973755 104.42363Q72.27063 105.376755 72.23938 107.04863L72.23938 107.783005Q72.23938 109.501755 72.95813 110.48613Q73.692505 111.45488 74.942505 111.45488Q76.223755 111.45488 76.911255 110.533005Q77.61438 109.61113 77.630005 107.876755L77.630005 107.14238ZM88.942505 112.439255L87.61438 112.439255L82.598755 104.76738L82.598755 112.439255L81.286255 112.439255L81.286255 102.48613L82.598755 102.48613L87.630005 110.189255L87.630005 102.48613L88.942505 102.48613L88.942505 112.439255ZM92.598755 111.36113L97.317505 111.36113L97.317505 112.439255L91.286255 112.439255L91.286255 102.48613L92.598755 102.48613L92.598755 111.36113ZM102.317505 107.48613L104.911255 102.48613L106.411255 102.48613L102.973755 108.720505L102.973755 112.439255L101.661255 112.439255L101.661255 108.720505L98.23938 102.48613L99.73938 102.48613L102.317505 107.48613ZM114.661255 111.70488Q113.911255 112.57988 112.48938 112.57988Q111.30188 112.57988 110.67688 111.89238Q110.067505 111.20488 110.067505 109.86113L110.067505 105.04863L111.317505 105.04863L111.317505 109.814255Q111.317505 111.501755 112.692505 111.501755Q114.14563 111.501755 114.61438 110.42363L114.61438 105.04863L115.880005 105.04863L115.880005 112.439255L114.67688 112.439255L114.661255 111.70488ZM122.39563 110.470505Q122.39563 109.970505 122.005005 109.689255Q121.61438 109.39238 120.661255 109.189255Q119.70813 108.98613 119.130005 108.70488Q118.567505 108.408005 118.30188 108.01738Q118.036255 107.626755 118.036255 107.07988Q118.036255 106.158005 118.80188 105.533005Q119.567505 104.908005 120.77063 104.908005Q122.02063 104.908005 122.80188 105.564255Q123.58313 106.20488 123.58313 107.220505L122.317505 107.220505Q122.317505 106.689255 121.880005 106.314255Q121.442505 105.939255 120.77063 105.939255Q120.08313 105.939255 119.692505 106.251755Q119.30188 106.54863 119.30188 107.033005Q119.30188 107.48613 119.661255 107.720505Q120.02063 107.95488 120.95813 108.17363Q121.911255 108.376755 122.505005 108.67363Q123.098755 108.970505 123.380005 109.39238Q123.661255 109.79863 123.661255 110.39238Q123.661255 111.376755 122.86438 111.98613Q122.067505 112.57988 120.80188 112.57988Q119.92688 112.57988 119.23938 112.26738Q118.55188 111.939255 118.161255 111.376755Q117.786255 110.814255 117.786255 110.158005L119.05188 110.158005Q119.08313 110.79863 119.55188 111.17363Q120.036255 111.54863 120.80188 111.54863Q121.52063 111.54863 121.95813 111.251755Q122.39563 110.95488 122.39563 110.470505ZM128.16125 112.57988Q126.64563 112.57988 125.70813 111.595505Q124.77063 110.595505 124.77063 108.939255L124.77063 108.720505Q124.77063 107.61113 125.192505 106.751755Q125.61438 105.876755 126.36438 105.39238Q127.11438 104.908005 128.005 104.908005Q129.4425 104.908005 130.23938 105.86113Q131.03625 106.79863 131.03625 108.57988L131.03625 109.095505L126.036255 109.095505Q126.05188 110.189255 126.661255 110.876755Q127.286255 111.54863 128.22375 111.54863Q128.89563 111.54863 129.34875 111.283005Q129.8175 111.001755 130.17688 110.54863L130.9425 111.14238Q130.02063 112.57988 128.16125 112.57988ZM128.005 105.939255Q127.23938 105.939255 126.70813 106.501755Q126.192505 107.064255 126.067505 108.064255L129.77063 108.064255L129.77063 107.970505Q129.72375 107.001755 129.255 106.470505Q128.78625 105.939255 128.005 105.939255Z" fill-rule="nonzero"/><path fill="#000000" d="M60.801876 120.251755L60.801876 122.04863L62.176876 122.04863L62.176876 123.01738L60.801876 123.01738L60.801876 127.61113Q60.801876 128.04863 60.989376 128.283Q61.176876 128.50175 61.614376 128.50175Q61.833126 128.50175 62.22375 128.408L62.22375 129.43925Q61.72375 129.57988 61.255 129.57988Q60.395626 129.57988 59.958126 129.06425Q59.53625 128.54863 59.53625 127.61113L59.53625 123.01738L58.1925 123.01738L58.1925 122.04863L59.53625 122.04863L59.53625 120.251755L60.801876 120.251755ZM65.348755 122.939255Q66.192505 121.908005 67.536255 121.908005Q69.880005 121.908005 69.911255 124.54863L69.911255 129.43925L68.64563 129.43925L68.64563 124.54863Q68.630005 123.751755 68.27063 123.376755Q67.911255 122.98613 67.161255 122.98613Q66.536255 122.98613 66.067505 123.314255Q65.61438 123.64238 65.348755 124.17363L65.348755 129.43925L64.08313 129.43925L64.08313 118.939255L65.348755 118.939255L65.348755 122.939255ZM75.161255 129.57988Q73.64563 129.57988 72.70813 128.5955Q71.77063 127.595505 71.77063 125.939255L71.77063 125.720505Q71.77063 124.61113 72.192505 123.751755Q72.61438 122.876755 73.36438 122.39238Q74.11438 121.908005 75.005005 121.908005Q76.442505 121.908005 77.23938 122.86113Q78.036255 123.79863 78.036255 125.57988L78.036255 126.095505L73.036255 126.095505Q73.05188 127.189255 73.661255 127.876755Q74.286255 128.54863 75.223755 128.54863Q75.89563 128.54863 76.348755 128.283Q76.817505 128.00175 77.17688 127.54863L77.942505 128.14238Q77.02063 129.57988 75.161255 129.57988ZM75.005005 122.939255Q74.23938 122.939255 73.70813 123.501755Q73.192505 124.064255 73.067505 125.064255L76.77063 125.064255L76.77063 124.970505Q76.723755 124.001755 76.255005 123.470505Q75.786255 122.939255 75.005005 122.939255ZM81.786255 125.67363Q81.786255 123.970505 82.58313 122.939255Q83.39563 121.908005 84.692505 121.908005Q86.005005 121.908005 86.755005 122.79863L86.755005 118.939255L88.02063 118.939255L88.02063 129.43925L86.86438 129.43925L86.80188 128.64238Q86.036255 129.57988 84.692505 129.57988Q83.39563 129.57988 82.58313 128.533Q81.786255 127.470505 81.786255 125.76738L81.786255 125.67363ZM83.05188 125.82988Q83.05188 127.07988 83.567505 127.79863Q84.08313 128.50175 85.005005 128.50175Q86.20813 128.50175 86.755005 127.42363L86.755005 124.01738Q86.192505 122.98613 85.02063 122.98613Q84.08313 122.98613 83.567505 123.70488Q83.05188 124.408005 83.05188 125.82988ZM94.661255 129.43925Q94.55188 129.2205 94.473755 128.658Q93.598755 129.57988 92.36438 129.57988Q91.27063 129.57988 90.567505 128.9705Q89.880005 128.3455 89.880005 127.39238Q89.880005 126.23613 90.755005 125.595505Q91.630005 124.95488 93.223755 124.95488L94.45813 124.95488L94.45813 124.376755Q94.45813 123.70488 94.05188 123.314255Q93.661255 122.92363 92.89563 122.92363Q92.20813 122.92363 91.755005 123.26738Q91.30188 123.61113 91.30188 124.095505L90.02063 124.095505Q90.02063 123.533005 90.411255 123.01738Q90.817505 122.501755 91.48938 122.20488Q92.161255 121.908005 92.95813 121.908005Q94.23938 121.908005 94.95813 122.54863Q95.692505 123.189255 95.723755 124.29863L95.723755 127.70488Q95.723755 128.7205 95.973755 129.32988L95.973755 129.43925L94.661255 129.43925ZM92.55188 128.4705Q93.14563 128.4705 93.67688 128.17363Q94.223755 127.86113 94.45813 127.36113L94.45813 125.845505L93.45813 125.845505Q91.14563 125.845505 91.14563 127.20488Q91.14563 127.79863 91.536255 128.14238Q91.92688 128.4705 92.55188 128.4705ZM99.80188 120.251755L99.80188 122.04863L101.17688 122.04863L101.17688 123.01738L99.80188 123.01738L99.80188 127.61113Q99.80188 128.04863 99.98938 128.283Q100.17688 128.50175 100.61438 128.50175Q100.83313 128.50175 101.223755 128.408L101.223755 129.43925Q100.723755 129.57988 100.255005 129.57988Q99.39563 129.57988 98.95813 129.06425Q98.536255 128.54863 98.536255 127.61113L98.536255 123.01738L97.192505 123.01738L97.192505 122.04863L98.536255 122.04863L98.536255 120.251755L99.80188 120.251755ZM107.661255 129.43925Q107.55188 129.2205 107.473755 128.658Q106.598755 129.57988 105.36438 129.57988Q104.27063 129.57988 103.567505 128.9705Q102.880005 128.3455 102.880005 127.39238Q102.880005 126.23613 103.755005 125.595505Q104.630005 124.95488 106.223755 124.95488L107.45813 124.95488L107.45813 124.376755Q107.45813 123.70488 107.05188 123.314255Q106.661255 122.92363 105.89563 122.92363Q105.20813 122.92363 104.755005 123.26738Q104.30188 123.61113 104.30188 124.095505L103.02063 124.095505Q103.02063 123.533005 103.411255 123.01738Q103.817505 122.501755 104.48938 122.20488Q105.161255 121.908005 105.95813 121.908005Q107.23938 121.908005 107.95813 122.54863Q108.692505 123.189255 108.723755 124.29863L108.723755 127.70488Q108.723755 128.7205 108.973755 129.32988L108.973755 129.43925L107.661255 129.43925ZM105.55188 128.4705Q106.14563 128.4705 106.67688 128.17363Q107.223755 127.86113 107.45813 127.36113L107.45813 125.845505L106.45813 125.845505Q104.14563 125.845505 104.14563 127.20488Q104.14563 127.79863 104.536255 128.14238Q104.92688 128.4705 105.55188 128.4705ZM114.70813 129.43925L114.70813 123.01738L113.536255 123.01738L113.536255 122.04863L114.70813 122.04863L114.70813 121.283005Q114.70813 120.095505 115.33313 119.45488Q115.973755 118.79863 117.14563 118.79863Q117.58313 118.79863 118.005005 118.908005L117.942505 119.939255Q117.61438 119.876755 117.255005 119.876755Q116.64563 119.876755 116.30188 120.23613Q115.973755 120.595505 115.973755 121.26738L115.973755 122.04863L117.55188 122.04863L117.55188 123.01738L115.973755 123.01738L115.973755 129.43925L114.70813 129.43925ZM118.755005 125.67363Q118.755005 124.57988 119.17688 123.720505Q119.61438 122.845505 120.36438 122.376755Q121.130005 121.908005 122.11438 121.908005Q123.61438 121.908005 124.55188 122.95488Q125.48938 124.001755 125.48938 125.73613L125.48938 125.82988Q125.48938 126.908005 125.067505 127.76738Q124.661255 128.61113 123.880005 129.0955Q123.11438 129.57988 122.130005 129.57988Q120.61438 129.57988 119.67688 128.533Q118.755005 127.48613 118.755005 125.76738L118.755005 125.67363ZM120.02063 125.82988Q120.02063 127.04863 120.58313 127.79863Q121.161255 128.54863 122.130005 128.54863Q123.08313 128.54863 123.64563 127.79863Q124.223755 127.033005 124.223755 125.67363Q124.223755 124.45488 123.64563 123.70488Q123.067505 122.939255 122.11438 122.939255Q121.17688 122.939255 120.598755 123.689255Q120.02063 124.439255 120.02063 125.82988ZM130.66125 123.17363Q130.38 123.126755 130.03625 123.126755Q128.80188 123.126755 128.34875 124.189255L128.34875 129.43925L127.08313 129.43925L127.08313 122.04863L128.3175 122.04863L128.33313 122.89238Q128.95813 121.908005 130.09875 121.908005Q130.47375 121.908005 130.66125 122.001755L130.66125 123.17363Z" fill-rule="nonzero"/><path fill="#000000" d="M25.458124 146.43925L24.1925 146.43925L24.1925 139.04863L25.458124 139.04863L25.458124 146.43925ZM24.09875 137.07988Q24.09875 136.76738 24.28625 136.56425Q24.47375 136.3455 24.833124 136.3455Q25.208124 136.3455 25.395624 136.56425Q25.59875 136.76738 25.59875 137.07988Q25.59875 137.39238 25.395624 137.5955Q25.208124 137.79863 24.833124 137.79863Q24.47375 137.79863 24.28625 137.5955Q24.09875 137.39238 24.09875 137.07988ZM28.28625 139.04863L28.3175 139.9705Q29.176874 138.908 30.53625 138.908Q32.879997 138.908 32.911247 141.54863L32.911247 146.43925L31.645624 146.43925L31.645624 141.54863Q31.63 140.75175 31.270624 140.37675Q30.91125 139.98613 30.16125 139.98613Q29.53625 139.98613 29.0675 140.31425Q28.614374 140.64238 28.34875 141.17363L28.34875 146.43925L27.083124 146.43925L27.083124 139.04863L28.28625 139.04863ZM36.801872 137.25175L36.801872 139.04863L38.176872 139.04863L38.176872 140.01738L36.801872 140.01738L36.801872 144.61113Q36.801872 145.04863 36.989372 145.283Q37.176872 145.50175 37.614372 145.50175Q37.833122 145.50175 38.223747 145.408L38.223747 146.43925Q37.723747 146.57988 37.254997 146.57988Q36.395622 146.57988 35.958122 146.06425Q35.536247 145.54863 35.536247 144.61113L35.536247 140.01738L34.192497 140.01738L34.192497 139.04863L35.536247 139.04863L35.536247 137.25175L36.801872 137.25175ZM43.161247 146.57988Q41.645622 146.57988 40.708122 145.5955Q39.770622 144.5955 39.770622 142.93925L39.770622 142.7205Q39.770622 141.61113 40.192497 140.75175Q40.614372 139.87675 41.364372 139.39238Q42.114372 138.908 43.004997 138.908Q44.442497 138.908 45.239372 139.86113Q46.036247 140.79863 46.036247 142.57988L46.036247 143.0955L41.036247 143.0955Q41.051872 144.18925 41.661247 144.87675Q42.286247 145.54863 43.223747 145.54863Q43.895622 145.54863 44.348747 145.283Q44.817497 145.00175 45.176872 144.54863L45.942497 145.14238Q45.020622 146.57988 43.161247 146.57988ZM43.004997 139.93925Q42.239372 139.93925 41.708122 140.50175Q41.192497 141.06425 41.067497 142.06425L44.770622 142.06425L44.770622 141.9705Q44.723747 141.00175 44.254997 140.4705Q43.786247 139.93925 43.004997 139.93925ZM48.286247 139.04863L48.317497 139.9705Q49.176872 138.908 50.536247 138.908Q52.879997 138.908 52.911247 141.54863L52.911247 146.43925L51.645622 146.43925L51.645622 141.54863Q51.629997 140.75175 51.270622 140.37675Q50.911247 139.98613 50.161247 139.98613Q49.536247 139.98613 49.067497 140.31425Q48.614372 140.64238 48.348747 141.17363L48.348747 146.43925L47.083122 146.43925L47.083122 139.04863L48.286247 139.04863ZM54.786247 142.67363Q54.786247 140.9705 55.583122 139.93925Q56.395622 138.908 57.692497 138.908Q59.004997 138.908 59.754997 139.79863L59.754997 135.93925L61.020622 135.93925L61.020622 146.43925L59.864372 146.43925L59.801872 145.64238Q59.036247 146.57988 57.692497 146.57988Q56.395622 146.57988 55.583122 145.533Q54.786247 144.4705 54.786247 142.76738L54.786247 142.67363ZM56.051872 142.82988Q56.051872 144.07988 56.567497 144.79863Q57.083122 145.50175 58.004997 145.50175Q59.208122 145.50175 59.754997 144.42363L59.754997 141.01738Q59.192497 139.98613 58.020622 139.98613Q57.083122 139.98613 56.567497 140.70488Q56.051872 141.408 56.051872 142.82988ZM66.16125 146.57988Q64.64562 146.57988 63.708122 145.5955Q62.770622 144.5955 62.770622 142.93925L62.770622 142.7205Q62.770622 141.61113 63.192497 140.75175Q63.614372 139.87675 64.36437 139.39238Q65.11437 138.908 66.005 138.908Q67.4425 138.908 68.23937 139.86113Q69.03625 140.79863 69.03625 142.57988L69.03625 143.0955L64.03625 143.0955Q64.05187 144.18925 64.66125 144.87675Q65.28625 145.54863 66.22375 145.54863Q66.89562 145.54863 67.34875 145.283Q67.8175 145.00175 68.17687 144.54863L68.9425 145.14238Q68.02062 146.57988 66.16125 146.57988ZM66.005 139.93925Q65.23937 139.93925 64.70812 140.50175Q64.1925 141.06425 64.0675 142.06425L67.77062 142.06425L67.77062 141.9705Q67.72375 141.00175 67.255 140.4705Q66.78625 139.93925 66.005 139.93925ZM69.78625 142.67363Q69.78625 140.9705 70.58312 139.93925Q71.39562 138.908 72.6925 138.908Q74.005 138.908 74.755 139.79863L74.755 135.93925L76.02062 135.93925L76.02062 146.43925L74.86437 146.43925L74.80187 145.64238Q74.03625 146.57988 72.6925 146.57988Q71.39562 146.57988 70.58312 145.533Q69.78625 144.4705 69.78625 142.76738L69.78625 142.67363ZM71.05187 142.82988Q71.05187 144.07988 71.5675 144.79863Q72.08312 145.50175 73.005 145.50175Q74.20812 145.50175 74.755 144.42363L74.755 141.01738Q74.1925 139.98613 73.02062 139.98613Q72.08312 139.98613 71.5675 140.70488Q71.05187 141.408 71.05187 142.82988ZM87.33312 142.82988Q87.33312 144.51738 86.55187 145.54863Q85.78625 146.57988 84.47375 146.57988Q83.13 146.57988 82.34875 145.7205L82.34875 149.283L81.08312 149.283L81.08312 139.04863L82.23937 139.04863L82.30187 139.86113Q83.08312 138.908 84.45812 138.908Q85.78625 138.908 86.55187 139.908Q87.33312 140.908 87.33312 142.70488L87.33312 142.82988ZM86.0675 142.67363Q86.0675 141.42363 85.53625 140.70488Q85.005 139.98613 84.0675 139.98613Q82.92687 139.98613 82.34875 141.00175L82.34875 144.533Q82.92687 145.54863 84.08312 145.54863Q85.005 145.54863 85.53625 144.82988Q86.0675 144.0955 86.0675 142.67363ZM93.66125 145.70488Q92.91125 146.57988 91.48937 146.57988Q90.30187 146.57988 89.67687 145.89238Q89.0675 145.20488 89.0675 143.86113L89.0675 139.04863L90.3175 139.04863L90.3175 143.81425Q90.3175 145.50175 91.6925 145.50175Q93.14562 145.50175 93.61437 144.42363L93.61437 139.04863L94.88 139.04863L94.88 146.43925L93.67687 146.43925L93.66125 145.70488ZM100.66125 140.17363Q100.38 140.12675 100.03625 140.12675Q98.80187 140.12675 98.34875 141.18925L98.34875 146.43925L97.08312 146.43925L97.08312 139.04863L98.3175 139.04863L98.33312 139.89238Q98.95812 138.908 100.09875 138.908Q100.47375 138.908 100.66125 139.00175L100.66125 140.17363ZM108.33312 142.82988Q108.33312 144.51738 107.55187 145.54863Q106.78625 146.57988 105.47375 146.57988Q104.13 146.57988 103.34875 145.7205L103.34875 149.283L102.08312 149.283L102.08312 139.04863L103.23937 139.04863L103.30187 139.86113Q104.08312 138.908 105.45812 138.908Q106.78625 138.908 107.55187 139.908Q108.33312 140.908 108.33312 142.70488L108.33312 142.82988ZM107.0675 142.67363Q107.0675 141.42363 106.53625 140.70488Q106.005 139.98613 105.0675 139.98613Q103.92687 139.98613 103.34875 141.00175L103.34875 144.533Q103.92687 145.54863 105.08312 145.54863Q106.005 145.54863 106.53625 144.82988Q107.0675 144.0955 107.0675 142.67363ZM109.755 142.67363Q109.755 141.57988 110.17687 140.7205Q110.61437 139.8455 111.36437 139.37675Q112.13 138.908 113.11437 138.908Q114.61437 138.908 115.55187 139.95488Q116.48937 141.00175 116.48937 142.73613L116.48937 142.82988Q116.48937 143.908 116.0675 144.76738Q115.66125 145.61113 114.88 146.0955Q114.11437 146.57988 113.13 146.57988Q111.61437 146.57988 110.67687 145.533Q109.755 144.48613 109.755 142.76738L109.755 142.67363ZM111.02062 142.82988Q111.02062 144.04863 111.58312 144.79863Q112.16125 145.54863 113.13 145.54863Q114.08312 145.54863 114.64562 144.79863Q115.22375 144.033 115.22375 142.67363Q115.22375 141.45488 114.64562 140.70488Q114.0675 139.93925 113.11437 139.93925Q112.17687 139.93925 111.59875 140.68925Q111.02062 141.43925 111.02062 142.82988ZM122.39562 144.4705Q122.39562 143.9705 122.005 143.68925Q121.61437 143.39238 120.66125 143.18925Q119.70812 142.98613 119.13 142.70488Q118.5675 142.408 118.30187 142.01738Q118.03625 141.62675 118.03625 141.07988Q118.03625 140.158 118.80187 139.533Q119.5675 138.908 120.77062 138.908Q122.02062 138.908 122.80187 139.56425Q123.58312 140.20488 123.58312 141.2205L122.3175 141.2205Q122.3175 140.68925 121.88 140.31425Q121.4425 139.93925 120.77062 139.93925Q120.08312 139.93925 119.6925 140.25175Q119.30187 140.54863 119.30187 141.033Q119.30187 141.48613 119.66125 141.7205Q120.02062 141.95488 120.95812 142.17363Q121.91125 142.37675 122.505 142.67363Q123.09875 142.9705 123.38 143.39238Q123.66125 143.79863 123.66125 144.39238Q123.66125 145.37675 122.86437 145.98613Q122.0675 146.57988 120.80187 146.57988Q119.92687 146.57988 119.23937 146.26738Q118.55187 145.93925 118.16125 145.37675Q117.78625 144.81425 117.78625 144.158L119.05187 144.158Q119.08312 144.79863 119.55187 145.17363Q120.03625 145.54863 120.80187 145.54863Q121.52062 145.54863 121.95812 145.25175Q122.39562 144.95488 122.39562 144.4705ZM128.16125 146.57988Q126.64562 146.57988 125.70812 145.5955Q124.77062 144.5955 124.77062 142.93925L124.77062 142.7205Q124.77062 141.61113 125.1925 140.75175Q125.61437 139.87675 126.36437 139.39238Q127.11437 138.908 128.005 138.908Q129.4425 138.908 130.23938 139.86113Q131.03625 140.79863 131.03625 142.57988L131.03625 143.0955L126.03625 143.0955Q126.05187 144.18925 126.66125 144.87675Q127.28625 145.54863 128.22375 145.54863Q128.89563 145.54863 129.34875 145.283Q129.8175 145.00175 130.17688 144.54863L130.9425 145.14238Q130.02063 146.57988 128.16125 146.57988ZM128.005 139.93925Q127.23937 139.93925 126.70812 140.50175Q126.1925 141.06425 126.0675 142.06425L129.77063 142.06425L129.77063 141.9705Q129.72375 141.00175 129.255 140.4705Q128.78625 139.93925 128.005 139.93925Z" fill-rule="nonzero"/><path fill="#000000" d="M30.63 232.6257Q30.13 233.36008 29.22375 233.71945Q28.3175 234.07883 27.114374 234.07883Q25.895624 234.07883 24.9425 233.51633Q24.005 232.9382 23.489374 231.89133Q22.97375 230.82883 22.958124 229.4382L22.958124 228.57883Q22.958124 226.32883 24.005 225.09445Q25.0675 223.84445 26.958124 223.84445Q28.520624 223.84445 29.47375 224.64133Q30.426874 225.4382 30.63 226.90695L29.3175 226.90695Q28.958124 224.92258 26.97375 224.92258Q25.645624 224.92258 24.958124 225.86008Q24.28625 226.78195 24.28625 228.53195L24.28625 229.34445Q24.28625 231.03195 25.051874 232.01633Q25.8175 233.0007 27.114374 233.0007Q27.864374 233.0007 28.41125 232.84445Q28.97375 232.67258 29.333124 232.28195L29.333124 230.04758L27.020624 230.04758L27.020624 228.98508L30.63 228.98508L30.63 232.6257ZM32.754997 230.17258Q32.754997 229.07883 33.176872 228.21945Q33.614372 227.34445 34.364372 226.8757Q35.129997 226.40695 36.114372 226.40695Q37.614372 226.40695 38.551872 227.45383Q39.489372 228.5007 39.489372 230.23508L39.489372 230.32883Q39.489372 231.40695 39.067497 232.26633Q38.661247 233.11008 37.879997 233.59445Q37.114372 234.07883 36.129997 234.07883Q34.614372 234.07883 33.676872 233.03195Q32.754997 231.98508 32.754997 230.26633L32.754997 230.17258ZM34.020622 230.32883Q34.020622 231.54758 34.583122 232.29758Q35.161247 233.04758 36.129997 233.04758Q37.083122 233.04758 37.645622 232.29758Q38.223747 231.53195 38.223747 230.17258Q38.223747 228.95383 37.645622 228.20383Q37.067497 227.4382 36.114372 227.4382Q35.176872 227.4382 34.598747 228.1882Q34.020622 228.9382 34.020622 230.32883ZM43.520622 232.21945L45.364372 226.54758L46.645622 226.54758L44.004997 233.9382L43.036247 233.9382L40.348747 226.54758L41.645622 226.54758L43.520622 232.21945ZM49.801872 224.7507L49.801872 226.54758L51.176872 226.54758L51.176872 227.51633L49.801872 227.51633L49.801872 232.11008Q49.801872 232.54758 49.989372 232.78195Q50.176872 233.0007 50.614372 233.0007Q50.833122 233.0007 51.223747 232.90695L51.223747 233.9382Q50.723747 234.07883 50.254997 234.07883Q49.395622 234.07883 48.958122 233.5632Q48.536247 233.04758 48.536247 232.11008L48.536247 227.51633L47.192497 227.51633L47.192497 226.54758L48.536247 226.54758L48.536247 224.7507L49.801872 224.7507ZM53.114372 233.28195Q53.114372 232.95383 53.301872 232.73508Q53.504997 232.51633 53.895622 232.51633Q54.286247 232.51633 54.489372 232.73508Q54.692497 232.95383 54.692497 233.28195Q54.692497 233.59445 54.489372 233.8132Q54.286247 234.01633 53.895622 234.01633Q53.504997 234.01633 53.301872 233.8132Q53.114372 233.59445 53.114372 233.28195ZM66.63 232.1882L68.05187 226.54758L69.3175 226.54758L67.17687 233.9382L66.14562 233.9382L64.34875 228.32883L62.598747 233.9382L61.567497 233.9382L59.426872 226.54758L60.676872 226.54758L62.145622 232.07883L63.864372 226.54758L64.88 226.54758L66.63 232.1882ZM72.45812 233.9382L71.1925 233.9382L71.1925 226.54758L72.45812 226.54758L72.45812 233.9382ZM71.09875 224.57883Q71.09875 224.26633 71.28625 224.0632Q71.47375 223.84445 71.83312 223.84445Q72.20812 223.84445 72.39562 224.0632Q72.59875 224.26633 72.59875 224.57883Q72.59875 224.89133 72.39562 225.09445Q72.20812 225.29758 71.83312 225.29758Q71.47375 225.29758 71.28625 225.09445Q71.09875 224.89133 71.09875 224.57883ZM75.45812 233.9382L74.1925 233.9382L74.1925 223.4382L75.45812 223.4382L75.45812 233.9382ZM78.45812 233.9382L77.1925 233.9382L77.1925 223.4382L78.45812 223.4382L78.45812 233.9382ZM83.28625 233.9382L83.28625 223.98508L86.09875 223.98508Q87.39562 223.98508 88.39562 224.5632Q89.39562 225.1257 89.92687 226.1882Q90.47375 227.2507 90.48937 228.6257L90.48937 229.26633Q90.48937 230.67258 89.9425 231.73508Q89.39562 232.78195 88.38 233.36008Q87.38 233.92258 86.03625 233.9382L83.28625 233.9382ZM84.59875 225.0632L84.59875 232.86008L85.97375 232.86008Q87.48937 232.86008 88.33312 231.92258Q89.1925 230.98508 89.1925 229.23508L89.1925 228.65695Q89.1925 226.95383 88.39562 226.01633Q87.59875 225.07883 86.13 225.0632L84.59875 225.0632ZM97.91125 229.34445L93.59875 229.34445L93.59875 232.86008L98.61437 232.86008L98.61437 233.9382L92.28625 233.9382L92.28625 223.98508L98.53625 223.98508L98.53625 225.0632L93.59875 225.0632L93.59875 228.26633L97.91125 228.26633L97.91125 229.34445ZM101.59875 232.86008L106.3175 232.86008L106.3175 233.9382L100.28625 233.9382L100.28625 223.98508L101.59875 223.98508L101.59875 232.86008ZM113.91125 229.34445L109.59875 229.34445L109.59875 232.86008L114.61437 232.86008L114.61437 233.9382L108.28625 233.9382L108.28625 223.98508L114.53625 223.98508L114.53625 225.0632L109.59875 225.0632L109.59875 228.26633L113.91125 228.26633L113.91125 229.34445ZM123.16125 225.0632L119.95812 225.0632L119.95812 233.9382L118.66125 233.9382L118.66125 225.0632L115.45812 225.0632L115.45812 223.98508L123.16125 223.98508L123.16125 225.0632ZM129.91125 229.34445L125.59875 229.34445L125.59875 232.86008L130.61438 232.86008L130.61438 233.9382L124.28625 233.9382L124.28625 223.98508L130.53625 223.98508L130.53625 225.0632L125.59875 225.0632L125.59875 228.26633L129.91125 228.26633L129.91125 229.34445Z" fill-rule="nonzero"/><path fill="#000000" d="M48.801876 241.7507L48.801876 243.54758L50.176876 243.54758L50.176876 244.51633L48.801876 244.51633L48.801876 249.11008Q48.801876 249.54758 48.989376 249.78195Q49.176876 250.0007 49.614376 250.0007Q49.833126 250.0007 50.22375 249.90695L50.22375 250.9382Q49.72375 251.07883 49.255 251.07883Q48.395626 251.07883 47.958126 250.5632Q47.53625 250.04758 47.53625 249.11008L47.53625 244.51633L46.1925 244.51633L46.1925 243.54758L47.53625 243.54758L47.53625 241.7507L48.801876 241.7507ZM53.34875 244.4382Q54.1925 243.40695 55.53625 243.40695Q57.88 243.40695 57.91125 246.04758L57.91125 250.9382L56.645626 250.9382L56.645626 246.04758Q56.63 245.2507 56.270626 244.8757Q55.91125 244.48508 55.16125 244.48508Q54.53625 244.48508 54.0675 244.8132Q53.614376 245.14133 53.34875 245.67258L53.34875 250.9382L52.083126 250.9382L52.083126 240.4382L53.34875 240.4382L53.34875 244.4382ZM63.16125 251.07883Q61.645626 251.07883 60.708126 250.09445Q59.770626 249.09445 59.770626 247.4382L59.770626 247.21945Q59.770626 246.11008 60.1925 245.2507Q60.614376 244.3757 61.364376 243.89133Q62.114376 243.40695 63.005 243.40695Q64.442505 243.40695 65.23938 244.36008Q66.036255 245.29758 66.036255 247.07883L66.036255 247.59445L61.03625 247.59445Q61.051876 248.6882 61.66125 249.3757Q62.28625 250.04758 63.22375 250.04758Q63.895626 250.04758 64.348755 249.78195Q64.817505 249.5007 65.17688 249.04758L65.942505 249.64133Q65.02063 251.07883 63.16125 251.07883ZM63.005 244.4382Q62.239376 244.4382 61.708126 245.0007Q61.1925 245.5632 61.0675 246.5632L64.77063 246.5632L64.77063 246.46945Q64.723755 245.5007 64.255005 244.96945Q63.78625 244.4382 63.005 244.4382ZM69.786255 247.17258Q69.786255 245.46945 70.58313 244.4382Q71.39563 243.40695 72.692505 243.40695Q74.005005 243.40695 74.755005 244.29758L74.755005 240.4382L76.02063 240.4382L76.02063 250.9382L74.86438 250.9382L74.80188 250.14133Q74.036255 251.07883 72.692505 251.07883Q71.39563 251.07883 70.58313 250.03195Q69.786255 248.96945 69.786255 247.26633L69.786255 247.17258ZM71.05188 247.32883Q71.05188 248.57883 71.567505 249.29758Q72.08313 250.0007 73.005005 250.0007Q74.20813 250.0007 74.755005 248.92258L74.755005 245.51633Q74.192505 244.48508 73.02063 244.48508Q72.08313 244.48508 71.567505 245.20383Q71.05188 245.90695 71.05188 247.32883ZM82.661255 250.9382Q82.55188 250.71945 82.473755 250.15695Q81.598755 251.07883 80.36438 251.07883Q79.27063 251.07883 78.567505 250.46945Q77.880005 249.84445 77.880005 248.89133Q77.880005 247.73508 78.755005 247.09445Q79.630005 246.45383 81.223755 246.45383L82.45813 246.45383L82.45813 245.8757Q82.45813 245.20383 82.05188 244.8132Q81.661255 244.42258 80.89563 244.42258Q80.20813 244.42258 79.755005 244.76633Q79.30188 245.11008 79.30188 245.59445L78.02063 245.59445Q78.02063 245.03195 78.411255 244.51633Q78.817505 244.0007 79.48938 243.70383Q80.161255 243.40695 80.95813 243.40695Q82.23938 243.40695 82.95813 244.04758Q83.692505 244.6882 83.723755 245.79758L83.723755 249.20383Q83.723755 250.21945 83.973755 250.82883L83.973755 250.9382L82.661255 250.9382ZM80.55188 249.96945Q81.14563 249.96945 81.67688 249.67258Q82.223755 249.36008 82.45813 248.86008L82.45813 247.34445L81.45813 247.34445Q79.14563 247.34445 79.14563 248.70383Q79.14563 249.29758 79.536255 249.64133Q79.92688 249.96945 80.55188 249.96945ZM87.80188 241.7507L87.80188 243.54758L89.17688 243.54758L89.17688 244.51633L87.80188 244.51633L87.80188 249.11008Q87.80188 249.54758 87.98938 249.78195Q88.17688 250.0007 88.61438 250.0007Q88.83313 250.0007 89.223755 249.90695L89.223755 250.9382Q88.723755 251.07883 88.255005 251.07883Q87.39563 251.07883 86.95813 250.5632Q86.536255 250.04758 86.536255 249.11008L86.536255 244.51633L85.192505 244.51633L85.192505 243.54758L86.536255 243.54758L86.536255 241.7507L87.80188 241.7507ZM95.661255 250.9382Q95.55188 250.71945 95.473755 250.15695Q94.598755 251.07883 93.36438 251.07883Q92.27063 251.07883 91.567505 250.46945Q90.880005 249.84445 90.880005 248.89133Q90.880005 247.73508 91.755005 247.09445Q92.630005 246.45383 94.223755 246.45383L95.45813 246.45383L95.45813 245.8757Q95.45813 245.20383 95.05188 244.8132Q94.661255 244.42258 93.89563 244.42258Q93.20813 244.42258 92.755005 244.76633Q92.30188 245.11008 92.30188 245.59445L91.02063 245.59445Q91.02063 245.03195 91.411255 244.51633Q91.817505 244.0007 92.48938 243.70383Q93.161255 243.40695 93.95813 243.40695Q95.23938 243.40695 95.95813 244.04758Q96.692505 244.6882 96.723755 245.79758L96.723755 249.20383Q96.723755 250.21945 96.973755 250.82883L96.973755 250.9382L95.661255 250.9382ZM93.55188 249.96945Q94.14563 249.96945 94.67688 249.67258Q95.223755 249.36008 95.45813 248.86008L95.45813 247.34445L94.45813 247.34445Q92.14563 247.34445 92.14563 248.70383Q92.14563 249.29758 92.536255 249.64133Q92.92688 249.96945 93.55188 249.96945ZM106.661255 250.9382Q106.55188 250.71945 106.473755 250.15695Q105.598755 251.07883 104.36438 251.07883Q103.27063 251.07883 102.567505 250.46945Q101.880005 249.84445 101.880005 248.89133Q101.880005 247.73508 102.755005 247.09445Q103.630005 246.45383 105.223755 246.45383L106.45813 246.45383L106.45813 245.8757Q106.45813 245.20383 106.05188 244.8132Q105.661255 244.42258 104.89563 244.42258Q104.20813 244.42258 103.755005 244.76633Q103.30188 245.11008 103.30188 245.59445L102.02063 245.59445Q102.02063 245.03195 102.411255 244.51633Q102.817505 244.0007 103.48938 243.70383Q104.161255 243.40695 104.95813 243.40695Q106.23938 243.40695 106.95813 244.04758Q107.692505 244.6882 107.723755 245.79758L107.723755 249.20383Q107.723755 250.21945 107.973755 250.82883L107.973755 250.9382L106.661255 250.9382ZM104.55188 249.96945Q105.14563 249.96945 105.67688 249.67258Q106.223755 249.36008 106.45813 248.86008L106.45813 247.34445L105.45813 247.34445Q103.14563 247.34445 103.14563 248.70383Q103.14563 249.29758 103.536255 249.64133Q103.92688 249.96945 104.55188 249.96945ZM110.70813 250.9382L110.70813 244.51633L109.536255 244.51633L109.536255 243.54758L110.70813 243.54758L110.70813 242.78195Q110.70813 241.59445 111.33313 240.95383Q111.973755 240.29758 113.14563 240.29758Q113.58313 240.29758 114.005005 240.40695L113.942505 241.4382Q113.61438 241.3757 113.255005 241.3757Q112.64563 241.3757 112.30188 241.73508Q111.973755 242.09445 111.973755 242.76633L111.973755 243.54758L113.55188 243.54758L113.55188 244.51633L111.973755 244.51633L111.973755 250.9382L110.70813 250.9382ZM116.80188 241.7507L116.80188 243.54758L118.17688 243.54758L118.17688 244.51633L116.80188 244.51633L116.80188 249.11008Q116.80188 249.54758 116.98938 249.78195Q117.17688 250.0007 117.61438 250.0007Q117.83313 250.0007 118.223755 249.90695L118.223755 250.9382Q117.723755 251.07883 117.255005 251.07883Q116.39563 251.07883 115.95813 250.5632Q115.536255 250.04758 115.536255 249.11008L115.536255 244.51633L114.192505 244.51633L114.192505 243.54758L115.536255 243.54758L115.536255 241.7507L116.80188 241.7507ZM123.161255 251.07883Q121.64563 251.07883 120.70813 250.09445Q119.77063 249.09445 119.77063 247.4382L119.77063 247.21945Q119.77063 246.11008 120.192505 245.2507Q120.61438 244.3757 121.36438 243.89133Q122.11438 243.40695 123.005005 243.40695Q124.442505 243.40695 125.23938 244.36008Q126.036255 245.29758 126.036255 247.07883L126.036255 247.59445L121.036255 247.59445Q121.05188 248.6882 121.661255 249.3757Q122.286255 250.04758 123.223755 250.04758Q123.89563 250.04758 124.348755 249.78195Q124.817505 249.5007 125.17688 249.04758L125.942505 249.64133Q125.02063 251.07883 123.161255 251.07883ZM123.005005 244.4382Q122.23938 244.4382 121.70813 245.0007Q121.192505 245.5632 121.067505 246.5632L124.77063 246.5632L124.77063 246.46945Q124.723755 245.5007 124.255005 244.96945Q123.786255 244.4382 123.005005 244.4382ZM130.66125 244.67258Q130.38 244.6257 130.03625 244.6257Q128.80188 244.6257 128.34875 245.6882L128.34875 250.9382L127.08313 250.9382L127.08313 243.54758L128.3175 243.54758L128.33313 244.39133Q128.95813 243.40695 130.09875 243.40695Q130.47375 243.40695 130.66125 243.5007L130.66125 244.67258Z" fill-rule="nonzero"/><path fill="#000000" d="M77.33312 264.32883Q77.33312 266.01633 76.55187 267.04758Q75.78625 268.07883 74.47375 268.07883Q73.13 268.07883 72.34875 267.21945L72.34875 270.78195L71.08312 270.78195L71.08312 260.54758L72.23937 260.54758L72.30187 261.36008Q73.08312 260.40695 74.45812 260.40695Q75.78625 260.40695 76.55187 261.40695Q77.33312 262.40695 77.33312 264.20383L77.33312 264.32883ZM76.0675 264.17258Q76.0675 262.92258 75.53625 262.20383Q75.005 261.48508 74.0675 261.48508Q72.92687 261.48508 72.34875 262.5007L72.34875 266.03195Q72.92687 267.04758 74.08312 267.04758Q75.005 267.04758 75.53625 266.32883Q76.0675 265.59445 76.0675 264.17258ZM83.66125 267.9382Q83.55187 267.71945 83.47375 267.15695Q82.59875 268.07883 81.36437 268.07883Q80.27062 268.07883 79.5675 267.46945Q78.88 266.84445 78.88 265.89133Q78.88 264.73508 79.755 264.09445Q80.63 263.45383 82.22375 263.45383L83.45812 263.45383L83.45812 262.8757Q83.45812 262.20383 83.05187 261.8132Q82.66125 261.42258 81.89562 261.42258Q81.20812 261.42258 80.755 261.76633Q80.30187 262.11008 80.30187 262.59445L79.02062 262.59445Q79.02062 262.03195 79.41125 261.51633Q79.8175 261.0007 80.48937 260.70383Q81.16125 260.40695 81.95812 260.40695Q83.23937 260.40695 83.95812 261.04758Q84.6925 261.6882 84.72375 262.79758L84.72375 266.20383Q84.72375 267.21945 84.97375 267.82883L84.97375 267.9382L83.66125 267.9382ZM81.55187 266.96945Q82.14562 266.96945 82.67687 266.67258Q83.22375 266.36008 83.45812 265.86008L83.45812 264.34445L82.45812 264.34445Q80.14562 264.34445 80.14562 265.70383Q80.14562 266.29758 80.53625 266.64133Q80.92687 266.96945 81.55187 266.96945ZM88.28625 260.54758L88.3175 261.46945Q89.17687 260.40695 90.53625 260.40695Q92.88 260.40695 92.91125 263.04758L92.91125 267.9382L91.64562 267.9382L91.64562 263.04758Q91.63 262.2507 91.27062 261.8757Q90.91125 261.48508 90.16125 261.48508Q89.53625 261.48508 89.0675 261.8132Q88.61437 262.14133 88.34875 262.67258L88.34875 267.9382L87.08312 267.9382L87.08312 260.54758L88.28625 260.54758ZM94.78625 264.17258Q94.78625 262.46945 95.58312 261.4382Q96.39562 260.40695 97.6925 260.40695Q99.005 260.40695 99.755 261.29758L99.755 257.4382L101.02062 257.4382L101.02062 267.9382L99.86437 267.9382L99.80187 267.14133Q99.03625 268.07883 97.6925 268.07883Q96.39562 268.07883 95.58312 267.03195Q94.78625 265.96945 94.78625 264.26633L94.78625 264.17258ZM96.05187 264.32883Q96.05187 265.57883 96.5675 266.29758Q97.08312 267.0007 98.005 267.0007Q99.20812 267.0007 99.755 265.92258L99.755 262.51633Q99.1925 261.48508 98.02062 261.48508Q97.08312 261.48508 96.5675 262.20383Q96.05187 262.90695 96.05187 264.32883ZM106.16125 268.07883Q104.64562 268.07883 103.70812 267.09445Q102.77062 266.09445 102.77062 264.4382L102.77062 264.21945Q102.77062 263.11008 103.1925 262.2507Q103.61437 261.3757 104.36437 260.89133Q105.11437 260.40695 106.005 260.40695Q107.4425 260.40695 108.23937 261.36008Q109.03625 262.29758 109.03625 264.07883L109.03625 264.59445L104.03625 264.59445Q104.05187 265.6882 104.66125 266.3757Q105.28625 267.04758 106.22375 267.04758Q106.89562 267.04758 107.34875 266.78195Q107.8175 266.5007 108.17687 266.04758L108.9425 266.64133Q108.02062 268.07883 106.16125 268.07883ZM106.005 261.4382Q105.23937 261.4382 104.70812 262.0007Q104.1925 262.5632 104.0675 263.5632L107.77062 263.5632L107.77062 263.46945Q107.72375 262.5007 107.255 261.96945Q106.78625 261.4382 106.005 261.4382ZM111.27062 260.54758L111.3175 261.36008Q112.13 260.40695 113.505 260.40695Q115.05187 260.40695 115.61437 261.59445Q115.98937 261.0632 116.58312 260.73508Q117.17687 260.40695 117.97375 260.40695Q120.41125 260.40695 120.45812 262.98508L120.45812 267.9382L119.1925 267.9382L119.1925 263.0632Q119.1925 262.26633 118.8175 261.8757Q118.45812 261.48508 117.61437 261.48508Q116.89562 261.48508 116.42687 261.90695Q115.97375 262.3132 115.89562 263.03195L115.89562 267.9382L114.63 267.9382L114.63 263.09445Q114.63 261.48508 113.05187 261.48508Q111.80187 261.48508 111.34875 262.53195L111.34875 267.9382L110.08312 267.9382L110.08312 260.54758L111.27062 260.54758ZM123.45812 267.9382L122.1925 267.9382L122.1925 260.54758L123.45812 260.54758L123.45812 267.9382ZM122.09875 258.57883Q122.09875 258.26633 122.28625 258.0632Q122.47375 257.84445 122.83312 257.84445Q123.20812 257.84445 123.39562 258.0632Q123.59875 258.26633 123.59875 258.57883Q123.59875 258.89133 123.39562 259.09445Q123.20812 259.29758 122.83312 259.29758Q122.47375 259.29758 122.28625 259.09445Q122.09875 258.89133 122.09875 258.57883ZM128.05188 267.04758Q128.72375 267.04758 129.22375 266.64133Q129.73938 266.21945 129.80188 265.61008L130.98938 265.61008Q130.95813 266.23508 130.55188 266.8132Q130.14563 267.39133 129.47375 267.73508Q128.80188 268.07883 128.05188 268.07883Q126.53625 268.07883 125.64562 267.07883Q124.755 266.0632 124.755 264.3132L124.755 264.09445Q124.755 263.01633 125.14562 262.17258Q125.55187 261.32883 126.28625 260.8757Q127.03625 260.40695 128.05188 260.40695Q129.28625 260.40695 130.11438 261.15695Q130.9425 261.89133 130.98938 263.07883L129.80188 263.07883Q129.73938 262.36008 129.255 261.90695Q128.77063 261.4382 128.05188 261.4382Q127.08312 261.4382 126.55187 262.14133Q126.02062 262.82883 126.02062 264.14133L126.02062 264.3757Q126.02062 265.65695 126.55187 266.36008Q127.08312 267.04758 128.05188 267.04758Z" fill-rule="nonzero"/><path fill="#000000" d="M136.1925 344.2Q136.1925 346.41876 135.42688 347.5125Q134.67688 348.59064 133.0675 348.59064Q131.47375 348.59064 130.70813 347.54376Q129.9425 346.48126 129.91125 344.3719L129.91125 342.6844Q129.91125 340.4969 130.66125 339.4344Q131.42688 338.35626 133.05188 338.35626Q134.66125 338.35626 135.41125 339.3875Q136.17688 340.41876 136.1925 342.5594L136.1925 344.2ZM134.92688 342.48126Q134.92688 340.8719 134.47375 340.1375Q134.03625 339.40314 133.05188 339.40314Q132.08313 339.40314 131.63 340.1375Q131.1925 340.85626 131.17688 342.3719L131.17688 344.40314Q131.17688 346.0125 131.64563 346.79376Q132.11438 347.5594 133.0675 347.5594Q134.005 347.5594 134.45813 346.84064Q134.91125 346.10626 134.92688 344.54376L134.92688 342.48126ZM137.84875 340.40314Q137.84875 339.5125 138.41125 338.9344Q138.98938 338.35626 139.88 338.35626Q140.80188 338.35626 141.36438 338.95Q141.92688 339.52814 141.92688 340.45L141.92688 340.9344Q141.92688 341.84064 141.34875 342.41876Q140.78625 342.98126 139.89563 342.98126Q139.005 342.98126 138.42688 342.41876Q137.84875 341.84064 137.84875 340.8875L137.84875 340.40314ZM138.78625 340.9344Q138.78625 341.46564 139.08313 341.8094Q139.39563 342.15314 139.89563 342.15314Q140.38 342.15314 140.67688 341.825Q140.97375 341.4969 140.97375 340.90314L140.97375 340.40314Q140.97375 339.8719 140.67688 339.52814Q140.39563 339.1844 139.88 339.1844Q139.38 339.1844 139.08313 339.52814Q138.78625 339.8719 138.78625 340.4344L138.78625 340.9344ZM142.6925 346.0125Q142.6925 345.10626 143.255 344.54376Q143.83313 343.96564 144.72375 343.96564Q145.63 343.96564 146.1925 344.54376Q146.77063 345.10626 146.77063 346.0594L146.77063 346.54376Q146.77063 347.4344 146.1925 348.0125Q145.63 348.59064 144.73938 348.59064Q143.86438 348.59064 143.27063 348.02814Q142.6925 347.45 142.6925 346.4969L142.6925 346.0125ZM143.64563 346.54376Q143.64563 347.075 143.9425 347.4344Q144.23938 347.77814 144.73938 347.77814Q145.23938 347.77814 145.53625 347.4344Q145.83313 347.09064 145.83313 346.5125L145.83313 346.0125Q145.83313 345.46564 145.52063 345.1219Q145.22375 344.77814 144.73938 344.77814Q144.23938 344.77814 143.9425 345.1219Q143.64563 345.46564 143.64563 346.04376L143.64563 346.54376ZM140.1925 347.7L139.47375 347.2469L144.33313 339.46564L145.05188 339.91876L140.1925 347.7Z" fill-rule="nonzero"/><path fill="#000000" d="M243.30376 348.45L236.78813 348.45L236.78813 347.54376L240.22563 343.71564Q240.99126 342.84064 241.28813 342.3094Q241.585 341.7625 241.585 341.16876Q241.585 340.40314 241.10063 339.90314Q240.63188 339.40314 239.85063 339.40314Q238.91313 339.40314 238.38188 339.9344Q237.86626 340.46564 237.86626 341.4344L236.60063 341.4344Q236.60063 340.0594 237.47563 339.21564Q238.36626 338.35626 239.85063 338.35626Q241.24126 338.35626 242.03813 339.09064Q242.85063 339.8094 242.85063 341.02814Q242.85063 342.4969 240.97563 344.52814L238.31938 347.41876L243.30376 347.41876L243.30376 348.45ZM245.36626 343.46564L245.88188 338.4969L250.97563 338.4969L250.97563 339.66876L246.94438 339.66876L246.6475 342.3719Q247.38188 341.95 248.30376 341.95Q249.66313 341.95 250.46 342.85626Q251.2725 343.7469 251.2725 345.27814Q251.2725 346.8094 250.42876 347.7Q249.60063 348.59064 248.11626 348.59064Q246.80376 348.59064 245.96 347.85626Q245.13188 347.1219 245.00688 345.825L246.21 345.825Q246.31938 346.6844 246.80376 347.1219Q247.30376 347.5594 248.11626 347.5594Q248.99126 347.5594 249.49126 346.96564Q250.00688 346.35626 250.00688 345.29376Q250.00688 344.29376 249.46 343.7Q248.91313 343.09064 248.00688 343.09064Q247.19438 343.09064 246.71 343.45L246.38188 343.71564L245.36626 343.46564ZM252.67876 340.40314Q252.67876 339.5125 253.24126 338.9344Q253.81938 338.35626 254.71 338.35626Q255.63188 338.35626 256.1944 338.95Q256.7569 339.52814 256.7569 340.45L256.7569 340.9344Q256.7569 341.84064 256.17877 342.41876Q255.61626 342.98126 254.72563 342.98126Q253.835 342.98126 253.25688 342.41876Q252.67876 341.84064 252.67876 340.8875L252.67876 340.40314ZM253.61626 340.9344Q253.61626 341.46564 253.91313 341.8094Q254.22563 342.15314 254.72563 342.15314Q255.21 342.15314 255.50688 341.825Q255.80376 341.4969 255.80376 340.90314L255.80376 340.40314Q255.80376 339.8719 255.50688 339.52814Q255.22563 339.1844 254.71 339.1844Q254.21 339.1844 253.91313 339.52814Q253.61626 339.8719 253.61626 340.4344L253.61626 340.9344ZM257.52252 346.0125Q257.52252 345.10626 258.08502 344.54376Q258.66315 343.96564 259.55377 343.96564Q260.46002 343.96564 261.02252 344.54376Q261.60065 345.10626 261.60065 346.0594L261.60065 346.54376Q261.60065 347.4344 261.02252 348.0125Q260.46002 348.59064 259.5694 348.59064Q258.6944 348.59064 258.10065 348.02814Q257.52252 347.45 257.52252 346.4969L257.52252 346.0125ZM258.47565 346.54376Q258.47565 347.075 258.77252 347.4344Q259.0694 347.77814 259.5694 347.77814Q260.0694 347.77814 260.36627 347.4344Q260.66315 347.09064 260.66315 346.5125L260.66315 346.0125Q260.66315 345.46564 260.35065 345.1219Q260.05377 344.77814 259.5694 344.77814Q259.0694 344.77814 258.77252 345.1219Q258.47565 345.46564 258.47565 346.04376L258.47565 346.54376ZM255.0225 347.7L254.30376 347.2469L259.16315 339.46564L259.8819 339.91876L255.0225 347.7Z" fill-rule="nonzero"/><path fill="#000000" d="M348.19626 343.46564L348.71188 338.4969L353.80563 338.4969L353.80563 339.66876L349.77438 339.66876L349.4775 342.3719Q350.21188 341.95 351.13376 341.95Q352.49313 341.95 353.29 342.85626Q354.1025 343.7469 354.1025 345.27814Q354.1025 346.8094 353.25876 347.7Q352.43063 348.59064 350.94626 348.59064Q349.63376 348.59064 348.79 347.85626Q347.96188 347.1219 347.83688 345.825L349.04 345.825Q349.14938 346.6844 349.63376 347.1219Q350.13376 347.5594 350.94626 347.5594Q351.82126 347.5594 352.32126 346.96564Q352.83688 346.35626 352.83688 345.29376Q352.83688 344.29376 352.29 343.7Q351.74313 343.09064 350.83688 343.09064Q350.02438 343.09064 349.54 343.45L349.21188 343.71564L348.19626 343.46564ZM361.8525 344.2Q361.8525 346.41876 361.08688 347.5125Q360.33688 348.59064 358.7275 348.59064Q357.13376 348.59064 356.36813 347.54376Q355.6025 346.48126 355.57126 344.3719L355.57126 342.6844Q355.57126 340.4969 356.32126 339.4344Q357.08688 338.35626 358.71188 338.35626Q360.32126 338.35626 361.07126 339.3875Q361.83688 340.41876 361.8525 342.5594L361.8525 344.2ZM360.58688 342.48126Q360.58688 340.8719 360.13376 340.1375Q359.69626 339.40314 358.71188 339.40314Q357.74313 339.40314 357.29 340.1375Q356.8525 340.85626 356.83688 342.3719L356.83688 344.40314Q356.83688 346.0125 357.30563 346.79376Q357.77438 347.5594 358.7275 347.5594Q359.665 347.5594 360.11813 346.84064Q360.57126 346.10626 360.58688 344.54376L360.58688 342.48126ZM363.50876 340.40314Q363.50876 339.5125 364.07126 338.9344Q364.64938 338.35626 365.54 338.35626Q366.46188 338.35626 367.02438 338.95Q367.58688 339.52814 367.58688 340.45L367.58688 340.9344Q367.58688 341.84064 367.00876 342.41876Q366.44626 342.98126 365.55563 342.98126Q364.665 342.98126 364.08688 342.41876Q363.50876 341.84064 363.50876 340.8875L363.50876 340.40314ZM364.44626 340.9344Q364.44626 341.46564 364.74313 341.8094Q365.05563 342.15314 365.55563 342.15314Q366.04 342.15314 366.33688 341.825Q366.63376 341.4969 366.63376 340.90314L366.63376 340.40314Q366.63376 339.8719 366.33688 339.52814Q366.05563 339.1844 365.54 339.1844Q365.04 339.1844 364.74313 339.52814Q364.44626 339.8719 364.44626 340.4344L364.44626 340.9344ZM368.3525 346.0125Q368.3525 345.10626 368.915 344.54376Q369.49313 343.96564 370.38376 343.96564Q371.29 343.96564 371.8525 344.54376Q372.43063 345.10626 372.43063 346.0594L372.43063 346.54376Q372.43063 347.4344 371.8525 348.0125Q371.29 348.59064 370.39938 348.59064Q369.52438 348.59064 368.93063 348.02814Q368.3525 347.45 368.3525 346.4969L368.3525 346.0125ZM369.30563 346.54376Q369.30563 347.075 369.6025 347.4344Q369.89938 347.77814 370.39938 347.77814Q370.89938 347.77814 371.19626 347.4344Q371.49313 347.09064 371.49313 346.5125L371.49313 346.0125Q371.49313 345.46564 371.18063 345.1219Q370.88376 344.77814 370.39938 344.77814Q369.89938 344.77814 369.6025 345.1219Q369.30563 345.46564 369.30563 346.04376L369.30563 346.54376ZM365.8525 347.7L365.13376 347.2469L369.99313 339.46564L370.71188 339.91876L365.8525 347.7Z" fill-rule="nonzero"/><path fill="#000000" d="M464.87 339.2L460.745 348.45L459.4325 348.45L463.52625 339.52814L458.15125 339.52814L458.15125 338.4969L464.87 338.4969L464.87 339.2ZM467.02625 343.46564L467.54187 338.4969L472.63562 338.4969L472.63562 339.66876L468.60437 339.66876L468.3075 342.3719Q469.04187 341.95 469.96375 341.95Q471.32312 341.95 472.12 342.85626Q472.9325 343.7469 472.9325 345.27814Q472.9325 346.8094 472.08875 347.7Q471.26062 348.59064 469.77625 348.59064Q468.46375 348.59064 467.62 347.85626Q466.79187 347.1219 466.66687 345.825L467.87 345.825Q467.97937 346.6844 468.46375 347.1219Q468.96375 347.5594 469.77625 347.5594Q470.65125 347.5594 471.15125 346.96564Q471.66687 346.35626 471.66687 345.29376Q471.66687 344.29376 471.12 343.7Q470.57312 343.09064 469.66687 343.09064Q468.85437 343.09064 468.37 343.45L468.04187 343.71564L467.02625 343.46564ZM474.33875 340.40314Q474.33875 339.5125 474.90125 338.9344Q475.47937 338.35626 476.37 338.35626Q477.29187 338.35626 477.85437 338.95Q478.41687 339.52814 478.41687 340.45L478.41687 340.9344Q478.41687 341.84064 477.83875 342.41876Q477.27625 342.98126 476.38562 342.98126Q475.495 342.98126 474.91687 342.41876Q474.33875 341.84064 474.33875 340.8875L474.33875 340.40314ZM475.27625 340.9344Q475.27625 341.46564 475.57312 341.8094Q475.88562 342.15314 476.38562 342.15314Q476.87 342.15314 477.16687 341.825Q477.46375 341.4969 477.46375 340.90314L477.46375 340.40314Q477.46375 339.8719 477.16687 339.52814Q476.88562 339.1844 476.37 339.1844Q475.87 339.1844 475.57312 339.52814Q475.27625 339.8719 475.27625 340.4344L475.27625 340.9344ZM479.1825 346.0125Q479.1825 345.10626 479.745 344.54376Q480.32312 343.96564 481.21375 343.96564Q482.12 343.96564 482.6825 344.54376Q483.26062 345.10626 483.26062 346.0594L483.26062 346.54376Q483.26062 347.4344 482.6825 348.0125Q482.12 348.59064 481.22937 348.59064Q480.35437 348.59064 479.76062 348.02814Q479.1825 347.45 479.1825 346.4969L479.1825 346.0125ZM480.13562 346.54376Q480.13562 347.075 480.4325 347.4344Q480.72937 347.77814 481.22937 347.77814Q481.72937 347.77814 482.02625 347.4344Q482.32312 347.09064 482.32312 346.5125L482.32312 346.0125Q482.32312 345.46564 482.01062 345.1219Q481.71375 344.77814 481.22937 344.77814Q480.72937 344.77814 480.4325 345.1219Q480.13562 345.46564 480.13562 346.04376L480.13562 346.54376ZM476.6825 347.7L475.96375 347.2469L480.82312 339.46564L481.54187 339.91876L476.6825 347.7Z" fill-rule="nonzero"/><path fill="#000000" d="M569.4344 348.45L568.16876 348.45L568.16876 340.02814L565.60626 340.95L565.60626 339.8094L569.23126 338.45L569.4344 338.45L569.4344 348.45ZM579.5125 344.2Q579.5125 346.41876 578.7469 347.5125Q577.9969 348.59064 576.3875 348.59064Q574.79376 348.59064 574.02814 347.54376Q573.2625 346.48126 573.23126 344.3719L573.23126 342.6844Q573.23126 340.4969 573.98126 339.4344Q574.7469 338.35626 576.3719 338.35626Q577.98126 338.35626 578.73126 339.3875Q579.4969 340.41876 579.5125 342.5594L579.5125 344.2ZM578.2469 342.48126Q578.2469 340.8719 577.79376 340.1375Q577.35626 339.40314 576.3719 339.40314Q575.40314 339.40314 574.95 340.1375Q574.5125 340.85626 574.4969 342.3719L574.4969 344.40314Q574.4969 346.0125 574.96564 346.79376Q575.4344 347.5594 576.3875 347.5594Q577.325 347.5594 577.77814 346.84064Q578.23126 346.10626 578.2469 344.54376L578.2469 342.48126ZM587.5125 344.2Q587.5125 346.41876 586.7469 347.5125Q585.9969 348.59064 584.3875 348.59064Q582.79376 348.59064 582.02814 347.54376Q581.2625 346.48126 581.23126 344.3719L581.23126 342.6844Q581.23126 340.4969 581.98126 339.4344Q582.7469 338.35626 584.3719 338.35626Q585.98126 338.35626 586.73126 339.3875Q587.4969 340.41876 587.5125 342.5594L587.5125 344.2ZM586.2469 342.48126Q586.2469 340.8719 585.79376 340.1375Q585.35626 339.40314 584.3719 339.40314Q583.40314 339.40314 582.95 340.1375Q582.5125 340.85626 582.4969 342.3719L582.4969 344.40314Q582.4969 346.0125 582.96564 346.79376Q583.4344 347.5594 584.3875 347.5594Q585.325 347.5594 585.77814 346.84064Q586.23126 346.10626 586.2469 344.54376L586.2469 342.48126ZM589.16876 340.40314Q589.16876 339.5125 589.73126 338.9344Q590.3094 338.35626 591.2 338.35626Q592.1219 338.35626 592.6844 338.95Q593.2469 339.52814 593.2469 340.45L593.2469 340.9344Q593.2469 341.84064 592.66876 342.41876Q592.10626 342.98126 591.21564 342.98126Q590.325 342.98126 589.7469 342.41876Q589.16876 341.84064 589.16876 340.8875L589.16876 340.40314ZM590.10626 340.9344Q590.10626 341.46564 590.40314 341.8094Q590.71564 342.15314 591.21564 342.15314Q591.7 342.15314 591.9969 341.825Q592.29376 341.4969 592.29376 340.90314L592.29376 340.40314Q592.29376 339.8719 591.9969 339.52814Q591.71564 339.1844 591.2 339.1844Q590.7 339.1844 590.40314 339.52814Q590.10626 339.8719 590.10626 340.4344L590.10626 340.9344ZM594.0125 346.0125Q594.0125 345.10626 594.575 344.54376Q595.15314 343.96564 596.04376 343.96564Q596.95 343.96564 597.5125 344.54376Q598.09064 345.10626 598.09064 346.0594L598.09064 346.54376Q598.09064 347.4344 597.5125 348.0125Q596.95 348.59064 596.0594 348.59064Q595.1844 348.59064 594.59064 348.02814Q594.0125 347.45 594.0125 346.4969L594.0125 346.0125ZM594.96564 346.54376Q594.96564 347.075 595.2625 347.4344Q595.5594 347.77814 596.0594 347.77814Q596.5594 347.77814 596.85626 347.4344Q597.15314 347.09064 597.15314 346.5125L597.15314 346.0125Q597.15314 345.46564 596.84064 345.1219Q596.54376 344.77814 596.0594 344.77814Q595.5594 344.77814 595.2625 345.1219Q594.96564 345.46564 594.96564 346.04376L594.96564 346.54376ZM591.5125 347.7L590.79376 347.2469L595.65314 339.46564L596.3719 339.91876L591.5125 347.7Z" fill-rule="nonzero"/><path fill="#f1c232" d="M75.65397 24.528378C75.65397 23.976093 76.101685 23.528378 76.65397 23.528378L86.65397 23.528378C87.20625 23.528378 87.65397 23.976093 87.65397 24.528378L87.65397 34.528378C87.65397 35.08066 87.20625 35.528378 86.65397 35.528378L76.65397 35.528378C76.101685 35.528378 75.65397 35.08066 75.65397 34.528378Z" fill-rule="nonzero"/><path fill="#000000" d="M99.74772 29.590878Q98.06022 29.106503 97.27897 28.403378Q96.51334 27.684628 96.51334 26.653378Q96.51334 25.481503 97.45084 24.715878Q98.38834 23.934628 99.90397 23.934628Q100.91959 23.934628 101.71647 24.340878Q102.52897 24.731503 102.96647 25.434628Q103.41959 26.122128 103.41959 26.950253L102.09147 26.950253Q102.09147 26.044003 101.51334 25.528378Q100.95084 25.012753 99.90397 25.012753Q98.93522 25.012753 98.38834 25.450253Q97.84147 25.872128 97.84147 26.637753Q97.84147 27.247128 98.35709 27.669003Q98.87272 28.075253 100.10709 28.434628Q101.35709 28.778378 102.06022 29.200253Q102.76334 29.622128 103.09147 30.184628Q103.43522 30.747128 103.43522 31.497128Q103.43522 32.715878 102.48209 33.450253Q101.54459 34.169003 99.96647 34.169003Q98.93522 34.169003 98.04459 33.778378Q97.16959 33.372128 96.68522 32.700253Q96.20084 32.012753 96.20084 31.137753L97.51334 31.137753Q97.51334 32.044003 98.18522 32.575253Q98.85709 33.090878 99.96647 33.090878Q101.01334 33.090878 101.56022 32.669003Q102.10709 32.247128 102.10709 31.512753Q102.10709 30.778378 101.59147 30.387753Q101.09147 29.981503 99.74772 29.590878ZM106.32584 24.840878L106.32584 26.637753L107.70084 26.637753L107.70084 27.606503L106.32584 27.606503L106.32584 32.200253Q106.32584 32.637753 106.51334 32.872128Q106.70084 33.090878 107.13834 33.090878Q107.35709 33.090878 107.74772 32.997128L107.74772 34.028378Q107.24772 34.169003 106.77897 34.169003Q105.91959 34.169003 105.48209 33.653378Q105.06022 33.137753 105.06022 32.200253L105.06022 27.606503L103.71647 27.606503L103.71647 26.637753L105.06022 26.637753L105.06022 24.840878L106.32584 24.840878ZM113.18522 27.762753Q112.90397 27.715878 112.56022 27.715878Q111.32584 27.715878 110.87272 28.778378L110.87272 34.028378L109.60709 34.028378L109.60709 26.637753L110.84147 26.637753L110.85709 27.481503Q111.48209 26.497128 112.62272 26.497128Q112.99772 26.497128 113.18522 26.590878L113.18522 27.762753ZM114.27897 30.262753Q114.27897 29.169003 114.70084 28.309628Q115.13834 27.434628 115.88834 26.965878Q116.65397 26.497128 117.63834 26.497128Q119.13834 26.497128 120.07584 27.544003Q121.01334 28.590878 121.01334 30.325253L121.01334 30.419003Q121.01334 31.497128 120.59147 32.356503Q120.18522 33.200253 119.40397 33.684628Q118.63834 34.169003 117.65397 34.169003Q116.13834 34.169003 115.20084 33.122128Q114.27897 32.075253 114.27897 30.356503L114.27897 30.262753ZM115.54459 30.419003Q115.54459 31.637753 116.10709 32.387753Q116.68522 33.137753 117.65397 33.137753Q118.60709 33.137753 119.16959 32.387753Q119.74772 31.622128 119.74772 30.262753Q119.74772 29.044003 119.16959 28.294003Q118.59147 27.528378 117.63834 27.528378Q116.70084 27.528378 116.12272 28.278378Q115.54459 29.028378 115.54459 30.419003ZM123.81022 26.637753L123.84147 27.559628Q124.70084 26.497128 126.06022 26.497128Q128.40396 26.497128 128.43521 29.137753L128.43521 34.028378L127.16959 34.028378L127.16959 29.137753Q127.15397 28.340878 126.79459 27.965878Q126.43522 27.575253 125.68522 27.575253Q125.06022 27.575253 124.59147 27.903378Q124.13834 28.231503 123.87272 28.762753L123.87272 34.028378L122.60709 34.028378L122.60709 26.637753L123.81022 26.637753ZM130.31021 30.262753Q130.31021 28.544003 131.10709 27.528378Q131.90396 26.497128 133.23209 26.497128Q134.57584 26.497128 135.34146 27.450253L135.40396 26.637753L136.56021 26.637753L136.56021 33.856503Q136.56021 35.294003 135.70084 36.106503Q134.85709 36.934628 133.41959 36.934628Q132.62271 36.934628 131.85709 36.590878Q131.09146 36.262753 130.68521 35.669003L131.34146 34.903378Q132.15396 35.903378 133.32584 35.903378Q134.24771 35.903378 134.76334 35.387753Q135.29459 34.872128 135.29459 33.919003L135.29459 33.294003Q134.52896 34.169003 133.21646 34.169003Q131.91959 34.169003 131.10709 33.122128Q130.31021 32.075253 130.31021 30.262753ZM131.57584 30.419003Q131.57584 31.669003 132.09146 32.387753Q132.60709 33.090878 133.52896 33.090878Q134.73209 33.090878 135.29459 31.997128L135.29459 28.622128Q134.70084 27.575253 133.54459 27.575253Q132.62271 27.575253 132.09146 28.294003Q131.57584 28.997128 131.57584 30.419003ZM139.98209 34.028378L138.71646 34.028378L138.71646 23.528378L139.98209 23.528378L139.98209 34.028378ZM144.02896 32.169003L145.74771 26.637753L147.10709 26.637753L144.13834 35.169003Q143.45084 37.012753 141.93521 37.012753L141.70084 36.997128L141.23209 36.903378L141.23209 35.887753L141.57584 35.903378Q142.21646 35.903378 142.57584 35.637753Q142.93521 35.387753 143.16959 34.700253L143.45084 33.950253L140.81021 26.637753L142.18521 26.637753L144.02896 32.169003ZM151.31021 30.262753Q151.31021 28.559628 152.10709 27.528378Q152.91959 26.497128 154.21646 26.497128Q155.52896 26.497128 156.27896 27.387753L156.27896 23.528378L157.54459 23.528378L157.54459 34.028378L156.38834 34.028378L156.32584 33.231503Q155.56021 34.169003 154.21646 34.169003Q152.91959 34.169003 152.10709 33.122128Q151.31021 32.059628 151.31021 30.356503L151.31021 30.262753ZM152.57584 30.419003Q152.57584 31.669003 153.09146 32.387753Q153.60709 33.090878 154.52896 33.090878Q155.73209 33.090878 156.27896 32.012753L156.27896 28.606503Q155.71646 27.575253 154.54459 27.575253Q153.60709 27.575253 153.09146 28.294003Q152.57584 28.997128 152.57584 30.419003ZM160.98209 34.028378L159.71646 34.028378L159.71646 26.637753L160.98209 26.637753L160.98209 34.028378ZM159.62271 24.669003Q159.62271 24.356503 159.81021 24.153378Q159.99771 23.934628 160.35709 23.934628Q160.73209 23.934628 160.91959 24.153378Q161.12271 24.356503 161.12271 24.669003Q161.12271 24.981503 160.91959 25.184628Q160.73209 25.387753 160.35709 25.387753Q159.99771 25.387753 159.81021 25.184628Q159.62271 24.981503 159.62271 24.669003ZM166.91959 32.059628Q166.91959 31.559628 166.52896 31.278378Q166.13834 30.981503 165.18521 30.778378Q164.23209 30.575253 163.65396 30.294003Q163.09146 29.997128 162.82584 29.606503Q162.56021 29.215878 162.56021 28.669003Q162.56021 27.747128 163.32584 27.122128Q164.09146 26.497128 165.29459 26.497128Q166.54459 26.497128 167.32584 27.153378Q168.10709 27.794003 168.10709 28.809628L166.84146 28.809628Q166.84146 28.278378 166.40396 27.903378Q165.96646 27.528378 165.29459 27.528378Q164.60709 27.528378 164.21646 27.840878Q163.82584 28.137753 163.82584 28.622128Q163.82584 29.075253 164.18521 29.309628Q164.54459 29.544003 165.48209 29.762753Q166.43521 29.965878 167.02896 30.262753Q167.62271 30.559628 167.90396 30.981503Q168.18521 31.387753 168.18521 31.981503Q168.18521 32.965878 167.38834 33.575253Q166.59146 34.169003 165.32584 34.169003Q164.45084 34.169003 163.76334 33.856503Q163.07584 33.528378 162.68521 32.965878Q162.31021 32.403378 162.31021 31.747128L163.57584 31.747128Q163.60709 32.387753 164.07584 32.762753Q164.56021 33.137753 165.32584 33.137753Q166.04459 33.137753 166.48209 32.840878Q166.91959 32.544003 166.91959 32.059628ZM174.18521 34.028378Q174.07584 33.809628 173.99771 33.247128Q173.12271 34.169003 171.88834 34.169003Q170.79459 34.169003 170.09146 33.559628Q169.40396 32.934628 169.40396 31.981503Q169.40396 30.825253 170.27896 30.184628Q171.15396 29.544003 172.74771 29.544003L173.98209 29.544003L173.98209 28.965878Q173.98209 28.294003 173.57584 27.903378Q173.18521 27.512753 172.41959 27.512753Q171.73209 27.512753 171.27896 27.856503Q170.82584 28.200253 170.82584 28.684628L169.54459 28.684628Q169.54459 28.122128 169.93521 27.606503Q170.34146 27.090878 171.01334 26.794003Q171.68521 26.497128 172.48209 26.497128Q173.76334 26.497128 174.48209 27.137753Q175.21646 27.778378 175.24771 28.887753L175.24771 32.294003Q175.24771 33.309628 175.49771 33.919003L175.49771 34.028378L174.18521 34.028378ZM172.07584 33.059628Q172.66959 33.059628 173.20084 32.762753Q173.74771 32.450253 173.98209 31.950253L173.98209 30.434628L172.98209 30.434628Q170.66959 30.434628 170.66959 31.794003Q170.66959 32.387753 171.06021 32.731503Q171.45084 33.059628 172.07584 33.059628ZM177.31021 30.262753Q177.31021 28.544003 178.10709 27.528378Q178.90396 26.497128 180.23209 26.497128Q181.57584 26.497128 182.34146 27.450253L182.40396 26.637753L183.56021 26.637753L183.56021 33.856503Q183.56021 35.294003 182.70084 36.106503Q181.85709 36.934628 180.41959 36.934628Q179.62271 36.934628 178.85709 36.590878Q178.09146 36.262753 177.68521 35.669003L178.34146 34.903378Q179.15396 35.903378 180.32584 35.903378Q181.24771 35.903378 181.76334 35.387753Q182.29459 34.872128 182.29459 33.919003L182.29459 33.294003Q181.52896 34.169003 180.21646 34.169003Q178.91959 34.169003 178.10709 33.122128Q177.31021 32.075253 177.31021 30.262753ZM178.57584 30.419003Q178.57584 31.669003 179.09146 32.387753Q179.60709 33.090878 180.52896 33.090878Q181.73209 33.090878 182.29459 31.997128L182.29459 28.622128Q181.70084 27.575253 180.54459 27.575253Q179.62271 27.575253 179.09146 28.294003Q178.57584 28.997128 178.57584 30.419003ZM189.18521 27.762753Q188.90396 27.715878 188.56021 27.715878Q187.32584 27.715878 186.87271 28.778378L186.87271 34.028378L185.60709 34.028378L185.60709 26.637753L186.84146 26.637753L186.85709 27.481503Q187.48209 26.497128 188.62271 26.497128Q188.99771 26.497128 189.18521 26.590878L189.18521 27.762753ZM193.68521 34.169003Q192.16959 34.169003 191.23209 33.184628Q190.29459 32.184628 190.29459 30.528378L190.29459 30.309628Q190.29459 29.200253 190.71646 28.340878Q191.13834 27.465878 191.88834 26.981503Q192.63834 26.497128 193.52896 26.497128Q194.96646 26.497128 195.76334 27.450253Q196.56021 28.387753 196.56021 30.169003L196.56021 30.684628L191.56021 30.684628Q191.57584 31.778378 192.18521 32.465878Q192.81021 33.137753 193.74771 33.137753Q194.41959 33.137753 194.87271 32.872128Q195.34146 32.590878 195.70084 32.137753L196.46646 32.731503Q195.54459 34.169003 193.68521 34.169003ZM193.52896 27.528378Q192.76334 27.528378 192.23209 28.090878Q191.71646 28.653378 191.59146 29.653378L195.29459 29.653378L195.29459 29.559628Q195.24771 28.590878 194.77896 28.059628Q194.31021 27.528378 193.52896 27.528378ZM200.68521 34.169003Q199.16959 34.169003 198.23209 33.184628Q197.29459 32.184628 197.29459 30.528378L197.29459 30.309628Q197.29459 29.200253 197.71646 28.340878Q198.13834 27.465878 198.88834 26.981503Q199.63834 26.497128 200.52896 26.497128Q201.96646 26.497128 202.76334 27.450253Q203.56021 28.387753 203.56021 30.169003L203.56021 30.684628L198.56021 30.684628Q198.57584 31.778378 199.18521 32.465878Q199.81021 33.137753 200.74771 33.137753Q201.41959 33.137753 201.87271 32.872128Q202.34146 32.590878 202.70084 32.137753L203.46646 32.731503Q202.54459 34.169003 200.68521 34.169003ZM200.52896 27.528378Q199.76334 27.528378 199.23209 28.090878Q198.71646 28.653378 198.59146 29.653378L202.29459 29.653378L202.29459 29.559628Q202.24771 28.590878 201.77896 28.059628Q201.31021 27.528378 200.52896 27.528378Z" fill-rule="nonzero"/><path fill="#ffe599" d="M219.65398 24.528378C219.65398 23.976093 220.10168 23.528378 220.65398 23.528378L230.65398 23.528378C231.20625 23.528378 231.65398 23.976093 231.65398 24.528378L231.65398 34.528378C231.65398 35.08066 231.20625 35.528378 230.65398 35.528378L220.65398 35.528378C220.10168 35.528378 219.65398 35.08066 219.65398 34.528378Z" fill-rule="nonzero"/><path fill="#000000" d="M240.81023 34.028378L240.81023 24.075253L243.62273 24.075253Q244.9196 24.075253 245.9196 24.653378Q246.9196 25.215878 247.45085 26.278378Q247.99773 27.340878 248.01335 28.715878L248.01335 29.356503Q248.01335 30.762753 247.46648 31.825253Q246.9196 32.872128 245.90398 33.450253Q244.90398 34.012753 243.56023 34.028378L240.81023 34.028378ZM242.12273 25.153378L242.12273 32.950253L243.49773 32.950253Q245.01335 32.950253 245.8571 32.012753Q246.71648 31.075253 246.71648 29.325253L246.71648 28.747128Q246.71648 27.044003 245.9196 26.106503Q245.12273 25.169003 243.65398 25.153378L242.12273 25.153378ZM250.9821 34.028378L249.71648 34.028378L249.71648 26.637753L250.9821 26.637753L250.9821 34.028378ZM249.62273 24.669003Q249.62273 24.356503 249.81023 24.153378Q249.99773 23.934628 250.3571 23.934628Q250.7321 23.934628 250.9196 24.153378Q251.12273 24.356503 251.12273 24.669003Q251.12273 24.981503 250.9196 25.184628Q250.7321 25.387753 250.3571 25.387753Q249.99773 25.387753 249.81023 25.184628Q249.62273 24.981503 249.62273 24.669003ZM256.91962 32.059628Q256.91962 31.559628 256.529 31.278378Q256.13837 30.981503 255.18523 30.778378Q254.2321 30.575253 253.65398 30.294003Q253.09148 29.997128 252.82585 29.606503Q252.56023 29.215878 252.56023 28.669003Q252.56023 27.747128 253.32585 27.122128Q254.09148 26.497128 255.2946 26.497128Q256.54462 26.497128 257.32587 27.153378Q258.10712 27.794003 258.10712 28.809628L256.8415 28.809628Q256.8415 28.278378 256.404 27.903378Q255.96648 27.528378 255.2946 27.528378Q254.6071 27.528378 254.21648 27.840878Q253.82585 28.137753 253.82585 28.622128Q253.82585 29.075253 254.18523 29.309628Q254.5446 29.544003 255.4821 29.762753Q256.43524 29.965878 257.029 30.262753Q257.62274 30.559628 257.904 30.981503Q258.18524 31.387753 258.18524 31.981503Q258.18524 32.965878 257.38837 33.575253Q256.5915 34.169003 255.32585 34.169003Q254.45085 34.169003 253.76335 33.856503Q253.07585 33.528378 252.68523 32.965878Q252.31023 32.403378 252.31023 31.747128L253.57585 31.747128Q253.6071 32.387753 254.07585 32.762753Q254.56023 33.137753 255.32585 33.137753Q256.04462 33.137753 256.48212 32.840878Q256.91962 32.544003 256.91962 32.059628ZM264.18524 34.028378Q264.07587 33.809628 263.99774 33.247128Q263.12274 34.169003 261.88837 34.169003Q260.79462 34.169003 260.0915 33.559628Q259.404 32.934628 259.404 31.981503Q259.404 30.825253 260.279 30.184628Q261.154 29.544003 262.74774 29.544003L263.98212 29.544003L263.98212 28.965878Q263.98212 28.294003 263.57587 27.903378Q263.18524 27.512753 262.41962 27.512753Q261.73212 27.512753 261.279 27.856503Q260.82587 28.200253 260.82587 28.684628L259.54462 28.684628Q259.54462 28.122128 259.93524 27.606503Q260.3415 27.090878 261.01337 26.794003Q261.68524 26.497128 262.48212 26.497128Q263.76337 26.497128 264.48212 27.137753Q265.2165 27.778378 265.24774 28.887753L265.24774 32.294003Q265.24774 33.309628 265.49774 33.919003L265.49774 34.028378L264.18524 34.028378ZM262.07587 33.059628Q262.66962 33.059628 263.20087 32.762753Q263.74774 32.450253 263.98212 31.950253L263.98212 30.434628L262.98212 30.434628Q260.66962 30.434628 260.66962 31.794003Q260.66962 32.387753 261.06024 32.731503Q261.45087 33.059628 262.07587 33.059628ZM267.31024 30.262753Q267.31024 28.544003 268.10712 27.528378Q268.904 26.497128 270.23212 26.497128Q271.57587 26.497128 272.3415 27.450253L272.404 26.637753L273.56024 26.637753L273.56024 33.856503Q273.56024 35.294003 272.70087 36.106503Q271.85712 36.934628 270.41962 36.934628Q269.62274 36.934628 268.85712 36.590878Q268.0915 36.262753 267.68524 35.669003L268.3415 34.903378Q269.154 35.903378 270.32587 35.903378Q271.24774 35.903378 271.76337 35.387753Q272.29462 34.872128 272.29462 33.919003L272.29462 33.294003Q271.529 34.169003 270.2165 34.169003Q268.91962 34.169003 268.10712 33.122128Q267.31024 32.075253 267.31024 30.262753ZM268.57587 30.419003Q268.57587 31.669003 269.0915 32.387753Q269.60712 33.090878 270.529 33.090878Q271.73212 33.090878 272.29462 31.997128L272.29462 28.622128Q271.70087 27.575253 270.54462 27.575253Q269.62274 27.575253 269.0915 28.294003Q268.57587 28.997128 268.57587 30.419003ZM279.18524 27.762753Q278.904 27.715878 278.56024 27.715878Q277.32587 27.715878 276.87274 28.778378L276.87274 34.028378L275.60712 34.028378L275.60712 26.637753L276.8415 26.637753L276.85712 27.481503Q277.48212 26.497128 278.62274 26.497128Q278.99774 26.497128 279.18524 26.590878L279.18524 27.762753ZM283.68524 34.169003Q282.16962 34.169003 281.23212 33.184628Q280.29462 32.184628 280.29462 30.528378L280.29462 30.309628Q280.29462 29.200253 280.7165 28.340878Q281.13837 27.465878 281.88837 26.981503Q282.63837 26.497128 283.529 26.497128Q284.9665 26.497128 285.76337 27.450253Q286.56024 28.387753 286.56024 30.169003L286.56024 30.684628L281.56024 30.684628Q281.57587 31.778378 282.18524 32.465878Q282.81024 33.137753 283.74774 33.137753Q284.41962 33.137753 284.87274 32.872128Q285.3415 32.590878 285.70087 32.137753L286.4665 32.731503Q285.54462 34.169003 283.68524 34.169003ZM283.529 27.528378Q282.76337 27.528378 282.23212 28.090878Q281.7165 28.653378 281.5915 29.653378L285.29462 29.653378L285.29462 29.559628Q285.24774 28.590878 284.779 28.059628Q284.31024 27.528378 283.529 27.528378ZM290.68524 34.169003Q289.16962 34.169003 288.23212 33.184628Q287.29462 32.184628 287.29462 30.528378L287.29462 30.309628Q287.29462 29.200253 287.7165 28.340878Q288.13837 27.465878 288.88837 26.981503Q289.63837 26.497128 290.529 26.497128Q291.9665 26.497128 292.76337 27.450253Q293.56024 28.387753 293.56024 30.169003L293.56024 30.684628L288.56024 30.684628Q288.57587 31.778378 289.18524 32.465878Q289.81024 33.137753 290.74774 33.137753Q291.41962 33.137753 291.87274 32.872128Q292.3415 32.590878 292.70087 32.137753L293.4665 32.731503Q292.54462 34.169003 290.68524 34.169003ZM290.529 27.528378Q289.76337 27.528378 289.23212 28.090878Q288.7165 28.653378 288.5915 29.653378L292.29462 29.653378L292.29462 29.559628Q292.24774 28.590878 291.779 28.059628Q291.31024 27.528378 290.529 27.528378Z" fill-rule="nonzero"/><path fill="#f3f3f3" d="M309.65396 24.528378C309.65396 23.976093 310.10168 23.528378 310.65396 23.528378L320.65396 23.528378C321.20627 23.528378 321.65396 23.976093 321.65396 24.528378L321.65396 34.528378C321.65396 35.08066 321.20627 35.528378 320.65396 35.528378L310.65396 35.528378C310.10168 35.528378 309.65396 35.08066 309.65396 34.528378Z" fill-rule="nonzero"/><path fill="#000000" d="M338.46646 34.028378L337.13834 34.028378L332.1227 26.356503L332.1227 34.028378L330.8102 34.028378L330.8102 24.075253L332.1227 24.075253L337.15396 31.778378L337.15396 24.075253L338.46646 24.075253L338.46646 34.028378ZM343.6852 34.169003Q342.1696 34.169003 341.2321 33.184628Q340.2946 32.184628 340.2946 30.528378L340.2946 30.309628Q340.2946 29.200253 340.71646 28.340878Q341.13834 27.465878 341.88834 26.981503Q342.63834 26.497128 343.52896 26.497128Q344.96646 26.497128 345.76334 27.450253Q346.5602 28.387753 346.5602 30.169003L346.5602 30.684628L341.5602 30.684628Q341.57584 31.778378 342.1852 32.465878Q342.8102 33.137753 343.7477 33.137753Q344.4196 33.137753 344.8727 32.872128Q345.34146 32.590878 345.70084 32.137753L346.46646 32.731503Q345.5446 34.169003 343.6852 34.169003ZM343.52896 27.528378Q342.76334 27.528378 342.2321 28.090878Q341.71646 28.653378 341.59146 29.653378L345.2946 29.653378L345.2946 29.559628Q345.2477 28.590878 344.77896 28.059628Q344.3102 27.528378 343.52896 27.528378ZM352.1852 33.294003Q351.4352 34.169003 350.01334 34.169003Q348.82584 34.169003 348.20084 33.481503Q347.59146 32.794003 347.59146 31.450253L347.59146 26.637753L348.84146 26.637753L348.84146 31.403378Q348.84146 33.090878 350.21646 33.090878Q351.6696 33.090878 352.13834 32.012753L352.13834 26.637753L353.40396 26.637753L353.40396 34.028378L352.20084 34.028378L352.1852 33.294003ZM357.32584 24.840878L357.32584 26.637753L358.70084 26.637753L358.70084 27.606503L357.32584 27.606503L357.32584 32.200253Q357.32584 32.637753 357.51334 32.872128Q357.70084 33.090878 358.13834 33.090878Q358.3571 33.090878 358.7477 32.997128L358.7477 34.028378Q358.2477 34.169003 357.77896 34.169003Q356.9196 34.169003 356.4821 33.653378Q356.0602 33.137753 356.0602 32.200253L356.0602 27.606503L354.71646 27.606503L354.71646 26.637753L356.0602 26.637753L356.0602 24.840878L357.32584 24.840878ZM364.1852 27.762753Q363.90396 27.715878 363.5602 27.715878Q362.32584 27.715878 361.8727 28.778378L361.8727 34.028378L360.6071 34.028378L360.6071 26.637753L361.84146 26.637753L361.8571 27.481503Q362.4821 26.497128 363.6227 26.497128Q363.9977 26.497128 364.1852 26.590878L364.1852 27.762753ZM370.1852 34.028378Q370.07584 33.809628 369.9977 33.247128Q369.1227 34.169003 367.88834 34.169003Q366.7946 34.169003 366.09146 33.559628Q365.40396 32.934628 365.40396 31.981503Q365.40396 30.825253 366.27896 30.184628Q367.15396 29.544003 368.7477 29.544003L369.9821 29.544003L369.9821 28.965878Q369.9821 28.294003 369.57584 27.903378Q369.1852 27.512753 368.4196 27.512753Q367.7321 27.512753 367.27896 27.856503Q366.82584 28.200253 366.82584 28.684628L365.5446 28.684628Q365.5446 28.122128 365.9352 27.606503Q366.34146 27.090878 367.01334 26.794003Q367.6852 26.497128 368.4821 26.497128Q369.76334 26.497128 370.4821 27.137753Q371.21646 27.778378 371.2477 28.887753L371.2477 32.294003Q371.2477 33.309628 371.4977 33.919003L371.4977 34.028378L370.1852 34.028378ZM368.07584 33.059628Q368.6696 33.059628 369.20084 32.762753Q369.7477 32.450253 369.9821 31.950253L369.9821 30.434628L368.9821 30.434628Q366.6696 30.434628 366.6696 31.794003Q366.6696 32.387753 367.0602 32.731503Q367.45084 33.059628 368.07584 33.059628ZM374.9821 34.028378L373.71646 34.028378L373.71646 23.528378L374.9821 23.528378L374.9821 34.028378Z" fill-rule="nonzero"/><path fill="#b6d7a8" d="M391.65396 24.528378C391.65396 23.976093 392.10168 23.528378 392.65396 23.528378L402.65396 23.528378C403.20627 23.528378 403.65396 23.976093 403.65396 24.528378L403.65396 34.528378C403.65396 35.08066 403.20627 35.528378 402.65396 35.528378L392.65396 35.528378C392.10168 35.528378 391.65396 35.08066 391.65396 34.528378Z" fill-rule="nonzero"/><path fill="#000000" d="M418.3102 31.434628L414.13834 31.434628L413.20084 34.028378L411.84146 34.028378L415.65396 24.075253L416.7946 24.075253L420.6071 34.028378L419.26334 34.028378L418.3102 31.434628ZM414.52896 30.356503L417.9196 30.356503L416.21646 25.700253L414.52896 30.356503ZM421.3102 30.262753Q421.3102 28.544003 422.1071 27.528378Q422.90396 26.497128 424.2321 26.497128Q425.57584 26.497128 426.34146 27.450253L426.40396 26.637753L427.5602 26.637753L427.5602 33.856503Q427.5602 35.294003 426.70084 36.106503Q425.8571 36.934628 424.4196 36.934628Q423.6227 36.934628 422.8571 36.590878Q422.09146 36.262753 421.6852 35.669003L422.34146 34.903378Q423.15396 35.903378 424.32584 35.903378Q425.2477 35.903378 425.76334 35.387753Q426.2946 34.872128 426.2946 33.919003L426.2946 33.294003Q425.52896 34.169003 424.21646 34.169003Q422.9196 34.169003 422.1071 33.122128Q421.3102 32.075253 421.3102 30.262753ZM422.57584 30.419003Q422.57584 31.669003 423.09146 32.387753Q423.6071 33.090878 424.52896 33.090878Q425.7321 33.090878 426.2946 31.997128L426.2946 28.622128Q425.70084 27.575253 424.5446 27.575253Q423.6227 27.575253 423.09146 28.294003Q422.57584 28.997128 422.57584 30.419003ZM433.1852 27.762753Q432.90396 27.715878 432.5602 27.715878Q431.32584 27.715878 430.8727 28.778378L430.8727 34.028378L429.6071 34.028378L429.6071 26.637753L430.84146 26.637753L430.8571 27.481503Q431.4821 26.497128 432.6227 26.497128Q432.9977 26.497128 433.1852 26.590878L433.1852 27.762753ZM437.6852 34.169003Q436.1696 34.169003 435.2321 33.184628Q434.2946 32.184628 434.2946 30.528378L434.2946 30.309628Q434.2946 29.200253 434.71646 28.340878Q435.13834 27.465878 435.88834 26.981503Q436.63834 26.497128 437.52896 26.497128Q438.96646 26.497128 439.76334 27.450253Q440.5602 28.387753 440.5602 30.169003L440.5602 30.684628L435.5602 30.684628Q435.57584 31.778378 436.1852 32.465878Q436.8102 33.137753 437.7477 33.137753Q438.4196 33.137753 438.8727 32.872128Q439.34146 32.590878 439.70084 32.137753L440.46646 32.731503Q439.5446 34.169003 437.6852 34.169003ZM437.52896 27.528378Q436.76334 27.528378 436.2321 28.090878Q435.71646 28.653378 435.59146 29.653378L439.2946 29.653378L439.2946 29.559628Q439.2477 28.590878 438.77896 28.059628Q438.3102 27.528378 437.52896 27.528378ZM444.6852 34.169003Q443.1696 34.169003 442.2321 33.184628Q441.2946 32.184628 441.2946 30.528378L441.2946 30.309628Q441.2946 29.200253 441.71646 28.340878Q442.13834 27.465878 442.88834 26.981503Q443.63834 26.497128 444.52896 26.497128Q445.96646 26.497128 446.76334 27.450253Q447.5602 28.387753 447.5602 30.169003L447.5602 30.684628L442.5602 30.684628Q442.57584 31.778378 443.1852 32.465878Q443.8102 33.137753 444.7477 33.137753Q445.4196 33.137753 445.8727 32.872128Q446.34146 32.590878 446.70084 32.137753L447.46646 32.731503Q446.5446 34.169003 444.6852 34.169003ZM444.52896 27.528378Q443.76334 27.528378 443.2321 28.090878Q442.71646 28.653378 442.59146 29.653378L446.2946 29.653378L446.2946 29.559628Q446.2477 28.590878 445.77896 28.059628Q445.3102 27.528378 444.52896 27.528378Z" fill-rule="nonzero"/><path fill="#6aa84f" d="M463.65396 24.528378C463.65396 23.976093 464.10168 23.528378 464.65396 23.528378L474.65396 23.528378C475.20627 23.528378 475.65396 23.976093 475.65396 24.528378L475.65396 34.528378C475.65396 35.08066 475.20627 35.528378 474.65396 35.528378L464.65396 35.528378C464.10168 35.528378 463.65396 35.08066 463.65396 34.528378Z" fill-rule="nonzero"/><path fill="#000000" d="M487.7477 29.590878Q486.0602 29.106503 485.27896 28.403378Q484.51334 27.684628 484.51334 26.653378Q484.51334 25.481503 485.45084 24.715878Q486.38834 23.934628 487.90396 23.934628Q488.9196 23.934628 489.71646 24.340878Q490.52896 24.731503 490.96646 25.434628Q491.4196 26.122128 491.4196 26.950253L490.09146 26.950253Q490.09146 26.044003 489.51334 25.528378Q488.95084 25.012753 487.90396 25.012753Q486.9352 25.012753 486.38834 25.450253Q485.84146 25.872128 485.84146 26.637753Q485.84146 27.247128 486.3571 27.669003Q486.8727 28.075253 488.1071 28.434628Q489.3571 28.778378 490.0602 29.200253Q490.76334 29.622128 491.09146 30.184628Q491.4352 30.747128 491.4352 31.497128Q491.4352 32.715878 490.4821 33.450253Q489.5446 34.169003 487.96646 34.169003Q486.9352 34.169003 486.0446 33.778378Q485.1696 33.372128 484.6852 32.700253Q484.20084 32.012753 484.20084 31.137753L485.51334 31.137753Q485.51334 32.044003 486.1852 32.575253Q486.8571 33.090878 487.96646 33.090878Q489.01334 33.090878 489.5602 32.669003Q490.1071 32.247128 490.1071 31.512753Q490.1071 30.778378 489.59146 30.387753Q489.09146 29.981503 487.7477 29.590878ZM494.32584 24.840878L494.32584 26.637753L495.70084 26.637753L495.70084 27.606503L494.32584 27.606503L494.32584 32.200253Q494.32584 32.637753 494.51334 32.872128Q494.70084 33.090878 495.13834 33.090878Q495.3571 33.090878 495.7477 32.997128L495.7477 34.028378Q495.2477 34.169003 494.77896 34.169003Q493.9196 34.169003 493.4821 33.653378Q493.0602 33.137753 493.0602 32.200253L493.0602 27.606503L491.71646 27.606503L491.71646 26.637753L493.0602 26.637753L493.0602 24.840878L494.32584 24.840878ZM501.1852 27.762753Q500.90396 27.715878 500.5602 27.715878Q499.32584 27.715878 498.8727 28.778378L498.8727 34.028378L497.6071 34.028378L497.6071 26.637753L498.84146 26.637753L498.8571 27.481503Q499.4821 26.497128 500.6227 26.497128Q500.9977 26.497128 501.1852 26.590878L501.1852 27.762753ZM502.27896 30.262753Q502.27896 29.169003 502.70084 28.309628Q503.13834 27.434628 503.88834 26.965878Q504.65396 26.497128 505.63834 26.497128Q507.13834 26.497128 508.07584 27.544003Q509.01334 28.590878 509.01334 30.325253L509.01334 30.419003Q509.01334 31.497128 508.59146 32.356503Q508.1852 33.200253 507.40396 33.684628Q506.63834 34.169003 505.65396 34.169003Q504.13834 34.169003 503.20084 33.122128Q502.27896 32.075253 502.27896 30.356503L502.27896 30.262753ZM503.5446 30.419003Q503.5446 31.637753 504.1071 32.387753Q504.6852 33.137753 505.65396 33.137753Q506.6071 33.137753 507.1696 32.387753Q507.7477 31.622128 507.7477 30.262753Q507.7477 29.044003 507.1696 28.294003Q506.59146 27.528378 505.63834 27.528378Q504.70084 27.528378 504.1227 28.278378Q503.5446 29.028378 503.5446 30.419003ZM511.8102 26.637753L511.84146 27.559628Q512.7008 26.497128 514.0602 26.497128Q516.40393 26.497128 516.4352 29.137753L516.4352 34.028378L515.16956 34.028378L515.16956 29.137753Q515.15393 28.340878 514.79456 27.965878Q514.4352 27.575253 513.6852 27.575253Q513.0602 27.575253 512.59143 27.903378Q512.1383 28.231503 511.8727 28.762753L511.8727 34.028378L510.6071 34.028378L510.6071 26.637753L511.8102 26.637753ZM519.98206 34.028378L518.71643 34.028378L518.71643 23.528378L519.98206 23.528378L519.98206 34.028378ZM521.3102 30.262753Q521.3102 28.544003 522.10706 27.528378Q522.90393 26.497128 524.23206 26.497128Q525.5758 26.497128 526.34143 27.450253L526.40393 26.637753L527.5602 26.637753L527.5602 33.856503Q527.5602 35.294003 526.7008 36.106503Q525.85706 36.934628 524.41956 36.934628Q523.6227 36.934628 522.85706 36.590878Q522.09143 36.262753 521.6852 35.669003L522.34143 34.903378Q523.15393 35.903378 524.3258 35.903378Q525.2477 35.903378 525.7633 35.387753Q526.29456 34.872128 526.29456 33.919003L526.29456 33.294003Q525.52893 34.169003 524.21643 34.169003Q522.91956 34.169003 522.10706 33.122128Q521.3102 32.075253 521.3102 30.262753ZM522.5758 30.419003Q522.5758 31.669003 523.09143 32.387753Q523.60706 33.090878 524.52893 33.090878Q525.73206 33.090878 526.29456 31.997128L526.29456 28.622128Q525.7008 27.575253 524.54456 27.575253Q523.6227 27.575253 523.09143 28.294003Q522.5758 28.997128 522.5758 30.419003ZM532.02893 32.169003L533.7477 26.637753L535.10706 26.637753L532.1383 35.169003Q531.4508 37.012753 529.9352 37.012753L529.7008 36.997128L529.23206 36.903378L529.23206 35.887753L529.5758 35.903378Q530.21643 35.903378 530.5758 35.637753Q530.9352 35.387753 531.16956 34.700253L531.4508 33.950253L528.8102 26.637753L530.1852 26.637753L532.02893 32.169003ZM544.1852 34.028378Q544.0758 33.809628 543.9977 33.247128Q543.1227 34.169003 541.8883 34.169003Q540.79456 34.169003 540.09143 33.559628Q539.40393 32.934628 539.40393 31.981503Q539.40393 30.825253 540.27893 30.184628Q541.15393 29.544003 542.7477 29.544003L543.98206 29.544003L543.98206 28.965878Q543.98206 28.294003 543.5758 27.903378Q543.1852 27.512753 542.41956 27.512753Q541.73206 27.512753 541.27893 27.856503Q540.8258 28.200253 540.8258 28.684628L539.54456 28.684628Q539.54456 28.122128 539.9352 27.606503Q540.34143 27.090878 541.0133 26.794003Q541.6852 26.497128 542.48206 26.497128Q543.7633 26.497128 544.48206 27.137753Q545.21643 27.778378 545.2477 28.887753L545.2477 32.294003Q545.2477 33.309628 545.4977 33.919003L545.4977 34.028378L544.1852 34.028378ZM542.0758 33.059628Q542.66956 33.059628 543.2008 32.762753Q543.7477 32.450253 543.98206 31.950253L543.98206 30.434628L542.98206 30.434628Q540.66956 30.434628 540.66956 31.794003Q540.66956 32.387753 541.0602 32.731503Q541.4508 33.059628 542.0758 33.059628ZM547.3102 30.262753Q547.3102 28.544003 548.10706 27.528378Q548.90393 26.497128 550.23206 26.497128Q551.5758 26.497128 552.34143 27.450253L552.40393 26.637753L553.5602 26.637753L553.5602 33.856503Q553.5602 35.294003 552.7008 36.106503Q551.85706 36.934628 550.41956 36.934628Q549.6227 36.934628 548.85706 36.590878Q548.09143 36.262753 547.6852 35.669003L548.34143 34.903378Q549.15393 35.903378 550.3258 35.903378Q551.2477 35.903378 551.7633 35.387753Q552.29456 34.872128 552.29456 33.919003L552.29456 33.294003Q551.52893 34.169003 550.21643 34.169003Q548.91956 34.169003 548.10706 33.122128Q547.3102 32.075253 547.3102 30.262753ZM548.5758 30.419003Q548.5758 31.669003 549.09143 32.387753Q549.60706 33.090878 550.52893 33.090878Q551.73206 33.090878 552.29456 31.997128L552.29456 28.622128Q551.7008 27.575253 550.54456 27.575253Q549.6227 27.575253 549.09143 28.294003Q548.5758 28.997128 548.5758 30.419003ZM559.1852 27.762753Q558.90393 27.715878 558.5602 27.715878Q557.3258 27.715878 556.8727 28.778378L556.8727 34.028378L555.60706 34.028378L555.60706 26.637753L556.84143 26.637753L556.85706 27.481503Q557.48206 26.497128 558.6227 26.497128Q558.9977 26.497128 559.1852 26.590878L559.1852 27.762753ZM563.6852 34.169003Q562.16956 34.169003 561.23206 33.184628Q560.29456 32.184628 560.29456 30.528378L560.29456 30.309628Q560.29456 29.200253 560.71643 28.340878Q561.1383 27.465878 561.8883 26.981503Q562.6383 26.497128 563.52893 26.497128Q564.96643 26.497128 565.7633 27.450253Q566.5602 28.387753 566.5602 30.169003L566.5602 30.684628L561.5602 30.684628Q561.5758 31.778378 562.1852 32.465878Q562.8102 33.137753 563.7477 33.137753Q564.41956 33.137753 564.8727 32.872128Q565.34143 32.590878 565.7008 32.137753L566.46643 32.731503Q565.54456 34.169003 563.6852 34.169003ZM563.52893 27.528378Q562.7633 27.528378 562.23206 28.090878Q561.71643 28.653378 561.59143 29.653378L565.29456 29.653378L565.29456 29.559628Q565.2477 28.590878 564.77893 28.059628Q564.3102 27.528378 563.52893 27.528378ZM570.6852 34.169003Q569.16956 34.169003 568.23206 33.184628Q567.29456 32.184628 567.29456 30.528378L567.29456 30.309628Q567.29456 29.200253 567.71643 28.340878Q568.1383 27.465878 568.8883 26.981503Q569.6383 26.497128 570.52893 26.497128Q571.96643 26.497128 572.7633 27.450253Q573.5602 28.387753 573.5602 30.169003L573.5602 30.684628L568.5602 30.684628Q568.5758 31.778378 569.1852 32.465878Q569.8102 33.137753 570.7477 33.137753Q571.41956 33.137753 571.8727 32.872128Q572.34143 32.590878 572.7008 32.137753L573.46643 32.731503Q572.54456 34.169003 570.6852 34.169003ZM570.52893 27.528378Q569.7633 27.528378 569.23206 28.090878Q568.71643 28.653378 568.59143 29.653378L572.29456 29.653378L572.29456 29.559628Q572.2477 28.590878 571.77893 28.059628Q571.3102 27.528378 570.52893 27.528378Z" fill-rule="nonzero"/></svg>