<svg version="1.1" viewBox="0.0 0.0 600.0 371.0" fill="none" stroke="none" stroke-linecap="square" stroke-miterlimit="10" width="600" height="371" xmlns:xlink="http://www.w3.org/1999/xlink" xmlns="http://www.w3.org/2000/svg"><path fill="#ffffff" d="M0 0L600.0 0L600.0 371.0L0 371.0L0 0Z" fill-rule="nonzero"/><path stroke="#333333" stroke-width="1.0" stroke-linecap="butt" d="M138.5 42.5L138.5 328.5" fill-rule="nonzero"/><path stroke="#000000" stroke-width="1.0" stroke-linecap="butt" d="M248.5 42.5L248.5 328.5" fill-rule="nonzero"/><path stroke="#000000" stroke-width="1.0" stroke-linecap="butt" d="M359.5 42.5L359.5 328.5" fill-rule="nonzero"/><path stroke="#000000" stroke-width="1.0" stroke-linecap="butt" d="M470.5 42.5L470.5 328.5" fill-rule="nonzero"/><path stroke="#000000" stroke-width="1.0" stroke-linecap="butt" d="M581.5 42.5L581.5 328.5" fill-rule="nonzero"/><clipPath id="id_0"><path d="M138.13 42.92746L581.45 42.92746L581.45 328.45L138.13 328.45L138.13 42.92746Z" clip-rule="nonzero"/></clipPath><path stroke="#000000" stroke-width="0.0" stroke-linecap="butt" stroke-opacity="0.0" clip-path="url(#id_0)" d="M138.0 165.0L138.0 86.0L255.0 86.0L255.0 165.0Z" fill-rule="nonzero"/><path fill="#f1c232" clip-path="url(#id_0)" d="M138.0 165.0L138.0 86.0L255.0 86.0L255.0 165.0Z" fill-rule="nonzero"/><path stroke="#000000" stroke-width="0.0" stroke-linecap="butt" stroke-opacity="0.0" clip-path="url(#id_0)" d="M138.0 286.0L138.0 207.0L299.0 207.0L299.0 286.0Z" fill-rule="nonzero"/><path fill="#f1c232" clip-path="url(#id_0)" d="M138.0 286.0L138.0 207.0L299.0 207.0L299.0 286.0Z" fill-rule="nonzero"/><path stroke="#000000" stroke-width="0.0" stroke-linecap="butt" stroke-opacity="0.0" clip-path="url(#id_0)" d="M255.0 165.0L255.0 86.0L362.0 86.0L362.0 165.0Z" fill-rule="nonzero"/><path fill="#ffe599" clip-path="url(#id_0)" d="M255.0 165.0L255.0 86.0L362.0 86.0L362.0 165.0Z" fill-rule="nonzero"/><path stroke="#000000" stroke-width="0.0" stroke-linecap="butt" stroke-opacity="0.0" clip-path="url(#id_0)" d="M299.0 286.0L299.0 207.0L460.0 207.0L460.0 286.0Z" fill-rule="nonzero"/><path fill="#ffe599" clip-path="url(#id_0)" d="M299.0 286.0L299.0 207.0L460.0 207.0L460.0 286.0Z" fill-rule="nonzero"/><path stroke="#000000" stroke-width="0.0" stroke-linecap="butt" stroke-opacity="0.0" clip-path="url(#id_0)" d="M362.0 165.0L362.0 86.0L416.0 86.0L416.0 165.0Z" fill-rule="nonzero"/><path fill="#f3f3f3" clip-path="url(#id_0)" d="M362.0 165.0L362.0 86.0L416.0 86.0L416.0 165.0Z" fill-rule="nonzero"/><path stroke="#000000" stroke-width="0.0" stroke-linecap="butt" stroke-opacity="0.0" clip-path="url(#id_0)" d="M460.0 286.0L460.0 207.0L523.0 207.0L523.0 286.0Z" fill-rule="nonzero"/><path fill="#f3f3f3" clip-path="url(#id_0)" d="M460.0 286.0L460.0 207.0L523.0 207.0L523.0 286.0Z" fill-rule="nonzero"/><path stroke="#000000" stroke-width="0.0" stroke-linecap="butt" stroke-opacity="0.0" clip-path="url(#id_0)" d="M416.0 165.0L416.0 86.0L552.0 86.0L552.0 165.0Z" fill-rule="nonzero"/><path fill="#b6d7a8" clip-path="url(#id_0)" d="M416.0 165.0L416.0 86.0L552.0 86.0L552.0 165.0Z" fill-rule="nonzero"/><path stroke="#000000" stroke-width="0.0" stroke-linecap="butt" stroke-opacity="0.0" clip-path="url(#id_0)" d="M523.0 286.0L523.0 207.0L567.0 207.0L567.0 286.0Z" fill-rule="nonzero"/><path fill="#b6d7a8" clip-path="url(#id_0)" d="M523.0 286.0L523.0 207.0L567.0 207.0L567.0 286.0Z" fill-rule="nonzero"/><path stroke="#000000" stroke-width="0.0" stroke-linecap="butt" stroke-opacity="0.0" clip-path="url(#id_0)" d="M552.0 165.0L552.0 86.0L579.0 86.0C580.10455 86.0 581.0 86.89543 581.0 88.0L581.0 163.0C581.0 164.10457 580.10455 165.0 579.0 165.0Z" fill-rule="nonzero"/><path fill="#6aa84f" clip-path="url(#id_0)" d="M552.0 165.0L552.0 86.0L579.0 86.0C580.10455 86.0 581.0 86.89543 581.0 88.0L581.0 163.0C581.0 164.10457 580.10455 165.0 579.0 165.0Z" fill-rule="nonzero"/><path stroke="#000000" stroke-width="0.0" stroke-linecap="butt" stroke-opacity="0.0" clip-path="url(#id_0)" d="M567.0 286.0L567.0 207.0L579.0 207.0C580.10455 207.0 581.0 207.89543 581.0 209.0L581.0 284.0C581.0 285.10458 580.10455 286.0 579.0 286.0Z" fill-rule="nonzero"/><path fill="#6aa84f" clip-path="url(#id_0)" d="M567.0 286.0L567.0 207.0L579.0 207.0C580.10455 207.0 581.0 207.89543 581.0 209.0L581.0 284.0C581.0 285.10458 580.10455 286.0 579.0 286.0Z" fill-rule="nonzero"/><path fill="#000000" d="M41.63 111.126755Q41.13 111.86113 40.22375 112.220505Q39.3175 112.57988 38.114376 112.57988Q36.895626 112.57988 35.9425 112.01738Q35.005 111.439255 34.489376 110.39238Q33.97375 109.32988 33.958126 107.939255L33.958126 107.07988Q33.958126 104.82988 35.005 103.595505Q36.0675 102.345505 37.958126 102.345505Q39.520626 102.345505 40.47375 103.14238Q41.426876 103.939255 41.63 105.408005L40.3175 105.408005Q39.958126 103.42363 37.97375 103.42363Q36.645626 103.42363 35.958126 104.36113Q35.28625 105.283005 35.28625 107.033005L35.28625 107.845505Q35.28625 109.533005 36.051876 110.51738Q36.8175 111.501755 38.114376 111.501755Q38.864376 111.501755 39.41125 111.345505Q39.97375 111.17363 40.333126 110.783005L40.333126 108.54863L38.020626 108.54863L38.020626 107.48613L41.63 107.48613L41.63 111.126755ZM43.755 108.67363Q43.755 107.57988 44.176876 106.720505Q44.614376 105.845505 45.364376 105.376755Q46.13 104.908005 47.114376 104.908005Q48.614376 104.908005 49.551876 105.95488Q50.489376 107.001755 50.489376 108.73613L50.489376 108.82988Q50.489376 109.908005 50.0675 110.76738Q49.66125 111.61113 48.88 112.095505Q48.114376 112.57988 47.13 112.57988Q45.614376 112.57988 44.676876 111.533005Q43.755 110.48613 43.755 108.76738L43.755 108.67363ZM45.020626 108.82988Q45.020626 110.04863 45.583126 110.79863Q46.16125 111.54863 47.13 111.54863Q48.083126 111.54863 48.645626 110.79863Q49.22375 110.033005 49.22375 108.67363Q49.22375 107.45488 48.645626 106.70488Q48.0675 105.939255 47.114376 105.939255Q46.176876 105.939255 45.59875 106.689255Q45.020626 107.439255 45.020626 108.82988ZM54.520626 110.720505L56.364376 105.04863L57.645626 105.04863L55.005 112.439255L54.03625 112.439255L51.34875 105.04863L52.645626 105.04863L54.520626 110.720505ZM60.801876 103.251755L60.801876 105.04863L62.176876 105.04863L62.176876 106.01738L60.801876 106.01738L60.801876 110.61113Q60.801876 111.04863 60.989376 111.283005Q61.176876 111.501755 61.614376 111.501755Q61.833126 111.501755 62.22375 111.408005L62.22375 112.439255Q61.72375 112.57988 61.255 112.57988Q60.395626 112.57988 59.958126 112.064255Q59.53625 111.54863 59.53625 110.61113L59.53625 106.01738L58.1925 106.01738L58.1925 105.04863L59.53625 105.04863L59.53625 103.251755L60.801876 103.251755ZM64.11438 111.783005Q64.11438 111.45488 64.30188 111.23613Q64.505005 111.01738 64.89563 111.01738Q65.286255 111.01738 65.48938 111.23613Q65.692505 111.45488 65.692505 111.783005Q65.692505 112.095505 65.48938 112.314255Q65.286255 112.51738 64.89563 112.51738Q64.505005 112.51738 64.30188 112.314255Q64.11438 112.095505 64.11438 111.783005ZM78.942505 107.783005Q78.942505 109.251755 78.442505 110.345505Q77.95813 111.42363 77.05188 112.001755Q76.14563 112.57988 74.942505 112.57988Q73.77063 112.57988 72.86438 112.001755Q71.95813 111.42363 71.45813 110.36113Q70.95813 109.283005 70.942505 107.876755L70.942505 107.158005Q70.942505 105.720505 71.442505 104.626755Q71.942505 103.51738 72.848755 102.939255Q73.755005 102.345505 74.942505 102.345505Q76.130005 102.345505 77.036255 102.92363Q77.95813 103.501755 78.442505 104.61113Q78.942505 105.70488 78.942505 107.158005L78.942505 107.783005ZM77.630005 107.14238Q77.630005 105.376755 76.911255 104.42363Q76.20813 103.470505 74.942505 103.470505Q73.692505 103.470505 72.973755 104.42363Q72.27063 105.376755 72.23938 107.04863L72.23938 107.783005Q72.23938 109.501755 72.95813 110.48613Q73.692505 111.45488 74.942505 111.45488Q76.223755 111.45488 76.911255 110.533005Q77.61438 109.61113 77.630005 107.876755L77.630005 107.14238ZM88.942505 112.439255L87.61438 112.439255L82.598755 104.76738L82.598755 112.439255L81.286255 112.439255L81.286255 102.48613L82.598755 102.48613L87.630005 110.189255L87.630005 102.48613L88.942505 102.48613L88.942505 112.439255ZM92.598755 111.36113L97.317505 111.36113L97.317505 112.439255L91.286255 112.439255L91.286255 102.48613L92.598755 102.48613L92.598755 111.36113ZM102.317505 107.48613L104.911255 102.48613L106.411255 102.48613L102.973755 108.720505L102.973755 112.439255L101.661255 112.439255L101.661255 108.720505L98.23938 102.48613L99.73938 102.48613L102.317505 107.48613ZM114.661255 111.70488Q113.911255 112.57988 112.48938 112.57988Q111.30188 112.57988 110.67688 111.89238Q110.067505 111.20488 110.067505 109.86113L110.067505 105.04863L111.317505 105.04863L111.317505 109.814255Q111.317505 111.501755 112.692505 111.501755Q114.14563 111.501755 114.61438 110.42363L114.61438 105.04863L115.880005 105.04863L115.880005 112.439255L114.67688 112.439255L114.661255 111.70488ZM122.39563 110.470505Q122.39563 109.970505 122.005005 109.689255Q121.61438 109.39238 120.661255 109.189255Q119.70813 108.98613 119.130005 108.70488Q118.567505 108.408005 118.30188 108.01738Q118.036255 107.626755 118.036255 107.07988Q118.036255 106.158005 118.80188 105.533005Q119.567505 104.908005 120.77063 104.908005Q122.02063 104.908005 122.80188 105.564255Q123.58313 106.20488 123.58313 107.220505L122.317505 107.220505Q122.317505 106.689255 121.880005 106.314255Q121.442505 105.939255 120.77063 105.939255Q120.08313 105.939255 119.692505 106.251755Q119.30188 106.54863 119.30188 107.033005Q119.30188 107.48613 119.661255 107.720505Q120.02063 107.95488 120.95813 108.17363Q121.911255 108.376755 122.505005 108.67363Q123.098755 108.970505 123.380005 109.39238Q123.661255 109.79863 123.661255 110.39238Q123.661255 111.376755 122.86438 111.98613Q122.067505 112.57988 120.80188 112.57988Q119.92688 112.57988 119.23938 112.26738Q118.55188 111.939255 118.161255 111.376755Q117.786255 110.814255 117.786255 110.158005L119.05188 110.158005Q119.08313 110.79863 119.55188 111.17363Q120.036255 111.54863 120.80188 111.54863Q121.52063 111.54863 121.95813 111.251755Q122.39563 110.95488 122.39563 110.470505ZM128.16125 112.57988Q126.64563 112.57988 125.70813 111.595505Q124.77063 110.595505 124.77063 108.939255L124.77063 108.720505Q124.77063 107.61113 125.192505 106.751755Q125.61438 105.876755 126.36438 105.39238Q127.11438 104.908005 128.005 104.908005Q129.4425 104.908005 130.23938 105.86113Q131.03625 106.79863 131.03625 108.57988L131.03625 109.095505L126.036255 109.095505Q126.05188 110.189255 126.661255 110.876755Q127.286255 111.54863 128.22375 111.54863Q128.89563 111.54863 129.34875 111.283005Q129.8175 111.001755 130.17688 110.54863L130.9425 111.14238Q130.02063 112.57988 128.16125 112.57988ZM128.005 105.939255Q127.23938 105.939255 126.70813 106.501755Q126.192505 107.064255 126.067505 108.064255L129.77063 108.064255L129.77063 107.970505Q129.72375 107.001755 129.255 106.470505Q128.78625 105.939255 128.005 105.939255Z" fill-rule="nonzero"/><path fill="#000000" d="M60.801876 120.251755L60.801876 122.04863L62.176876 122.04863L62.176876 123.01738L60.801876 123.01738L60.801876 127.61113Q60.801876 128.04863 60.989376 128.283Q61.176876 128.50175 61.614376 128.50175Q61.833126 128.50175 62.22375 128.408L62.22375 129.43925Q61.72375 129.57988 61.255 129.57988Q60.395626 129.57988 59.958126 129.06425Q59.53625 128.54863 59.53625 127.61113L59.53625 123.01738L58.1925 123.01738L58.1925 122.04863L59.53625 122.04863L59.53625 120.251755L60.801876 120.251755ZM65.348755 122.939255Q66.192505 121.908005 67.536255 121.908005Q69.880005 121.908005 69.911255 124.54863L69.911255 129.43925L68.64563 129.43925L68.64563 124.54863Q68.630005 123.751755 68.27063 123.376755Q67.911255 122.98613 67.161255 122.98613Q66.536255 122.98613 66.067505 123.314255Q65.61438 123.64238 65.348755 124.17363L65.348755 129.43925L64.08313 129.43925L64.08313 118.939255L65.348755 118.939255L65.348755 122.939255ZM75.161255 129.57988Q73.64563 129.57988 72.70813 128.5955Q71.77063 127.595505 71.77063 125.939255L71.77063 125.720505Q71.77063 124.61113 72.192505 123.751755Q72.61438 122.876755 73.36438 122.39238Q74.11438 121.908005 75.005005 121.908005Q76.442505 121.908005 77.23938 122.86113Q78.036255 123.79863 78.036255 125.57988L78.036255 126.095505L73.036255 126.095505Q73.05188 127.189255 73.661255 127.876755Q74.286255 128.54863 75.223755 128.54863Q75.89563 128.54863 76.348755 128.283Q76.817505 128.00175 77.17688 127.54863L77.942505 128.14238Q77.02063 129.57988 75.161255 129.57988ZM75.005005 122.939255Q74.23938 122.939255 73.70813 123.501755Q73.192505 124.064255 73.067505 125.064255L76.77063 125.064255L76.77063 124.970505Q76.723755 124.001755 76.255005 123.470505Q75.786255 122.939255 75.005005 122.939255ZM81.786255 125.67363Q81.786255 123.970505 82.58313 122.939255Q83.39563 121.908005 84.692505 121.908005Q86.005005 121.908005 86.755005 122.79863L86.755005 118.939255L88.02063 118.939255L88.02063 129.43925L86.86438 129.43925L86.80188 128.64238Q86.036255 129.57988 84.692505 129.57988Q83.39563 129.57988 82.58313 128.533Q81.786255 127.470505 81.786255 125.76738L81.786255 125.67363ZM83.05188 125.82988Q83.05188 127.07988 83.567505 127.79863Q84.08313 128.50175 85.005005 128.50175Q86.20813 128.50175 86.755005 127.42363L86.755005 124.01738Q86.192505 122.98613 85.02063 122.98613Q84.08313 122.98613 83.567505 123.70488Q83.05188 124.408005 83.05188 125.82988ZM94.661255 129.43925Q94.55188 129.2205 94.473755 128.658Q93.598755 129.57988 92.36438 129.57988Q91.27063 129.57988 90.567505 128.9705Q89.880005 128.3455 89.880005 127.39238Q89.880005 126.23613 90.755005 125.595505Q91.630005 124.95488 93.223755 124.95488L94.45813 124.95488L94.45813 124.376755Q94.45813 123.70488 94.05188 123.314255Q93.661255 122.92363 92.89563 122.92363Q92.20813 122.92363 91.755005 123.26738Q91.30188 123.61113 91.30188 124.095505L90.02063 124.095505Q90.02063 123.533005 90.411255 123.01738Q90.817505 122.501755 91.48938 122.20488Q92.161255 121.908005 92.95813 121.908005Q94.23938 121.908005 94.95813 122.54863Q95.692505 123.189255 95.723755 124.29863L95.723755 127.70488Q95.723755 128.7205 95.973755 129.32988L95.973755 129.43925L94.661255 129.43925ZM92.55188 128.4705Q93.14563 128.4705 93.67688 128.17363Q94.223755 127.86113 94.45813 127.36113L94.45813 125.845505L93.45813 125.845505Q91.14563 125.845505 91.14563 127.20488Q91.14563 127.79863 91.536255 128.14238Q91.92688 128.4705 92.55188 128.4705ZM99.80188 120.251755L99.80188 122.04863L101.17688 122.04863L101.17688 123.01738L99.80188 123.01738L99.80188 127.61113Q99.80188 128.04863 99.98938 128.283Q100.17688 128.50175 100.61438 128.50175Q100.83313 128.50175 101.223755 128.408L101.223755 129.43925Q100.723755 129.57988 100.255005 129.57988Q99.39563 129.57988 98.95813 129.06425Q98.536255 128.54863 98.536255 127.61113L98.536255 123.01738L97.192505 123.01738L97.192505 122.04863L98.536255 122.04863L98.536255 120.251755L99.80188 120.251755ZM107.661255 129.43925Q107.55188 129.2205 107.473755 128.658Q106.598755 129.57988 105.36438 129.57988Q104.27063 129.57988 103.567505 128.9705Q102.880005 128.3455 102.880005 127.39238Q102.880005 126.23613 103.755005 125.595505Q104.630005 124.95488 106.223755 124.95488L107.45813 124.95488L107.45813 124.376755Q107.45813 123.70488 107.05188 123.314255Q106.661255 122.92363 105.89563 122.92363Q105.20813 122.92363 104.755005 123.26738Q104.30188 123.61113 104.30188 124.095505L103.02063 124.095505Q103.02063 123.533005 103.411255 123.01738Q103.817505 122.501755 104.48938 122.20488Q105.161255 121.908005 105.95813 121.908005Q107.23938 121.908005 107.95813 122.54863Q108.692505 123.189255 108.723755 124.29863L108.723755 127.70488Q108.723755 128.7205 108.973755 129.32988L108.973755 129.43925L107.661255 129.43925ZM105.55188 128.4705Q106.14563 128.4705 106.67688 128.17363Q107.223755 127.86113 107.45813 127.36113L107.45813 125.845505L106.45813 125.845505Q104.14563 125.845505 104.14563 127.20488Q104.14563 127.79863 104.536255 128.14238Q104.92688 128.4705 105.55188 128.4705ZM114.70813 129.43925L114.70813 123.01738L113.536255 123.01738L113.536255 122.04863L114.70813 122.04863L114.70813 121.283005Q114.70813 120.095505 115.33313 119.45488Q115.973755 118.79863 117.14563 118.79863Q117.58313 118.79863 118.005005 118.908005L117.942505 119.939255Q117.61438 119.876755 117.255005 119.876755Q116.64563 119.876755 116.30188 120.23613Q115.973755 120.595505 115.973755 121.26738L115.973755 122.04863L117.55188 122.04863L117.55188 123.01738L115.973755 123.01738L115.973755 129.43925L114.70813 129.43925ZM118.755005 125.67363Q118.755005 124.57988 119.17688 123.720505Q119.61438 122.845505 120.36438 122.376755Q121.130005 121.908005 122.11438 121.908005Q123.61438 121.908005 124.55188 122.95488Q125.48938 124.001755 125.48938 125.73613L125.48938 125.82988Q125.48938 126.908005 125.067505 127.76738Q124.661255 128.61113 123.880005 129.0955Q123.11438 129.57988 122.130005 129.57988Q120.61438 129.57988 119.67688 128.533Q118.755005 127.48613 118.755005 125.76738L118.755005 125.67363ZM120.02063 125.82988Q120.02063 127.04863 120.58313 127.79863Q121.161255 128.54863 122.130005 128.54863Q123.08313 128.54863 123.64563 127.79863Q124.223755 127.033005 124.223755 125.67363Q124.223755 124.45488 123.64563 123.70488Q123.067505 122.939255 122.11438 122.939255Q121.17688 122.939255 120.598755 123.689255Q120.02063 124.439255 120.02063 125.82988ZM130.66125 123.17363Q130.38 123.126755 130.03625 123.126755Q128.80188 123.126755 128.34875 124.189255L128.34875 129.43925L127.08313 129.43925L127.08313 122.04863L128.3175 122.04863L128.33313 122.89238Q128.95813 121.908005 130.09875 121.908005Q130.47375 121.908005 130.66125 122.001755L130.66125 123.17363Z" fill-rule="nonzero"/><path fill="#000000" d="M25.458124 146.43925L24.1925 146.43925L24.1925 139.04863L25.458124 139.04863L25.458124 146.43925ZM24.09875 137.07988Q24.09875 136.76738 24.28625 136.56425Q24.47375 136.3455 24.833124 136.3455Q25.208124 136.3455 25.395624 136.56425Q25.59875 136.76738 25.59875 137.07988Q25.59875 137.39238 25.395624 137.5955Q25.208124 137.79863 24.833124 137.79863Q24.47375 137.79863 24.28625 137.5955Q24.09875 137.39238 24.09875 137.07988ZM28.28625 139.04863L28.3175 139.9705Q29.176874 138.908 30.53625 138.908Q32.879997 138.908 32.911247 141.54863L32.911247 146.43925L31.645624 146.43925L31.645624 141.54863Q31.63 140.75175 31.270624 140.37675Q30.91125 139.98613 30.16125 139.98613Q29.53625 139.98613 29.0675 140.31425Q28.614374 140.64238 28.34875 141.17363L28.34875 146.43925L27.083124 146.43925L27.083124 139.04863L28.28625 139.04863ZM36.801872 137.25175L36.801872 139.04863L38.176872 139.04863L38.176872 140.01738L36.801872 140.01738L36.801872 144.61113Q36.801872 145.04863 36.989372 145.283Q37.176872 145.50175 37.614372 145.50175Q37.833122 145.50175 38.223747 145.408L38.223747 146.43925Q37.723747 146.57988 37.254997 146.57988Q36.395622 146.57988 35.958122 146.06425Q35.536247 145.54863 35.536247 144.61113L35.536247 140.01738L34.192497 140.01738L34.192497 139.04863L35.536247 139.04863L35.536247 137.25175L36.801872 137.25175ZM43.161247 146.57988Q41.645622 146.57988 40.708122 145.5955Q39.770622 144.5955 39.770622 142.93925L39.770622 142.7205Q39.770622 141.61113 40.192497 140.75175Q40.614372 139.87675 41.364372 139.39238Q42.114372 138.908 43.004997 138.908Q44.442497 138.908 45.239372 139.86113Q46.036247 140.79863 46.036247 142.57988L46.036247 143.0955L41.036247 143.0955Q41.051872 144.18925 41.661247 144.87675Q42.286247 145.54863 43.223747 145.54863Q43.895622 145.54863 44.348747 145.283Q44.817497 145.00175 45.176872 144.54863L45.942497 145.14238Q45.020622 146.57988 43.161247 146.57988ZM43.004997 139.93925Q42.239372 139.93925 41.708122 140.50175Q41.192497 141.06425 41.067497 142.06425L44.770622 142.06425L44.770622 141.9705Q44.723747 141.00175 44.254997 140.4705Q43.786247 139.93925 43.004997 139.93925ZM48.286247 139.04863L48.317497 139.9705Q49.176872 138.908 50.536247 138.908Q52.879997 138.908 52.911247 141.54863L52.911247 146.43925L51.645622 146.43925L51.645622 141.54863Q51.629997 140.75175 51.270622 140.37675Q50.911247 139.98613 50.161247 139.98613Q49.536247 139.98613 49.067497 140.31425Q48.614372 140.64238 48.348747 141.17363L48.348747 146.43925L47.083122 146.43925L47.083122 139.04863L48.286247 139.04863ZM54.786247 142.67363Q54.786247 140.9705 55.583122 139.93925Q56.395622 138.908 57.692497 138.908Q59.004997 138.908 59.754997 139.79863L59.754997 135.93925L61.020622 135.93925L61.020622 146.43925L59.864372 146.43925L59.801872 145.64238Q59.036247 146.57988 57.692497 146.57988Q56.395622 146.57988 55.583122 145.533Q54.786247 144.4705 54.786247 142.76738L54.786247 142.67363ZM56.051872 142.82988Q56.051872 144.07988 56.567497 144.79863Q57.083122 145.50175 58.004997 145.50175Q59.208122 145.50175 59.754997 144.42363L59.754997 141.01738Q59.192497 139.98613 58.020622 139.98613Q57.083122 139.98613 56.567497 140.70488Q56.051872 141.408 56.051872 142.82988ZM66.16125 146.57988Q64.64562 146.57988 63.708122 145.5955Q62.770622 144.5955 62.770622 142.93925L62.770622 142.7205Q62.770622 141.61113 63.192497 140.75175Q63.614372 139.87675 64.36437 139.39238Q65.11437 138.908 66.005 138.908Q67.4425 138.908 68.23937 139.86113Q69.03625 140.79863 69.03625 142.57988L69.03625 143.0955L64.03625 143.0955Q64.05187 144.18925 64.66125 144.87675Q65.28625 145.54863 66.22375 145.54863Q66.89562 145.54863 67.34875 145.283Q67.8175 145.00175 68.17687 144.54863L68.9425 145.14238Q68.02062 146.57988 66.16125 146.57988ZM66.005 139.93925Q65.23937 139.93925 64.70812 140.50175Q64.1925 141.06425 64.0675 142.06425L67.77062 142.06425L67.77062 141.9705Q67.72375 141.00175 67.255 140.4705Q66.78625 139.93925 66.005 139.93925ZM69.78625 142.67363Q69.78625 140.9705 70.58312 139.93925Q71.39562 138.908 72.6925 138.908Q74.005 138.908 74.755 139.79863L74.755 135.93925L76.02062 135.93925L76.02062 146.43925L74.86437 146.43925L74.80187 145.64238Q74.03625 146.57988 72.6925 146.57988Q71.39562 146.57988 70.58312 145.533Q69.78625 144.4705 69.78625 142.76738L69.78625 142.67363ZM71.05187 142.82988Q71.05187 144.07988 71.5675 144.79863Q72.08312 145.50175 73.005 145.50175Q74.20812 145.50175 74.755 144.42363L74.755 141.01738Q74.1925 139.98613 73.02062 139.98613Q72.08312 139.98613 71.5675 140.70488Q71.05187 141.408 71.05187 142.82988ZM87.33312 142.82988Q87.33312 144.51738 86.55187 145.54863Q85.78625 146.57988 84.47375 146.57988Q83.13 146.57988 82.34875 145.7205L82.34875 149.283L81.08312 149.283L81.08312 139.04863L82.23937 139.04863L82.30187 139.86113Q83.08312 138.908 84.45812 138.908Q85.78625 138.908 86.55187 139.908Q87.33312 140.908 87.33312 142.70488L87.33312 142.82988ZM86.0675 142.67363Q86.0675 141.42363 85.53625 140.70488Q85.005 139.98613 84.0675 139.98613Q82.92687 139.98613 82.34875 141.00175L82.34875 144.533Q82.92687 145.54863 84.08312 145.54863Q85.005 145.54863 85.53625 144.82988Q86.0675 144.0955 86.0675 142.67363ZM93.66125 145.70488Q92.91125 146.57988 91.48937 146.57988Q90.30187 146.57988 89.67687 145.89238Q89.0675 145.20488 89.0675 143.86113L89.0675 139.04863L90.3175 139.04863L90.3175 143.81425Q90.3175 145.50175 91.6925 145.50175Q93.14562 145.50175 93.61437 144.42363L93.61437 139.04863L94.88 139.04863L94.88 146.43925L93.67687 146.43925L93.66125 145.70488ZM100.66125 140.17363Q100.38 140.12675 100.03625 140.12675Q98.80187 140.12675 98.34875 141.18925L98.34875 146.43925L97.08312 146.43925L97.08312 139.04863L98.3175 139.04863L98.33312 139.89238Q98.95812 138.908 100.09875 138.908Q100.47375 138.908 100.66125 139.00175L100.66125 140.17363ZM108.33312 142.82988Q108.33312 144.51738 107.55187 145.54863Q106.78625 146.57988 105.47375 146.57988Q104.13 146.57988 103.34875 145.7205L103.34875 149.283L102.08312 149.283L102.08312 139.04863L103.23937 139.04863L103.30187 139.86113Q104.08312 138.908 105.45812 138.908Q106.78625 138.908 107.55187 139.908Q108.33312 140.908 108.33312 142.70488L108.33312 142.82988ZM107.0675 142.67363Q107.0675 141.42363 106.53625 140.70488Q106.005 139.98613 105.0675 139.98613Q103.92687 139.98613 103.34875 141.00175L103.34875 144.533Q103.92687 145.54863 105.08312 145.54863Q106.005 145.54863 106.53625 144.82988Q107.0675 144.0955 107.0675 142.67363ZM109.755 142.67363Q109.755 141.57988 110.17687 140.7205Q110.61437 139.8455 111.36437 139.37675Q112.13 138.908 113.11437 138.908Q114.61437 138.908 115.55187 139.95488Q116.48937 141.00175 116.48937 142.73613L116.48937 142.82988Q116.48937 143.908 116.0675 144.76738Q115.66125 145.61113 114.88 146.0955Q114.11437 146.57988 113.13 146.57988Q111.61437 146.57988 110.67687 145.533Q109.755 144.48613 109.755 142.76738L109.755 142.67363ZM111.02062 142.82988Q111.02062 144.04863 111.58312 144.79863Q112.16125 145.54863 113.13 145.54863Q114.08312 145.54863 114.64562 144.79863Q115.22375 144.033 115.22375 142.67363Q115.22375 141.45488 114.64562 140.70488Q114.0675 139.93925 113.11437 139.93925Q112.17687 139.93925 111.59875 140.68925Q111.02062 141.43925 111.02062 142.82988ZM122.39562 144.4705Q122.39562 143.9705 122.005 143.68925Q121.61437 143.39238 120.66125 143.18925Q119.70812 142.98613 119.13 142.70488Q118.5675 142.408 118.30187 142.01738Q118.03625 141.62675 118.03625 141.07988Q118.03625 140.158 118.80187 139.533Q119.5675 138.908 120.77062 138.908Q122.02062 138.908 122.80187 139.56425Q123.58312 140.20488 123.58312 141.2205L122.3175 141.2205Q122.3175 140.68925 121.88 140.31425Q121.4425 139.93925 120.77062 139.93925Q120.08312 139.93925 119.6925 140.25175Q119.30187 140.54863 119.30187 141.033Q119.30187 141.48613 119.66125 141.7205Q120.02062 141.95488 120.95812 142.17363Q121.91125 142.37675 122.505 142.67363Q123.09875 142.9705 123.38 143.39238Q123.66125 143.79863 123.66125 144.39238Q123.66125 145.37675 122.86437 145.98613Q122.0675 146.57988 120.80187 146.57988Q119.92687 146.57988 119.23937 146.26738Q118.55187 145.93925 118.16125 145.37675Q117.78625 144.81425 117.78625 144.158L119.05187 144.158Q119.08312 144.79863 119.55187 145.17363Q120.03625 145.54863 120.80187 145.54863Q121.52062 145.54863 121.95812 145.25175Q122.39562 144.95488 122.39562 144.4705ZM128.16125 146.57988Q126.64562 146.57988 125.70812 145.5955Q124.77062 144.5955 124.77062 142.93925L124.77062 142.7205Q124.77062 141.61113 125.1925 140.75175Q125.61437 139.87675 126.36437 139.39238Q127.11437 138.908 128.005 138.908Q129.4425 138.908 130.23938 139.86113Q131.03625 140.79863 131.03625 142.57988L131.03625 143.0955L126.03625 143.0955Q126.05187 144.18925 126.66125 144.87675Q127.28625 145.54863 128.22375 145.54863Q128.89563 145.54863 129.34875 145.283Q129.8175 145.00175 130.17688 144.54863L130.9425 145.14238Q130.02063 146.57988 128.16125 146.57988ZM128.005 139.93925Q127.23937 139.93925 126.70812 140.50175Q126.1925 141.06425 126.0675 142.06425L129.77063 142.06425L129.77063 141.9705Q129.72375 141.00175 129.255 140.4705Q128.78625 139.93925 128.005 139.93925Z" fill-rule="nonzero"/><path fill="#000000" d="M30.63 232.6257Q30.13 233.36008 29.22375 233.71945Q28.3175 234.07883 27.114374 234.07883Q25.895624 234.07883 24.9425 233.51633Q24.005 232.9382 23.489374 231.89133Q22.97375 230.82883 22.958124 229.4382L22.958124 228.57883Q22.958124 226.32883 24.005 225.09445Q25.0675 223.84445 26.958124 223.84445Q28.520624 223.84445 29.47375 224.64133Q30.426874 225.4382 30.63 226.90695L29.3175 226.90695Q28.958124 224.92258 26.97375 224.92258Q25.645624 224.92258 24.958124 225.86008Q24.28625 226.78195 24.28625 228.53195L24.28625 229.34445Q24.28625 231.03195 25.051874 232.01633Q25.8175 233.0007 27.114374 233.0007Q27.864374 233.0007 28.41125 232.84445Q28.97375 232.67258 29.333124 232.28195L29.333124 230.04758L27.020624 230.04758L27.020624 228.98508L30.63 228.98508L30.63 232.6257ZM32.754997 230.17258Q32.754997 229.07883 33.176872 228.21945Q33.614372 227.34445 34.364372 226.8757Q35.129997 226.40695 36.114372 226.40695Q37.614372 226.40695 38.551872 227.45383Q39.489372 228.5007 39.489372 230.23508L39.489372 230.32883Q39.489372 231.40695 39.067497 232.26633Q38.661247 233.11008 37.879997 233.59445Q37.114372 234.07883 36.129997 234.07883Q34.614372 234.07883 33.676872 233.03195Q32.754997 231.98508 32.754997 230.26633L32.754997 230.17258ZM34.020622 230.32883Q34.020622 231.54758 34.583122 232.29758Q35.161247 233.04758 36.129997 233.04758Q37.083122 233.04758 37.645622 232.29758Q38.223747 231.53195 38.223747 230.17258Q38.223747 228.95383 37.645622 228.20383Q37.067497 227.4382 36.114372 227.4382Q35.176872 227.4382 34.598747 228.1882Q34.020622 228.9382 34.020622 230.32883ZM43.520622 232.21945L45.364372 226.54758L46.645622 226.54758L44.004997 233.9382L43.036247 233.9382L40.348747 226.54758L41.645622 226.54758L43.520622 232.21945ZM49.801872 224.7507L49.801872 226.54758L51.176872 226.54758L51.176872 227.51633L49.801872 227.51633L49.801872 232.11008Q49.801872 232.54758 49.989372 232.78195Q50.176872 233.0007 50.614372 233.0007Q50.833122 233.0007 51.223747 232.90695L51.223747 233.9382Q50.723747 234.07883 50.254997 234.07883Q49.395622 234.07883 48.958122 233.5632Q48.536247 233.04758 48.536247 232.11008L48.536247 227.51633L47.192497 227.51633L47.192497 226.54758L48.536247 226.54758L48.536247 224.7507L49.801872 224.7507ZM53.114372 233.28195Q53.114372 232.95383 53.301872 232.73508Q53.504997 232.51633 53.895622 232.51633Q54.286247 232.51633 54.489372 232.73508Q54.692497 232.95383 54.692497 233.28195Q54.692497 233.59445 54.489372 233.8132Q54.286247 234.01633 53.895622 234.01633Q53.504997 234.01633 53.301872 233.8132Q53.114372 233.59445 53.114372 233.28195ZM66.63 232.1882L68.05187 226.54758L69.3175 226.54758L67.17687 233.9382L66.14562 233.9382L64.34875 228.32883L62.598747 233.9382L61.567497 233.9382L59.426872 226.54758L60.676872 226.54758L62.145622 232.07883L63.864372 226.54758L64.88 226.54758L66.63 232.1882ZM72.45812 233.9382L71.1925 233.9382L71.1925 226.54758L72.45812 226.54758L72.45812 233.9382ZM71.09875 224.57883Q71.09875 224.26633 71.28625 224.0632Q71.47375 223.84445 71.83312 223.84445Q72.20812 223.84445 72.39562 224.0632Q72.59875 224.26633 72.59875 224.57883Q72.59875 224.89133 72.39562 225.09445Q72.20812 225.29758 71.83312 225.29758Q71.47375 225.29758 71.28625 225.09445Q71.09875 224.89133 71.09875 224.57883ZM75.45812 233.9382L74.1925 233.9382L74.1925 223.4382L75.45812 223.4382L75.45812 233.9382ZM78.45812 233.9382L77.1925 233.9382L77.1925 223.4382L78.45812 223.4382L78.45812 233.9382ZM83.28625 233.9382L83.28625 223.98508L86.09875 223.98508Q87.39562 223.98508 88.39562 224.5632Q89.39562 225.1257 89.92687 226.1882Q90.47375 227.2507 90.48937 228.6257L90.48937 229.26633Q90.48937 230.67258 89.9425 231.73508Q89.39562 232.78195 88.38 233.36008Q87.38 233.92258 86.03625 233.9382L83.28625 233.9382ZM84.59875 225.0632L84.59875 232.86008L85.97375 232.86008Q87.48937 232.86008 88.33312 231.92258Q89.1925 230.98508 89.1925 229.23508L89.1925 228.65695Q89.1925 226.95383 88.39562 226.01633Q87.59875 225.07883 86.13 225.0632L84.59875 225.0632ZM97.91125 229.34445L93.59875 229.34445L93.59875 232.86008L98.61437 232.86008L98.61437 233.9382L92.28625 233.9382L92.28625 223.98508L98.53625 223.98508L98.53625 225.0632L93.59875 225.0632L93.59875 228.26633L97.91125 228.26633L97.91125 229.34445ZM101.59875 232.86008L106.3175 232.86008L106.3175 233.9382L100.28625 233.9382L100.28625 223.98508L101.59875 223.98508L101.59875 232.86008ZM113.91125 229.34445L109.59875 229.34445L109.59875 232.86008L114.61437 232.86008L114.61437 233.9382L108.28625 233.9382L108.28625 223.98508L114.53625 223.98508L114.53625 225.0632L109.59875 225.0632L109.59875 228.26633L113.91125 228.26633L113.91125 229.34445ZM123.16125 225.0632L119.95812 225.0632L119.95812 233.9382L118.66125 233.9382L118.66125 225.0632L115.45812 225.0632L115.45812 223.98508L123.16125 223.98508L123.16125 225.0632ZM129.91125 229.34445L125.59875 229.34445L125.59875 232.86008L130.61438 232.86008L130.61438 233.9382L124.28625 233.9382L124.28625 223.98508L130.53625 223.98508L130.53625 225.0632L125.59875 225.0632L125.59875 228.26633L129.91125 228.26633L129.91125 229.34445Z" fill-rule="nonzero"/><path fill="#000000" d="M48.801876 241.7507L48.801876 243.54758L50.176876 243.54758L50.176876 244.51633L48.801876 244.51633L48.801876 249.11008Q48.801876 249.54758 48.989376 249.78195Q49.176876 250.0007 49.614376 250.0007Q49.833126 250.0007 50.22375 249.90695L50.22375 250.9382Q49.72375 251.07883 49.255 251.07883Q48.395626 251.07883 47.958126 250.5632Q47.53625 250.04758 47.53625 249.11008L47.53625 244.51633L46.1925 244.51633L46.1925 243.54758L47.53625 243.54758L47.53625 241.7507L48.801876 241.7507ZM53.34875 244.4382Q54.1925 243.40695 55.53625 243.40695Q57.88 243.40695 57.91125 246.04758L57.91125 250.9382L56.645626 250.9382L56.645626 246.04758Q56.63 245.2507 56.270626 244.8757Q55.91125 244.48508 55.16125 244.48508Q54.53625 244.48508 54.0675 244.8132Q53.614376 245.14133 53.34875 245.67258L53.34875 250.9382L52.083126 250.9382L52.083126 240.4382L53.34875 240.4382L53.34875 244.4382ZM63.16125 251.07883Q61.645626 251.07883 60.708126 250.09445Q59.770626 249.09445 59.770626 247.4382L59.770626 247.21945Q59.770626 246.11008 60.1925 245.2507Q60.614376 244.3757 61.364376 243.89133Q62.114376 243.40695 63.005 243.40695Q64.442505 243.40695 65.23938 244.36008Q66.036255 245.29758 66.036255 247.07883L66.036255 247.59445L61.03625 247.59445Q61.051876 248.6882 61.66125 249.3757Q62.28625 250.04758 63.22375 250.04758Q63.895626 250.04758 64.348755 249.78195Q64.817505 249.5007 65.17688 249.04758L65.942505 249.64133Q65.02063 251.07883 63.16125 251.07883ZM63.005 244.4382Q62.239376 244.4382 61.708126 245.0007Q61.1925 245.5632 61.0675 246.5632L64.77063 246.5632L64.77063 246.46945Q64.723755 245.5007 64.255005 244.96945Q63.78625 244.4382 63.005 244.4382ZM69.786255 247.17258Q69.786255 245.46945 70.58313 244.4382Q71.39563 243.40695 72.692505 243.40695Q74.005005 243.40695 74.755005 244.29758L74.755005 240.4382L76.02063 240.4382L76.02063 250.9382L74.86438 250.9382L74.80188 250.14133Q74.036255 251.07883 72.692505 251.07883Q71.39563 251.07883 70.58313 250.03195Q69.786255 248.96945 69.786255 247.26633L69.786255 247.17258ZM71.05188 247.32883Q71.05188 248.57883 71.567505 249.29758Q72.08313 250.0007 73.005005 250.0007Q74.20813 250.0007 74.755005 248.92258L74.755005 245.51633Q74.192505 244.48508 73.02063 244.48508Q72.08313 244.48508 71.567505 245.20383Q71.05188 245.90695 71.05188 247.32883ZM82.661255 250.9382Q82.55188 250.71945 82.473755 250.15695Q81.598755 251.07883 80.36438 251.07883Q79.27063 251.07883 78.567505 250.46945Q77.880005 249.84445 77.880005 248.89133Q77.880005 247.73508 78.755005 247.09445Q79.630005 246.45383 81.223755 246.45383L82.45813 246.45383L82.45813 245.8757Q82.45813 245.20383 82.05188 244.8132Q81.661255 244.42258 80.89563 244.42258Q80.20813 244.42258 79.755005 244.76633Q79.30188 245.11008 79.30188 245.59445L78.02063 245.59445Q78.02063 245.03195 78.411255 244.51633Q78.817505 244.0007 79.48938 243.70383Q80.161255 243.40695 80.95813 243.40695Q82.23938 243.40695 82.95813 244.04758Q83.692505 244.6882 83.723755 245.79758L83.723755 249.20383Q83.723755 250.21945 83.973755 250.82883L83.973755 250.9382L82.661255 250.9382ZM80.55188 249.96945Q81.14563 249.96945 81.67688 249.67258Q82.223755 249.36008 82.45813 248.86008L82.45813 247.34445L81.45813 247.34445Q79.14563 247.34445 79.14563 248.70383Q79.14563 249.29758 79.536255 249.64133Q79.92688 249.96945 80.55188 249.96945ZM87.80188 241.7507L87.80188 243.54758L89.17688 243.54758L89.17688 244.51633L87.80188 244.51633L87.80188 249.11008Q87.80188 249.54758 87.98938 249.78195Q88.17688 250.0007 88.61438 250.0007Q88.83313 250.0007 89.223755 249.90695L89.223755 250.9382Q88.723755 251.07883 88.255005 251.07883Q87.39563 251.07883 86.95813 250.5632Q86.536255 250.04758 86.536255 249.11008L86.536255 244.51633L85.192505 244.51633L85.192505 243.54758L86.536255 243.54758L86.536255 241.7507L87.80188 241.7507ZM95.661255 250.9382Q95.55188 250.71945 95.473755 250.15695Q94.598755 251.07883 93.36438 251.07883Q92.27063 251.07883 91.567505 250.46945Q90.880005 249.84445 90.880005 248.89133Q90.880005 247.73508 91.755005 247.09445Q92.630005 246.45383 94.223755 246.45383L95.45813 246.45383L95.45813 245.8757Q95.45813 245.20383 95.05188 244.8132Q94.661255 244.42258 93.89563 244.42258Q93.20813 244.42258 92.755005 244.76633Q92.30188 245.11008 92.30188 245.59445L91.02063 245.59445Q91.02063 245.03195 91.411255 244.51633Q91.817505 244.0007 92.48938 243.70383Q93.161255 243.40695 93.95813 243.40695Q95.23938 243.40695 95.95813 244.04758Q96.692505 244.6882 96.723755 245.79758L96.723755 249.20383Q96.723755 250.21945 96.973755 250.82883L96.973755 250.9382L95.661255 250.9382ZM93.55188 249.96945Q94.14563 249.96945 94.67688 249.67258Q95.223755 249.36008 95.45813 248.86008L95.45813 247.34445L94.45813 247.34445Q92.14563 247.34445 92.14563 248.70383Q92.14563 249.29758 92.536255 249.64133Q92.92688 249.96945 93.55188 249.96945ZM106.661255 250.9382Q106.55188 250.71945 106.473755 250.15695Q105.598755 251.07883 104.36438 251.07883Q103.27063 251.07883 102.567505 250.46945Q101.880005 249.84445 101.880005 248.89133Q101.880005 247.73508 102.755005 247.09445Q103.630005 246.45383 105.223755 246.45383L106.45813 246.45383L106.45813 245.8757Q106.45813 245.20383 106.05188 244.8132Q105.661255 244.42258 104.89563 244.42258Q104.20813 244.42258 103.755005 244.76633Q103.30188 245.11008 103.30188 245.59445L102.02063 245.59445Q102.02063 245.03195 102.411255 244.51633Q102.817505 244.0007 103.48938 243.70383Q104.161255 243.40695 104.95813 243.40695Q106.23938 243.40695 106.95813 244.04758Q107.692505 244.6882 107.723755 245.79758L107.723755 249.20383Q107.723755 250.21945 107.973755 250.82883L107.973755 250.9382L106.661255 250.9382ZM104.55188 249.96945Q105.14563 249.96945 105.67688 249.67258Q106.223755 249.36008 106.45813 248.86008L106.45813 247.34445L105.45813 247.34445Q103.14563 247.34445 103.14563 248.70383Q103.14563 249.29758 103.536255 249.64133Q103.92688 249.96945 104.55188 249.96945ZM110.70813 250.9382L110.70813 244.51633L109.536255 244.51633L109.536255 243.54758L110.70813 243.54758L110.70813 242.78195Q110.70813 241.59445 111.33313 240.95383Q111.973755 240.29758 113.14563 240.29758Q113.58313 240.29758 114.005005 240.40695L113.942505 241.4382Q113.61438 241.3757 113.255005 241.3757Q112.64563 241.3757 112.30188 241.73508Q111.973755 242.09445 111.973755 242.76633L111.973755 243.54758L113.55188 243.54758L113.55188 244.51633L111.973755 244.51633L111.973755 250.9382L110.70813 250.9382ZM116.80188 241.7507L116.80188 243.54758L118.17688 243.54758L118.17688 244.51633L116.80188 244.51633L116.80188 249.11008Q116.80188 249.54758 116.98938 249.78195Q117.17688 250.0007 117.61438 250.0007Q117.83313 250.0007 118.223755 249.90695L118.223755 250.9382Q117.723755 251.07883 117.255005 251.07883Q116.39563 251.07883 115.95813 250.5632Q115.536255 250.04758 115.536255 249.11008L115.536255 244.51633L114.192505 244.51633L114.192505 243.54758L115.536255 243.54758L115.536255 241.7507L116.80188 241.7507ZM123.161255 251.07883Q121.64563 251.07883 120.70813 250.09445Q119.77063 249.09445 119.77063 247.4382L119.77063 247.21945Q119.77063 246.11008 120.192505 245.2507Q120.61438 244.3757 121.36438 243.89133Q122.11438 243.40695 123.005005 243.40695Q124.442505 243.40695 125.23938 244.36008Q126.036255 245.29758 126.036255 247.07883L126.036255 247.59445L121.036255 247.59445Q121.05188 248.6882 121.661255 249.3757Q122.286255 250.04758 123.223755 250.04758Q123.89563 250.04758 124.348755 249.78195Q124.817505 249.5007 125.17688 249.04758L125.942505 249.64133Q125.02063 251.07883 123.161255 251.07883ZM123.005005 244.4382Q122.23938 244.4382 121.70813 245.0007Q121.192505 245.5632 121.067505 246.5632L124.77063 246.5632L124.77063 246.46945Q124.723755 245.5007 124.255005 244.96945Q123.786255 244.4382 123.005005 244.4382ZM130.66125 244.67258Q130.38 244.6257 130.03625 244.6257Q128.80188 244.6257 128.34875 245.6882L128.34875 250.9382L127.08313 250.9382L127.08313 243.54758L128.3175 243.54758L128.33313 244.39133Q128.95813 243.40695 130.09875 243.40695Q130.47375 243.40695 130.66125 243.5007L130.66125 244.67258Z" fill-rule="nonzero"/><path fill="#000000" d="M77.33312 264.32883Q77.33312 266.01633 76.55187 267.04758Q75.78625 268.07883 74.47375 268.07883Q73.13 268.07883 72.34875 267.21945L72.34875 270.78195L71.08312 270.78195L71.08312 260.54758L72.23937 260.54758L72.30187 261.36008Q73.08312 260.40695 74.45812 260.40695Q75.78625 260.40695 76.55187 261.40695Q77.33312 262.40695 77.33312 264.20383L77.33312 264.32883ZM76.0675 264.17258Q76.0675 262.92258 75.53625 262.20383Q75.005 261.48508 74.0675 261.48508Q72.92687 261.48508 72.34875 262.5007L72.34875 266.03195Q72.92687 267.04758 74.08312 267.04758Q75.005 267.04758 75.53625 266.32883Q76.0675 265.59445 76.0675 264.17258ZM83.66125 267.9382Q83.55187 267.71945 83.47375 267.15695Q82.59875 268.07883 81.36437 268.07883Q80.27062 268.07883 79.5675 267.46945Q78.88 266.84445 78.88 265.89133Q78.88 264.73508 79.755 264.09445Q80.63 263.45383 82.22375 263.45383L83.45812 263.45383L83.45812 262.8757Q83.45812 262.20383 83.05187 261.8132Q82.66125 261.42258 81.89562 261.42258Q81.20812 261.42258 80.755 261.76633Q80.30187 262.11008 80.30187 262.59445L79.02062 262.59445Q79.02062 262.03195 79.41125 261.51633Q79.8175 261.0007 80.48937 260.70383Q81.16125 260.40695 81.95812 260.40695Q83.23937 260.40695 83.95812 261.04758Q84.6925 261.6882 84.72375 262.79758L84.72375 266.20383Q84.72375 267.21945 84.97375 267.82883L84.97375 267.9382L83.66125 267.9382ZM81.55187 266.96945Q82.14562 266.96945 82.67687 266.67258Q83.22375 266.36008 83.45812 265.86008L83.45812 264.34445L82.45812 264.34445Q80.14562 264.34445 80.14562 265.70383Q80.14562 266.29758 80.53625 266.64133Q80.92687 266.96945 81.55187 266.96945ZM88.28625 260.54758L88.3175 261.46945Q89.17687 260.40695 90.53625 260.40695Q92.88 260.40695 92.91125 263.04758L92.91125 267.9382L91.64562 267.9382L91.64562 263.04758Q91.63 262.2507 91.27062 261.8757Q90.91125 261.48508 90.16125 261.48508Q89.53625 261.48508 89.0675 261.8132Q88.61437 262.14133 88.34875 262.67258L88.34875 267.9382L87.08312 267.9382L87.08312 260.54758L88.28625 260.54758ZM94.78625 264.17258Q94.78625 262.46945 95.58312 261.4382Q96.39562 260.40695 97.6925 260.40695Q99.005 260.40695 99.755 261.29758L99.755 257.4382L101.02062 257.4382L101.02062 267.9382L99.86437 267.9382L99.80187 267.14133Q99.03625 268.07883 97.6925 268.07883Q96.39562 268.07883 95.58312 267.03195Q94.78625 265.96945 94.78625 264.26633L94.78625 264.17258ZM96.05187 264.32883Q96.05187 265.57883 96.5675 266.29758Q97.08312 267.0007 98.005 267.0007Q99.20812 267.0007 99.755 265.92258L99.755 262.51633Q99.1925 261.48508 98.02062 261.48508Q97.08312 261.48508 96.5675 262.20383Q96.05187 262.90695 96.05187 264.32883ZM106.16125 268.07883Q104.64562 268.07883 103.70812 267.09445Q102.77062 266.09445 102.77062 264.4382L102.77062 264.21945Q102.77062 263.11008 103.1925 262.2507Q103.61437 261.3757 104.36437 260.89133Q105.11437 260.40695 106.005 260.40695Q107.4425 260.40695 108.23937 261.36008Q109.03625 262.29758 109.03625 264.07883L109.03625 264.59445L104.03625 264.59445Q104.05187 265.6882 104.66125 266.3757Q105.28625 267.04758 106.22375 267.04758Q106.89562 267.04758 107.34875 266.78195Q107.8175 266.5007 108.17687 266.04758L108.9425 266.64133Q108.02062 268.07883 106.16125 268.07883ZM106.005 261.4382Q105.23937 261.4382 104.70812 262.0007Q104.1925 262.5632 104.0675 263.5632L107.77062 263.5632L107.77062 263.46945Q107.72375 262.5007 107.255 261.96945Q106.78625 261.4382 106.005 261.4382ZM111.27062 260.54758L111.3175 261.36008Q112.13 260.40695 113.505 260.40695Q115.05187 260.40695 115.61437 261.59445Q115.98937 261.0632 116.58312 260.73508Q117.17687 260.40695 117.97375 260.40695Q120.41125 260.40695 120.45812 262.98508L120.45812 267.9382L119.1925 267.9382L119.1925 263.0632Q119.1925 262.26633 118.8175 261.8757Q118.45812 261.48508 117.61437 261.48508Q116.89562 261.48508 116.42687 261.90695Q115.97375 262.3132 115.89562 263.03195L115.89562 267.9382L114.63 267.9382L114.63 263.09445Q114.63 261.48508 113.05187 261.48508Q111.80187 261.48508 111.34875 262.53195L111.34875 267.9382L110.08312 267.9382L110.08312 260.54758L111.27062 260.54758ZM123.45812 267.9382L122.1925 267.9382L122.1925 260.54758L123.45812 260.54758L123.45812 267.9382ZM122.09875 258.57883Q122.09875 258.26633 122.28625 258.0632Q122.47375 257.84445 122.83312 257.84445Q123.20812 257.84445 123.39562 258.0632Q123.59875 258.26633 123.59875 258.57883Q123.59875 258.89133 123.39562 259.09445Q123.20812 259.29758 122.83312 259.29758Q122.47375 259.29758 122.28625 259.09445Q122.09875 258.89133 122.09875 258.57883ZM128.05188 267.04758Q128.72375 267.04758 129.22375 266.64133Q129.73938 266.21945 129.80188 265.61008L130.98938 265.61008Q130.95813 266.23508 130.55188 266.8132Q130.14563 267.39133 129.47375 267.73508Q128.80188 268.07883 128.05188 268.07883Q126.53625 268.07883 125.64562 267.07883Q124.755 266.0632 124.755 264.3132L124.755 264.09445Q124.755 263.01633 125.14562 262.17258Q125.55187 261.32883 126.28625 260.8757Q127.03625 260.40695 128.05188 260.40695Q129.28625 260.40695 130.11438 261.15695Q130.9425 261.89133 130.98938 263.07883L129.80188 263.07883Q129.73938 262.36008 129.255 261.90695Q128.77063 261.4382 128.05188 261.4382Q127.08312 261.4382 126.55187 262.14133Q126.02062 262.82883 126.02062 264.14133L126.02062 264.3757Q126.02062 265.65695 126.55187 266.36008Q127.08312 267.04758 128.05188 267.04758Z" fill-rule="nonzero"/><path fill="#000000" d="M136.1925 344.2Q136.1925 346.41876 135.42688 347.5125Q134.67688 348.59064 133.0675 348.59064Q131.47375 348.59064 130.70813 347.54376Q129.9425 346.48126 129.91125 344.3719L129.91125 342.6844Q129.91125 340.4969 130.66125 339.4344Q131.42688 338.35626 133.05188 338.35626Q134.66125 338.35626 135.41125 339.3875Q136.17688 340.41876 136.1925 342.5594L136.1925 344.2ZM134.92688 342.48126Q134.92688 340.8719 134.47375 340.1375Q134.03625 339.40314 133.05188 339.40314Q132.08313 339.40314 131.63 340.1375Q131.1925 340.85626 131.17688 342.3719L131.17688 344.40314Q131.17688 346.0125 131.64563 346.79376Q132.11438 347.5594 133.0675 347.5594Q134.005 347.5594 134.45813 346.84064Q134.91125 346.10626 134.92688 344.54376L134.92688 342.48126ZM137.84875 340.40314Q137.84875 339.5125 138.41125 338.9344Q138.98938 338.35626 139.88 338.35626Q140.80188 338.35626 141.36438 338.95Q141.92688 339.52814 141.92688 340.45L141.92688 340.9344Q141.92688 341.84064 141.34875 342.41876Q140.78625 342.98126 139.89563 342.98126Q139.005 342.98126 138.42688 342.41876Q137.84875 341.84064 137.84875 340.8875L137.84875 340.40314ZM138.78625 340.9344Q138.78625 341.46564 139.08313 341.8094Q139.39563 342.15314 139.89563 342.15314Q140.38 342.15314 140.67688 341.825Q140.97375 341.4969 140.97375 340.90314L140.97375 340.40314Q140.97375 339.8719 140.67688 339.52814Q140.39563 339.1844 139.88 339.1844Q139.38 339.1844 139.08313 339.52814Q138.78625 339.8719 138.78625 340.4344L138.78625 340.9344ZM142.6925 346.0125Q142.6925 345.10626 143.255 344.54376Q143.83313 343.96564 144.72375 343.96564Q145.63 343.96564 146.1925 344.54376Q146.77063 345.10626 146.77063 346.0594L146.77063 346.54376Q146.77063 347.4344 146.1925 348.0125Q145.63 348.59064 144.73938 348.59064Q143.86438 348.59064 143.27063 348.02814Q142.6925 347.45 142.6925 346.4969L142.6925 346.0125ZM143.64563 346.54376Q143.64563 347.075 143.9425 347.4344Q144.23938 347.77814 144.73938 347.77814Q145.23938 347.77814 145.53625 347.4344Q145.83313 347.09064 145.83313 346.5125L145.83313 346.0125Q145.83313 345.46564 145.52063 345.1219Q145.22375 344.77814 144.73938 344.77814Q144.23938 344.77814 143.9425 345.1219Q143.64563 345.46564 143.64563 346.04376L143.64563 346.54376ZM140.1925 347.7L139.47375 347.2469L144.33313 339.46564L145.05188 339.91876L140.1925 347.7Z" fill-rule="nonzero"/><path fill="#000000" d="M243.30376 348.45L236.78813 348.45L236.78813 347.54376L240.22563 343.71564Q240.99126 342.84064 241.28813 342.3094Q241.585 341.7625 241.585 341.16876Q241.585 340.40314 241.10063 339.90314Q240.63188 339.40314 239.85063 339.40314Q238.91313 339.40314 238.38188 339.9344Q237.86626 340.46564 237.86626 341.4344L236.60063 341.4344Q236.60063 340.0594 237.47563 339.21564Q238.36626 338.35626 239.85063 338.35626Q241.24126 338.35626 242.03813 339.09064Q242.85063 339.8094 242.85063 341.02814Q242.85063 342.4969 240.97563 344.52814L238.31938 347.41876L243.30376 347.41876L243.30376 348.45ZM245.36626 343.46564L245.88188 338.4969L250.97563 338.4969L250.97563 339.66876L246.94438 339.66876L246.6475 342.3719Q247.38188 341.95 248.30376 341.95Q249.66313 341.95 250.46 342.85626Q251.2725 343.7469 251.2725 345.27814Q251.2725 346.8094 250.42876 347.7Q249.60063 348.59064 248.11626 348.59064Q246.80376 348.59064 245.96 347.85626Q245.13188 347.1219 245.00688 345.825L246.21 345.825Q246.31938 346.6844 246.80376 347.1219Q247.30376 347.5594 248.11626 347.5594Q248.99126 347.5594 249.49126 346.96564Q250.00688 346.35626 250.00688 345.29376Q250.00688 344.29376 249.46 343.7Q248.91313 343.09064 248.00688 343.09064Q247.19438 343.09064 246.71 343.45L246.38188 343.71564L245.36626 343.46564ZM252.67876 340.40314Q252.67876 339.5125 253.24126 338.9344Q253.81938 338.35626 254.71 338.35626Q255.63188 338.35626 256.1944 338.95Q256.7569 339.52814 256.7569 340.45L256.7569 340.9344Q256.7569 341.84064 256.17877 342.41876Q255.61626 342.98126 254.72563 342.98126Q253.835 342.98126 253.25688 342.41876Q252.67876 341.84064 252.67876 340.8875L252.67876 340.40314ZM253.61626 340.9344Q253.61626 341.46564 253.91313 341.8094Q254.22563 342.15314 254.72563 342.15314Q255.21 342.15314 255.50688 341.825Q255.80376 341.4969 255.80376 340.90314L255.80376 340.40314Q255.80376 339.8719 255.50688 339.52814Q255.22563 339.1844 254.71 339.1844Q254.21 339.1844 253.91313 339.52814Q253.61626 339.8719 253.61626 340.4344L253.61626 340.9344ZM257.52252 346.0125Q257.52252 345.10626 258.08502 344.54376Q258.66315 343.96564 259.55377 343.96564Q260.46002 343.96564 261.02252 344.54376Q261.60065 345.10626 261.60065 346.0594L261.60065 346.54376Q261.60065 347.4344 261.02252 348.0125Q260.46002 348.59064 259.5694 348.59064Q258.6944 348.59064 258.10065 348.02814Q257.52252 347.45 257.52252 346.4969L257.52252 346.0125ZM258.47565 346.54376Q258.47565 347.075 258.77252 347.4344Q259.0694 347.77814 259.5694 347.77814Q260.0694 347.77814 260.36627 347.4344Q260.66315 347.09064 260.66315 346.5125L260.66315 346.0125Q260.66315 345.46564 260.35065 345.1219Q260.05377 344.77814 259.5694 344.77814Q259.0694 344.77814 258.77252 345.1219Q258.47565 345.46564 258.47565 346.04376L258.47565 346.54376ZM255.0225 347.7L254.30376 347.2469L259.16315 339.46564L259.8819 339.91876L255.0225 347.7Z" fill-rule="nonzero"/><path fill="#000000" d="M348.19626 343.46564L348.71188 338.4969L353.80563 338.4969L353.80563 339.66876L349.77438 339.66876L349.4775 342.3719Q350.21188 341.95 351.13376 341.95Q352.49313 341.95 353.29 342.85626Q354.1025 343.7469 354.1025 345.27814Q354.1025 346.8094 353.25876 347.7Q352.43063 348.59064 350.94626 348.59064Q349.63376 348.59064 348.79 347.85626Q347.96188 347.1219 347.83688 345.825L349.04 345.825Q349.14938 346.6844 349.63376 347.1219Q350.13376 347.5594 350.94626 347.5594Q351.82126 347.5594 352.32126 346.96564Q352.83688 346.35626 352.83688 345.29376Q352.83688 344.29376 352.29 343.7Q351.74313 343.09064 350.83688 343.09064Q350.02438 343.09064 349.54 343.45L349.21188 343.71564L348.19626 343.46564ZM361.8525 344.2Q361.8525 346.41876 361.08688 347.5125Q360.33688 348.59064 358.7275 348.59064Q357.13376 348.59064 356.36813 347.54376Q355.6025 346.48126 355.57126 344.3719L355.57126 342.6844Q355.57126 340.4969 356.32126 339.4344Q357.08688 338.35626 358.71188 338.35626Q360.32126 338.35626 361.07126 339.3875Q361.83688 340.41876 361.8525 342.5594L361.8525 344.2ZM360.58688 342.48126Q360.58688 340.8719 360.13376 340.1375Q359.69626 339.40314 358.71188 339.40314Q357.74313 339.40314 357.29 340.1375Q356.8525 340.85626 356.83688 342.3719L356.83688 344.40314Q356.83688 346.0125 357.30563 346.79376Q357.77438 347.5594 358.7275 347.5594Q359.665 347.5594 360.11813 346.84064Q360.57126 346.10626 360.58688 344.54376L360.58688 342.48126ZM363.50876 340.40314Q363.50876 339.5125 364.07126 338.9344Q364.64938 338.35626 365.54 338.35626Q366.46188 338.35626 367.02438 338.95Q367.58688 339.52814 367.58688 340.45L367.58688 340.9344Q367.58688 341.84064 367.00876 342.41876Q366.44626 342.98126 365.55563 342.98126Q364.665 342.98126 364.08688 342.41876Q363.50876 341.84064 363.50876 340.8875L363.50876 340.40314ZM364.44626 340.9344Q364.44626 341.46564 364.74313 341.8094Q365.05563 342.15314 365.55563 342.15314Q366.04 342.15314 366.33688 341.825Q366.63376 341.4969 366.63376 340.90314L366.63376 340.40314Q366.63376 339.8719 366.33688 339.52814Q366.05563 339.1844 365.54 339.1844Q365.04 339.1844 364.74313 339.52814Q364.44626 339.8719 364.44626 340.4344L364.44626 340.9344ZM368.3525 346.0125Q368.3525 345.10626 368.915 344.54376Q369.49313 343.96564 370.38376 343.96564Q371.29 343.96564 371.8525 344.54376Q372.43063 345.10626 372.43063 346.0594L372.43063 346.54376Q372.43063 347.4344 371.8525 348.0125Q371.29 348.59064 370.39938 348.59064Q369.52438 348.59064 368.93063 348.02814Q368.3525 347.45 368.3525 346.4969L368.3525 346.0125ZM369.30563 346.54376Q369.30563 347.075 369.6025 347.4344Q369.89938 347.77814 370.39938 347.77814Q370.89938 347.77814 371.19626 347.4344Q371.49313 347.09064 371.49313 346.5125L371.49313 346.0125Q371.49313 345.46564 371.18063 345.1219Q370.88376 344.77814 370.39938 344.77814Q369.89938 344.77814 369.6025 345.1219Q369.30563 345.46564 369.30563 346.04376L369.30563 346.54376ZM365.8525 347.7L365.13376 347.2469L369.99313 339.46564L370.71188 339.91876L365.8525 347.7Z" fill-rule="nonzero"/><path fill="#000000" d="M464.87 339.2L460.745 348.45L459.4325 348.45L463.52625 339.52814L458.15125 339.52814L458.15125 338.4969L464.87 338.4969L464.87 339.2ZM467.02625 343.46564L467.54187 338.4969L472.63562 338.4969L472.63562 339.66876L468.60437 339.66876L468.3075 342.3719Q469.04187 341.95 469.96375 341.95Q471.32312 341.95 472.12 342.85626Q472.9325 343.7469 472.9325 345.27814Q472.9325 346.8094 472.08875 347.7Q471.26062 348.59064 469.77625 348.59064Q468.46375 348.59064 467.62 347.85626Q466.79187 347.1219 466.66687 345.825L467.87 345.825Q467.97937 346.6844 468.46375 347.1219Q468.96375 347.5594 469.77625 347.5594Q470.65125 347.5594 471.15125 346.96564Q471.66687 346.35626 471.66687 345.29376Q471.66687 344.29376 471.12 343.7Q470.57312 343.09064 469.66687 343.09064Q468.85437 343.09064 468.37 343.45L468.04187 343.71564L467.02625 343.46564ZM474.33875 340.40314Q474.33875 339.5125 474.90125 338.9344Q475.47937 338.35626 476.37 338.35626Q477.29187 338.35626 477.85437 338.95Q478.41687 339.52814 478.41687 340.45L478.41687 340.9344Q478.41687 341.84064 477.83875 342.41876Q477.27625 342.98126 476.38562 342.98126Q475.495 342.98126 474.91687 342.41876Q474.33875 341.84064 474.33875 340.8875L474.33875 340.40314ZM475.27625 340.9344Q475.27625 341.46564 475.57312 341.8094Q475.88562 342.15314 476.38562 342.15314Q476.87 342.15314 477.16687 341.825Q477.46375 341.4969 477.46375 340.90314L477.46375 340.40314Q477.46375 339.8719 477.16687 339.52814Q476.88562 339.1844 476.37 339.1844Q475.87 339.1844 475.57312 339.52814Q475.27625 339.8719 475.27625 340.4344L475.27625 340.9344ZM479.1825 346.0125Q479.1825 345.10626 479.745 344.54376Q480.32312 343.96564 481.21375 343.96564Q482.12 343.96564 482.6825 344.54376Q483.26062 345.10626 483.26062 346.0594L483.26062 346.54376Q483.26062 347.4344 482.6825 348.0125Q482.12 348.59064 481.22937 348.59064Q480.35437 348.59064 479.76062 348.02814Q479.1825 347.45 479.1825 346.4969L479.1825 346.0125ZM480.13562 346.54376Q480.13562 347.075 480.4325 347.4344Q480.72937 347.77814 481.22937 347.77814Q481.72937 347.77814 482.02625 347.4344Q482.32312 347.09064 482.32312 346.5125L482.32312 346.0125Q482.32312 345.46564 482.01062 345.1219Q481.71375 344.77814 481.22937 344.77814Q480.72937 344.77814 480.4325 345.1219Q480.13562 345.46564 480.13562 346.04376L480.13562 346.54376ZM476.6825 347.7L475.96375 347.2469L480.82312 339.46564L481.54187 339.91876L476.6825 347.7Z" fill-rule="nonzero"/><path fill="#000000" d="M569.4344 348.45L568.16876 348.45L568.16876 340.02814L565.60626 340.95L565.60626 339.8094L569.23126 338.45L569.4344 338.45L569.4344 348.45ZM579.5125 344.2Q579.5125 346.41876 578.7469 347.5125Q577.9969 348.59064 576.3875 348.59064Q574.79376 348.59064 574.02814 347.54376Q573.2625 346.48126 573.23126 344.3719L573.23126 342.6844Q573.23126 340.4969 573.98126 339.4344Q574.7469 338.35626 576.3719 338.35626Q577.98126 338.35626 578.73126 339.3875Q579.4969 340.41876 579.5125 342.5594L579.5125 344.2ZM578.2469 342.48126Q578.2469 340.8719 577.79376 340.1375Q577.35626 339.40314 576.3719 339.40314Q575.40314 339.40314 574.95 340.1375Q574.5125 340.85626 574.4969 342.3719L574.4969 344.40314Q574.4969 346.0125 574.96564 346.79376Q575.4344 347.5594 576.3875 347.5594Q577.325 347.5594 577.77814 346.84064Q578.23126 346.10626 578.2469 344.54376L578.2469 342.48126ZM587.5125 344.2Q587.5125 346.41876 586.7469 347.5125Q585.9969 348.59064 584.3875 348.59064Q582.79376 348.59064 582.02814 347.54376Q581.2625 346.48126 581.23126 344.3719L581.23126 342.6844Q581.23126 340.4969 581.98126 339.4344Q582.7469 338.35626 584.3719 338.35626Q585.98126 338.35626 586.73126 339.3875Q587.4969 340.41876 587.5125 342.5594L587.5125 344.2ZM586.2469 342.48126Q586.2469 340.8719 585.79376 340.1375Q585.35626 339.40314 584.3719 339.40314Q583.40314 339.40314 582.95 340.1375Q582.5125 340.85626 582.4969 342.3719L582.4969 344.40314Q582.4969 346.0125 582.96564 346.79376Q583.4344 347.5594 584.3875 347.5594Q585.325 347.5594 585.77814 346.84064Q586.23126 346.10626 586.2469 344.54376L586.2469 342.48126ZM589.16876 340.40314Q589.16876 339.5125 589.73126 338.9344Q590.3094 338.35626 591.2 338.35626Q592.1219 338.35626 592.6844 338.95Q593.2469 339.52814 593.2469 340.45L593.2469 340.9344Q593.2469 341.84064 592.66876 342.41876Q592.10626 342.98126 591.21564 342.98126Q590.325 342.98126 589.7469 342.41876Q589.16876 341.84064 589.16876 340.8875L589.16876 340.40314ZM590.10626 340.9344Q590.10626 341.46564 590.40314 341.8094Q590.71564 342.15314 591.21564 342.15314Q591.7 342.15314 591.9969 341.825Q592.29376 341.4969 592.29376 340.90314L592.29376 340.40314Q592.29376 339.8719 591.9969 339.52814Q591.71564 339.1844 591.2 339.1844Q590.7 339.1844 590.40314 339.52814Q590.10626 339.8719 590.10626 340.4344L590.10626 340.9344ZM594.0125 346.0125Q594.0125 345.10626 594.575 344.54376Q595.15314 343.96564 596.04376 343.96564Q596.95 343.96564 597.5125 344.54376Q598.09064 345.10626 598.09064 346.0594L598.09064 346.54376Q598.09064 347.4344 597.5125 348.0125Q596.95 348.59064 596.0594 348.59064Q595.1844 348.59064 594.59064 348.02814Q594.0125 347.45 594.0125 346.4969L594.0125 346.0125ZM594.96564 346.54376Q594.96564 347.075 595.2625 347.4344Q595.5594 347.77814 596.0594 347.77814Q596.5594 347.77814 596.85626 347.4344Q597.15314 347.09064 597.15314 346.5125L597.15314 346.0125Q597.15314 345.46564 596.84064 345.1219Q596.54376 344.77814 596.0594 344.77814Q595.5594 344.77814 595.2625 345.1219Q594.96564 345.46564 594.96564 346.04376L594.96564 346.54376ZM591.5125 347.7L590.79376 347.2469L595.65314 339.46564L596.3719 339.91876L591.5125 347.7Z" fill-rule="nonzero"/><path fill="#f1c232" d="M75.987305 22.192944C75.987305 21.64066 76.43502 21.192944 76.987305 21.192944L86.987305 21.192944C87.53959 21.192944 87.987305 21.64066 87.987305 22.192944L87.987305 32.192944C87.987305 32.745228 87.53959 33.192944 86.987305 33.192944L76.987305 33.192944C76.43502 33.192944 75.987305 32.745228 75.987305 32.192944Z" fill-rule="nonzero"/><path fill="#000000" d="M100.081055 27.255444Q98.393555 26.771069 97.612305 26.067944Q96.84668 25.349194 96.84668 24.317944Q96.84668 23.146069 97.78418 22.380444Q98.72168 21.599194 100.237305 21.599194Q101.25293 21.599194 102.049805 22.005444Q102.862305 22.396069 103.299805 23.099194Q103.75293 23.786694 103.75293 24.614819L102.424805 24.614819Q102.424805 23.708569 101.84668 23.192944Q101.28418 22.677319 100.237305 22.677319Q99.268555 22.677319 98.72168 23.114819Q98.174805 23.536694 98.174805 24.302319Q98.174805 24.911694 98.69043 25.333569Q99.206055 25.739819 100.44043 26.099194Q101.69043 26.442944 102.393555 26.864819Q103.09668 27.286694 103.424805 27.849194Q103.768555 28.411694 103.768555 29.161694Q103.768555 30.380444 102.81543 31.114819Q101.87793 31.833569 100.299805 31.833569Q99.268555 31.833569 98.37793 31.442944Q97.50293 31.036694 97.018555 30.364819Q96.53418 29.677319 96.53418 28.802319L97.84668 28.802319Q97.84668 29.708569 98.518555 30.239819Q99.19043 30.755444 100.299805 30.755444Q101.34668 30.755444 101.893555 30.333569Q102.44043 29.911694 102.44043 29.177319Q102.44043 28.442944 101.924805 28.052319Q101.424805 27.646069 100.081055 27.255444ZM106.65918 22.505444L106.65918 24.302319L108.03418 24.302319L108.03418 25.271069L106.65918 25.271069L106.65918 29.864819Q106.65918 30.302319 106.84668 30.536694Q107.03418 30.755444 107.47168 30.755444Q107.69043 30.755444 108.081055 30.661694L108.081055 31.692944Q107.581055 31.833569 107.112305 31.833569Q106.25293 31.833569 105.81543 31.317944Q105.393555 30.802319 105.393555 29.864819L105.393555 25.271069L104.049805 25.271069L104.049805 24.302319L105.393555 24.302319L105.393555 22.505444L106.65918 22.505444ZM113.518555 25.427319Q113.237305 25.380444 112.893555 25.380444Q111.65918 25.380444 111.206055 26.442944L111.206055 31.692944L109.94043 31.692944L109.94043 24.302319L111.174805 24.302319L111.19043 25.146069Q111.81543 24.161694 112.956055 24.161694Q113.331055 24.161694 113.518555 24.255444L113.518555 25.427319ZM114.612305 27.927319Q114.612305 26.833569 115.03418 25.974194Q115.47168 25.099194 116.22168 24.630444Q116.987305 24.161694 117.97168 24.161694Q119.47168 24.161694 120.40918 25.208569Q121.34668 26.255444 121.34668 27.989819L121.34668 28.083569Q121.34668 29.161694 120.924805 30.021069Q120.518555 30.864819 119.737305 31.349194Q118.97168 31.833569 117.987305 31.833569Q116.47168 31.833569 115.53418 30.786694Q114.612305 29.739819 114.612305 28.021069L114.612305 27.927319ZM115.87793 28.083569Q115.87793 29.302319 116.44043 30.052319Q117.018555 30.802319 117.987305 30.802319Q118.94043 30.802319 119.50293 30.052319Q120.081055 29.286694 120.081055 27.927319Q120.081055 26.708569 119.50293 25.958569Q118.924805 25.192944 117.97168 25.192944Q117.03418 25.192944 116.456055 25.942944Q115.87793 26.692944 115.87793 28.083569ZM124.143555 24.302319L124.174805 25.224194Q125.03418 24.161694 126.393555 24.161694Q128.7373 24.161694 128.76855 26.802319L128.76855 31.692944L127.50293 31.692944L127.50293 26.802319Q127.487305 26.005444 127.12793 25.630444Q126.768555 25.239819 126.018555 25.239819Q125.393555 25.239819 124.924805 25.567944Q124.47168 25.896069 124.206055 26.427319L124.206055 31.692944L122.94043 31.692944L122.94043 24.302319L124.143555 24.302319ZM130.64355 27.927319Q130.64355 26.208569 131.44043 25.192944Q132.2373 24.161694 133.56543 24.161694Q134.90918 24.161694 135.6748 25.114819L135.7373 24.302319L136.89355 24.302319L136.89355 31.521069Q136.89355 32.95857 136.03418 33.77107Q135.19043 34.599194 133.75293 34.599194Q132.95605 34.599194 132.19043 34.255444Q131.4248 33.92732 131.01855 33.33357L131.6748 32.567944Q132.4873 33.567944 133.65918 33.567944Q134.58105 33.567944 135.09668 33.05232Q135.62793 32.536694 135.62793 31.583569L135.62793 30.958569Q134.8623 31.833569 133.5498 31.833569Q132.25293 31.833569 131.44043 30.786694Q130.64355 29.739819 130.64355 27.927319ZM131.90918 28.083569Q131.90918 29.333569 132.4248 30.052319Q132.94043 30.755444 133.8623 30.755444Q135.06543 30.755444 135.62793 29.661694L135.62793 26.286694Q135.03418 25.239819 133.87793 25.239819Q132.95605 25.239819 132.4248 25.958569Q131.90918 26.661694 131.90918 28.083569ZM140.31543 31.692944L139.0498 31.692944L139.0498 21.192944L140.31543 21.192944L140.31543 31.692944ZM144.3623 29.833569L146.08105 24.302319L147.44043 24.302319L144.47168 32.83357Q143.78418 34.67732 142.26855 34.67732L142.03418 34.661694L141.56543 34.567944L141.56543 33.55232L141.90918 33.567944Q142.5498 33.567944 142.90918 33.30232Q143.26855 33.05232 143.50293 32.36482L143.78418 31.614819L141.14355 24.302319L142.51855 24.302319L144.3623 29.833569ZM151.64355 27.927319Q151.64355 26.224194 152.44043 25.192944Q153.25293 24.161694 154.5498 24.161694Q155.8623 24.161694 156.6123 25.052319L156.6123 21.192944L157.87793 21.192944L157.87793 31.692944L156.72168 31.692944L156.65918 30.896069Q155.89355 31.833569 154.5498 31.833569Q153.25293 31.833569 152.44043 30.786694Q151.64355 29.724194 151.64355 28.021069L151.64355 27.927319ZM152.90918 28.083569Q152.90918 29.333569 153.4248 30.052319Q153.94043 30.755444 154.8623 30.755444Q156.06543 30.755444 156.6123 29.677319L156.6123 26.271069Q156.0498 25.239819 154.87793 25.239819Q153.94043 25.239819 153.4248 25.958569Q152.90918 26.661694 152.90918 28.083569ZM161.31543 31.692944L160.0498 31.692944L160.0498 24.302319L161.31543 24.302319L161.31543 31.692944ZM159.95605 22.333569Q159.95605 22.021069 160.14355 21.817944Q160.33105 21.599194 160.69043 21.599194Q161.06543 21.599194 161.25293 21.817944Q161.45605 22.021069 161.45605 22.333569Q161.45605 22.646069 161.25293 22.849194Q161.06543 23.052319 160.69043 23.052319Q160.33105 23.052319 160.14355 22.849194Q159.95605 22.646069 159.95605 22.333569ZM167.25293 29.724194Q167.25293 29.224194 166.8623 28.942944Q166.47168 28.646069 165.51855 28.442944Q164.56543 28.239819 163.9873 27.958569Q163.4248 27.661694 163.15918 27.271069Q162.89355 26.880444 162.89355 26.333569Q162.89355 25.411694 163.65918 24.786694Q164.4248 24.161694 165.62793 24.161694Q166.87793 24.161694 167.65918 24.817944Q168.44043 25.458569 168.44043 26.474194L167.1748 26.474194Q167.1748 25.942944 166.7373 25.567944Q166.2998 25.192944 165.62793 25.192944Q164.94043 25.192944 164.5498 25.505444Q164.15918 25.802319 164.15918 26.286694Q164.15918 26.739819 164.51855 26.974194Q164.87793 27.208569 165.81543 27.427319Q166.76855 27.630444 167.3623 27.927319Q167.95605 28.224194 168.2373 28.646069Q168.51855 29.052319 168.51855 29.646069Q168.51855 30.630444 167.72168 31.239819Q166.9248 31.833569 165.65918 31.833569Q164.78418 31.833569 164.09668 31.521069Q163.40918 31.192944 163.01855 30.630444Q162.64355 30.067944 162.64355 29.411694L163.90918 29.411694Q163.94043 30.052319 164.40918 30.427319Q164.89355 30.802319 165.65918 30.802319Q166.37793 30.802319 166.81543 30.505444Q167.25293 30.208569 167.25293 29.724194ZM174.51855 31.692944Q174.40918 31.474194 174.33105 30.911694Q173.45605 31.833569 172.22168 31.833569Q171.12793 31.833569 170.4248 31.224194Q169.7373 30.599194 169.7373 29.646069Q169.7373 28.489819 170.6123 27.849194Q171.4873 27.208569 173.08105 27.208569L174.31543 27.208569L174.31543 26.630444Q174.31543 25.958569 173.90918 25.567944Q173.51855 25.177319 172.75293 25.177319Q172.06543 25.177319 171.6123 25.521069Q171.15918 25.864819 171.15918 26.349194L169.87793 26.349194Q169.87793 25.786694 170.26855 25.271069Q170.6748 24.755444 171.34668 24.458569Q172.01855 24.161694 172.81543 24.161694Q174.09668 24.161694 174.81543 24.802319Q175.5498 25.442944 175.58105 26.552319L175.58105 29.958569Q175.58105 30.974194 175.83105 31.583569L175.83105 31.692944L174.51855 31.692944ZM172.40918 30.724194Q173.00293 30.724194 173.53418 30.427319Q174.08105 30.114819 174.31543 29.614819L174.31543 28.099194L173.31543 28.099194Q171.00293 28.099194 171.00293 29.458569Q171.00293 30.052319 171.39355 30.396069Q171.78418 30.724194 172.40918 30.724194ZM177.64355 27.927319Q177.64355 26.208569 178.44043 25.192944Q179.2373 24.161694 180.56543 24.161694Q181.90918 24.161694 182.6748 25.114819L182.7373 24.302319L183.89355 24.302319L183.89355 31.521069Q183.89355 32.95857 183.03418 33.77107Q182.19043 34.599194 180.75293 34.599194Q179.95605 34.599194 179.19043 34.255444Q178.4248 33.92732 178.01855 33.33357L178.6748 32.567944Q179.4873 33.567944 180.65918 33.567944Q181.58105 33.567944 182.09668 33.05232Q182.62793 32.536694 182.62793 31.583569L182.62793 30.958569Q181.8623 31.833569 180.5498 31.833569Q179.25293 31.833569 178.44043 30.786694Q177.64355 29.739819 177.64355 27.927319ZM178.90918 28.083569Q178.90918 29.333569 179.4248 30.052319Q179.94043 30.755444 180.8623 30.755444Q182.06543 30.755444 182.62793 29.661694L182.62793 26.286694Q182.03418 25.239819 180.87793 25.239819Q179.95605 25.239819 179.4248 25.958569Q178.90918 26.661694 178.90918 28.083569ZM189.51855 25.427319Q189.2373 25.380444 188.89355 25.380444Q187.65918 25.380444 187.20605 26.442944L187.20605 31.692944L185.94043 31.692944L185.94043 24.302319L187.1748 24.302319L187.19043 25.146069Q187.81543 24.161694 188.95605 24.161694Q189.33105 24.161694 189.51855 24.255444L189.51855 25.427319ZM194.01855 31.833569Q192.50293 31.833569 191.56543 30.849194Q190.62793 29.849194 190.62793 28.192944L190.62793 27.974194Q190.62793 26.864819 191.0498 26.005444Q191.47168 25.130444 192.22168 24.646069Q192.97168 24.161694 193.8623 24.161694Q195.2998 24.161694 196.09668 25.114819Q196.89355 26.052319 196.89355 27.833569L196.89355 28.349194L191.89355 28.349194Q191.90918 29.442944 192.51855 30.130444Q193.14355 30.802319 194.08105 30.802319Q194.75293 30.802319 195.20605 30.536694Q195.6748 30.255444 196.03418 29.802319L196.7998 30.396069Q195.87793 31.833569 194.01855 31.833569ZM193.8623 25.192944Q193.09668 25.192944 192.56543 25.755444Q192.0498 26.317944 191.9248 27.317944L195.62793 27.317944L195.62793 27.224194Q195.58105 26.255444 195.1123 25.724194Q194.64355 25.192944 193.8623 25.192944ZM201.01855 31.833569Q199.50293 31.833569 198.56543 30.849194Q197.62793 29.849194 197.62793 28.192944L197.62793 27.974194Q197.62793 26.864819 198.0498 26.005444Q198.47168 25.130444 199.22168 24.646069Q199.97168 24.161694 200.8623 24.161694Q202.2998 24.161694 203.09668 25.114819Q203.89355 26.052319 203.89355 27.833569L203.89355 28.349194L198.89355 28.349194Q198.90918 29.442944 199.51855 30.130444Q200.14355 30.802319 201.08105 30.802319Q201.75293 30.802319 202.20605 30.536694Q202.6748 30.255444 203.03418 29.802319L203.7998 30.396069Q202.87793 31.833569 201.01855 31.833569ZM200.8623 25.192944Q200.09668 25.192944 199.56543 25.755444Q199.0498 26.317944 198.9248 27.317944L202.62793 27.317944L202.62793 27.224194Q202.58105 26.255444 202.1123 25.724194Q201.64355 25.192944 200.8623 25.192944Z" fill-rule="nonzero"/><path fill="#ffe599" d="M219.9873 22.192944C219.9873 21.64066 220.43501 21.192944 220.9873 21.192944L230.9873 21.192944C231.5396 21.192944 231.9873 21.64066 231.9873 22.192944L231.9873 32.192944C231.9873 32.745228 231.5396 33.192944 230.9873 33.192944L220.9873 33.192944C220.43501 33.192944 219.9873 32.745228 219.9873 32.192944Z" fill-rule="nonzero"/><path fill="#000000" d="M241.14355 31.692944L241.14355 21.739819L243.95605 21.739819Q245.25293 21.739819 246.25293 22.317944Q247.25293 22.880444 247.78418 23.942944Q248.33105 25.005444 248.34668 26.380444L248.34668 27.021069Q248.34668 28.427319 247.7998 29.489819Q247.25293 30.536694 246.2373 31.114819Q245.2373 31.677319 243.89355 31.692944L241.14355 31.692944ZM242.45605 22.817944L242.45605 30.614819L243.83105 30.614819Q245.34668 30.614819 246.19043 29.677319Q247.0498 28.739819 247.0498 26.989819L247.0498 26.411694Q247.0498 24.708569 246.25293 23.771069Q245.45605 22.833569 243.9873 22.817944L242.45605 22.817944ZM251.31543 31.692944L250.0498 31.692944L250.0498 24.302319L251.31543 24.302319L251.31543 31.692944ZM249.95605 22.333569Q249.95605 22.021069 250.14355 21.817944Q250.33105 21.599194 250.69043 21.599194Q251.06543 21.599194 251.25293 21.817944Q251.45605 22.021069 251.45605 22.333569Q251.45605 22.646069 251.25293 22.849194Q251.06543 23.052319 250.69043 23.052319Q250.33105 23.052319 250.14355 22.849194Q249.95605 22.646069 249.95605 22.333569ZM257.25293 29.724194Q257.25293 29.224194 256.8623 28.942944Q256.47168 28.646069 255.51855 28.442944Q254.56543 28.239819 253.9873 27.958569Q253.4248 27.661694 253.15918 27.271069Q252.89355 26.880444 252.89355 26.333569Q252.89355 25.411694 253.65918 24.786694Q254.4248 24.161694 255.62793 24.161694Q256.87793 24.161694 257.65918 24.817944Q258.44043 25.458569 258.44043 26.474194L257.1748 26.474194Q257.1748 25.942944 256.7373 25.567944Q256.2998 25.192944 255.62793 25.192944Q254.94043 25.192944 254.5498 25.505444Q254.15918 25.802319 254.15918 26.286694Q254.15918 26.739819 254.51855 26.974194Q254.87793 27.208569 255.81543 27.427319Q256.76855 27.630444 257.3623 27.927319Q257.95605 28.224194 258.2373 28.646069Q258.51855 29.052319 258.51855 29.646069Q258.51855 30.630444 257.72168 31.239819Q256.9248 31.833569 255.65918 31.833569Q254.78418 31.833569 254.09668 31.521069Q253.40918 31.192944 253.01855 30.630444Q252.64355 30.067944 252.64355 29.411694L253.90918 29.411694Q253.94043 30.052319 254.40918 30.427319Q254.89355 30.802319 255.65918 30.802319Q256.37793 30.802319 256.81543 30.505444Q257.25293 30.208569 257.25293 29.724194ZM264.51855 31.692944Q264.40918 31.474194 264.33105 30.911694Q263.45605 31.833569 262.22168 31.833569Q261.12793 31.833569 260.4248 31.224194Q259.7373 30.599194 259.7373 29.646069Q259.7373 28.489819 260.6123 27.849194Q261.4873 27.208569 263.08105 27.208569L264.31543 27.208569L264.31543 26.630444Q264.31543 25.958569 263.90918 25.567944Q263.51855 25.177319 262.75293 25.177319Q262.06543 25.177319 261.6123 25.521069Q261.15918 25.864819 261.15918 26.349194L259.87793 26.349194Q259.87793 25.786694 260.26855 25.271069Q260.6748 24.755444 261.34668 24.458569Q262.01855 24.161694 262.81543 24.161694Q264.09668 24.161694 264.81543 24.802319Q265.5498 25.442944 265.58105 26.552319L265.58105 29.958569Q265.58105 30.974194 265.83105 31.583569L265.83105 31.692944L264.51855 31.692944ZM262.40918 30.724194Q263.00293 30.724194 263.53418 30.427319Q264.08105 30.114819 264.31543 29.614819L264.31543 28.099194L263.31543 28.099194Q261.00293 28.099194 261.00293 29.458569Q261.00293 30.052319 261.39355 30.396069Q261.78418 30.724194 262.40918 30.724194ZM267.64355 27.927319Q267.64355 26.208569 268.44043 25.192944Q269.2373 24.161694 270.56543 24.161694Q271.90918 24.161694 272.6748 25.114819L272.7373 24.302319L273.89355 24.302319L273.89355 31.521069Q273.89355 32.95857 273.03418 33.77107Q272.19043 34.599194 270.75293 34.599194Q269.95605 34.599194 269.19043 34.255444Q268.4248 33.92732 268.01855 33.33357L268.6748 32.567944Q269.4873 33.567944 270.65918 33.567944Q271.58105 33.567944 272.09668 33.05232Q272.62793 32.536694 272.62793 31.583569L272.62793 30.958569Q271.8623 31.833569 270.5498 31.833569Q269.25293 31.833569 268.44043 30.786694Q267.64355 29.739819 267.64355 27.927319ZM268.90918 28.083569Q268.90918 29.333569 269.4248 30.052319Q269.94043 30.755444 270.8623 30.755444Q272.06543 30.755444 272.62793 29.661694L272.62793 26.286694Q272.03418 25.239819 270.87793 25.239819Q269.95605 25.239819 269.4248 25.958569Q268.90918 26.661694 268.90918 28.083569ZM279.51855 25.427319Q279.2373 25.380444 278.89355 25.380444Q277.65918 25.380444 277.20605 26.442944L277.20605 31.692944L275.94043 31.692944L275.94043 24.302319L277.1748 24.302319L277.19043 25.146069Q277.81543 24.161694 278.95605 24.161694Q279.33105 24.161694 279.51855 24.255444L279.51855 25.427319ZM284.01855 31.833569Q282.50293 31.833569 281.56543 30.849194Q280.62793 29.849194 280.62793 28.192944L280.62793 27.974194Q280.62793 26.864819 281.0498 26.005444Q281.47168 25.130444 282.22168 24.646069Q282.97168 24.161694 283.8623 24.161694Q285.2998 24.161694 286.09668 25.114819Q286.89355 26.052319 286.89355 27.833569L286.89355 28.349194L281.89355 28.349194Q281.90918 29.442944 282.51855 30.130444Q283.14355 30.802319 284.08105 30.802319Q284.75293 30.802319 285.20605 30.536694Q285.6748 30.255444 286.03418 29.802319L286.7998 30.396069Q285.87793 31.833569 284.01855 31.833569ZM283.8623 25.192944Q283.09668 25.192944 282.56543 25.755444Q282.0498 26.317944 281.9248 27.317944L285.62793 27.317944L285.62793 27.224194Q285.58105 26.255444 285.1123 25.724194Q284.64355 25.192944 283.8623 25.192944ZM291.01855 31.833569Q289.50293 31.833569 288.56543 30.849194Q287.62793 29.849194 287.62793 28.192944L287.62793 27.974194Q287.62793 26.864819 288.0498 26.005444Q288.47168 25.130444 289.22168 24.646069Q289.97168 24.161694 290.8623 24.161694Q292.2998 24.161694 293.09668 25.114819Q293.89355 26.052319 293.89355 27.833569L293.89355 28.349194L288.89355 28.349194Q288.90918 29.442944 289.51855 30.130444Q290.14355 30.802319 291.08105 30.802319Q291.75293 30.802319 292.20605 30.536694Q292.6748 30.255444 293.03418 29.802319L293.7998 30.396069Q292.87793 31.833569 291.01855 31.833569ZM290.8623 25.192944Q290.09668 25.192944 289.56543 25.755444Q289.0498 26.317944 288.9248 27.317944L292.62793 27.317944L292.62793 27.224194Q292.58105 26.255444 292.1123 25.724194Q291.64355 25.192944 290.8623 25.192944Z" fill-rule="nonzero"/><path fill="#f3f3f3" d="M309.9873 22.192944C309.9873 21.64066 310.43503 21.192944 310.9873 21.192944L320.9873 21.192944C321.53958 21.192944 321.9873 21.64066 321.9873 22.192944L321.9873 32.192944C321.9873 32.745228 321.53958 33.192944 320.9873 33.192944L310.9873 33.192944C310.43503 33.192944 309.9873 32.745228 309.9873 32.192944Z" fill-rule="nonzero"/><path fill="#000000" d="M338.7998 31.692944L337.47168 31.692944L332.45605 24.021069L332.45605 31.692944L331.14355 31.692944L331.14355 21.739819L332.45605 21.739819L337.4873 29.442944L337.4873 21.739819L338.7998 21.739819L338.7998 31.692944ZM344.01855 31.833569Q342.50293 31.833569 341.56543 30.849194Q340.62793 29.849194 340.62793 28.192944L340.62793 27.974194Q340.62793 26.864819 341.0498 26.005444Q341.47168 25.130444 342.22168 24.646069Q342.97168 24.161694 343.8623 24.161694Q345.2998 24.161694 346.09668 25.114819Q346.89355 26.052319 346.89355 27.833569L346.89355 28.349194L341.89355 28.349194Q341.90918 29.442944 342.51855 30.130444Q343.14355 30.802319 344.08105 30.802319Q344.75293 30.802319 345.20605 30.536694Q345.6748 30.255444 346.03418 29.802319L346.7998 30.396069Q345.87793 31.833569 344.01855 31.833569ZM343.8623 25.192944Q343.09668 25.192944 342.56543 25.755444Q342.0498 26.317944 341.9248 27.317944L345.62793 27.317944L345.62793 27.224194Q345.58105 26.255444 345.1123 25.724194Q344.64355 25.192944 343.8623 25.192944ZM352.51855 30.958569Q351.76855 31.833569 350.34668 31.833569Q349.15918 31.833569 348.53418 31.146069Q347.9248 30.458569 347.9248 29.114819L347.9248 24.302319L349.1748 24.302319L349.1748 29.067944Q349.1748 30.755444 350.5498 30.755444Q352.00293 30.755444 352.47168 29.677319L352.47168 24.302319L353.7373 24.302319L353.7373 31.692944L352.53418 31.692944L352.51855 30.958569ZM357.65918 22.505444L357.65918 24.302319L359.03418 24.302319L359.03418 25.271069L357.65918 25.271069L357.65918 29.864819Q357.65918 30.302319 357.84668 30.536694Q358.03418 30.755444 358.47168 30.755444Q358.69043 30.755444 359.08105 30.661694L359.08105 31.692944Q358.58105 31.833569 358.1123 31.833569Q357.25293 31.833569 356.81543 31.317944Q356.39355 30.802319 356.39355 29.864819L356.39355 25.271069L355.0498 25.271069L355.0498 24.302319L356.39355 24.302319L356.39355 22.505444L357.65918 22.505444ZM364.51855 25.427319Q364.2373 25.380444 363.89355 25.380444Q362.65918 25.380444 362.20605 26.442944L362.20605 31.692944L360.94043 31.692944L360.94043 24.302319L362.1748 24.302319L362.19043 25.146069Q362.81543 24.161694 363.95605 24.161694Q364.33105 24.161694 364.51855 24.255444L364.51855 25.427319ZM370.51855 31.692944Q370.40918 31.474194 370.33105 30.911694Q369.45605 31.833569 368.22168 31.833569Q367.12793 31.833569 366.4248 31.224194Q365.7373 30.599194 365.7373 29.646069Q365.7373 28.489819 366.6123 27.849194Q367.4873 27.208569 369.08105 27.208569L370.31543 27.208569L370.31543 26.630444Q370.31543 25.958569 369.90918 25.567944Q369.51855 25.177319 368.75293 25.177319Q368.06543 25.177319 367.6123 25.521069Q367.15918 25.864819 367.15918 26.349194L365.87793 26.349194Q365.87793 25.786694 366.26855 25.271069Q366.6748 24.755444 367.34668 24.458569Q368.01855 24.161694 368.81543 24.161694Q370.09668 24.161694 370.81543 24.802319Q371.5498 25.442944 371.58105 26.552319L371.58105 29.958569Q371.58105 30.974194 371.83105 31.583569L371.83105 31.692944L370.51855 31.692944ZM368.40918 30.724194Q369.00293 30.724194 369.53418 30.427319Q370.08105 30.114819 370.31543 29.614819L370.31543 28.099194L369.31543 28.099194Q367.00293 28.099194 367.00293 29.458569Q367.00293 30.052319 367.39355 30.396069Q367.78418 30.724194 368.40918 30.724194ZM375.31543 31.692944L374.0498 31.692944L374.0498 21.192944L375.31543 21.192944L375.31543 31.692944Z" fill-rule="nonzero"/><path fill="#b6d7a8" d="M391.9873 22.192944C391.9873 21.64066 392.43503 21.192944 392.9873 21.192944L402.9873 21.192944C403.53958 21.192944 403.9873 21.64066 403.9873 22.192944L403.9873 32.192944C403.9873 32.745228 403.53958 33.192944 402.9873 33.192944L392.9873 33.192944C392.43503 33.192944 391.9873 32.745228 391.9873 32.192944Z" fill-rule="nonzero"/><path fill="#000000" d="M418.64355 29.099194L414.47168 29.099194L413.53418 31.692944L412.1748 31.692944L415.9873 21.739819L417.12793 21.739819L420.94043 31.692944L419.59668 31.692944L418.64355 29.099194ZM414.8623 28.021069L418.25293 28.021069L416.5498 23.364819L414.8623 28.021069ZM421.64355 27.927319Q421.64355 26.208569 422.44043 25.192944Q423.2373 24.161694 424.56543 24.161694Q425.90918 24.161694 426.6748 25.114819L426.7373 24.302319L427.89355 24.302319L427.89355 31.521069Q427.89355 32.95857 427.03418 33.77107Q426.19043 34.599194 424.75293 34.599194Q423.95605 34.599194 423.19043 34.255444Q422.4248 33.92732 422.01855 33.33357L422.6748 32.567944Q423.4873 33.567944 424.65918 33.567944Q425.58105 33.567944 426.09668 33.05232Q426.62793 32.536694 426.62793 31.583569L426.62793 30.958569Q425.8623 31.833569 424.5498 31.833569Q423.25293 31.833569 422.44043 30.786694Q421.64355 29.739819 421.64355 27.927319ZM422.90918 28.083569Q422.90918 29.333569 423.4248 30.052319Q423.94043 30.755444 424.8623 30.755444Q426.06543 30.755444 426.62793 29.661694L426.62793 26.286694Q426.03418 25.239819 424.87793 25.239819Q423.95605 25.239819 423.4248 25.958569Q422.90918 26.661694 422.90918 28.083569ZM433.51855 25.427319Q433.2373 25.380444 432.89355 25.380444Q431.65918 25.380444 431.20605 26.442944L431.20605 31.692944L429.94043 31.692944L429.94043 24.302319L431.1748 24.302319L431.19043 25.146069Q431.81543 24.161694 432.95605 24.161694Q433.33105 24.161694 433.51855 24.255444L433.51855 25.427319ZM438.01855 31.833569Q436.50293 31.833569 435.56543 30.849194Q434.62793 29.849194 434.62793 28.192944L434.62793 27.974194Q434.62793 26.864819 435.0498 26.005444Q435.47168 25.130444 436.22168 24.646069Q436.97168 24.161694 437.8623 24.161694Q439.2998 24.161694 440.09668 25.114819Q440.89355 26.052319 440.89355 27.833569L440.89355 28.349194L435.89355 28.349194Q435.90918 29.442944 436.51855 30.130444Q437.14355 30.802319 438.08105 30.802319Q438.75293 30.802319 439.20605 30.536694Q439.6748 30.255444 440.03418 29.802319L440.7998 30.396069Q439.87793 31.833569 438.01855 31.833569ZM437.8623 25.192944Q437.09668 25.192944 436.56543 25.755444Q436.0498 26.317944 435.9248 27.317944L439.62793 27.317944L439.62793 27.224194Q439.58105 26.255444 439.1123 25.724194Q438.64355 25.192944 437.8623 25.192944ZM445.01855 31.833569Q443.50293 31.833569 442.56543 30.849194Q441.62793 29.849194 441.62793 28.192944L441.62793 27.974194Q441.62793 26.864819 442.0498 26.005444Q442.47168 25.130444 443.22168 24.646069Q443.97168 24.161694 444.8623 24.161694Q446.2998 24.161694 447.09668 25.114819Q447.89355 26.052319 447.89355 27.833569L447.89355 28.349194L442.89355 28.349194Q442.90918 29.442944 443.51855 30.130444Q444.14355 30.802319 445.08105 30.802319Q445.75293 30.802319 446.20605 30.536694Q446.6748 30.255444 447.03418 29.802319L447.7998 30.396069Q446.87793 31.833569 445.01855 31.833569ZM444.8623 25.192944Q444.09668 25.192944 443.56543 25.755444Q443.0498 26.317944 442.9248 27.317944L446.62793 27.317944L446.62793 27.224194Q446.58105 26.255444 446.1123 25.724194Q445.64355 25.192944 444.8623 25.192944Z" fill-rule="nonzero"/><path fill="#6aa84f" d="M463.9873 22.192944C463.9873 21.64066 464.43503 21.192944 464.9873 21.192944L474.9873 21.192944C475.53958 21.192944 475.9873 21.64066 475.9873 22.192944L475.9873 32.192944C475.9873 32.745228 475.53958 33.192944 474.9873 33.192944L464.9873 33.192944C464.43503 33.192944 463.9873 32.745228 463.9873 32.192944Z" fill-rule="nonzero"/><path fill="#000000" d="M488.08105 27.255444Q486.39355 26.771069 485.6123 26.067944Q484.84668 25.349194 484.84668 24.317944Q484.84668 23.146069 485.78418 22.380444Q486.72168 21.599194 488.2373 21.599194Q489.25293 21.599194 490.0498 22.005444Q490.8623 22.396069 491.2998 23.099194Q491.75293 23.786694 491.75293 24.614819L490.4248 24.614819Q490.4248 23.708569 489.84668 23.192944Q489.28418 22.677319 488.2373 22.677319Q487.26855 22.677319 486.72168 23.114819Q486.1748 23.536694 486.1748 24.302319Q486.1748 24.911694 486.69043 25.333569Q487.20605 25.739819 488.44043 26.099194Q489.69043 26.442944 490.39355 26.864819Q491.09668 27.286694 491.4248 27.849194Q491.76855 28.411694 491.76855 29.161694Q491.76855 30.380444 490.81543 31.114819Q489.87793 31.833569 488.2998 31.833569Q487.26855 31.833569 486.37793 31.442944Q485.50293 31.036694 485.01855 30.364819Q484.53418 29.677319 484.53418 28.802319L485.84668 28.802319Q485.84668 29.708569 486.51855 30.239819Q487.19043 30.755444 488.2998 30.755444Q489.34668 30.755444 489.89355 30.333569Q490.44043 29.911694 490.44043 29.177319Q490.44043 28.442944 489.9248 28.052319Q489.4248 27.646069 488.08105 27.255444ZM494.65918 22.505444L494.65918 24.302319L496.03418 24.302319L496.03418 25.271069L494.65918 25.271069L494.65918 29.864819Q494.65918 30.302319 494.84668 30.536694Q495.03418 30.755444 495.47168 30.755444Q495.69043 30.755444 496.08105 30.661694L496.08105 31.692944Q495.58105 31.833569 495.1123 31.833569Q494.25293 31.833569 493.81543 31.317944Q493.39355 30.802319 493.39355 29.864819L493.39355 25.271069L492.0498 25.271069L492.0498 24.302319L493.39355 24.302319L493.39355 22.505444L494.65918 22.505444ZM501.51855 25.427319Q501.2373 25.380444 500.89355 25.380444Q499.65918 25.380444 499.20605 26.442944L499.20605 31.692944L497.94043 31.692944L497.94043 24.302319L499.1748 24.302319L499.19043 25.146069Q499.81543 24.161694 500.95605 24.161694Q501.33105 24.161694 501.51855 24.255444L501.51855 25.427319ZM502.6123 27.927319Q502.6123 26.833569 503.03418 25.974194Q503.47168 25.099194 504.22168 24.630444Q504.9873 24.161694 505.97168 24.161694Q507.47168 24.161694 508.40918 25.208569Q509.34668 26.255444 509.34668 27.989819L509.34668 28.083569Q509.34668 29.161694 508.9248 30.021069Q508.51855 30.864819 507.7373 31.349194Q506.97168 31.833569 505.9873 31.833569Q504.47168 31.833569 503.53418 30.786694Q502.6123 29.739819 502.6123 28.021069L502.6123 27.927319ZM503.87793 28.083569Q503.87793 29.302319 504.44043 30.052319Q505.01855 30.802319 505.9873 30.802319Q506.94043 30.802319 507.50293 30.052319Q508.08105 29.286694 508.08105 27.927319Q508.08105 26.708569 507.50293 25.958569Q506.9248 25.192944 505.97168 25.192944Q505.03418 25.192944 504.45605 25.942944Q503.87793 26.692944 503.87793 28.083569ZM512.14355 24.302319L512.1748 25.224194Q513.0342 24.161694 514.39355 24.161694Q516.7373 24.161694 516.76855 26.802319L516.76855 31.692944L515.5029 31.692944L515.5029 26.802319Q515.4873 26.005444 515.1279 25.630444Q514.76855 25.239819 514.01855 25.239819Q513.39355 25.239819 512.9248 25.567944Q512.4717 25.896069 512.20605 26.427319L512.20605 31.692944L510.94043 31.692944L510.94043 24.302319L512.14355 24.302319ZM520.3154 31.692944L519.0498 31.692944L519.0498 21.192944L520.3154 21.192944L520.3154 31.692944ZM521.64355 27.927319Q521.64355 26.208569 522.4404 25.192944Q523.2373 24.161694 524.5654 24.161694Q525.9092 24.161694 526.6748 25.114819L526.7373 24.302319L527.89355 24.302319L527.89355 31.521069Q527.89355 32.95857 527.0342 33.77107Q526.1904 34.599194 524.7529 34.599194Q523.95605 34.599194 523.1904 34.255444Q522.4248 33.92732 522.01855 33.33357L522.6748 32.567944Q523.4873 33.567944 524.6592 33.567944Q525.58105 33.567944 526.0967 33.05232Q526.6279 32.536694 526.6279 31.583569L526.6279 30.958569Q525.8623 31.833569 524.5498 31.833569Q523.2529 31.833569 522.4404 30.786694Q521.64355 29.739819 521.64355 27.927319ZM522.9092 28.083569Q522.9092 29.333569 523.4248 30.052319Q523.9404 30.755444 524.8623 30.755444Q526.0654 30.755444 526.6279 29.661694L526.6279 26.286694Q526.0342 25.239819 524.8779 25.239819Q523.95605 25.239819 523.4248 25.958569Q522.9092 26.661694 522.9092 28.083569ZM532.3623 29.833569L534.08105 24.302319L535.4404 24.302319L532.4717 32.83357Q531.7842 34.67732 530.26855 34.67732L530.0342 34.661694L529.5654 34.567944L529.5654 33.55232L529.9092 33.567944Q530.5498 33.567944 530.9092 33.30232Q531.26855 33.05232 531.5029 32.36482L531.7842 31.614819L529.14355 24.302319L530.51855 24.302319L532.3623 29.833569ZM544.51855 31.692944Q544.4092 31.474194 544.33105 30.911694Q543.45605 31.833569 542.2217 31.833569Q541.1279 31.833569 540.4248 31.224194Q539.7373 30.599194 539.7373 29.646069Q539.7373 28.489819 540.6123 27.849194Q541.4873 27.208569 543.08105 27.208569L544.3154 27.208569L544.3154 26.630444Q544.3154 25.958569 543.9092 25.567944Q543.51855 25.177319 542.7529 25.177319Q542.0654 25.177319 541.6123 25.521069Q541.1592 25.864819 541.1592 26.349194L539.8779 26.349194Q539.8779 25.786694 540.26855 25.271069Q540.6748 24.755444 541.3467 24.458569Q542.01855 24.161694 542.8154 24.161694Q544.0967 24.161694 544.8154 24.802319Q545.5498 25.442944 545.58105 26.552319L545.58105 29.958569Q545.58105 30.974194 545.83105 31.583569L545.83105 31.692944L544.51855 31.692944ZM542.4092 30.724194Q543.0029 30.724194 543.5342 30.427319Q544.08105 30.114819 544.3154 29.614819L544.3154 28.099194L543.3154 28.099194Q541.0029 28.099194 541.0029 29.458569Q541.0029 30.052319 541.39355 30.396069Q541.7842 30.724194 542.4092 30.724194ZM547.64355 27.927319Q547.64355 26.208569 548.4404 25.192944Q549.2373 24.161694 550.5654 24.161694Q551.9092 24.161694 552.6748 25.114819L552.7373 24.302319L553.89355 24.302319L553.89355 31.521069Q553.89355 32.95857 553.0342 33.77107Q552.1904 34.599194 550.7529 34.599194Q549.95605 34.599194 549.1904 34.255444Q548.4248 33.92732 548.01855 33.33357L548.6748 32.567944Q549.4873 33.567944 550.6592 33.567944Q551.58105 33.567944 552.0967 33.05232Q552.6279 32.536694 552.6279 31.583569L552.6279 30.958569Q551.8623 31.833569 550.5498 31.833569Q549.2529 31.833569 548.4404 30.786694Q547.64355 29.739819 547.64355 27.927319ZM548.9092 28.083569Q548.9092 29.333569 549.4248 30.052319Q549.9404 30.755444 550.8623 30.755444Q552.0654 30.755444 552.6279 29.661694L552.6279 26.286694Q552.0342 25.239819 550.8779 25.239819Q549.95605 25.239819 549.4248 25.958569Q548.9092 26.661694 548.9092 28.083569ZM559.51855 25.427319Q559.2373 25.380444 558.89355 25.380444Q557.6592 25.380444 557.20605 26.442944L557.20605 31.692944L555.9404 31.692944L555.9404 24.302319L557.1748 24.302319L557.1904 25.146069Q557.8154 24.161694 558.95605 24.161694Q559.33105 24.161694 559.51855 24.255444L559.51855 25.427319ZM564.01855 31.833569Q562.5029 31.833569 561.5654 30.849194Q560.6279 29.849194 560.6279 28.192944L560.6279 27.974194Q560.6279 26.864819 561.0498 26.005444Q561.4717 25.130444 562.2217 24.646069Q562.9717 24.161694 563.8623 24.161694Q565.2998 24.161694 566.0967 25.114819Q566.89355 26.052319 566.89355 27.833569L566.89355 28.349194L561.89355 28.349194Q561.9092 29.442944 562.51855 30.130444Q563.14355 30.802319 564.08105 30.802319Q564.7529 30.802319 565.20605 30.536694Q565.6748 30.255444 566.0342 29.802319L566.7998 30.396069Q565.8779 31.833569 564.01855 31.833569ZM563.8623 25.192944Q563.0967 25.192944 562.5654 25.755444Q562.0498 26.317944 561.9248 27.317944L565.6279 27.317944L565.6279 27.224194Q565.58105 26.255444 565.1123 25.724194Q564.64355 25.192944 563.8623 25.192944ZM571.01855 31.833569Q569.5029 31.833569 568.5654 30.849194Q567.6279 29.849194 567.6279 28.192944L567.6279 27.974194Q567.6279 26.864819 568.0498 26.005444Q568.4717 25.130444 569.2217 24.646069Q569.9717 24.161694 570.8623 24.161694Q572.2998 24.161694 573.0967 25.114819Q573.89355 26.052319 573.89355 27.833569L573.89355 28.349194L568.89355 28.349194Q568.9092 29.442944 569.51855 30.130444Q570.14355 30.802319 571.08105 30.802319Q571.7529 30.802319 572.20605 30.536694Q572.6748 30.255444 573.0342 29.802319L573.7998 30.396069Q572.8779 31.833569 571.01855 31.833569ZM570.8623 25.192944Q570.0967 25.192944 569.5654 25.755444Q569.0498 26.317944 568.9248 27.317944L572.6279 27.317944L572.6279 27.224194Q572.58105 26.255444 572.1123 25.724194Q571.64355 25.192944 570.8623 25.192944Z" fill-rule="nonzero"/></svg>