<svg version="1.1" viewBox="0.0 0.0 671.0 371.0" fill="none" stroke="none" stroke-linecap="square" stroke-miterlimit="10" width="671" height="371" xmlns:xlink="http://www.w3.org/1999/xlink" xmlns="http://www.w3.org/2000/svg"><path fill="#ffffff" d="M0 0L671.0 0L671.0 371.0L0 371.0L0 0Z" fill-rule="nonzero"/><path stroke="#333333" stroke-width="1.0" stroke-linecap="butt" d="M105.5 47.5L105.5 328.5" fill-rule="nonzero"/><path stroke="#000000" stroke-width="1.0" stroke-linecap="butt" d="M242.5 47.5L242.5 328.5" fill-rule="nonzero"/><path stroke="#000000" stroke-width="1.0" stroke-linecap="butt" d="M379.5 47.5L379.5 328.5" fill-rule="nonzero"/><path stroke="#000000" stroke-width="1.0" stroke-linecap="butt" d="M515.5 47.5L515.5 328.5" fill-rule="nonzero"/><path stroke="#000000" stroke-width="1.0" stroke-linecap="butt" d="M652.5 47.5L652.5 328.5" fill-rule="nonzero"/><clipPath id="id_0"><path d="M105.55 47.916668L652.45 47.916668L652.45 328.45L105.55 328.45L105.55 47.916668Z" clip-rule="nonzero"/></clipPath><path stroke="#000000" stroke-width="0.0" stroke-linecap="butt" stroke-opacity="0.0" clip-path="url(#id_0)" d="M106.0 167.0L106.0 89.0L208.0 89.0L208.0 167.0Z" fill-rule="nonzero"/><path fill="#f1c232" clip-path="url(#id_0)" d="M106.0 167.0L106.0 89.0L208.0 89.0L208.0 167.0Z" fill-rule="nonzero"/><path stroke="#000000" stroke-width="0.0" stroke-linecap="butt" stroke-opacity="0.0" clip-path="url(#id_0)" d="M106.0 287.0L106.0 209.0L165.0 209.0L165.0 287.0Z" fill-rule="nonzero"/><path fill="#f1c232" clip-path="url(#id_0)" d="M106.0 287.0L106.0 209.0L165.0 209.0L165.0 287.0Z" fill-rule="nonzero"/><path stroke="#000000" stroke-width="0.0" stroke-linecap="butt" stroke-opacity="0.0" clip-path="url(#id_0)" d="M208.0 167.0L208.0 89.0L310.0 89.0L310.0 167.0Z" fill-rule="nonzero"/><path fill="#ffe599" clip-path="url(#id_0)" d="M208.0 167.0L208.0 89.0L310.0 89.0L310.0 167.0Z" fill-rule="nonzero"/><path stroke="#000000" stroke-width="0.0" stroke-linecap="butt" stroke-opacity="0.0" clip-path="url(#id_0)" d="M165.0 287.0L165.0 209.0L278.0 209.0L278.0 287.0Z" fill-rule="nonzero"/><path fill="#ffe599" clip-path="url(#id_0)" d="M165.0 287.0L165.0 209.0L278.0 209.0L278.0 287.0Z" fill-rule="nonzero"/><path stroke="#000000" stroke-width="0.0" stroke-linecap="butt" stroke-opacity="0.0" clip-path="url(#id_0)" d="M310.0 167.0L310.0 89.0L388.0 89.0L388.0 167.0Z" fill-rule="nonzero"/><path fill="#f3f3f3" clip-path="url(#id_0)" d="M310.0 167.0L310.0 89.0L388.0 89.0L388.0 167.0Z" fill-rule="nonzero"/><path stroke="#000000" stroke-width="0.0" stroke-linecap="butt" stroke-opacity="0.0" clip-path="url(#id_0)" d="M278.0 287.0L278.0 209.0L396.0 209.0L396.0 287.0Z" fill-rule="nonzero"/><path fill="#f3f3f3" clip-path="url(#id_0)" d="M278.0 287.0L278.0 209.0L396.0 209.0L396.0 287.0Z" fill-rule="nonzero"/><path stroke="#000000" stroke-width="0.0" stroke-linecap="butt" stroke-opacity="0.0" clip-path="url(#id_0)" d="M388.0 167.0L388.0 89.0L598.0 89.0L598.0 167.0Z" fill-rule="nonzero"/><path fill="#b6d7a8" clip-path="url(#id_0)" d="M388.0 167.0L388.0 89.0L598.0 89.0L598.0 167.0Z" fill-rule="nonzero"/><path stroke="#000000" stroke-width="0.0" stroke-linecap="butt" stroke-opacity="0.0" clip-path="url(#id_0)" d="M396.0 287.0L396.0 209.0L628.0 209.0L628.0 287.0Z" fill-rule="nonzero"/><path fill="#b6d7a8" clip-path="url(#id_0)" d="M396.0 287.0L396.0 209.0L628.0 209.0L628.0 287.0Z" fill-rule="nonzero"/><path stroke="#000000" stroke-width="0.0" stroke-linecap="butt" stroke-opacity="0.0" clip-path="url(#id_0)" d="M598.0 167.0L598.0 89.0L650.0 89.0C651.10455 89.0 652.0 89.89543 652.0 91.0L652.0 165.0C652.0 166.10457 651.10455 167.0 650.0 167.0Z" fill-rule="nonzero"/><path fill="#6aa84f" clip-path="url(#id_0)" d="M598.0 167.0L598.0 89.0L650.0 89.0C651.10455 89.0 652.0 89.89543 652.0 91.0L652.0 165.0C652.0 166.10457 651.10455 167.0 650.0 167.0Z" fill-rule="nonzero"/><path stroke="#000000" stroke-width="0.0" stroke-linecap="butt" stroke-opacity="0.0" clip-path="url(#id_0)" d="M628.0 287.0L628.0 209.0L650.0 209.0C651.10455 209.0 652.0 209.89543 652.0 211.0L652.0 285.0C652.0 286.10458 651.10455 287.0 650.0 287.0Z" fill-rule="nonzero"/><path fill="#6aa84f" clip-path="url(#id_0)" d="M628.0 287.0L628.0 209.0L650.0 209.0C651.10455 209.0 652.0 209.89543 652.0 211.0L652.0 285.0C652.0 286.10458 651.10455 287.0 650.0 287.0Z" fill-rule="nonzero"/><path fill="#000000" d="M28.05 131.68289Q27.55 132.41727 26.64375 132.77664Q25.7375 133.13602 24.534374 133.13602Q23.315624 133.13602 22.3625 132.57352Q21.425 131.99539 20.909374 130.94852Q20.39375 129.88602 20.378124 128.49539L20.378124 127.63602Q20.378124 125.38602 21.425 124.15164Q22.4875 122.90164 24.378124 122.90164Q25.940624 122.90164 26.89375 123.69852Q27.846874 124.49539 28.05 125.96414L26.7375 125.96414Q26.378124 123.97977 24.39375 123.97977Q23.065624 123.97977 22.378124 124.91727Q21.70625 125.83914 21.70625 127.58914L21.70625 128.40164Q21.70625 130.08914 22.471874 131.07352Q23.2375 132.05789 24.534374 132.05789Q25.284374 132.05789 25.83125 131.90164Q26.39375 131.72977 26.753124 131.33914L26.753124 129.10477L24.440624 129.10477L24.440624 128.04227L28.05 128.04227L28.05 131.68289ZM31.878124 132.99539L30.6125 132.99539L30.6125 122.49539L31.878124 122.49539L31.878124 132.99539ZM33.175 129.22977Q33.175 128.13602 33.596874 127.27664Q34.034374 126.40164 34.784374 125.93289Q35.55 125.46414 36.534374 125.46414Q38.034374 125.46414 38.971874 126.51102Q39.909374 127.55789 39.909374 129.29227L39.909374 129.38602Q39.909374 130.46414 39.4875 131.32352Q39.08125 132.16727 38.3 132.65164Q37.534374 133.13602 36.55 133.13602Q35.034374 133.13602 34.096874 132.08914Q33.175 131.04227 33.175 129.32352L33.175 129.22977ZM34.440624 129.38602Q34.440624 130.60477 35.003124 131.35477Q35.58125 132.10477 36.55 132.10477Q37.503124 132.10477 38.065624 131.35477Q38.64375 130.58914 38.64375 129.22977Q38.64375 128.01102 38.065624 127.26102Q37.4875 126.49539 36.534374 126.49539Q35.596874 126.49539 35.01875 127.24539Q34.440624 127.99539 34.440624 129.38602ZM47.76875 129.38602Q47.76875 131.07352 46.9875 132.10477Q46.20625 133.13602 44.89375 133.13602Q43.503124 133.13602 42.7375 132.13602L42.675 132.99539L41.503124 132.99539L41.503124 122.49539L42.76875 122.49539L42.76875 126.41727Q43.534374 125.46414 44.878124 125.46414Q46.2375 125.46414 47.003124 126.47977Q47.76875 127.49539 47.76875 129.27664L47.76875 129.38602ZM46.503124 129.22977Q46.503124 127.94852 46.003124 127.24539Q45.503124 126.54227 44.565624 126.54227Q43.315624 126.54227 42.76875 127.69852L42.76875 130.90164Q43.346874 132.05789 44.58125 132.05789Q45.4875 132.05789 45.9875 131.35477Q46.503124 130.65164 46.503124 129.22977ZM54.08125 132.99539Q53.971874 132.77664 53.89375 132.21414Q53.01875 133.13602 51.784374 133.13602Q50.690624 133.13602 49.9875 132.52664Q49.3 131.90164 49.3 130.94852Q49.3 129.79227 50.175 129.15164Q51.05 128.51102 52.64375 128.51102L53.878124 128.51102L53.878124 127.93289Q53.878124 127.26102 53.471874 126.87039Q53.08125 126.47977 52.315624 126.47977Q51.628124 126.47977 51.175 126.82352Q50.721874 127.16727 50.721874 127.65164L49.440624 127.65164Q49.440624 127.08914 49.83125 126.57352Q50.2375 126.05789 50.909374 125.76102Q51.58125 125.46414 52.378124 125.46414Q53.659374 125.46414 54.378124 126.10477Q55.1125 126.74539 55.14375 127.85477L55.14375 131.26102Q55.14375 132.27664 55.39375 132.88602L55.39375 132.99539L54.08125 132.99539ZM51.971874 132.02664Q52.565624 132.02664 53.096874 131.72977Q53.64375 131.41727 53.878124 130.91727L53.878124 129.40164L52.878124 129.40164Q50.565624 129.40164 50.565624 130.76102Q50.565624 131.35477 50.95625 131.69852Q51.346874 132.02664 51.971874 132.02664ZM58.878124 132.99539L57.6125 132.99539L57.6125 122.49539L58.878124 122.49539L58.878124 132.99539ZM71.3625 132.99539L70.03438 132.99539L65.01875 125.32352L65.01875 132.99539L63.70625 132.99539L63.70625 123.04227L65.01875 123.04227L70.05 130.74539L70.05 123.04227L71.3625 123.04227L71.3625 132.99539ZM73.175 129.22977Q73.175 128.13602 73.59688 127.27664Q74.03438 126.40164 74.78438 125.93289Q75.55 125.46414 76.53438 125.46414Q78.03438 125.46414 78.97188 126.51102Q79.90938 127.55789 79.90938 129.29227L79.90938 129.38602Q79.90938 130.46414 79.4875 131.32352Q79.08125 132.16727 78.3 132.65164Q77.53438 133.13602 76.55 133.13602Q75.03438 133.13602 74.09688 132.08914Q73.175 131.04227 73.175 129.32352L73.175 129.22977ZM74.44063 129.38602Q74.44063 130.60477 75.00313 131.35477Q75.58125 132.10477 76.55 132.10477Q77.50313 132.10477 78.06563 131.35477Q78.64375 130.58914 78.64375 129.22977Q78.64375 128.01102 78.06563 127.26102Q77.4875 126.49539 76.53438 126.49539Q75.59688 126.49539 75.01875 127.24539Q74.44063 127.99539 74.44063 129.38602ZM85.08125 126.72977Q84.8 126.68289 84.45625 126.68289Q83.22188 126.68289 82.76875 127.74539L82.76875 132.99539L81.50313 132.99539L81.50313 125.60477L82.7375 125.60477L82.75313 126.44852Q83.37813 125.46414 84.51875 125.46414Q84.89375 125.46414 85.08125 125.55789L85.08125 126.72977ZM88.22188 123.80789L88.22188 125.60477L89.59688 125.60477L89.59688 126.57352L88.22188 126.57352L88.22188 131.16727Q88.22188 131.60477 88.40938 131.83914Q88.59688 132.05789 89.03438 132.05789Q89.25313 132.05789 89.64375 131.96414L89.64375 132.99539Q89.14375 133.13602 88.675 133.13602Q87.81563 133.13602 87.37813 132.62039Q86.95625 132.10477 86.95625 131.16727L86.95625 126.57352L85.6125 126.57352L85.6125 125.60477L86.95625 125.60477L86.95625 123.80789L88.22188 123.80789ZM92.76875 126.49539Q93.6125 125.46414 94.95625 125.46414Q97.3 125.46414 97.33125 128.10477L97.33125 132.99539L96.06563 132.99539L96.06563 128.10477Q96.05 127.30789 95.69063 126.93289Q95.33125 126.54227 94.58125 126.54227Q93.95625 126.54227 93.4875 126.87039Q93.03438 127.19852 92.76875 127.72977L92.76875 132.99539L91.50313 132.99539L91.50313 122.49539L92.76875 122.49539L92.76875 126.49539Z" fill-rule="nonzero"/><path fill="#000000" d="M27.05 251.05878Q26.55 251.79315 25.64375 252.15253Q24.7375 252.5119 23.534374 252.5119Q22.315624 252.5119 21.3625 251.9494Q20.425 251.37128 19.909374 250.3244Q19.39375 249.2619 19.378124 247.87128L19.378124 247.0119Q19.378124 244.7619 20.425 243.52753Q21.4875 242.27753 23.378124 242.27753Q24.940624 242.27753 25.89375 243.0744Q26.846874 243.87128 27.05 245.34003L25.7375 245.34003Q25.378124 243.35565 23.39375 243.35565Q22.065624 243.35565 21.378124 244.29315Q20.70625 245.21503 20.70625 246.96503L20.70625 247.77753Q20.70625 249.46503 21.471874 250.4494Q22.2375 251.43378 23.534374 251.43378Q24.284374 251.43378 24.83125 251.27753Q25.39375 251.10565 25.753124 250.71503L25.753124 248.48065L23.440624 248.48065L23.440624 247.41815L27.05 247.41815L27.05 251.05878ZM30.878124 252.37128L29.6125 252.37128L29.6125 241.87128L30.878124 241.87128L30.878124 252.37128ZM32.175 248.60565Q32.175 247.5119 32.596874 246.65253Q33.034374 245.77753 33.784374 245.30878Q34.55 244.84003 35.534374 244.84003Q37.034374 244.84003 37.971874 245.8869Q38.909374 246.93378 38.909374 248.66815L38.909374 248.7619Q38.909374 249.84003 38.4875 250.6994Q38.08125 251.54315 37.3 252.02753Q36.534374 252.5119 35.55 252.5119Q34.034374 252.5119 33.096874 251.46503Q32.175 250.41815 32.175 248.6994L32.175 248.60565ZM33.440624 248.7619Q33.440624 249.98065 34.003124 250.73065Q34.58125 251.48065 35.55 251.48065Q36.503124 251.48065 37.065624 250.73065Q37.64375 249.96503 37.64375 248.60565Q37.64375 247.3869 37.065624 246.6369Q36.4875 245.87128 35.534374 245.87128Q34.596874 245.87128 34.01875 246.62128Q33.440624 247.37128 33.440624 248.7619ZM46.76875 248.7619Q46.76875 250.4494 45.9875 251.48065Q45.20625 252.5119 43.89375 252.5119Q42.503124 252.5119 41.7375 251.5119L41.675 252.37128L40.503124 252.37128L40.503124 241.87128L41.76875 241.87128L41.76875 245.79315Q42.534374 244.84003 43.878124 244.84003Q45.2375 244.84003 46.003124 245.85565Q46.76875 246.87128 46.76875 248.65253L46.76875 248.7619ZM45.503124 248.60565Q45.503124 247.3244 45.003124 246.62128Q44.503124 245.91815 43.565624 245.91815Q42.315624 245.91815 41.76875 247.0744L41.76875 250.27753Q42.346874 251.43378 43.58125 251.43378Q44.4875 251.43378 44.9875 250.73065Q45.503124 250.02753 45.503124 248.60565ZM53.08125 252.37128Q52.971874 252.15253 52.89375 251.59003Q52.01875 252.5119 50.784374 252.5119Q49.690624 252.5119 48.9875 251.90253Q48.3 251.27753 48.3 250.3244Q48.3 249.16815 49.175 248.52753Q50.05 247.8869 51.64375 247.8869L52.878124 247.8869L52.878124 247.30878Q52.878124 246.6369 52.471874 246.24628Q52.08125 245.85565 51.315624 245.85565Q50.628124 245.85565 50.175 246.1994Q49.721874 246.54315 49.721874 247.02753L48.440624 247.02753Q48.440624 246.46503 48.83125 245.9494Q49.2375 245.43378 49.909374 245.1369Q50.58125 244.84003 51.378124 244.84003Q52.659374 244.84003 53.378124 245.48065Q54.1125 246.12128 54.14375 247.23065L54.14375 250.6369Q54.14375 251.65253 54.39375 252.2619L54.39375 252.37128L53.08125 252.37128ZM50.971874 251.40253Q51.565624 251.40253 52.096874 251.10565Q52.64375 250.79315 52.878124 250.29315L52.878124 248.77753L51.878124 248.77753Q49.565624 248.77753 49.565624 250.1369Q49.565624 250.73065 49.95625 251.0744Q50.346874 251.40253 50.971874 251.40253ZM57.878124 252.37128L56.6125 252.37128L56.6125 241.87128L57.878124 241.87128L57.878124 252.37128ZM65.64375 247.93378Q63.95625 247.4494 63.175 246.74628Q62.409374 246.02753 62.409374 244.99628Q62.409374 243.8244 63.346874 243.05878Q64.28438 242.27753 65.8 242.27753Q66.81563 242.27753 67.6125 242.68378Q68.425 243.0744 68.8625 243.77753Q69.31563 244.46503 69.31563 245.29315L67.9875 245.29315Q67.9875 244.3869 67.40938 243.87128Q66.84688 243.35565 65.8 243.35565Q64.83125 243.35565 64.28438 243.79315Q63.7375 244.21503 63.7375 244.98065Q63.7375 245.59003 64.25313 246.0119Q64.76875 246.41815 66.00313 246.77753Q67.25313 247.12128 67.95625 247.54315Q68.65938 247.96503 68.9875 248.52753Q69.33125 249.09003 69.33125 249.84003Q69.33125 251.05878 68.37813 251.79315Q67.44063 252.5119 65.8625 252.5119Q64.83125 252.5119 63.940624 252.12128Q63.065624 251.71503 62.58125 251.04315Q62.096874 250.35565 62.096874 249.48065L63.409374 249.48065Q63.409374 250.3869 64.08125 250.91815Q64.75313 251.43378 65.8625 251.43378Q66.90938 251.43378 67.45625 251.0119Q68.00313 250.59003 68.00313 249.85565Q68.00313 249.12128 67.4875 248.73065Q66.9875 248.3244 65.64375 247.93378ZM70.175 248.60565Q70.175 247.5119 70.59688 246.65253Q71.03438 245.77753 71.78438 245.30878Q72.55 244.84003 73.53438 244.84003Q75.03438 244.84003 75.97188 245.8869Q76.90938 246.93378 76.90938 248.66815L76.90938 248.7619Q76.90938 249.84003 76.4875 250.6994Q76.08125 251.54315 75.3 252.02753Q74.53438 252.5119 73.55 252.5119Q72.03438 252.5119 71.09688 251.46503Q70.175 250.41815 70.175 248.6994L70.175 248.60565ZM71.44063 248.7619Q71.44063 249.98065 72.00313 250.73065Q72.58125 251.48065 73.55 251.48065Q74.50313 251.48065 75.06563 250.73065Q75.64375 249.96503 75.64375 248.60565Q75.64375 247.3869 75.06563 246.6369Q74.4875 245.87128 73.53438 245.87128Q72.59688 245.87128 72.01875 246.62128Q71.44063 247.37128 71.44063 248.7619ZM83.08125 251.6369Q82.33125 252.5119 80.90938 252.5119Q79.72188 252.5119 79.09688 251.8244Q78.4875 251.1369 78.4875 249.79315L78.4875 244.98065L79.7375 244.98065L79.7375 249.74628Q79.7375 251.43378 81.1125 251.43378Q82.56563 251.43378 83.03438 250.35565L83.03438 244.98065L84.3 244.98065L84.3 252.37128L83.09688 252.37128L83.08125 251.6369ZM88.22188 243.18378L88.22188 244.98065L89.59688 244.98065L89.59688 245.9494L88.22188 245.9494L88.22188 250.54315Q88.22188 250.98065 88.40938 251.21503Q88.59688 251.43378 89.03438 251.43378Q89.25313 251.43378 89.64375 251.34003L89.64375 252.37128Q89.14375 252.5119 88.675 252.5119Q87.81563 252.5119 87.37813 251.99628Q86.95625 251.48065 86.95625 250.54315L86.95625 245.9494L85.6125 245.9494L85.6125 244.98065L86.95625 244.98065L86.95625 243.18378L88.22188 243.18378ZM92.76875 245.87128Q93.6125 244.84003 94.95625 244.84003Q97.3 244.84003 97.33125 247.48065L97.33125 252.37128L96.06563 252.37128L96.06563 247.48065Q96.05 246.68378 95.69063 246.30878Q95.33125 245.91815 94.58125 245.91815Q93.95625 245.91815 93.4875 246.24628Q93.03438 246.5744 92.76875 247.10565L92.76875 252.37128L91.50313 252.37128L91.50313 241.87128L92.76875 241.87128L92.76875 245.87128Z" fill-rule="nonzero"/><path fill="#000000" d="M103.6125 344.2Q103.6125 346.41876 102.84688 347.5125Q102.09688 348.59064 100.4875 348.59064Q98.89375 348.59064 98.12813 347.54376Q97.3625 346.48126 97.33125 344.3719L97.33125 342.6844Q97.33125 340.4969 98.08125 339.4344Q98.84688 338.35626 100.47188 338.35626Q102.08125 338.35626 102.83125 339.3875Q103.59688 340.41876 103.6125 342.5594L103.6125 344.2ZM102.34688 342.48126Q102.34688 340.8719 101.89375 340.1375Q101.45625 339.40314 100.47188 339.40314Q99.50313 339.40314 99.05 340.1375Q98.6125 340.85626 98.59688 342.3719L98.59688 344.40314Q98.59688 346.0125 99.06563 346.79376Q99.53438 347.5594 100.4875 347.5594Q101.425 347.5594 101.87813 346.84064Q102.33125 346.10626 102.34688 344.54376L102.34688 342.48126ZM105.26875 340.40314Q105.26875 339.5125 105.83125 338.9344Q106.40938 338.35626 107.3 338.35626Q108.22188 338.35626 108.78438 338.95Q109.34688 339.52814 109.34688 340.45L109.34688 340.9344Q109.34688 341.84064 108.76875 342.41876Q108.20625 342.98126 107.31563 342.98126Q106.425 342.98126 105.84688 342.41876Q105.26875 341.84064 105.26875 340.8875L105.26875 340.40314ZM106.20625 340.9344Q106.20625 341.46564 106.50313 341.8094Q106.81563 342.15314 107.31563 342.15314Q107.8 342.15314 108.09688 341.825Q108.39375 341.4969 108.39375 340.90314L108.39375 340.40314Q108.39375 339.8719 108.09688 339.52814Q107.81563 339.1844 107.3 339.1844Q106.8 339.1844 106.50313 339.52814Q106.20625 339.8719 106.20625 340.4344L106.20625 340.9344ZM110.1125 346.0125Q110.1125 345.10626 110.675 344.54376Q111.25313 343.96564 112.14375 343.96564Q113.05 343.96564 113.6125 344.54376Q114.19063 345.10626 114.19063 346.0594L114.19063 346.54376Q114.19063 347.4344 113.6125 348.0125Q113.05 348.59064 112.15938 348.59064Q111.28438 348.59064 110.69063 348.02814Q110.1125 347.45 110.1125 346.4969L110.1125 346.0125ZM111.06563 346.54376Q111.06563 347.075 111.3625 347.4344Q111.65938 347.77814 112.15938 347.77814Q112.65938 347.77814 112.95625 347.4344Q113.25313 347.09064 113.25313 346.5125L113.25313 346.0125Q113.25313 345.46564 112.94063 345.1219Q112.64375 344.77814 112.15938 344.77814Q111.65938 344.77814 111.3625 345.1219Q111.06563 345.46564 111.06563 346.04376L111.06563 346.54376ZM107.6125 347.7L106.89375 347.2469L111.75313 339.46564L112.47188 339.91876L107.6125 347.7Z" fill-rule="nonzero"/><path fill="#000000" d="M236.61874 348.45L230.10312 348.45L230.10312 347.54376L233.54062 343.71564Q234.30624 342.84064 234.60312 342.3094Q234.9 341.7625 234.9 341.16876Q234.9 340.40314 234.41562 339.90314Q233.94687 339.40314 233.16562 339.40314Q232.22812 339.40314 231.69687 339.9344Q231.18124 340.46564 231.18124 341.4344L229.91562 341.4344Q229.91562 340.0594 230.79062 339.21564Q231.68124 338.35626 233.16562 338.35626Q234.55624 338.35626 235.35312 339.09064Q236.16562 339.8094 236.16562 341.02814Q236.16562 342.4969 234.29062 344.52814L231.63437 347.41876L236.61874 347.41876L236.61874 348.45ZM238.68124 343.46564L239.19687 338.4969L244.29062 338.4969L244.29062 339.66876L240.25937 339.66876L239.9625 342.3719Q240.69687 341.95 241.61874 341.95Q242.97812 341.95 243.775 342.85626Q244.5875 343.7469 244.5875 345.27814Q244.5875 346.8094 243.74374 347.7Q242.91562 348.59064 241.43124 348.59064Q240.11874 348.59064 239.275 347.85626Q238.44687 347.1219 238.32187 345.825L239.525 345.825Q239.63437 346.6844 240.11874 347.1219Q240.61874 347.5594 241.43124 347.5594Q242.30624 347.5594 242.80624 346.96564Q243.32187 346.35626 243.32187 345.29376Q243.32187 344.29376 242.775 343.7Q242.22812 343.09064 241.32187 343.09064Q240.50937 343.09064 240.025 343.45L239.69687 343.71564L238.68124 343.46564ZM245.99374 340.40314Q245.99374 339.5125 246.55624 338.9344Q247.13437 338.35626 248.025 338.35626Q248.94687 338.35626 249.50937 338.95Q250.07187 339.52814 250.07187 340.45L250.07187 340.9344Q250.07187 341.84064 249.49374 342.41876Q248.93124 342.98126 248.04062 342.98126Q247.15 342.98126 246.57187 342.41876Q245.99374 341.84064 245.99374 340.8875L245.99374 340.40314ZM246.93124 340.9344Q246.93124 341.46564 247.22812 341.8094Q247.54062 342.15314 248.04062 342.15314Q248.525 342.15314 248.82187 341.825Q249.11874 341.4969 249.11874 340.90314L249.11874 340.40314Q249.11874 339.8719 248.82187 339.52814Q248.54062 339.1844 248.025 339.1844Q247.525 339.1844 247.22812 339.52814Q246.93124 339.8719 246.93124 340.4344L246.93124 340.9344ZM250.8375 346.0125Q250.8375 345.10626 251.4 344.54376Q251.97812 343.96564 252.86874 343.96564Q253.775 343.96564 254.3375 344.54376Q254.91562 345.10626 254.91562 346.0594L254.91562 346.54376Q254.91562 347.4344 254.3375 348.0125Q253.775 348.59064 252.88437 348.59064Q252.00937 348.59064 251.41562 348.02814Q250.8375 347.45 250.8375 346.4969L250.8375 346.0125ZM251.79062 346.54376Q251.79062 347.075 252.0875 347.4344Q252.38437 347.77814 252.88437 347.77814Q253.38437 347.77814 253.68124 347.4344Q253.97812 347.09064 253.97812 346.5125L253.97812 346.0125Q253.97812 345.46564 253.66562 345.1219Q253.36874 344.77814 252.88437 344.77814Q252.38437 344.77814 252.0875 345.1219Q251.79062 345.46564 251.79062 346.04376L251.79062 346.54376ZM248.3375 347.7L247.61874 347.2469L252.47812 339.46564L253.19687 339.91876L248.3375 347.7Z" fill-rule="nonzero"/><path fill="#000000" d="M367.40625 343.46564L367.92188 338.4969L373.01562 338.4969L373.01562 339.66876L368.98438 339.66876L368.6875 342.3719Q369.42188 341.95 370.34375 341.95Q371.70312 341.95 372.5 342.85626Q373.3125 343.7469 373.3125 345.27814Q373.3125 346.8094 372.46875 347.7Q371.64062 348.59064 370.15625 348.59064Q368.84375 348.59064 368.0 347.85626Q367.17188 347.1219 367.04688 345.825L368.25 345.825Q368.35938 346.6844 368.84375 347.1219Q369.34375 347.5594 370.15625 347.5594Q371.03125 347.5594 371.53125 346.96564Q372.04688 346.35626 372.04688 345.29376Q372.04688 344.29376 371.5 343.7Q370.95312 343.09064 370.04688 343.09064Q369.23438 343.09064 368.75 343.45L368.42188 343.71564L367.40625 343.46564ZM381.0625 344.2Q381.0625 346.41876 380.29688 347.5125Q379.54688 348.59064 377.9375 348.59064Q376.34375 348.59064 375.57812 347.54376Q374.8125 346.48126 374.78125 344.3719L374.78125 342.6844Q374.78125 340.4969 375.53125 339.4344Q376.29688 338.35626 377.92188 338.35626Q379.53125 338.35626 380.28125 339.3875Q381.04688 340.41876 381.0625 342.5594L381.0625 344.2ZM379.79688 342.48126Q379.79688 340.8719 379.34375 340.1375Q378.90625 339.40314 377.92188 339.40314Q376.95312 339.40314 376.5 340.1375Q376.0625 340.85626 376.04688 342.3719L376.04688 344.40314Q376.04688 346.0125 376.51562 346.79376Q376.98438 347.5594 377.9375 347.5594Q378.875 347.5594 379.32812 346.84064Q379.78125 346.10626 379.79688 344.54376L379.79688 342.48126ZM382.71875 340.40314Q382.71875 339.5125 383.28125 338.9344Q383.85938 338.35626 384.75 338.35626Q385.67188 338.35626 386.23438 338.95Q386.79688 339.52814 386.79688 340.45L386.79688 340.9344Q386.79688 341.84064 386.21875 342.41876Q385.65625 342.98126 384.76562 342.98126Q383.875 342.98126 383.29688 342.41876Q382.71875 341.84064 382.71875 340.8875L382.71875 340.40314ZM383.65625 340.9344Q383.65625 341.46564 383.95312 341.8094Q384.26562 342.15314 384.76562 342.15314Q385.25 342.15314 385.54688 341.825Q385.84375 341.4969 385.84375 340.90314L385.84375 340.40314Q385.84375 339.8719 385.54688 339.52814Q385.26562 339.1844 384.75 339.1844Q384.25 339.1844 383.95312 339.52814Q383.65625 339.8719 383.65625 340.4344L383.65625 340.9344ZM387.5625 346.0125Q387.5625 345.10626 388.125 344.54376Q388.70312 343.96564 389.59375 343.96564Q390.5 343.96564 391.0625 344.54376Q391.64062 345.10626 391.64062 346.0594L391.64062 346.54376Q391.64062 347.4344 391.0625 348.0125Q390.5 348.59064 389.60938 348.59064Q388.73438 348.59064 388.14062 348.02814Q387.5625 347.45 387.5625 346.4969L387.5625 346.0125ZM388.51562 346.54376Q388.51562 347.075 388.8125 347.4344Q389.10938 347.77814 389.60938 347.77814Q390.10938 347.77814 390.40625 347.4344Q390.70312 347.09064 390.70312 346.5125L390.70312 346.0125Q390.70312 345.46564 390.39062 345.1219Q390.09375 344.77814 389.60938 344.77814Q389.10938 344.77814 388.8125 345.1219Q388.51562 345.46564 388.51562 346.04376L388.51562 346.54376ZM385.0625 347.7L384.34375 347.2469L389.20312 339.46564L389.92188 339.91876L385.0625 347.7Z" fill-rule="nonzero"/><path fill="#000000" d="M509.975 339.2L505.85 348.45L504.5375 348.45L508.63126 339.52814L503.25626 339.52814L503.25626 338.4969L509.975 338.4969L509.975 339.2ZM512.1312 343.46564L512.64685 338.4969L517.7406 338.4969L517.7406 339.66876L513.70935 339.66876L513.4125 342.3719Q514.14685 341.95 515.0687 341.95Q516.4281 341.95 517.225 342.85626Q518.0375 343.7469 518.0375 345.27814Q518.0375 346.8094 517.1937 347.7Q516.3656 348.59064 514.8812 348.59064Q513.5687 348.59064 512.725 347.85626Q511.89688 347.1219 511.77188 345.825L512.975 345.825Q513.08435 346.6844 513.5687 347.1219Q514.0687 347.5594 514.8812 347.5594Q515.7562 347.5594 516.2562 346.96564Q516.77185 346.35626 516.77185 345.29376Q516.77185 344.29376 516.225 343.7Q515.6781 343.09064 514.77185 343.09064Q513.95935 343.09064 513.475 343.45L513.14685 343.71564L512.1312 343.46564ZM519.4437 340.40314Q519.4437 339.5125 520.0062 338.9344Q520.58435 338.35626 521.475 338.35626Q522.39685 338.35626 522.95935 338.95Q523.52185 339.52814 523.52185 340.45L523.52185 340.9344Q523.52185 341.84064 522.9437 342.41876Q522.3812 342.98126 521.4906 342.98126Q520.6 342.98126 520.02185 342.41876Q519.4437 341.84064 519.4437 340.8875L519.4437 340.40314ZM520.3812 340.9344Q520.3812 341.46564 520.6781 341.8094Q520.9906 342.15314 521.4906 342.15314Q521.975 342.15314 522.27185 341.825Q522.5687 341.4969 522.5687 340.90314L522.5687 340.40314Q522.5687 339.8719 522.27185 339.52814Q521.9906 339.1844 521.475 339.1844Q520.975 339.1844 520.6781 339.52814Q520.3812 339.8719 520.3812 340.4344L520.3812 340.9344ZM524.2875 346.0125Q524.2875 345.10626 524.85 344.54376Q525.4281 343.96564 526.3187 343.96564Q527.225 343.96564 527.7875 344.54376Q528.3656 345.10626 528.3656 346.0594L528.3656 346.54376Q528.3656 347.4344 527.7875 348.0125Q527.225 348.59064 526.33435 348.59064Q525.45935 348.59064 524.8656 348.02814Q524.2875 347.45 524.2875 346.4969L524.2875 346.0125ZM525.2406 346.54376Q525.2406 347.075 525.5375 347.4344Q525.83435 347.77814 526.33435 347.77814Q526.83435 347.77814 527.1312 347.4344Q527.4281 347.09064 527.4281 346.5125L527.4281 346.0125Q527.4281 345.46564 527.1156 345.1219Q526.8187 344.77814 526.33435 344.77814Q525.83435 344.77814 525.5375 345.1219Q525.2406 345.46564 525.2406 346.04376L525.2406 346.54376ZM521.7875 347.7L521.0687 347.2469L525.9281 339.46564L526.64685 339.91876L521.7875 347.7Z" fill-rule="nonzero"/><path fill="#000000" d="M640.4344 348.45L639.16876 348.45L639.16876 340.02814L636.60626 340.95L636.60626 339.8094L640.23126 338.45L640.4344 338.45L640.4344 348.45ZM650.5125 344.2Q650.5125 346.41876 649.7469 347.5125Q648.9969 348.59064 647.3875 348.59064Q645.79376 348.59064 645.02814 347.54376Q644.2625 346.48126 644.23126 344.3719L644.23126 342.6844Q644.23126 340.4969 644.98126 339.4344Q645.7469 338.35626 647.3719 338.35626Q648.98126 338.35626 649.73126 339.3875Q650.4969 340.41876 650.5125 342.5594L650.5125 344.2ZM649.2469 342.48126Q649.2469 340.8719 648.79376 340.1375Q648.35626 339.40314 647.3719 339.40314Q646.40314 339.40314 645.95 340.1375Q645.5125 340.85626 645.4969 342.3719L645.4969 344.40314Q645.4969 346.0125 645.96564 346.79376Q646.4344 347.5594 647.3875 347.5594Q648.325 347.5594 648.77814 346.84064Q649.23126 346.10626 649.2469 344.54376L649.2469 342.48126ZM658.5125 344.2Q658.5125 346.41876 657.7469 347.5125Q656.9969 348.59064 655.3875 348.59064Q653.79376 348.59064 653.02814 347.54376Q652.2625 346.48126 652.23126 344.3719L652.23126 342.6844Q652.23126 340.4969 652.98126 339.4344Q653.7469 338.35626 655.3719 338.35626Q656.98126 338.35626 657.73126 339.3875Q658.4969 340.41876 658.5125 342.5594L658.5125 344.2ZM657.2469 342.48126Q657.2469 340.8719 656.79376 340.1375Q656.35626 339.40314 655.3719 339.40314Q654.40314 339.40314 653.95 340.1375Q653.5125 340.85626 653.4969 342.3719L653.4969 344.40314Q653.4969 346.0125 653.96564 346.79376Q654.4344 347.5594 655.3875 347.5594Q656.325 347.5594 656.77814 346.84064Q657.23126 346.10626 657.2469 344.54376L657.2469 342.48126ZM660.16876 340.40314Q660.16876 339.5125 660.73126 338.9344Q661.3094 338.35626 662.2 338.35626Q663.1219 338.35626 663.6844 338.95Q664.2469 339.52814 664.2469 340.45L664.2469 340.9344Q664.2469 341.84064 663.66876 342.41876Q663.10626 342.98126 662.21564 342.98126Q661.325 342.98126 660.7469 342.41876Q660.16876 341.84064 660.16876 340.8875L660.16876 340.40314ZM661.10626 340.9344Q661.10626 341.46564 661.40314 341.8094Q661.71564 342.15314 662.21564 342.15314Q662.7 342.15314 662.9969 341.825Q663.29376 341.4969 663.29376 340.90314L663.29376 340.40314Q663.29376 339.8719 662.9969 339.52814Q662.71564 339.1844 662.2 339.1844Q661.7 339.1844 661.40314 339.52814Q661.10626 339.8719 661.10626 340.4344L661.10626 340.9344ZM665.0125 346.0125Q665.0125 345.10626 665.575 344.54376Q666.15314 343.96564 667.04376 343.96564Q667.95 343.96564 668.5125 344.54376Q669.09064 345.10626 669.09064 346.0594L669.09064 346.54376Q669.09064 347.4344 668.5125 348.0125Q667.95 348.59064 667.0594 348.59064Q666.1844 348.59064 665.59064 348.02814Q665.0125 347.45 665.0125 346.4969L665.0125 346.0125ZM665.96564 346.54376Q665.96564 347.075 666.2625 347.4344Q666.5594 347.77814 667.0594 347.77814Q667.5594 347.77814 667.85626 347.4344Q668.15314 347.09064 668.15314 346.5125L668.15314 346.0125Q668.15314 345.46564 667.84064 345.1219Q667.54376 344.77814 667.0594 344.77814Q666.5594 344.77814 666.2625 345.1219Q665.96564 345.46564 665.96564 346.04376L665.96564 346.54376ZM662.5125 347.7L661.79376 347.2469L666.65314 339.46564L667.3719 339.91876L662.5125 347.7Z" fill-rule="nonzero"/><path fill="#f1c232" d="M30.5 22.05C30.5 21.497715 30.947716 21.05 31.5 21.05L41.5 21.05C42.052284 21.05 42.5 21.497715 42.5 22.05L42.5 32.05C42.5 32.602283 42.052284 33.05 41.5 33.05L31.5 33.05C30.947716 33.05 30.5 32.602283 30.5 32.05Z" fill-rule="nonzero"/><path fill="#000000" d="M54.953125 29.8L57.796875 21.596874L59.234375 21.596874L55.53125 31.55L54.375 31.55L50.6875 21.596874L52.125 21.596874L54.953125 29.8ZM63.53125 31.690624Q62.015625 31.690624 61.078125 30.70625Q60.140625 29.70625 60.140625 28.05L60.140625 27.83125Q60.140625 26.721874 60.5625 25.8625Q60.984375 24.9875 61.734375 24.503124Q62.484375 24.01875 63.375 24.01875Q64.8125 24.01875 65.609375 24.971874Q66.40625 25.909374 66.40625 27.690624L66.40625 28.20625L61.40625 28.20625Q61.421875 29.3 62.03125 29.9875Q62.65625 30.659374 63.59375 30.659374Q64.265625 30.659374 64.71875 30.39375Q65.1875 30.1125 65.546875 29.659374L66.3125 30.253124Q65.390625 31.690624 63.53125 31.690624ZM63.375 25.05Q62.609375 25.05 62.078125 25.6125Q61.5625 26.175 61.4375 27.175L65.140625 27.175L65.140625 27.08125Q65.09375 26.1125 64.625 25.58125Q64.15625 25.05 63.375 25.05ZM71.03125 25.284374Q70.75 25.2375 70.40625 25.2375Q69.171875 25.2375 68.71875 26.3L68.71875 31.55L67.453125 31.55L67.453125 24.159374L68.6875 24.159374L68.703125 25.003124Q69.328125 24.01875 70.46875 24.01875Q70.84375 24.01875 71.03125 24.1125L71.03125 25.284374ZM74.875 29.690624L76.59375 24.159374L77.953125 24.159374L74.984375 32.690624Q74.296875 34.534374 72.78125 34.534374L72.546875 34.51875L72.078125 34.425L72.078125 33.409374L72.421875 33.425Q73.0625 33.425 73.421875 33.159374Q73.78125 32.909374 74.015625 32.221874L74.296875 31.471874L71.65625 24.159374L73.03125 24.159374L74.875 29.690624ZM87.03125 30.815624Q86.28125 31.690624 84.859375 31.690624Q83.671875 31.690624 83.046875 31.003124Q82.4375 30.315624 82.4375 28.971874L82.4375 24.159374L83.6875 24.159374L83.6875 28.925Q83.6875 30.6125 85.0625 30.6125Q86.515625 30.6125 86.984375 29.534374L86.984375 24.159374L88.25 24.159374L88.25 31.55L87.046875 31.55L87.03125 30.815624ZM91.65625 24.159374L91.6875 25.08125Q92.546875 24.01875 93.90625 24.01875Q96.25 24.01875 96.28125 26.659374L96.28125 31.55L95.015625 31.55L95.015625 26.659374Q95.0 25.8625 94.640625 25.4875Q94.28125 25.096874 93.53125 25.096874Q92.90625 25.096874 92.4375 25.425Q91.984375 25.753124 91.71875 26.284374L91.71875 31.55L90.453125 31.55L90.453125 24.159374L91.65625 24.159374ZM101.421875 30.659374Q102.09375 30.659374 102.59375 30.253124Q103.109375 29.83125 103.171875 29.221874L104.359375 29.221874Q104.328125 29.846874 103.921875 30.425Q103.515625 31.003124 102.84375 31.346874Q102.171875 31.690624 101.421875 31.690624Q99.90625 31.690624 99.015625 30.690624Q98.125 29.675 98.125 27.925L98.125 27.70625Q98.125 26.628124 98.515625 25.784374Q98.921875 24.940624 99.65625 24.4875Q100.40625 24.01875 101.421875 24.01875Q102.65625 24.01875 103.484375 24.76875Q104.3125 25.503124 104.359375 26.690624L103.171875 26.690624Q103.109375 25.971874 102.625 25.51875Q102.140625 25.05 101.421875 25.05Q100.453125 25.05 99.921875 25.753124Q99.390625 26.440624 99.390625 27.753124L99.390625 27.9875Q99.390625 29.26875 99.921875 29.971874Q100.453125 30.659374 101.421875 30.659374ZM105.125 27.784374Q105.125 26.690624 105.546875 25.83125Q105.984375 24.95625 106.734375 24.4875Q107.5 24.01875 108.484375 24.01875Q109.984375 24.01875 110.921875 25.065624Q111.859375 26.1125 111.859375 27.846874L111.859375 27.940624Q111.859375 29.01875 111.4375 29.878124Q111.03125 30.721874 110.25 31.20625Q109.484375 31.690624 108.5 31.690624Q106.984375 31.690624 106.046875 30.64375Q105.125 29.596874 105.125 27.878124L105.125 27.784374ZM106.390625 27.940624Q106.390625 29.159374 106.953125 29.909374Q107.53125 30.659374 108.5 30.659374Q109.453125 30.659374 110.015625 29.909374Q110.59375 29.14375 110.59375 27.784374Q110.59375 26.565624 110.015625 25.815624Q109.4375 25.05 108.484375 25.05Q107.546875 25.05 106.96875 25.8Q106.390625 26.55 106.390625 27.940624ZM114.640625 24.159374L114.6875 24.971874Q115.5 24.01875 116.875 24.01875Q118.421875 24.01875 118.984375 25.20625Q119.359375 24.675 119.953125 24.346874Q120.546875 24.01875 121.34375 24.01875Q123.78125 24.01875 123.828125 26.596874L123.828125 31.55L122.5625 31.55L122.5625 26.675Q122.5625 25.878124 122.1875 25.4875Q121.828125 25.096874 120.984375 25.096874Q120.265625 25.096874 119.796875 25.51875Q119.34375 25.925 119.265625 26.64375L119.265625 31.55L118.0 31.55L118.0 26.70625Q118.0 25.096874 116.421875 25.096874Q115.171875 25.096874 114.71875 26.14375L114.71875 31.55L113.453125 31.55L113.453125 24.159374L114.640625 24.159374ZM126.078125 31.55L126.078125 25.128124L124.90625 25.128124L124.90625 24.159374L126.078125 24.159374L126.078125 23.39375Q126.078125 22.20625 126.703125 21.565624Q127.34375 20.909374 128.51562 20.909374Q128.95312 20.909374 129.375 21.01875L129.3125 22.05Q128.98438 21.9875 128.625 21.9875Q128.01562 21.9875 127.671875 22.346874Q127.34375 22.70625 127.34375 23.378124L127.34375 24.159374L128.92188 24.159374L128.92188 25.128124L127.34375 25.128124L127.34375 31.55L126.078125 31.55ZM130.125 27.784374Q130.125 26.690624 130.54688 25.83125Q130.98438 24.95625 131.73438 24.4875Q132.5 24.01875 133.48438 24.01875Q134.98438 24.01875 135.92188 25.065624Q136.85938 26.1125 136.85938 27.846874L136.85938 27.940624Q136.85938 29.01875 136.4375 29.878124Q136.03125 30.721874 135.25 31.20625Q134.48438 31.690624 133.5 31.690624Q131.98438 31.690624 131.04688 30.64375Q130.125 29.596874 130.125 27.878124L130.125 27.784374ZM131.39062 27.940624Q131.39062 29.159374 131.95312 29.909374Q132.53125 30.659374 133.5 30.659374Q134.45312 30.659374 135.01562 29.909374Q135.59375 29.14375 135.59375 27.784374Q135.59375 26.565624 135.01562 25.815624Q134.4375 25.05 133.48438 25.05Q132.54688 25.05 131.96875 25.8Q131.39062 26.55 131.39062 27.940624ZM142.03125 25.284374Q141.75 25.2375 141.40625 25.2375Q140.17188 25.2375 139.71875 26.3L139.71875 31.55L138.45312 31.55L138.45312 24.159374L139.6875 24.159374L139.70312 25.003124Q140.32812 24.01875 141.46875 24.01875Q141.84375 24.01875 142.03125 24.1125L142.03125 25.284374ZM145.17188 22.3625L145.17188 24.159374L146.54688 24.159374L146.54688 25.128124L145.17188 25.128124L145.17188 29.721874Q145.17188 30.159374 145.35938 30.39375Q145.54688 30.6125 145.98438 30.6125Q146.20312 30.6125 146.59375 30.51875L146.59375 31.55Q146.09375 31.690624 145.625 31.690624Q144.76562 31.690624 144.32812 31.175Q143.90625 30.659374 143.90625 29.721874L143.90625 25.128124L142.5625 25.128124L142.5625 24.159374L143.90625 24.159374L143.90625 22.3625L145.17188 22.3625ZM153.03125 31.55Q152.92188 31.33125 152.84375 30.76875Q151.96875 31.690624 150.73438 31.690624Q149.64062 31.690624 148.9375 31.08125Q148.25 30.45625 148.25 29.503124Q148.25 28.346874 149.125 27.70625Q150.0 27.065624 151.59375 27.065624L152.82812 27.065624L152.82812 26.4875Q152.82812 25.815624 152.42188 25.425Q152.03125 25.034374 151.26562 25.034374Q150.57812 25.034374 150.125 25.378124Q149.67188 25.721874 149.67188 26.20625L148.39062 26.20625Q148.39062 25.64375 148.78125 25.128124Q149.1875 24.6125 149.85938 24.315624Q150.53125 24.01875 151.32812 24.01875Q152.60938 24.01875 153.32812 24.659374Q154.0625 25.3 154.09375 26.409374L154.09375 29.815624Q154.09375 30.83125 154.34375 31.440624L154.34375 31.55L153.03125 31.55ZM150.92188 30.58125Q151.51562 30.58125 152.04688 30.284374Q152.59375 29.971874 152.82812 29.471874L152.82812 27.95625L151.82812 27.95625Q149.51562 27.95625 149.51562 29.315624Q149.51562 29.909374 149.90625 30.253124Q150.29688 30.58125 150.92188 30.58125ZM162.71875 27.940624Q162.71875 29.628124 161.9375 30.659374Q161.15625 31.690624 159.84375 31.690624Q158.45312 31.690624 157.6875 30.690624L157.625 31.55L156.45312 31.55L156.45312 21.05L157.71875 21.05L157.71875 24.971874Q158.48438 24.01875 159.82812 24.01875Q161.1875 24.01875 161.95312 25.034374Q162.71875 26.05 162.71875 27.83125L162.71875 27.940624ZM161.45312 27.784374Q161.45312 26.503124 160.95312 25.8Q160.45312 25.096874 159.51562 25.096874Q158.26562 25.096874 157.71875 26.253124L157.71875 29.45625Q158.29688 30.6125 159.53125 30.6125Q160.4375 30.6125 160.9375 29.909374Q161.45312 29.20625 161.45312 27.784374ZM165.82812 31.55L164.5625 31.55L164.5625 21.05L165.82812 21.05L165.82812 31.55ZM170.53125 31.690624Q169.01562 31.690624 168.07812 30.70625Q167.14062 29.70625 167.14062 28.05L167.14062 27.83125Q167.14062 26.721874 167.5625 25.8625Q167.98438 24.9875 168.73438 24.503124Q169.48438 24.01875 170.375 24.01875Q171.8125 24.01875 172.60938 24.971874Q173.40625 25.909374 173.40625 27.690624L173.40625 28.20625L168.40625 28.20625Q168.42188 29.3 169.03125 29.9875Q169.65625 30.659374 170.59375 30.659374Q171.26562 30.659374 171.71875 30.39375Q172.1875 30.1125 172.54688 29.659374L173.3125 30.253124Q172.39062 31.690624 170.53125 31.690624ZM170.375 25.05Q169.60938 25.05 169.07812 25.6125Q168.5625 26.175 168.4375 27.175L172.14062 27.175L172.14062 27.08125Q172.09375 26.1125 171.625 25.58125Q171.15625 25.05 170.375 25.05Z" fill-rule="nonzero"/><path fill="#ffe599" d="M189.5 22.05C189.5 21.497715 189.94771 21.05 190.5 21.05L200.5 21.05C201.05229 21.05 201.5 21.497715 201.5 22.05L201.5 32.05C201.5 32.602283 201.05229 33.05 200.5 33.05L190.5 33.05C189.94771 33.05 189.5 32.602283 189.5 32.05Z" fill-rule="nonzero"/><path fill="#000000" d="M217.65625 21.596874L217.65625 28.3625Q217.65625 29.76875 216.78125 30.675Q215.90625 31.565624 214.39062 31.675L214.04688 31.690624Q212.40625 31.690624 211.4375 30.815624Q210.46875 29.925 210.45312 28.378124L210.45312 21.596874L211.75 21.596874L211.75 28.33125Q211.75 29.409374 212.34375 30.01875Q212.95312 30.6125 214.04688 30.6125Q215.15625 30.6125 215.75 30.01875Q216.34375 29.425 216.34375 28.346874L216.34375 21.596874L217.65625 21.596874ZM220.65625 24.159374L220.6875 25.08125Q221.54688 24.01875 222.90625 24.01875Q225.25 24.01875 225.28125 26.659374L225.28125 31.55L224.01562 31.55L224.01562 26.659374Q224.0 25.8625 223.64062 25.4875Q223.28125 25.096874 222.53125 25.096874Q221.90625 25.096874 221.4375 25.425Q220.98438 25.753124 220.71875 26.284374L220.71875 31.55L219.45312 31.55L219.45312 24.159374L220.65625 24.159374ZM230.42188 30.659374Q231.09375 30.659374 231.59375 30.253124Q232.10938 29.83125 232.17188 29.221874L233.35938 29.221874Q233.32812 29.846874 232.92188 30.425Q232.51562 31.003124 231.84375 31.346874Q231.17188 31.690624 230.42188 31.690624Q228.90625 31.690624 228.01562 30.690624Q227.125 29.675 227.125 27.925L227.125 27.70625Q227.125 26.628124 227.51562 25.784374Q227.92188 24.940624 228.65625 24.4875Q229.40625 24.01875 230.42188 24.01875Q231.65625 24.01875 232.48438 24.76875Q233.3125 25.503124 233.35938 26.690624L232.17188 26.690624Q232.10938 25.971874 231.625 25.51875Q231.14062 25.05 230.42188 25.05Q229.45312 25.05 228.92188 25.753124Q228.39062 26.440624 228.39062 27.753124L228.39062 27.9875Q228.39062 29.26875 228.92188 29.971874Q229.45312 30.659374 230.42188 30.659374ZM234.125 27.784374Q234.125 26.690624 234.54688 25.83125Q234.98438 24.95625 235.73438 24.4875Q236.5 24.01875 237.48438 24.01875Q238.98438 24.01875 239.92188 25.065624Q240.85938 26.1125 240.85938 27.846874L240.85938 27.940624Q240.85938 29.01875 240.4375 29.878124Q240.03125 30.721874 239.25 31.20625Q238.48438 31.690624 237.5 31.690624Q235.98438 31.690624 235.04688 30.64375Q234.125 29.596874 234.125 27.878124L234.125 27.784374ZM235.39062 27.940624Q235.39062 29.159374 235.95312 29.909374Q236.53125 30.659374 237.5 30.659374Q238.45312 30.659374 239.01562 29.909374Q239.59375 29.14375 239.59375 27.784374Q239.59375 26.565624 239.01562 25.815624Q238.4375 25.05 237.48438 25.05Q236.54688 25.05 235.96875 25.8Q235.39062 26.55 235.39062 27.940624ZM243.64062 24.159374L243.6875 24.971874Q244.5 24.01875 245.875 24.01875Q247.42188 24.01875 247.98438 25.20625Q248.35938 24.675 248.95312 24.346874Q249.54688 24.01875 250.34375 24.01875Q252.78125 24.01875 252.82812 26.596874L252.82812 31.55L251.5625 31.55L251.5625 26.675Q251.5625 25.878124 251.1875 25.4875Q250.82812 25.096874 249.98438 25.096874Q249.26562 25.096874 248.79688 25.51875Q248.34375 25.925 248.26562 26.64375L248.26562 31.55L247.0 31.55L247.0 26.70625Q247.0 25.096874 245.42188 25.096874Q244.17188 25.096874 243.71875 26.14375L243.71875 31.55L242.45312 31.55L242.45312 24.159374L243.64062 24.159374ZM255.07812 31.55L255.07812 25.128124L253.90625 25.128124L253.90625 24.159374L255.07812 24.159374L255.07812 23.39375Q255.07812 22.20625 255.70312 21.565624Q256.34375 20.909374 257.51562 20.909374Q257.95312 20.909374 258.375 21.01875L258.3125 22.05Q257.98438 21.9875 257.625 21.9875Q257.01562 21.9875 256.67188 22.346874Q256.34375 22.70625 256.34375 23.378124L256.34375 24.159374L257.92188 24.159374L257.92188 25.128124L256.34375 25.128124L256.34375 31.55L255.07812 31.55ZM259.125 27.784374Q259.125 26.690624 259.54688 25.83125Q259.98438 24.95625 260.73438 24.4875Q261.5 24.01875 262.48438 24.01875Q263.98438 24.01875 264.92188 25.065624Q265.85938 26.1125 265.85938 27.846874L265.85938 27.940624Q265.85938 29.01875 265.4375 29.878124Q265.03125 30.721874 264.25 31.20625Q263.48438 31.690624 262.5 31.690624Q260.98438 31.690624 260.04688 30.64375Q259.125 29.596874 259.125 27.878124L259.125 27.784374ZM260.39062 27.940624Q260.39062 29.159374 260.95312 29.909374Q261.53125 30.659374 262.5 30.659374Q263.45312 30.659374 264.01562 29.909374Q264.59375 29.14375 264.59375 27.784374Q264.59375 26.565624 264.01562 25.815624Q263.4375 25.05 262.48438 25.05Q261.54688 25.05 260.96875 25.8Q260.39062 26.55 260.39062 27.940624ZM271.03125 25.284374Q270.75 25.2375 270.40625 25.2375Q269.17188 25.2375 268.71875 26.3L268.71875 31.55L267.45312 31.55L267.45312 24.159374L268.6875 24.159374L268.70312 25.003124Q269.32812 24.01875 270.46875 24.01875Q270.84375 24.01875 271.03125 24.1125L271.03125 25.284374ZM274.17188 22.3625L274.17188 24.159374L275.54688 24.159374L275.54688 25.128124L274.17188 25.128124L274.17188 29.721874Q274.17188 30.159374 274.35938 30.39375Q274.54688 30.6125 274.98438 30.6125Q275.20312 30.6125 275.59375 30.51875L275.59375 31.55Q275.09375 31.690624 274.625 31.690624Q273.76562 31.690624 273.32812 31.175Q272.90625 30.659374 272.90625 29.721874L272.90625 25.128124L271.5625 25.128124L271.5625 24.159374L272.90625 24.159374L272.90625 22.3625L274.17188 22.3625ZM282.03125 31.55Q281.92188 31.33125 281.84375 30.76875Q280.96875 31.690624 279.73438 31.690624Q278.64062 31.690624 277.9375 31.08125Q277.25 30.45625 277.25 29.503124Q277.25 28.346874 278.125 27.70625Q279.0 27.065624 280.59375 27.065624L281.82812 27.065624L281.82812 26.4875Q281.82812 25.815624 281.42188 25.425Q281.03125 25.034374 280.26562 25.034374Q279.57812 25.034374 279.125 25.378124Q278.67188 25.721874 278.67188 26.20625L277.39062 26.20625Q277.39062 25.64375 277.78125 25.128124Q278.1875 24.6125 278.85938 24.315624Q279.53125 24.01875 280.32812 24.01875Q281.60938 24.01875 282.32812 24.659374Q283.0625 25.3 283.09375 26.409374L283.09375 29.815624Q283.09375 30.83125 283.34375 31.440624L283.34375 31.55L282.03125 31.55ZM279.92188 30.58125Q280.51562 30.58125 281.04688 30.284374Q281.59375 29.971874 281.82812 29.471874L281.82812 27.95625L280.82812 27.95625Q278.51562 27.95625 278.51562 29.315624Q278.51562 29.909374 278.90625 30.253124Q279.29688 30.58125 279.92188 30.58125ZM291.71875 27.940624Q291.71875 29.628124 290.9375 30.659374Q290.15625 31.690624 288.84375 31.690624Q287.45312 31.690624 286.6875 30.690624L286.625 31.55L285.45312 31.55L285.45312 21.05L286.71875 21.05L286.71875 24.971874Q287.48438 24.01875 288.82812 24.01875Q290.1875 24.01875 290.95312 25.034374Q291.71875 26.05 291.71875 27.83125L291.71875 27.940624ZM290.45312 27.784374Q290.45312 26.503124 289.95312 25.8Q289.45312 25.096874 288.51562 25.096874Q287.26562 25.096874 286.71875 26.253124L286.71875 29.45625Q287.29688 30.6125 288.53125 30.6125Q289.4375 30.6125 289.9375 29.909374Q290.45312 29.20625 290.45312 27.784374ZM294.82812 31.55L293.5625 31.55L293.5625 21.05L294.82812 21.05L294.82812 31.55ZM299.53125 31.690624Q298.01562 31.690624 297.07812 30.70625Q296.14062 29.70625 296.14062 28.05L296.14062 27.83125Q296.14062 26.721874 296.5625 25.8625Q296.98438 24.9875 297.73438 24.503124Q298.48438 24.01875 299.375 24.01875Q300.8125 24.01875 301.60938 24.971874Q302.40625 25.909374 302.40625 27.690624L302.40625 28.20625L297.40625 28.20625Q297.42188 29.3 298.03125 29.9875Q298.65625 30.659374 299.59375 30.659374Q300.26562 30.659374 300.71875 30.39375Q301.1875 30.1125 301.54688 29.659374L302.3125 30.253124Q301.39062 31.690624 299.53125 31.690624ZM299.375 25.05Q298.60938 25.05 298.07812 25.6125Q297.5625 26.175 297.4375 27.175L301.14062 27.175L301.14062 27.08125Q301.09375 26.1125 300.625 25.58125Q300.15625 25.05 299.375 25.05Z" fill-rule="nonzero"/><path fill="#f3f3f3" d="M318.5 22.05C318.5 21.497715 318.94772 21.05 319.5 21.05L329.5 21.05C330.05228 21.05 330.5 21.497715 330.5 22.05L330.5 32.05C330.5 32.602283 330.05228 33.05 329.5 33.05L319.5 33.05C318.94772 33.05 318.5 32.602283 318.5 32.05Z" fill-rule="nonzero"/><path fill="#000000" d="M347.3125 31.55L345.98438 31.55L340.96875 23.878124L340.96875 31.55L339.65625 31.55L339.65625 21.596874L340.96875 21.596874L346.0 29.3L346.0 21.596874L347.3125 21.596874L347.3125 31.55ZM352.53125 31.690624Q351.01562 31.690624 350.07812 30.70625Q349.14062 29.70625 349.14062 28.05L349.14062 27.83125Q349.14062 26.721874 349.5625 25.8625Q349.98438 24.9875 350.73438 24.503124Q351.48438 24.01875 352.375 24.01875Q353.8125 24.01875 354.60938 24.971874Q355.40625 25.909374 355.40625 27.690624L355.40625 28.20625L350.40625 28.20625Q350.42188 29.3 351.03125 29.9875Q351.65625 30.659374 352.59375 30.659374Q353.26562 30.659374 353.71875 30.39375Q354.1875 30.1125 354.54688 29.659374L355.3125 30.253124Q354.39062 31.690624 352.53125 31.690624ZM352.375 25.05Q351.60938 25.05 351.07812 25.6125Q350.5625 26.175 350.4375 27.175L354.14062 27.175L354.14062 27.08125Q354.09375 26.1125 353.625 25.58125Q353.15625 25.05 352.375 25.05ZM357.82812 31.55L356.5625 31.55L356.5625 24.159374L357.82812 24.159374L357.82812 31.55ZM356.46875 22.190624Q356.46875 21.878124 356.65625 21.675Q356.84375 21.45625 357.20312 21.45625Q357.57812 21.45625 357.76562 21.675Q357.96875 21.878124 357.96875 22.190624Q357.96875 22.503124 357.76562 22.70625Q357.57812 22.909374 357.20312 22.909374Q356.84375 22.909374 356.65625 22.70625Q356.46875 22.503124 356.46875 22.190624ZM361.17188 22.3625L361.17188 24.159374L362.54688 24.159374L362.54688 25.128124L361.17188 25.128124L361.17188 29.721874Q361.17188 30.159374 361.35938 30.39375Q361.54688 30.6125 361.98438 30.6125Q362.20312 30.6125 362.59375 30.51875L362.59375 31.55Q362.09375 31.690624 361.625 31.690624Q360.76562 31.690624 360.32812 31.175Q359.90625 30.659374 359.90625 29.721874L359.90625 25.128124L358.5625 25.128124L358.5625 24.159374L359.90625 24.159374L359.90625 22.3625L361.17188 22.3625ZM365.71875 25.05Q366.5625 24.01875 367.90625 24.01875Q370.25 24.01875 370.28125 26.659374L370.28125 31.55L369.01562 31.55L369.01562 26.659374Q369.0 25.8625 368.64062 25.4875Q368.28125 25.096874 367.53125 25.096874Q366.90625 25.096874 366.4375 25.425Q365.98438 25.753124 365.71875 26.284374L365.71875 31.55L364.45312 31.55L364.45312 21.05L365.71875 21.05L365.71875 25.05ZM375.53125 31.690624Q374.01562 31.690624 373.07812 30.70625Q372.14062 29.70625 372.14062 28.05L372.14062 27.83125Q372.14062 26.721874 372.5625 25.8625Q372.98438 24.9875 373.73438 24.503124Q374.48438 24.01875 375.375 24.01875Q376.8125 24.01875 377.60938 24.971874Q378.40625 25.909374 378.40625 27.690624L378.40625 28.20625L373.40625 28.20625Q373.42188 29.3 374.03125 29.9875Q374.65625 30.659374 375.59375 30.659374Q376.26562 30.659374 376.71875 30.39375Q377.1875 30.1125 377.54688 29.659374L378.3125 30.253124Q377.39062 31.690624 375.53125 31.690624ZM375.375 25.05Q374.60938 25.05 374.07812 25.6125Q373.5625 26.175 373.4375 27.175L377.14062 27.175L377.14062 27.08125Q377.09375 26.1125 376.625 25.58125Q376.15625 25.05 375.375 25.05ZM383.03125 25.284374Q382.75 25.2375 382.40625 25.2375Q381.17188 25.2375 380.71875 26.3L380.71875 31.55L379.45312 31.55L379.45312 24.159374L380.6875 24.159374L380.70312 25.003124Q381.32812 24.01875 382.46875 24.01875Q382.84375 24.01875 383.03125 24.1125L383.03125 25.284374Z" fill-rule="nonzero"/><path fill="#b6d7a8" d="M399.5 22.05C399.5 21.497715 399.94772 21.05 400.5 21.05L410.5 21.05C411.05228 21.05 411.5 21.497715 411.5 22.05L411.5 32.05C411.5 32.602283 411.05228 33.05 410.5 33.05L400.5 33.05C399.94772 33.05 399.5 32.602283 399.5 32.05Z" fill-rule="nonzero"/><path fill="#000000" d="M427.98438 28.39375Q427.79688 29.971874 426.8125 30.83125Q425.82812 31.690624 424.20312 31.690624Q422.4375 31.690624 421.375 30.425Q420.3125 29.159374 420.3125 27.034374L420.3125 26.08125Q420.3125 24.690624 420.8125 23.64375Q421.3125 22.58125 422.21875 22.01875Q423.125 21.45625 424.3125 21.45625Q425.90625 21.45625 426.85938 22.346874Q427.8125 23.2375 427.98438 24.8L426.65625 24.8Q426.48438 23.6125 425.90625 23.08125Q425.34375 22.534374 424.3125 22.534374Q423.0625 22.534374 422.34375 23.471874Q421.64062 24.39375 421.64062 26.1125L421.64062 27.08125Q421.64062 28.70625 422.3125 29.659374Q422.98438 30.6125 424.20312 30.6125Q425.29688 30.6125 425.875 30.128124Q426.46875 29.628124 426.65625 28.39375L427.98438 28.39375ZM429.125 27.784374Q429.125 26.690624 429.54688 25.83125Q429.98438 24.95625 430.73438 24.4875Q431.5 24.01875 432.48438 24.01875Q433.98438 24.01875 434.92188 25.065624Q435.85938 26.1125 435.85938 27.846874L435.85938 27.940624Q435.85938 29.01875 435.4375 29.878124Q435.03125 30.721874 434.25 31.20625Q433.48438 31.690624 432.5 31.690624Q430.98438 31.690624 430.04688 30.64375Q429.125 29.596874 429.125 27.878124L429.125 27.784374ZM430.39062 27.940624Q430.39062 29.159374 430.95312 29.909374Q431.53125 30.659374 432.5 30.659374Q433.45312 30.659374 434.01562 29.909374Q434.59375 29.14375 434.59375 27.784374Q434.59375 26.565624 434.01562 25.815624Q433.4375 25.05 432.48438 25.05Q431.54688 25.05 430.96875 25.8Q430.39062 26.55 430.39062 27.940624ZM438.64062 24.159374L438.6875 24.971874Q439.5 24.01875 440.875 24.01875Q442.42188 24.01875 442.98438 25.20625Q443.35938 24.675 443.95312 24.346874Q444.54688 24.01875 445.34375 24.01875Q447.78125 24.01875 447.82812 26.596874L447.82812 31.55L446.5625 31.55L446.5625 26.675Q446.5625 25.878124 446.1875 25.4875Q445.82812 25.096874 444.98438 25.096874Q444.26562 25.096874 443.79688 25.51875Q443.34375 25.925 443.26562 26.64375L443.26562 31.55L442.0 31.55L442.0 26.70625Q442.0 25.096874 440.42188 25.096874Q439.17188 25.096874 438.71875 26.14375L438.71875 31.55L437.45312 31.55L437.45312 24.159374L438.64062 24.159374ZM450.07812 31.55L450.07812 25.128124L448.90625 25.128124L448.90625 24.159374L450.07812 24.159374L450.07812 23.39375Q450.07812 22.20625 450.70312 21.565624Q451.34375 20.909374 452.51562 20.909374Q452.95312 20.909374 453.375 21.01875L453.3125 22.05Q452.98438 21.9875 452.625 21.9875Q452.01562 21.9875 451.67188 22.346874Q451.34375 22.70625 451.34375 23.378124L451.34375 24.159374L452.92188 24.159374L452.92188 25.128124L451.34375 25.128124L451.34375 31.55L450.07812 31.55ZM454.125 27.784374Q454.125 26.690624 454.54688 25.83125Q454.98438 24.95625 455.73438 24.4875Q456.5 24.01875 457.48438 24.01875Q458.98438 24.01875 459.92188 25.065624Q460.85938 26.1125 460.85938 27.846874L460.85938 27.940624Q460.85938 29.01875 460.4375 29.878124Q460.03125 30.721874 459.25 31.20625Q458.48438 31.690624 457.5 31.690624Q455.98438 31.690624 455.04688 30.64375Q454.125 29.596874 454.125 27.878124L454.125 27.784374ZM455.39062 27.940624Q455.39062 29.159374 455.95312 29.909374Q456.53125 30.659374 457.5 30.659374Q458.45312 30.659374 459.01562 29.909374Q459.59375 29.14375 459.59375 27.784374Q459.59375 26.565624 459.01562 25.815624Q458.4375 25.05 457.48438 25.05Q456.54688 25.05 455.96875 25.8Q455.39062 26.55 455.39062 27.940624ZM466.03125 25.284374Q465.75 25.2375 465.40625 25.2375Q464.17188 25.2375 463.71875 26.3L463.71875 31.55L462.45312 31.55L462.45312 24.159374L463.6875 24.159374L463.70312 25.003124Q464.32812 24.01875 465.46875 24.01875Q465.84375 24.01875 466.03125 24.1125L466.03125 25.284374ZM469.17188 22.3625L469.17188 24.159374L470.54688 24.159374L470.54688 25.128124L469.17188 25.128124L469.17188 29.721874Q469.17188 30.159374 469.35938 30.39375Q469.54688 30.6125 469.98438 30.6125Q470.20312 30.6125 470.59375 30.51875L470.59375 31.55Q470.09375 31.690624 469.625 31.690624Q468.76562 31.690624 468.32812 31.175Q467.90625 30.659374 467.90625 29.721874L467.90625 25.128124L466.5625 25.128124L466.5625 24.159374L467.90625 24.159374L467.90625 22.3625L469.17188 22.3625ZM477.03125 31.55Q476.92188 31.33125 476.84375 30.76875Q475.96875 31.690624 474.73438 31.690624Q473.64062 31.690624 472.9375 31.08125Q472.25 30.45625 472.25 29.503124Q472.25 28.346874 473.125 27.70625Q474.0 27.065624 475.59375 27.065624L476.82812 27.065624L476.82812 26.4875Q476.82812 25.815624 476.42188 25.425Q476.03125 25.034374 475.26562 25.034374Q474.57812 25.034374 474.125 25.378124Q473.67188 25.721874 473.67188 26.20625L472.39062 26.20625Q472.39062 25.64375 472.78125 25.128124Q473.1875 24.6125 473.85938 24.315624Q474.53125 24.01875 475.32812 24.01875Q476.60938 24.01875 477.32812 24.659374Q478.0625 25.3 478.09375 26.409374L478.09375 29.815624Q478.09375 30.83125 478.34375 31.440624L478.34375 31.55L477.03125 31.55ZM474.92188 30.58125Q475.51562 30.58125 476.04688 30.284374Q476.59375 29.971874 476.82812 29.471874L476.82812 27.95625L475.82812 27.95625Q473.51562 27.95625 473.51562 29.315624Q473.51562 29.909374 473.90625 30.253124Q474.29688 30.58125 474.92188 30.58125ZM486.71875 27.940624Q486.71875 29.628124 485.9375 30.659374Q485.15625 31.690624 483.84375 31.690624Q482.45312 31.690624 481.6875 30.690624L481.625 31.55L480.45312 31.55L480.45312 21.05L481.71875 21.05L481.71875 24.971874Q482.48438 24.01875 483.82812 24.01875Q485.1875 24.01875 485.95312 25.034374Q486.71875 26.05 486.71875 27.83125L486.71875 27.940624ZM485.45312 27.784374Q485.45312 26.503124 484.95312 25.8Q484.45312 25.096874 483.51562 25.096874Q482.26562 25.096874 481.71875 26.253124L481.71875 29.45625Q482.29688 30.6125 483.53125 30.6125Q484.4375 30.6125 484.9375 29.909374Q485.45312 29.20625 485.45312 27.784374ZM489.82812 31.55L488.5625 31.55L488.5625 21.05L489.82812 21.05L489.82812 31.55ZM494.53125 31.690624Q493.01562 31.690624 492.07812 30.70625Q491.14062 29.70625 491.14062 28.05L491.14062 27.83125Q491.14062 26.721874 491.5625 25.8625Q491.98438 24.9875 492.73438 24.503124Q493.48438 24.01875 494.375 24.01875Q495.8125 24.01875 496.60938 24.971874Q497.40625 25.909374 497.40625 27.690624L497.40625 28.20625L492.40625 28.20625Q492.42188 29.3 493.03125 29.9875Q493.65625 30.659374 494.59375 30.659374Q495.26562 30.659374 495.71875 30.39375Q496.1875 30.1125 496.54688 29.659374L497.3125 30.253124Q496.39062 31.690624 494.53125 31.690624ZM494.375 25.05Q493.60938 25.05 493.07812 25.6125Q492.5625 26.175 492.4375 27.175L496.14062 27.175L496.14062 27.08125Q496.09375 26.1125 495.625 25.58125Q495.15625 25.05 494.375 25.05Z" fill-rule="nonzero"/><path fill="#6aa84f" d="M513.5 22.05C513.5 21.497715 513.9477 21.05 514.5 21.05L524.5 21.05C525.0523 21.05 525.5 21.497715 525.5 22.05L525.5 32.05C525.5 32.602283 525.0523 33.05 524.5 33.05L514.5 33.05C513.9477 33.05 513.5 32.602283 513.5 32.05Z" fill-rule="nonzero"/><path fill="#000000" d="M537.9531 29.8L540.7969 21.596874L542.2344 21.596874L538.53125 31.55L537.375 31.55L533.6875 21.596874L535.125 21.596874L537.9531 29.8ZM546.53125 31.690624Q545.0156 31.690624 544.0781 30.70625Q543.1406 29.70625 543.1406 28.05L543.1406 27.83125Q543.1406 26.721874 543.5625 25.8625Q543.9844 24.9875 544.7344 24.503124Q545.4844 24.01875 546.375 24.01875Q547.8125 24.01875 548.6094 24.971874Q549.40625 25.909374 549.40625 27.690624L549.40625 28.20625L544.40625 28.20625Q544.4219 29.3 545.03125 29.9875Q545.65625 30.659374 546.59375 30.659374Q547.2656 30.659374 547.71875 30.39375Q548.1875 30.1125 548.5469 29.659374L549.3125 30.253124Q548.3906 31.690624 546.53125 31.690624ZM546.375 25.05Q545.6094 25.05 545.0781 25.6125Q544.5625 26.175 544.4375 27.175L548.1406 27.175L548.1406 27.08125Q548.09375 26.1125 547.625 25.58125Q547.15625 25.05 546.375 25.05ZM554.03125 25.284374Q553.75 25.2375 553.40625 25.2375Q552.1719 25.2375 551.71875 26.3L551.71875 31.55L550.4531 31.55L550.4531 24.159374L551.6875 24.159374L551.7031 25.003124Q552.3281 24.01875 553.46875 24.01875Q553.84375 24.01875 554.03125 24.1125L554.03125 25.284374ZM557.875 29.690624L559.59375 24.159374L560.9531 24.159374L557.9844 32.690624Q557.2969 34.534374 555.78125 34.534374L555.5469 34.51875L555.0781 34.425L555.0781 33.409374L555.4219 33.425Q556.0625 33.425 556.4219 33.159374Q556.78125 32.909374 557.0156 32.221874L557.2969 31.471874L554.65625 24.159374L556.03125 24.159374L557.875 29.690624ZM568.4219 30.659374Q569.09375 30.659374 569.59375 30.253124Q570.1094 29.83125 570.1719 29.221874L571.3594 29.221874Q571.3281 29.846874 570.9219 30.425Q570.5156 31.003124 569.84375 31.346874Q569.1719 31.690624 568.4219 31.690624Q566.90625 31.690624 566.0156 30.690624Q565.125 29.675 565.125 27.925L565.125 27.70625Q565.125 26.628124 565.5156 25.784374Q565.9219 24.940624 566.65625 24.4875Q567.40625 24.01875 568.4219 24.01875Q569.65625 24.01875 570.4844 24.76875Q571.3125 25.503124 571.3594 26.690624L570.1719 26.690624Q570.1094 25.971874 569.625 25.51875Q569.1406 25.05 568.4219 25.05Q567.4531 25.05 566.9219 25.753124Q566.3906 26.440624 566.3906 27.753124L566.3906 27.9875Q566.3906 29.26875 566.9219 29.971874Q567.4531 30.659374 568.4219 30.659374ZM572.125 27.784374Q572.125 26.690624 572.5469 25.83125Q572.9844 24.95625 573.7344 24.4875Q574.5 24.01875 575.4844 24.01875Q576.9844 24.01875 577.9219 25.065624Q578.8594 26.1125 578.8594 27.846874L578.8594 27.940624Q578.8594 29.01875 578.4375 29.878124Q578.03125 30.721874 577.25 31.20625Q576.4844 31.690624 575.5 31.690624Q573.9844 31.690624 573.0469 30.64375Q572.125 29.596874 572.125 27.878124L572.125 27.784374ZM573.3906 27.940624Q573.3906 29.159374 573.9531 29.909374Q574.53125 30.659374 575.5 30.659374Q576.4531 30.659374 577.0156 29.909374Q577.59375 29.14375 577.59375 27.784374Q577.59375 26.565624 577.0156 25.815624Q576.4375 25.05 575.4844 25.05Q574.5469 25.05 573.96875 25.8Q573.3906 26.55 573.3906 27.940624ZM581.6406 24.159374L581.6875 24.971874Q582.5 24.01875 583.875 24.01875Q585.4219 24.01875 585.9844 25.20625Q586.3594 24.675 586.9531 24.346874Q587.5469 24.01875 588.34375 24.01875Q590.78125 24.01875 590.8281 26.596874L590.8281 31.55L589.5625 31.55L589.5625 26.675Q589.5625 25.878124 589.1875 25.4875Q588.8281 25.096874 587.9844 25.096874Q587.2656 25.096874 586.7969 25.51875Q586.34375 25.925 586.2656 26.64375L586.2656 31.55L585.0 31.55L585.0 26.70625Q585.0 25.096874 583.4219 25.096874Q582.1719 25.096874 581.71875 26.14375L581.71875 31.55L580.4531 31.55L580.4531 24.159374L581.6406 24.159374ZM593.0781 31.55L593.0781 25.128124L591.90625 25.128124L591.90625 24.159374L593.0781 24.159374L593.0781 23.39375Q593.0781 22.20625 593.7031 21.565624Q594.34375 20.909374 595.5156 20.909374Q595.9531 20.909374 596.375 21.01875L596.3125 22.05Q595.9844 21.9875 595.625 21.9875Q595.0156 21.9875 594.6719 22.346874Q594.34375 22.70625 594.34375 23.378124L594.34375 24.159374L595.9219 24.159374L595.9219 25.128124L594.34375 25.128124L594.34375 31.55L593.0781 31.55ZM597.125 27.784374Q597.125 26.690624 597.5469 25.83125Q597.9844 24.95625 598.7344 24.4875Q599.5 24.01875 600.4844 24.01875Q601.9844 24.01875 602.9219 25.065624Q603.8594 26.1125 603.8594 27.846874L603.8594 27.940624Q603.8594 29.01875 603.4375 29.878124Q603.03125 30.721874 602.25 31.20625Q601.4844 31.690624 600.5 31.690624Q598.9844 31.690624 598.0469 30.64375Q597.125 29.596874 597.125 27.878124L597.125 27.784374ZM598.3906 27.940624Q598.3906 29.159374 598.9531 29.909374Q599.53125 30.659374 600.5 30.659374Q601.4531 30.659374 602.0156 29.909374Q602.59375 29.14375 602.59375 27.784374Q602.59375 26.565624 602.0156 25.815624Q601.4375 25.05 600.4844 25.05Q599.5469 25.05 598.96875 25.8Q598.3906 26.55 598.3906 27.940624ZM609.03125 25.284374Q608.75 25.2375 608.40625 25.2375Q607.1719 25.2375 606.71875 26.3L606.71875 31.55L605.4531 31.55L605.4531 24.159374L606.6875 24.159374L606.7031 25.003124Q607.3281 24.01875 608.46875 24.01875Q608.84375 24.01875 609.03125 24.1125L609.03125 25.284374ZM612.1719 22.3625L612.1719 24.159374L613.5469 24.159374L613.5469 25.128124L612.1719 25.128124L612.1719 29.721874Q612.1719 30.159374 612.3594 30.39375Q612.5469 30.6125 612.9844 30.6125Q613.2031 30.6125 613.59375 30.51875L613.59375 31.55Q613.09375 31.690624 612.625 31.690624Q611.7656 31.690624 611.3281 31.175Q610.90625 30.659374 610.90625 29.721874L610.90625 25.128124L609.5625 25.128124L609.5625 24.159374L610.90625 24.159374L610.90625 22.3625L612.1719 22.3625ZM620.03125 31.55Q619.9219 31.33125 619.84375 30.76875Q618.96875 31.690624 617.7344 31.690624Q616.6406 31.690624 615.9375 31.08125Q615.25 30.45625 615.25 29.503124Q615.25 28.346874 616.125 27.70625Q617.0 27.065624 618.59375 27.065624L619.8281 27.065624L619.8281 26.4875Q619.8281 25.815624 619.4219 25.425Q619.03125 25.034374 618.2656 25.034374Q617.5781 25.034374 617.125 25.378124Q616.6719 25.721874 616.6719 26.20625L615.3906 26.20625Q615.3906 25.64375 615.78125 25.128124Q616.1875 24.6125 616.8594 24.315624Q617.53125 24.01875 618.3281 24.01875Q619.6094 24.01875 620.3281 24.659374Q621.0625 25.3 621.09375 26.409374L621.09375 29.815624Q621.09375 30.83125 621.34375 31.440624L621.34375 31.55L620.03125 31.55ZM617.9219 30.58125Q618.5156 30.58125 619.0469 30.284374Q619.59375 29.971874 619.8281 29.471874L619.8281 27.95625L618.8281 27.95625Q616.5156 27.95625 616.5156 29.315624Q616.5156 29.909374 616.90625 30.253124Q617.2969 30.58125 617.9219 30.58125ZM629.71875 27.940624Q629.71875 29.628124 628.9375 30.659374Q628.15625 31.690624 626.84375 31.690624Q625.4531 31.690624 624.6875 30.690624L624.625 31.55L623.4531 31.55L623.4531 21.05L624.71875 21.05L624.71875 24.971874Q625.4844 24.01875 626.8281 24.01875Q628.1875 24.01875 628.9531 25.034374Q629.71875 26.05 629.71875 27.83125L629.71875 27.940624ZM628.4531 27.784374Q628.4531 26.503124 627.9531 25.8Q627.4531 25.096874 626.5156 25.096874Q625.2656 25.096874 624.71875 26.253124L624.71875 29.45625Q625.2969 30.6125 626.53125 30.6125Q627.4375 30.6125 627.9375 29.909374Q628.4531 29.20625 628.4531 27.784374ZM632.8281 31.55L631.5625 31.55L631.5625 21.05L632.8281 21.05L632.8281 31.55ZM637.53125 31.690624Q636.0156 31.690624 635.0781 30.70625Q634.1406 29.70625 634.1406 28.05L634.1406 27.83125Q634.1406 26.721874 634.5625 25.8625Q634.9844 24.9875 635.7344 24.503124Q636.4844 24.01875 637.375 24.01875Q638.8125 24.01875 639.6094 24.971874Q640.40625 25.909374 640.40625 27.690624L640.40625 28.20625L635.40625 28.20625Q635.4219 29.3 636.03125 29.9875Q636.65625 30.659374 637.59375 30.659374Q638.2656 30.659374 638.71875 30.39375Q639.1875 30.1125 639.5469 29.659374L640.3125 30.253124Q639.3906 31.690624 637.53125 31.690624ZM637.375 25.05Q636.6094 25.05 636.0781 25.6125Q635.5625 26.175 635.4375 27.175L639.1406 27.175L639.1406 27.08125Q639.09375 26.1125 638.625 25.58125Q638.15625 25.05 637.375 25.05Z" fill-rule="nonzero"/></svg>