<svg version="1.1" viewBox="0.0 0.0 600.0 371.0" fill="none" stroke="none" stroke-linecap="square" stroke-miterlimit="10" width="600" height="371" xmlns:xlink="http://www.w3.org/1999/xlink" xmlns="http://www.w3.org/2000/svg"><path fill="#ffffff" d="M0 0L600.0 0L600.0 371.0L0 371.0L0 0Z" fill-rule="nonzero"/><path stroke="#333333" stroke-width="1.0" stroke-linecap="butt" d="M94.5 18.5L94.5 331.5" fill-rule="nonzero"/><path stroke="#000000" stroke-width="1.0" stroke-linecap="butt" d="M157.5 18.5L157.5 331.5" fill-rule="nonzero"/><path stroke="#000000" stroke-width="1.0" stroke-linecap="butt" d="M220.5 18.5L220.5 331.5" fill-rule="nonzero"/><path stroke="#000000" stroke-width="1.0" stroke-linecap="butt" d="M284.5 18.5L284.5 331.5" fill-rule="nonzero"/><path stroke="#000000" stroke-width="1.0" stroke-linecap="butt" d="M347.5 18.5L347.5 331.5" fill-rule="nonzero"/><path stroke="#000000" stroke-width="1.0" stroke-linecap="butt" d="M410.5 18.5L410.5 331.5" fill-rule="nonzero"/><clipPath id="id_0"><path d="M94.55 18.55L410.4222 18.55L410.4222 331.45L94.55 331.45L94.55 18.55Z" clip-rule="nonzero"/></clipPath><path stroke="#000000" stroke-width="0.0" stroke-linecap="butt" stroke-opacity="0.0" clip-path="url(#id_0)" d="M95.0 82.0L95.0 66.0L269.0 66.0C270.10458 66.0 271.0 66.89543 271.0 68.0L271.0 80.0C271.0 81.10457 270.10458 82.0 269.0 82.0Z" fill-rule="nonzero"/><path fill="#c9daf8" clip-path="url(#id_0)" d="M95.0 82.0L95.0 66.0L269.0 66.0C270.10458 66.0 271.0 66.89543 271.0 68.0L271.0 80.0C271.0 81.10457 270.10458 82.0 269.0 82.0Z" fill-rule="nonzero"/><path stroke="#000000" stroke-width="0.0" stroke-linecap="butt" stroke-opacity="0.0" clip-path="url(#id_0)" d="M95.0 216.0L95.0 200.0L333.0 200.0C334.10458 200.0 335.0 200.89543 335.0 202.0L335.0 214.0C335.0 215.10457 334.10458 216.0 333.0 216.0Z" fill-rule="nonzero"/><path fill="#c9daf8" clip-path="url(#id_0)" d="M95.0 216.0L95.0 200.0L333.0 200.0C334.10458 200.0 335.0 200.89543 335.0 202.0L335.0 214.0C335.0 215.10457 334.10458 216.0 333.0 216.0Z" fill-rule="nonzero"/><path stroke="#000000" stroke-width="0.0" stroke-linecap="butt" stroke-opacity="0.0" clip-path="url(#id_0)" d="M95.0 99.0L95.0 83.0L194.0 83.0C195.10457 83.0 196.0 83.89543 196.0 85.0L196.0 97.0C196.0 98.10457 195.10457 99.0 194.0 99.0Z" fill-rule="nonzero"/><path fill="#ea9999" clip-path="url(#id_0)" d="M95.0 99.0L95.0 83.0L194.0 83.0C195.10457 83.0 196.0 83.89543 196.0 85.0L196.0 97.0C196.0 98.10457 195.10457 99.0 194.0 99.0Z" fill-rule="nonzero"/><path stroke="#000000" stroke-width="0.0" stroke-linecap="butt" stroke-opacity="0.0" clip-path="url(#id_0)" d="M95.0 233.0L95.0 217.0L345.0 217.0C346.10458 217.0 347.0 217.89543 347.0 219.0L347.0 231.0C347.0 232.10457 346.10458 233.0 345.0 233.0Z" fill-rule="nonzero"/><path fill="#ea9999" clip-path="url(#id_0)" d="M95.0 233.0L95.0 217.0L345.0 217.0C346.10458 217.0 347.0 217.89543 347.0 219.0L347.0 231.0C347.0 232.10457 346.10458 233.0 345.0 233.0Z" fill-rule="nonzero"/><path stroke="#000000" stroke-width="0.0" stroke-linecap="butt" stroke-opacity="0.0" clip-path="url(#id_0)" d="M95.0 116.0L95.0 100.0L118.0 100.0C119.10457 100.0 120.0 100.89543 120.0 102.0L120.0 114.0C120.0 115.10457 119.10457 116.0 118.0 116.0Z" fill-rule="nonzero"/><path fill="#ffe599" clip-path="url(#id_0)" d="M95.0 116.0L95.0 100.0L118.0 100.0C119.10457 100.0 120.0 100.89543 120.0 102.0L120.0 114.0C120.0 115.10457 119.10457 116.0 118.0 116.0Z" fill-rule="nonzero"/><path stroke="#000000" stroke-width="0.0" stroke-linecap="butt" stroke-opacity="0.0" clip-path="url(#id_0)" d="M95.0 250.0L95.0 234.0L118.0 234.0C119.10457 234.0 120.0 234.89543 120.0 236.0L120.0 248.0C120.0 249.10457 119.10457 250.0 118.0 250.0Z" fill-rule="nonzero"/><path fill="#ffe599" clip-path="url(#id_0)" d="M95.0 250.0L95.0 234.0L118.0 234.0C119.10457 234.0 120.0 234.89543 120.0 236.0L120.0 248.0C120.0 249.10457 119.10457 250.0 118.0 250.0Z" fill-rule="nonzero"/><path stroke="#000000" stroke-width="0.0" stroke-linecap="butt" stroke-opacity="0.0" clip-path="url(#id_0)" d="M95.0 133.0L95.0 117.0L244.0 117.0C245.10457 117.0 246.0 117.89543 246.0 119.0L246.0 131.0C246.0 132.10457 245.10457 133.0 244.0 133.0Z" fill-rule="nonzero"/><path fill="#b6d7a8" clip-path="url(#id_0)" d="M95.0 133.0L95.0 117.0L244.0 117.0C245.10457 117.0 246.0 117.89543 246.0 119.0L246.0 131.0C246.0 132.10457 245.10457 133.0 244.0 133.0Z" fill-rule="nonzero"/><path stroke="#000000" stroke-width="0.0" stroke-linecap="butt" stroke-opacity="0.0" clip-path="url(#id_0)" d="M95.0 267.0L95.0 251.0L358.0 251.0C359.10458 251.0 360.0 251.89543 360.0 253.0L360.0 265.0C360.0 266.10458 359.10458 267.0 358.0 267.0Z" fill-rule="nonzero"/><path fill="#b6d7a8" clip-path="url(#id_0)" d="M95.0 267.0L95.0 251.0L358.0 251.0C359.10458 251.0 360.0 251.89543 360.0 253.0L360.0 265.0C360.0 266.10458 359.10458 267.0 358.0 267.0Z" fill-rule="nonzero"/><path stroke="#000000" stroke-width="0.0" stroke-linecap="butt" stroke-opacity="0.0" clip-path="url(#id_0)" d="M95.0 150.0L95.0 134.0L105.0 134.0C106.10457 134.0 107.0 134.89543 107.0 136.0L107.0 148.0C107.0 149.10457 106.10457 150.0 105.0 150.0Z" fill-rule="nonzero"/><path fill="#d5a6bd" clip-path="url(#id_0)" d="M95.0 150.0L95.0 134.0L105.0 134.0C106.10457 134.0 107.0 134.89543 107.0 136.0L107.0 148.0C107.0 149.10457 106.10457 150.0 105.0 150.0Z" fill-rule="nonzero"/><path stroke="#000000" stroke-width="0.0" stroke-linecap="butt" stroke-opacity="0.0" clip-path="url(#id_0)" d="M95.0 284.0L95.0 268.0L130.0 268.0C131.10457 268.0 132.0 268.89542 132.0 270.0L132.0 282.0C132.0 283.10458 131.10457 284.0 130.0 284.0Z" fill-rule="nonzero"/><path fill="#d5a6bd" clip-path="url(#id_0)" d="M95.0 284.0L95.0 268.0L130.0 268.0C131.10457 268.0 132.0 268.89542 132.0 270.0L132.0 282.0C132.0 283.10458 131.10457 284.0 130.0 284.0Z" fill-rule="nonzero"/><path fill="#000000" d="M26.846874 111.80053Q26.409374 112.42553 25.628124 112.73803Q24.846874 113.05053 23.815624 113.05053Q22.784374 113.05053 21.971874 112.566154Q21.159374 112.066154 20.721874 111.159904Q20.284374 110.253654 20.26875 109.066154L20.26875 108.33178Q20.26875 106.39428 21.159374 105.33178Q22.065624 104.26928 23.690624 104.26928Q25.034374 104.26928 25.846874 104.95678Q26.659374 105.64428 26.846874 106.89428L25.721874 106.89428Q25.39375 105.20678 23.70625 105.20678Q22.565624 105.20678 21.9875 106.003654Q21.409374 106.784904 21.39375 108.30053L21.39375 108.98803Q21.39375 110.42553 22.05 111.284904Q22.70625 112.128654 23.83125 112.128654Q24.45625 112.128654 24.925 111.98803Q25.409374 111.847404 25.721874 111.503654L25.721874 109.597404L23.753124 109.597404L23.753124 108.67553L26.846874 108.67553L26.846874 111.80053ZM29.55 112.92553L28.471874 112.92553L28.471874 103.92553L29.55 103.92553L29.55 112.92553ZM31.08125 109.691154Q31.08125 108.76928 31.440624 108.01928Q31.815624 107.26928 32.471874 106.878654Q33.128124 106.472404 33.95625 106.472404Q35.253124 106.472404 36.05 107.36303Q36.8625 108.253654 36.8625 109.753654L36.8625 109.83178Q36.8625 110.753654 36.503124 111.48803Q36.14375 112.222404 35.4875 112.64428Q34.83125 113.05053 33.971874 113.05053Q32.690624 113.05053 31.878124 112.159904Q31.08125 111.253654 31.08125 109.76928L31.08125 109.691154ZM32.175 109.83178Q32.175 110.878654 32.659374 111.51928Q33.159374 112.159904 33.971874 112.159904Q34.8 112.159904 35.284374 111.51928Q35.76875 110.86303 35.76875 109.691154Q35.76875 108.659904 35.26875 108.01928Q34.784374 107.36303 33.95625 107.36303Q33.159374 107.36303 32.659374 108.003654Q32.175 108.628654 32.175 109.83178ZM43.7375 109.83178Q43.7375 111.284904 43.065624 112.17553Q42.409374 113.05053 41.284374 113.05053Q40.08125 113.05053 39.425 112.191154L39.3625 112.92553L38.378124 112.92553L38.378124 103.92553L39.45625 103.92553L39.45625 107.284904Q40.1125 106.472404 41.26875 106.472404Q42.425 106.472404 43.08125 107.347404Q43.7375 108.20678 43.7375 109.73803L43.7375 109.83178ZM42.659374 109.70678Q42.659374 108.597404 42.221874 108.003654Q41.8 107.39428 41.003124 107.39428Q39.925 107.39428 39.45625 108.378654L39.45625 111.128654Q39.95625 112.128654 41.003124 112.128654Q41.784374 112.128654 42.221874 111.51928Q42.659374 110.909904 42.659374 109.70678ZM49.284374 112.92553Q49.190624 112.73803 49.128124 112.253654Q48.378124 113.05053 47.33125 113.05053Q46.39375 113.05053 45.784374 112.51928Q45.190624 111.98803 45.190624 111.159904Q45.190624 110.17553 45.940624 109.628654Q46.690624 109.08178 48.065624 109.08178L49.1125 109.08178L49.1125 108.58178Q49.1125 108.01928 48.76875 107.691154Q48.440624 107.347404 47.76875 107.347404Q47.190624 107.347404 46.8 107.64428Q46.409374 107.92553 46.409374 108.347404L45.315624 108.347404Q45.315624 107.86303 45.64375 107.42553Q45.9875 106.98803 46.565624 106.73803Q47.14375 106.472404 47.83125 106.472404Q48.940624 106.472404 49.55 107.01928Q50.175 107.566154 50.20625 108.51928L50.20625 111.441154Q50.20625 112.316154 50.425 112.83178L50.425 112.92553L49.284374 112.92553ZM47.4875 112.097404Q48.003124 112.097404 48.45625 111.83178Q48.909374 111.566154 49.1125 111.14428L49.1125 109.847404L48.26875 109.847404Q46.26875 109.847404 46.26875 111.01928Q46.26875 111.51928 46.6125 111.816154Q46.95625 112.097404 47.4875 112.097404ZM53.55 112.92553L52.471874 112.92553L52.471874 103.92553L53.55 103.92553L53.55 112.92553ZM65.09688 112.92553L63.971874 112.92553L59.675 106.347404L59.675 112.92553L58.534374 112.92553L58.534374 104.39428L59.675 104.39428L63.971874 111.003654L63.971874 104.39428L65.09688 104.39428L65.09688 112.92553ZM67.08125 109.691154Q67.08125 108.76928 67.44063 108.01928Q67.81563 107.26928 68.47188 106.878654Q69.12813 106.472404 69.95625 106.472404Q71.25313 106.472404 72.05 107.36303Q72.8625 108.253654 72.8625 109.753654L72.8625 109.83178Q72.8625 110.753654 72.50313 111.48803Q72.14375 112.222404 71.4875 112.64428Q70.83125 113.05053 69.97188 113.05053Q68.69063 113.05053 67.87813 112.159904Q67.08125 111.253654 67.08125 109.76928L67.08125 109.691154ZM68.175 109.83178Q68.175 110.878654 68.65938 111.51928Q69.15938 112.159904 69.97188 112.159904Q70.8 112.159904 71.28438 111.51928Q71.76875 110.86303 71.76875 109.691154Q71.76875 108.659904 71.26875 108.01928Q70.78438 107.36303 69.95625 107.36303Q69.15938 107.36303 68.65938 108.003654Q68.175 108.628654 68.175 109.83178ZM77.44063 107.55053Q77.19063 107.51928 76.90938 107.51928Q75.83125 107.51928 75.45625 108.42553L75.45625 112.92553L74.37813 112.92553L74.37813 106.58178L75.425 106.58178L75.44063 107.316154Q75.97188 106.472404 76.95625 106.472404Q77.26875 106.472404 77.44063 106.55053L77.44063 107.55053ZM79.84688 105.05053L79.84688 106.58178L81.01875 106.58178L81.01875 107.42553L79.84688 107.42553L79.84688 111.347404Q79.84688 111.73803 80.00313 111.92553Q80.15938 112.11303 80.53438 112.11303Q80.72188 112.11303 81.05 112.05053L81.05 112.92553Q80.62813 113.05053 80.22188 113.05053Q79.50313 113.05053 79.12813 112.61303Q78.75313 112.159904 78.75313 111.347404L78.75313 107.42553L77.59688 107.42553L77.59688 106.58178L78.75313 106.58178L78.75313 105.05053L79.84688 105.05053ZM83.45625 107.347404Q84.175 106.472404 85.33125 106.472404Q87.34688 106.472404 87.3625 108.73803L87.3625 112.92553L86.26875 112.92553L86.26875 108.722404Q86.26875 108.05053 85.95625 107.722404Q85.65938 107.39428 85.00313 107.39428Q84.47188 107.39428 84.06563 107.67553Q83.675 107.95678 83.45625 108.409904L83.45625 112.92553L82.37813 112.92553L82.37813 103.92553L83.45625 103.92553L83.45625 107.347404Z" fill-rule="nonzero"/><path fill="#000000" d="M25.846874 244.94946Q25.409374 245.57446 24.628124 245.88696Q23.846874 246.19946 22.815624 246.19946Q21.784374 246.19946 20.971874 245.71509Q20.159374 245.21509 19.721874 244.30884Q19.284374 243.40259 19.26875 242.21509L19.26875 241.48071Q19.26875 239.54321 20.159374 238.48071Q21.065624 237.41821 22.690624 237.41821Q24.034374 237.41821 24.846874 238.10571Q25.659374 238.79321 25.846874 240.04321L24.721874 240.04321Q24.39375 238.35571 22.70625 238.35571Q21.565624 238.35571 20.9875 239.15259Q20.409374 239.93384 20.39375 241.44946L20.39375 242.13696Q20.39375 243.57446 21.05 244.43384Q21.70625 245.27759 22.83125 245.27759Q23.45625 245.27759 23.925 245.13696Q24.409374 244.99634 24.721874 244.65259L24.721874 242.74634L22.753124 242.74634L22.753124 241.82446L25.846874 241.82446L25.846874 244.94946ZM28.55 246.07446L27.471874 246.07446L27.471874 237.07446L28.55 237.07446L28.55 246.07446ZM30.08125 242.84009Q30.08125 241.91821 30.440624 241.16821Q30.815624 240.41821 31.471874 240.02759Q32.128124 239.62134 32.95625 239.62134Q34.253124 239.62134 35.05 240.51196Q35.8625 241.40259 35.8625 242.90259L35.8625 242.98071Q35.8625 243.90259 35.503124 244.63696Q35.14375 245.37134 34.4875 245.79321Q33.83125 246.19946 32.971874 246.19946Q31.690624 246.19946 30.878124 245.30884Q30.08125 244.40259 30.08125 242.91821L30.08125 242.84009ZM31.175 242.98071Q31.175 244.02759 31.659374 244.66821Q32.159374 245.30884 32.971874 245.30884Q33.8 245.30884 34.284374 244.66821Q34.76875 244.01196 34.76875 242.84009Q34.76875 241.80884 34.26875 241.16821Q33.784374 240.51196 32.95625 240.51196Q32.159374 240.51196 31.659374 241.15259Q31.175 241.77759 31.175 242.98071ZM42.7375 242.98071Q42.7375 244.43384 42.065624 245.32446Q41.409374 246.19946 40.284374 246.19946Q39.08125 246.19946 38.425 245.34009L38.3625 246.07446L37.378124 246.07446L37.378124 237.07446L38.45625 237.07446L38.45625 240.43384Q39.1125 239.62134 40.26875 239.62134Q41.425 239.62134 42.08125 240.49634Q42.7375 241.35571 42.7375 242.88696L42.7375 242.98071ZM41.659374 242.85571Q41.659374 241.74634 41.221874 241.15259Q40.8 240.54321 40.003124 240.54321Q38.925 240.54321 38.45625 241.52759L38.45625 244.27759Q38.95625 245.27759 40.003124 245.27759Q40.784374 245.27759 41.221874 244.66821Q41.659374 244.05884 41.659374 242.85571ZM48.284374 246.07446Q48.190624 245.88696 48.128124 245.40259Q47.378124 246.19946 46.33125 246.19946Q45.39375 246.19946 44.784374 245.66821Q44.190624 245.13696 44.190624 244.30884Q44.190624 243.32446 44.940624 242.77759Q45.690624 242.23071 47.065624 242.23071L48.1125 242.23071L48.1125 241.73071Q48.1125 241.16821 47.76875 240.84009Q47.440624 240.49634 46.76875 240.49634Q46.190624 240.49634 45.8 240.79321Q45.409374 241.07446 45.409374 241.49634L44.315624 241.49634Q44.315624 241.01196 44.64375 240.57446Q44.9875 240.13696 45.565624 239.88696Q46.14375 239.62134 46.83125 239.62134Q47.940624 239.62134 48.55 240.16821Q49.175 240.71509 49.20625 241.66821L49.20625 244.59009Q49.20625 245.46509 49.425 245.98071L49.425 246.07446L48.284374 246.07446ZM46.4875 245.24634Q47.003124 245.24634 47.45625 244.98071Q47.909374 244.71509 48.1125 244.29321L48.1125 242.99634L47.26875 242.99634Q45.26875 242.99634 45.26875 244.16821Q45.26875 244.66821 45.6125 244.96509Q45.95625 245.24634 46.4875 245.24634ZM52.55 246.07446L51.471874 246.07446L51.471874 237.07446L52.55 237.07446L52.55 246.07446ZM60.05 242.27759Q58.6125 241.85571 57.940624 241.24634Q57.284374 240.63696 57.284374 239.74634Q57.284374 238.74634 58.08125 238.09009Q58.89375 237.41821 60.190624 237.41821Q61.065624 237.41821 61.753124 237.76196Q62.440624 238.10571 62.815624 238.69946Q63.20625 239.29321 63.20625 240.01196L62.065624 240.01196Q62.065624 239.23071 61.565624 238.79321Q61.08125 238.35571 60.190624 238.35571Q59.3625 238.35571 58.89375 238.73071Q58.425 239.09009 58.425 239.73071Q58.425 240.26196 58.8625 240.62134Q59.315624 240.98071 60.378124 241.27759Q61.440624 241.57446 62.034374 241.93384Q62.64375 242.29321 62.925 242.77759Q63.221874 243.26196 63.221874 243.90259Q63.221874 244.94946 62.409374 245.57446Q61.596874 246.19946 60.253124 246.19946Q59.3625 246.19946 58.596874 245.85571Q57.846874 245.51196 57.425 244.93384Q57.01875 244.34009 57.01875 243.60571L58.14375 243.60571Q58.14375 244.37134 58.721874 244.82446Q59.3 245.27759 60.253124 245.27759Q61.14375 245.27759 61.6125 244.91821Q62.08125 244.54321 62.08125 243.91821Q62.08125 243.29321 61.64375 242.94946Q61.20625 242.60571 60.05 242.27759ZM64.08125 242.84009Q64.08125 241.91821 64.44063 241.16821Q64.81563 240.41821 65.47188 240.02759Q66.12813 239.62134 66.95625 239.62134Q68.25313 239.62134 69.05 240.51196Q69.8625 241.40259 69.8625 242.90259L69.8625 242.98071Q69.8625 243.90259 69.50313 244.63696Q69.14375 245.37134 68.4875 245.79321Q67.83125 246.19946 66.97188 246.19946Q65.69063 246.19946 64.87813 245.30884Q64.08125 244.40259 64.08125 242.91821L64.08125 242.84009ZM65.175 242.98071Q65.175 244.02759 65.65938 244.66821Q66.15938 245.30884 66.97188 245.30884Q67.8 245.30884 68.28438 244.66821Q68.76875 244.01196 68.76875 242.84009Q68.76875 241.80884 68.26875 241.16821Q67.78438 240.51196 66.95625 240.51196Q66.15938 240.51196 65.65938 241.15259Q65.175 241.77759 65.175 242.98071ZM75.28438 245.44946Q74.65938 246.19946 73.425 246.19946Q72.40938 246.19946 71.87813 245.60571Q71.34688 245.01196 71.34688 243.85571L71.34688 239.73071L72.425 239.73071L72.425 243.82446Q72.425 245.27759 73.59688 245.27759Q74.84688 245.27759 75.25313 244.34009L75.25313 239.73071L76.34688 239.73071L76.34688 246.07446L75.31563 246.07446L75.28438 245.44946ZM79.84688 238.19946L79.84688 239.73071L81.01875 239.73071L81.01875 240.57446L79.84688 240.57446L79.84688 244.49634Q79.84688 244.88696 80.00313 245.07446Q80.15938 245.26196 80.53438 245.26196Q80.72188 245.26196 81.05 245.19946L81.05 246.07446Q80.62813 246.19946 80.22188 246.19946Q79.50313 246.19946 79.12813 245.76196Q78.75313 245.30884 78.75313 244.49634L78.75313 240.57446L77.59688 240.57446L77.59688 239.73071L78.75313 239.73071L78.75313 238.19946L79.84688 238.19946ZM83.45625 240.49634Q84.175 239.62134 85.33125 239.62134Q87.34688 239.62134 87.3625 241.88696L87.3625 246.07446L86.26875 246.07446L86.26875 241.87134Q86.26875 241.19946 85.95625 240.87134Q85.65938 240.54321 85.00313 240.54321Q84.47188 240.54321 84.06563 240.82446Q83.675 241.10571 83.45625 241.55884L83.45625 246.07446L82.37813 246.07446L82.37813 237.07446L83.45625 237.07446L83.45625 240.49634Z" fill-rule="nonzero"/><path fill="#000000" d="M97.1125 345.8094Q97.1125 347.71564 96.45625 348.65314Q95.81563 349.575 94.425 349.575Q93.06563 349.575 92.40938 348.66876Q91.75313 347.7625 91.72188 345.95L91.72188 344.5125Q91.72188 342.6219 92.3625 341.71564Q93.01875 340.79376 94.40938 340.79376Q95.78438 340.79376 96.44063 341.6844Q97.09688 342.5594 97.1125 344.40314L97.1125 345.8094ZM96.01875 344.325Q96.01875 342.95 95.62813 342.325Q95.25313 341.6844 94.40938 341.6844Q93.58125 341.6844 93.19063 342.325Q92.81563 342.95 92.81563 344.2469L92.81563 345.98126Q92.81563 347.35626 93.20625 348.02814Q93.6125 348.6844 94.425 348.6844Q95.22188 348.6844 95.6125 348.0594Q96.00313 347.4344 96.01875 346.10626L96.01875 344.325Z" fill-rule="nonzero"/><path fill="#000000" d="M155.42757 345.16876L155.86507 340.91876L160.24007 340.91876L160.24007 341.91876L156.78694 341.91876L156.52132 344.2469Q157.16194 343.8719 157.95882 343.8719Q159.11507 343.8719 159.80257 344.65314Q160.49007 345.41876 160.49007 346.73126Q160.49007 348.04376 159.77132 348.8094Q159.06819 349.575 157.78694 349.575Q156.66194 349.575 155.94319 348.95Q155.22444 348.3094 155.13069 347.2L156.14632 347.2Q156.25569 347.9344 156.67757 348.3094Q157.09944 348.6844 157.78694 348.6844Q158.53694 348.6844 158.97444 348.16876Q159.41194 347.65314 159.41194 346.7469Q159.41194 345.8875 158.94319 345.3719Q158.47444 344.85626 157.69319 344.85626Q156.99007 344.85626 156.58382 345.15314L156.30257 345.3875L155.42757 345.16876Z" fill-rule="nonzero"/><path fill="#000000" d="M218.16452 349.45L217.0864 349.45L217.0864 342.23126L214.8989 343.02814L214.8989 342.04376L218.00827 340.8719L218.16452 340.8719L218.16452 349.45ZM226.9614 345.8094Q226.9614 347.71564 226.30515 348.65314Q225.66452 349.575 224.2739 349.575Q222.91452 349.575 222.25827 348.66876Q221.60202 347.7625 221.57077 345.95L221.57077 344.5125Q221.57077 342.6219 222.2114 341.71564Q222.86765 340.79376 224.25827 340.79376Q225.63327 340.79376 226.28952 341.6844Q226.94577 342.5594 226.9614 344.40314L226.9614 345.8094ZM225.86765 344.325Q225.86765 342.95 225.47702 342.325Q225.10202 341.6844 224.25827 341.6844Q223.43015 341.6844 223.03952 342.325Q222.66452 342.95 222.66452 344.2469L222.66452 345.98126Q222.66452 347.35626 223.05515 348.02814Q223.4614 348.6844 224.2739 348.6844Q225.07077 348.6844 225.4614 348.0594Q225.85202 347.4344 225.86765 346.10626L225.86765 344.325Z" fill-rule="nonzero"/><path fill="#000000" d="M281.33896 349.45L280.26083 349.45L280.26083 342.23126L278.07333 343.02814L278.07333 342.04376L281.1827 340.8719L281.33896 340.8719L281.33896 349.45ZM285.27646 345.16876L285.71396 340.91876L290.08896 340.91876L290.08896 341.91876L286.63583 341.91876L286.3702 344.2469Q287.01083 343.8719 287.8077 343.8719Q288.96396 343.8719 289.65146 344.65314Q290.33896 345.41876 290.33896 346.73126Q290.33896 348.04376 289.6202 348.8094Q288.91708 349.575 287.63583 349.575Q286.51083 349.575 285.79208 348.95Q285.07333 348.3094 284.97958 347.2L285.9952 347.2Q286.10458 347.9344 286.52646 348.3094Q286.94833 348.6844 287.63583 348.6844Q288.38583 348.6844 288.82333 348.16876Q289.26083 347.65314 289.26083 346.7469Q289.26083 345.8875 288.79208 345.3719Q288.32333 344.85626 287.54208 344.85626Q286.83896 344.85626 286.4327 345.15314L286.15146 345.3875L285.27646 345.16876Z" fill-rule="nonzero"/><path fill="#000000" d="M346.54465 349.45L340.9509 349.45L340.9509 348.66876L343.90402 345.3875Q344.56027 344.6375 344.81027 344.1844Q345.06027 343.71564 345.06027 343.21564Q345.06027 342.54376 344.65402 342.1219Q344.2634 341.6844 343.5759 341.6844Q342.77902 341.6844 342.3259 342.15314Q341.87277 342.60626 341.87277 343.4344L340.79465 343.4344Q340.79465 342.2469 341.54465 341.52814Q342.31027 340.79376 343.5759 340.79376Q344.77902 340.79376 345.46652 341.41876Q346.15402 342.04376 346.15402 343.09064Q346.15402 344.34064 344.54465 346.09064L342.2634 348.5594L346.54465 348.5594L346.54465 349.45ZM353.31027 345.8094Q353.31027 347.71564 352.65402 348.65314Q352.0134 349.575 350.62277 349.575Q349.2634 349.575 348.60715 348.66876Q347.9509 347.7625 347.91965 345.95L347.91965 344.5125Q347.91965 342.6219 348.56027 341.71564Q349.21652 340.79376 350.60715 340.79376Q351.98215 340.79376 352.6384 341.6844Q353.29465 342.5594 353.31027 344.40314L353.31027 345.8094ZM352.21652 344.325Q352.21652 342.95 351.8259 342.325Q351.4509 341.6844 350.60715 341.6844Q349.77902 341.6844 349.3884 342.325Q349.0134 342.95 349.0134 344.2469L349.0134 345.98126Q349.0134 347.35626 349.40402 348.02814Q349.81027 348.6844 350.62277 348.6844Q351.41965 348.6844 351.81027 348.0594Q352.2009 347.4344 352.21652 346.10626L352.21652 344.325Z" fill-rule="nonzero"/><path fill="#000000" d="M409.7191 349.45L404.12534 349.45L404.12534 348.66876L407.07846 345.3875Q407.7347 344.6375 407.9847 344.1844Q408.2347 343.71564 408.2347 343.21564Q408.2347 342.54376 407.82846 342.1219Q407.43784 341.6844 406.75034 341.6844Q405.95346 341.6844 405.50034 342.15314Q405.0472 342.60626 405.0472 343.4344L403.9691 343.4344Q403.9691 342.2469 404.7191 341.52814Q405.4847 340.79376 406.75034 340.79376Q407.95346 340.79376 408.64096 341.41876Q409.32846 342.04376 409.32846 343.09064Q409.32846 344.34064 407.7191 346.09064L405.43784 348.5594L409.7191 348.5594L409.7191 349.45ZM411.62534 345.16876L412.06284 340.91876L416.43784 340.91876L416.43784 341.91876L412.9847 341.91876L412.7191 344.2469Q413.3597 343.8719 414.1566 343.8719Q415.31284 343.8719 416.00034 344.65314Q416.68784 345.41876 416.68784 346.73126Q416.68784 348.04376 415.9691 348.8094Q415.26596 349.575 413.9847 349.575Q412.8597 349.575 412.14096 348.95Q411.4222 348.3094 411.32846 347.2L412.3441 347.2Q412.45346 347.9344 412.87534 348.3094Q413.2972 348.6844 413.9847 348.6844Q414.7347 348.6844 415.1722 348.16876Q415.6097 347.65314 415.6097 346.7469Q415.6097 345.8875 415.14096 345.3719Q414.6722 344.85626 413.89096 344.85626Q413.18784 344.85626 412.7816 345.15314L412.50034 345.3875L411.62534 345.16876Z" fill-rule="nonzero"/><path fill="#c9daf8" d="M432.68222 118.520905C432.68222 117.96862 433.12994 117.520905 433.68222 117.520905L443.68222 117.520905C444.2345 117.520905 444.68222 117.96862 444.68222 118.520905L444.68222 128.5209C444.68222 129.0732 444.2345 129.5209 443.68222 129.5209L433.68222 129.5209C433.12994 129.5209 432.68222 129.0732 432.68222 128.5209Z" fill-rule="nonzero"/><path fill="#000000" d="M459.94785 125.31778Q459.7916 126.66153 458.94785 127.41153Q458.1041 128.1459 456.71347 128.1459Q455.19785 128.1459 454.2916 127.06778Q453.38535 125.97403 453.38535 124.145905L453.38535 123.333405Q453.38535 122.145905 453.80722 121.239655Q454.2291 120.333405 455.01035 119.84903Q455.7916 119.364655 456.80722 119.364655Q458.1666 119.364655 458.9791 120.13028Q459.80722 120.895905 459.94785 122.22403L458.82285 122.22403Q458.6666 121.208405 458.18222 120.75528Q457.69785 120.302155 456.80722 120.302155Q455.7291 120.302155 455.11972 121.09903Q454.51035 121.895905 454.51035 123.364655L454.51035 124.19278Q454.51035 125.583405 455.08847 126.41153Q455.6666 127.22403 456.71347 127.22403Q457.65097 127.22403 458.15097 126.802155Q458.65097 126.364655 458.82285 125.31778L459.94785 125.31778ZM465.4166 127.395905Q464.7916 128.1459 463.55722 128.1459Q462.5416 128.1459 462.01035 127.552155Q461.4791 126.958405 461.4791 125.802155L461.4791 121.677155L462.55722 121.677155L462.55722 125.770905Q462.55722 127.22403 463.7291 127.22403Q464.9791 127.22403 465.38535 126.28653L465.38535 121.677155L466.4791 121.677155L466.4791 128.0209L465.44785 128.0209L465.4166 127.395905ZM471.57285 122.645905Q471.32285 122.614655 471.0416 122.614655Q469.96347 122.614655 469.58847 123.520905L469.58847 128.0209L468.51035 128.0209L468.51035 121.677155L469.55722 121.677155L469.57285 122.41153Q470.1041 121.56778 471.08847 121.56778Q471.40097 121.56778 471.57285 121.645905L471.57285 122.645905ZM473.68222 128.0209L472.6041 128.0209L472.6041 121.677155L473.68222 121.677155L473.68222 128.0209ZM472.51035 120.00528Q472.51035 119.739655 472.6666 119.552155Q472.83847 119.364655 473.15097 119.364655Q473.46347 119.364655 473.61972 119.552155Q473.7916 119.739655 473.7916 120.00528Q473.7916 120.25528 473.61972 120.44278Q473.46347 120.614655 473.15097 120.614655Q472.83847 120.614655 472.6666 120.44278Q472.51035 120.25528 472.51035 120.00528ZM475.21347 124.78653Q475.21347 123.864655 475.57285 123.114655Q475.94785 122.364655 476.6041 121.97403Q477.26035 121.56778 478.08847 121.56778Q479.38535 121.56778 480.18222 122.458405Q480.99472 123.34903 480.99472 124.84903L480.99472 124.927155Q480.99472 125.84903 480.63535 126.583405Q480.27597 127.31778 479.61972 127.739655Q478.96347 128.1459 478.1041 128.1459Q476.82285 128.1459 476.01035 127.25528Q475.21347 126.34903 475.21347 124.864655L475.21347 124.78653ZM476.30722 124.927155Q476.30722 125.97403 476.7916 126.614655Q477.2916 127.25528 478.1041 127.25528Q478.93222 127.25528 479.4166 126.614655Q479.90097 125.958405 479.90097 124.78653Q479.90097 123.75528 479.40097 123.114655Q478.9166 122.458405 478.08847 122.458405Q477.2916 122.458405 476.7916 123.09903Q476.30722 123.72403 476.30722 124.927155ZM486.19785 126.333405Q486.19785 125.895905 485.8541 125.66153Q485.52597 125.41153 484.69785 125.239655Q483.88535 125.06778 483.40097 124.81778Q482.9166 124.56778 482.68222 124.239655Q482.46347 123.895905 482.46347 123.427155Q482.46347 122.645905 483.11972 122.114655Q483.77597 121.56778 484.80722 121.56778Q485.88535 121.56778 486.5416 122.13028Q487.21347 122.677155 487.21347 123.53653L486.13535 123.53653Q486.13535 123.09903 485.74472 122.78653Q485.36972 122.458405 484.80722 122.458405Q484.21347 122.458405 483.86972 122.72403Q483.5416 122.97403 483.5416 123.38028Q483.5416 123.770905 483.8541 123.97403Q484.1666 124.177155 484.9791 124.364655Q485.7916 124.53653 486.2916 124.78653Q486.7916 125.03653 487.02597 125.395905Q487.27597 125.75528 487.27597 126.25528Q487.27597 127.114655 486.58847 127.63028Q485.9166 128.1459 484.83847 128.1459Q484.07285 128.1459 483.4791 127.88028Q482.90097 127.59903 482.57285 127.114655Q482.24472 126.63028 482.24472 126.06778L483.32285 126.06778Q483.3541 126.614655 483.76035 126.94278Q484.1666 127.25528 484.83847 127.25528Q485.44785 127.25528 485.82285 127.00528Q486.19785 126.75528 486.19785 126.333405ZM489.68222 128.0209L488.6041 128.0209L488.6041 121.677155L489.68222 121.677155L489.68222 128.0209ZM488.51035 120.00528Q488.51035 119.739655 488.6666 119.552155Q488.83847 119.364655 489.15097 119.364655Q489.46347 119.364655 489.61972 119.552155Q489.7916 119.739655 489.7916 120.00528Q489.7916 120.25528 489.61972 120.44278Q489.46347 120.614655 489.15097 120.614655Q488.83847 120.614655 488.6666 120.44278Q488.51035 120.25528 488.51035 120.00528ZM492.9791 120.145905L492.9791 121.677155L494.15097 121.677155L494.15097 122.520905L492.9791 122.520905L492.9791 126.44278Q492.9791 126.833405 493.13535 127.020905Q493.2916 127.208405 493.6666 127.208405Q493.8541 127.208405 494.18222 127.145905L494.18222 128.0209Q493.76035 128.1459 493.3541 128.1459Q492.63535 128.1459 492.26035 127.708405Q491.88535 127.25528 491.88535 126.44278L491.88535 122.520905L490.7291 122.520905L490.7291 121.677155L491.88535 121.677155L491.88535 120.145905L492.9791 120.145905ZM497.57285 126.427155L499.05722 121.677155L500.21347 121.677155L497.6666 129.00528Q497.07285 130.5834 495.7916 130.5834L495.57285 130.56778L495.18222 130.48965L495.18222 129.61465L495.46347 129.63028Q496.02597 129.63028 496.32285 129.41153Q496.63535 129.19278 496.83847 128.59903L497.07285 127.94278L494.80722 121.677155L495.99472 121.677155L497.57285 126.427155Z" fill-rule="nonzero"/><path fill="#ea9999" d="M432.68222 143.5209C432.68222 142.96863 433.12994 142.5209 433.68222 142.5209L443.68222 142.5209C444.2345 142.5209 444.68222 142.96863 444.68222 143.5209L444.68222 153.5209C444.68222 154.0732 444.2345 154.5209 443.68222 154.5209L433.68222 154.5209C433.12994 154.5209 432.68222 154.0732 432.68222 153.5209Z" fill-rule="nonzero"/><path fill="#000000" d="M454.88535 153.0209L453.76035 153.0209L453.76035 144.48965L454.88535 144.48965L454.88535 153.0209ZM457.52597 146.67715L457.55722 147.47403Q458.2916 146.56778 459.46347 146.56778Q461.4791 146.56778 461.49472 148.8334L461.49472 153.0209L460.40097 153.0209L460.40097 148.81778Q460.40097 148.1459 460.08847 147.81778Q459.7916 147.48965 459.13535 147.48965Q458.6041 147.48965 458.19785 147.7709Q457.80722 148.05215 457.58847 148.50528L457.58847 153.0209L456.51035 153.0209L456.51035 146.67715L457.52597 146.67715ZM467.19785 151.3334Q467.19785 150.8959 466.8541 150.66153Q466.52597 150.41153 465.69785 150.23965Q464.88535 150.06778 464.40097 149.81778Q463.9166 149.56778 463.68222 149.23965Q463.46347 148.8959 463.46347 148.42715Q463.46347 147.6459 464.11972 147.11465Q464.77597 146.56778 465.80722 146.56778Q466.88535 146.56778 467.5416 147.13028Q468.21347 147.67715 468.21347 148.53653L467.13535 148.53653Q467.13535 148.09903 466.74472 147.78653Q466.36972 147.4584 465.80722 147.4584Q465.21347 147.4584 464.86972 147.72403Q464.5416 147.97403 464.5416 148.38028Q464.5416 148.7709 464.8541 148.97403Q465.1666 149.17715 465.9791 149.36465Q466.7916 149.53653 467.2916 149.78653Q467.7916 150.03653 468.02597 150.3959Q468.27597 150.75528 468.27597 151.25528Q468.27597 152.11465 467.58847 152.63028Q466.9166 153.1459 465.83847 153.1459Q465.07285 153.1459 464.4791 152.88028Q463.90097 152.59903 463.57285 152.11465Q463.24472 151.63028 463.24472 151.06778L464.32285 151.06778Q464.3541 151.61465 464.76035 151.94278Q465.1666 152.25528 465.83847 152.25528Q466.44785 152.25528 466.82285 152.00528Q467.19785 151.75528 467.19785 151.3334ZM470.9791 145.1459L470.9791 146.67715L472.15097 146.67715L472.15097 147.5209L470.9791 147.5209L470.9791 151.44278Q470.9791 151.8334 471.13535 152.0209Q471.2916 152.2084 471.6666 152.2084Q471.8541 152.2084 472.18222 152.1459L472.18222 153.0209Q471.76035 153.1459 471.3541 153.1459Q470.63535 153.1459 470.26035 152.7084Q469.88535 152.25528 469.88535 151.44278L469.88535 147.5209L468.7291 147.5209L468.7291 146.67715L469.88535 146.67715L469.88535 145.1459L470.9791 145.1459ZM476.57285 147.6459Q476.32285 147.61465 476.0416 147.61465Q474.96347 147.61465 474.58847 148.5209L474.58847 153.0209L473.51035 153.0209L473.51035 146.67715L474.55722 146.67715L474.57285 147.41153Q475.1041 146.56778 476.08847 146.56778Q476.40097 146.56778 476.57285 146.6459L476.57285 147.6459ZM481.4166 152.3959Q480.7916 153.1459 479.55722 153.1459Q478.5416 153.1459 478.01035 152.55215Q477.4791 151.9584 477.4791 150.80215L477.4791 146.67715L478.55722 146.67715L478.55722 150.7709Q478.55722 152.22403 479.7291 152.22403Q480.9791 152.22403 481.38535 151.28653L481.38535 146.67715L482.4791 146.67715L482.4791 153.0209L481.44785 153.0209L481.4166 152.3959ZM487.0416 152.25528Q487.61972 152.25528 488.05722 151.91153Q488.49472 151.55215 488.5416 151.0209L489.57285 151.0209Q489.5416 151.56778 489.18222 152.06778Q488.83847 152.55215 488.26035 152.84903Q487.69785 153.1459 487.0416 153.1459Q485.74472 153.1459 484.9791 152.28653Q484.2291 151.41153 484.2291 149.91153L484.2291 149.72403Q484.2291 148.80215 484.55722 148.0834Q484.90097 147.36465 485.52597 146.97403Q486.1666 146.56778 487.0416 146.56778Q488.1041 146.56778 488.80722 147.2084Q489.52597 147.8334 489.57285 148.86465L488.5416 148.86465Q488.49472 148.23965 488.07285 147.84903Q487.65097 147.4584 487.0416 147.4584Q486.21347 147.4584 485.76035 148.05215Q485.30722 148.6459 485.30722 149.7709L485.30722 149.97403Q485.30722 151.06778 485.76035 151.66153Q486.21347 152.25528 487.0416 152.25528ZM491.9791 145.1459L491.9791 146.67715L493.15097 146.67715L493.15097 147.5209L491.9791 147.5209L491.9791 151.44278Q491.9791 151.8334 492.13535 152.0209Q492.2916 152.2084 492.6666 152.2084Q492.8541 152.2084 493.18222 152.1459L493.18222 153.0209Q492.76035 153.1459 492.3541 153.1459Q491.63535 153.1459 491.26035 152.7084Q490.88535 152.25528 490.88535 151.44278L490.88535 147.5209L489.7291 147.5209L489.7291 146.67715L490.88535 146.67715L490.88535 145.1459L491.9791 145.1459ZM495.68222 153.0209L494.6041 153.0209L494.6041 146.67715L495.68222 146.67715L495.68222 153.0209ZM494.51035 145.00528Q494.51035 144.73965 494.6666 144.55215Q494.83847 144.36465 495.15097 144.36465Q495.46347 144.36465 495.61972 144.55215Q495.7916 144.73965 495.7916 145.00528Q495.7916 145.25528 495.61972 145.44278Q495.46347 145.61465 495.15097 145.61465Q494.83847 145.61465 494.6666 145.44278Q494.51035 145.25528 494.51035 145.00528ZM497.21347 149.78653Q497.21347 148.86465 497.57285 148.11465Q497.94785 147.36465 498.6041 146.97403Q499.26035 146.56778 500.08847 146.56778Q501.38535 146.56778 502.18222 147.4584Q502.99472 148.34903 502.99472 149.84903L502.99472 149.92715Q502.99472 150.84903 502.63535 151.5834Q502.27597 152.31778 501.61972 152.73965Q500.96347 153.1459 500.1041 153.1459Q498.82285 153.1459 498.01035 152.25528Q497.21347 151.34903 497.21347 149.86465L497.21347 149.78653ZM498.30722 149.92715Q498.30722 150.97403 498.7916 151.61465Q499.2916 152.25528 500.1041 152.25528Q500.93222 152.25528 501.4166 151.61465Q501.90097 150.9584 501.90097 149.78653Q501.90097 148.75528 501.40097 148.11465Q500.9166 147.4584 500.08847 147.4584Q499.2916 147.4584 498.7916 148.09903Q498.30722 148.72403 498.30722 149.92715ZM505.52597 146.67715L505.55722 147.47403Q506.2916 146.56778 507.46347 146.56778Q509.4791 146.56778 509.49472 148.8334L509.49472 153.0209L508.40097 153.0209L508.40097 148.81778Q508.40097 148.1459 508.08847 147.81778Q507.7916 147.48965 507.13535 147.48965Q506.6041 147.48965 506.19785 147.7709Q505.80722 148.05215 505.58847 148.50528L505.58847 153.0209L504.51035 153.0209L504.51035 146.67715L505.52597 146.67715ZM515.0416 153.0209L515.0416 147.5209L514.0416 147.5209L514.0416 146.67715L515.0416 146.67715L515.0416 146.03653Q515.0416 145.00528 515.5729 144.4584Q516.11975 143.8959 517.11975 143.8959Q517.49475 143.8959 517.86975 143.98965L517.80725 144.88028Q517.526 144.81778 517.2291 144.81778Q516.6979 144.81778 516.401 145.13028Q516.11975 145.44278 516.11975 146.00528L516.11975 146.67715L517.4791 146.67715L517.4791 147.5209L516.11975 147.5209L516.11975 153.0209L515.0416 153.0209ZM521.5729 147.6459Q521.3229 147.61465 521.0416 147.61465Q519.9635 147.61465 519.5885 148.5209L519.5885 153.0209L518.5104 153.0209L518.5104 146.67715L519.55725 146.67715L519.5729 147.41153Q520.1041 146.56778 521.0885 146.56778Q521.401 146.56778 521.5729 146.6459L521.5729 147.6459ZM522.2135 149.78653Q522.2135 148.86465 522.5729 148.11465Q522.9479 147.36465 523.6041 146.97403Q524.2604 146.56778 525.0885 146.56778Q526.3854 146.56778 527.18225 147.4584Q527.99475 148.34903 527.99475 149.84903L527.99475 149.92715Q527.99475 150.84903 527.6354 151.5834Q527.276 152.31778 526.61975 152.73965Q525.9635 153.1459 525.1041 153.1459Q523.8229 153.1459 523.0104 152.25528Q522.2135 151.34903 522.2135 149.86465L522.2135 149.78653ZM523.30725 149.92715Q523.30725 150.97403 523.7916 151.61465Q524.2916 152.25528 525.1041 152.25528Q525.93225 152.25528 526.4166 151.61465Q526.901 150.9584 526.901 149.78653Q526.901 148.75528 526.401 148.11465Q525.9166 147.4584 525.0885 147.4584Q524.2916 147.4584 523.7916 148.09903Q523.30725 148.72403 523.30725 149.92715ZM530.526 146.67715L530.55725 147.38028Q531.24475 146.56778 532.43225 146.56778Q533.7604 146.56778 534.24475 147.5834Q534.55725 147.13028 535.05725 146.84903Q535.5729 146.56778 536.2604 146.56778Q538.3541 146.56778 538.3854 148.7709L538.3854 153.0209L537.30725 153.0209L537.30725 148.8334Q537.30725 148.16153 536.99475 147.8334Q536.68225 147.48965 535.9479 147.48965Q535.3385 147.48965 534.93225 147.84903Q534.5416 148.2084 534.4791 148.81778L534.4791 153.0209L533.401 153.0209L533.401 148.86465Q533.401 147.48965 532.0416 147.48965Q530.9791 147.48965 530.5885 148.3959L530.5885 153.0209L529.49475 153.0209L529.49475 146.67715L530.526 146.67715ZM544.9791 145.1459L544.9791 146.67715L546.151 146.67715L546.151 147.5209L544.9791 147.5209L544.9791 151.44278Q544.9791 151.8334 545.1354 152.0209Q545.2916 152.2084 545.6666 152.2084Q545.8541 152.2084 546.18225 152.1459L546.18225 153.0209Q545.7604 153.1459 545.3541 153.1459Q544.6354 153.1459 544.2604 152.7084Q543.8854 152.25528 543.8854 151.44278L543.8854 147.5209L542.7291 147.5209L542.7291 146.67715L543.8854 146.67715L543.8854 145.1459L544.9791 145.1459ZM548.5885 147.44278Q549.30725 146.56778 550.4635 146.56778Q552.4791 146.56778 552.49475 148.8334L552.49475 153.0209L551.401 153.0209L551.401 148.81778Q551.401 148.1459 551.0885 147.81778Q550.7916 147.48965 550.1354 147.48965Q549.6041 147.48965 549.1979 147.7709Q548.80725 148.05215 548.5885 148.50528L548.5885 153.0209L547.5104 153.0209L547.5104 144.0209L548.5885 144.0209L548.5885 147.44278ZM557.1354 153.1459Q555.8385 153.1459 555.026 152.30215Q554.2291 151.44278 554.2291 150.0209L554.2291 149.8334Q554.2291 148.88028 554.5885 148.1459Q554.9479 147.3959 555.5885 146.98965Q556.24475 146.56778 556.99475 146.56778Q558.2291 146.56778 558.9166 147.38028Q559.6041 148.19278 559.6041 149.7084L559.6041 150.16153L555.30725 150.16153Q555.3385 151.09903 555.8541 151.67715Q556.3854 152.25528 557.1979 152.25528Q557.7604 152.25528 558.151 152.0209Q558.55725 151.78653 558.86975 151.3959L559.526 151.91153Q558.7291 153.1459 557.1354 153.1459ZM556.99475 147.4584Q556.3385 147.4584 555.8854 147.94278Q555.4479 148.41153 555.3541 149.2709L558.526 149.2709L558.526 149.19278Q558.4791 148.36465 558.0729 147.91153Q557.68225 147.4584 556.99475 147.4584Z" fill-rule="nonzero"/><path fill="#000000" d="M453.24472 164.80215Q453.24472 163.31778 453.93222 162.44278Q454.61972 161.56778 455.74472 161.56778Q456.90097 161.56778 457.55722 162.38028L457.6041 161.67715L458.6041 161.67715L458.6041 167.86465Q458.6041 169.09903 457.86972 169.80215Q457.13535 170.5209 455.9166 170.5209Q455.2291 170.5209 454.57285 170.22403Q453.9166 169.92715 453.57285 169.42715L454.13535 168.7709Q454.82285 169.63028 455.83847 169.63028Q456.61972 169.63028 457.05722 169.17715Q457.51035 168.73965 457.51035 167.92715L457.51035 167.38028Q456.8541 168.1459 455.7291 168.1459Q454.61972 168.1459 453.93222 167.25528Q453.24472 166.34903 453.24472 164.80215ZM454.33847 164.92715Q454.33847 165.98965 454.77597 166.61465Q455.21347 167.22403 456.01035 167.22403Q457.02597 167.22403 457.51035 166.28653L457.51035 163.3959Q457.01035 162.48965 456.01035 162.48965Q455.2291 162.48965 454.77597 163.09903Q454.33847 163.7084 454.33847 164.92715ZM460.21347 164.78653Q460.21347 163.86465 460.57285 163.11465Q460.94785 162.36465 461.6041 161.97403Q462.26035 161.56778 463.08847 161.56778Q464.38535 161.56778 465.18222 162.4584Q465.99472 163.34903 465.99472 164.84903L465.99472 164.92715Q465.99472 165.84903 465.63535 166.5834Q465.27597 167.31778 464.61972 167.73965Q463.96347 168.1459 463.1041 168.1459Q461.82285 168.1459 461.01035 167.25528Q460.21347 166.34903 460.21347 164.86465L460.21347 164.78653ZM461.30722 164.92715Q461.30722 165.97403 461.7916 166.61465Q462.2916 167.25528 463.1041 167.25528Q463.93222 167.25528 464.4166 166.61465Q464.90097 165.9584 464.90097 164.78653Q464.90097 163.75528 464.40097 163.11465Q463.9166 162.4584 463.08847 162.4584Q462.2916 162.4584 461.7916 163.09903Q461.30722 163.72403 461.30722 164.92715ZM469.58847 166.55215L471.1666 161.67715L472.27597 161.67715L469.99472 168.0209L469.1666 168.0209L466.86972 161.67715L467.9791 161.67715L469.58847 166.55215ZM476.13535 168.1459Q474.83847 168.1459 474.02597 167.30215Q473.2291 166.44278 473.2291 165.0209L473.2291 164.8334Q473.2291 163.88028 473.58847 163.1459Q473.94785 162.3959 474.58847 161.98965Q475.24472 161.56778 475.99472 161.56778Q477.2291 161.56778 477.9166 162.38028Q478.6041 163.19278 478.6041 164.7084L478.6041 165.16153L474.30722 165.16153Q474.33847 166.09903 474.8541 166.67715Q475.38535 167.25528 476.19785 167.25528Q476.76035 167.25528 477.15097 167.0209Q477.55722 166.78653 477.86972 166.3959L478.52597 166.91153Q477.7291 168.1459 476.13535 168.1459ZM475.99472 162.4584Q475.33847 162.4584 474.88535 162.94278Q474.44785 163.41153 474.3541 164.2709L477.52597 164.2709L477.52597 164.19278Q477.4791 163.36465 477.07285 162.91153Q476.68222 162.4584 475.99472 162.4584ZM482.57285 162.6459Q482.32285 162.61465 482.0416 162.61465Q480.96347 162.61465 480.58847 163.5209L480.58847 168.0209L479.51035 168.0209L479.51035 161.67715L480.55722 161.67715L480.57285 162.41153Q481.1041 161.56778 482.08847 161.56778Q482.40097 161.56778 482.57285 161.6459L482.57285 162.6459ZM484.52597 161.67715L484.55722 162.47403Q485.2916 161.56778 486.46347 161.56778Q488.4791 161.56778 488.49472 163.8334L488.49472 168.0209L487.40097 168.0209L487.40097 163.81778Q487.40097 163.1459 487.08847 162.81778Q486.7916 162.48965 486.13535 162.48965Q485.6041 162.48965 485.19785 162.7709Q484.80722 163.05215 484.58847 163.50528L484.58847 168.0209L483.51035 168.0209L483.51035 161.67715L484.52597 161.67715ZM491.52597 161.67715L491.55722 162.38028Q492.24472 161.56778 493.43222 161.56778Q494.76035 161.56778 495.24472 162.5834Q495.55722 162.13028 496.05722 161.84903Q496.57285 161.56778 497.26035 161.56778Q499.3541 161.56778 499.38535 163.7709L499.38535 168.0209L498.30722 168.0209L498.30722 163.8334Q498.30722 163.16153 497.99472 162.8334Q497.68222 162.48965 496.94785 162.48965Q496.33847 162.48965 495.93222 162.84903Q495.5416 163.2084 495.4791 163.81778L495.4791 168.0209L494.40097 168.0209L494.40097 163.86465Q494.40097 162.48965 493.0416 162.48965Q491.9791 162.48965 491.58847 163.3959L491.58847 168.0209L490.49472 168.0209L490.49472 161.67715L491.52597 161.67715ZM504.13535 168.1459Q502.83847 168.1459 502.02597 167.30215Q501.2291 166.44278 501.2291 165.0209L501.2291 164.8334Q501.2291 163.88028 501.58847 163.1459Q501.94785 162.3959 502.58847 161.98965Q503.24472 161.56778 503.99472 161.56778Q505.2291 161.56778 505.9166 162.38028Q506.6041 163.19278 506.6041 164.7084L506.6041 165.16153L502.30722 165.16153Q502.33847 166.09903 502.8541 166.67715Q503.38535 167.25528 504.19785 167.25528Q504.76035 167.25528 505.15097 167.0209Q505.55722 166.78653 505.86972 166.3959L506.52597 166.91153Q505.7291 168.1459 504.13535 168.1459ZM503.99472 162.4584Q503.33847 162.4584 502.88535 162.94278Q502.44785 163.41153 502.3541 164.2709L505.52597 164.2709L505.52597 164.19278Q505.4791 163.36465 505.07285 162.91153Q504.68222 162.4584 503.99472 162.4584ZM508.52597 161.67715L508.55722 162.47403Q509.2916 161.56778 510.46347 161.56778Q512.4791 161.56778 512.49475 163.8334L512.49475 168.0209L511.40097 168.0209L511.40097 163.81778Q511.40097 163.1459 511.08847 162.81778Q510.7916 162.48965 510.13535 162.48965Q509.6041 162.48965 509.19785 162.7709Q508.80722 163.05215 508.58847 163.50528L508.58847 168.0209L507.51035 168.0209L507.51035 161.67715L508.52597 161.67715ZM515.9791 160.1459L515.9791 161.67715L517.151 161.67715L517.151 162.5209L515.9791 162.5209L515.9791 166.44278Q515.9791 166.8334 516.1354 167.0209Q516.2916 167.2084 516.6666 167.2084Q516.8541 167.2084 517.18225 167.1459L517.18225 168.0209Q516.7604 168.1459 516.3541 168.1459Q515.6354 168.1459 515.2604 167.7084Q514.8854 167.25528 514.8854 166.44278L514.8854 162.5209L513.7291 162.5209L513.7291 161.67715L514.8854 161.67715L514.8854 160.1459L515.9791 160.1459Z" fill-rule="nonzero"/><path fill="#ffe599" d="M432.68222 183.5209C432.68222 182.96863 433.12994 182.5209 433.68222 182.5209L443.68222 182.5209C444.2345 182.5209 444.68222 182.96863 444.68222 183.5209L444.68222 193.5209C444.68222 194.0732 444.2345 194.5209 443.68222 194.5209L433.68222 194.5209C433.12994 194.5209 432.68222 194.0732 432.68222 193.5209Z" fill-rule="nonzero"/><path fill="#000000" d="M454.7916 189.67715L454.7916 193.0209L453.6666 193.0209L453.6666 184.48965L456.82285 184.48965Q458.21347 184.48965 459.01035 185.2084Q459.80722 185.91153 459.80722 187.09903Q459.80722 188.3334 459.02597 189.00528Q458.26035 189.67715 456.80722 189.67715L454.7916 189.67715ZM454.7916 188.75528L456.82285 188.75528Q457.7291 188.75528 458.19785 188.3334Q458.68222 187.91153 458.68222 187.11465Q458.68222 186.34903 458.19785 185.8959Q457.7291 185.42715 456.88535 185.41153L454.7916 185.41153L454.7916 188.75528ZM464.13535 193.1459Q462.83847 193.1459 462.02597 192.30215Q461.2291 191.44278 461.2291 190.0209L461.2291 189.8334Q461.2291 188.88028 461.58847 188.1459Q461.94785 187.3959 462.58847 186.98965Q463.24472 186.56778 463.99472 186.56778Q465.2291 186.56778 465.9166 187.38028Q466.6041 188.19278 466.6041 189.7084L466.6041 190.16153L462.30722 190.16153Q462.33847 191.09903 462.8541 191.67715Q463.38535 192.25528 464.19785 192.25528Q464.76035 192.25528 465.15097 192.0209Q465.55722 191.78653 465.86972 191.3959L466.52597 191.91153Q465.7291 193.1459 464.13535 193.1459ZM463.99472 187.4584Q463.33847 187.4584 462.88535 187.94278Q462.44785 188.41153 462.3541 189.2709L465.52597 189.2709L465.52597 189.19278Q465.4791 188.36465 465.07285 187.91153Q464.68222 187.4584 463.99472 187.4584ZM470.13535 193.1459Q468.83847 193.1459 468.02597 192.30215Q467.2291 191.44278 467.2291 190.0209L467.2291 189.8334Q467.2291 188.88028 467.58847 188.1459Q467.94785 187.3959 468.58847 186.98965Q469.24472 186.56778 469.99472 186.56778Q471.2291 186.56778 471.9166 187.38028Q472.6041 188.19278 472.6041 189.7084L472.6041 190.16153L468.30722 190.16153Q468.33847 191.09903 468.8541 191.67715Q469.38535 192.25528 470.19785 192.25528Q470.76035 192.25528 471.15097 192.0209Q471.55722 191.78653 471.86972 191.3959L472.52597 191.91153Q471.7291 193.1459 470.13535 193.1459ZM469.99472 187.4584Q469.33847 187.4584 468.88535 187.94278Q468.44785 188.41153 468.3541 189.2709L471.52597 189.2709L471.52597 189.19278Q471.4791 188.36465 471.07285 187.91153Q470.68222 187.4584 469.99472 187.4584ZM476.57285 187.6459Q476.32285 187.61465 476.0416 187.61465Q474.96347 187.61465 474.58847 188.5209L474.58847 193.0209L473.51035 193.0209L473.51035 186.67715L474.55722 186.67715L474.57285 187.41153Q475.1041 186.56778 476.08847 186.56778Q476.40097 186.56778 476.57285 186.6459L476.57285 187.6459ZM485.8541 189.92715Q485.8541 191.36465 485.19785 192.25528Q484.5416 193.1459 483.40097 193.1459Q482.24472 193.1459 481.58847 192.41153L481.58847 195.4584L480.51035 195.4584L480.51035 186.67715L481.49472 186.67715L481.5416 187.38028Q482.21347 186.56778 483.38535 186.56778Q484.52597 186.56778 485.18222 187.42715Q485.8541 188.28653 485.8541 189.81778L485.8541 189.92715ZM484.77597 189.80215Q484.77597 188.72403 484.30722 188.11465Q483.8541 187.48965 483.05722 187.48965Q482.07285 187.48965 481.58847 188.34903L481.58847 191.38028Q482.07285 192.25528 483.07285 192.25528Q483.8541 192.25528 484.30722 191.6459Q484.77597 191.0209 484.77597 189.80215ZM490.57285 187.6459Q490.32285 187.61465 490.0416 187.61465Q488.96347 187.61465 488.58847 188.5209L488.58847 193.0209L487.51035 193.0209L487.51035 186.67715L488.55722 186.67715L488.57285 187.41153Q489.1041 186.56778 490.08847 186.56778Q490.40097 186.56778 490.57285 186.6459L490.57285 187.6459ZM494.13535 193.1459Q492.83847 193.1459 492.02597 192.30215Q491.2291 191.44278 491.2291 190.0209L491.2291 189.8334Q491.2291 188.88028 491.58847 188.1459Q491.94785 187.3959 492.58847 186.98965Q493.24472 186.56778 493.99472 186.56778Q495.2291 186.56778 495.9166 187.38028Q496.6041 188.19278 496.6041 189.7084L496.6041 190.16153L492.30722 190.16153Q492.33847 191.09903 492.8541 191.67715Q493.38535 192.25528 494.19785 192.25528Q494.76035 192.25528 495.15097 192.0209Q495.55722 191.78653 495.86972 191.3959L496.52597 191.91153Q495.7291 193.1459 494.13535 193.1459ZM493.99472 187.4584Q493.33847 187.4584 492.88535 187.94278Q492.44785 188.41153 492.3541 189.2709L495.52597 189.2709L495.52597 189.19278Q495.4791 188.36465 495.07285 187.91153Q494.68222 187.4584 493.99472 187.4584ZM501.19785 191.3334Q501.19785 190.8959 500.8541 190.66153Q500.52597 190.41153 499.69785 190.23965Q498.88535 190.06778 498.40097 189.81778Q497.9166 189.56778 497.68222 189.23965Q497.46347 188.8959 497.46347 188.42715Q497.46347 187.6459 498.11972 187.11465Q498.77597 186.56778 499.80722 186.56778Q500.88535 186.56778 501.5416 187.13028Q502.21347 187.67715 502.21347 188.53653L501.13535 188.53653Q501.13535 188.09903 500.74472 187.78653Q500.36972 187.4584 499.80722 187.4584Q499.21347 187.4584 498.86972 187.72403Q498.5416 187.97403 498.5416 188.38028Q498.5416 188.7709 498.8541 188.97403Q499.1666 189.17715 499.9791 189.36465Q500.7916 189.53653 501.2916 189.78653Q501.7916 190.03653 502.02597 190.3959Q502.27597 190.75528 502.27597 191.25528Q502.27597 192.11465 501.58847 192.63028Q500.9166 193.1459 499.83847 193.1459Q499.07285 193.1459 498.4791 192.88028Q497.90097 192.59903 497.57285 192.11465Q497.24472 191.63028 497.24472 191.06778L498.32285 191.06778Q498.3541 191.61465 498.76035 191.94278Q499.1666 192.25528 499.83847 192.25528Q500.44785 192.25528 500.82285 192.00528Q501.19785 191.75528 501.19785 191.3334ZM507.19785 191.3334Q507.19785 190.8959 506.8541 190.66153Q506.52597 190.41153 505.69785 190.23965Q504.88535 190.06778 504.40097 189.81778Q503.9166 189.56778 503.68222 189.23965Q503.46347 188.8959 503.46347 188.42715Q503.46347 187.6459 504.11972 187.11465Q504.77597 186.56778 505.80722 186.56778Q506.88535 186.56778 507.5416 187.13028Q508.21347 187.67715 508.21347 188.53653L507.13535 188.53653Q507.13535 188.09903 506.74472 187.78653Q506.36972 187.4584 505.80722 187.4584Q505.21347 187.4584 504.86972 187.72403Q504.5416 187.97403 504.5416 188.38028Q504.5416 188.7709 504.8541 188.97403Q505.1666 189.17715 505.9791 189.36465Q506.7916 189.53653 507.2916 189.78653Q507.7916 190.03653 508.02597 190.3959Q508.27597 190.75528 508.27597 191.25528Q508.27597 192.11465 507.58847 192.63028Q506.9166 193.1459 505.83847 193.1459Q505.07285 193.1459 504.4791 192.88028Q503.90097 192.59903 503.57285 192.11465Q503.24472 191.63028 503.24472 191.06778L504.32285 191.06778Q504.3541 191.61465 504.76035 191.94278Q505.1666 192.25528 505.83847 192.25528Q506.44785 192.25528 506.82285 192.00528Q507.19785 191.75528 507.19785 191.3334ZM513.4166 192.3959Q512.7916 193.1459 511.55722 193.1459Q510.5416 193.1459 510.01035 192.55215Q509.4791 191.9584 509.4791 190.80215L509.4791 186.67715L510.55722 186.67715L510.55722 190.7709Q510.55722 192.22403 511.7291 192.22403Q512.9791 192.22403 513.3854 191.28653L513.3854 186.67715L514.4791 186.67715L514.4791 193.0209L513.4479 193.0209L513.4166 192.3959ZM519.5729 187.6459Q519.3229 187.61465 519.0416 187.61465Q517.9635 187.61465 517.5885 188.5209L517.5885 193.0209L516.5104 193.0209L516.5104 186.67715L517.55725 186.67715L517.5729 187.41153Q518.1041 186.56778 519.0885 186.56778Q519.401 186.56778 519.5729 186.6459L519.5729 187.6459ZM523.1354 193.1459Q521.8385 193.1459 521.026 192.30215Q520.2291 191.44278 520.2291 190.0209L520.2291 189.8334Q520.2291 188.88028 520.5885 188.1459Q520.9479 187.3959 521.5885 186.98965Q522.24475 186.56778 522.99475 186.56778Q524.2291 186.56778 524.9166 187.38028Q525.6041 188.19278 525.6041 189.7084L525.6041 190.16153L521.30725 190.16153Q521.3385 191.09903 521.8541 191.67715Q522.3854 192.25528 523.1979 192.25528Q523.7604 192.25528 524.151 192.0209Q524.55725 191.78653 524.86975 191.3959L525.526 191.91153Q524.7291 193.1459 523.1354 193.1459ZM522.99475 187.4584Q522.3385 187.4584 521.8854 187.94278Q521.4479 188.41153 521.3541 189.2709L524.526 189.2709L524.526 189.19278Q524.4791 188.36465 524.0729 187.91153Q523.68225 187.4584 522.99475 187.4584Z" fill-rule="nonzero"/><path fill="#b6d7a8" d="M432.68222 208.5209C432.68222 207.96863 433.12994 207.5209 433.68222 207.5209L443.68222 207.5209C444.2345 207.5209 444.68222 207.96863 444.68222 208.5209L444.68222 218.5209C444.68222 219.0732 444.2345 219.5209 443.68222 219.5209L433.68222 219.5209C433.12994 219.5209 432.68222 219.0732 432.68222 218.5209Z" fill-rule="nonzero"/><path fill="#000000" d="M455.51035 215.3334L455.68222 216.4584L455.9166 215.44278L457.6041 209.48965L458.55722 209.48965L460.19785 215.44278L460.43222 216.47403L460.61972 215.31778L461.94785 209.48965L463.07285 209.48965L461.01035 218.0209L459.9791 218.0209L458.21347 211.80215L458.08847 211.1459L457.94785 211.80215L456.13535 218.0209L455.1041 218.0209L453.0416 209.48965L454.1666 209.48965L455.51035 215.3334ZM467.13535 218.1459Q465.83847 218.1459 465.02597 217.30215Q464.2291 216.44278 464.2291 215.0209L464.2291 214.8334Q464.2291 213.88028 464.58847 213.1459Q464.94785 212.3959 465.58847 211.98965Q466.24472 211.56778 466.99472 211.56778Q468.2291 211.56778 468.9166 212.38028Q469.6041 213.19278 469.6041 214.7084L469.6041 215.16153L465.30722 215.16153Q465.33847 216.09903 465.8541 216.67715Q466.38535 217.25528 467.19785 217.25528Q467.76035 217.25528 468.15097 217.0209Q468.55722 216.78653 468.86972 216.3959L469.52597 216.91153Q468.7291 218.1459 467.13535 218.1459ZM466.99472 212.4584Q466.33847 212.4584 465.88535 212.94278Q465.44785 213.41153 465.3541 214.2709L468.52597 214.2709L468.52597 214.19278Q468.4791 213.36465 468.07285 212.91153Q467.68222 212.4584 466.99472 212.4584ZM471.68222 218.0209L470.6041 218.0209L470.6041 209.0209L471.68222 209.0209L471.68222 218.0209ZM474.68222 218.0209L473.6041 218.0209L473.6041 209.0209L474.68222 209.0209L474.68222 218.0209ZM481.86972 214.92715Q481.86972 216.38028 481.19785 217.2709Q480.5416 218.1459 479.4166 218.1459Q478.21347 218.1459 477.55722 217.28653L477.49472 218.0209L476.51035 218.0209L476.51035 209.0209L477.58847 209.0209L477.58847 212.38028Q478.24472 211.56778 479.40097 211.56778Q480.55722 211.56778 481.21347 212.44278Q481.86972 213.30215 481.86972 214.8334L481.86972 214.92715ZM480.7916 214.80215Q480.7916 213.69278 480.3541 213.09903Q479.93222 212.48965 479.13535 212.48965Q478.05722 212.48965 477.58847 213.47403L477.58847 216.22403Q478.08847 217.22403 479.13535 217.22403Q479.9166 217.22403 480.3541 216.61465Q480.7916 216.00528 480.7916 214.80215ZM486.13535 218.1459Q484.83847 218.1459 484.02597 217.30215Q483.2291 216.44278 483.2291 215.0209L483.2291 214.8334Q483.2291 213.88028 483.58847 213.1459Q483.94785 212.3959 484.58847 211.98965Q485.24472 211.56778 485.99472 211.56778Q487.2291 211.56778 487.9166 212.38028Q488.6041 213.19278 488.6041 214.7084L488.6041 215.16153L484.30722 215.16153Q484.33847 216.09903 484.8541 216.67715Q485.38535 217.25528 486.19785 217.25528Q486.76035 217.25528 487.15097 217.0209Q487.55722 216.78653 487.86972 216.3959L488.52597 216.91153Q487.7291 218.1459 486.13535 218.1459ZM485.99472 212.4584Q485.33847 212.4584 484.88535 212.94278Q484.44785 213.41153 484.3541 214.2709L487.52597 214.2709L487.52597 214.19278Q487.4791 213.36465 487.07285 212.91153Q486.68222 212.4584 485.99472 212.4584ZM490.68222 218.0209L489.6041 218.0209L489.6041 211.67715L490.68222 211.67715L490.68222 218.0209ZM489.51035 210.00528Q489.51035 209.73965 489.6666 209.55215Q489.83847 209.36465 490.15097 209.36465Q490.46347 209.36465 490.61972 209.55215Q490.7916 209.73965 490.7916 210.00528Q490.7916 210.25528 490.61972 210.44278Q490.46347 210.61465 490.15097 210.61465Q489.83847 210.61465 489.6666 210.44278Q489.51035 210.25528 489.51035 210.00528ZM493.52597 211.67715L493.55722 212.47403Q494.2916 211.56778 495.46347 211.56778Q497.4791 211.56778 497.49472 213.8334L497.49472 218.0209L496.40097 218.0209L496.40097 213.81778Q496.40097 213.1459 496.08847 212.81778Q495.7916 212.48965 495.13535 212.48965Q494.6041 212.48965 494.19785 212.7709Q493.80722 213.05215 493.58847 213.50528L493.58847 218.0209L492.51035 218.0209L492.51035 211.67715L493.52597 211.67715ZM499.24472 214.80215Q499.24472 213.31778 499.93222 212.44278Q500.61972 211.56778 501.74472 211.56778Q502.90097 211.56778 503.55722 212.38028L503.6041 211.67715L504.6041 211.67715L504.6041 217.86465Q504.6041 219.09903 503.86972 219.80215Q503.13535 220.5209 501.9166 220.5209Q501.2291 220.5209 500.57285 220.22403Q499.9166 219.92715 499.57285 219.42715L500.13535 218.7709Q500.82285 219.63028 501.83847 219.63028Q502.61972 219.63028 503.05722 219.17715Q503.51035 218.73965 503.51035 217.92715L503.51035 217.38028Q502.8541 218.1459 501.7291 218.1459Q500.61972 218.1459 499.93222 217.25528Q499.24472 216.34903 499.24472 214.80215ZM500.33847 214.92715Q500.33847 215.98965 500.77597 216.61465Q501.21347 217.22403 502.01035 217.22403Q503.02597 217.22403 503.51035 216.28653L503.51035 213.3959Q503.01035 212.48965 502.01035 212.48965Q501.2291 212.48965 500.77597 213.09903Q500.33847 213.7084 500.33847 214.92715ZM509.21347 214.78653Q509.21347 213.86465 509.57285 213.11465Q509.94785 212.36465 510.6041 211.97403Q511.26035 211.56778 512.0885 211.56778Q513.3854 211.56778 514.18225 212.4584Q514.99475 213.34903 514.99475 214.84903L514.99475 214.92715Q514.99475 215.84903 514.6354 216.5834Q514.276 217.31778 513.61975 217.73965Q512.9635 218.1459 512.1041 218.1459Q510.82285 218.1459 510.01035 217.25528Q509.21347 216.34903 509.21347 214.86465L509.21347 214.78653ZM510.30722 214.92715Q510.30722 215.97403 510.7916 216.61465Q511.2916 217.25528 512.1041 217.25528Q512.93225 217.25528 513.4166 216.61465Q513.901 215.9584 513.901 214.78653Q513.901 213.75528 513.401 213.11465Q512.9166 212.4584 512.0885 212.4584Q511.2916 212.4584 510.7916 213.09903Q510.30722 213.72403 510.30722 214.92715ZM517.0416 218.0209L517.0416 212.5209L516.0416 212.5209L516.0416 211.67715L517.0416 211.67715L517.0416 211.03653Q517.0416 210.00528 517.5729 209.4584Q518.11975 208.8959 519.11975 208.8959Q519.49475 208.8959 519.86975 208.98965L519.80725 209.88028Q519.526 209.81778 519.2291 209.81778Q518.6979 209.81778 518.401 210.13028Q518.11975 210.44278 518.11975 211.00528L518.11975 211.67715L519.4791 211.67715L519.4791 212.5209L518.11975 212.5209L518.11975 218.0209L517.0416 218.0209ZM524.526 211.67715L524.55725 212.38028Q525.24475 211.56778 526.43225 211.56778Q527.7604 211.56778 528.24475 212.5834Q528.55725 212.13028 529.05725 211.84903Q529.5729 211.56778 530.2604 211.56778Q532.3541 211.56778 532.3854 213.7709L532.3854 218.0209L531.30725 218.0209L531.30725 213.8334Q531.30725 213.16153 530.99475 212.8334Q530.68225 212.48965 529.9479 212.48965Q529.3385 212.48965 528.93225 212.84903Q528.5416 213.2084 528.4791 213.81778L528.4791 218.0209L527.401 218.0209L527.401 213.86465Q527.401 212.48965 526.0416 212.48965Q524.9791 212.48965 524.5885 213.3959L524.5885 218.0209L523.49475 218.0209L523.49475 211.67715L524.526 211.67715ZM536.5729 216.42715L538.05725 211.67715L539.2135 211.67715L536.6666 219.00528Q536.0729 220.5834 534.7916 220.5834L534.5729 220.56778L534.18225 220.48965L534.18225 219.61465L534.4635 219.63028Q535.026 219.63028 535.3229 219.41153Q535.6354 219.19278 535.8385 218.59903L536.0729 217.94278L533.80725 211.67715L534.99475 211.67715L536.5729 216.42715ZM544.1979 216.3334Q544.1979 215.8959 543.8541 215.66153Q543.526 215.41153 542.6979 215.23965Q541.8854 215.06778 541.401 214.81778Q540.9166 214.56778 540.68225 214.23965Q540.4635 213.8959 540.4635 213.42715Q540.4635 212.6459 541.11975 212.11465Q541.776 211.56778 542.80725 211.56778Q543.8854 211.56778 544.5416 212.13028Q545.2135 212.67715 545.2135 213.53653L544.1354 213.53653Q544.1354 213.09903 543.74475 212.78653Q543.36975 212.4584 542.80725 212.4584Q542.2135 212.4584 541.86975 212.72403Q541.5416 212.97403 541.5416 213.38028Q541.5416 213.7709 541.8541 213.97403Q542.1666 214.17715 542.9791 214.36465Q543.7916 214.53653 544.2916 214.78653Q544.7916 215.03653 545.026 215.3959Q545.276 215.75528 545.276 216.25528Q545.276 217.11465 544.5885 217.63028Q543.9166 218.1459 542.8385 218.1459Q542.0729 218.1459 541.4791 217.88028Q540.901 217.59903 540.5729 217.11465Q540.24475 216.63028 540.24475 216.06778L541.3229 216.06778Q541.3541 216.61465 541.7604 216.94278Q542.1666 217.25528 542.8385 217.25528Q543.4479 217.25528 543.8229 217.00528Q544.1979 216.75528 544.1979 216.3334ZM549.1354 218.1459Q547.8385 218.1459 547.026 217.30215Q546.2291 216.44278 546.2291 215.0209L546.2291 214.8334Q546.2291 213.88028 546.5885 213.1459Q546.9479 212.3959 547.5885 211.98965Q548.24475 211.56778 548.99475 211.56778Q550.2291 211.56778 550.9166 212.38028Q551.6041 213.19278 551.6041 214.7084L551.6041 215.16153L547.30725 215.16153Q547.3385 216.09903 547.8541 216.67715Q548.3854 217.25528 549.1979 217.25528Q549.7604 217.25528 550.151 217.0209Q550.55725 216.78653 550.86975 216.3959L551.526 216.91153Q550.7291 218.1459 549.1354 218.1459ZM548.99475 212.4584Q548.3385 212.4584 547.8854 212.94278Q547.4479 213.41153 547.3541 214.2709L550.526 214.2709L550.526 214.19278Q550.4791 213.36465 550.0729 212.91153Q549.68225 212.4584 548.99475 212.4584ZM553.68225 218.0209L552.6041 218.0209L552.6041 209.0209L553.68225 209.0209L553.68225 218.0209ZM556.0416 218.0209L556.0416 212.5209L555.0416 212.5209L555.0416 211.67715L556.0416 211.67715L556.0416 211.03653Q556.0416 210.00528 556.5729 209.4584Q557.11975 208.8959 558.11975 208.8959Q558.49475 208.8959 558.86975 208.98965L558.80725 209.88028Q558.526 209.81778 558.2291 209.81778Q557.6979 209.81778 557.401 210.13028Q557.11975 210.44278 557.11975 211.00528L557.11975 211.67715L558.4791 211.67715L558.4791 212.5209L557.11975 212.5209L557.11975 218.0209L556.0416 218.0209Z" fill-rule="nonzero"/><path fill="#000000" d="M457.4166 233.0209Q457.32285 232.8334 457.26035 232.34903Q456.51035 233.1459 455.46347 233.1459Q454.52597 233.1459 453.9166 232.61465Q453.32285 232.0834 453.32285 231.25528Q453.32285 230.2709 454.07285 229.72403Q454.82285 229.17715 456.19785 229.17715L457.24472 229.17715L457.24472 228.67715Q457.24472 228.11465 456.90097 227.78653Q456.57285 227.44278 455.90097 227.44278Q455.32285 227.44278 454.93222 227.73965Q454.5416 228.0209 454.5416 228.44278L453.44785 228.44278Q453.44785 227.9584 453.77597 227.5209Q454.11972 227.0834 454.69785 226.8334Q455.27597 226.56778 455.96347 226.56778Q457.07285 226.56778 457.68222 227.11465Q458.30722 227.66153 458.33847 228.61465L458.33847 231.53653Q458.33847 232.41153 458.55722 232.92715L458.55722 233.0209L457.4166 233.0209ZM455.61972 232.19278Q456.13535 232.19278 456.58847 231.92715Q457.0416 231.66153 457.24472 231.23965L457.24472 229.94278L456.40097 229.94278Q454.40097 229.94278 454.40097 231.11465Q454.40097 231.61465 454.74472 231.91153Q455.08847 232.19278 455.61972 232.19278ZM461.52597 226.67715L461.55722 227.47403Q462.2916 226.56778 463.46347 226.56778Q465.4791 226.56778 465.49472 228.8334L465.49472 233.0209L464.40097 233.0209L464.40097 228.81778Q464.40097 228.1459 464.08847 227.81778Q463.7916 227.48965 463.13535 227.48965Q462.6041 227.48965 462.19785 227.7709Q461.80722 228.05215 461.58847 228.50528L461.58847 233.0209L460.51035 233.0209L460.51035 226.67715L461.52597 226.67715ZM467.24472 229.80215Q467.24472 228.3334 467.93222 227.4584Q468.61972 226.56778 469.74472 226.56778Q470.8541 226.56778 471.51035 227.31778L471.51035 224.0209L472.58847 224.0209L472.58847 233.0209L471.58847 233.0209L471.5416 232.3334Q470.88535 233.1459 469.7291 233.1459Q468.63535 233.1459 467.93222 232.23965Q467.24472 231.3334 467.24472 229.88028L467.24472 229.80215ZM468.32285 229.92715Q468.32285 231.00528 468.76035 231.61465Q469.21347 232.22403 469.99472 232.22403Q471.02597 232.22403 471.51035 231.28653L471.51035 228.38028Q471.02597 227.48965 470.01035 227.48965Q469.21347 227.48965 468.76035 228.09903Q468.32285 228.7084 468.32285 229.92715ZM478.52597 226.67715L478.55722 227.38028Q479.24472 226.56778 480.43222 226.56778Q481.76035 226.56778 482.24472 227.5834Q482.55722 227.13028 483.05722 226.84903Q483.57285 226.56778 484.26035 226.56778Q486.3541 226.56778 486.38535 228.7709L486.38535 233.0209L485.30722 233.0209L485.30722 228.8334Q485.30722 228.16153 484.99472 227.8334Q484.68222 227.48965 483.94785 227.48965Q483.33847 227.48965 482.93222 227.84903Q482.5416 228.2084 482.4791 228.81778L482.4791 233.0209L481.40097 233.0209L481.40097 228.86465Q481.40097 227.48965 480.0416 227.48965Q478.9791 227.48965 478.58847 228.3959L478.58847 233.0209L477.49472 233.0209L477.49472 226.67715L478.52597 226.67715ZM490.57285 231.42715L492.05722 226.67715L493.21347 226.67715L490.6666 234.00528Q490.07285 235.5834 488.7916 235.5834L488.57285 235.56778L488.18222 235.48965L488.18222 234.61465L488.46347 234.63028Q489.02597 234.63028 489.32285 234.41153Q489.63535 234.19278 489.83847 233.59903L490.07285 232.94278L487.80722 226.67715L488.99472 226.67715L490.57285 231.42715ZM498.0416 233.0209L498.0416 227.5209L497.0416 227.5209L497.0416 226.67715L498.0416 226.67715L498.0416 226.03653Q498.0416 225.00528 498.57285 224.4584Q499.11972 223.8959 500.11972 223.8959Q500.49472 223.8959 500.86972 223.98965L500.80722 224.88028Q500.52597 224.81778 500.2291 224.81778Q499.69785 224.81778 499.40097 225.13028Q499.11972 225.44278 499.11972 226.00528L499.11972 226.67715L500.4791 226.67715L500.4791 227.5209L499.11972 227.5209L499.11972 233.0209L498.0416 233.0209ZM505.4166 233.0209Q505.32285 232.8334 505.26035 232.34903Q504.51035 233.1459 503.46347 233.1459Q502.52597 233.1459 501.9166 232.61465Q501.32285 232.0834 501.32285 231.25528Q501.32285 230.2709 502.07285 229.72403Q502.82285 229.17715 504.19785 229.17715L505.24472 229.17715L505.24472 228.67715Q505.24472 228.11465 504.90097 227.78653Q504.57285 227.44278 503.90097 227.44278Q503.32285 227.44278 502.93222 227.73965Q502.5416 228.0209 502.5416 228.44278L501.44785 228.44278Q501.44785 227.9584 501.77597 227.5209Q502.11972 227.0834 502.69785 226.8334Q503.27597 226.56778 503.96347 226.56778Q505.07285 226.56778 505.68222 227.11465Q506.30722 227.66153 506.33847 228.61465L506.33847 231.53653Q506.33847 232.41153 506.55722 232.92715L506.55722 233.0209L505.4166 233.0209ZM503.61972 232.19278Q504.13535 232.19278 504.58847 231.92715Q505.0416 231.66153 505.24472 231.23965L505.24472 229.94278L504.40097 229.94278Q502.40097 229.94278 502.40097 231.11465Q502.40097 231.61465 502.74472 231.91153Q503.08847 232.19278 503.61972 232.19278ZM509.52597 226.67715L509.55722 227.38028Q510.24472 226.56778 511.43222 226.56778Q512.7604 226.56778 513.24475 227.5834Q513.55725 227.13028 514.05725 226.84903Q514.5729 226.56778 515.2604 226.56778Q517.3541 226.56778 517.3854 228.7709L517.3854 233.0209L516.30725 233.0209L516.30725 228.8334Q516.30725 228.16153 515.99475 227.8334Q515.68225 227.48965 514.9479 227.48965Q514.3385 227.48965 513.93225 227.84903Q513.5416 228.2084 513.4791 228.81778L513.4791 233.0209L512.401 233.0209L512.401 228.86465Q512.401 227.48965 511.0416 227.48965Q509.9791 227.48965 509.58847 228.3959L509.58847 233.0209L508.49472 233.0209L508.49472 226.67715L509.52597 226.67715ZM520.68225 233.0209L519.6041 233.0209L519.6041 226.67715L520.68225 226.67715L520.68225 233.0209ZM519.5104 225.00528Q519.5104 224.73965 519.6666 224.55215Q519.8385 224.36465 520.151 224.36465Q520.4635 224.36465 520.61975 224.55215Q520.7916 224.73965 520.7916 225.00528Q520.7916 225.25528 520.61975 225.44278Q520.4635 225.61465 520.151 225.61465Q519.8385 225.61465 519.6666 225.44278Q519.5104 225.25528 519.5104 225.00528ZM523.68225 233.0209L522.6041 233.0209L522.6041 224.0209L523.68225 224.0209L523.68225 233.0209ZM527.5729 231.42715L529.05725 226.67715L530.2135 226.67715L527.6666 234.00528Q527.0729 235.5834 525.7916 235.5834L525.5729 235.56778L525.18225 235.48965L525.18225 234.61465L525.4635 234.63028Q526.026 234.63028 526.3229 234.41153Q526.6354 234.19278 526.8385 233.59903L527.0729 232.94278L524.80725 226.67715L525.99475 226.67715L527.5729 231.42715Z" fill-rule="nonzero"/><path fill="#d5a6bd" d="M432.68222 248.5209C432.68222 247.96863 433.12994 247.5209 433.68222 247.5209L443.68222 247.5209C444.2345 247.5209 444.68222 247.96863 444.68222 248.5209L444.68222 258.5209C444.68222 259.07318 444.2345 259.5209 443.68222 259.5209L433.68222 259.5209C433.12994 259.5209 432.68222 259.07318 432.68222 258.5209Z" fill-rule="nonzero"/><path fill="#000000" d="M460.2291 254.03653Q460.2291 255.28653 459.80722 256.22403Q459.38535 257.1459 458.6041 257.6459Q457.83847 258.1459 456.80722 258.1459Q455.80722 258.1459 455.02597 257.6459Q454.24472 257.1459 453.80722 256.23965Q453.38535 255.31778 453.36972 254.09903L453.36972 253.48965Q453.36972 252.25528 453.7916 251.31778Q454.2291 250.38028 455.01035 249.88028Q455.7916 249.36465 456.80722 249.36465Q457.82285 249.36465 458.6041 249.86465Q459.38535 250.36465 459.80722 251.30215Q460.2291 252.23965 460.2291 253.48965L460.2291 254.03653ZM459.11972 253.47403Q459.11972 251.9584 458.51035 251.1459Q457.90097 250.3334 456.80722 250.3334Q455.7291 250.3334 455.11972 251.1459Q454.51035 251.9584 454.49472 253.3959L454.49472 254.03653Q454.49472 255.50528 455.1041 256.34903Q455.7291 257.17715 456.80722 257.17715Q457.90097 257.17715 458.49472 256.3959Q459.1041 255.59903 459.11972 254.11465L459.11972 253.47403ZM462.9791 250.1459L462.9791 251.67715L464.15097 251.67715L464.15097 252.5209L462.9791 252.5209L462.9791 256.44278Q462.9791 256.8334 463.13535 257.0209Q463.2916 257.2084 463.6666 257.2084Q463.8541 257.2084 464.18222 257.1459L464.18222 258.0209Q463.76035 258.1459 463.3541 258.1459Q462.63535 258.1459 462.26035 257.7084Q461.88535 257.25528 461.88535 256.44278L461.88535 252.5209L460.7291 252.5209L460.7291 251.67715L461.88535 251.67715L461.88535 250.1459L462.9791 250.1459ZM466.58847 252.44278Q467.30722 251.56778 468.46347 251.56778Q470.4791 251.56778 470.49472 253.8334L470.49472 258.0209L469.40097 258.0209L469.40097 253.81778Q469.40097 253.1459 469.08847 252.81778Q468.7916 252.48965 468.13535 252.48965Q467.6041 252.48965 467.19785 252.7709Q466.80722 253.05215 466.58847 253.50528L466.58847 258.0209L465.51035 258.0209L465.51035 249.0209L466.58847 249.0209L466.58847 252.44278ZM475.13535 258.1459Q473.83847 258.1459 473.02597 257.30215Q472.2291 256.44278 472.2291 255.0209L472.2291 254.8334Q472.2291 253.88028 472.58847 253.1459Q472.94785 252.3959 473.58847 251.98965Q474.24472 251.56778 474.99472 251.56778Q476.2291 251.56778 476.9166 252.38028Q477.6041 253.19278 477.6041 254.7084L477.6041 255.16153L473.30722 255.16153Q473.33847 256.09903 473.8541 256.67715Q474.38535 257.25528 475.19785 257.25528Q475.76035 257.25528 476.15097 257.0209Q476.55722 256.78653 476.86972 256.3959L477.52597 256.91153Q476.7291 258.1459 475.13535 258.1459ZM474.99472 252.4584Q474.33847 252.4584 473.88535 252.94278Q473.44785 253.41153 473.3541 254.2709L476.52597 254.2709L476.52597 254.19278Q476.4791 253.36465 476.07285 252.91153Q475.68222 252.4584 474.99472 252.4584ZM481.57285 252.6459Q481.32285 252.61465 481.0416 252.61465Q479.96347 252.61465 479.58847 253.5209L479.58847 258.0209L478.51035 258.0209L478.51035 251.67715L479.55722 251.67715L479.57285 252.41153Q480.1041 251.56778 481.08847 251.56778Q481.40097 251.56778 481.57285 251.6459L481.57285 252.6459Z" fill-rule="nonzero"/></svg>