<svg version="1.1" viewBox="0.0 0.0 600.0 371.0" fill="none" stroke="none" stroke-linecap="square" stroke-miterlimit="10" width="600" height="371" xmlns:xlink="http://www.w3.org/1999/xlink" xmlns="http://www.w3.org/2000/svg"><path fill="#ffffff" d="M0 0L600.0 0L600.0 371.0L0 371.0L0 0Z" fill-rule="nonzero"/><path stroke="#333333" stroke-width="1.0" stroke-linecap="butt" d="M77.5 332.5L581.5 332.5" fill-rule="nonzero"/><path stroke="#000000" stroke-width="1.0" stroke-linecap="butt" d="M77.5 251.5L581.5 251.5" fill-rule="nonzero"/><path stroke="#000000" stroke-width="1.0" stroke-linecap="butt" d="M77.5 169.5L581.5 169.5" fill-rule="nonzero"/><path stroke="#000000" stroke-width="1.0" stroke-linecap="butt" d="M77.5 88.5L581.5 88.5" fill-rule="nonzero"/><clipPath id="id_0"><path d="M77.55 88.28333L581.45 88.28333L581.45 332.45L77.55 332.45L77.55 88.28333Z" clip-rule="nonzero"/></clipPath><path stroke="#000000" stroke-width="0.0" stroke-linecap="butt" stroke-opacity="0.0" clip-path="url(#id_0)" d="M178.0 332.0L130.0 332.0L130.0 221.0C130.0 219.89543 130.89543 219.0 132.0 219.0L176.0 219.0C177.10457 219.0 178.0 219.89543 178.0 221.0Z" fill-rule="nonzero"/><path fill="#a4c2f4" clip-path="url(#id_0)" d="M178.0 332.0L130.0 332.0L130.0 221.0C130.0 219.89543 130.89543 219.0 132.0 219.0L176.0 219.0C177.10457 219.0 178.0 219.89543 178.0 221.0Z" fill-rule="nonzero"/><path stroke="#000000" stroke-width="0.0" stroke-linecap="butt" stroke-opacity="0.0" clip-path="url(#id_0)" d="M329.0 332.0L281.0 332.0L281.0 286.0C281.0 284.89542 281.89542 284.0 283.0 284.0L327.0 284.0C328.10458 284.0 329.0 284.89542 329.0 286.0Z" fill-rule="nonzero"/><path fill="#a4c2f4" clip-path="url(#id_0)" d="M329.0 332.0L281.0 332.0L281.0 286.0C281.0 284.89542 281.89542 284.0 283.0 284.0L327.0 284.0C328.10458 284.0 329.0 284.89542 329.0 286.0Z" fill-rule="nonzero"/><path stroke="#000000" stroke-width="0.0" stroke-linecap="butt" stroke-opacity="0.0" clip-path="url(#id_0)" d="M479.0 332.0L431.0 332.0L431.0 123.0C431.0 121.89543 431.89542 121.0 433.0 121.0L477.0 121.0C478.10458 121.0 479.0 121.89543 479.0 123.0Z" fill-rule="nonzero"/><path fill="#a4c2f4" clip-path="url(#id_0)" d="M479.0 332.0L431.0 332.0L431.0 123.0C431.0 121.89543 431.89542 121.0 433.0 121.0L477.0 121.0C478.10458 121.0 479.0 121.89543 479.0 123.0Z" fill-rule="nonzero"/><path stroke="#000000" stroke-width="0.0" stroke-linecap="butt" stroke-opacity="0.0" clip-path="url(#id_0)" d="M227.0 332.0L179.0 332.0L179.0 204.0C179.0 202.89543 179.89543 202.0 181.0 202.0L225.0 202.0C226.10457 202.0 227.0 202.89543 227.0 204.0Z" fill-rule="nonzero"/><path fill="#ffd966" clip-path="url(#id_0)" d="M227.0 332.0L179.0 332.0L179.0 204.0C179.0 202.89543 179.89543 202.0 181.0 202.0L225.0 202.0C226.10457 202.0 227.0 202.89543 227.0 204.0Z" fill-rule="nonzero"/><path stroke="#000000" stroke-width="0.0" stroke-linecap="butt" stroke-opacity="0.0" clip-path="url(#id_0)" d="M378.0 332.0L330.0 332.0L330.0 302.0C330.0 300.89542 330.89542 300.0 332.0 300.0L376.0 300.0C377.10458 300.0 378.0 300.89542 378.0 302.0Z" fill-rule="nonzero"/><path fill="#ffd966" clip-path="url(#id_0)" d="M378.0 332.0L330.0 332.0L330.0 302.0C330.0 300.89542 330.89542 300.0 332.0 300.0L376.0 300.0C377.10458 300.0 378.0 300.89542 378.0 302.0Z" fill-rule="nonzero"/><path stroke="#000000" stroke-width="0.0" stroke-linecap="butt" stroke-opacity="0.0" clip-path="url(#id_0)" d="M528.0 332.0L480.0 332.0L480.0 253.0C480.0 251.89543 480.89542 251.0 482.0 251.0L526.0 251.0C527.10455 251.0 528.0 251.89543 528.0 253.0Z" fill-rule="nonzero"/><path fill="#ffd966" clip-path="url(#id_0)" d="M528.0 332.0L480.0 332.0L480.0 253.0C480.0 251.89543 480.89542 251.0 482.0 251.0L526.0 251.0C527.10455 251.0 528.0 251.89543 528.0 253.0Z" fill-rule="nonzero"/><path fill="#000000" d="M29.550013 259.4448L20.956263 259.4448L20.956263 258.28854L27.706263 253.77292L20.956263 253.77292L20.956263 252.67917L29.550013 252.67917L29.550013 253.85104L22.800013 258.36667L29.550013 258.36667L29.550013 259.4448ZM29.550013 246.49167L28.628138 246.49167Q29.690638 247.22604 29.690638 248.47604Q29.690638 249.02292 29.487513 249.5073Q29.268763 249.97604 28.956263 250.21042Q28.628138 250.4448 28.159388 250.53854Q27.862513 250.60104 27.175013 250.60104L23.331263 250.60104L23.331263 249.53854L26.784388 249.53854Q27.596888 249.53854 27.893763 249.47604Q28.300013 249.3823 28.550013 249.0698Q28.784388 248.74167 28.784388 248.2573Q28.784388 247.78854 28.550013 247.3823Q28.300013 246.96042 27.878138 246.78854Q27.456263 246.60104 26.659388 246.60104L23.331263 246.60104L23.331263 245.55417L29.550013 245.55417L29.550013 246.49167ZM29.550013 243.5698L23.331263 243.5698L23.331263 242.6323L24.206263 242.6323Q23.737513 242.33542 23.471888 241.85104Q23.190638 241.36667 23.190638 240.74167Q23.190638 240.05417 23.471888 239.61667Q23.753138 239.16354 24.268763 238.99167Q23.190638 238.24167 23.190638 237.0698Q23.190638 236.1323 23.706263 235.64792Q24.206263 235.14792 25.284388 235.14792L29.550013 235.14792L29.550013 236.1948L25.628138 236.1948Q25.003138 236.1948 24.721888 236.30417Q24.440638 236.39792 24.268763 236.66354Q24.096888 236.92917 24.096888 237.30417Q24.096888 237.96042 24.534388 238.39792Q24.971888 238.8198 25.940638 238.8198L29.550013 238.8198L29.550013 239.8823L25.503138 239.8823Q24.800013 239.8823 24.456263 240.14792Q24.096888 240.39792 24.096888 240.97604Q24.096888 241.42917 24.331263 241.80417Q24.565638 242.17917 25.018763 242.35104Q25.471888 242.52292 26.315638 242.52292L29.550013 242.52292L29.550013 243.5698ZM29.550013 232.60104L29.550013 233.58542L20.956263 233.58542L20.956263 232.52292L24.018763 232.52292Q23.190638 231.85104 23.190638 230.8198Q23.190638 230.24167 23.425013 229.74167Q23.643763 229.22604 24.065638 228.89792Q24.487513 228.55417 25.081263 228.36667Q25.675013 228.17917 26.346888 228.17917Q27.940638 228.17917 28.815638 228.97604Q29.690638 229.77292 29.690638 230.86667Q29.690638 231.97604 28.768763 232.60104L29.550013 232.60104ZM26.393763 232.61667Q27.503138 232.61667 28.003138 232.30417Q28.815638 231.80417 28.815638 230.96042Q28.815638 230.27292 28.221888 229.77292Q27.628138 229.2573 26.425013 229.2573Q25.206263 229.2573 24.628138 229.74167Q24.050013 230.22604 24.050013 230.91354Q24.050013 231.60104 24.659388 232.11667Q25.253138 232.61667 26.393763 232.61667ZM27.550013 222.3198L27.675013 221.22604Q28.628138 221.47604 29.159388 222.17917Q29.690638 222.8823 29.690638 223.96042Q29.690638 225.3198 28.846888 226.1323Q28.003138 226.92917 26.487513 226.92917Q24.925013 226.92917 24.065638 226.11667Q23.190638 225.30417 23.190638 224.02292Q23.190638 222.77292 24.034388 221.99167Q24.878138 221.1948 26.425013 221.1948Q26.518763 221.1948 26.706263 221.1948L26.706263 225.83542Q27.737513 225.77292 28.284388 225.2573Q28.815638 224.74167 28.815638 223.96042Q28.815638 223.3823 28.518763 222.97604Q28.206263 222.55417 27.550013 222.3198ZM25.846888 225.77292L25.846888 222.30417Q25.050013 222.36667 24.659388 222.6948Q24.050013 223.21042 24.050013 224.0073Q24.050013 224.74167 24.534388 225.24167Q25.018763 225.72604 25.846888 225.77292ZM29.550013 219.58542L23.331263 219.58542L23.331263 218.6323L24.268763 218.6323Q23.612513 218.27292 23.409388 217.97604Q23.190638 217.66354 23.190638 217.28854Q23.190638 216.7573 23.518763 216.21042L24.503138 216.5698Q24.268763 216.96042 24.268763 217.33542Q24.268763 217.6948 24.487513 217.97604Q24.690638 218.24167 25.065638 218.35104Q25.628138 218.53854 26.284388 218.53854L29.550013 218.53854L29.550013 219.58542ZM26.440638 212.96042Q24.706263 212.96042 23.878138 212.0073Q23.190638 211.21042 23.190638 210.05417Q23.190638 208.77292 24.034388 207.96042Q24.862513 207.1323 26.346888 207.1323Q27.550013 207.1323 28.237513 207.49167Q28.925013 207.85104 29.315638 208.55417Q29.690638 209.24167 29.690638 210.05417Q29.690638 211.35104 28.862513 212.16354Q28.018763 212.96042 26.440638 212.96042ZM26.440638 211.8823Q27.628138 211.8823 28.221888 211.36667Q28.815638 210.83542 28.815638 210.05417Q28.815638 209.2573 28.221888 208.74167Q27.628138 208.22604 26.409388 208.22604Q25.253138 208.22604 24.659388 208.7573Q24.065638 209.27292 24.065638 210.05417Q24.065638 210.83542 24.659388 211.36667Q25.237513 211.8823 26.440638 211.8823ZM29.550013 205.3198L24.143763 205.3198L24.143763 206.2573L23.331263 206.2573L23.331263 205.3198L22.659388 205.3198Q22.034388 205.3198 21.737513 205.21042Q21.315638 205.05417 21.065638 204.67917Q20.815638 204.28854 20.815638 203.60104Q20.815638 203.14792 20.925013 202.61667L21.831263 202.77292Q21.784388 203.10104 21.784388 203.39792Q21.784388 203.8823 21.987513 204.08542Q22.190638 204.27292 22.753138 204.27292L23.331263 204.27292L23.331263 203.05417L24.143763 203.05417L24.143763 204.27292L29.550013 204.27292L29.550013 205.3198ZM28.784388 195.5073Q29.284388 196.10104 29.487513 196.64792Q29.690638 197.17917 29.690638 197.80417Q29.690638 198.83542 29.190638 199.3823Q28.690638 199.92917 27.909388 199.92917Q27.456263 199.92917 27.081263 199.72604Q26.690638 199.52292 26.471888 199.17917Q26.237513 198.83542 26.128138 198.41354Q26.034388 198.11667 25.956263 197.47604Q25.815638 196.21042 25.596888 195.60104Q25.378138 195.60104 25.331263 195.60104Q24.675013 195.60104 24.409388 195.89792Q24.065638 196.30417 24.065638 197.10104Q24.065638 197.83542 24.331263 198.1948Q24.581263 198.55417 25.237513 198.72604L25.096888 199.7573Q24.440638 199.61667 24.034388 199.28854Q23.628138 198.96042 23.409388 198.35104Q23.190638 197.74167 23.190638 196.9448Q23.190638 196.14792 23.378138 195.64792Q23.565638 195.14792 23.846888 194.91354Q24.128138 194.67917 24.565638 194.58542Q24.831263 194.53854 25.534388 194.53854L26.940638 194.53854Q28.409388 194.53854 28.800013 194.47604Q29.190638 194.39792 29.550013 194.1948L29.550013 195.30417Q29.221888 195.46042 28.784388 195.5073ZM26.425013 195.60104Q26.659388 196.17917 26.831263 197.3198Q26.925013 197.97604 27.050013 198.24167Q27.159388 198.5073 27.378138 198.66354Q27.596888 198.80417 27.878138 198.80417Q28.300013 198.80417 28.581263 198.49167Q28.862513 198.16354 28.862513 197.55417Q28.862513 196.9448 28.596888 196.47604Q28.331263 195.99167 27.862513 195.77292Q27.503138 195.60104 26.815638 195.60104L26.425013 195.60104ZM31.940638 192.5698L23.331263 192.5698L23.331263 191.61667L24.128138 191.61667Q23.659388 191.27292 23.425013 190.85104Q23.190638 190.41354 23.190638 189.80417Q23.190638 189.0073 23.596888 188.39792Q24.003138 187.78854 24.753138 187.49167Q25.503138 187.17917 26.393763 187.17917Q27.346888 187.17917 28.112513 187.52292Q28.878138 187.85104 29.284388 188.5073Q29.690638 189.16354 29.690638 189.8823Q29.690638 190.41354 29.471888 190.83542Q29.237513 191.2573 28.909388 191.52292L31.940638 191.52292L31.940638 192.5698ZM26.471888 191.61667Q27.675013 191.61667 28.253138 191.1323Q28.815638 190.64792 28.815638 189.96042Q28.815638 189.2573 28.221888 188.7573Q27.628138 188.2573 26.378138 188.2573Q25.190638 188.2573 24.612513 188.74167Q24.018763 189.22604 24.018763 189.91354Q24.018763 190.58542 24.643763 191.10104Q25.268763 191.61667 26.471888 191.61667ZM31.940638 185.5698L23.331263 185.5698L23.331263 184.61667L24.128138 184.61667Q23.659388 184.27292 23.425013 183.85104Q23.190638 183.41354 23.190638 182.80417Q23.190638 182.0073 23.596888 181.39792Q24.003138 180.78854 24.753138 180.49167Q25.503138 180.17917 26.393763 180.17917Q27.346888 180.17917 28.112513 180.52292Q28.878138 180.85104 29.284388 181.5073Q29.690638 182.16354 29.690638 182.8823Q29.690638 183.41354 29.471888 183.83542Q29.237513 184.2573 28.909388 184.52292L31.940638 184.52292L31.940638 185.5698ZM26.471888 184.61667Q27.675013 184.61667 28.253138 184.1323Q28.815638 183.64792 28.815638 182.96042Q28.815638 182.2573 28.221888 181.7573Q27.628138 181.2573 26.378138 181.2573Q25.190638 181.2573 24.612513 181.74167Q24.018763 182.22604 24.018763 182.91354Q24.018763 183.58542 24.643763 184.10104Q25.268763 184.61667 26.471888 184.61667ZM27.690638 178.99167L27.534388 177.96042Q28.159388 177.86667 28.487513 177.47604Q28.815638 177.0698 28.815638 176.33542Q28.815638 175.61667 28.534388 175.27292Q28.237513 174.91354 27.831263 174.91354Q27.471888 174.91354 27.268763 175.22604Q27.128138 175.4448 26.909388 176.30417Q26.612513 177.46042 26.409388 177.91354Q26.190638 178.35104 25.815638 178.58542Q25.440638 178.8198 24.971888 178.8198Q24.565638 178.8198 24.206263 178.6323Q23.846888 178.4448 23.612513 178.11667Q23.440638 177.86667 23.315638 177.4448Q23.190638 177.02292 23.190638 176.52292Q23.190638 175.80417 23.409388 175.2573Q23.612513 174.6948 23.971888 174.42917Q24.331263 174.16354 24.925013 174.0698L25.065638 175.10104Q24.596888 175.16354 24.331263 175.5073Q24.050013 175.83542 24.050013 176.46042Q24.050013 177.17917 24.300013 177.49167Q24.534388 177.80417 24.862513 177.80417Q25.065638 177.80417 25.221888 177.67917Q25.393763 177.53854 25.503138 177.27292Q25.565638 177.11667 25.768763 176.33542Q26.081263 175.21042 26.268763 174.77292Q26.456263 174.33542 26.815638 174.08542Q27.175013 173.83542 27.721888 173.83542Q28.253138 173.83542 28.721888 174.14792Q29.175013 174.4448 29.440638 175.02292Q29.690638 175.60104 29.690638 176.33542Q29.690638 177.55417 29.190638 178.1948Q28.675013 178.8198 27.690638 178.99167Z" fill-rule="nonzero"/><path fill="#000000" d="M65.05 332.21564Q65.05 330.6844 65.3625 329.7625Q65.675 328.825 66.28438 328.325Q66.90938 327.825 67.84688 327.825Q68.53438 327.825 69.05 328.10626Q69.58125 328.3875 69.925 328.91876Q70.26875 329.4344 70.45625 330.1844Q70.64375 330.9344 70.64375 332.21564Q70.64375 333.73126 70.33125 334.65314Q70.03438 335.575 69.40938 336.09064Q68.8 336.59064 67.84688 336.59064Q66.6125 336.59064 65.89375 335.7Q65.05 334.6375 65.05 332.21564ZM66.12813 332.21564Q66.12813 334.325 66.62813 335.02814Q67.12813 335.73126 67.84688 335.73126Q68.58125 335.73126 69.06563 335.02814Q69.56563 334.325 69.56563 332.21564Q69.56563 330.09064 69.06563 329.40314Q68.58125 328.7 67.83125 328.7Q67.1125 328.7 66.675 329.3094Q66.12813 330.09064 66.12813 332.21564Z" fill-rule="nonzero"/><path fill="#000000" d="M65.05 252.81111L66.15938 252.71736Q66.28438 253.52986 66.72188 253.93611Q67.175 254.34236 67.81563 254.34236Q68.56563 254.34236 69.09688 253.76424Q69.62813 253.18611 69.62813 252.24861Q69.62813 251.34236 69.1125 250.82674Q68.6125 250.29549 67.78438 250.29549Q67.28438 250.29549 66.8625 250.52986Q66.45625 250.76424 66.22188 251.12361L65.2375 250.99861L66.06563 246.59236L70.34688 246.59236L70.34688 247.59236L66.90938 247.59236L66.45625 249.90486Q67.22188 249.35799 68.06563 249.35799Q69.19063 249.35799 69.95625 250.13924Q70.7375 250.92049 70.7375 252.15486Q70.7375 253.31111 70.06563 254.17049Q69.2375 255.20174 67.81563 255.20174Q66.64375 255.20174 65.89375 254.54549Q65.15938 253.88924 65.05 252.81111Z" fill-rule="nonzero"/><path fill="#000000" d="M62.01875 173.67223L60.971874 173.67223L60.971874 166.95348Q60.58125 167.31285 59.95625 167.68785Q59.346874 168.04723 58.8625 168.2191L58.8625 167.20348Q59.7375 166.7816 60.39375 166.20348Q61.065624 165.60973 61.346874 165.04723L62.01875 165.04723L62.01875 173.67223ZM65.05 169.43785Q65.05 167.9066 65.3625 166.98473Q65.675 166.04723 66.28438 165.54723Q66.90938 165.04723 67.84688 165.04723Q68.53438 165.04723 69.05 165.32848Q69.58125 165.60973 69.925 166.14098Q70.26875 166.6566 70.45625 167.4066Q70.64375 168.1566 70.64375 169.43785Q70.64375 170.95348 70.33125 171.87535Q70.03438 172.79723 69.40938 173.31285Q68.8 173.81285 67.84688 173.81285Q66.6125 173.81285 65.89375 172.92223Q65.05 171.85973 65.05 169.43785ZM66.12813 169.43785Q66.12813 171.54723 66.62813 172.25035Q67.12813 172.95348 67.84688 172.95348Q68.58125 172.95348 69.06563 172.25035Q69.56563 171.54723 69.56563 169.43785Q69.56563 167.31285 69.06563 166.62535Q68.58125 165.92223 67.83125 165.92223Q67.1125 165.92223 66.675 166.5316Q66.12813 167.31285 66.12813 169.43785Z" fill-rule="nonzero"/><path fill="#000000" d="M62.01875 92.28333L60.971874 92.28333L60.971874 85.56458Q60.58125 85.92396 59.95625 86.29896Q59.346874 86.65833 58.8625 86.83021L58.8625 85.81458Q59.7375 85.39271 60.39375 84.81458Q61.065624 84.22083 61.346874 83.65833L62.01875 83.65833L62.01875 92.28333ZM65.05 90.03333L66.15938 89.93958Q66.28438 90.75208 66.72188 91.15833Q67.175 91.56458 67.81563 91.56458Q68.56563 91.56458 69.09688 90.98646Q69.62813 90.40833 69.62813 89.47083Q69.62813 88.56458 69.1125 88.04896Q68.6125 87.51771 67.78438 87.51771Q67.28438 87.51771 66.8625 87.75208Q66.45625 87.98646 66.22188 88.34583L65.2375 88.22083L66.06563 83.81458L70.34688 83.81458L70.34688 84.81458L66.90938 84.81458L66.45625 87.12708Q67.22188 86.58021 68.06563 86.58021Q69.19063 86.58021 69.95625 87.36146Q70.7375 88.14271 70.7375 89.37708Q70.7375 90.53333 70.06563 91.39271Q69.2375 92.42396 67.81563 92.42396Q66.64375 92.42396 65.89375 91.76771Q65.15938 91.11146 65.05 90.03333Z" fill-rule="nonzero"/><path fill="#000000" d="M154.64459 346.4344L155.76959 346.73126Q155.41022 348.1219 154.48834 348.85626Q153.56647 349.59064 152.22272 349.59064Q150.83209 349.59064 149.95709 349.02814Q149.08209 348.46564 148.62897 347.40314Q148.17584 346.325 148.17584 345.09064Q148.17584 343.7469 148.69147 342.7469Q149.20709 341.7469 150.14459 341.23126Q151.09772 340.71564 152.23834 340.71564Q153.51959 340.71564 154.39459 341.3719Q155.28522 342.02814 155.62897 343.21564L154.50397 343.48126Q154.20709 342.54376 153.62897 342.1219Q153.06647 341.6844 152.20709 341.6844Q151.22272 341.6844 150.55084 342.16876Q149.89459 342.6375 149.61334 343.4344Q149.34772 344.23126 149.34772 345.09064Q149.34772 346.1844 149.66022 346.9969Q149.98834 347.8094 150.66022 348.21564Q151.33209 348.6219 152.12897 348.6219Q153.08209 348.6219 153.73834 348.075Q154.41022 347.52814 154.64459 346.4344ZM161.62897 347.45L162.72272 347.575Q162.47272 348.52814 161.76959 349.0594Q161.06647 349.59064 159.98834 349.59064Q158.62897 349.59064 157.81647 348.7469Q157.01959 347.90314 157.01959 346.3875Q157.01959 344.825 157.83209 343.96564Q158.64459 343.09064 159.92584 343.09064Q161.17584 343.09064 161.95709 343.9344Q162.75397 344.77814 162.75397 346.325Q162.75397 346.41876 162.75397 346.60626L158.11334 346.60626Q158.17584 347.6375 158.69147 348.1844Q159.20709 348.71564 159.98834 348.71564Q160.56647 348.71564 160.97272 348.41876Q161.39459 348.10626 161.62897 347.45ZM158.17584 345.7469L161.64459 345.7469Q161.58209 344.95 161.25397 344.5594Q160.73834 343.95 159.94147 343.95Q159.20709 343.95 158.70709 344.4344Q158.22272 344.91876 158.17584 345.7469ZM164.37897 349.45L164.37897 343.23126L165.31647 343.23126L165.31647 344.10626Q166.00397 343.09064 167.30084 343.09064Q167.86334 343.09064 168.33209 343.29376Q168.81647 343.4969 169.05084 343.825Q169.28522 344.15314 169.37897 344.59064Q169.42584 344.8875 169.42584 345.6219L169.42584 349.45L168.37897 349.45L168.37897 345.66876Q168.37897 345.0125 168.25397 344.7Q168.12897 344.3875 167.81647 344.2Q167.50397 343.9969 167.08209 343.9969Q166.41022 343.9969 165.91022 344.4344Q165.42584 344.85626 165.42584 346.04376L165.42584 349.45L164.37897 349.45ZM173.67584 348.5125L173.83209 349.4344Q173.37897 349.52814 173.03522 349.52814Q172.45709 349.52814 172.14459 349.35626Q171.83209 349.16876 171.69147 348.8719Q171.56647 348.575 171.56647 347.6219L171.56647 344.04376L170.80084 344.04376L170.80084 343.23126L171.56647 343.23126L171.56647 341.6844L172.61334 341.0594L172.61334 343.23126L173.67584 343.23126L173.67584 344.04376L172.61334 344.04376L172.61334 347.6844Q172.61334 348.1375 172.66022 348.2625Q172.72272 348.3875 172.84772 348.46564Q172.97272 348.54376 173.20709 348.54376Q173.39459 348.54376 173.67584 348.5125ZM174.36334 349.45L174.36334 343.23126L175.31647 343.23126L175.31647 344.16876Q175.67584 343.5125 175.97272 343.3094Q176.28522 343.09064 176.66022 343.09064Q177.19147 343.09064 177.73834 343.41876L177.37897 344.40314Q176.98834 344.16876 176.61334 344.16876Q176.25397 344.16876 175.97272 344.3875Q175.70709 344.59064 175.59772 344.96564Q175.41022 345.52814 175.41022 346.1844L175.41022 349.45L174.36334 349.45ZM182.44147 348.6844Q181.84772 349.1844 181.30084 349.3875Q180.76959 349.59064 180.14459 349.59064Q179.11334 349.59064 178.56647 349.09064Q178.01959 348.59064 178.01959 347.8094Q178.01959 347.35626 178.22272 346.98126Q178.42584 346.59064 178.76959 346.3719Q179.11334 346.1375 179.53522 346.02814Q179.83209 345.9344 180.47272 345.85626Q181.73834 345.71564 182.34772 345.4969Q182.34772 345.27814 182.34772 345.23126Q182.34772 344.575 182.05084 344.3094Q181.64459 343.96564 180.84772 343.96564Q180.11334 343.96564 179.75397 344.23126Q179.39459 344.48126 179.22272 345.1375L178.19147 344.9969Q178.33209 344.34064 178.66022 343.9344Q178.98834 343.52814 179.59772 343.3094Q180.20709 343.09064 181.00397 343.09064Q181.80084 343.09064 182.30084 343.27814Q182.80084 343.46564 183.03522 343.7469Q183.26959 344.02814 183.36334 344.46564Q183.41022 344.73126 183.41022 345.4344L183.41022 346.84064Q183.41022 348.3094 183.47272 348.7Q183.55084 349.09064 183.75397 349.45L182.64459 349.45Q182.48834 349.1219 182.44147 348.6844ZM182.34772 346.325Q181.76959 346.5594 180.62897 346.73126Q179.97272 346.825 179.70709 346.95Q179.44147 347.0594 179.28522 347.27814Q179.14459 347.4969 179.14459 347.77814Q179.14459 348.2 179.45709 348.48126Q179.78522 348.7625 180.39459 348.7625Q181.00397 348.7625 181.47272 348.4969Q181.95709 348.23126 182.17584 347.7625Q182.34772 347.40314 182.34772 346.71564L182.34772 346.325ZM185.34772 349.45L185.34772 340.85626L186.41022 340.85626L186.41022 349.45L185.34772 349.45ZM188.37897 342.075L188.37897 340.85626L189.44147 340.85626L189.44147 342.075L188.37897 342.075ZM188.37897 349.45L188.37897 343.23126L189.44147 343.23126L189.44147 349.45L188.37897 349.45ZM190.81647 349.45L190.81647 348.59064L194.78522 344.04376Q194.09772 344.075 193.58209 344.075L191.05084 344.075L191.05084 343.23126L196.14459 343.23126L196.14459 343.91876L192.76959 347.8719L192.11334 348.59064Q192.83209 348.54376 193.44147 348.54376L196.33209 348.54376L196.33209 349.45L190.81647 349.45ZM201.62897 347.45L202.72272 347.575Q202.47272 348.52814 201.76959 349.0594Q201.06647 349.59064 199.98834 349.59064Q198.62897 349.59064 197.81647 348.7469Q197.01959 347.90314 197.01959 346.3875Q197.01959 344.825 197.83209 343.96564Q198.64459 343.09064 199.92584 343.09064Q201.17584 343.09064 201.95709 343.9344Q202.75397 344.77814 202.75397 346.325Q202.75397 346.41876 202.75397 346.60626L198.11334 346.60626Q198.17584 347.6375 198.69147 348.1844Q199.20709 348.71564 199.98834 348.71564Q200.56647 348.71564 200.97272 348.41876Q201.39459 348.10626 201.62897 347.45ZM198.17584 345.7469L201.64459 345.7469Q201.58209 344.95 201.25397 344.5594Q200.73834 343.95 199.94147 343.95Q199.20709 343.95 198.70709 344.4344Q198.22272 344.91876 198.17584 345.7469ZM208.41022 349.45L208.41022 348.66876Q207.81647 349.59064 206.67584 349.59064Q205.92584 349.59064 205.30084 349.1844Q204.67584 348.7625 204.33209 348.02814Q203.98834 347.29376 203.98834 346.34064Q203.98834 345.41876 204.30084 344.65314Q204.61334 343.8875 205.23834 343.4969Q205.86334 343.09064 206.62897 343.09064Q207.19147 343.09064 207.62897 343.325Q208.06647 343.5594 208.34772 343.9344L208.34772 340.85626L209.39459 340.85626L209.39459 349.45L208.41022 349.45ZM205.08209 346.34064Q205.08209 347.54376 205.58209 348.1375Q206.08209 348.71564 206.76959 348.71564Q207.45709 348.71564 207.94147 348.15314Q208.42584 347.59064 208.42584 346.4344Q208.42584 345.15314 207.92584 344.5594Q207.44147 343.96564 206.72272 343.96564Q206.01959 343.96564 205.55084 344.54376Q205.08209 345.10626 205.08209 346.34064Z" fill-rule="nonzero"/><path fill="#000000" d="M292.42188 349.45L292.42188 340.85626L295.39062 340.85626Q296.39062 340.85626 296.92188 340.98126Q297.65625 341.15314 298.17188 341.59064Q298.85938 342.16876 299.1875 343.075Q299.53125 343.96564 299.53125 345.10626Q299.53125 346.09064 299.29688 346.84064Q299.07812 347.59064 298.71875 348.09064Q298.35938 348.59064 297.92188 348.8719Q297.5 349.15314 296.90625 349.3094Q296.3125 349.45 295.53125 349.45L292.42188 349.45ZM293.5625 348.4344L295.39062 348.4344Q296.25 348.4344 296.73438 348.27814Q297.21875 348.1219 297.5 347.825Q297.90625 347.4344 298.125 346.7469Q298.35938 346.0594 298.35938 345.09064Q298.35938 343.7469 297.90625 343.02814Q297.46875 342.29376 296.84375 342.04376Q296.375 341.8719 295.375 341.8719L293.5625 341.8719L293.5625 348.4344ZM305.54688 347.45L306.64062 347.575Q306.39062 348.52814 305.6875 349.0594Q304.98438 349.59064 303.90625 349.59064Q302.54688 349.59064 301.73438 348.7469Q300.9375 347.90314 300.9375 346.3875Q300.9375 344.825 301.75 343.96564Q302.5625 343.09064 303.84375 343.09064Q305.09375 343.09064 305.875 343.9344Q306.67188 344.77814 306.67188 346.325Q306.67188 346.41876 306.67188 346.60626L302.03125 346.60626Q302.09375 347.6375 302.60938 348.1844Q303.125 348.71564 303.90625 348.71564Q304.48438 348.71564 304.89062 348.41876Q305.3125 348.10626 305.54688 347.45ZM302.09375 345.7469L305.5625 345.7469Q305.5 344.95 305.17188 344.5594Q304.65625 343.95 303.85938 343.95Q303.125 343.95 302.625 344.4344Q302.14062 344.91876 302.09375 345.7469ZM312.35938 347.16876L313.39062 347.3094Q313.21875 348.3719 312.51562 348.98126Q311.8125 349.59064 310.79688 349.59064Q309.51562 349.59064 308.73438 348.7625Q307.96875 347.91876 307.96875 346.35626Q307.96875 345.35626 308.29688 344.60626Q308.64062 343.84064 309.3125 343.46564Q310.0 343.09064 310.8125 343.09064Q311.8125 343.09064 312.45312 343.60626Q313.10938 344.10626 313.29688 345.0594L312.26562 345.21564Q312.125 344.59064 311.75 344.27814Q311.375 343.95 310.84375 343.95Q310.04688 343.95 309.54688 344.52814Q309.04688 345.09064 309.04688 346.325Q309.04688 347.59064 309.53125 348.15314Q310.01562 348.71564 310.78125 348.71564Q311.40625 348.71564 311.8125 348.34064Q312.23438 347.96564 312.35938 347.16876ZM318.54688 347.45L319.64062 347.575Q319.39062 348.52814 318.6875 349.0594Q317.98438 349.59064 316.90625 349.59064Q315.54688 349.59064 314.73438 348.7469Q313.9375 347.90314 313.9375 346.3875Q313.9375 344.825 314.75 343.96564Q315.5625 343.09064 316.84375 343.09064Q318.09375 343.09064 318.875 343.9344Q319.67188 344.77814 319.67188 346.325Q319.67188 346.41876 319.67188 346.60626L315.03125 346.60626Q315.09375 347.6375 315.60938 348.1844Q316.125 348.71564 316.90625 348.71564Q317.48438 348.71564 317.89062 348.41876Q318.3125 348.10626 318.54688 347.45ZM315.09375 345.7469L318.5625 345.7469Q318.5 344.95 318.17188 344.5594Q317.65625 343.95 316.85938 343.95Q316.125 343.95 315.625 344.4344Q315.14062 344.91876 315.09375 345.7469ZM321.29688 349.45L321.29688 343.23126L322.23438 343.23126L322.23438 344.10626Q322.92188 343.09064 324.21875 343.09064Q324.78125 343.09064 325.25 343.29376Q325.73438 343.4969 325.96875 343.825Q326.20312 344.15314 326.29688 344.59064Q326.34375 344.8875 326.34375 345.6219L326.34375 349.45L325.29688 349.45L325.29688 345.66876Q325.29688 345.0125 325.17188 344.7Q325.04688 344.3875 324.73438 344.2Q324.42188 343.9969 324.0 343.9969Q323.32812 343.9969 322.82812 344.4344Q322.34375 344.85626 322.34375 346.04376L322.34375 349.45L321.29688 349.45ZM330.59375 348.5125L330.75 349.4344Q330.29688 349.52814 329.95312 349.52814Q329.375 349.52814 329.0625 349.35626Q328.75 349.16876 328.60938 348.8719Q328.48438 348.575 328.48438 347.6219L328.48438 344.04376L327.71875 344.04376L327.71875 343.23126L328.48438 343.23126L328.48438 341.6844L329.53125 341.0594L329.53125 343.23126L330.59375 343.23126L330.59375 344.04376L329.53125 344.04376L329.53125 347.6844Q329.53125 348.1375 329.57812 348.2625Q329.64062 348.3875 329.76562 348.46564Q329.89062 348.54376 330.125 348.54376Q330.3125 348.54376 330.59375 348.5125ZM331.28125 349.45L331.28125 343.23126L332.23438 343.23126L332.23438 344.16876Q332.59375 343.5125 332.89062 343.3094Q333.20312 343.09064 333.57812 343.09064Q334.10938 343.09064 334.65625 343.41876L334.29688 344.40314Q333.90625 344.16876 333.53125 344.16876Q333.17188 344.16876 332.89062 344.3875Q332.625 344.59064 332.51562 344.96564Q332.32812 345.52814 332.32812 346.1844L332.32812 349.45L331.28125 349.45ZM339.35938 348.6844Q338.76562 349.1844 338.21875 349.3875Q337.6875 349.59064 337.0625 349.59064Q336.03125 349.59064 335.48438 349.09064Q334.9375 348.59064 334.9375 347.8094Q334.9375 347.35626 335.14062 346.98126Q335.34375 346.59064 335.6875 346.3719Q336.03125 346.1375 336.45312 346.02814Q336.75 345.9344 337.39062 345.85626Q338.65625 345.71564 339.26562 345.4969Q339.26562 345.27814 339.26562 345.23126Q339.26562 344.575 338.96875 344.3094Q338.5625 343.96564 337.76562 343.96564Q337.03125 343.96564 336.67188 344.23126Q336.3125 344.48126 336.14062 345.1375L335.10938 344.9969Q335.25 344.34064 335.57812 343.9344Q335.90625 343.52814 336.51562 343.3094Q337.125 343.09064 337.92188 343.09064Q338.71875 343.09064 339.21875 343.27814Q339.71875 343.46564 339.95312 343.7469Q340.1875 344.02814 340.28125 344.46564Q340.32812 344.73126 340.32812 345.4344L340.32812 346.84064Q340.32812 348.3094 340.39062 348.7Q340.46875 349.09064 340.67188 349.45L339.5625 349.45Q339.40625 349.1219 339.35938 348.6844ZM339.26562 346.325Q338.6875 346.5594 337.54688 346.73126Q336.89062 346.825 336.625 346.95Q336.35938 347.0594 336.20312 347.27814Q336.0625 347.4969 336.0625 347.77814Q336.0625 348.2 336.375 348.48126Q336.70312 348.7625 337.3125 348.7625Q337.92188 348.7625 338.39062 348.4969Q338.875 348.23126 339.09375 347.7625Q339.26562 347.40314 339.26562 346.71564L339.26562 346.325ZM342.26562 349.45L342.26562 340.85626L343.32812 340.85626L343.32812 349.45L342.26562 349.45ZM345.29688 342.075L345.29688 340.85626L346.35938 340.85626L346.35938 342.075L345.29688 342.075ZM345.29688 349.45L345.29688 343.23126L346.35938 343.23126L346.35938 349.45L345.29688 349.45ZM347.73438 349.45L347.73438 348.59064L351.70312 344.04376Q351.01562 344.075 350.5 344.075L347.96875 344.075L347.96875 343.23126L353.0625 343.23126L353.0625 343.91876L349.6875 347.8719L349.03125 348.59064Q349.75 348.54376 350.35938 348.54376L353.25 348.54376L353.25 349.45L347.73438 349.45ZM358.54688 347.45L359.64062 347.575Q359.39062 348.52814 358.6875 349.0594Q357.98438 349.59064 356.90625 349.59064Q355.54688 349.59064 354.73438 348.7469Q353.9375 347.90314 353.9375 346.3875Q353.9375 344.825 354.75 343.96564Q355.5625 343.09064 356.84375 343.09064Q358.09375 343.09064 358.875 343.9344Q359.67188 344.77814 359.67188 346.325Q359.67188 346.41876 359.67188 346.60626L355.03125 346.60626Q355.09375 347.6375 355.60938 348.1844Q356.125 348.71564 356.90625 348.71564Q357.48438 348.71564 357.89062 348.41876Q358.3125 348.10626 358.54688 347.45ZM355.09375 345.7469L358.5625 345.7469Q358.5 344.95 358.17188 344.5594Q357.65625 343.95 356.85938 343.95Q356.125 343.95 355.625 344.4344Q355.14062 344.91876 355.09375 345.7469ZM365.32812 349.45L365.32812 348.66876Q364.73438 349.59064 363.59375 349.59064Q362.84375 349.59064 362.21875 349.1844Q361.59375 348.7625 361.25 348.02814Q360.90625 347.29376 360.90625 346.34064Q360.90625 345.41876 361.21875 344.65314Q361.53125 343.8875 362.15625 343.4969Q362.78125 343.09064 363.54688 343.09064Q364.10938 343.09064 364.54688 343.325Q364.98438 343.5594 365.26562 343.9344L365.26562 340.85626L366.3125 340.85626L366.3125 349.45L365.32812 349.45ZM362.0 346.34064Q362.0 347.54376 362.5 348.1375Q363.0 348.71564 363.6875 348.71564Q364.375 348.71564 364.85938 348.15314Q365.34375 347.59064 365.34375 346.4344Q365.34375 345.15314 364.84375 344.5594Q364.35938 343.96564 363.64062 343.96564Q362.9375 343.96564 362.46875 344.54376Q362.0 345.10626 362.0 346.34064Z" fill-rule="nonzero"/><path fill="#000000" d="M470.83978 349.45L470.83978 340.85626L471.99603 340.85626L476.51166 347.60626L476.51166 340.85626L477.6054 340.85626L477.6054 349.45L476.43353 349.45L471.9179 342.7L471.9179 349.45L470.83978 349.45ZM478.9179 349.59064L481.40228 340.71564L482.24603 340.71564L479.76166 349.59064L478.9179 349.59064ZM481.90228 349.45L485.19916 340.85626L486.4179 340.85626L489.93353 349.45L488.65228 349.45L487.63666 346.84064L484.05853 346.84064L483.1054 349.45L481.90228 349.45ZM484.38666 345.91876L487.2929 345.91876L486.40228 343.54376Q485.9804 342.46564 485.7929 341.7625Q485.62103 342.59064 485.32416 343.40314L484.38666 345.91876Z" fill-rule="nonzero"/><path fill="#a4c2f4" d="M202.0 56.916668C202.0 56.364384 202.44771 55.916668 203.0 55.916668L213.0 55.916668C213.55229 55.916668 214.0 56.364384 214.0 56.916668L214.0 66.916664C214.0 67.46895 213.55229 67.916664 213.0 67.916664L203.0 67.916664C202.44771 67.916664 202.0 67.46895 202.0 66.916664Z" fill-rule="nonzero"/><path fill="#000000" d="M226.95312 62.541664L226.95312 61.541664L230.57812 61.52604L230.57812 64.71354Q229.75 65.385414 228.85938 65.729164Q227.96875 66.05729 227.03125 66.05729Q225.76562 66.05729 224.71875 65.52604Q223.6875 64.979164 223.15625 63.96354Q222.64062 62.93229 222.64062 61.666664Q222.64062 60.40104 223.15625 59.322914Q223.6875 58.229164 224.67188 57.71354Q225.65625 57.18229 226.9375 57.18229Q227.875 57.18229 228.625 57.479164Q229.375 57.77604 229.79688 58.322914Q230.23438 58.854164 230.45312 59.729164L229.4375 60.010414Q229.23438 59.354164 228.9375 58.979164Q228.65625 58.604164 228.125 58.385414Q227.59375 58.15104 226.95312 58.15104Q226.17188 58.15104 225.59375 58.385414Q225.03125 58.61979 224.67188 59.010414Q224.32812 59.40104 224.14062 59.86979Q223.8125 60.666664 223.8125 61.58854Q223.8125 62.74479 224.20312 63.52604Q224.60938 64.291664 225.35938 64.666664Q226.10938 65.041664 226.96875 65.041664Q227.70312 65.041664 228.40625 64.760414Q229.10938 64.46354 229.46875 64.15104L229.46875 62.541664L226.95312 62.541664ZM231.76562 65.916664L231.76562 57.322914L232.82812 57.322914L232.82812 65.916664L231.76562 65.916664ZM234.40625 62.80729Q234.40625 61.072914 235.35938 60.24479Q236.15625 59.55729 237.3125 59.55729Q238.59375 59.55729 239.40625 60.40104Q240.23438 61.229164 240.23438 62.71354Q240.23438 63.916664 239.875 64.604164Q239.51562 65.291664 238.8125 65.68229Q238.125 66.05729 237.3125 66.05729Q236.01562 66.05729 235.20312 65.229164Q234.40625 64.385414 234.40625 62.80729ZM235.48438 62.80729Q235.48438 63.99479 236.0 64.58854Q236.53125 65.18229 237.3125 65.18229Q238.10938 65.18229 238.625 64.58854Q239.14062 63.99479 239.14062 62.77604Q239.14062 61.61979 238.60938 61.02604Q238.09375 60.43229 237.3125 60.43229Q236.53125 60.43229 236.0 61.02604Q235.48438 61.604164 235.48438 62.80729ZM242.76562 65.916664L241.78125 65.916664L241.78125 57.322914L242.84375 57.322914L242.84375 60.385414Q243.51562 59.55729 244.54688 59.55729Q245.125 59.55729 245.625 59.791664Q246.14062 60.010414 246.46875 60.43229Q246.8125 60.854164 247.0 61.447914Q247.1875 62.041664 247.1875 62.71354Q247.1875 64.30729 246.39062 65.18229Q245.59375 66.05729 244.5 66.05729Q243.39062 66.05729 242.76562 65.135414L242.76562 65.916664ZM242.75 62.760414Q242.75 63.86979 243.0625 64.36979Q243.5625 65.18229 244.40625 65.18229Q245.09375 65.18229 245.59375 64.58854Q246.10938 63.99479 246.10938 62.791664Q246.10938 61.572914 245.625 60.99479Q245.14062 60.416664 244.45312 60.416664Q243.76562 60.416664 243.25 61.02604Q242.75 61.61979 242.75 62.760414ZM252.85938 65.15104Q252.26562 65.65104 251.71875 65.854164Q251.1875 66.05729 250.5625 66.05729Q249.53125 66.05729 248.98438 65.55729Q248.4375 65.05729 248.4375 64.27604Q248.4375 63.822914 248.64062 63.447914Q248.84375 63.05729 249.1875 62.83854Q249.53125 62.604164 249.95312 62.49479Q250.25 62.40104 250.89062 62.322914Q252.15625 62.18229 252.76562 61.96354Q252.76562 61.74479 252.76562 61.697914Q252.76562 61.041664 252.46875 60.77604Q252.0625 60.43229 251.26562 60.43229Q250.53125 60.43229 250.17188 60.697914Q249.8125 60.947914 249.64062 61.604164L248.60938 61.46354Q248.75 60.80729 249.07812 60.40104Q249.40625 59.99479 250.01562 59.77604Q250.625 59.55729 251.42188 59.55729Q252.21875 59.55729 252.71875 59.74479Q253.21875 59.93229 253.45312 60.21354Q253.6875 60.49479 253.78125 60.93229Q253.82812 61.197914 253.82812 61.90104L253.82812 63.30729Q253.82812 64.77604 253.89062 65.166664Q253.96875 65.55729 254.17188 65.916664L253.0625 65.916664Q252.90625 65.58854 252.85938 65.15104ZM252.76562 62.791664Q252.1875 63.02604 251.04688 63.197914Q250.39062 63.291664 250.125 63.416664Q249.85938 63.52604 249.70312 63.74479Q249.5625 63.96354 249.5625 64.24479Q249.5625 64.666664 249.875 64.947914Q250.20312 65.229164 250.8125 65.229164Q251.42188 65.229164 251.89062 64.96354Q252.375 64.697914 252.59375 64.229164Q252.76562 63.86979 252.76562 63.18229L252.76562 62.791664ZM255.76562 65.916664L255.76562 57.322914L256.82812 57.322914L256.82812 65.916664L255.76562 65.916664ZM261.92188 65.916664L261.92188 57.322914L263.07812 57.322914L267.59375 64.072914L267.59375 57.322914L268.6875 57.322914L268.6875 65.916664L267.51562 65.916664L263.0 59.166664L263.0 65.916664L261.92188 65.916664ZM270.40625 62.80729Q270.40625 61.072914 271.35938 60.24479Q272.15625 59.55729 273.3125 59.55729Q274.59375 59.55729 275.40625 60.40104Q276.23438 61.229164 276.23438 62.71354Q276.23438 63.916664 275.875 64.604164Q275.51562 65.291664 274.8125 65.68229Q274.125 66.05729 273.3125 66.05729Q272.01562 66.05729 271.20312 65.229164Q270.40625 64.385414 270.40625 62.80729ZM271.48438 62.80729Q271.48438 63.99479 272.0 64.58854Q272.53125 65.18229 273.3125 65.18229Q274.10938 65.18229 274.625 64.58854Q275.14062 63.99479 275.14062 62.77604Q275.14062 61.61979 274.60938 61.02604Q274.09375 60.43229 273.3125 60.43229Q272.53125 60.43229 272.0 61.02604Q271.48438 61.604164 271.48438 62.80729ZM277.78125 65.916664L277.78125 59.697914L278.73438 59.697914L278.73438 60.635414Q279.09375 59.979164 279.39062 59.77604Q279.70312 59.55729 280.07812 59.55729Q280.60938 59.55729 281.15625 59.885414L280.79688 60.86979Q280.40625 60.635414 280.03125 60.635414Q279.67188 60.635414 279.39062 60.854164Q279.125 61.05729 279.01562 61.43229Q278.82812 61.99479 278.82812 62.65104L278.82812 65.916664L277.78125 65.916664ZM284.09375 64.979164L284.25 65.90104Q283.79688 65.99479 283.45312 65.99479Q282.875 65.99479 282.5625 65.822914Q282.25 65.635414 282.10938 65.33854Q281.98438 65.041664 281.98438 64.08854L281.98438 60.510414L281.21875 60.510414L281.21875 59.697914L281.98438 59.697914L281.98438 58.15104L283.03125 57.52604L283.03125 59.697914L284.09375 59.697914L284.09375 60.510414L283.03125 60.510414L283.03125 64.15104Q283.03125 64.604164 283.07812 64.729164Q283.14062 64.854164 283.26562 64.93229Q283.39062 65.010414 283.625 65.010414Q283.8125 65.010414 284.09375 64.979164ZM284.79688 65.916664L284.79688 57.322914L285.84375 57.322914L285.84375 60.40104Q286.57812 59.55729 287.70312 59.55729Q288.40625 59.55729 288.90625 59.83854Q289.42188 60.104164 289.64062 60.58854Q289.85938 61.05729 289.85938 61.979164L289.85938 65.916664L288.8125 65.916664L288.8125 61.979164Q288.8125 61.18229 288.46875 60.822914Q288.125 60.46354 287.5 60.46354Q287.03125 60.46354 286.60938 60.71354Q286.20312 60.947914 286.01562 61.36979Q285.84375 61.77604 285.84375 62.510414L285.84375 65.916664L284.79688 65.916664Z" fill-rule="nonzero"/><path fill="#ffd966" d="M307.0 56.916668C307.0 56.364384 307.44772 55.916668 308.0 55.916668L318.0 55.916668C318.55228 55.916668 319.0 56.364384 319.0 56.916668L319.0 66.916664C319.0 67.46895 318.55228 67.916664 318.0 67.916664L308.0 67.916664C307.44772 67.916664 307.0 67.46895 307.0 66.916664Z" fill-rule="nonzero"/><path fill="#000000" d="M331.95312 62.541664L331.95312 61.541664L335.57812 61.52604L335.57812 64.71354Q334.75 65.385414 333.85938 65.729164Q332.96875 66.05729 332.03125 66.05729Q330.76562 66.05729 329.71875 65.52604Q328.6875 64.979164 328.15625 63.96354Q327.64062 62.93229 327.64062 61.666664Q327.64062 60.40104 328.15625 59.322914Q328.6875 58.229164 329.67188 57.71354Q330.65625 57.18229 331.9375 57.18229Q332.875 57.18229 333.625 57.479164Q334.375 57.77604 334.79688 58.322914Q335.23438 58.854164 335.45312 59.729164L334.4375 60.010414Q334.23438 59.354164 333.9375 58.979164Q333.65625 58.604164 333.125 58.385414Q332.59375 58.15104 331.95312 58.15104Q331.17188 58.15104 330.59375 58.385414Q330.03125 58.61979 329.67188 59.010414Q329.32812 59.40104 329.14062 59.86979Q328.8125 60.666664 328.8125 61.58854Q328.8125 62.74479 329.20312 63.52604Q329.60938 64.291664 330.35938 64.666664Q331.10938 65.041664 331.96875 65.041664Q332.70312 65.041664 333.40625 64.760414Q334.10938 64.46354 334.46875 64.15104L334.46875 62.541664L331.95312 62.541664ZM336.76562 65.916664L336.76562 57.322914L337.82812 57.322914L337.82812 65.916664L336.76562 65.916664ZM339.40625 62.80729Q339.40625 61.072914 340.35938 60.24479Q341.15625 59.55729 342.3125 59.55729Q343.59375 59.55729 344.40625 60.40104Q345.23438 61.229164 345.23438 62.71354Q345.23438 63.916664 344.875 64.604164Q344.51562 65.291664 343.8125 65.68229Q343.125 66.05729 342.3125 66.05729Q341.01562 66.05729 340.20312 65.229164Q339.40625 64.385414 339.40625 62.80729ZM340.48438 62.80729Q340.48438 63.99479 341.0 64.58854Q341.53125 65.18229 342.3125 65.18229Q343.10938 65.18229 343.625 64.58854Q344.14062 63.99479 344.14062 62.77604Q344.14062 61.61979 343.60938 61.02604Q343.09375 60.43229 342.3125 60.43229Q341.53125 60.43229 341.0 61.02604Q340.48438 61.604164 340.48438 62.80729ZM347.76562 65.916664L346.78125 65.916664L346.78125 57.322914L347.84375 57.322914L347.84375 60.385414Q348.51562 59.55729 349.54688 59.55729Q350.125 59.55729 350.625 59.791664Q351.14062 60.010414 351.46875 60.43229Q351.8125 60.854164 352.0 61.447914Q352.1875 62.041664 352.1875 62.71354Q352.1875 64.30729 351.39062 65.18229Q350.59375 66.05729 349.5 66.05729Q348.39062 66.05729 347.76562 65.135414L347.76562 65.916664ZM347.75 62.760414Q347.75 63.86979 348.0625 64.36979Q348.5625 65.18229 349.40625 65.18229Q350.09375 65.18229 350.59375 64.58854Q351.10938 63.99479 351.10938 62.791664Q351.10938 61.572914 350.625 60.99479Q350.14062 60.416664 349.45312 60.416664Q348.76562 60.416664 348.25 61.02604Q347.75 61.61979 347.75 62.760414ZM357.85938 65.15104Q357.26562 65.65104 356.71875 65.854164Q356.1875 66.05729 355.5625 66.05729Q354.53125 66.05729 353.98438 65.55729Q353.4375 65.05729 353.4375 64.27604Q353.4375 63.822914 353.64062 63.447914Q353.84375 63.05729 354.1875 62.83854Q354.53125 62.604164 354.95312 62.49479Q355.25 62.40104 355.89062 62.322914Q357.15625 62.18229 357.76562 61.96354Q357.76562 61.74479 357.76562 61.697914Q357.76562 61.041664 357.46875 60.77604Q357.0625 60.43229 356.26562 60.43229Q355.53125 60.43229 355.17188 60.697914Q354.8125 60.947914 354.64062 61.604164L353.60938 61.46354Q353.75 60.80729 354.07812 60.40104Q354.40625 59.99479 355.01562 59.77604Q355.625 59.55729 356.42188 59.55729Q357.21875 59.55729 357.71875 59.74479Q358.21875 59.93229 358.45312 60.21354Q358.6875 60.49479 358.78125 60.93229Q358.82812 61.197914 358.82812 61.90104L358.82812 63.30729Q358.82812 64.77604 358.89062 65.166664Q358.96875 65.55729 359.17188 65.916664L358.0625 65.916664Q357.90625 65.58854 357.85938 65.15104ZM357.76562 62.791664Q357.1875 63.02604 356.04688 63.197914Q355.39062 63.291664 355.125 63.416664Q354.85938 63.52604 354.70312 63.74479Q354.5625 63.96354 354.5625 64.24479Q354.5625 64.666664 354.875 64.947914Q355.20312 65.229164 355.8125 65.229164Q356.42188 65.229164 356.89062 64.96354Q357.375 64.697914 357.59375 64.229164Q357.76562 63.86979 357.76562 63.18229L357.76562 62.791664ZM360.76562 65.916664L360.76562 57.322914L361.82812 57.322914L361.82812 65.916664L360.76562 65.916664ZM366.54688 63.15104L367.60938 63.05729Q367.6875 63.71354 367.96875 64.11979Q368.25 64.52604 368.82812 64.791664Q369.42188 65.041664 370.15625 65.041664Q370.79688 65.041664 371.29688 64.854164Q371.79688 64.65104 372.03125 64.322914Q372.28125 63.979164 372.28125 63.58854Q372.28125 63.18229 372.04688 62.885414Q371.8125 62.572914 371.28125 62.36979Q370.92188 62.229164 369.73438 61.947914Q368.5625 61.666664 368.09375 61.416664Q367.46875 61.08854 367.17188 60.61979Q366.875 60.135414 366.875 59.541664Q366.875 58.90104 367.23438 58.33854Q367.60938 57.760414 368.3125 57.479164Q369.03125 57.18229 369.89062 57.18229Q370.84375 57.18229 371.57812 57.49479Q372.3125 57.791664 372.70312 58.40104Q373.09375 58.99479 373.125 59.74479L372.03125 59.822914Q371.9375 59.010414 371.42188 58.604164Q370.92188 58.18229 369.9375 58.18229Q368.90625 58.18229 368.4375 58.55729Q367.96875 58.93229 367.96875 59.46354Q367.96875 59.93229 368.29688 60.229164Q368.625 60.52604 370.0 60.83854Q371.39062 61.15104 371.90625 61.385414Q372.65625 61.74479 373.01562 62.27604Q373.375 62.791664 373.375 63.49479Q373.375 64.18229 372.98438 64.791664Q372.59375 65.385414 371.85938 65.729164Q371.125 66.05729 370.20312 66.05729Q369.03125 66.05729 368.23438 65.729164Q367.45312 65.385414 367.0 64.697914Q366.5625 64.010414 366.54688 63.15104ZM374.40625 62.80729Q374.40625 61.072914 375.35938 60.24479Q376.15625 59.55729 377.3125 59.55729Q378.59375 59.55729 379.40625 60.40104Q380.23438 61.229164 380.23438 62.71354Q380.23438 63.916664 379.875 64.604164Q379.51562 65.291664 378.8125 65.68229Q378.125 66.05729 377.3125 66.05729Q376.01562 66.05729 375.20312 65.229164Q374.40625 64.385414 374.40625 62.80729ZM375.48438 62.80729Q375.48438 63.99479 376.0 64.58854Q376.53125 65.18229 377.3125 65.18229Q378.10938 65.18229 378.625 64.58854Q379.14062 63.99479 379.14062 62.77604Q379.14062 61.61979 378.60938 61.02604Q378.09375 60.43229 377.3125 60.43229Q376.53125 60.43229 376.0 61.02604Q375.48438 61.604164 375.48438 62.80729ZM385.875 65.916664L385.875 64.99479Q385.14062 66.05729 383.89062 66.05729Q383.34375 66.05729 382.85938 65.854164Q382.39062 65.635414 382.15625 65.322914Q381.92188 64.99479 381.82812 64.52604Q381.76562 64.229164 381.76562 63.541664L381.76562 59.697914L382.82812 59.697914L382.82812 63.15104Q382.82812 63.96354 382.89062 64.260414Q382.98438 64.666664 383.29688 64.916664Q383.625 65.15104 384.10938 65.15104Q384.57812 65.15104 384.98438 64.916664Q385.40625 64.666664 385.57812 64.24479Q385.76562 63.822914 385.76562 63.02604L385.76562 59.697914L386.8125 59.697914L386.8125 65.916664L385.875 65.916664ZM391.09375 64.979164L391.25 65.90104Q390.79688 65.99479 390.45312 65.99479Q389.875 65.99479 389.5625 65.822914Q389.25 65.635414 389.10938 65.33854Q388.98438 65.041664 388.98438 64.08854L388.98438 60.510414L388.21875 60.510414L388.21875 59.697914L388.98438 59.697914L388.98438 58.15104L390.03125 57.52604L390.03125 59.697914L391.09375 59.697914L391.09375 60.510414L390.03125 60.510414L390.03125 64.15104Q390.03125 64.604164 390.07812 64.729164Q390.14062 64.854164 390.26562 64.93229Q390.39062 65.010414 390.625 65.010414Q390.8125 65.010414 391.09375 64.979164ZM391.79688 65.916664L391.79688 57.322914L392.84375 57.322914L392.84375 60.40104Q393.57812 59.55729 394.70312 59.55729Q395.40625 59.55729 395.90625 59.83854Q396.42188 60.104164 396.64062 60.58854Q396.85938 61.05729 396.85938 61.979164L396.85938 65.916664L395.8125 65.916664L395.8125 61.979164Q395.8125 61.18229 395.46875 60.822914Q395.125 60.46354 394.5 60.46354Q394.03125 60.46354 393.60938 60.71354Q393.20312 60.947914 393.01562 61.36979Q392.84375 61.77604 392.84375 62.510414L392.84375 65.916664L391.79688 65.916664Z" fill-rule="nonzero"/><path fill="#000000" d="M20.096874 37.55L20.096874 23.2375L25.01875 23.2375Q26.690624 23.2375 27.58125 23.440624Q28.8 23.721874 29.675 24.45625Q30.8 25.425 31.3625 26.909374Q31.925 28.39375 31.925 30.315624Q31.925 31.940624 31.55 33.20625Q31.175 34.45625 30.565624 35.284374Q29.971874 36.1125 29.26875 36.596874Q28.565624 37.065624 27.565624 37.315624Q26.565624 37.55 25.253124 37.55L20.096874 37.55ZM21.9875 35.8625L25.05 35.8625Q26.45625 35.8625 27.253124 35.596874Q28.065624 35.33125 28.55 34.846874Q29.221874 34.175 29.596874 33.05Q29.971874 31.909374 29.971874 30.284374Q29.971874 28.034374 29.2375 26.83125Q28.503124 25.628124 27.440624 25.221874Q26.690624 24.925 25.003124 24.925L21.9875 24.925L21.9875 35.8625ZM40.64375 36.26875Q39.659374 37.096874 38.753124 37.440624Q37.846874 37.784374 36.815624 37.784374Q35.1125 37.784374 34.190624 36.95625Q33.26875 36.1125 33.26875 34.815624Q33.26875 34.05 33.6125 33.425Q33.971874 32.8 34.534374 32.425Q35.096874 32.034374 35.8 31.83125Q36.315624 31.70625 37.3625 31.565624Q39.4875 31.315624 40.4875 30.971874Q40.503124 30.6125 40.503124 30.503124Q40.503124 29.440624 40.003124 28.9875Q39.33125 28.39375 38.003124 28.39375Q36.753124 28.39375 36.159374 28.83125Q35.58125 29.26875 35.3 30.378124L33.58125 30.14375Q33.815624 29.034374 34.346874 28.3625Q34.878124 27.675 35.89375 27.315624Q36.909374 26.940624 38.253124 26.940624Q39.58125 26.940624 40.409374 27.253124Q41.2375 27.565624 41.628124 28.05Q42.01875 28.51875 42.175 29.2375Q42.26875 29.690624 42.26875 30.8625L42.26875 33.20625Q42.26875 35.659374 42.378124 36.315624Q42.4875 36.95625 42.83125 37.55L40.9875 37.55Q40.721874 37.003124 40.64375 36.26875ZM40.4875 32.346874Q39.534374 32.7375 37.6125 33.003124Q36.534374 33.159374 36.08125 33.3625Q35.64375 33.55 35.39375 33.925Q35.14375 34.3 35.14375 34.76875Q35.14375 35.471874 35.675 35.940624Q36.20625 36.409374 37.2375 36.409374Q38.253124 36.409374 39.034374 35.971874Q39.83125 35.51875 40.20625 34.753124Q40.4875 34.14375 40.4875 32.9875L40.4875 32.346874ZM48.70625 35.971874L48.95625 37.534374Q48.221874 37.690624 47.628124 37.690624Q46.675 37.690624 46.14375 37.39375Q45.628124 37.08125 45.409374 36.596874Q45.190624 36.096874 45.190624 34.51875L45.190624 28.55L43.909374 28.55L43.909374 27.175L45.190624 27.175L45.190624 24.6125L46.940624 23.55L46.940624 27.175L48.70625 27.175L48.70625 28.55L46.940624 28.55L46.940624 34.6125Q46.940624 35.3625 47.034374 35.58125Q47.128124 35.784374 47.33125 35.925Q47.55 36.05 47.940624 36.05Q48.221874 36.05 48.70625 35.971874ZM57.64375 36.26875Q56.659374 37.096874 55.753124 37.440624Q54.846874 37.784374 53.815624 37.784374Q52.1125 37.784374 51.190624 36.95625Q50.26875 36.1125 50.26875 34.815624Q50.26875 34.05 50.6125 33.425Q50.971874 32.8 51.534374 32.425Q52.096874 32.034374 52.8 31.83125Q53.315624 31.70625 54.3625 31.565624Q56.4875 31.315624 57.4875 30.971874Q57.503124 30.6125 57.503124 30.503124Q57.503124 29.440624 57.003124 28.9875Q56.33125 28.39375 55.003124 28.39375Q53.753124 28.39375 53.159374 28.83125Q52.58125 29.26875 52.3 30.378124L50.58125 30.14375Q50.815624 29.034374 51.346874 28.3625Q51.878124 27.675 52.89375 27.315624Q53.909374 26.940624 55.253124 26.940624Q56.58125 26.940624 57.409374 27.253124Q58.2375 27.565624 58.628124 28.05Q59.01875 28.51875 59.175 29.2375Q59.26875 29.690624 59.26875 30.8625L59.26875 33.20625Q59.26875 35.659374 59.378124 36.315624Q59.4875 36.95625 59.83125 37.55L57.9875 37.55Q57.721874 37.003124 57.64375 36.26875ZM57.4875 32.346874Q56.534374 32.7375 54.6125 33.003124Q53.534374 33.159374 53.08125 33.3625Q52.64375 33.55 52.39375 33.925Q52.14375 34.3 52.14375 34.76875Q52.14375 35.471874 52.675 35.940624Q53.20625 36.409374 54.2375 36.409374Q55.253124 36.409374 56.034374 35.971874Q56.83125 35.51875 57.20625 34.753124Q57.4875 34.14375 57.4875 32.9875L57.4875 32.346874ZM67.45625 32.95625L69.2375 32.8Q69.3625 33.8625 69.81563 34.55Q70.28438 35.2375 71.25313 35.675Q72.2375 36.096874 73.47188 36.096874Q74.55 36.096874 75.37813 35.784374Q76.20625 35.45625 76.6125 34.89375Q77.01875 34.33125 77.01875 33.659374Q77.01875 32.9875 76.62813 32.4875Q76.2375 31.9875 75.34688 31.64375Q74.76875 31.409374 72.78438 30.940624Q70.81563 30.471874 70.03438 30.05Q69.00313 29.51875 68.50313 28.721874Q68.00313 27.925 68.00313 26.940624Q68.00313 25.846874 68.6125 24.909374Q69.22188 23.971874 70.40938 23.4875Q71.59688 22.9875 73.03438 22.9875Q74.62813 22.9875 75.84688 23.503124Q77.06563 24.01875 77.70625 25.01875Q78.3625 26.003124 78.40938 27.26875L76.59688 27.409374Q76.45625 26.05 75.6125 25.3625Q74.76875 24.659374 73.1125 24.659374Q71.39375 24.659374 70.59688 25.3Q69.81563 25.925 69.81563 26.8Q69.81563 27.58125 70.37813 28.08125Q70.925 28.58125 73.2375 29.096874Q75.55 29.6125 76.40938 30.003124Q77.65938 30.58125 78.25313 31.471874Q78.84688 32.346874 78.84688 33.503124Q78.84688 34.64375 78.19063 35.659374Q77.53438 36.675 76.3 37.2375Q75.08125 37.8 73.55 37.8Q71.6125 37.8 70.3 37.2375Q68.9875 36.659374 68.2375 35.51875Q67.4875 34.378124 67.45625 32.95625ZM84.70625 35.971874L84.95625 37.534374Q84.22188 37.690624 83.62813 37.690624Q82.675 37.690624 82.14375 37.39375Q81.62813 37.08125 81.40938 36.596874Q81.19063 36.096874 81.19063 34.51875L81.19063 28.55L79.90938 28.55L79.90938 27.175L81.19063 27.175L81.19063 24.6125L82.94063 23.55L82.94063 27.175L84.70625 27.175L84.70625 28.55L82.94063 28.55L82.94063 34.6125Q82.94063 35.3625 83.03438 35.58125Q83.12813 35.784374 83.33125 35.925Q83.55 36.05 83.94063 36.05Q84.22188 36.05 84.70625 35.971874ZM86.22188 32.3625Q86.22188 29.4875 87.81563 28.096874Q89.15938 26.940624 91.08125 26.940624Q93.22188 26.940624 94.56563 28.346874Q95.925 29.753124 95.925 32.221874Q95.925 34.221874 95.33125 35.378124Q94.7375 36.51875 93.58125 37.159374Q92.44063 37.784374 91.08125 37.784374Q88.89375 37.784374 87.55 36.39375Q86.22188 34.9875 86.22188 32.3625ZM88.01875 32.3625Q88.01875 34.3625 88.87813 35.346874Q89.75313 36.33125 91.08125 36.33125Q92.39375 36.33125 93.25313 35.346874Q94.12813 34.346874 94.12813 32.3Q94.12813 30.378124 93.25313 29.39375Q92.37813 28.39375 91.08125 28.39375Q89.75313 28.39375 88.87813 29.39375Q88.01875 30.378124 88.01875 32.3625ZM97.84688 37.55L97.84688 27.175L99.425 27.175L99.425 28.753124Q100.03438 27.64375 100.55 27.3Q101.06563 26.940624 101.675 26.940624Q102.56563 26.940624 103.4875 27.503124L102.87813 29.14375Q102.2375 28.753124 101.59688 28.753124Q101.01875 28.753124 100.55 29.1125Q100.09688 29.45625 99.89375 30.065624Q99.6125 31.003124 99.6125 32.1125L99.6125 37.55L97.84688 37.55ZM111.64375 36.26875Q110.65938 37.096874 109.75313 37.440624Q108.84688 37.784374 107.81563 37.784374Q106.1125 37.784374 105.19063 36.95625Q104.26875 36.1125 104.26875 34.815624Q104.26875 34.05 104.6125 33.425Q104.97188 32.8 105.53438 32.425Q106.09688 32.034374 106.8 31.83125Q107.31563 31.70625 108.3625 31.565624Q110.4875 31.315624 111.4875 30.971874Q111.50313 30.6125 111.50313 30.503124Q111.50313 29.440624 111.00313 28.9875Q110.33125 28.39375 109.00313 28.39375Q107.75313 28.39375 107.15938 28.83125Q106.58125 29.26875 106.3 30.378124L104.58125 30.14375Q104.81563 29.034374 105.34688 28.3625Q105.87813 27.675 106.89375 27.315624Q107.90938 26.940624 109.25313 26.940624Q110.58125 26.940624 111.40938 27.253124Q112.2375 27.565624 112.62813 28.05Q113.01875 28.51875 113.175 29.2375Q113.26875 29.690624 113.26875 30.8625L113.26875 33.20625Q113.26875 35.659374 113.37813 36.315624Q113.4875 36.95625 113.83125 37.55L111.9875 37.55Q111.72188 37.003124 111.64375 36.26875ZM111.4875 32.346874Q110.53438 32.7375 108.6125 33.003124Q107.53438 33.159374 107.08125 33.3625Q106.64375 33.55 106.39375 33.925Q106.14375 34.3 106.14375 34.76875Q106.14375 35.471874 106.675 35.940624Q107.20625 36.409374 108.2375 36.409374Q109.25313 36.409374 110.03438 35.971874Q110.83125 35.51875 111.20625 34.753124Q111.4875 34.14375 111.4875 32.9875L111.4875 32.346874ZM115.55 38.409374L117.25313 38.659374Q117.3625 39.45625 117.84688 39.815624Q118.50313 40.3 119.64375 40.3Q120.8625 40.3 121.51875 39.815624Q122.19063 39.33125 122.425 38.45625Q122.56563 37.909374 122.55 36.190624Q121.39375 37.55 119.675 37.55Q117.53438 37.55 116.3625 36.003124Q115.19063 34.45625 115.19063 32.3Q115.19063 30.815624 115.72188 29.565624Q116.26875 28.315624 117.28438 27.628124Q118.31563 26.940624 119.69063 26.940624Q121.51875 26.940624 122.72188 28.425L122.72188 27.175L124.33125 27.175L124.33125 36.14375Q124.33125 38.565624 123.83125 39.565624Q123.34688 40.58125 122.26875 41.159374Q121.20625 41.753124 119.64375 41.753124Q117.8 41.753124 116.64375 40.925Q115.50313 40.096874 115.55 38.409374ZM117.00313 32.175Q117.00313 34.221874 117.81563 35.159374Q118.62813 36.096874 119.84688 36.096874Q121.05 36.096874 121.8625 35.159374Q122.69063 34.221874 122.69063 32.2375Q122.69063 30.33125 121.84688 29.3625Q121.00313 28.39375 119.81563 28.39375Q118.64375 28.39375 117.81563 29.346874Q117.00313 30.3 117.00313 32.175ZM133.97188 34.20625L135.78438 34.440624Q135.3625 36.01875 134.19063 36.909374Q133.03438 37.784374 131.22188 37.784374Q128.95625 37.784374 127.6125 36.39375Q126.28438 34.9875 126.28438 32.45625Q126.28438 29.83125 127.62813 28.39375Q128.97188 26.940624 131.12813 26.940624Q133.20625 26.940624 134.51875 28.3625Q135.84688 29.76875 135.84688 32.346874Q135.84688 32.503124 135.83125 32.815624L128.09688 32.815624Q128.19063 34.51875 129.06563 35.425Q129.94063 36.33125 131.2375 36.33125Q132.20625 36.33125 132.87813 35.83125Q133.56563 35.315624 133.97188 34.20625ZM128.19063 31.3625L133.9875 31.3625Q133.87813 30.065624 133.33125 29.409374Q132.4875 28.39375 131.14375 28.39375Q129.94063 28.39375 129.1125 29.20625Q128.28438 30.003124 128.19063 31.3625ZM142.51875 37.55L148.01875 23.2375L150.06563 23.2375L155.925 37.55L153.76875 37.55L152.09688 33.20625L146.1125 33.20625L144.53438 37.55L142.51875 37.55ZM146.65938 31.675L151.50313 31.675L150.01875 27.70625Q149.33125 25.89375 149.00313 24.7375Q148.72188 26.1125 148.22188 27.471874L146.65938 31.675ZM156.84688 37.55L156.84688 27.175L158.425 27.175L158.425 28.753124Q159.03438 27.64375 159.55 27.3Q160.06563 26.940624 160.675 26.940624Q161.56563 26.940624 162.4875 27.503124L161.87813 29.14375Q161.2375 28.753124 160.59688 28.753124Q160.01875 28.753124 159.55 29.1125Q159.09688 29.45625 158.89375 30.065624Q158.6125 31.003124 158.6125 32.1125L158.6125 37.55L156.84688 37.55ZM170.64375 33.753124L172.3625 33.971874Q172.08125 35.76875 170.90938 36.784374Q169.75313 37.784374 168.05 37.784374Q165.925 37.784374 164.62813 36.39375Q163.33125 35.003124 163.33125 32.409374Q163.33125 30.721874 163.87813 29.471874Q164.44063 28.20625 165.58125 27.58125Q166.72188 26.940624 168.06563 26.940624Q169.75313 26.940624 170.81563 27.8Q171.89375 28.659374 172.20625 30.221874L170.4875 30.4875Q170.25313 29.440624 169.62813 28.925Q169.00313 28.39375 168.12813 28.39375Q166.8 28.39375 165.97188 29.346874Q165.14375 30.3 165.14375 32.346874Q165.14375 34.440624 165.94063 35.39375Q166.7375 36.33125 168.03438 36.33125Q169.06563 36.33125 169.75313 35.70625Q170.45625 35.065624 170.64375 33.753124ZM173.8625 37.55L173.8625 23.2375L175.62813 23.2375L175.62813 28.3625Q176.8625 26.940624 178.7375 26.940624Q179.87813 26.940624 180.72188 27.39375Q181.58125 27.846874 181.94063 28.659374Q182.31563 29.45625 182.31563 30.971874L182.31563 37.55L180.56563 37.55L180.56563 30.971874Q180.56563 29.659374 179.9875 29.065624Q179.40938 28.45625 178.37813 28.45625Q177.59688 28.45625 176.89375 28.8625Q176.20625 29.26875 175.90938 29.971874Q175.62813 30.659374 175.62813 31.878124L175.62813 37.55L173.8625 37.55ZM184.87813 25.253124L184.87813 23.2375L186.64375 23.2375L186.64375 25.253124L184.87813 25.253124ZM184.87813 37.55L184.87813 27.175L186.64375 27.175L186.64375 37.55L184.87813 37.55ZM192.70625 35.971874L192.95625 37.534374Q192.22188 37.690624 191.62813 37.690624Q190.675 37.690624 190.14375 37.39375Q189.62813 37.08125 189.40938 36.596874Q189.19063 36.096874 189.19063 34.51875L189.19063 28.55L187.90938 28.55L187.90938 27.175L189.19063 27.175L189.19063 24.6125L190.94063 23.55L190.94063 27.175L192.70625 27.175L192.70625 28.55L190.94063 28.55L190.94063 34.6125Q190.94063 35.3625 191.03438 35.58125Q191.12813 35.784374 191.33125 35.925Q191.55 36.05 191.94063 36.05Q192.22188 36.05 192.70625 35.971874ZM201.97188 34.20625L203.78438 34.440624Q203.3625 36.01875 202.19063 36.909374Q201.03438 37.784374 199.22188 37.784374Q196.95625 37.784374 195.6125 36.39375Q194.28438 34.9875 194.28438 32.45625Q194.28438 29.83125 195.62813 28.39375Q196.97188 26.940624 199.12813 26.940624Q201.20625 26.940624 202.51875 28.3625Q203.84688 29.76875 203.84688 32.346874Q203.84688 32.503124 203.83125 32.815624L196.09688 32.815624Q196.19063 34.51875 197.06563 35.425Q197.94063 36.33125 199.2375 36.33125Q200.20625 36.33125 200.87813 35.83125Q201.56563 35.315624 201.97188 34.20625ZM196.19063 31.3625L201.9875 31.3625Q201.87813 30.065624 201.33125 29.409374Q200.4875 28.39375 199.14375 28.39375Q197.94063 28.39375 197.1125 29.20625Q196.28438 30.003124 196.19063 31.3625ZM212.64375 33.753124L214.3625 33.971874Q214.08125 35.76875 212.90938 36.784374Q211.75313 37.784374 210.05 37.784374Q207.925 37.784374 206.62813 36.39375Q205.33125 35.003124 205.33125 32.409374Q205.33125 30.721874 205.87813 29.471874Q206.44063 28.20625 207.58125 27.58125Q208.72188 26.940624 210.06563 26.940624Q211.75313 26.940624 212.81563 27.8Q213.89375 28.659374 214.20625 30.221874L212.4875 30.4875Q212.25313 29.440624 211.62813 28.925Q211.00313 28.39375 210.12813 28.39375Q208.8 28.39375 207.97188 29.346874Q207.14375 30.3 207.14375 32.346874Q207.14375 34.440624 207.94063 35.39375Q208.7375 36.33125 210.03438 36.33125Q211.06563 36.33125 211.75313 35.70625Q212.45625 35.065624 212.64375 33.753124ZM219.70625 35.971874L219.95625 37.534374Q219.22188 37.690624 218.62813 37.690624Q217.675 37.690624 217.14375 37.39375Q216.62813 37.08125 216.40938 36.596874Q216.19063 36.096874 216.19063 34.51875L216.19063 28.55L214.90938 28.55L214.90938 27.175L216.19063 27.175L216.19063 24.6125L217.94063 23.55L217.94063 27.175L219.70625 27.175L219.70625 28.55L217.94063 28.55L217.94063 34.6125Q217.94063 35.3625 218.03438 35.58125Q218.12813 35.784374 218.33125 35.925Q218.55 36.05 218.94063 36.05Q219.22188 36.05 219.70625 35.971874ZM228.65938 37.55L228.65938 36.01875Q227.45625 37.784374 225.37813 37.784374Q224.45625 37.784374 223.65938 37.440624Q222.8625 37.08125 222.47188 36.55Q222.09688 36.01875 221.94063 35.2375Q221.83125 34.721874 221.83125 33.596874L221.83125 27.175L223.58125 27.175L223.58125 32.925Q223.58125 34.3 223.69063 34.784374Q223.8625 35.471874 224.39375 35.878124Q224.94063 36.26875 225.72188 36.26875Q226.51875 36.26875 227.20625 35.8625Q227.90938 35.45625 228.19063 34.76875Q228.4875 34.065624 228.4875 32.7375L228.4875 27.175L230.2375 27.175L230.2375 37.55L228.65938 37.55ZM232.84688 37.55L232.84688 27.175L234.425 27.175L234.425 28.753124Q235.03438 27.64375 235.55 27.3Q236.06563 26.940624 236.675 26.940624Q237.56563 26.940624 238.4875 27.503124L237.87813 29.14375Q237.2375 28.753124 236.59688 28.753124Q236.01875 28.753124 235.55 29.1125Q235.09688 29.45625 234.89375 30.065624Q234.6125 31.003124 234.6125 32.1125L234.6125 37.55L232.84688 37.55ZM246.97188 34.20625L248.78438 34.440624Q248.3625 36.01875 247.19063 36.909374Q246.03438 37.784374 244.22188 37.784374Q241.95625 37.784374 240.6125 36.39375Q239.28438 34.9875 239.28438 32.45625Q239.28438 29.83125 240.62813 28.39375Q241.97188 26.940624 244.12813 26.940624Q246.20625 26.940624 247.51875 28.3625Q248.84688 29.76875 248.84688 32.346874Q248.84688 32.503124 248.83125 32.815624L241.09688 32.815624Q241.19063 34.51875 242.06563 35.425Q242.94063 36.33125 244.2375 36.33125Q245.20625 36.33125 245.87813 35.83125Q246.56563 35.315624 246.97188 34.20625ZM241.19063 31.3625L246.9875 31.3625Q246.87813 30.065624 246.33125 29.409374Q245.4875 28.39375 244.14375 28.39375Q242.94063 28.39375 242.1125 29.20625Q241.28438 30.003124 241.19063 31.3625Z" fill-rule="nonzero"/></svg>