<svg version="1.1" viewBox="0.0 0.0 600.0 371.0" fill="none" stroke="none" stroke-linecap="square" stroke-miterlimit="10" width="600" height="371" xmlns:xlink="http://www.w3.org/1999/xlink" xmlns="http://www.w3.org/2000/svg"><path fill="#ffffff" d="M0 0L600.0 0L600.0 371.0L0 371.0L0 0Z" fill-rule="nonzero"/><path stroke="#333333" stroke-width="1.0" stroke-linecap="butt" d="M45.5 316.5L581.5 316.5" fill-rule="nonzero"/><path stroke="#000000" stroke-width="1.0" stroke-linecap="butt" d="M45.5 259.5L581.5 259.5" fill-rule="nonzero"/><path stroke="#000000" stroke-width="1.0" stroke-linecap="butt" d="M45.5 203.5L581.5 203.5" fill-rule="nonzero"/><path stroke="#000000" stroke-width="1.0" stroke-linecap="butt" d="M45.5 146.5L581.5 146.5" fill-rule="nonzero"/><path stroke="#000000" stroke-width="1.0" stroke-linecap="butt" d="M45.5 89.5L581.5 89.5" fill-rule="nonzero"/><clipPath id="id_0"><path d="M45.55 89.78333L581.45 89.78333L581.45 316.45L45.55 316.45L45.55 89.78333Z" clip-rule="nonzero"/></clipPath><path stroke="#000000" stroke-width="0.0" stroke-linecap="butt" stroke-opacity="0.0" clip-path="url(#id_0)" d="M94.0 316.0L71.0 316.0L71.0 264.0C71.0 262.89542 71.89543 262.0 73.0 262.0L92.0 262.0C93.10457 262.0 94.0 262.89542 94.0 264.0Z" fill-rule="nonzero"/><path fill="#b6d7a8" clip-path="url(#id_0)" d="M94.0 316.0L71.0 316.0L71.0 264.0C71.0 262.89542 71.89543 262.0 73.0 262.0L92.0 262.0C93.10457 262.0 94.0 262.89542 94.0 264.0Z" fill-rule="nonzero"/><path stroke="#000000" stroke-width="0.0" stroke-linecap="butt" stroke-opacity="0.0" clip-path="url(#id_0)" d="M167.0 316.0L144.0 316.0L144.0 214.0C144.0 212.89543 144.89543 212.0 146.0 212.0L165.0 212.0C166.10457 212.0 167.0 212.89543 167.0 214.0Z" fill-rule="nonzero"/><path fill="#b6d7a8" clip-path="url(#id_0)" d="M167.0 316.0L144.0 316.0L144.0 214.0C144.0 212.89543 144.89543 212.0 146.0 212.0L165.0 212.0C166.10457 212.0 167.0 212.89543 167.0 214.0Z" fill-rule="nonzero"/><path stroke="#000000" stroke-width="0.0" stroke-linecap="butt" stroke-opacity="0.0" clip-path="url(#id_0)" d="M240.0 316.0L217.0 316.0L217.0 275.0C217.0 273.89542 217.89543 273.0 219.0 273.0L238.0 273.0C239.10457 273.0 240.0 273.89542 240.0 275.0Z" fill-rule="nonzero"/><path fill="#b6d7a8" clip-path="url(#id_0)" d="M240.0 316.0L217.0 316.0L217.0 275.0C217.0 273.89542 217.89543 273.0 219.0 273.0L238.0 273.0C239.10457 273.0 240.0 273.89542 240.0 275.0Z" fill-rule="nonzero"/><path stroke="#000000" stroke-width="0.0" stroke-linecap="butt" stroke-opacity="0.0" clip-path="url(#id_0)" d="M313.0 316.0L290.0 316.0L290.0 309.0C290.0 307.89542 290.89542 307.0 292.0 307.0L311.0 307.0C312.10458 307.0 313.0 307.89542 313.0 309.0Z" fill-rule="nonzero"/><path fill="#b6d7a8" clip-path="url(#id_0)" d="M313.0 316.0L290.0 316.0L290.0 309.0C290.0 307.89542 290.89542 307.0 292.0 307.0L311.0 307.0C312.10458 307.0 313.0 307.89542 313.0 309.0Z" fill-rule="nonzero"/><path stroke="#000000" stroke-width="0.0" stroke-linecap="butt" stroke-opacity="0.0" clip-path="url(#id_0)" d="M385.0 316.0L362.0 316.0L362.0 300.0C362.0 298.89542 362.89542 298.0 364.0 298.0L383.0 298.0C384.10458 298.0 385.0 298.89542 385.0 300.0Z" fill-rule="nonzero"/><path fill="#b6d7a8" clip-path="url(#id_0)" d="M385.0 316.0L362.0 316.0L362.0 300.0C362.0 298.89542 362.89542 298.0 364.0 298.0L383.0 298.0C384.10458 298.0 385.0 298.89542 385.0 300.0Z" fill-rule="nonzero"/><path stroke="#000000" stroke-width="0.0" stroke-linecap="butt" stroke-opacity="0.0" clip-path="url(#id_0)" d="M458.0 316.0L435.0 316.0L435.0 314.0C435.0 312.89542 435.89542 312.0 437.0 312.0L456.0 312.0C457.10458 312.0 458.0 312.89542 458.0 314.0Z" fill-rule="nonzero"/><path fill="#b6d7a8" clip-path="url(#id_0)" d="M458.0 316.0L435.0 316.0L435.0 314.0C435.0 312.89542 435.89542 312.0 437.0 312.0L456.0 312.0C457.10458 312.0 458.0 312.89542 458.0 314.0Z" fill-rule="nonzero"/><path stroke="#000000" stroke-width="0.0" stroke-linecap="butt" stroke-opacity="0.0" clip-path="url(#id_0)" d="M531.0 316.0L508.0 316.0L508.0 315.0C508.0 314.44772 508.44772 314.0 509.0 314.0L530.0 314.0C530.5523 314.0 531.0 314.44772 531.0 315.0Z" fill-rule="nonzero"/><path fill="#b6d7a8" clip-path="url(#id_0)" d="M531.0 316.0L508.0 316.0L508.0 315.0C508.0 314.44772 508.44772 314.0 509.0 314.0L530.0 314.0C530.5523 314.0 531.0 314.44772 531.0 315.0Z" fill-rule="nonzero"/><path stroke="#000000" stroke-width="0.0" stroke-linecap="butt" stroke-opacity="0.0" clip-path="url(#id_0)" d="M118.0 316.0L95.0 316.0L95.0 110.0C95.0 108.89543 95.89543 108.0 97.0 108.0L116.0 108.0C117.10457 108.0 118.0 108.89543 118.0 110.0Z" fill-rule="nonzero"/><path fill="#ffd966" clip-path="url(#id_0)" d="M118.0 316.0L95.0 316.0L95.0 110.0C95.0 108.89543 95.89543 108.0 97.0 108.0L116.0 108.0C117.10457 108.0 118.0 108.89543 118.0 110.0Z" fill-rule="nonzero"/><path stroke="#000000" stroke-width="0.0" stroke-linecap="butt" stroke-opacity="0.0" clip-path="url(#id_0)" d="M191.0 316.0L168.0 316.0L168.0 232.0C168.0 230.89543 168.89543 230.0 170.0 230.0L189.0 230.0C190.10457 230.0 191.0 230.89543 191.0 232.0Z" fill-rule="nonzero"/><path fill="#ffd966" clip-path="url(#id_0)" d="M191.0 316.0L168.0 316.0L168.0 232.0C168.0 230.89543 168.89543 230.0 170.0 230.0L189.0 230.0C190.10457 230.0 191.0 230.89543 191.0 232.0Z" fill-rule="nonzero"/><path stroke="#000000" stroke-width="0.0" stroke-linecap="butt" stroke-opacity="0.0" clip-path="url(#id_0)" d="M264.0 316.0L241.0 316.0L241.0 296.0C241.0 294.89542 241.89543 294.0 243.0 294.0L262.0 294.0C263.10458 294.0 264.0 294.89542 264.0 296.0Z" fill-rule="nonzero"/><path fill="#ffd966" clip-path="url(#id_0)" d="M264.0 316.0L241.0 316.0L241.0 296.0C241.0 294.89542 241.89543 294.0 243.0 294.0L262.0 294.0C263.10458 294.0 264.0 294.89542 264.0 296.0Z" fill-rule="nonzero"/><path stroke="#000000" stroke-width="0.0" stroke-linecap="butt" stroke-opacity="0.0" clip-path="url(#id_0)" d="M337.0 316.0L314.0 316.0L314.0 315.0C314.0 314.44772 314.44772 314.0 315.0 314.0L336.0 314.0C336.55228 314.0 337.0 314.44772 337.0 315.0Z" fill-rule="nonzero"/><path fill="#ffd966" clip-path="url(#id_0)" d="M337.0 316.0L314.0 316.0L314.0 315.0C314.0 314.44772 314.44772 314.0 315.0 314.0L336.0 314.0C336.55228 314.0 337.0 314.44772 337.0 315.0Z" fill-rule="nonzero"/><path stroke="#000000" stroke-width="0.0" stroke-linecap="butt" stroke-opacity="0.0" clip-path="url(#id_0)" d="M409.0 316.0L386.0 316.0L386.0 314.0C386.0 312.89542 386.89542 312.0 388.0 312.0L407.0 312.0C408.10458 312.0 409.0 312.89542 409.0 314.0Z" fill-rule="nonzero"/><path fill="#ffd966" clip-path="url(#id_0)" d="M409.0 316.0L386.0 316.0L386.0 314.0C386.0 312.89542 386.89542 312.0 388.0 312.0L407.0 312.0C408.10458 312.0 409.0 312.89542 409.0 314.0Z" fill-rule="nonzero"/><path stroke="#000000" stroke-width="0.0" stroke-linecap="butt" stroke-opacity="0.0" clip-path="url(#id_0)" d="M482.0 316.0L459.0 316.0L459.0 316.0L482.0 316.0Z" fill-rule="nonzero"/><path fill="#ffd966" clip-path="url(#id_0)" d="M482.0 316.0L459.0 316.0L459.0 316.0L482.0 316.0Z" fill-rule="nonzero"/><path stroke="#000000" stroke-width="0.0" stroke-linecap="butt" stroke-opacity="0.0" clip-path="url(#id_0)" d="M555.0 316.0L532.0 316.0L532.0 316.0L555.0 316.0Z" fill-rule="nonzero"/><path fill="#ffd966" clip-path="url(#id_0)" d="M555.0 316.0L532.0 316.0L532.0 316.0L555.0 316.0Z" fill-rule="nonzero"/><path fill="#000000" d="M38.6125 317.3094Q38.6125 319.21564 37.95625 320.15314Q37.315624 321.075 35.925 321.075Q34.565624 321.075 33.909374 320.16876Q33.253124 319.2625 33.221874 317.45L33.221874 316.0125Q33.221874 314.1219 33.8625 313.21564Q34.51875 312.29376 35.909374 312.29376Q37.284374 312.29376 37.940624 313.1844Q38.596874 314.0594 38.6125 315.90314L38.6125 317.3094ZM37.51875 315.825Q37.51875 314.45 37.128124 313.825Q36.753124 313.1844 35.909374 313.1844Q35.08125 313.1844 34.690624 313.825Q34.315624 314.45 34.315624 315.7469L34.315624 317.48126Q34.315624 318.85626 34.70625 319.52814Q35.1125 320.1844 35.925 320.1844Q36.721874 320.1844 37.1125 319.5594Q37.503124 318.9344 37.51875 317.60626L37.51875 315.825Z" fill-rule="nonzero"/><path fill="#000000" d="M31.846874 264.28333L26.253124 264.28333L26.253124 263.50208L29.20625 260.22083Q29.8625 259.47083 30.1125 259.0177Q30.3625 258.54895 30.3625 258.04895Q30.3625 257.37708 29.95625 256.9552Q29.565624 256.5177 28.878124 256.5177Q28.08125 256.5177 27.628124 256.98645Q27.175 257.43958 27.175 258.2677L26.096874 258.2677Q26.096874 257.0802 26.846874 256.36145Q27.6125 255.62708 28.878124 255.62708Q30.08125 255.62708 30.76875 256.25208Q31.45625 256.87708 31.45625 257.92395Q31.45625 259.17395 29.846874 260.92395L27.565624 263.3927L31.846874 263.3927L31.846874 264.28333ZM33.753124 260.00208L34.190624 255.75208L38.565624 255.75208L38.565624 256.75208L35.1125 256.75208L34.846874 259.0802Q35.4875 258.7052 36.284374 258.7052Q37.440624 258.7052 38.128124 259.48645Q38.815624 260.25208 38.815624 261.56458Q38.815624 262.87708 38.096874 263.6427Q37.39375 264.40833 36.1125 264.40833Q34.9875 264.40833 34.26875 263.78333Q33.55 263.1427 33.45625 262.03333L34.471874 262.03333Q34.58125 262.7677 35.003124 263.1427Q35.425 263.5177 36.1125 263.5177Q36.8625 263.5177 37.3 263.00208Q37.7375 262.48645 37.7375 261.5802Q37.7375 260.72083 37.26875 260.2052Q36.8 259.68958 36.01875 259.68958Q35.315624 259.68958 34.909374 259.98645L34.628124 260.22083L33.753124 260.00208Z" fill-rule="nonzero"/><path fill="#000000" d="M26.753124 203.33542L27.190624 199.08542L31.565624 199.08542L31.565624 200.08542L28.1125 200.08542L27.846874 202.41354Q28.4875 202.03854 29.284374 202.03854Q30.440624 202.03854 31.128124 202.8198Q31.815624 203.58542 31.815624 204.89792Q31.815624 206.21042 31.096874 206.97604Q30.39375 207.74167 29.1125 207.74167Q27.9875 207.74167 27.26875 207.11667Q26.55 206.47604 26.45625 205.36667L27.471874 205.36667Q27.58125 206.10104 28.003124 206.47604Q28.425 206.85104 29.1125 206.85104Q29.8625 206.85104 30.3 206.33542Q30.7375 205.8198 30.7375 204.91354Q30.7375 204.05417 30.26875 203.53854Q29.8 203.02292 29.01875 203.02292Q28.315624 203.02292 27.909374 203.3198L27.628124 203.55417L26.753124 203.33542ZM38.6125 203.97604Q38.6125 205.8823 37.95625 206.8198Q37.315624 207.74167 35.925 207.74167Q34.565624 207.74167 33.909374 206.83542Q33.253124 205.92917 33.221874 204.11667L33.221874 202.67917Q33.221874 200.78854 33.8625 199.8823Q34.51875 198.96042 35.909374 198.96042Q37.284374 198.96042 37.940624 199.85104Q38.596874 200.72604 38.6125 202.5698L38.6125 203.97604ZM37.51875 202.49167Q37.51875 201.11667 37.128124 200.49167Q36.753124 199.85104 35.909374 199.85104Q35.08125 199.85104 34.690624 200.49167Q34.315624 201.11667 34.315624 202.41354L34.315624 204.14792Q34.315624 205.52292 34.70625 206.1948Q35.1125 206.85104 35.925 206.85104Q36.721874 206.85104 37.1125 206.22604Q37.503124 205.60104 37.51875 204.27292L37.51875 202.49167Z" fill-rule="nonzero"/><path fill="#000000" d="M31.76875 143.02812L28.2375 150.95L27.096874 150.95L30.6125 143.30937L26.003124 143.30937L26.003124 142.41875L31.76875 142.41875L31.76875 143.02812ZM33.753124 146.66875L34.190624 142.41875L38.565624 142.41875L38.565624 143.41875L35.1125 143.41875L34.846874 145.74687Q35.4875 145.37187 36.284374 145.37187Q37.440624 145.37187 38.128124 146.15312Q38.815624 146.91875 38.815624 148.23125Q38.815624 149.54375 38.096874 150.30937Q37.39375 151.075 36.1125 151.075Q34.9875 151.075 34.26875 150.45Q33.55 149.80937 33.45625 148.7L34.471874 148.7Q34.58125 149.43437 35.003124 149.80937Q35.425 150.18437 36.1125 150.18437Q36.8625 150.18437 37.3 149.66875Q37.7375 149.15312 37.7375 148.24687Q37.7375 147.3875 37.26875 146.87187Q36.8 146.35625 36.01875 146.35625Q35.315624 146.35625 34.909374 146.65312L34.628124 146.8875L33.753124 146.66875Z" fill-rule="nonzero"/><path fill="#000000" d="M22.815624 94.28333L21.7375 94.28333L21.7375 87.06458L19.55 87.86146L19.55 86.87708L22.659374 85.70521L22.815624 85.70521L22.815624 94.28333ZM31.6125 90.64271Q31.6125 92.54896 30.95625 93.48646Q30.315624 94.40833 28.925 94.40833Q27.565624 94.40833 26.909374 93.50208Q26.253124 92.59583 26.221874 90.78333L26.221874 89.34583Q26.221874 87.45521 26.8625 86.54896Q27.51875 85.62708 28.909374 85.62708Q30.284374 85.62708 30.940624 86.51771Q31.596874 87.39271 31.6125 89.23646L31.6125 90.64271ZM30.51875 89.15833Q30.51875 87.78333 30.128124 87.15833Q29.753124 86.51771 28.909374 86.51771Q28.08125 86.51771 27.690624 87.15833Q27.315624 87.78333 27.315624 89.08021L27.315624 90.81458Q27.315624 92.18958 27.70625 92.86146Q28.1125 93.51771 28.925 93.51771Q29.721874 93.51771 30.1125 92.89271Q30.503124 92.26771 30.51875 90.93958L30.51875 89.15833ZM38.6125 90.64271Q38.6125 92.54896 37.95625 93.48646Q37.315624 94.40833 35.925 94.40833Q34.565624 94.40833 33.909374 93.50208Q33.253124 92.59583 33.221874 90.78333L33.221874 89.34583Q33.221874 87.45521 33.8625 86.54896Q34.51875 85.62708 35.909374 85.62708Q37.284374 85.62708 37.940624 86.51771Q38.596874 87.39271 38.6125 89.23646L38.6125 90.64271ZM37.51875 89.15833Q37.51875 87.78333 37.128124 87.15833Q36.753124 86.51771 35.909374 86.51771Q35.08125 86.51771 34.690624 87.15833Q34.315624 87.78333 34.315624 89.08021L34.315624 90.81458Q34.315624 92.18958 34.70625 92.86146Q35.1125 93.51771 35.925 93.51771Q36.721874 93.51771 37.1125 92.89271Q37.503124 92.26771 37.51875 90.93958L37.51875 89.15833Z" fill-rule="nonzero"/><path fill="#000000" d="M67.53093 334.45L66.452805 334.45L66.452805 327.23126L64.265305 328.02814L64.265305 327.04376L67.37468 325.8719L67.53093 325.8719L67.53093 334.45ZM76.15593 328.1375Q76.15593 328.77814 75.81218 329.27814Q75.46843 329.77814 74.90593 330.0594Q75.56218 330.34064 75.952805 330.90314Q76.34343 331.45 76.34343 332.15314Q76.34343 333.2469 75.59343 333.91876Q74.859055 334.575 73.640305 334.575Q72.40593 334.575 71.65593 333.91876Q70.921555 333.2469 70.921555 332.15314Q70.921555 331.45 71.296555 330.90314Q71.671555 330.34064 72.34343 330.0594Q71.78093 329.77814 71.452805 329.27814Q71.12468 328.77814 71.12468 328.1375Q71.12468 327.0594 71.81218 326.4344Q72.49968 325.79376 73.640305 325.79376Q74.765305 325.79376 75.452805 326.4344Q76.15593 327.0594 76.15593 328.1375ZM75.265305 332.1219Q75.265305 331.40314 74.81218 330.96564Q74.359055 330.5125 73.62468 330.5125Q72.890305 330.5125 72.43718 330.96564Q71.99968 331.40314 71.99968 332.1375Q71.99968 332.85626 72.43718 333.27814Q72.87468 333.6844 73.640305 333.6844Q74.390305 333.6844 74.827805 333.2625Q75.265305 332.84064 75.265305 332.1219ZM73.640305 326.6844Q72.99968 326.6844 72.59343 327.09064Q72.202805 327.48126 72.202805 328.16876Q72.202805 328.8094 72.59343 329.21564Q72.984055 329.6219 73.62468 329.6219Q74.28093 329.6219 74.671555 329.21564Q75.06218 328.8094 75.06218 328.16876Q75.06218 327.5125 74.65593 327.10626Q74.24968 326.6844 73.640305 326.6844ZM80.34343 331.2625L77.484055 331.2625L77.484055 330.3875L80.34343 330.3875L80.34343 331.2625ZM86.56218 334.45L80.96843 334.45L80.96843 333.66876L83.921555 330.3875Q84.577805 329.6375 84.827805 329.1844Q85.077805 328.71564 85.077805 328.21564Q85.077805 327.54376 84.671555 327.1219Q84.28093 326.6844 83.59343 326.6844Q82.796555 326.6844 82.34343 327.15314Q81.890305 327.60626 81.890305 328.4344L80.81218 328.4344Q80.81218 327.2469 81.56218 326.52814Q82.327805 325.79376 83.59343 325.79376Q84.796555 325.79376 85.484055 326.41876Q86.171555 327.04376 86.171555 328.09064Q86.171555 329.34064 84.56218 331.09064L82.28093 333.5594L86.56218 333.5594L86.56218 334.45ZM92.546555 331.59064L93.734055 331.59064L93.734055 332.46564L92.546555 332.46564L92.546555 334.45L91.46843 334.45L91.46843 332.46564L87.577805 332.46564L87.577805 331.825L91.390305 325.91876L92.546555 325.91876L92.546555 331.59064ZM88.81218 331.59064L91.46843 331.59064L91.46843 327.40314L91.327805 327.6375L88.81218 331.59064ZM100.15593 332.85626L101.640305 328.10626L102.796555 328.10626L100.24968 335.4344Q99.65593 337.0125 98.37468 337.0125L98.15593 336.9969L97.765305 336.91876L97.765305 336.04376L98.046555 336.0594Q98.609055 336.0594 98.90593 335.84064Q99.21843 335.6219 99.421555 335.02814L99.65593 334.3719L97.390305 328.10626L98.577805 328.10626L100.15593 332.85626ZM106.71843 334.575Q105.421555 334.575 104.609055 333.73126Q103.81218 332.8719 103.81218 331.45L103.81218 331.2625Q103.81218 330.3094 104.171555 329.575Q104.53093 328.825 105.171555 328.41876Q105.827805 327.9969 106.577805 327.9969Q107.81218 327.9969 108.49968 328.8094Q109.18718 329.6219 109.18718 331.1375L109.18718 331.59064L104.890305 331.59064Q104.921555 332.52814 105.43718 333.10626Q105.96843 333.6844 106.78093 333.6844Q107.34343 333.6844 107.734055 333.45Q108.140305 333.21564 108.452805 332.825L109.109055 333.34064Q108.31218 334.575 106.71843 334.575ZM106.577805 328.8875Q105.921555 328.8875 105.46843 329.3719Q105.03093 329.84064 104.93718 330.7L108.109055 330.7L108.109055 330.6219Q108.06218 329.79376 107.65593 329.34064Q107.265305 328.8875 106.577805 328.8875ZM113.99968 334.45Q113.90593 334.2625 113.84343 333.77814Q113.09343 334.575 112.046555 334.575Q111.109055 334.575 110.49968 334.04376Q109.90593 333.5125 109.90593 332.6844Q109.90593 331.7 110.65593 331.15314Q111.40593 330.60626 112.78093 330.60626L113.827805 330.60626L113.827805 330.10626Q113.827805 329.54376 113.484055 329.21564Q113.15593 328.8719 112.484055 328.8719Q111.90593 328.8719 111.515305 329.16876Q111.12468 329.45 111.12468 329.8719L110.03093 329.8719Q110.03093 329.3875 110.359055 328.95Q110.702805 328.5125 111.28093 328.2625Q111.859055 327.9969 112.546555 327.9969Q113.65593 327.9969 114.265305 328.54376Q114.890305 329.09064 114.921555 330.04376L114.921555 332.96564Q114.921555 333.84064 115.140305 334.35626L115.140305 334.45L113.99968 334.45ZM112.202805 333.6219Q112.71843 333.6219 113.171555 333.35626Q113.62468 333.09064 113.827805 332.66876L113.827805 331.3719L112.984055 331.3719Q110.984055 331.3719 110.984055 332.54376Q110.984055 333.04376 111.327805 333.34064Q111.671555 333.6219 112.202805 333.6219ZM120.15593 329.075Q119.90593 329.04376 119.62468 329.04376Q118.546555 329.04376 118.171555 329.95L118.171555 334.45L117.09343 334.45L117.09343 328.10626L118.140305 328.10626L118.15593 328.84064Q118.68718 327.9969 119.671555 327.9969Q119.984055 327.9969 120.15593 328.075L120.15593 329.075ZM124.78093 332.7625Q124.78093 332.325 124.43718 332.09064Q124.109055 331.84064 123.28093 331.66876Q122.46843 331.4969 121.984055 331.2469Q121.49968 330.9969 121.265305 330.66876Q121.046555 330.325 121.046555 329.85626Q121.046555 329.075 121.702805 328.54376Q122.359055 327.9969 123.390305 327.9969Q124.46843 327.9969 125.12468 328.5594Q125.796555 329.10626 125.796555 329.96564L124.71843 329.96564Q124.71843 329.52814 124.327805 329.21564Q123.952805 328.8875 123.390305 328.8875Q122.796555 328.8875 122.452805 329.15314Q122.12468 329.40314 122.12468 329.8094Q122.12468 330.2 122.43718 330.40314Q122.74968 330.60626 123.56218 330.79376Q124.37468 330.96564 124.87468 331.21564Q125.37468 331.46564 125.609055 331.825Q125.859055 332.1844 125.859055 332.6844Q125.859055 333.54376 125.171555 334.0594Q124.49968 334.575 123.421555 334.575Q122.65593 334.575 122.06218 334.3094Q121.484055 334.02814 121.15593 333.54376Q120.827805 333.0594 120.827805 332.4969L121.90593 332.4969Q121.93718 333.04376 122.34343 333.3719Q122.74968 333.6844 123.421555 333.6844Q124.03093 333.6844 124.40593 333.4344Q124.78093 333.1844 124.78093 332.7625Z" fill-rule="nonzero"/><path fill="#000000" d="M86.796555 346.21564Q86.796555 345.29376 87.15593 344.54376Q87.53093 343.79376 88.18718 343.40314Q88.84343 342.9969 89.671555 342.9969Q90.96843 342.9969 91.765305 343.8875Q92.577805 344.77814 92.577805 346.27814L92.577805 346.35626Q92.577805 347.27814 92.21843 348.0125Q91.859055 348.7469 91.202805 349.16876Q90.546555 349.575 89.68718 349.575Q88.40593 349.575 87.59343 348.6844Q86.796555 347.77814 86.796555 346.29376L86.796555 346.21564ZM87.890305 346.35626Q87.890305 347.40314 88.37468 348.04376Q88.87468 348.6844 89.68718 348.6844Q90.515305 348.6844 90.99968 348.04376Q91.484055 347.3875 91.484055 346.21564Q91.484055 345.1844 90.984055 344.54376Q90.49968 343.8875 89.671555 343.8875Q88.87468 343.8875 88.37468 344.52814Q87.890305 345.15314 87.890305 346.35626ZM95.265305 349.45L94.18718 349.45L94.18718 340.45L95.265305 340.45L95.265305 349.45ZM96.827805 346.23126Q96.827805 344.7625 97.515305 343.8875Q98.202805 342.9969 99.327805 342.9969Q100.43718 342.9969 101.09343 343.7469L101.09343 340.45L102.171555 340.45L102.171555 349.45L101.171555 349.45L101.12468 348.7625Q100.46843 349.575 99.31218 349.575Q98.21843 349.575 97.515305 348.66876Q96.827805 347.7625 96.827805 346.3094L96.827805 346.23126ZM97.90593 346.35626Q97.90593 347.4344 98.34343 348.04376Q98.796555 348.65314 99.577805 348.65314Q100.609055 348.65314 101.09343 347.71564L101.09343 344.8094Q100.609055 343.91876 99.59343 343.91876Q98.796555 343.91876 98.34343 344.52814Q97.90593 345.1375 97.90593 346.35626Z" fill-rule="nonzero"/><path fill="#000000" d="M142.47374 334.45L136.87999 334.45L136.87999 333.66876L139.83311 330.3875Q140.48936 329.6375 140.73936 329.1844Q140.98936 328.71564 140.98936 328.21564Q140.98936 327.54376 140.58311 327.1219Q140.19249 326.6844 139.50499 326.6844Q138.70811 326.6844 138.25499 327.15314Q137.80186 327.60626 137.80186 328.4344L136.72374 328.4344Q136.72374 327.2469 137.47374 326.52814Q138.23936 325.79376 139.50499 325.79376Q140.70811 325.79376 141.39561 326.41876Q142.08311 327.04376 142.08311 328.09064Q142.08311 329.34064 140.47374 331.09064L138.19249 333.5594L142.47374 333.5594L142.47374 334.45ZM144.37999 330.16876L144.81749 325.91876L149.19249 325.91876L149.19249 326.91876L145.73936 326.91876L145.47374 329.2469Q146.11436 328.8719 146.91124 328.8719Q148.06749 328.8719 148.75499 329.65314Q149.44249 330.41876 149.44249 331.73126Q149.44249 333.04376 148.72374 333.8094Q148.02061 334.575 146.73936 334.575Q145.61436 334.575 144.89561 333.95Q144.17686 333.3094 144.08311 332.2L145.09874 332.2Q145.20811 332.9344 145.62999 333.3094Q146.05186 333.6844 146.73936 333.6844Q147.48936 333.6844 147.92686 333.16876Q148.36436 332.65314 148.36436 331.7469Q148.36436 330.8875 147.89561 330.3719Q147.42686 329.85626 146.64561 329.85626Q145.94249 329.85626 145.53624 330.15314L145.25499 330.3875L144.37999 330.16876ZM153.25499 331.2625L150.39561 331.2625L150.39561 330.3875L153.25499 330.3875L153.25499 331.2625ZM155.45811 329.65314L156.27061 329.65314Q157.05186 329.6375 157.48936 329.2469Q157.92686 328.85626 157.92686 328.1844Q157.92686 326.6844 156.42686 326.6844Q155.72374 326.6844 155.30186 327.09064Q154.89561 327.4969 154.89561 328.15314L153.80186 328.15314Q153.80186 327.1375 154.53624 326.46564Q155.28624 325.79376 156.42686 325.79376Q157.62999 325.79376 158.31749 326.4344Q159.00499 327.075 159.00499 328.21564Q159.00499 328.77814 158.64561 329.29376Q158.28624 329.8094 157.66124 330.075Q158.36436 330.29376 158.73936 330.8094Q159.12999 331.325 159.12999 332.075Q159.12999 333.21564 158.37999 333.90314Q157.62999 334.575 156.42686 334.575Q155.23936 334.575 154.47374 333.91876Q153.72374 333.2625 153.72374 332.2L154.81749 332.2Q154.81749 332.8719 155.25499 333.27814Q155.69249 333.6844 156.44249 333.6844Q157.22374 333.6844 157.62999 333.27814Q158.05186 332.85626 158.05186 332.09064Q158.05186 331.35626 157.59874 330.96564Q157.14561 330.5594 156.27061 330.54376L155.45811 330.54376L155.45811 329.65314ZM165.45811 331.59064L166.64561 331.59064L166.64561 332.46564L165.45811 332.46564L165.45811 334.45L164.37999 334.45L164.37999 332.46564L160.48936 332.46564L160.48936 331.825L164.30186 325.91876L165.45811 325.91876L165.45811 331.59064ZM161.72374 331.59064L164.37999 331.59064L164.37999 327.40314L164.23936 327.6375L161.72374 331.59064ZM173.06749 332.85626L174.55186 328.10626L175.70811 328.10626L173.16124 335.4344Q172.56749 337.0125 171.28624 337.0125L171.06749 336.9969L170.67686 336.91876L170.67686 336.04376L170.95811 336.0594Q171.52061 336.0594 171.81749 335.84064Q172.12999 335.6219 172.33311 335.02814L172.56749 334.3719L170.30186 328.10626L171.48936 328.10626L173.06749 332.85626ZM179.62999 334.575Q178.33311 334.575 177.52061 333.73126Q176.72374 332.8719 176.72374 331.45L176.72374 331.2625Q176.72374 330.3094 177.08311 329.575Q177.44249 328.825 178.08311 328.41876Q178.73936 327.9969 179.48936 327.9969Q180.72374 327.9969 181.41124 328.8094Q182.09874 329.6219 182.09874 331.1375L182.09874 331.59064L177.80186 331.59064Q177.83311 332.52814 178.34874 333.10626Q178.87999 333.6844 179.69249 333.6844Q180.25499 333.6844 180.64561 333.45Q181.05186 333.21564 181.36436 332.825L182.02061 333.34064Q181.22374 334.575 179.62999 334.575ZM179.48936 328.8875Q178.83311 328.8875 178.37999 329.3719Q177.94249 329.84064 177.84874 330.7L181.02061 330.7L181.02061 330.6219Q180.97374 329.79376 180.56749 329.34064Q180.17686 328.8875 179.48936 328.8875ZM186.91124 334.45Q186.81749 334.2625 186.75499 333.77814Q186.00499 334.575 184.95811 334.575Q184.02061 334.575 183.41124 334.04376Q182.81749 333.5125 182.81749 332.6844Q182.81749 331.7 183.56749 331.15314Q184.31749 330.60626 185.69249 330.60626L186.73936 330.60626L186.73936 330.10626Q186.73936 329.54376 186.39561 329.21564Q186.06749 328.8719 185.39561 328.8719Q184.81749 328.8719 184.42686 329.16876Q184.03624 329.45 184.03624 329.8719L182.94249 329.8719Q182.94249 329.3875 183.27061 328.95Q183.61436 328.5125 184.19249 328.2625Q184.77061 327.9969 185.45811 327.9969Q186.56749 327.9969 187.17686 328.54376Q187.80186 329.09064 187.83311 330.04376L187.83311 332.96564Q187.83311 333.84064 188.05186 334.35626L188.05186 334.45L186.91124 334.45ZM185.11436 333.6219Q185.62999 333.6219 186.08311 333.35626Q186.53624 333.09064 186.73936 332.66876L186.73936 331.3719L185.89561 331.3719Q183.89561 331.3719 183.89561 332.54376Q183.89561 333.04376 184.23936 333.34064Q184.58311 333.6219 185.11436 333.6219ZM193.06749 329.075Q192.81749 329.04376 192.53624 329.04376Q191.45811 329.04376 191.08311 329.95L191.08311 334.45L190.00499 334.45L190.00499 328.10626L191.05186 328.10626L191.06749 328.84064Q191.59874 327.9969 192.58311 327.9969Q192.89561 327.9969 193.06749 328.075L193.06749 329.075ZM197.69249 332.7625Q197.69249 332.325 197.34874 332.09064Q197.02061 331.84064 196.19249 331.66876Q195.37999 331.4969 194.89561 331.2469Q194.41124 330.9969 194.17686 330.66876Q193.95811 330.325 193.95811 329.85626Q193.95811 329.075 194.61436 328.54376Q195.27061 327.9969 196.30186 327.9969Q197.37999 327.9969 198.03624 328.5594Q198.70811 329.10626 198.70811 329.96564L197.62999 329.96564Q197.62999 329.52814 197.23936 329.21564Q196.86436 328.8875 196.30186 328.8875Q195.70811 328.8875 195.36436 329.15314Q195.03624 329.40314 195.03624 329.8094Q195.03624 330.2 195.34874 330.40314Q195.66124 330.60626 196.47374 330.79376Q197.28624 330.96564 197.78624 331.21564Q198.28624 331.46564 198.52061 331.825Q198.77061 332.1844 198.77061 332.6844Q198.77061 333.54376 198.08311 334.0594Q197.41124 334.575 196.33311 334.575Q195.56749 334.575 194.97374 334.3094Q194.39561 334.02814 194.06749 333.54376Q193.73936 333.0594 193.73936 332.4969L194.81749 332.4969Q194.84874 333.04376 195.25499 333.3719Q195.66124 333.6844 196.33311 333.6844Q196.94249 333.6844 197.31749 333.4344Q197.69249 333.1844 197.69249 332.7625Z" fill-rule="nonzero"/><path fill="#000000" d="M159.70811 346.21564Q159.70811 345.29376 160.06749 344.54376Q160.44249 343.79376 161.09874 343.40314Q161.75499 342.9969 162.58311 342.9969Q163.87999 342.9969 164.67686 343.8875Q165.48936 344.77814 165.48936 346.27814L165.48936 346.35626Q165.48936 347.27814 165.12999 348.0125Q164.77061 348.7469 164.11436 349.16876Q163.45811 349.575 162.59874 349.575Q161.31749 349.575 160.50499 348.6844Q159.70811 347.77814 159.70811 346.29376L159.70811 346.21564ZM160.80186 346.35626Q160.80186 347.40314 161.28624 348.04376Q161.78624 348.6844 162.59874 348.6844Q163.42686 348.6844 163.91124 348.04376Q164.39561 347.3875 164.39561 346.21564Q164.39561 345.1844 163.89561 344.54376Q163.41124 343.8875 162.58311 343.8875Q161.78624 343.8875 161.28624 344.52814Q160.80186 345.15314 160.80186 346.35626ZM168.17686 349.45L167.09874 349.45L167.09874 340.45L168.17686 340.45L168.17686 349.45ZM169.73936 346.23126Q169.73936 344.7625 170.42686 343.8875Q171.11436 342.9969 172.23936 342.9969Q173.34874 342.9969 174.00499 343.7469L174.00499 340.45L175.08311 340.45L175.08311 349.45L174.08311 349.45L174.03624 348.7625Q173.37999 349.575 172.22374 349.575Q171.12999 349.575 170.42686 348.66876Q169.73936 347.7625 169.73936 346.3094L169.73936 346.23126ZM170.81749 346.35626Q170.81749 347.4344 171.25499 348.04376Q171.70811 348.65314 172.48936 348.65314Q173.52061 348.65314 174.00499 347.71564L174.00499 344.8094Q173.52061 343.91876 172.50499 343.91876Q171.70811 343.91876 171.25499 344.52814Q170.81749 345.1375 170.81749 346.35626Z" fill-rule="nonzero"/><path fill="#000000" d="M211.36969 329.65314L212.18219 329.65314Q212.96344 329.6375 213.40094 329.2469Q213.83844 328.85626 213.83844 328.1844Q213.83844 326.6844 212.33844 326.6844Q211.63531 326.6844 211.21344 327.09064Q210.80719 327.4969 210.80719 328.15314L209.71344 328.15314Q209.71344 327.1375 210.44781 326.46564Q211.19781 325.79376 212.33844 325.79376Q213.54156 325.79376 214.22906 326.4344Q214.91656 327.075 214.91656 328.21564Q214.91656 328.77814 214.55719 329.29376Q214.19781 329.8094 213.57281 330.075Q214.27594 330.29376 214.65094 330.8094Q215.04156 331.325 215.04156 332.075Q215.04156 333.21564 214.29156 333.90314Q213.54156 334.575 212.33844 334.575Q211.15094 334.575 210.38531 333.91876Q209.63531 333.2625 209.63531 332.2L210.72906 332.2Q210.72906 332.8719 211.16656 333.27814Q211.60406 333.6844 212.35406 333.6844Q213.13531 333.6844 213.54156 333.27814Q213.96344 332.85626 213.96344 332.09064Q213.96344 331.35626 213.51031 330.96564Q213.05719 330.5594 212.18219 330.54376L211.36969 330.54376L211.36969 329.65314ZM217.29156 330.16876L217.72906 325.91876L222.10406 325.91876L222.10406 326.91876L218.65094 326.91876L218.38531 329.2469Q219.02594 328.8719 219.82281 328.8719Q220.97906 328.8719 221.66656 329.65314Q222.35406 330.41876 222.35406 331.73126Q222.35406 333.04376 221.63531 333.8094Q220.93219 334.575 219.65094 334.575Q218.52594 334.575 217.80719 333.95Q217.08844 333.3094 216.99469 332.2L218.01031 332.2Q218.11969 332.9344 218.54156 333.3094Q218.96344 333.6844 219.65094 333.6844Q220.40094 333.6844 220.83844 333.16876Q221.27594 332.65314 221.27594 331.7469Q221.27594 330.8875 220.80719 330.3719Q220.33844 329.85626 219.55719 329.85626Q218.85406 329.85626 218.44781 330.15314L218.16656 330.3875L217.29156 330.16876ZM226.16656 331.2625L223.30719 331.2625L223.30719 330.3875L226.16656 330.3875L226.16656 331.2625ZM231.36969 331.59064L232.55719 331.59064L232.55719 332.46564L231.36969 332.46564L231.36969 334.45L230.29156 334.45L230.29156 332.46564L226.40094 332.46564L226.40094 331.825L230.21344 325.91876L231.36969 325.91876L231.36969 331.59064ZM227.63531 331.59064L230.29156 331.59064L230.29156 327.40314L230.15094 327.6375L227.63531 331.59064ZM238.36969 331.59064L239.55719 331.59064L239.55719 332.46564L238.36969 332.46564L238.36969 334.45L237.29156 334.45L237.29156 332.46564L233.40094 332.46564L233.40094 331.825L237.21344 325.91876L238.36969 325.91876L238.36969 331.59064ZM234.63531 331.59064L237.29156 331.59064L237.29156 327.40314L237.15094 327.6375L234.63531 331.59064ZM245.97906 332.85626L247.46344 328.10626L248.61969 328.10626L246.07281 335.4344Q245.47906 337.0125 244.19781 337.0125L243.97906 336.9969L243.58844 336.91876L243.58844 336.04376L243.86969 336.0594Q244.43219 336.0594 244.72906 335.84064Q245.04156 335.6219 245.24469 335.02814L245.47906 334.3719L243.21344 328.10626L244.40094 328.10626L245.97906 332.85626ZM252.54156 334.575Q251.24469 334.575 250.43219 333.73126Q249.63531 332.8719 249.63531 331.45L249.63531 331.2625Q249.63531 330.3094 249.99469 329.575Q250.35406 328.825 250.99469 328.41876Q251.65094 327.9969 252.40094 327.9969Q253.63531 327.9969 254.32281 328.8094Q255.01031 329.6219 255.01031 331.1375L255.01031 331.59064L250.71344 331.59064Q250.74469 332.52814 251.26031 333.10626Q251.79156 333.6844 252.60406 333.6844Q253.16656 333.6844 253.55719 333.45Q253.96344 333.21564 254.27594 332.825L254.93219 333.34064Q254.13531 334.575 252.54156 334.575ZM252.40094 328.8875Q251.74469 328.8875 251.29156 329.3719Q250.85406 329.84064 250.76031 330.7L253.93219 330.7L253.93219 330.6219Q253.88531 329.79376 253.47906 329.34064Q253.08844 328.8875 252.40094 328.8875ZM259.8228 334.45Q259.72906 334.2625 259.66656 333.77814Q258.91656 334.575 257.8697 334.575Q256.9322 334.575 256.3228 334.04376Q255.72906 333.5125 255.72906 332.6844Q255.72906 331.7 256.47906 331.15314Q257.22906 330.60626 258.60406 330.60626L259.65094 330.60626L259.65094 330.10626Q259.65094 329.54376 259.3072 329.21564Q258.97906 328.8719 258.3072 328.8719Q257.72906 328.8719 257.33844 329.16876Q256.9478 329.45 256.9478 329.8719L255.85406 329.8719Q255.85406 329.3875 256.1822 328.95Q256.52594 328.5125 257.10406 328.2625Q257.6822 327.9969 258.3697 327.9969Q259.47906 327.9969 260.08844 328.54376Q260.71344 329.09064 260.7447 330.04376L260.7447 332.96564Q260.7447 333.84064 260.96344 334.35626L260.96344 334.45L259.8228 334.45ZM258.02594 333.6219Q258.54156 333.6219 258.9947 333.35626Q259.4478 333.09064 259.65094 332.66876L259.65094 331.3719L258.8072 331.3719Q256.8072 331.3719 256.8072 332.54376Q256.8072 333.04376 257.15094 333.34064Q257.4947 333.6219 258.02594 333.6219ZM265.97906 329.075Q265.72906 329.04376 265.4478 329.04376Q264.3697 329.04376 263.9947 329.95L263.9947 334.45L262.91656 334.45L262.91656 328.10626L263.96344 328.10626L263.97906 328.84064Q264.5103 327.9969 265.4947 327.9969Q265.8072 327.9969 265.97906 328.075L265.97906 329.075ZM270.60406 332.7625Q270.60406 332.325 270.2603 332.09064Q269.9322 331.84064 269.10406 331.66876Q268.29156 331.4969 267.8072 331.2469Q267.3228 330.9969 267.08844 330.66876Q266.8697 330.325 266.8697 329.85626Q266.8697 329.075 267.52594 328.54376Q268.1822 327.9969 269.21344 327.9969Q270.29156 327.9969 270.9478 328.5594Q271.6197 329.10626 271.6197 329.96564L270.54156 329.96564Q270.54156 329.52814 270.15094 329.21564Q269.77594 328.8875 269.21344 328.8875Q268.6197 328.8875 268.27594 329.15314Q267.9478 329.40314 267.9478 329.8094Q267.9478 330.2 268.2603 330.40314Q268.5728 330.60626 269.3853 330.79376Q270.1978 330.96564 270.6978 331.21564Q271.1978 331.46564 271.4322 331.825Q271.6822 332.1844 271.6822 332.6844Q271.6822 333.54376 270.9947 334.0594Q270.3228 334.575 269.2447 334.575Q268.47906 334.575 267.8853 334.3094Q267.3072 334.02814 266.97906 333.54376Q266.65094 333.0594 266.65094 332.4969L267.72906 332.4969Q267.7603 333.04376 268.16656 333.3719Q268.5728 333.6844 269.2447 333.6844Q269.85406 333.6844 270.22906 333.4344Q270.60406 333.1844 270.60406 332.7625Z" fill-rule="nonzero"/><path fill="#000000" d="M232.61969 346.21564Q232.61969 345.29376 232.97906 344.54376Q233.35406 343.79376 234.01031 343.40314Q234.66656 342.9969 235.49469 342.9969Q236.79156 342.9969 237.58844 343.8875Q238.40094 344.77814 238.40094 346.27814L238.40094 346.35626Q238.40094 347.27814 238.04156 348.0125Q237.68219 348.7469 237.02594 349.16876Q236.36969 349.575 235.51031 349.575Q234.22906 349.575 233.41656 348.6844Q232.61969 347.77814 232.61969 346.29376L232.61969 346.21564ZM233.71344 346.35626Q233.71344 347.40314 234.19781 348.04376Q234.69781 348.6844 235.51031 348.6844Q236.33844 348.6844 236.82281 348.04376Q237.30719 347.3875 237.30719 346.21564Q237.30719 345.1844 236.80719 344.54376Q236.32281 343.8875 235.49469 343.8875Q234.69781 343.8875 234.19781 344.52814Q233.71344 345.15314 233.71344 346.35626ZM241.08844 349.45L240.01031 349.45L240.01031 340.45L241.08844 340.45L241.08844 349.45ZM242.65094 346.23126Q242.65094 344.7625 243.33844 343.8875Q244.02594 342.9969 245.15094 342.9969Q246.26031 342.9969 246.91656 343.7469L246.91656 340.45L247.99469 340.45L247.99469 349.45L246.99469 349.45L246.94781 348.7625Q246.29156 349.575 245.13531 349.575Q244.04156 349.575 243.33844 348.66876Q242.65094 347.7625 242.65094 346.3094L242.65094 346.23126ZM243.72906 346.35626Q243.72906 347.4344 244.16656 348.04376Q244.61969 348.65314 245.40094 348.65314Q246.43219 348.65314 246.91656 347.71564L246.91656 344.8094Q246.43219 343.91876 245.41656 343.91876Q244.61969 343.91876 244.16656 344.52814Q243.72906 345.1375 243.72906 346.35626Z" fill-rule="nonzero"/><path fill="#000000" d="M287.28125 331.59064L288.46875 331.59064L288.46875 332.46564L287.28125 332.46564L287.28125 334.45L286.20312 334.45L286.20312 332.46564L282.3125 332.46564L282.3125 331.825L286.125 325.91876L287.28125 325.91876L287.28125 331.59064ZM283.54688 331.59064L286.20312 331.59064L286.20312 327.40314L286.0625 327.6375L283.54688 331.59064ZM290.20312 330.16876L290.64062 325.91876L295.01562 325.91876L295.01562 326.91876L291.5625 326.91876L291.29688 329.2469Q291.9375 328.8719 292.73438 328.8719Q293.89062 328.8719 294.57812 329.65314Q295.26562 330.41876 295.26562 331.73126Q295.26562 333.04376 294.54688 333.8094Q293.84375 334.575 292.5625 334.575Q291.4375 334.575 290.71875 333.95Q290.0 333.3094 289.90625 332.2L290.92188 332.2Q291.03125 332.9344 291.45312 333.3094Q291.875 333.6844 292.5625 333.6844Q293.3125 333.6844 293.75 333.16876Q294.1875 332.65314 294.1875 331.7469Q294.1875 330.8875 293.71875 330.3719Q293.25 329.85626 292.46875 329.85626Q291.76562 329.85626 291.35938 330.15314L291.07812 330.3875L290.20312 330.16876ZM299.07812 331.2625L296.21875 331.2625L296.21875 330.3875L299.07812 330.3875L299.07812 331.2625ZM300.20312 330.16876L300.64062 325.91876L305.01562 325.91876L305.01562 326.91876L301.5625 326.91876L301.29688 329.2469Q301.9375 328.8719 302.73438 328.8719Q303.89062 328.8719 304.57812 329.65314Q305.26562 330.41876 305.26562 331.73126Q305.26562 333.04376 304.54688 333.8094Q303.84375 334.575 302.5625 334.575Q301.4375 334.575 300.71875 333.95Q300.0 333.3094 299.90625 332.2L300.92188 332.2Q301.03125 332.9344 301.45312 333.3094Q301.875 333.6844 302.5625 333.6844Q303.3125 333.6844 303.75 333.16876Q304.1875 332.65314 304.1875 331.7469Q304.1875 330.8875 303.71875 330.3719Q303.25 329.85626 302.46875 329.85626Q301.76562 329.85626 301.35938 330.15314L301.07812 330.3875L300.20312 330.16876ZM311.28125 331.59064L312.46875 331.59064L312.46875 332.46564L311.28125 332.46564L311.28125 334.45L310.20312 334.45L310.20312 332.46564L306.3125 332.46564L306.3125 331.825L310.125 325.91876L311.28125 325.91876L311.28125 331.59064ZM307.54688 331.59064L310.20312 331.59064L310.20312 327.40314L310.0625 327.6375L307.54688 331.59064ZM318.89062 332.85626L320.375 328.10626L321.53125 328.10626L318.98438 335.4344Q318.39062 337.0125 317.10938 337.0125L316.89062 336.9969L316.5 336.91876L316.5 336.04376L316.78125 336.0594Q317.34375 336.0594 317.64062 335.84064Q317.95312 335.6219 318.15625 335.02814L318.39062 334.3719L316.125 328.10626L317.3125 328.10626L318.89062 332.85626ZM325.45312 334.575Q324.15625 334.575 323.34375 333.73126Q322.54688 332.8719 322.54688 331.45L322.54688 331.2625Q322.54688 330.3094 322.90625 329.575Q323.26562 328.825 323.90625 328.41876Q324.5625 327.9969 325.3125 327.9969Q326.54688 327.9969 327.23438 328.8094Q327.92188 329.6219 327.92188 331.1375L327.92188 331.59064L323.625 331.59064Q323.65625 332.52814 324.17188 333.10626Q324.70312 333.6844 325.51562 333.6844Q326.07812 333.6844 326.46875 333.45Q326.875 333.21564 327.1875 332.825L327.84375 333.34064Q327.04688 334.575 325.45312 334.575ZM325.3125 328.8875Q324.65625 328.8875 324.20312 329.3719Q323.76562 329.84064 323.67188 330.7L326.84375 330.7L326.84375 330.6219Q326.79688 329.79376 326.39062 329.34064Q326.0 328.8875 325.3125 328.8875ZM332.73438 334.45Q332.64062 334.2625 332.57812 333.77814Q331.82812 334.575 330.78125 334.575Q329.84375 334.575 329.23438 334.04376Q328.64062 333.5125 328.64062 332.6844Q328.64062 331.7 329.39062 331.15314Q330.14062 330.60626 331.51562 330.60626L332.5625 330.60626L332.5625 330.10626Q332.5625 329.54376 332.21875 329.21564Q331.89062 328.8719 331.21875 328.8719Q330.64062 328.8719 330.25 329.16876Q329.85938 329.45 329.85938 329.8719L328.76562 329.8719Q328.76562 329.3875 329.09375 328.95Q329.4375 328.5125 330.01562 328.2625Q330.59375 327.9969 331.28125 327.9969Q332.39062 327.9969 333.0 328.54376Q333.625 329.09064 333.65625 330.04376L333.65625 332.96564Q333.65625 333.84064 333.875 334.35626L333.875 334.45L332.73438 334.45ZM330.9375 333.6219Q331.45312 333.6219 331.90625 333.35626Q332.35938 333.09064 332.5625 332.66876L332.5625 331.3719L331.71875 331.3719Q329.71875 331.3719 329.71875 332.54376Q329.71875 333.04376 330.0625 333.34064Q330.40625 333.6219 330.9375 333.6219ZM338.89062 329.075Q338.64062 329.04376 338.35938 329.04376Q337.28125 329.04376 336.90625 329.95L336.90625 334.45L335.82812 334.45L335.82812 328.10626L336.875 328.10626L336.89062 328.84064Q337.42188 327.9969 338.40625 327.9969Q338.71875 327.9969 338.89062 328.075L338.89062 329.075ZM343.51562 332.7625Q343.51562 332.325 343.17188 332.09064Q342.84375 331.84064 342.01562 331.66876Q341.20312 331.4969 340.71875 331.2469Q340.23438 330.9969 340.0 330.66876Q339.78125 330.325 339.78125 329.85626Q339.78125 329.075 340.4375 328.54376Q341.09375 327.9969 342.125 327.9969Q343.20312 327.9969 343.85938 328.5594Q344.53125 329.10626 344.53125 329.96564L343.45312 329.96564Q343.45312 329.52814 343.0625 329.21564Q342.6875 328.8875 342.125 328.8875Q341.53125 328.8875 341.1875 329.15314Q340.85938 329.40314 340.85938 329.8094Q340.85938 330.2 341.17188 330.40314Q341.48438 330.60626 342.29688 330.79376Q343.10938 330.96564 343.60938 331.21564Q344.10938 331.46564 344.34375 331.825Q344.59375 332.1844 344.59375 332.6844Q344.59375 333.54376 343.90625 334.0594Q343.23438 334.575 342.15625 334.575Q341.39062 334.575 340.79688 334.3094Q340.21875 334.02814 339.89062 333.54376Q339.5625 333.0594 339.5625 332.4969L340.64062 332.4969Q340.67188 333.04376 341.07812 333.3719Q341.48438 333.6844 342.15625 333.6844Q342.76562 333.6844 343.14062 333.4344Q343.51562 333.1844 343.51562 332.7625Z" fill-rule="nonzero"/><path fill="#000000" d="M305.53125 346.21564Q305.53125 345.29376 305.89062 344.54376Q306.26562 343.79376 306.92188 343.40314Q307.57812 342.9969 308.40625 342.9969Q309.70312 342.9969 310.5 343.8875Q311.3125 344.77814 311.3125 346.27814L311.3125 346.35626Q311.3125 347.27814 310.95312 348.0125Q310.59375 348.7469 309.9375 349.16876Q309.28125 349.575 308.42188 349.575Q307.14062 349.575 306.32812 348.6844Q305.53125 347.77814 305.53125 346.29376L305.53125 346.21564ZM306.625 346.35626Q306.625 347.40314 307.10938 348.04376Q307.60938 348.6844 308.42188 348.6844Q309.25 348.6844 309.73438 348.04376Q310.21875 347.3875 310.21875 346.21564Q310.21875 345.1844 309.71875 344.54376Q309.23438 343.8875 308.40625 343.8875Q307.60938 343.8875 307.10938 344.52814Q306.625 345.15314 306.625 346.35626ZM314.0 349.45L312.92188 349.45L312.92188 340.45L314.0 340.45L314.0 349.45ZM315.5625 346.23126Q315.5625 344.7625 316.25 343.8875Q316.9375 342.9969 318.0625 342.9969Q319.17188 342.9969 319.82812 343.7469L319.82812 340.45L320.90625 340.45L320.90625 349.45L319.90625 349.45L319.85938 348.7625Q319.20312 349.575 318.04688 349.575Q316.95312 349.575 316.25 348.66876Q315.5625 347.7625 315.5625 346.3094L315.5625 346.23126ZM316.64062 346.35626Q316.64062 347.4344 317.07812 348.04376Q317.53125 348.65314 318.3125 348.65314Q319.34375 348.65314 319.82812 347.71564L319.82812 344.8094Q319.34375 343.91876 318.32812 343.91876Q317.53125 343.91876 317.07812 344.52814Q316.64062 345.1375 316.64062 346.35626Z" fill-rule="nonzero"/><path fill="#000000" d="M356.1147 330.16876L356.5522 325.91876L360.9272 325.91876L360.9272 326.91876L357.47406 326.91876L357.20844 329.2469Q357.84906 328.8719 358.64594 328.8719Q359.8022 328.8719 360.4897 329.65314Q361.1772 330.41876 361.1772 331.73126Q361.1772 333.04376 360.45844 333.8094Q359.7553 334.575 358.47406 334.575Q357.34906 334.575 356.6303 333.95Q355.91156 333.3094 355.8178 332.2L356.83344 332.2Q356.9428 332.9344 357.3647 333.3094Q357.78656 333.6844 358.47406 333.6844Q359.22406 333.6844 359.66156 333.16876Q360.09906 332.65314 360.09906 331.7469Q360.09906 330.8875 359.6303 330.3719Q359.16156 329.85626 358.3803 329.85626Q357.6772 329.85626 357.27094 330.15314L356.9897 330.3875L356.1147 330.16876ZM363.1147 330.16876L363.5522 325.91876L367.9272 325.91876L367.9272 326.91876L364.47406 326.91876L364.20844 329.2469Q364.84906 328.8719 365.64594 328.8719Q366.8022 328.8719 367.4897 329.65314Q368.1772 330.41876 368.1772 331.73126Q368.1772 333.04376 367.45844 333.8094Q366.7553 334.575 365.47406 334.575Q364.34906 334.575 363.6303 333.95Q362.91156 333.3094 362.8178 332.2L363.83344 332.2Q363.9428 332.9344 364.3647 333.3094Q364.78656 333.6844 365.47406 333.6844Q366.22406 333.6844 366.66156 333.16876Q367.09906 332.65314 367.09906 331.7469Q367.09906 330.8875 366.6303 330.3719Q366.16156 329.85626 365.3803 329.85626Q364.6772 329.85626 364.27094 330.15314L363.9897 330.3875L363.1147 330.16876ZM371.9897 331.2625L369.1303 331.2625L369.1303 330.3875L371.9897 330.3875L371.9897 331.2625ZM376.8803 325.91876L376.8803 326.825L376.6772 326.825Q375.41156 326.85626 374.66156 327.59064Q373.91156 328.3094 373.78656 329.6219Q374.47406 328.85626 375.6303 328.85626Q376.7397 328.85626 377.41156 329.6375Q378.08344 330.41876 378.08344 331.66876Q378.08344 332.98126 377.3647 333.77814Q376.64594 334.575 375.4272 334.575Q374.20844 334.575 373.4428 333.6375Q372.6928 332.6844 372.6928 331.2L372.6928 330.79376Q372.6928 328.4344 373.6928 327.1844Q374.6928 325.9344 376.6772 325.91876L376.8803 325.91876ZM375.45844 329.7625Q374.89594 329.7625 374.4272 330.09064Q373.95844 330.41876 373.77094 330.9344L373.77094 331.325Q373.77094 332.3875 374.2397 333.02814Q374.72406 333.66876 375.4272 333.66876Q376.16156 333.66876 376.58344 333.1375Q377.0053 332.59064 377.0053 331.71564Q377.0053 330.84064 376.58344 330.3094Q376.16156 329.7625 375.45844 329.7625ZM384.1928 331.59064L385.3803 331.59064L385.3803 332.46564L384.1928 332.46564L384.1928 334.45L383.1147 334.45L383.1147 332.46564L379.22406 332.46564L379.22406 331.825L383.03656 325.91876L384.1928 325.91876L384.1928 331.59064ZM380.45844 331.59064L383.1147 331.59064L383.1147 327.40314L382.97406 327.6375L380.45844 331.59064ZM391.8022 332.85626L393.28656 328.10626L394.4428 328.10626L391.89594 335.4344Q391.3022 337.0125 390.02094 337.0125L389.8022 336.9969L389.41156 336.91876L389.41156 336.04376L389.6928 336.0594Q390.2553 336.0594 390.5522 335.84064Q390.8647 335.6219 391.0678 335.02814L391.3022 334.3719L389.03656 328.10626L390.22406 328.10626L391.8022 332.85626ZM398.3647 334.575Q397.0678 334.575 396.2553 333.73126Q395.45844 332.8719 395.45844 331.45L395.45844 331.2625Q395.45844 330.3094 395.8178 329.575Q396.1772 328.825 396.8178 328.41876Q397.47406 327.9969 398.22406 327.9969Q399.45844 327.9969 400.14594 328.8094Q400.83344 329.6219 400.83344 331.1375L400.83344 331.59064L396.53656 331.59064Q396.5678 332.52814 397.08344 333.10626Q397.6147 333.6844 398.4272 333.6844Q398.9897 333.6844 399.3803 333.45Q399.78656 333.21564 400.09906 332.825L400.7553 333.34064Q399.95844 334.575 398.3647 334.575ZM398.22406 328.8875Q397.5678 328.8875 397.1147 329.3719Q396.6772 329.84064 396.58344 330.7L399.7553 330.7L399.7553 330.6219Q399.70844 329.79376 399.3022 329.34064Q398.91156 328.8875 398.22406 328.8875ZM405.64594 334.45Q405.5522 334.2625 405.4897 333.77814Q404.7397 334.575 403.6928 334.575Q402.7553 334.575 402.14594 334.04376Q401.5522 333.5125 401.5522 332.6844Q401.5522 331.7 402.3022 331.15314Q403.0522 330.60626 404.4272 330.60626L405.47406 330.60626L405.47406 330.10626Q405.47406 329.54376 405.1303 329.21564Q404.8022 328.8719 404.1303 328.8719Q403.5522 328.8719 403.16156 329.16876Q402.77094 329.45 402.77094 329.8719L401.6772 329.8719Q401.6772 329.3875 402.0053 328.95Q402.34906 328.5125 402.9272 328.2625Q403.5053 327.9969 404.1928 327.9969Q405.3022 327.9969 405.91156 328.54376Q406.53656 329.09064 406.5678 330.04376L406.5678 332.96564Q406.5678 333.84064 406.78656 334.35626L406.78656 334.45L405.64594 334.45ZM403.84906 333.6219Q404.3647 333.6219 404.8178 333.35626Q405.27094 333.09064 405.47406 332.66876L405.47406 331.3719L404.6303 331.3719Q402.6303 331.3719 402.6303 332.54376Q402.6303 333.04376 402.97406 333.34064Q403.3178 333.6219 403.84906 333.6219ZM411.8022 329.075Q411.5522 329.04376 411.27094 329.04376Q410.1928 329.04376 409.8178 329.95L409.8178 334.45L408.7397 334.45L408.7397 328.10626L409.78656 328.10626L409.8022 328.84064Q410.33344 327.9969 411.3178 327.9969Q411.6303 327.9969 411.8022 328.075L411.8022 329.075ZM416.4272 332.7625Q416.4272 332.325 416.08344 332.09064Q415.7553 331.84064 414.9272 331.66876Q414.1147 331.4969 413.6303 331.2469Q413.14594 330.9969 412.91156 330.66876Q412.6928 330.325 412.6928 329.85626Q412.6928 329.075 413.34906 328.54376Q414.0053 327.9969 415.03656 327.9969Q416.1147 327.9969 416.77094 328.5594Q417.4428 329.10626 417.4428 329.96564L416.3647 329.96564Q416.3647 329.52814 415.97406 329.21564Q415.59906 328.8875 415.03656 328.8875Q414.4428 328.8875 414.09906 329.15314Q413.77094 329.40314 413.77094 329.8094Q413.77094 330.2 414.08344 330.40314Q414.39594 330.60626 415.20844 330.79376Q416.02094 330.96564 416.52094 331.21564Q417.02094 331.46564 417.2553 331.825Q417.5053 332.1844 417.5053 332.6844Q417.5053 333.54376 416.8178 334.0594Q416.14594 334.575 415.0678 334.575Q414.3022 334.575 413.70844 334.3094Q413.1303 334.02814 412.8022 333.54376Q412.47406 333.0594 412.47406 332.4969L413.5522 332.4969Q413.58344 333.04376 413.9897 333.3719Q414.39594 333.6844 415.0678 333.6844Q415.6772 333.6844 416.0522 333.4344Q416.4272 333.1844 416.4272 332.7625Z" fill-rule="nonzero"/><path fill="#000000" d="M378.4428 346.21564Q378.4428 345.29376 378.8022 344.54376Q379.1772 343.79376 379.83344 343.40314Q380.4897 342.9969 381.3178 342.9969Q382.6147 342.9969 383.41156 343.8875Q384.22406 344.77814 384.22406 346.27814L384.22406 346.35626Q384.22406 347.27814 383.8647 348.0125Q383.5053 348.7469 382.84906 349.16876Q382.1928 349.575 381.33344 349.575Q380.0522 349.575 379.2397 348.6844Q378.4428 347.77814 378.4428 346.29376L378.4428 346.21564ZM379.53656 346.35626Q379.53656 347.40314 380.02094 348.04376Q380.52094 348.6844 381.33344 348.6844Q382.16156 348.6844 382.64594 348.04376Q383.1303 347.3875 383.1303 346.21564Q383.1303 345.1844 382.6303 344.54376Q382.14594 343.8875 381.3178 343.8875Q380.52094 343.8875 380.02094 344.52814Q379.53656 345.15314 379.53656 346.35626ZM386.91156 349.45L385.83344 349.45L385.83344 340.45L386.91156 340.45L386.91156 349.45ZM388.47406 346.23126Q388.47406 344.7625 389.16156 343.8875Q389.84906 342.9969 390.97406 342.9969Q392.08344 342.9969 392.7397 343.7469L392.7397 340.45L393.8178 340.45L393.8178 349.45L392.8178 349.45L392.77094 348.7625Q392.1147 349.575 390.95844 349.575Q389.8647 349.575 389.16156 348.66876Q388.47406 347.7625 388.47406 346.3094L388.47406 346.23126ZM389.5522 346.35626Q389.5522 347.4344 389.9897 348.04376Q390.4428 348.65314 391.22406 348.65314Q392.2553 348.65314 392.7397 347.71564L392.7397 344.8094Q392.2553 343.91876 391.2397 343.91876Q390.4428 343.91876 389.9897 344.52814Q389.5522 345.1375 389.5522 346.35626Z" fill-rule="nonzero"/><path fill="#000000" d="M434.29187 325.91876L434.29187 326.825L434.08875 326.825Q432.82312 326.85626 432.07312 327.59064Q431.32312 328.3094 431.19812 329.6219Q431.88562 328.85626 433.04187 328.85626Q434.15125 328.85626 434.82312 329.6375Q435.495 330.41876 435.495 331.66876Q435.495 332.98126 434.77625 333.77814Q434.0575 334.575 432.83875 334.575Q431.62 334.575 430.85437 333.6375Q430.10437 332.6844 430.10437 331.2L430.10437 330.79376Q430.10437 328.4344 431.10437 327.1844Q432.10437 325.9344 434.08875 325.91876L434.29187 325.91876ZM432.87 329.7625Q432.3075 329.7625 431.83875 330.09064Q431.37 330.41876 431.1825 330.9344L431.1825 331.325Q431.1825 332.3875 431.65125 333.02814Q432.13562 333.66876 432.83875 333.66876Q433.57312 333.66876 433.995 333.1375Q434.41687 332.59064 434.41687 331.71564Q434.41687 330.84064 433.995 330.3094Q433.57312 329.7625 432.87 329.7625ZM437.52625 330.16876L437.96375 325.91876L442.33875 325.91876L442.33875 326.91876L438.88562 326.91876L438.62 329.2469Q439.26062 328.8719 440.0575 328.8719Q441.21375 328.8719 441.90125 329.65314Q442.58875 330.41876 442.58875 331.73126Q442.58875 333.04376 441.87 333.8094Q441.16687 334.575 439.88562 334.575Q438.76062 334.575 438.04187 333.95Q437.32312 333.3094 437.22937 332.2L438.245 332.2Q438.35437 332.9344 438.77625 333.3094Q439.19812 333.6844 439.88562 333.6844Q440.63562 333.6844 441.07312 333.16876Q441.51062 332.65314 441.51062 331.7469Q441.51062 330.8875 441.04187 330.3719Q440.57312 329.85626 439.79187 329.85626Q439.08875 329.85626 438.6825 330.15314L438.40125 330.3875L437.52625 330.16876ZM449.21375 332.85626L450.69812 328.10626L451.85437 328.10626L449.3075 335.4344Q448.71375 337.0125 447.4325 337.0125L447.21375 336.9969L446.82312 336.91876L446.82312 336.04376L447.10437 336.0594Q447.66687 336.0594 447.96375 335.84064Q448.27625 335.6219 448.47937 335.02814L448.71375 334.3719L446.44812 328.10626L447.63562 328.10626L449.21375 332.85626ZM455.77625 334.575Q454.47937 334.575 453.66687 333.73126Q452.87 332.8719 452.87 331.45L452.87 331.2625Q452.87 330.3094 453.22937 329.575Q453.58875 328.825 454.22937 328.41876Q454.88562 327.9969 455.63562 327.9969Q456.87 327.9969 457.5575 328.8094Q458.245 329.6219 458.245 331.1375L458.245 331.59064L453.94812 331.59064Q453.97937 332.52814 454.495 333.10626Q455.02625 333.6844 455.83875 333.6844Q456.40125 333.6844 456.79187 333.45Q457.19812 333.21564 457.51062 332.825L458.16687 333.34064Q457.37 334.575 455.77625 334.575ZM455.63562 328.8875Q454.97937 328.8875 454.52625 329.3719Q454.08875 329.84064 453.995 330.7L457.16687 330.7L457.16687 330.6219Q457.12 329.79376 456.71375 329.34064Q456.32312 328.8875 455.63562 328.8875ZM463.0575 334.45Q462.96375 334.2625 462.90125 333.77814Q462.15125 334.575 461.10437 334.575Q460.16687 334.575 459.5575 334.04376Q458.96375 333.5125 458.96375 332.6844Q458.96375 331.7 459.71375 331.15314Q460.46375 330.60626 461.83875 330.60626L462.88562 330.60626L462.88562 330.10626Q462.88562 329.54376 462.54187 329.21564Q462.21375 328.8719 461.54187 328.8719Q460.96375 328.8719 460.57312 329.16876Q460.1825 329.45 460.1825 329.8719L459.08875 329.8719Q459.08875 329.3875 459.41687 328.95Q459.76062 328.5125 460.33875 328.2625Q460.91687 327.9969 461.60437 327.9969Q462.71375 327.9969 463.32312 328.54376Q463.94812 329.09064 463.97937 330.04376L463.97937 332.96564Q463.97937 333.84064 464.19812 334.35626L464.19812 334.45L463.0575 334.45ZM461.26062 333.6219Q461.77625 333.6219 462.22937 333.35626Q462.6825 333.09064 462.88562 332.66876L462.88562 331.3719L462.04187 331.3719Q460.04187 331.3719 460.04187 332.54376Q460.04187 333.04376 460.38562 333.34064Q460.72937 333.6219 461.26062 333.6219ZM469.21375 329.075Q468.96375 329.04376 468.6825 329.04376Q467.60437 329.04376 467.22937 329.95L467.22937 334.45L466.15125 334.45L466.15125 328.10626L467.19812 328.10626L467.21375 328.84064Q467.745 327.9969 468.72937 327.9969Q469.04187 327.9969 469.21375 328.075L469.21375 329.075ZM473.83875 332.7625Q473.83875 332.325 473.495 332.09064Q473.16687 331.84064 472.33875 331.66876Q471.52625 331.4969 471.04187 331.2469Q470.5575 330.9969 470.32312 330.66876Q470.10437 330.325 470.10437 329.85626Q470.10437 329.075 470.76062 328.54376Q471.41687 327.9969 472.44812 327.9969Q473.52625 327.9969 474.1825 328.5594Q474.85437 329.10626 474.85437 329.96564L473.77625 329.96564Q473.77625 329.52814 473.38562 329.21564Q473.01062 328.8875 472.44812 328.8875Q471.85437 328.8875 471.51062 329.15314Q471.1825 329.40314 471.1825 329.8094Q471.1825 330.2 471.495 330.40314Q471.8075 330.60626 472.62 330.79376Q473.4325 330.96564 473.9325 331.21564Q474.4325 331.46564 474.66687 331.825Q474.91687 332.1844 474.91687 332.6844Q474.91687 333.54376 474.22937 334.0594Q473.5575 334.575 472.47937 334.575Q471.71375 334.575 471.12 334.3094Q470.54187 334.02814 470.21375 333.54376Q469.88562 333.0594 469.88562 332.4969L470.96375 332.4969Q470.995 333.04376 471.40125 333.3719Q471.8075 333.6844 472.47937 333.6844Q473.08875 333.6844 473.46375 333.4344Q473.83875 333.1844 473.83875 332.7625ZM478.85437 331.21564Q478.85437 330.29376 479.21375 329.54376Q479.58875 328.79376 480.245 328.40314Q480.90125 327.9969 481.72937 327.9969Q483.02625 327.9969 483.82312 328.8875Q484.63562 329.77814 484.63562 331.27814L484.63562 331.35626Q484.63562 332.27814 484.27625 333.0125Q483.91687 333.7469 483.26062 334.16876Q482.60437 334.575 481.745 334.575Q480.46375 334.575 479.65125 333.6844Q478.85437 332.77814 478.85437 331.29376L478.85437 331.21564ZM479.94812 331.35626Q479.94812 332.40314 480.4325 333.04376Q480.9325 333.6844 481.745 333.6844Q482.57312 333.6844 483.0575 333.04376Q483.54187 332.3875 483.54187 331.21564Q483.54187 330.1844 483.04187 329.54376Q482.5575 328.8875 481.72937 328.8875Q480.9325 328.8875 480.4325 329.52814Q479.94812 330.15314 479.94812 331.35626ZM489.21375 329.075Q488.96375 329.04376 488.6825 329.04376Q487.60437 329.04376 487.22937 329.95L487.22937 334.45L486.15125 334.45L486.15125 328.10626L487.19812 328.10626L487.21375 328.84064Q487.745 327.9969 488.72937 327.9969Q489.04187 327.9969 489.21375 328.075L489.21375 329.075Z" fill-rule="nonzero"/><path fill="#000000" d="M447.5575 349.45Q447.46375 349.2625 447.40125 348.77814Q446.65125 349.575 445.60437 349.575Q444.66687 349.575 444.0575 349.04376Q443.46375 348.5125 443.46375 347.6844Q443.46375 346.7 444.21375 346.15314Q444.96375 345.60626 446.33875 345.60626L447.38562 345.60626L447.38562 345.10626Q447.38562 344.54376 447.04187 344.21564Q446.71375 343.8719 446.04187 343.8719Q445.46375 343.8719 445.07312 344.16876Q444.6825 344.45 444.6825 344.8719L443.58875 344.8719Q443.58875 344.3875 443.91687 343.95Q444.26062 343.5125 444.83875 343.2625Q445.41687 342.9969 446.10437 342.9969Q447.21375 342.9969 447.82312 343.54376Q448.44812 344.09064 448.47937 345.04376L448.47937 347.96564Q448.47937 348.84064 448.69812 349.35626L448.69812 349.45L447.5575 349.45ZM445.76062 348.6219Q446.27625 348.6219 446.72937 348.35626Q447.1825 348.09064 447.38562 347.66876L447.38562 346.3719L446.54187 346.3719Q444.54187 346.3719 444.54187 347.54376Q444.54187 348.04376 444.88562 348.34064Q445.22937 348.6219 445.76062 348.6219ZM456.01062 346.35626Q456.01062 347.8094 455.33875 348.7Q454.6825 349.575 453.5575 349.575Q452.35437 349.575 451.69812 348.71564L451.63562 349.45L450.65125 349.45L450.65125 340.45L451.72937 340.45L451.72937 343.8094Q452.38562 342.9969 453.54187 342.9969Q454.69812 342.9969 455.35437 343.8719Q456.01062 344.73126 456.01062 346.2625L456.01062 346.35626ZM454.9325 346.23126Q454.9325 345.1219 454.495 344.52814Q454.07312 343.91876 453.27625 343.91876Q452.19812 343.91876 451.72937 344.90314L451.72937 347.65314Q452.22937 348.65314 453.27625 348.65314Q454.0575 348.65314 454.495 348.04376Q454.9325 347.4344 454.9325 346.23126ZM457.35437 346.21564Q457.35437 345.29376 457.71375 344.54376Q458.08875 343.79376 458.745 343.40314Q459.40125 342.9969 460.22937 342.9969Q461.52625 342.9969 462.32312 343.8875Q463.13562 344.77814 463.13562 346.27814L463.13562 346.35626Q463.13562 347.27814 462.77625 348.0125Q462.41687 348.7469 461.76062 349.16876Q461.10437 349.575 460.245 349.575Q458.96375 349.575 458.15125 348.6844Q457.35437 347.77814 457.35437 346.29376L457.35437 346.21564ZM458.44812 346.35626Q458.44812 347.40314 458.9325 348.04376Q459.4325 348.6844 460.245 348.6844Q461.07312 348.6844 461.5575 348.04376Q462.04187 347.3875 462.04187 346.21564Q462.04187 345.1844 461.54187 344.54376Q461.0575 343.8875 460.22937 343.8875Q459.4325 343.8875 458.9325 344.52814Q458.44812 345.15314 458.44812 346.35626ZM466.72937 347.98126L468.3075 343.10626L469.41687 343.10626L467.13562 349.45L466.3075 349.45L464.01062 343.10626L465.12 343.10626L466.72937 347.98126ZM473.27625 349.575Q471.97937 349.575 471.16687 348.73126Q470.37 347.8719 470.37 346.45L470.37 346.2625Q470.37 345.3094 470.72937 344.575Q471.08875 343.825 471.72937 343.41876Q472.38562 342.9969 473.13562 342.9969Q474.37 342.9969 475.0575 343.8094Q475.745 344.6219 475.745 346.1375L475.745 346.59064L471.44812 346.59064Q471.47937 347.52814 471.995 348.10626Q472.52625 348.6844 473.33875 348.6844Q473.90125 348.6844 474.29187 348.45Q474.69812 348.21564 475.01062 347.825L475.66687 348.34064Q474.87 349.575 473.27625 349.575ZM473.13562 343.8875Q472.47937 343.8875 472.02625 344.3719Q471.58875 344.84064 471.495 345.7L474.66687 345.7L474.66687 345.6219Q474.62 344.79376 474.21375 344.34064Q473.82312 343.8875 473.13562 343.8875Z" fill-rule="nonzero"/><path fill="#000000" d="M505.4378 334.45L504.3128 334.45L504.3128 325.91876L505.4378 325.91876L505.4378 334.45ZM515.40656 331.35626Q515.40656 332.79376 514.7503 333.6844Q514.09406 334.575 512.9534 334.575Q511.79718 334.575 511.14093 333.84064L511.14093 336.8875L510.0628 336.8875L510.0628 328.10626L511.04718 328.10626L511.09406 328.8094Q511.76593 327.9969 512.9378 327.9969Q514.0784 327.9969 514.7347 328.85626Q515.40656 329.71564 515.40656 331.2469L515.40656 331.35626ZM514.3284 331.23126Q514.3284 330.15314 513.8597 329.54376Q513.40656 328.91876 512.6097 328.91876Q511.6253 328.91876 511.14093 329.77814L511.14093 332.8094Q511.6253 333.6844 512.6253 333.6844Q513.40656 333.6844 513.8597 333.075Q514.3284 332.45 514.3284 331.23126ZM520.1253 329.075Q519.8753 329.04376 519.59406 329.04376Q518.5159 329.04376 518.1409 329.95L518.1409 334.45L517.0628 334.45L517.0628 328.10626L518.1097 328.10626L518.1253 328.84064Q518.65656 327.9969 519.6409 327.9969Q519.9534 327.9969 520.1253 328.075L520.1253 329.075ZM523.6878 334.575Q522.3909 334.575 521.5784 333.73126Q520.78156 332.8719 520.78156 331.45L520.78156 331.2625Q520.78156 330.3094 521.1409 329.575Q521.5003 328.825 522.1409 328.41876Q522.7972 327.9969 523.5472 327.9969Q524.78156 327.9969 525.46906 328.8094Q526.15656 329.6219 526.15656 331.1375L526.15656 331.59064L521.8597 331.59064Q521.8909 332.52814 522.40656 333.10626Q522.9378 333.6844 523.7503 333.6844Q524.3128 333.6844 524.7034 333.45Q525.1097 333.21564 525.4222 332.825L526.0784 333.34064Q525.28156 334.575 523.6878 334.575ZM523.5472 328.8875Q522.8909 328.8875 522.4378 329.3719Q522.0003 329.84064 521.90656 330.7L525.0784 330.7L525.0784 330.6219Q525.03156 329.79376 524.6253 329.34064Q524.2347 328.8875 523.5472 328.8875ZM527.59406 334.45L527.59406 328.95L526.59406 328.95L526.59406 328.10626L527.59406 328.10626L527.59406 327.46564Q527.59406 326.4344 528.1253 325.8875Q528.6722 325.325 529.6722 325.325Q530.0472 325.325 530.4222 325.41876L530.3597 326.3094Q530.0784 326.2469 529.78156 326.2469Q529.2503 326.2469 528.9534 326.5594Q528.6722 326.8719 528.6722 327.4344L528.6722 328.10626L530.03156 328.10626L530.03156 328.95L528.6722 328.95L528.6722 334.45L527.59406 334.45ZM533.6878 334.575Q532.3909 334.575 531.5784 333.73126Q530.78156 332.8719 530.78156 331.45L530.78156 331.2625Q530.78156 330.3094 531.1409 329.575Q531.5003 328.825 532.1409 328.41876Q532.7972 327.9969 533.5472 327.9969Q534.78156 327.9969 535.46906 328.8094Q536.15656 329.6219 536.15656 331.1375L536.15656 331.59064L531.8597 331.59064Q531.8909 332.52814 532.40656 333.10626Q532.9378 333.6844 533.7503 333.6844Q534.3128 333.6844 534.7034 333.45Q535.1097 333.21564 535.4222 332.825L536.0784 333.34064Q535.28156 334.575 533.6878 334.575ZM533.5472 328.8875Q532.8909 328.8875 532.4378 329.3719Q532.0003 329.84064 531.90656 330.7L535.0784 330.7L535.0784 330.6219Q535.03156 329.79376 534.6253 329.34064Q534.2347 328.8875 533.5472 328.8875ZM540.1253 329.075Q539.8753 329.04376 539.59406 329.04376Q538.5159 329.04376 538.1409 329.95L538.1409 334.45L537.0628 334.45L537.0628 328.10626L538.1097 328.10626L538.1253 328.84064Q538.65656 327.9969 539.6409 327.9969Q539.9534 327.9969 540.1253 328.075L540.1253 329.075ZM545.0784 328.10626L545.1097 328.90314Q545.84406 327.9969 547.0159 327.9969Q549.03156 327.9969 549.0472 330.2625L549.0472 334.45L547.9534 334.45L547.9534 330.2469Q547.9534 329.575 547.6409 329.2469Q547.34406 328.91876 546.6878 328.91876Q546.15656 328.91876 545.7503 329.2Q545.3597 329.48126 545.1409 329.9344L545.1409 334.45L544.0628 334.45L544.0628 328.10626L545.0784 328.10626ZM550.7659 331.21564Q550.7659 330.29376 551.1253 329.54376Q551.5003 328.79376 552.15656 328.40314Q552.8128 327.9969 553.6409 327.9969Q554.9378 327.9969 555.7347 328.8875Q556.5472 329.77814 556.5472 331.27814L556.5472 331.35626Q556.5472 332.27814 556.1878 333.0125Q555.8284 333.7469 555.1722 334.16876Q554.5159 334.575 553.65656 334.575Q552.3753 334.575 551.5628 333.6844Q550.7659 332.77814 550.7659 331.29376L550.7659 331.21564ZM551.8597 331.35626Q551.8597 332.40314 552.34406 333.04376Q552.84406 333.6844 553.65656 333.6844Q554.4847 333.6844 554.96906 333.04376Q555.4534 332.3875 555.4534 331.21564Q555.4534 330.1844 554.9534 329.54376Q554.46906 328.8875 553.6409 328.8875Q552.84406 328.8875 552.34406 329.52814Q551.8597 330.15314 551.8597 331.35626ZM559.53156 326.575L559.53156 328.10626L560.7034 328.10626L560.7034 328.95L559.53156 328.95L559.53156 332.8719Q559.53156 333.2625 559.6878 333.45Q559.84406 333.6375 560.21906 333.6375Q560.40656 333.6375 560.7347 333.575L560.7347 334.45Q560.3128 334.575 559.90656 334.575Q559.1878 334.575 558.8128 334.1375Q558.4378 333.6844 558.4378 332.8719L558.4378 328.95L557.28156 328.95L557.28156 328.10626L558.4378 328.10626L558.4378 326.575L559.53156 326.575Z" fill-rule="nonzero"/><path fill="#000000" d="M508.03156 341.575L508.03156 343.10626L509.20343 343.10626L509.20343 343.95L508.03156 343.95L508.03156 347.8719Q508.03156 348.2625 508.1878 348.45Q508.34406 348.6375 508.71906 348.6375Q508.90656 348.6375 509.23468 348.575L509.23468 349.45Q508.8128 349.575 508.40656 349.575Q507.6878 349.575 507.3128 349.1375Q506.9378 348.6844 506.9378 347.8719L506.9378 343.95L505.78156 343.95L505.78156 343.10626L506.9378 343.10626L506.9378 341.575L508.03156 341.575ZM510.26593 346.21564Q510.26593 345.29376 510.6253 344.54376Q511.0003 343.79376 511.65656 343.40314Q512.3128 342.9969 513.1409 342.9969Q514.4378 342.9969 515.2347 343.8875Q516.0472 344.77814 516.0472 346.27814L516.0472 346.35626Q516.0472 347.27814 515.6878 348.0125Q515.3284 348.7469 514.6722 349.16876Q514.0159 349.575 513.15656 349.575Q511.8753 349.575 511.0628 348.6844Q510.26593 347.77814 510.26593 346.29376L510.26593 346.21564ZM511.35968 346.35626Q511.35968 347.40314 511.84406 348.04376Q512.34406 348.6844 513.15656 348.6844Q513.9847 348.6844 514.46906 348.04376Q514.9534 347.3875 514.9534 346.21564Q514.9534 345.1844 514.4534 344.54376Q513.96906 343.8875 513.1409 343.8875Q512.34406 343.8875 511.84406 344.52814Q511.35968 345.15314 511.35968 346.35626ZM524.46906 349.45Q524.3753 349.2625 524.3128 348.77814Q523.5628 349.575 522.5159 349.575Q521.5784 349.575 520.96906 349.04376Q520.3753 348.5125 520.3753 347.6844Q520.3753 346.7 521.1253 346.15314Q521.8753 345.60626 523.2503 345.60626L524.2972 345.60626L524.2972 345.10626Q524.2972 344.54376 523.9534 344.21564Q523.6253 343.8719 522.9534 343.8719Q522.3753 343.8719 521.9847 344.16876Q521.59406 344.45 521.59406 344.8719L520.5003 344.8719Q520.5003 344.3875 520.8284 343.95Q521.1722 343.5125 521.7503 343.2625Q522.3284 342.9969 523.0159 342.9969Q524.1253 342.9969 524.7347 343.54376Q525.3597 344.09064 525.3909 345.04376L525.3909 347.96564Q525.3909 348.84064 525.6097 349.35626L525.6097 349.45L524.46906 349.45ZM522.6722 348.6219Q523.1878 348.6219 523.6409 348.35626Q524.09406 348.09064 524.2972 347.66876L524.2972 346.3719L523.4534 346.3719Q521.4534 346.3719 521.4534 347.54376Q521.4534 348.04376 521.7972 348.34064Q522.1409 348.6219 522.6722 348.6219ZM528.5784 343.10626L528.6097 343.90314Q529.34406 342.9969 530.5159 342.9969Q532.53156 342.9969 532.5472 345.2625L532.5472 349.45L531.4534 349.45L531.4534 345.2469Q531.4534 344.575 531.1409 344.2469Q530.84406 343.91876 530.1878 343.91876Q529.65656 343.91876 529.2503 344.2Q528.8597 344.48126 528.6409 344.9344L528.6409 349.45L527.5628 349.45L527.5628 343.10626L528.5784 343.10626ZM538.2503 347.7625Q538.2503 347.325 537.90656 347.09064Q537.5784 346.84064 536.7503 346.66876Q535.9378 346.4969 535.4534 346.2469Q534.96906 345.9969 534.7347 345.66876Q534.5159 345.325 534.5159 344.85626Q534.5159 344.075 535.1722 343.54376Q535.8284 342.9969 536.8597 342.9969Q537.9378 342.9969 538.59406 343.5594Q539.2659 344.10626 539.2659 344.96564L538.1878 344.96564Q538.1878 344.52814 537.7972 344.21564Q537.4222 343.8875 536.8597 343.8875Q536.2659 343.8875 535.9222 344.15314Q535.59406 344.40314 535.59406 344.8094Q535.59406 345.2 535.90656 345.40314Q536.21906 345.60626 537.03156 345.79376Q537.84406 345.96564 538.34406 346.21564Q538.84406 346.46564 539.0784 346.825Q539.3284 347.1844 539.3284 347.6844Q539.3284 348.54376 538.6409 349.0594Q537.96906 349.575 536.8909 349.575Q536.1253 349.575 535.53156 349.3094Q534.9534 349.02814 534.6253 348.54376Q534.2972 348.0594 534.2972 347.4969L535.3753 347.4969Q535.40656 348.04376 535.8128 348.3719Q536.21906 348.6844 536.8909 348.6844Q537.5003 348.6844 537.8753 348.4344Q538.2503 348.1844 538.2503 347.7625ZM546.1722 347.95L547.3909 343.10626L548.46906 343.10626L546.6253 349.45L545.7503 349.45L544.2034 344.6375L542.7034 349.45L541.8284 349.45L539.9847 343.10626L541.0628 343.10626L542.3128 347.85626L543.7972 343.10626L544.65656 343.10626L546.1722 347.95ZM552.1878 349.575Q550.8909 349.575 550.0784 348.73126Q549.28156 347.8719 549.28156 346.45L549.28156 346.2625Q549.28156 345.3094 549.6409 344.575Q550.0003 343.825 550.6409 343.41876Q551.2972 342.9969 552.0472 342.9969Q553.28156 342.9969 553.96906 343.8094Q554.65656 344.6219 554.65656 346.1375L554.65656 346.59064L550.3597 346.59064Q550.3909 347.52814 550.90656 348.10626Q551.4378 348.6844 552.2503 348.6844Q552.8128 348.6844 553.2034 348.45Q553.6097 348.21564 553.9222 347.825L554.5784 348.34064Q553.78156 349.575 552.1878 349.575ZM552.0472 343.8875Q551.3909 343.8875 550.9378 344.3719Q550.5003 344.84064 550.40656 345.7L553.5784 345.7L553.5784 345.6219Q553.53156 344.79376 553.1253 344.34064Q552.7347 343.8875 552.0472 343.8875ZM558.6253 344.075Q558.3753 344.04376 558.09406 344.04376Q557.0159 344.04376 556.6409 344.95L556.6409 349.45L555.5628 349.45L555.5628 343.10626L556.6097 343.10626L556.6253 343.84064Q557.15656 342.9969 558.1409 342.9969Q558.4534 342.9969 558.6253 343.075L558.6253 344.075Z" fill-rule="nonzero"/><path fill="#b6d7a8" d="M202.5 57.416668C202.5 56.864384 202.94771 56.416668 203.5 56.416668L213.5 56.416668C214.05229 56.416668 214.5 56.864384 214.5 57.416668L214.5 67.416664C214.5 67.96895 214.05229 68.416664 213.5 68.416664L203.5 68.416664C202.94771 68.416664 202.5 67.96895 202.5 67.416664Z" fill-rule="nonzero"/><path fill="#000000" d="M229.79688 65.791664Q229.35938 66.416664 228.57812 66.729164Q227.79688 67.041664 226.76562 67.041664Q225.73438 67.041664 224.92188 66.55729Q224.10938 66.05729 223.67188 65.15104Q223.23438 64.24479 223.21875 63.05729L223.21875 62.322914Q223.21875 60.385414 224.10938 59.322914Q225.01562 58.260414 226.64062 58.260414Q227.98438 58.260414 228.79688 58.947914Q229.60938 59.635414 229.79688 60.885414L228.67188 60.885414Q228.34375 59.197914 226.65625 59.197914Q225.51562 59.197914 224.9375 59.99479Q224.35938 60.77604 224.34375 62.291664L224.34375 62.979164Q224.34375 64.416664 225.0 65.27604Q225.65625 66.11979 226.78125 66.11979Q227.40625 66.11979 227.875 65.979164Q228.35938 65.83854 228.67188 65.49479L228.67188 63.58854L226.70312 63.58854L226.70312 62.666664L229.79688 62.666664L229.79688 65.791664ZM232.5 66.916664L231.42188 66.916664L231.42188 57.916664L232.5 57.916664L232.5 66.916664ZM234.03125 63.68229Q234.03125 62.760414 234.39062 62.010414Q234.76562 61.260414 235.42188 60.86979Q236.07812 60.46354 236.90625 60.46354Q238.20312 60.46354 239.0 61.354164Q239.8125 62.24479 239.8125 63.74479L239.8125 63.822914Q239.8125 64.74479 239.45312 65.479164Q239.09375 66.21354 238.4375 66.635414Q237.78125 67.041664 236.92188 67.041664Q235.64062 67.041664 234.82812 66.15104Q234.03125 65.24479 234.03125 63.760414L234.03125 63.68229ZM235.125 63.822914Q235.125 64.86979 235.60938 65.510414Q236.10938 66.15104 236.92188 66.15104Q237.75 66.15104 238.23438 65.510414Q238.71875 64.854164 238.71875 63.68229Q238.71875 62.65104 238.21875 62.010414Q237.73438 61.354164 236.90625 61.354164Q236.10938 61.354164 235.60938 61.99479Q235.125 62.61979 235.125 63.822914ZM246.6875 63.822914Q246.6875 65.27604 246.01562 66.166664Q245.35938 67.041664 244.23438 67.041664Q243.03125 67.041664 242.375 66.18229L242.3125 66.916664L241.32812 66.916664L241.32812 57.916664L242.40625 57.916664L242.40625 61.27604Q243.0625 60.46354 244.21875 60.46354Q245.375 60.46354 246.03125 61.33854Q246.6875 62.197914 246.6875 63.729164L246.6875 63.822914ZM245.60938 63.697914Q245.60938 62.58854 245.17188 61.99479Q244.75 61.385414 243.95312 61.385414Q242.875 61.385414 242.40625 62.36979L242.40625 65.11979Q242.90625 66.11979 243.95312 66.11979Q244.73438 66.11979 245.17188 65.510414Q245.60938 64.90104 245.60938 63.697914ZM252.23438 66.916664Q252.14062 66.729164 252.07812 66.24479Q251.32812 67.041664 250.28125 67.041664Q249.34375 67.041664 248.73438 66.510414Q248.14062 65.979164 248.14062 65.15104Q248.14062 64.166664 248.89062 63.61979Q249.64062 63.072914 251.01562 63.072914L252.0625 63.072914L252.0625 62.572914Q252.0625 62.010414 251.71875 61.68229Q251.39062 61.33854 250.71875 61.33854Q250.14062 61.33854 249.75 61.635414Q249.35938 61.916664 249.35938 62.33854L248.26562 62.33854Q248.26562 61.854164 248.59375 61.416664Q248.9375 60.979164 249.51562 60.729164Q250.09375 60.46354 250.78125 60.46354Q251.89062 60.46354 252.5 61.010414Q253.125 61.55729 253.15625 62.510414L253.15625 65.43229Q253.15625 66.30729 253.375 66.822914L253.375 66.916664L252.23438 66.916664ZM250.4375 66.08854Q250.95312 66.08854 251.40625 65.822914Q251.85938 65.55729 252.0625 65.135414L252.0625 63.83854L251.21875 63.83854Q249.21875 63.83854 249.21875 65.010414Q249.21875 65.510414 249.5625 65.80729Q249.90625 66.08854 250.4375 66.08854ZM256.5 66.916664L255.42188 66.916664L255.42188 57.916664L256.5 57.916664L256.5 66.916664ZM268.04688 66.916664L266.92188 66.916664L262.625 60.33854L262.625 66.916664L261.48438 66.916664L261.48438 58.385414L262.625 58.385414L266.92188 64.99479L266.92188 58.385414L268.04688 58.385414L268.04688 66.916664ZM270.03125 63.68229Q270.03125 62.760414 270.39062 62.010414Q270.76562 61.260414 271.42188 60.86979Q272.07812 60.46354 272.90625 60.46354Q274.20312 60.46354 275.0 61.354164Q275.8125 62.24479 275.8125 63.74479L275.8125 63.822914Q275.8125 64.74479 275.45312 65.479164Q275.09375 66.21354 274.4375 66.635414Q273.78125 67.041664 272.92188 67.041664Q271.64062 67.041664 270.82812 66.15104Q270.03125 65.24479 270.03125 63.760414L270.03125 63.68229ZM271.125 63.822914Q271.125 64.86979 271.60938 65.510414Q272.10938 66.15104 272.92188 66.15104Q273.75 66.15104 274.23438 65.510414Q274.71875 64.854164 274.71875 63.68229Q274.71875 62.65104 274.21875 62.010414Q273.73438 61.354164 272.90625 61.354164Q272.10938 61.354164 271.60938 61.99479Q271.125 62.61979 271.125 63.822914ZM280.39062 61.541664Q280.14062 61.510414 279.85938 61.510414Q278.78125 61.510414 278.40625 62.416664L278.40625 66.916664L277.32812 66.916664L277.32812 60.572914L278.375 60.572914L278.39062 61.30729Q278.92188 60.46354 279.90625 60.46354Q280.21875 60.46354 280.39062 60.541664L280.39062 61.541664ZM282.79688 59.041664L282.79688 60.572914L283.96875 60.572914L283.96875 61.416664L282.79688 61.416664L282.79688 65.33854Q282.79688 65.729164 282.95312 65.916664Q283.10938 66.104164 283.48438 66.104164Q283.67188 66.104164 284.0 66.041664L284.0 66.916664Q283.57812 67.041664 283.17188 67.041664Q282.45312 67.041664 282.07812 66.604164Q281.70312 66.15104 281.70312 65.33854L281.70312 61.416664L280.54688 61.416664L280.54688 60.572914L281.70312 60.572914L281.70312 59.041664L282.79688 59.041664ZM286.40625 61.33854Q287.125 60.46354 288.28125 60.46354Q290.29688 60.46354 290.3125 62.729164L290.3125 66.916664L289.21875 66.916664L289.21875 62.71354Q289.21875 62.041664 288.90625 61.71354Q288.60938 61.385414 287.95312 61.385414Q287.42188 61.385414 287.01562 61.666664Q286.625 61.947914 286.40625 62.40104L286.40625 66.916664L285.32812 66.916664L285.32812 57.916664L286.40625 57.916664L286.40625 61.33854Z" fill-rule="nonzero"/><path fill="#ffd966" d="M307.5 57.416668C307.5 56.864384 307.94772 56.416668 308.5 56.416668L318.5 56.416668C319.05228 56.416668 319.5 56.864384 319.5 57.416668L319.5 67.416664C319.5 67.96895 319.05228 68.416664 318.5 68.416664L308.5 68.416664C307.94772 68.416664 307.5 67.96895 307.5 67.416664Z" fill-rule="nonzero"/><path fill="#000000" d="M334.79688 65.791664Q334.35938 66.416664 333.57812 66.729164Q332.79688 67.041664 331.76562 67.041664Q330.73438 67.041664 329.92188 66.55729Q329.10938 66.05729 328.67188 65.15104Q328.23438 64.24479 328.21875 63.05729L328.21875 62.322914Q328.21875 60.385414 329.10938 59.322914Q330.01562 58.260414 331.64062 58.260414Q332.98438 58.260414 333.79688 58.947914Q334.60938 59.635414 334.79688 60.885414L333.67188 60.885414Q333.34375 59.197914 331.65625 59.197914Q330.51562 59.197914 329.9375 59.99479Q329.35938 60.77604 329.34375 62.291664L329.34375 62.979164Q329.34375 64.416664 330.0 65.27604Q330.65625 66.11979 331.78125 66.11979Q332.40625 66.11979 332.875 65.979164Q333.35938 65.83854 333.67188 65.49479L333.67188 63.58854L331.70312 63.58854L331.70312 62.666664L334.79688 62.666664L334.79688 65.791664ZM337.5 66.916664L336.42188 66.916664L336.42188 57.916664L337.5 57.916664L337.5 66.916664ZM339.03125 63.68229Q339.03125 62.760414 339.39062 62.010414Q339.76562 61.260414 340.42188 60.86979Q341.07812 60.46354 341.90625 60.46354Q343.20312 60.46354 344.0 61.354164Q344.8125 62.24479 344.8125 63.74479L344.8125 63.822914Q344.8125 64.74479 344.45312 65.479164Q344.09375 66.21354 343.4375 66.635414Q342.78125 67.041664 341.92188 67.041664Q340.64062 67.041664 339.82812 66.15104Q339.03125 65.24479 339.03125 63.760414L339.03125 63.68229ZM340.125 63.822914Q340.125 64.86979 340.60938 65.510414Q341.10938 66.15104 341.92188 66.15104Q342.75 66.15104 343.23438 65.510414Q343.71875 64.854164 343.71875 63.68229Q343.71875 62.65104 343.21875 62.010414Q342.73438 61.354164 341.90625 61.354164Q341.10938 61.354164 340.60938 61.99479Q340.125 62.61979 340.125 63.822914ZM351.6875 63.822914Q351.6875 65.27604 351.01562 66.166664Q350.35938 67.041664 349.23438 67.041664Q348.03125 67.041664 347.375 66.18229L347.3125 66.916664L346.32812 66.916664L346.32812 57.916664L347.40625 57.916664L347.40625 61.27604Q348.0625 60.46354 349.21875 60.46354Q350.375 60.46354 351.03125 61.33854Q351.6875 62.197914 351.6875 63.729164L351.6875 63.822914ZM350.60938 63.697914Q350.60938 62.58854 350.17188 61.99479Q349.75 61.385414 348.95312 61.385414Q347.875 61.385414 347.40625 62.36979L347.40625 65.11979Q347.90625 66.11979 348.95312 66.11979Q349.73438 66.11979 350.17188 65.510414Q350.60938 64.90104 350.60938 63.697914ZM357.23438 66.916664Q357.14062 66.729164 357.07812 66.24479Q356.32812 67.041664 355.28125 67.041664Q354.34375 67.041664 353.73438 66.510414Q353.14062 65.979164 353.14062 65.15104Q353.14062 64.166664 353.89062 63.61979Q354.64062 63.072914 356.01562 63.072914L357.0625 63.072914L357.0625 62.572914Q357.0625 62.010414 356.71875 61.68229Q356.39062 61.33854 355.71875 61.33854Q355.14062 61.33854 354.75 61.635414Q354.35938 61.916664 354.35938 62.33854L353.26562 62.33854Q353.26562 61.854164 353.59375 61.416664Q353.9375 60.979164 354.51562 60.729164Q355.09375 60.46354 355.78125 60.46354Q356.89062 60.46354 357.5 61.010414Q358.125 61.55729 358.15625 62.510414L358.15625 65.43229Q358.15625 66.30729 358.375 66.822914L358.375 66.916664L357.23438 66.916664ZM355.4375 66.08854Q355.95312 66.08854 356.40625 65.822914Q356.85938 65.55729 357.0625 65.135414L357.0625 63.83854L356.21875 63.83854Q354.21875 63.83854 354.21875 65.010414Q354.21875 65.510414 354.5625 65.80729Q354.90625 66.08854 355.4375 66.08854ZM361.5 66.916664L360.42188 66.916664L360.42188 57.916664L361.5 57.916664L361.5 66.916664ZM369.0 63.11979Q367.5625 62.697914 366.89062 62.08854Q366.23438 61.479164 366.23438 60.58854Q366.23438 59.58854 367.03125 58.93229Q367.84375 58.260414 369.14062 58.260414Q370.01562 58.260414 370.70312 58.604164Q371.39062 58.947914 371.76562 59.541664Q372.15625 60.135414 372.15625 60.854164L371.01562 60.854164Q371.01562 60.072914 370.51562 59.635414Q370.03125 59.197914 369.14062 59.197914Q368.3125 59.197914 367.84375 59.572914Q367.375 59.93229 367.375 60.572914Q367.375 61.104164 367.8125 61.46354Q368.26562 61.822914 369.32812 62.11979Q370.39062 62.416664 370.98438 62.77604Q371.59375 63.135414 371.875 63.61979Q372.17188 64.104164 372.17188 64.74479Q372.17188 65.791664 371.35938 66.416664Q370.54688 67.041664 369.20312 67.041664Q368.3125 67.041664 367.54688 66.697914Q366.79688 66.354164 366.375 65.77604Q365.96875 65.18229 365.96875 64.447914L367.09375 64.447914Q367.09375 65.21354 367.67188 65.666664Q368.25 66.11979 369.20312 66.11979Q370.09375 66.11979 370.5625 65.760414Q371.03125 65.385414 371.03125 64.760414Q371.03125 64.135414 370.59375 63.791664Q370.15625 63.447914 369.0 63.11979ZM373.03125 63.68229Q373.03125 62.760414 373.39062 62.010414Q373.76562 61.260414 374.42188 60.86979Q375.07812 60.46354 375.90625 60.46354Q377.20312 60.46354 378.0 61.354164Q378.8125 62.24479 378.8125 63.74479L378.8125 63.822914Q378.8125 64.74479 378.45312 65.479164Q378.09375 66.21354 377.4375 66.635414Q376.78125 67.041664 375.92188 67.041664Q374.64062 67.041664 373.82812 66.15104Q373.03125 65.24479 373.03125 63.760414L373.03125 63.68229ZM374.125 63.822914Q374.125 64.86979 374.60938 65.510414Q375.10938 66.15104 375.92188 66.15104Q376.75 66.15104 377.23438 65.510414Q377.71875 64.854164 377.71875 63.68229Q377.71875 62.65104 377.21875 62.010414Q376.73438 61.354164 375.90625 61.354164Q375.10938 61.354164 374.60938 61.99479Q374.125 62.61979 374.125 63.822914ZM384.23438 66.291664Q383.60938 67.041664 382.375 67.041664Q381.35938 67.041664 380.82812 66.447914Q380.29688 65.854164 380.29688 64.697914L380.29688 60.572914L381.375 60.572914L381.375 64.666664Q381.375 66.11979 382.54688 66.11979Q383.79688 66.11979 384.20312 65.18229L384.20312 60.572914L385.29688 60.572914L385.29688 66.916664L384.26562 66.916664L384.23438 66.291664ZM388.79688 59.041664L388.79688 60.572914L389.96875 60.572914L389.96875 61.416664L388.79688 61.416664L388.79688 65.33854Q388.79688 65.729164 388.95312 65.916664Q389.10938 66.104164 389.48438 66.104164Q389.67188 66.104164 390.0 66.041664L390.0 66.916664Q389.57812 67.041664 389.17188 67.041664Q388.45312 67.041664 388.07812 66.604164Q387.70312 66.15104 387.70312 65.33854L387.70312 61.416664L386.54688 61.416664L386.54688 60.572914L387.70312 60.572914L387.70312 59.041664L388.79688 59.041664ZM392.40625 61.33854Q393.125 60.46354 394.28125 60.46354Q396.29688 60.46354 396.3125 62.729164L396.3125 66.916664L395.21875 66.916664L395.21875 62.71354Q395.21875 62.041664 394.90625 61.71354Q394.60938 61.385414 393.95312 61.385414Q393.42188 61.385414 393.01562 61.666664Q392.625 61.947914 392.40625 62.40104L392.40625 66.916664L391.32812 66.916664L391.32812 57.916664L392.40625 57.916664L392.40625 61.33854Z" fill-rule="nonzero"/><path fill="#000000" d="M28.05 32.5134L22.096874 32.5134L20.753124 36.23215L18.83125 36.23215L24.253124 22.013401L25.89375 22.013401L31.33125 36.23215L29.409374 36.23215L28.05 32.5134ZM22.659374 30.982151L27.503124 30.982151L25.08125 24.325901L22.659374 30.982151ZM32.4875 30.857151Q32.4875 28.388401 33.628124 26.935276Q34.76875 25.466526 36.659374 25.466526Q38.596874 25.466526 39.675 26.841526L39.76875 25.669651L41.409374 25.669651L41.409374 35.98215Q41.409374 38.029026 40.190624 39.2009Q38.9875 40.3884 36.925 40.3884Q35.784374 40.3884 34.690624 39.904026Q33.596874 39.41965 33.01875 38.560276L33.95625 37.48215Q35.128124 38.91965 36.8 38.91965Q38.128124 38.91965 38.8625 38.16965Q39.596874 37.435276 39.596874 36.091526L39.596874 35.16965Q38.51875 36.435276 36.64375 36.435276Q34.784374 36.435276 33.628124 34.935276Q32.4875 33.435276 32.4875 30.857151ZM34.3 31.060276Q34.3 32.85715 35.034374 33.872776Q35.76875 34.8884 37.08125 34.8884Q38.8 34.8884 39.596874 33.341526L39.596874 28.513401Q38.76875 26.997776 37.1125 26.997776Q35.784374 26.997776 35.034374 28.029026Q34.3 29.060276 34.3 31.060276ZM48.3 36.435276Q46.159374 36.435276 44.8 35.029026Q43.45625 33.60715 43.45625 31.247776L43.45625 30.904026Q43.45625 29.341526 44.05 28.107151Q44.659374 26.872776 45.7375 26.169651Q46.815624 25.466526 48.08125 25.466526Q50.14375 25.466526 51.284374 26.825901Q52.425 28.185276 52.425 30.716526L52.425 31.466526L45.26875 31.466526Q45.3 33.029026 46.175 33.997776Q47.05 34.9509 48.39375 34.9509Q49.3625 34.9509 50.01875 34.560276Q50.690624 34.16965 51.190624 33.529026L52.284374 34.3884Q50.95625 36.435276 48.3 36.435276ZM48.08125 26.950901Q46.9875 26.950901 46.2375 27.747776Q45.503124 28.544651 45.33125 29.982151L50.6125 29.982151L50.6125 29.841526Q50.534374 28.466526 49.8625 27.716526Q49.20625 26.950901 48.08125 26.950901Z" fill-rule="nonzero"/></svg>