<svg version="1.1" viewBox="0.0 0.0 600.0 371.0" fill="none" stroke="none" stroke-linecap="square" stroke-miterlimit="10" width="600" height="371" xmlns:xlink="http://www.w3.org/1999/xlink" xmlns="http://www.w3.org/2000/svg"><path fill="#ffffff" d="M0 0L600.0 0L600.0 371.0L0 371.0L0 0Z" fill-rule="nonzero"/><path stroke="#333333" stroke-width="1.0" stroke-linecap="butt" d="M45.5 316.5L581.5 316.5" fill-rule="nonzero"/><path stroke="#000000" stroke-width="1.0" stroke-linecap="butt" d="M45.5 259.5L581.5 259.5" fill-rule="nonzero"/><path stroke="#000000" stroke-width="1.0" stroke-linecap="butt" d="M45.5 203.5L581.5 203.5" fill-rule="nonzero"/><path stroke="#000000" stroke-width="1.0" stroke-linecap="butt" d="M45.5 146.5L581.5 146.5" fill-rule="nonzero"/><path stroke="#000000" stroke-width="1.0" stroke-linecap="butt" d="M45.5 89.5L581.5 89.5" fill-rule="nonzero"/><clipPath id="id_0"><path d="M45.55 89.78333L581.45 89.78333L581.45 316.45L45.55 316.45L45.55 89.78333Z" clip-rule="nonzero"/></clipPath><path stroke="#000000" stroke-width="0.0" stroke-linecap="butt" stroke-opacity="0.0" clip-path="url(#id_0)" d="M102.0 316.0L76.0 316.0L76.0 233.0C76.0 231.89543 76.89543 231.0 78.0 231.0L100.0 231.0C101.10457 231.0 102.0 231.89543 102.0 233.0Z" fill-rule="nonzero"/><path fill="#b6d7a8" clip-path="url(#id_0)" d="M102.0 316.0L76.0 316.0L76.0 233.0C76.0 231.89543 76.89543 231.0 78.0 231.0L100.0 231.0C101.10457 231.0 102.0 231.89543 102.0 233.0Z" fill-rule="nonzero"/><path stroke="#000000" stroke-width="0.0" stroke-linecap="butt" stroke-opacity="0.0" clip-path="url(#id_0)" d="M186.0 316.0L160.0 316.0L160.0 316.0L186.0 316.0Z" fill-rule="nonzero"/><path fill="#b6d7a8" clip-path="url(#id_0)" d="M186.0 316.0L160.0 316.0L160.0 316.0L186.0 316.0Z" fill-rule="nonzero"/><path stroke="#000000" stroke-width="0.0" stroke-linecap="butt" stroke-opacity="0.0" clip-path="url(#id_0)" d="M270.0 316.0L244.0 316.0L244.0 262.0C244.0 260.89542 244.89543 260.0 246.0 260.0L268.0 260.0C269.10458 260.0 270.0 260.89542 270.0 262.0Z" fill-rule="nonzero"/><path fill="#b6d7a8" clip-path="url(#id_0)" d="M270.0 316.0L244.0 316.0L244.0 262.0C244.0 260.89542 244.89543 260.0 246.0 260.0L268.0 260.0C269.10458 260.0 270.0 260.89542 270.0 262.0Z" fill-rule="nonzero"/><path stroke="#000000" stroke-width="0.0" stroke-linecap="butt" stroke-opacity="0.0" clip-path="url(#id_0)" d="M355.0 316.0L329.0 316.0L329.0 293.0C329.0 291.89542 329.89542 291.0 331.0 291.0L353.0 291.0C354.10458 291.0 355.0 291.89542 355.0 293.0Z" fill-rule="nonzero"/><path fill="#b6d7a8" clip-path="url(#id_0)" d="M355.0 316.0L329.0 316.0L329.0 293.0C329.0 291.89542 329.89542 291.0 331.0 291.0L353.0 291.0C354.10458 291.0 355.0 291.89542 355.0 293.0Z" fill-rule="nonzero"/><path stroke="#000000" stroke-width="0.0" stroke-linecap="butt" stroke-opacity="0.0" clip-path="url(#id_0)" d="M439.0 316.0L413.0 316.0L413.0 199.0C413.0 197.89543 413.89542 197.0 415.0 197.0L437.0 197.0C438.10458 197.0 439.0 197.89543 439.0 199.0Z" fill-rule="nonzero"/><path fill="#b6d7a8" clip-path="url(#id_0)" d="M439.0 316.0L413.0 316.0L413.0 199.0C413.0 197.89543 413.89542 197.0 415.0 197.0L437.0 197.0C438.10458 197.0 439.0 197.89543 439.0 199.0Z" fill-rule="nonzero"/><path stroke="#000000" stroke-width="0.0" stroke-linecap="butt" stroke-opacity="0.0" clip-path="url(#id_0)" d="M523.0 316.0L497.0 316.0L497.0 310.0C497.0 308.89542 497.89542 308.0 499.0 308.0L521.0 308.0C522.10455 308.0 523.0 308.89542 523.0 310.0Z" fill-rule="nonzero"/><path fill="#b6d7a8" clip-path="url(#id_0)" d="M523.0 316.0L497.0 316.0L497.0 310.0C497.0 308.89542 497.89542 308.0 499.0 308.0L521.0 308.0C522.10455 308.0 523.0 308.89542 523.0 310.0Z" fill-rule="nonzero"/><path stroke="#000000" stroke-width="0.0" stroke-linecap="butt" stroke-opacity="0.0" clip-path="url(#id_0)" d="M129.0 316.0L103.0 316.0L103.0 97.0C103.0 95.89543 103.89543 95.0 105.0 95.0L127.0 95.0C128.10457 95.0 129.0 95.89543 129.0 97.0Z" fill-rule="nonzero"/><path fill="#ffd966" clip-path="url(#id_0)" d="M129.0 316.0L103.0 316.0L103.0 97.0C103.0 95.89543 103.89543 95.0 105.0 95.0L127.0 95.0C128.10457 95.0 129.0 95.89543 129.0 97.0Z" fill-rule="nonzero"/><path stroke="#000000" stroke-width="0.0" stroke-linecap="butt" stroke-opacity="0.0" clip-path="url(#id_0)" d="M213.0 316.0L187.0 316.0L187.0 315.0C187.0 314.44772 187.44771 314.0 188.0 314.0L212.0 314.0C212.55229 314.0 213.0 314.44772 213.0 315.0Z" fill-rule="nonzero"/><path fill="#ffd966" clip-path="url(#id_0)" d="M213.0 316.0L187.0 316.0L187.0 315.0C187.0 314.44772 187.44771 314.0 188.0 314.0L212.0 314.0C212.55229 314.0 213.0 314.44772 213.0 315.0Z" fill-rule="nonzero"/><path stroke="#000000" stroke-width="0.0" stroke-linecap="butt" stroke-opacity="0.0" clip-path="url(#id_0)" d="M297.0 316.0L271.0 316.0L271.0 304.0C271.0 302.89542 271.89542 302.0 273.0 302.0L295.0 302.0C296.10458 302.0 297.0 302.89542 297.0 304.0Z" fill-rule="nonzero"/><path fill="#ffd966" clip-path="url(#id_0)" d="M297.0 316.0L271.0 316.0L271.0 304.0C271.0 302.89542 271.89542 302.0 273.0 302.0L295.0 302.0C296.10458 302.0 297.0 302.89542 297.0 304.0Z" fill-rule="nonzero"/><path stroke="#000000" stroke-width="0.0" stroke-linecap="butt" stroke-opacity="0.0" clip-path="url(#id_0)" d="M382.0 316.0L356.0 316.0L356.0 245.0C356.0 243.89543 356.89542 243.0 358.0 243.0L380.0 243.0C381.10458 243.0 382.0 243.89543 382.0 245.0Z" fill-rule="nonzero"/><path fill="#ffd966" clip-path="url(#id_0)" d="M382.0 316.0L356.0 316.0L356.0 245.0C356.0 243.89543 356.89542 243.0 358.0 243.0L380.0 243.0C381.10458 243.0 382.0 243.89543 382.0 245.0Z" fill-rule="nonzero"/><path stroke="#000000" stroke-width="0.0" stroke-linecap="butt" stroke-opacity="0.0" clip-path="url(#id_0)" d="M466.0 316.0L440.0 316.0L440.0 248.0C440.0 246.89543 440.89542 246.0 442.0 246.0L464.0 246.0C465.10458 246.0 466.0 246.89543 466.0 248.0Z" fill-rule="nonzero"/><path fill="#ffd966" clip-path="url(#id_0)" d="M466.0 316.0L440.0 316.0L440.0 248.0C440.0 246.89543 440.89542 246.0 442.0 246.0L464.0 246.0C465.10458 246.0 466.0 246.89543 466.0 248.0Z" fill-rule="nonzero"/><path stroke="#000000" stroke-width="0.0" stroke-linecap="butt" stroke-opacity="0.0" clip-path="url(#id_0)" d="M550.0 316.0L524.0 316.0L524.0 296.0C524.0 294.89542 524.89545 294.0 526.0 294.0L548.0 294.0C549.10455 294.0 550.0 294.89542 550.0 296.0Z" fill-rule="nonzero"/><path fill="#ffd966" clip-path="url(#id_0)" d="M550.0 316.0L524.0 316.0L524.0 296.0C524.0 294.89542 524.89545 294.0 526.0 294.0L548.0 294.0C549.10455 294.0 550.0 294.89542 550.0 296.0Z" fill-rule="nonzero"/><path fill="#000000" d="M38.6125 317.3094Q38.6125 319.21564 37.95625 320.15314Q37.315624 321.075 35.925 321.075Q34.565624 321.075 33.909374 320.16876Q33.253124 319.2625 33.221874 317.45L33.221874 316.0125Q33.221874 314.1219 33.8625 313.21564Q34.51875 312.29376 35.909374 312.29376Q37.284374 312.29376 37.940624 313.1844Q38.596874 314.0594 38.6125 315.90314L38.6125 317.3094ZM37.51875 315.825Q37.51875 314.45 37.128124 313.825Q36.753124 313.1844 35.909374 313.1844Q35.08125 313.1844 34.690624 313.825Q34.315624 314.45 34.315624 315.7469L34.315624 317.48126Q34.315624 318.85626 34.70625 319.52814Q35.1125 320.1844 35.925 320.1844Q36.721874 320.1844 37.1125 319.5594Q37.503124 318.9344 37.51875 317.60626L37.51875 315.825Z" fill-rule="nonzero"/><path fill="#000000" d="M31.846874 264.28333L26.253124 264.28333L26.253124 263.50208L29.20625 260.22083Q29.8625 259.47083 30.1125 259.0177Q30.3625 258.54895 30.3625 258.04895Q30.3625 257.37708 29.95625 256.9552Q29.565624 256.5177 28.878124 256.5177Q28.08125 256.5177 27.628124 256.98645Q27.175 257.43958 27.175 258.2677L26.096874 258.2677Q26.096874 257.0802 26.846874 256.36145Q27.6125 255.62708 28.878124 255.62708Q30.08125 255.62708 30.76875 256.25208Q31.45625 256.87708 31.45625 257.92395Q31.45625 259.17395 29.846874 260.92395L27.565624 263.3927L31.846874 263.3927L31.846874 264.28333ZM38.6125 260.6427Q38.6125 262.54895 37.95625 263.48645Q37.315624 264.40833 35.925 264.40833Q34.565624 264.40833 33.909374 263.50208Q33.253124 262.59583 33.221874 260.78333L33.221874 259.34583Q33.221874 257.4552 33.8625 256.54895Q34.51875 255.62708 35.909374 255.62708Q37.284374 255.62708 37.940624 256.5177Q38.596874 257.3927 38.6125 259.23645L38.6125 260.6427ZM37.51875 259.15833Q37.51875 257.78333 37.128124 257.15833Q36.753124 256.5177 35.909374 256.5177Q35.08125 256.5177 34.690624 257.15833Q34.315624 257.78333 34.315624 259.0802L34.315624 260.81458Q34.315624 262.18958 34.70625 262.86145Q35.1125 263.5177 35.925 263.5177Q36.721874 263.5177 37.1125 262.8927Q37.503124 262.2677 37.51875 260.93958L37.51875 259.15833Z" fill-rule="nonzero"/><path fill="#000000" d="M30.83125 204.7573L32.01875 204.7573L32.01875 205.6323L30.83125 205.6323L30.83125 207.61667L29.753124 207.61667L29.753124 205.6323L25.8625 205.6323L25.8625 204.99167L29.675 199.08542L30.83125 199.08542L30.83125 204.7573ZM27.096874 204.7573L29.753124 204.7573L29.753124 200.5698L29.6125 200.80417L27.096874 204.7573ZM38.6125 203.97604Q38.6125 205.8823 37.95625 206.8198Q37.315624 207.74167 35.925 207.74167Q34.565624 207.74167 33.909374 206.83542Q33.253124 205.92917 33.221874 204.11667L33.221874 202.67917Q33.221874 200.78854 33.8625 199.8823Q34.51875 198.96042 35.909374 198.96042Q37.284374 198.96042 37.940624 199.85104Q38.596874 200.72604 38.6125 202.5698L38.6125 203.97604ZM37.51875 202.49167Q37.51875 201.11667 37.128124 200.49167Q36.753124 199.85104 35.909374 199.85104Q35.08125 199.85104 34.690624 200.49167Q34.315624 201.11667 34.315624 202.41354L34.315624 204.14792Q34.315624 205.52292 34.70625 206.1948Q35.1125 206.85104 35.925 206.85104Q36.721874 206.85104 37.1125 206.22604Q37.503124 205.60104 37.51875 204.27292L37.51875 202.49167Z" fill-rule="nonzero"/><path fill="#000000" d="M30.51875 142.41875L30.51875 143.325L30.315624 143.325Q29.05 143.35625 28.3 144.09062Q27.55 144.80937 27.425 146.12187Q28.1125 145.35625 29.26875 145.35625Q30.378124 145.35625 31.05 146.1375Q31.721874 146.91875 31.721874 148.16875Q31.721874 149.48125 31.003124 150.27812Q30.284374 151.075 29.065624 151.075Q27.846874 151.075 27.08125 150.1375Q26.33125 149.18437 26.33125 147.7L26.33125 147.29375Q26.33125 144.93437 27.33125 143.68437Q28.33125 142.43437 30.315624 142.41875L30.51875 142.41875ZM29.096874 146.2625Q28.534374 146.2625 28.065624 146.59062Q27.596874 146.91875 27.409374 147.43437L27.409374 147.825Q27.409374 148.8875 27.878124 149.52812Q28.3625 150.16875 29.065624 150.16875Q29.8 150.16875 30.221874 149.6375Q30.64375 149.09062 30.64375 148.21562Q30.64375 147.34062 30.221874 146.80937Q29.8 146.2625 29.096874 146.2625ZM38.6125 147.30937Q38.6125 149.21562 37.95625 150.15312Q37.315624 151.075 35.925 151.075Q34.565624 151.075 33.909374 150.16875Q33.253124 149.2625 33.221874 147.45L33.221874 146.0125Q33.221874 144.12187 33.8625 143.21562Q34.51875 142.29375 35.909374 142.29375Q37.284374 142.29375 37.940624 143.18437Q38.596874 144.05937 38.6125 145.90312L38.6125 147.30937ZM37.51875 145.825Q37.51875 144.45 37.128124 143.825Q36.753124 143.18437 35.909374 143.18437Q35.08125 143.18437 34.690624 143.825Q34.315624 144.45 34.315624 145.74687L34.315624 147.48125Q34.315624 148.85625 34.70625 149.52812Q35.1125 150.18437 35.925 150.18437Q36.721874 150.18437 37.1125 149.55937Q37.503124 148.93437 37.51875 147.60625L37.51875 145.825Z" fill-rule="nonzero"/><path fill="#000000" d="M31.440624 87.97083Q31.440624 88.61146 31.096874 89.11146Q30.753124 89.61146 30.190624 89.89271Q30.846874 90.17396 31.2375 90.73646Q31.628124 91.28333 31.628124 91.98646Q31.628124 93.08021 30.878124 93.75208Q30.14375 94.40833 28.925 94.40833Q27.690624 94.40833 26.940624 93.75208Q26.20625 93.08021 26.20625 91.98646Q26.20625 91.28333 26.58125 90.73646Q26.95625 90.17396 27.628124 89.89271Q27.065624 89.61146 26.7375 89.11146Q26.409374 88.61146 26.409374 87.97083Q26.409374 86.89271 27.096874 86.26771Q27.784374 85.62708 28.925 85.62708Q30.05 85.62708 30.7375 86.26771Q31.440624 86.89271 31.440624 87.97083ZM30.55 91.95521Q30.55 91.23646 30.096874 90.79896Q29.64375 90.34583 28.909374 90.34583Q28.175 90.34583 27.721874 90.79896Q27.284374 91.23646 27.284374 91.97083Q27.284374 92.68958 27.721874 93.11146Q28.159374 93.51771 28.925 93.51771Q29.675 93.51771 30.1125 93.09583Q30.55 92.67396 30.55 91.95521ZM28.925 86.51771Q28.284374 86.51771 27.878124 86.92396Q27.4875 87.31458 27.4875 88.00208Q27.4875 88.64271 27.878124 89.04896Q28.26875 89.45521 28.909374 89.45521Q29.565624 89.45521 29.95625 89.04896Q30.346874 88.64271 30.346874 88.00208Q30.346874 87.34583 29.940624 86.93958Q29.534374 86.51771 28.925 86.51771ZM38.6125 90.64271Q38.6125 92.54896 37.95625 93.48646Q37.315624 94.40833 35.925 94.40833Q34.565624 94.40833 33.909374 93.50208Q33.253124 92.59583 33.221874 90.78333L33.221874 89.34583Q33.221874 87.45521 33.8625 86.54896Q34.51875 85.62708 35.909374 85.62708Q37.284374 85.62708 37.940624 86.51771Q38.596874 87.39271 38.6125 89.23646L38.6125 90.64271ZM37.51875 89.15833Q37.51875 87.78333 37.128124 87.15833Q36.753124 86.51771 35.909374 86.51771Q35.08125 86.51771 34.690624 87.15833Q34.315624 87.78333 34.315624 89.08021L34.315624 90.81458Q34.315624 92.18958 34.70625 92.86146Q35.1125 93.51771 35.925 93.51771Q36.721874 93.51771 37.1125 92.89271Q37.503124 92.26771 37.51875 90.93958L37.51875 89.15833Z" fill-rule="nonzero"/><path fill="#000000" d="M76.00012 334.45L76.00012 325.91876L78.797 325.91876Q80.18762 325.91876 80.87512 326.4969Q81.57825 327.0594 81.57825 328.1844Q81.57825 328.79376 81.2345 329.2625Q80.90637 329.71564 80.31262 329.96564Q81.01575 330.15314 81.40637 330.7Q81.81262 331.23126 81.81262 331.98126Q81.81262 333.1375 81.06262 333.79376Q80.32825 334.45 78.96887 334.45L76.00012 334.45ZM77.12512 330.46564L77.12512 333.52814L78.9845 333.52814Q79.78137 333.52814 80.2345 333.1219Q80.68762 332.71564 80.68762 331.9969Q80.68762 330.46564 79.00012 330.46564L77.12512 330.46564ZM77.12512 329.5594L78.82825 329.5594Q79.56262 329.5594 80.00012 329.2Q80.45325 328.825 80.45325 328.1844Q80.45325 327.48126 80.047 327.16876Q79.64075 326.84064 78.797 326.84064L77.12512 326.84064L77.12512 329.5594ZM86.75012 334.45Q86.65637 334.2625 86.59387 333.77814Q85.84387 334.575 84.797 334.575Q83.8595 334.575 83.25012 334.04376Q82.65637 333.5125 82.65637 332.6844Q82.65637 331.7 83.40637 331.15314Q84.15637 330.60626 85.53137 330.60626L86.57825 330.60626L86.57825 330.10626Q86.57825 329.54376 86.2345 329.21564Q85.90637 328.8719 85.2345 328.8719Q84.65637 328.8719 84.26575 329.16876Q83.87512 329.45 83.87512 329.8719L82.78137 329.8719Q82.78137 329.3875 83.1095 328.95Q83.45325 328.5125 84.03137 328.2625Q84.6095 327.9969 85.297 327.9969Q86.40637 327.9969 87.01575 328.54376Q87.64075 329.09064 87.672 330.04376L87.672 332.96564Q87.672 333.84064 87.89075 334.35626L87.89075 334.45L86.75012 334.45ZM84.95325 333.6219Q85.46887 333.6219 85.922 333.35626Q86.37512 333.09064 86.57825 332.66876L86.57825 331.3719L85.7345 331.3719Q83.7345 331.3719 83.7345 332.54376Q83.7345 333.04376 84.07825 333.34064Q84.422 333.6219 84.95325 333.6219ZM92.37512 333.6844Q92.95325 333.6844 93.39075 333.34064Q93.82825 332.98126 93.87512 332.45L94.90637 332.45Q94.87512 332.9969 94.51575 333.4969Q94.172 333.98126 93.59387 334.27814Q93.03137 334.575 92.37512 334.575Q91.07825 334.575 90.31262 333.71564Q89.56262 332.84064 89.56262 331.34064L89.56262 331.15314Q89.56262 330.23126 89.89075 329.5125Q90.2345 328.79376 90.8595 328.40314Q91.50012 327.9969 92.37512 327.9969Q93.43762 327.9969 94.14075 328.6375Q94.8595 329.2625 94.90637 330.29376L93.87512 330.29376Q93.82825 329.66876 93.40637 329.27814Q92.9845 328.8875 92.37512 328.8875Q91.547 328.8875 91.09387 329.48126Q90.64075 330.075 90.64075 331.2L90.64075 331.40314Q90.64075 332.4969 91.09387 333.09064Q91.547 333.6844 92.37512 333.6844ZM96.922 328.8719Q97.64075 327.9969 98.797 327.9969Q100.81262 327.9969 100.82825 330.2625L100.82825 334.45L99.7345 334.45L99.7345 330.2469Q99.7345 329.575 99.422 329.2469Q99.12512 328.91876 98.46887 328.91876Q97.93762 328.91876 97.53137 329.2Q97.14075 329.48126 96.922 329.9344L96.922 334.45L95.84387 334.45L95.84387 325.45L96.922 325.45L96.922 328.8719ZM105.46887 334.575Q104.172 334.575 103.3595 333.73126Q102.56262 332.8719 102.56262 331.45L102.56262 331.2625Q102.56262 330.3094 102.922 329.575Q103.28137 328.825 103.922 328.41876Q104.57825 327.9969 105.32825 327.9969Q106.56262 327.9969 107.25012 328.8094Q107.93762 329.6219 107.93762 331.1375L107.93762 331.59064L103.64075 331.59064Q103.672 332.52814 104.18762 333.10626Q104.71887 333.6844 105.53137 333.6844Q106.09387 333.6844 106.4845 333.45Q106.89075 333.21564 107.20325 332.825L107.8595 333.34064Q107.06262 334.575 105.46887 334.575ZM105.32825 328.8875Q104.672 328.8875 104.21887 329.3719Q103.78137 329.84064 103.68762 330.7L106.8595 330.7L106.8595 330.6219Q106.81262 329.79376 106.40637 329.34064Q106.01575 328.8875 105.32825 328.8875ZM110.01575 334.45L108.93762 334.45L108.93762 325.45L110.01575 325.45L110.01575 334.45ZM111.547 331.21564Q111.547 330.29376 111.90637 329.54376Q112.28137 328.79376 112.93762 328.40314Q113.59387 327.9969 114.422 327.9969Q115.71887 327.9969 116.51575 328.8875Q117.32825 329.77814 117.32825 331.27814L117.32825 331.35626Q117.32825 332.27814 116.96887 333.0125Q116.6095 333.7469 115.95325 334.16876Q115.297 334.575 114.43762 334.575Q113.15637 334.575 112.34387 333.6844Q111.547 332.77814 111.547 331.29376L111.547 331.21564ZM112.64075 331.35626Q112.64075 332.40314 113.12512 333.04376Q113.62512 333.6844 114.43762 333.6844Q115.26575 333.6844 115.75012 333.04376Q116.2345 332.3875 116.2345 331.21564Q116.2345 330.1844 115.7345 329.54376Q115.25012 328.8875 114.422 328.8875Q113.62512 328.8875 113.12512 329.52814Q112.64075 330.15314 112.64075 331.35626ZM121.90637 329.075Q121.65637 329.04376 121.37512 329.04376Q120.297 329.04376 119.922 329.95L119.922 334.45L118.84387 334.45L118.84387 328.10626L119.89075 328.10626L119.90637 328.84064Q120.43762 327.9969 121.422 327.9969Q121.7345 327.9969 121.90637 328.075L121.90637 329.075ZM123.50012 326.10626L123.37512 328.2625L122.62512 328.2625L122.62512 325.45L123.50012 325.45L123.50012 326.10626ZM128.53137 332.7625Q128.53137 332.325 128.18762 332.09064Q127.8595 331.84064 127.03137 331.66876Q126.21887 331.4969 125.7345 331.2469Q125.25012 330.9969 125.01575 330.66876Q124.797 330.325 124.797 329.85626Q124.797 329.075 125.45325 328.54376Q126.1095 327.9969 127.14075 327.9969Q128.21887 327.9969 128.87512 328.5594Q129.547 329.10626 129.547 329.96564L128.46887 329.96564Q128.46887 329.52814 128.07825 329.21564Q127.70325 328.8875 127.14075 328.8875Q126.547 328.8875 126.20325 329.15314Q125.87512 329.40314 125.87512 329.8094Q125.87512 330.2 126.18762 330.40314Q126.50012 330.60626 127.31262 330.79376Q128.12512 330.96564 128.62512 331.21564Q129.12512 331.46564 129.3595 331.825Q129.6095 332.1844 129.6095 332.6844Q129.6095 333.54376 128.922 334.0594Q128.25012 334.575 127.172 334.575Q126.40637 334.575 125.81262 334.3094Q125.2345 334.02814 124.90637 333.54376Q124.57825 333.0594 124.57825 332.4969L125.65637 332.4969Q125.68762 333.04376 126.09387 333.3719Q126.50012 333.6844 127.172 333.6844Q127.78137 333.6844 128.15637 333.4344Q128.53137 333.1844 128.53137 332.7625Z" fill-rule="nonzero"/><path fill="#000000" d="M85.07825 346.23126Q85.07825 344.7625 85.76575 343.8875Q86.45325 342.9969 87.57825 342.9969Q88.68762 342.9969 89.34387 343.7469L89.34387 340.45L90.422 340.45L90.422 349.45L89.422 349.45L89.37512 348.7625Q88.71887 349.575 87.56262 349.575Q86.46887 349.575 85.76575 348.66876Q85.07825 347.7625 85.07825 346.3094L85.07825 346.23126ZM86.15637 346.35626Q86.15637 347.4344 86.59387 348.04376Q87.047 348.65314 87.82825 348.65314Q88.8595 348.65314 89.34387 347.71564L89.34387 344.8094Q88.8595 343.91876 87.84387 343.91876Q87.047 343.91876 86.59387 344.52814Q86.15637 345.1375 86.15637 346.35626ZM94.96887 349.575Q93.672 349.575 92.8595 348.73126Q92.06262 347.8719 92.06262 346.45L92.06262 346.2625Q92.06262 345.3094 92.422 344.575Q92.78137 343.825 93.422 343.41876Q94.07825 342.9969 94.82825 342.9969Q96.06262 342.9969 96.75012 343.8094Q97.43762 344.6219 97.43762 346.1375L97.43762 346.59064L93.14075 346.59064Q93.172 347.52814 93.68762 348.10626Q94.21887 348.6844 95.03137 348.6844Q95.59387 348.6844 95.9845 348.45Q96.39075 348.21564 96.70325 347.825L97.3595 348.34064Q96.56262 349.575 94.96887 349.575ZM94.82825 343.8875Q94.172 343.8875 93.71887 344.3719Q93.28137 344.84064 93.18762 345.7L96.3595 345.7L96.3595 345.6219Q96.31262 344.79376 95.90637 344.34064Q95.51575 343.8875 94.82825 343.8875ZM98.07825 346.23126Q98.07825 344.7469 98.76575 343.8719Q99.45325 342.9969 100.57825 342.9969Q101.7345 342.9969 102.39075 343.8094L102.43762 343.10626L103.43762 343.10626L103.43762 349.29376Q103.43762 350.52814 102.70325 351.23126Q101.96887 351.95 100.75012 351.95Q100.06262 351.95 99.40637 351.65314Q98.75012 351.35626 98.40637 350.85626L98.96887 350.2Q99.65637 351.0594 100.672 351.0594Q101.45325 351.0594 101.89075 350.60626Q102.34387 350.16876 102.34387 349.35626L102.34387 348.8094Q101.68762 349.575 100.56262 349.575Q99.45325 349.575 98.76575 348.6844Q98.07825 347.77814 98.07825 346.23126ZM99.172 346.35626Q99.172 347.41876 99.6095 348.04376Q100.047 348.65314 100.84387 348.65314Q101.8595 348.65314 102.34387 347.71564L102.34387 344.825Q101.84387 343.91876 100.84387 343.91876Q100.06262 343.91876 99.6095 344.52814Q99.172 345.1375 99.172 346.35626ZM108.40637 344.075Q108.15637 344.04376 107.87512 344.04376Q106.797 344.04376 106.422 344.95L106.422 349.45L105.34387 349.45L105.34387 343.10626L106.39075 343.10626L106.40637 343.84064Q106.93762 342.9969 107.922 342.9969Q108.2345 342.9969 108.40637 343.075L108.40637 344.075ZM111.96887 349.575Q110.672 349.575 109.8595 348.73126Q109.06262 347.8719 109.06262 346.45L109.06262 346.2625Q109.06262 345.3094 109.422 344.575Q109.78137 343.825 110.422 343.41876Q111.07825 342.9969 111.82825 342.9969Q113.06262 342.9969 113.75012 343.8094Q114.43762 344.6219 114.43762 346.1375L114.43762 346.59064L110.14075 346.59064Q110.172 347.52814 110.68762 348.10626Q111.21887 348.6844 112.03137 348.6844Q112.59387 348.6844 112.9845 348.45Q113.39075 348.21564 113.70325 347.825L114.3595 348.34064Q113.56262 349.575 111.96887 349.575ZM111.82825 343.8875Q111.172 343.8875 110.71887 344.3719Q110.28137 344.84064 110.18762 345.7L113.3595 345.7L113.3595 345.6219Q113.31262 344.79376 112.90637 344.34064Q112.51575 343.8875 111.82825 343.8875ZM117.96887 349.575Q116.672 349.575 115.8595 348.73126Q115.06262 347.8719 115.06262 346.45L115.06262 346.2625Q115.06262 345.3094 115.422 344.575Q115.78137 343.825 116.422 343.41876Q117.07825 342.9969 117.82825 342.9969Q119.06262 342.9969 119.75012 343.8094Q120.43762 344.6219 120.43762 346.1375L120.43762 346.59064L116.14075 346.59064Q116.172 347.52814 116.68762 348.10626Q117.21887 348.6844 118.03137 348.6844Q118.59387 348.6844 118.9845 348.45Q119.39075 348.21564 119.70325 347.825L120.3595 348.34064Q119.56262 349.575 117.96887 349.575ZM117.82825 343.8875Q117.172 343.8875 116.71887 344.3719Q116.28137 344.84064 116.18762 345.7L119.3595 345.7L119.3595 345.6219Q119.31262 344.79376 118.90637 344.34064Q118.51575 343.8875 117.82825 343.8875Z" fill-rule="nonzero"/><path fill="#000000" d="M158.39383 334.45L158.39383 325.91876L161.1907 325.91876Q162.58133 325.91876 163.26883 326.4969Q163.97195 327.0594 163.97195 328.1844Q163.97195 328.79376 163.6282 329.2625Q163.30008 329.71564 162.70633 329.96564Q163.40945 330.15314 163.80008 330.7Q164.20633 331.23126 164.20633 331.98126Q164.20633 333.1375 163.45633 333.79376Q162.72195 334.45 161.36258 334.45L158.39383 334.45ZM159.51883 330.46564L159.51883 333.52814L161.3782 333.52814Q162.17508 333.52814 162.6282 333.1219Q163.08133 332.71564 163.08133 331.9969Q163.08133 330.46564 161.39383 330.46564L159.51883 330.46564ZM159.51883 329.5594L161.22195 329.5594Q161.95633 329.5594 162.39383 329.2Q162.84695 328.825 162.84695 328.1844Q162.84695 327.48126 162.4407 327.16876Q162.03445 326.84064 161.1907 326.84064L159.51883 326.84064L159.51883 329.5594ZM167.86258 334.575Q166.5657 334.575 165.7532 333.73126Q164.95633 332.8719 164.95633 331.45L164.95633 331.2625Q164.95633 330.3094 165.3157 329.575Q165.67508 328.825 166.3157 328.41876Q166.97195 327.9969 167.72195 327.9969Q168.95633 327.9969 169.64383 328.8094Q170.33133 329.6219 170.33133 331.1375L170.33133 331.59064L166.03445 331.59064Q166.0657 332.52814 166.58133 333.10626Q167.11258 333.6844 167.92508 333.6844Q168.48758 333.6844 168.8782 333.45Q169.28445 333.21564 169.59695 332.825L170.2532 333.34064Q169.45633 334.575 167.86258 334.575ZM167.72195 328.8875Q167.0657 328.8875 166.61258 329.3719Q166.17508 329.84064 166.08133 330.7L169.2532 330.7L169.2532 330.6219Q169.20633 329.79376 168.80008 329.34064Q168.40945 328.8875 167.72195 328.8875ZM172.40945 334.45L171.33133 334.45L171.33133 325.45L172.40945 325.45L172.40945 334.45ZM173.9407 331.21564Q173.9407 330.29376 174.30008 329.54376Q174.67508 328.79376 175.33133 328.40314Q175.98758 327.9969 176.8157 327.9969Q178.11258 327.9969 178.90945 328.8875Q179.72195 329.77814 179.72195 331.27814L179.72195 331.35626Q179.72195 332.27814 179.36258 333.0125Q179.0032 333.7469 178.34695 334.16876Q177.6907 334.575 176.83133 334.575Q175.55008 334.575 174.73758 333.6844Q173.9407 332.77814 173.9407 331.29376L173.9407 331.21564ZM175.03445 331.35626Q175.03445 332.40314 175.51883 333.04376Q176.01883 333.6844 176.83133 333.6844Q177.65945 333.6844 178.14383 333.04376Q178.6282 332.3875 178.6282 331.21564Q178.6282 330.1844 178.1282 329.54376Q177.64383 328.8875 176.8157 328.8875Q176.01883 328.8875 175.51883 329.52814Q175.03445 330.15314 175.03445 331.35626ZM186.84695 332.95L188.0657 328.10626L189.14383 328.10626L187.30008 334.45L186.42508 334.45L184.8782 329.6375L183.3782 334.45L182.5032 334.45L180.65945 328.10626L181.73758 328.10626L182.98758 332.85626L184.47195 328.10626L185.33133 328.10626L186.84695 332.95ZM194.3157 328.8719Q195.03445 327.9969 196.1907 327.9969Q198.20633 327.9969 198.22195 330.2625L198.22195 334.45L197.1282 334.45L197.1282 330.2469Q197.1282 329.575 196.8157 329.2469Q196.51883 328.91876 195.86258 328.91876Q195.33133 328.91876 194.92508 329.2Q194.53445 329.48126 194.3157 329.9344L194.3157 334.45L193.23758 334.45L193.23758 325.45L194.3157 325.45L194.3157 328.8719ZM201.40945 334.45L200.33133 334.45L200.33133 328.10626L201.40945 328.10626L201.40945 334.45ZM200.23758 326.4344Q200.23758 326.16876 200.39383 325.98126Q200.5657 325.79376 200.8782 325.79376Q201.1907 325.79376 201.34695 325.98126Q201.51883 326.16876 201.51883 326.4344Q201.51883 326.6844 201.34695 326.8719Q201.1907 327.04376 200.8782 327.04376Q200.5657 327.04376 200.39383 326.8719Q200.23758 326.6844 200.23758 326.4344ZM202.97195 331.23126Q202.97195 329.7469 203.65945 328.8719Q204.34695 327.9969 205.47195 327.9969Q206.6282 327.9969 207.28445 328.8094L207.33133 328.10626L208.33133 328.10626L208.33133 334.29376Q208.33133 335.52814 207.59695 336.23126Q206.86258 336.95 205.64383 336.95Q204.95633 336.95 204.30008 336.65314Q203.64383 336.35626 203.30008 335.85626L203.86258 335.2Q204.55008 336.0594 205.5657 336.0594Q206.34695 336.0594 206.78445 335.60626Q207.23758 335.16876 207.23758 334.35626L207.23758 333.8094Q206.58133 334.575 205.45633 334.575Q204.34695 334.575 203.65945 333.6844Q202.97195 332.77814 202.97195 331.23126ZM204.0657 331.35626Q204.0657 332.41876 204.5032 333.04376Q204.9407 333.65314 205.73758 333.65314Q206.7532 333.65314 207.23758 332.71564L207.23758 329.825Q206.73758 328.91876 205.73758 328.91876Q204.95633 328.91876 204.5032 329.52814Q204.0657 330.1375 204.0657 331.35626ZM211.3157 328.8719Q212.03445 327.9969 213.1907 327.9969Q215.20633 327.9969 215.22195 330.2625L215.22195 334.45L214.1282 334.45L214.1282 330.2469Q214.1282 329.575 213.8157 329.2469Q213.51883 328.91876 212.86258 328.91876Q212.33133 328.91876 211.92508 329.2Q211.53445 329.48126 211.3157 329.9344L211.3157 334.45L210.23758 334.45L210.23758 325.45L211.3157 325.45L211.3157 328.8719Z" fill-rule="nonzero"/><path fill="#000000" d="M173.42508 347.7625Q173.42508 347.325 173.08133 347.09064Q172.7532 346.84064 171.92508 346.66876Q171.11258 346.4969 170.6282 346.2469Q170.14383 345.9969 169.90945 345.66876Q169.6907 345.325 169.6907 344.85626Q169.6907 344.075 170.34695 343.54376Q171.0032 342.9969 172.03445 342.9969Q173.11258 342.9969 173.76883 343.5594Q174.4407 344.10626 174.4407 344.96564L173.36258 344.96564Q173.36258 344.52814 172.97195 344.21564Q172.59695 343.8875 172.03445 343.8875Q171.4407 343.8875 171.09695 344.15314Q170.76883 344.40314 170.76883 344.8094Q170.76883 345.2 171.08133 345.40314Q171.39383 345.60626 172.20633 345.79376Q173.01883 345.96564 173.51883 346.21564Q174.01883 346.46564 174.2532 346.825Q174.5032 347.1844 174.5032 347.6844Q174.5032 348.54376 173.8157 349.0594Q173.14383 349.575 172.0657 349.575Q171.30008 349.575 170.70633 349.3094Q170.1282 349.02814 169.80008 348.54376Q169.47195 348.0594 169.47195 347.4969L170.55008 347.4969Q170.58133 348.04376 170.98758 348.3719Q171.39383 348.6844 172.0657 348.6844Q172.67508 348.6844 173.05008 348.4344Q173.42508 348.1844 173.42508 347.7625ZM178.26883 348.6844Q178.84695 348.6844 179.28445 348.34064Q179.72195 347.98126 179.76883 347.45L180.80008 347.45Q180.76883 347.9969 180.40945 348.4969Q180.0657 348.98126 179.48758 349.27814Q178.92508 349.575 178.26883 349.575Q176.97195 349.575 176.20633 348.71564Q175.45633 347.84064 175.45633 346.34064L175.45633 346.15314Q175.45633 345.23126 175.78445 344.5125Q176.1282 343.79376 176.7532 343.40314Q177.39383 342.9969 178.26883 342.9969Q179.33133 342.9969 180.03445 343.6375Q180.7532 344.2625 180.80008 345.29376L179.76883 345.29376Q179.72195 344.66876 179.30008 344.27814Q178.8782 343.8875 178.26883 343.8875Q177.4407 343.8875 176.98758 344.48126Q176.53445 345.075 176.53445 346.2L176.53445 346.40314Q176.53445 347.4969 176.98758 348.09064Q177.4407 348.6844 178.26883 348.6844ZM182.8157 343.8719Q183.53445 342.9969 184.6907 342.9969Q186.70633 342.9969 186.72195 345.2625L186.72195 349.45L185.6282 349.45L185.6282 345.2469Q185.6282 344.575 185.3157 344.2469Q185.01883 343.91876 184.36258 343.91876Q183.83133 343.91876 183.42508 344.2Q183.03445 344.48126 182.8157 344.9344L182.8157 349.45L181.73758 349.45L181.73758 340.45L182.8157 340.45L182.8157 343.8719ZM188.4407 346.21564Q188.4407 345.29376 188.80008 344.54376Q189.17508 343.79376 189.83133 343.40314Q190.48758 342.9969 191.3157 342.9969Q192.61258 342.9969 193.40945 343.8875Q194.22195 344.77814 194.22195 346.27814L194.22195 346.35626Q194.22195 347.27814 193.86258 348.0125Q193.5032 348.7469 192.84695 349.16876Q192.1907 349.575 191.33133 349.575Q190.05008 349.575 189.23758 348.6844Q188.4407 347.77814 188.4407 346.29376L188.4407 346.21564ZM189.53445 346.35626Q189.53445 347.40314 190.01883 348.04376Q190.51883 348.6844 191.33133 348.6844Q192.15945 348.6844 192.64383 348.04376Q193.1282 347.3875 193.1282 346.21564Q193.1282 345.1844 192.6282 344.54376Q192.14383 343.8875 191.3157 343.8875Q190.51883 343.8875 190.01883 344.52814Q189.53445 345.15314 189.53445 346.35626ZM195.4407 346.21564Q195.4407 345.29376 195.80008 344.54376Q196.17508 343.79376 196.83133 343.40314Q197.48758 342.9969 198.3157 342.9969Q199.61258 342.9969 200.40945 343.8875Q201.22195 344.77814 201.22195 346.27814L201.22195 346.35626Q201.22195 347.27814 200.86258 348.0125Q200.5032 348.7469 199.84695 349.16876Q199.1907 349.575 198.33133 349.575Q197.05008 349.575 196.23758 348.6844Q195.4407 347.77814 195.4407 346.29376L195.4407 346.21564ZM196.53445 346.35626Q196.53445 347.40314 197.01883 348.04376Q197.51883 348.6844 198.33133 348.6844Q199.15945 348.6844 199.64383 348.04376Q200.1282 347.3875 200.1282 346.21564Q200.1282 345.1844 199.6282 344.54376Q199.14383 343.8875 198.3157 343.8875Q197.51883 343.8875 197.01883 344.52814Q196.53445 345.15314 196.53445 346.35626ZM203.90945 349.45L202.83133 349.45L202.83133 340.45L203.90945 340.45L203.90945 349.45Z" fill-rule="nonzero"/><path fill="#000000" d="M245.78752 334.45L245.78752 325.91876L248.2094 325.91876Q249.31877 325.91876 250.16252 326.41876Q251.0219 326.90314 251.49065 327.8094Q251.9594 328.71564 251.9594 329.90314L251.9594 330.4344Q251.9594 331.65314 251.49065 332.5594Q251.03752 333.46564 250.16252 333.95Q249.30315 334.4344 248.16252 334.45L245.78752 334.45ZM246.91252 326.84064L246.91252 333.52814L248.10002 333.52814Q249.3969 333.52814 250.11565 332.73126Q250.85002 331.91876 250.85002 330.41876L250.85002 329.91876Q250.85002 328.46564 250.16252 327.66876Q249.49065 326.85626 248.22502 326.84064L246.91252 326.84064ZM253.3344 331.21564Q253.3344 330.29376 253.69377 329.54376Q254.06877 328.79376 254.72502 328.40314Q255.38127 327.9969 256.2094 327.9969Q257.5063 327.9969 258.30316 328.8875Q259.11566 329.77814 259.11566 331.27814L259.11566 331.35626Q259.11566 332.27814 258.7563 333.0125Q258.3969 333.7469 257.74066 334.16876Q257.0844 334.575 256.22504 334.575Q254.94377 334.575 254.13127 333.6844Q253.3344 332.77814 253.3344 331.29376L253.3344 331.21564ZM254.42815 331.35626Q254.42815 332.40314 254.91252 333.04376Q255.41252 333.6844 256.22504 333.6844Q257.05316 333.6844 257.53754 333.04376Q258.0219 332.3875 258.0219 331.21564Q258.0219 330.1844 257.5219 329.54376Q257.03754 328.8875 256.2094 328.8875Q255.41252 328.8875 254.91252 329.52814Q254.42815 330.15314 254.42815 331.35626ZM263.16254 333.6844Q263.74066 333.6844 264.17816 333.34064Q264.61566 332.98126 264.66254 332.45L265.6938 332.45Q265.66254 332.9969 265.30316 333.4969Q264.9594 333.98126 264.3813 334.27814Q263.8188 334.575 263.16254 334.575Q261.86566 334.575 261.10004 333.71564Q260.35004 332.84064 260.35004 331.34064L260.35004 331.15314Q260.35004 330.23126 260.67816 329.5125Q261.0219 328.79376 261.6469 328.40314Q262.28754 327.9969 263.16254 327.9969Q264.22504 327.9969 264.92816 328.6375Q265.6469 329.2625 265.6938 330.29376L264.66254 330.29376Q264.61566 329.66876 264.1938 329.27814Q263.7719 328.8875 263.16254 328.8875Q262.3344 328.8875 261.8813 329.48126Q261.42816 330.075 261.42816 331.2L261.42816 331.40314Q261.42816 332.4969 261.8813 333.09064Q262.3344 333.6844 263.16254 333.6844ZM268.10004 326.575L268.10004 328.10626L269.2719 328.10626L269.2719 328.95L268.10004 328.95L268.10004 332.8719Q268.10004 333.2625 268.2563 333.45Q268.41254 333.6375 268.78754 333.6375Q268.97504 333.6375 269.30316 333.575L269.30316 334.45Q268.8813 334.575 268.47504 334.575Q267.7563 334.575 267.3813 334.1375Q267.0063 333.6844 267.0063 332.8719L267.0063 328.95L265.85004 328.95L265.85004 328.10626L267.0063 328.10626L267.0063 326.575L268.10004 326.575ZM270.3344 331.21564Q270.3344 330.29376 270.6938 329.54376Q271.0688 328.79376 271.72504 328.40314Q272.3813 327.9969 273.2094 327.9969Q274.5063 327.9969 275.30316 328.8875Q276.11566 329.77814 276.11566 331.27814L276.11566 331.35626Q276.11566 332.27814 275.7563 333.0125Q275.3969 333.7469 274.74066 334.16876Q274.0844 334.575 273.22504 334.575Q271.9438 334.575 271.1313 333.6844Q270.3344 332.77814 270.3344 331.29376L270.3344 331.21564ZM271.42816 331.35626Q271.42816 332.40314 271.91254 333.04376Q272.41254 333.6844 273.22504 333.6844Q274.05316 333.6844 274.53754 333.04376Q275.0219 332.3875 275.0219 331.21564Q275.0219 330.1844 274.5219 329.54376Q274.03754 328.8875 273.2094 328.8875Q272.41254 328.8875 271.91254 329.52814Q271.42816 330.15314 271.42816 331.35626ZM280.6938 329.075Q280.4438 329.04376 280.16254 329.04376Q279.0844 329.04376 278.7094 329.95L278.7094 334.45L277.6313 334.45L277.6313 328.10626L278.67816 328.10626L278.6938 328.84064Q279.22504 327.9969 280.2094 327.9969Q280.5219 327.9969 280.6938 328.075L280.6938 329.075ZM285.53754 334.45Q285.4438 334.2625 285.3813 333.77814Q284.6313 334.575 283.5844 334.575Q282.6469 334.575 282.03754 334.04376Q281.4438 333.5125 281.4438 332.6844Q281.4438 331.7 282.1938 331.15314Q282.9438 330.60626 284.3188 330.60626L285.36566 330.60626L285.36566 330.10626Q285.36566 329.54376 285.0219 329.21564Q284.6938 328.8719 284.0219 328.8719Q283.4438 328.8719 283.05316 329.16876Q282.66254 329.45 282.66254 329.8719L281.5688 329.8719Q281.5688 329.3875 281.8969 328.95Q282.24066 328.5125 282.8188 328.2625Q283.3969 327.9969 284.0844 327.9969Q285.1938 327.9969 285.80316 328.54376Q286.42816 329.09064 286.4594 330.04376L286.4594 332.96564Q286.4594 333.84064 286.67816 334.35626L286.67816 334.45L285.53754 334.45ZM283.74066 333.6219Q284.2563 333.6219 284.7094 333.35626Q285.16254 333.09064 285.36566 332.66876L285.36566 331.3719L284.5219 331.3719Q282.5219 331.3719 282.5219 332.54376Q282.5219 333.04376 282.86566 333.34064Q283.2094 333.6219 283.74066 333.6219ZM290.10004 326.575L290.10004 328.10626L291.2719 328.10626L291.2719 328.95L290.10004 328.95L290.10004 332.8719Q290.10004 333.2625 290.2563 333.45Q290.41254 333.6375 290.78754 333.6375Q290.97504 333.6375 291.30316 333.575L291.30316 334.45Q290.8813 334.575 290.47504 334.575Q289.7563 334.575 289.3813 334.1375Q289.0063 333.6844 289.0063 332.8719L289.0063 328.95L287.85004 328.95L287.85004 328.10626L289.0063 328.10626L289.0063 326.575L290.10004 326.575ZM295.2563 334.575Q293.9594 334.575 293.1469 333.73126Q292.35004 332.8719 292.35004 331.45L292.35004 331.2625Q292.35004 330.3094 292.7094 329.575Q293.0688 328.825 293.7094 328.41876Q294.36566 327.9969 295.11566 327.9969Q296.35004 327.9969 297.03754 328.8094Q297.72504 329.6219 297.72504 331.1375L297.72504 331.59064L293.42816 331.59064Q293.4594 332.52814 293.97504 333.10626Q294.5063 333.6844 295.3188 333.6844Q295.8813 333.6844 296.2719 333.45Q296.67816 333.21564 296.99066 332.825L297.6469 333.34064Q296.85004 334.575 295.2563 334.575ZM295.11566 328.8875Q294.4594 328.8875 294.0063 329.3719Q293.5688 329.84064 293.47504 330.7L296.6469 330.7L296.6469 330.6219Q296.60004 329.79376 296.1938 329.34064Q295.80316 328.8875 295.11566 328.8875Z" fill-rule="nonzero"/><path fill="#000000" d="M253.86565 346.23126Q253.86565 344.7625 254.55315 343.8875Q255.24065 342.9969 256.36566 342.9969Q257.47504 342.9969 258.1313 343.7469L258.1313 340.45L259.2094 340.45L259.2094 349.45L258.2094 349.45L258.16254 348.7625Q257.5063 349.575 256.35004 349.575Q255.25627 349.575 254.55315 348.66876Q253.86565 347.7625 253.86565 346.3094L253.86565 346.23126ZM254.94377 346.35626Q254.94377 347.4344 255.38127 348.04376Q255.8344 348.65314 256.61566 348.65314Q257.6469 348.65314 258.1313 347.71564L258.1313 344.8094Q257.6469 343.91876 256.6313 343.91876Q255.8344 343.91876 255.38127 344.52814Q254.94377 345.1375 254.94377 346.35626ZM263.7563 349.575Q262.4594 349.575 261.6469 348.73126Q260.85004 347.8719 260.85004 346.45L260.85004 346.2625Q260.85004 345.3094 261.2094 344.575Q261.5688 343.825 262.2094 343.41876Q262.86566 342.9969 263.61566 342.9969Q264.85004 342.9969 265.53754 343.8094Q266.22504 344.6219 266.22504 346.1375L266.22504 346.59064L261.92816 346.59064Q261.9594 347.52814 262.47504 348.10626Q263.0063 348.6844 263.8188 348.6844Q264.3813 348.6844 264.7719 348.45Q265.17816 348.21564 265.49066 347.825L266.1469 348.34064Q265.35004 349.575 263.7563 349.575ZM263.61566 343.8875Q262.9594 343.8875 262.5063 344.3719Q262.0688 344.84064 261.97504 345.7L265.1469 345.7L265.1469 345.6219Q265.10004 344.79376 264.6938 344.34064Q264.30316 343.8875 263.61566 343.8875ZM266.86566 346.23126Q266.86566 344.7469 267.55316 343.8719Q268.24066 342.9969 269.36566 342.9969Q270.5219 342.9969 271.17816 343.8094L271.22504 343.10626L272.22504 343.10626L272.22504 349.29376Q272.22504 350.52814 271.49066 351.23126Q270.7563 351.95 269.53754 351.95Q268.85004 351.95 268.1938 351.65314Q267.53754 351.35626 267.1938 350.85626L267.7563 350.2Q268.4438 351.0594 269.4594 351.0594Q270.24066 351.0594 270.67816 350.60626Q271.1313 350.16876 271.1313 349.35626L271.1313 348.8094Q270.47504 349.575 269.35004 349.575Q268.24066 349.575 267.55316 348.6844Q266.86566 347.77814 266.86566 346.23126ZM267.9594 346.35626Q267.9594 347.41876 268.3969 348.04376Q268.8344 348.65314 269.6313 348.65314Q270.6469 348.65314 271.1313 347.71564L271.1313 344.825Q270.6313 343.91876 269.6313 343.91876Q268.85004 343.91876 268.3969 344.52814Q267.9594 345.1375 267.9594 346.35626ZM277.1938 344.075Q276.9438 344.04376 276.66254 344.04376Q275.5844 344.04376 275.2094 344.95L275.2094 349.45L274.1313 349.45L274.1313 343.10626L275.17816 343.10626L275.1938 343.84064Q275.72504 342.9969 276.7094 342.9969Q277.0219 342.9969 277.1938 343.075L277.1938 344.075ZM280.7563 349.575Q279.4594 349.575 278.6469 348.73126Q277.85004 347.8719 277.85004 346.45L277.85004 346.2625Q277.85004 345.3094 278.2094 344.575Q278.5688 343.825 279.2094 343.41876Q279.86566 342.9969 280.61566 342.9969Q281.85004 342.9969 282.53754 343.8094Q283.22504 344.6219 283.22504 346.1375L283.22504 346.59064L278.92816 346.59064Q278.9594 347.52814 279.47504 348.10626Q280.0063 348.6844 280.8188 348.6844Q281.3813 348.6844 281.7719 348.45Q282.17816 348.21564 282.49066 347.825L283.1469 348.34064Q282.35004 349.575 280.7563 349.575ZM280.61566 343.8875Q279.9594 343.8875 279.5063 344.3719Q279.0688 344.84064 278.97504 345.7L282.1469 345.7L282.1469 345.6219Q282.10004 344.79376 281.6938 344.34064Q281.30316 343.8875 280.61566 343.8875ZM286.7563 349.575Q285.4594 349.575 284.6469 348.73126Q283.85004 347.8719 283.85004 346.45L283.85004 346.2625Q283.85004 345.3094 284.2094 344.575Q284.5688 343.825 285.2094 343.41876Q285.86566 342.9969 286.61566 342.9969Q287.85004 342.9969 288.53754 343.8094Q289.22504 344.6219 289.22504 346.1375L289.22504 346.59064L284.92816 346.59064Q284.9594 347.52814 285.47504 348.10626Q286.0063 348.6844 286.8188 348.6844Q287.3813 348.6844 287.7719 348.45Q288.17816 348.21564 288.49066 347.825L289.1469 348.34064Q288.35004 349.575 286.7563 349.575ZM286.61566 343.8875Q285.9594 343.8875 285.5063 344.3719Q285.0688 344.84064 284.97504 345.7L288.1469 345.7L288.1469 345.6219Q288.10004 344.79376 287.6938 344.34064Q287.30316 343.8875 286.61566 343.8875Z" fill-rule="nonzero"/><path fill="#000000" d="M330.7437 334.45L329.6187 334.45L329.6187 330.5125L325.3062 330.5125L325.3062 334.45L324.1812 334.45L324.1812 325.91876L325.3062 325.91876L325.3062 329.59064L329.6187 329.59064L329.6187 325.91876L330.7437 325.91876L330.7437 334.45ZM334.19684 334.45L333.1187 334.45L333.1187 328.10626L334.19684 328.10626L334.19684 334.45ZM333.02496 326.4344Q333.02496 326.16876 333.1812 325.98126Q333.3531 325.79376 333.6656 325.79376Q333.9781 325.79376 334.13434 325.98126Q334.3062 326.16876 334.3062 326.4344Q334.3062 326.6844 334.13434 326.8719Q333.9781 327.04376 333.6656 327.04376Q333.3531 327.04376 333.1812 326.8719Q333.02496 326.6844 333.02496 326.4344ZM335.75934 331.23126Q335.75934 329.7469 336.44684 328.8719Q337.13434 327.9969 338.25934 327.9969Q339.4156 327.9969 340.07184 328.8094L340.1187 328.10626L341.1187 328.10626L341.1187 334.29376Q341.1187 335.52814 340.38434 336.23126Q339.64996 336.95 338.4312 336.95Q337.7437 336.95 337.08746 336.65314Q336.4312 336.35626 336.08746 335.85626L336.64996 335.2Q337.33746 336.0594 338.3531 336.0594Q339.13434 336.0594 339.57184 335.60626Q340.02496 335.16876 340.02496 334.35626L340.02496 333.8094Q339.3687 334.575 338.2437 334.575Q337.13434 334.575 336.44684 333.6844Q335.75934 332.77814 335.75934 331.23126ZM336.8531 331.35626Q336.8531 332.41876 337.2906 333.04376Q337.7281 333.65314 338.52496 333.65314Q339.5406 333.65314 340.02496 332.71564L340.02496 329.825Q339.52496 328.91876 338.52496 328.91876Q337.7437 328.91876 337.2906 329.52814Q336.8531 330.1375 336.8531 331.35626ZM344.1031 328.8719Q344.82184 327.9969 345.9781 327.9969Q347.9937 327.9969 348.00934 330.2625L348.00934 334.45L346.9156 334.45L346.9156 330.2469Q346.9156 329.575 346.6031 329.2469Q346.3062 328.91876 345.64996 328.91876Q345.1187 328.91876 344.71246 329.2Q344.32184 329.48126 344.1031 329.9344L344.1031 334.45L343.02496 334.45L343.02496 325.45L344.1031 325.45L344.1031 328.8719ZM356.71246 332.7625Q356.71246 332.325 356.3687 332.09064Q356.0406 331.84064 355.21246 331.66876Q354.39996 331.4969 353.9156 331.2469Q353.4312 330.9969 353.19684 330.66876Q352.9781 330.325 352.9781 329.85626Q352.9781 329.075 353.63434 328.54376Q354.2906 327.9969 355.32184 327.9969Q356.39996 327.9969 357.0562 328.5594Q357.7281 329.10626 357.7281 329.96564L356.64996 329.96564Q356.64996 329.52814 356.25934 329.21564Q355.88434 328.8875 355.32184 328.8875Q354.7281 328.8875 354.38434 329.15314Q354.0562 329.40314 354.0562 329.8094Q354.0562 330.2 354.3687 330.40314Q354.6812 330.60626 355.4937 330.79376Q356.3062 330.96564 356.8062 331.21564Q357.3062 331.46564 357.5406 331.825Q357.7906 332.1844 357.7906 332.6844Q357.7906 333.54376 357.1031 334.0594Q356.4312 334.575 355.3531 334.575Q354.58746 334.575 353.9937 334.3094Q353.4156 334.02814 353.08746 333.54376Q352.75934 333.0594 352.75934 332.4969L353.83746 332.4969Q353.8687 333.04376 354.27496 333.3719Q354.6812 333.6844 355.3531 333.6844Q355.96246 333.6844 356.33746 333.4344Q356.71246 333.1844 356.71246 332.7625ZM361.5562 333.6844Q362.13434 333.6844 362.57184 333.34064Q363.00934 332.98126 363.0562 332.45L364.08746 332.45Q364.0562 332.9969 363.69684 333.4969Q363.3531 333.98126 362.77496 334.27814Q362.21246 334.575 361.5562 334.575Q360.25934 334.575 359.4937 333.71564Q358.7437 332.84064 358.7437 331.34064L358.7437 331.15314Q358.7437 330.23126 359.07184 329.5125Q359.4156 328.79376 360.0406 328.40314Q360.6812 327.9969 361.5562 327.9969Q362.6187 327.9969 363.32184 328.6375Q364.0406 329.2625 364.08746 330.29376L363.0562 330.29376Q363.00934 329.66876 362.58746 329.27814Q362.1656 328.8875 361.5562 328.8875Q360.7281 328.8875 360.27496 329.48126Q359.82184 330.075 359.82184 331.2L359.82184 331.40314Q359.82184 332.4969 360.27496 333.09064Q360.7281 333.6844 361.5562 333.6844ZM366.1031 328.8719Q366.82184 327.9969 367.9781 327.9969Q369.9937 327.9969 370.00934 330.2625L370.00934 334.45L368.9156 334.45L368.9156 330.2469Q368.9156 329.575 368.6031 329.2469Q368.3062 328.91876 367.64996 328.91876Q367.1187 328.91876 366.71246 329.2Q366.32184 329.48126 366.1031 329.9344L366.1031 334.45L365.02496 334.45L365.02496 325.45L366.1031 325.45L366.1031 328.8719ZM371.7281 331.21564Q371.7281 330.29376 372.08746 329.54376Q372.46246 328.79376 373.1187 328.40314Q373.77496 327.9969 374.6031 327.9969Q375.89996 327.9969 376.69684 328.8875Q377.50934 329.77814 377.50934 331.27814L377.50934 331.35626Q377.50934 332.27814 377.14996 333.0125Q376.7906 333.7469 376.13434 334.16876Q375.4781 334.575 374.6187 334.575Q373.33746 334.575 372.52496 333.6844Q371.7281 332.77814 371.7281 331.29376L371.7281 331.21564ZM372.82184 331.35626Q372.82184 332.40314 373.3062 333.04376Q373.8062 333.6844 374.6187 333.6844Q375.44684 333.6844 375.9312 333.04376Q376.4156 332.3875 376.4156 331.21564Q376.4156 330.1844 375.9156 329.54376Q375.4312 328.8875 374.6031 328.8875Q373.8062 328.8875 373.3062 329.52814Q372.82184 330.15314 372.82184 331.35626ZM378.7281 331.21564Q378.7281 330.29376 379.08746 329.54376Q379.46246 328.79376 380.1187 328.40314Q380.77496 327.9969 381.6031 327.9969Q382.89996 327.9969 383.69684 328.8875Q384.50934 329.77814 384.50934 331.27814L384.50934 331.35626Q384.50934 332.27814 384.14996 333.0125Q383.7906 333.7469 383.13434 334.16876Q382.4781 334.575 381.6187 334.575Q380.33746 334.575 379.52496 333.6844Q378.7281 332.77814 378.7281 331.29376L378.7281 331.21564ZM379.82184 331.35626Q379.82184 332.40314 380.3062 333.04376Q380.8062 333.6844 381.6187 333.6844Q382.44684 333.6844 382.9312 333.04376Q383.4156 332.3875 383.4156 331.21564Q383.4156 330.1844 382.9156 329.54376Q382.4312 328.8875 381.6031 328.8875Q380.8062 328.8875 380.3062 329.52814Q379.82184 330.15314 379.82184 331.35626ZM387.19684 334.45L386.1187 334.45L386.1187 325.45L387.19684 325.45L387.19684 334.45Z" fill-rule="nonzero"/><path fill="#000000" d="M420.02805 325.91876L422.82492 332.8719L425.60617 325.91876L427.07492 325.91876L427.07492 334.45L425.94992 334.45L425.94992 331.1219L426.0593 327.54376L423.2468 334.45L422.38742 334.45L419.59055 327.5594L419.69992 331.1219L419.69992 334.45L418.57492 334.45L418.57492 325.91876L420.02805 325.91876ZM432.32492 334.45Q432.23117 334.2625 432.16867 333.77814Q431.41867 334.575 430.3718 334.575Q429.4343 334.575 428.82492 334.04376Q428.23117 333.5125 428.23117 332.6844Q428.23117 331.7 428.98117 331.15314Q429.73117 330.60626 431.10617 330.60626L432.15305 330.60626L432.15305 330.10626Q432.15305 329.54376 431.8093 329.21564Q431.48117 328.8719 430.8093 328.8719Q430.23117 328.8719 429.84055 329.16876Q429.44992 329.45 429.44992 329.8719L428.35617 329.8719Q428.35617 329.3875 428.6843 328.95Q429.02805 328.5125 429.60617 328.2625Q430.1843 327.9969 430.8718 327.9969Q431.98117 327.9969 432.59055 328.54376Q433.21555 329.09064 433.2468 330.04376L433.2468 332.96564Q433.2468 333.84064 433.46555 334.35626L433.46555 334.45L432.32492 334.45ZM430.52805 333.6219Q431.04367 333.6219 431.4968 333.35626Q431.94992 333.09064 432.15305 332.66876L432.15305 331.3719L431.3093 331.3719Q429.3093 331.3719 429.3093 332.54376Q429.3093 333.04376 429.65305 333.34064Q429.9968 333.6219 430.52805 333.6219ZM439.10617 332.7625Q439.10617 332.325 438.76242 332.09064Q438.4343 331.84064 437.60617 331.66876Q436.79367 331.4969 436.3093 331.2469Q435.82492 330.9969 435.59055 330.66876Q435.3718 330.325 435.3718 329.85626Q435.3718 329.075 436.02805 328.54376Q436.6843 327.9969 437.71555 327.9969Q438.79367 327.9969 439.44992 328.5594Q440.1218 329.10626 440.1218 329.96564L439.04367 329.96564Q439.04367 329.52814 438.65305 329.21564Q438.27805 328.8875 437.71555 328.8875Q437.1218 328.8875 436.77805 329.15314Q436.44992 329.40314 436.44992 329.8094Q436.44992 330.2 436.76242 330.40314Q437.07492 330.60626 437.88742 330.79376Q438.69992 330.96564 439.19992 331.21564Q439.69992 331.46564 439.9343 331.825Q440.1843 332.1844 440.1843 332.6844Q440.1843 333.54376 439.4968 334.0594Q438.82492 334.575 437.7468 334.575Q436.98117 334.575 436.38742 334.3094Q435.8093 334.02814 435.48117 333.54376Q435.15305 333.0594 435.15305 332.4969L436.23117 332.4969Q436.26242 333.04376 436.66867 333.3719Q437.07492 333.6844 437.7468 333.6844Q438.35617 333.6844 438.73117 333.4344Q439.10617 333.1844 439.10617 332.7625ZM442.88742 326.575L442.88742 328.10626L444.0593 328.10626L444.0593 328.95L442.88742 328.95L442.88742 332.8719Q442.88742 333.2625 443.04367 333.45Q443.19992 333.6375 443.57492 333.6375Q443.76242 333.6375 444.09055 333.575L444.09055 334.45Q443.66867 334.575 443.26242 334.575Q442.54367 334.575 442.16867 334.1375Q441.79367 333.6844 441.79367 332.8719L441.79367 328.95L440.63742 328.95L440.63742 328.10626L441.79367 328.10626L441.79367 326.575L442.88742 326.575ZM448.04367 334.575Q446.7468 334.575 445.9343 333.73126Q445.13742 332.8719 445.13742 331.45L445.13742 331.2625Q445.13742 330.3094 445.4968 329.575Q445.85617 328.825 446.4968 328.41876Q447.15305 327.9969 447.90305 327.9969Q449.13742 327.9969 449.82492 328.8094Q450.51242 329.6219 450.51242 331.1375L450.51242 331.59064L446.21555 331.59064Q446.2468 332.52814 446.76242 333.10626Q447.29367 333.6844 448.10617 333.6844Q448.66867 333.6844 449.0593 333.45Q449.46555 333.21564 449.77805 332.825L450.4343 333.34064Q449.63742 334.575 448.04367 334.575ZM447.90305 328.8875Q447.2468 328.8875 446.79367 329.3719Q446.35617 329.84064 446.26242 330.7L449.4343 330.7L449.4343 330.6219Q449.38742 329.79376 448.98117 329.34064Q448.59055 328.8875 447.90305 328.8875ZM454.48117 329.075Q454.23117 329.04376 453.94992 329.04376Q452.8718 329.04376 452.4968 329.95L452.4968 334.45L451.41867 334.45L451.41867 328.10626L452.46555 328.10626L452.48117 328.84064Q453.01242 327.9969 453.9968 327.9969Q454.3093 327.9969 454.48117 328.075L454.48117 329.075ZM456.07492 326.10626L455.94992 328.2625L455.19992 328.2625L455.19992 325.45L456.07492 325.45L456.07492 326.10626ZM461.10617 332.7625Q461.10617 332.325 460.76242 332.09064Q460.4343 331.84064 459.60617 331.66876Q458.79367 331.4969 458.3093 331.2469Q457.82492 330.9969 457.59055 330.66876Q457.3718 330.325 457.3718 329.85626Q457.3718 329.075 458.02805 328.54376Q458.6843 327.9969 459.71555 327.9969Q460.79367 327.9969 461.44992 328.5594Q462.1218 329.10626 462.1218 329.96564L461.04367 329.96564Q461.04367 329.52814 460.65305 329.21564Q460.27805 328.8875 459.71555 328.8875Q459.1218 328.8875 458.77805 329.15314Q458.44992 329.40314 458.44992 329.8094Q458.44992 330.2 458.76242 330.40314Q459.07492 330.60626 459.88742 330.79376Q460.69992 330.96564 461.19992 331.21564Q461.69992 331.46564 461.9343 331.825Q462.1843 332.1844 462.1843 332.6844Q462.1843 333.54376 461.4968 334.0594Q460.82492 334.575 459.7468 334.575Q458.98117 334.575 458.38742 334.3094Q457.8093 334.02814 457.48117 333.54376Q457.15305 333.0594 457.15305 332.4969L458.23117 332.4969Q458.26242 333.04376 458.66867 333.3719Q459.07492 333.6844 459.7468 333.6844Q460.35617 333.6844 460.73117 333.4344Q461.10617 333.1844 461.10617 332.7625Z" fill-rule="nonzero"/><path fill="#000000" d="M422.65305 346.23126Q422.65305 344.7625 423.34055 343.8875Q424.02805 342.9969 425.15305 342.9969Q426.26242 342.9969 426.91867 343.7469L426.91867 340.45L427.9968 340.45L427.9968 349.45L426.9968 349.45L426.94992 348.7625Q426.29367 349.575 425.13742 349.575Q424.04367 349.575 423.34055 348.66876Q422.65305 347.7625 422.65305 346.3094L422.65305 346.23126ZM423.73117 346.35626Q423.73117 347.4344 424.16867 348.04376Q424.6218 348.65314 425.40305 348.65314Q426.4343 348.65314 426.91867 347.71564L426.91867 344.8094Q426.4343 343.91876 425.41867 343.91876Q424.6218 343.91876 424.16867 344.52814Q423.73117 345.1375 423.73117 346.35626ZM432.54367 349.575Q431.2468 349.575 430.4343 348.73126Q429.63742 347.8719 429.63742 346.45L429.63742 346.2625Q429.63742 345.3094 429.9968 344.575Q430.35617 343.825 430.9968 343.41876Q431.65305 342.9969 432.40305 342.9969Q433.63742 342.9969 434.32492 343.8094Q435.01242 344.6219 435.01242 346.1375L435.01242 346.59064L430.71555 346.59064Q430.7468 347.52814 431.26242 348.10626Q431.79367 348.6844 432.60617 348.6844Q433.16867 348.6844 433.5593 348.45Q433.96555 348.21564 434.27805 347.825L434.9343 348.34064Q434.13742 349.575 432.54367 349.575ZM432.40305 343.8875Q431.7468 343.8875 431.29367 344.3719Q430.85617 344.84064 430.76242 345.7L433.9343 345.7L433.9343 345.6219Q433.88742 344.79376 433.48117 344.34064Q433.09055 343.8875 432.40305 343.8875ZM435.65305 346.23126Q435.65305 344.7469 436.34055 343.8719Q437.02805 342.9969 438.15305 342.9969Q439.3093 342.9969 439.96555 343.8094L440.01242 343.10626L441.01242 343.10626L441.01242 349.29376Q441.01242 350.52814 440.27805 351.23126Q439.54367 351.95 438.32492 351.95Q437.63742 351.95 436.98117 351.65314Q436.32492 351.35626 435.98117 350.85626L436.54367 350.2Q437.23117 351.0594 438.2468 351.0594Q439.02805 351.0594 439.46555 350.60626Q439.91867 350.16876 439.91867 349.35626L439.91867 348.8094Q439.26242 349.575 438.13742 349.575Q437.02805 349.575 436.34055 348.6844Q435.65305 347.77814 435.65305 346.23126ZM436.7468 346.35626Q436.7468 347.41876 437.1843 348.04376Q437.6218 348.65314 438.41867 348.65314Q439.4343 348.65314 439.91867 347.71564L439.91867 344.825Q439.41867 343.91876 438.41867 343.91876Q437.63742 343.91876 437.1843 344.52814Q436.7468 345.1375 436.7468 346.35626ZM445.98117 344.075Q445.73117 344.04376 445.44992 344.04376Q444.3718 344.04376 443.9968 344.95L443.9968 349.45L442.91867 349.45L442.91867 343.10626L443.96555 343.10626L443.98117 343.84064Q444.51242 342.9969 445.4968 342.9969Q445.8093 342.9969 445.98117 343.075L445.98117 344.075ZM449.54367 349.575Q448.2468 349.575 447.4343 348.73126Q446.63742 347.8719 446.63742 346.45L446.63742 346.2625Q446.63742 345.3094 446.9968 344.575Q447.35617 343.825 447.9968 343.41876Q448.65305 342.9969 449.40305 342.9969Q450.63742 342.9969 451.32492 343.8094Q452.01242 344.6219 452.01242 346.1375L452.01242 346.59064L447.71555 346.59064Q447.7468 347.52814 448.26242 348.10626Q448.79367 348.6844 449.60617 348.6844Q450.16867 348.6844 450.5593 348.45Q450.96555 348.21564 451.27805 347.825L451.9343 348.34064Q451.13742 349.575 449.54367 349.575ZM449.40305 343.8875Q448.7468 343.8875 448.29367 344.3719Q447.85617 344.84064 447.76242 345.7L450.9343 345.7L450.9343 345.6219Q450.88742 344.79376 450.48117 344.34064Q450.09055 343.8875 449.40305 343.8875ZM455.54367 349.575Q454.2468 349.575 453.4343 348.73126Q452.63742 347.8719 452.63742 346.45L452.63742 346.2625Q452.63742 345.3094 452.9968 344.575Q453.35617 343.825 453.9968 343.41876Q454.65305 342.9969 455.40305 342.9969Q456.63742 342.9969 457.32492 343.8094Q458.01242 344.6219 458.01242 346.1375L458.01242 346.59064L453.71555 346.59064Q453.7468 347.52814 454.26242 348.10626Q454.79367 348.6844 455.60617 348.6844Q456.16867 348.6844 456.5593 348.45Q456.96555 348.21564 457.27805 347.825L457.9343 348.34064Q457.13742 349.575 455.54367 349.575ZM455.40305 343.8875Q454.7468 343.8875 454.29367 344.3719Q453.85617 344.84064 453.76242 345.7L456.9343 345.7L456.9343 345.6219Q456.88742 344.79376 456.48117 344.34064Q456.09055 343.8875 455.40305 343.8875Z" fill-rule="nonzero"/><path fill="#000000" d="M517.5311 330.46564Q517.5311 331.71564 517.10925 332.65314Q516.6874 333.575 515.9061 334.075Q515.1405 334.575 514.10925 334.575Q513.10925 334.575 512.328 334.075Q511.54675 333.575 511.10925 332.66876Q510.68738 331.7469 510.67175 330.52814L510.67175 329.91876Q510.67175 328.6844 511.09363 327.7469Q511.53113 326.8094 512.3124 326.3094Q513.0936 325.79376 514.10925 325.79376Q515.1249 325.79376 515.9061 326.29376Q516.6874 326.79376 517.10925 327.73126Q517.5311 328.66876 517.5311 329.91876L517.5311 330.46564ZM516.42175 329.90314Q516.42175 328.3875 515.8124 327.575Q515.203 326.7625 514.10925 326.7625Q513.0311 326.7625 512.42175 327.575Q511.81238 328.3875 511.79675 329.825L511.79675 330.46564Q511.79675 331.9344 512.4061 332.77814Q513.0311 333.60626 514.10925 333.60626Q515.203 333.60626 515.79675 332.825Q516.4061 332.02814 516.42175 330.54376L516.42175 329.90314ZM520.2811 326.575L520.2811 328.10626L521.453 328.10626L521.453 328.95L520.2811 328.95L520.2811 332.8719Q520.2811 333.2625 520.4374 333.45Q520.5936 333.6375 520.9686 333.6375Q521.1561 333.6375 521.48425 333.575L521.48425 334.45Q521.0624 334.575 520.6561 334.575Q519.9374 334.575 519.5624 334.1375Q519.1874 333.6844 519.1874 332.8719L519.1874 328.95L518.0311 328.95L518.0311 328.10626L519.1874 328.10626L519.1874 326.575L520.2811 326.575ZM523.8905 328.8719Q524.60925 327.9969 525.7655 327.9969Q527.7811 327.9969 527.79675 330.2625L527.79675 334.45L526.703 334.45L526.703 330.2469Q526.703 329.575 526.3905 329.2469Q526.0936 328.91876 525.4374 328.91876Q524.9061 328.91876 524.4999 329.2Q524.10925 329.48126 523.8905 329.9344L523.8905 334.45L522.8124 334.45L522.8124 325.45L523.8905 325.45L523.8905 328.8719ZM532.4374 334.575Q531.1405 334.575 530.328 333.73126Q529.5311 332.8719 529.5311 331.45L529.5311 331.2625Q529.5311 330.3094 529.8905 329.575Q530.2499 328.825 530.8905 328.41876Q531.54675 327.9969 532.29675 327.9969Q533.5311 327.9969 534.2186 328.8094Q534.9061 329.6219 534.9061 331.1375L534.9061 331.59064L530.60925 331.59064Q530.6405 332.52814 531.1561 333.10626Q531.6874 333.6844 532.4999 333.6844Q533.0624 333.6844 533.453 333.45Q533.85925 333.21564 534.17175 332.825L534.828 333.34064Q534.0311 334.575 532.4374 334.575ZM532.29675 328.8875Q531.6405 328.8875 531.1874 329.3719Q530.7499 329.84064 530.6561 330.7L533.828 330.7L533.828 330.6219Q533.7811 329.79376 533.3749 329.34064Q532.98425 328.8875 532.29675 328.8875ZM538.8749 329.075Q538.6249 329.04376 538.3436 329.04376Q537.2655 329.04376 536.8905 329.95L536.8905 334.45L535.8124 334.45L535.8124 328.10626L536.85925 328.10626L536.8749 328.84064Q537.4061 327.9969 538.3905 327.9969Q538.703 327.9969 538.8749 328.075L538.8749 329.075Z" fill-rule="nonzero"/><path fill="#b6d7a8" d="M202.5 57.416668C202.5 56.864384 202.94771 56.416668 203.5 56.416668L213.5 56.416668C214.05229 56.416668 214.5 56.864384 214.5 57.416668L214.5 67.416664C214.5 67.96895 214.05229 68.416664 213.5 68.416664L203.5 68.416664C202.94771 68.416664 202.5 67.96895 202.5 67.416664Z" fill-rule="nonzero"/><path fill="#000000" d="M229.79688 65.791664Q229.35938 66.416664 228.57812 66.729164Q227.79688 67.041664 226.76562 67.041664Q225.73438 67.041664 224.92188 66.55729Q224.10938 66.05729 223.67188 65.15104Q223.23438 64.24479 223.21875 63.05729L223.21875 62.322914Q223.21875 60.385414 224.10938 59.322914Q225.01562 58.260414 226.64062 58.260414Q227.98438 58.260414 228.79688 58.947914Q229.60938 59.635414 229.79688 60.885414L228.67188 60.885414Q228.34375 59.197914 226.65625 59.197914Q225.51562 59.197914 224.9375 59.99479Q224.35938 60.77604 224.34375 62.291664L224.34375 62.979164Q224.34375 64.416664 225.0 65.27604Q225.65625 66.11979 226.78125 66.11979Q227.40625 66.11979 227.875 65.979164Q228.35938 65.83854 228.67188 65.49479L228.67188 63.58854L226.70312 63.58854L226.70312 62.666664L229.79688 62.666664L229.79688 65.791664ZM232.5 66.916664L231.42188 66.916664L231.42188 57.916664L232.5 57.916664L232.5 66.916664ZM234.03125 63.68229Q234.03125 62.760414 234.39062 62.010414Q234.76562 61.260414 235.42188 60.86979Q236.07812 60.46354 236.90625 60.46354Q238.20312 60.46354 239.0 61.354164Q239.8125 62.24479 239.8125 63.74479L239.8125 63.822914Q239.8125 64.74479 239.45312 65.479164Q239.09375 66.21354 238.4375 66.635414Q237.78125 67.041664 236.92188 67.041664Q235.64062 67.041664 234.82812 66.15104Q234.03125 65.24479 234.03125 63.760414L234.03125 63.68229ZM235.125 63.822914Q235.125 64.86979 235.60938 65.510414Q236.10938 66.15104 236.92188 66.15104Q237.75 66.15104 238.23438 65.510414Q238.71875 64.854164 238.71875 63.68229Q238.71875 62.65104 238.21875 62.010414Q237.73438 61.354164 236.90625 61.354164Q236.10938 61.354164 235.60938 61.99479Q235.125 62.61979 235.125 63.822914ZM246.6875 63.822914Q246.6875 65.27604 246.01562 66.166664Q245.35938 67.041664 244.23438 67.041664Q243.03125 67.041664 242.375 66.18229L242.3125 66.916664L241.32812 66.916664L241.32812 57.916664L242.40625 57.916664L242.40625 61.27604Q243.0625 60.46354 244.21875 60.46354Q245.375 60.46354 246.03125 61.33854Q246.6875 62.197914 246.6875 63.729164L246.6875 63.822914ZM245.60938 63.697914Q245.60938 62.58854 245.17188 61.99479Q244.75 61.385414 243.95312 61.385414Q242.875 61.385414 242.40625 62.36979L242.40625 65.11979Q242.90625 66.11979 243.95312 66.11979Q244.73438 66.11979 245.17188 65.510414Q245.60938 64.90104 245.60938 63.697914ZM252.23438 66.916664Q252.14062 66.729164 252.07812 66.24479Q251.32812 67.041664 250.28125 67.041664Q249.34375 67.041664 248.73438 66.510414Q248.14062 65.979164 248.14062 65.15104Q248.14062 64.166664 248.89062 63.61979Q249.64062 63.072914 251.01562 63.072914L252.0625 63.072914L252.0625 62.572914Q252.0625 62.010414 251.71875 61.68229Q251.39062 61.33854 250.71875 61.33854Q250.14062 61.33854 249.75 61.635414Q249.35938 61.916664 249.35938 62.33854L248.26562 62.33854Q248.26562 61.854164 248.59375 61.416664Q248.9375 60.979164 249.51562 60.729164Q250.09375 60.46354 250.78125 60.46354Q251.89062 60.46354 252.5 61.010414Q253.125 61.55729 253.15625 62.510414L253.15625 65.43229Q253.15625 66.30729 253.375 66.822914L253.375 66.916664L252.23438 66.916664ZM250.4375 66.08854Q250.95312 66.08854 251.40625 65.822914Q251.85938 65.55729 252.0625 65.135414L252.0625 63.83854L251.21875 63.83854Q249.21875 63.83854 249.21875 65.010414Q249.21875 65.510414 249.5625 65.80729Q249.90625 66.08854 250.4375 66.08854ZM256.5 66.916664L255.42188 66.916664L255.42188 57.916664L256.5 57.916664L256.5 66.916664ZM268.04688 66.916664L266.92188 66.916664L262.625 60.33854L262.625 66.916664L261.48438 66.916664L261.48438 58.385414L262.625 58.385414L266.92188 64.99479L266.92188 58.385414L268.04688 58.385414L268.04688 66.916664ZM270.03125 63.68229Q270.03125 62.760414 270.39062 62.010414Q270.76562 61.260414 271.42188 60.86979Q272.07812 60.46354 272.90625 60.46354Q274.20312 60.46354 275.0 61.354164Q275.8125 62.24479 275.8125 63.74479L275.8125 63.822914Q275.8125 64.74479 275.45312 65.479164Q275.09375 66.21354 274.4375 66.635414Q273.78125 67.041664 272.92188 67.041664Q271.64062 67.041664 270.82812 66.15104Q270.03125 65.24479 270.03125 63.760414L270.03125 63.68229ZM271.125 63.822914Q271.125 64.86979 271.60938 65.510414Q272.10938 66.15104 272.92188 66.15104Q273.75 66.15104 274.23438 65.510414Q274.71875 64.854164 274.71875 63.68229Q274.71875 62.65104 274.21875 62.010414Q273.73438 61.354164 272.90625 61.354164Q272.10938 61.354164 271.60938 61.99479Q271.125 62.61979 271.125 63.822914ZM280.39062 61.541664Q280.14062 61.510414 279.85938 61.510414Q278.78125 61.510414 278.40625 62.416664L278.40625 66.916664L277.32812 66.916664L277.32812 60.572914L278.375 60.572914L278.39062 61.30729Q278.92188 60.46354 279.90625 60.46354Q280.21875 60.46354 280.39062 60.541664L280.39062 61.541664ZM282.79688 59.041664L282.79688 60.572914L283.96875 60.572914L283.96875 61.416664L282.79688 61.416664L282.79688 65.33854Q282.79688 65.729164 282.95312 65.916664Q283.10938 66.104164 283.48438 66.104164Q283.67188 66.104164 284.0 66.041664L284.0 66.916664Q283.57812 67.041664 283.17188 67.041664Q282.45312 67.041664 282.07812 66.604164Q281.70312 66.15104 281.70312 65.33854L281.70312 61.416664L280.54688 61.416664L280.54688 60.572914L281.70312 60.572914L281.70312 59.041664L282.79688 59.041664ZM286.40625 61.33854Q287.125 60.46354 288.28125 60.46354Q290.29688 60.46354 290.3125 62.729164L290.3125 66.916664L289.21875 66.916664L289.21875 62.71354Q289.21875 62.041664 288.90625 61.71354Q288.60938 61.385414 287.95312 61.385414Q287.42188 61.385414 287.01562 61.666664Q286.625 61.947914 286.40625 62.40104L286.40625 66.916664L285.32812 66.916664L285.32812 57.916664L286.40625 57.916664L286.40625 61.33854Z" fill-rule="nonzero"/><path fill="#ffd966" d="M307.5 57.416668C307.5 56.864384 307.94772 56.416668 308.5 56.416668L318.5 56.416668C319.05228 56.416668 319.5 56.864384 319.5 57.416668L319.5 67.416664C319.5 67.96895 319.05228 68.416664 318.5 68.416664L308.5 68.416664C307.94772 68.416664 307.5 67.96895 307.5 67.416664Z" fill-rule="nonzero"/><path fill="#000000" d="M334.79688 65.791664Q334.35938 66.416664 333.57812 66.729164Q332.79688 67.041664 331.76562 67.041664Q330.73438 67.041664 329.92188 66.55729Q329.10938 66.05729 328.67188 65.15104Q328.23438 64.24479 328.21875 63.05729L328.21875 62.322914Q328.21875 60.385414 329.10938 59.322914Q330.01562 58.260414 331.64062 58.260414Q332.98438 58.260414 333.79688 58.947914Q334.60938 59.635414 334.79688 60.885414L333.67188 60.885414Q333.34375 59.197914 331.65625 59.197914Q330.51562 59.197914 329.9375 59.99479Q329.35938 60.77604 329.34375 62.291664L329.34375 62.979164Q329.34375 64.416664 330.0 65.27604Q330.65625 66.11979 331.78125 66.11979Q332.40625 66.11979 332.875 65.979164Q333.35938 65.83854 333.67188 65.49479L333.67188 63.58854L331.70312 63.58854L331.70312 62.666664L334.79688 62.666664L334.79688 65.791664ZM337.5 66.916664L336.42188 66.916664L336.42188 57.916664L337.5 57.916664L337.5 66.916664ZM339.03125 63.68229Q339.03125 62.760414 339.39062 62.010414Q339.76562 61.260414 340.42188 60.86979Q341.07812 60.46354 341.90625 60.46354Q343.20312 60.46354 344.0 61.354164Q344.8125 62.24479 344.8125 63.74479L344.8125 63.822914Q344.8125 64.74479 344.45312 65.479164Q344.09375 66.21354 343.4375 66.635414Q342.78125 67.041664 341.92188 67.041664Q340.64062 67.041664 339.82812 66.15104Q339.03125 65.24479 339.03125 63.760414L339.03125 63.68229ZM340.125 63.822914Q340.125 64.86979 340.60938 65.510414Q341.10938 66.15104 341.92188 66.15104Q342.75 66.15104 343.23438 65.510414Q343.71875 64.854164 343.71875 63.68229Q343.71875 62.65104 343.21875 62.010414Q342.73438 61.354164 341.90625 61.354164Q341.10938 61.354164 340.60938 61.99479Q340.125 62.61979 340.125 63.822914ZM351.6875 63.822914Q351.6875 65.27604 351.01562 66.166664Q350.35938 67.041664 349.23438 67.041664Q348.03125 67.041664 347.375 66.18229L347.3125 66.916664L346.32812 66.916664L346.32812 57.916664L347.40625 57.916664L347.40625 61.27604Q348.0625 60.46354 349.21875 60.46354Q350.375 60.46354 351.03125 61.33854Q351.6875 62.197914 351.6875 63.729164L351.6875 63.822914ZM350.60938 63.697914Q350.60938 62.58854 350.17188 61.99479Q349.75 61.385414 348.95312 61.385414Q347.875 61.385414 347.40625 62.36979L347.40625 65.11979Q347.90625 66.11979 348.95312 66.11979Q349.73438 66.11979 350.17188 65.510414Q350.60938 64.90104 350.60938 63.697914ZM357.23438 66.916664Q357.14062 66.729164 357.07812 66.24479Q356.32812 67.041664 355.28125 67.041664Q354.34375 67.041664 353.73438 66.510414Q353.14062 65.979164 353.14062 65.15104Q353.14062 64.166664 353.89062 63.61979Q354.64062 63.072914 356.01562 63.072914L357.0625 63.072914L357.0625 62.572914Q357.0625 62.010414 356.71875 61.68229Q356.39062 61.33854 355.71875 61.33854Q355.14062 61.33854 354.75 61.635414Q354.35938 61.916664 354.35938 62.33854L353.26562 62.33854Q353.26562 61.854164 353.59375 61.416664Q353.9375 60.979164 354.51562 60.729164Q355.09375 60.46354 355.78125 60.46354Q356.89062 60.46354 357.5 61.010414Q358.125 61.55729 358.15625 62.510414L358.15625 65.43229Q358.15625 66.30729 358.375 66.822914L358.375 66.916664L357.23438 66.916664ZM355.4375 66.08854Q355.95312 66.08854 356.40625 65.822914Q356.85938 65.55729 357.0625 65.135414L357.0625 63.83854L356.21875 63.83854Q354.21875 63.83854 354.21875 65.010414Q354.21875 65.510414 354.5625 65.80729Q354.90625 66.08854 355.4375 66.08854ZM361.5 66.916664L360.42188 66.916664L360.42188 57.916664L361.5 57.916664L361.5 66.916664ZM369.0 63.11979Q367.5625 62.697914 366.89062 62.08854Q366.23438 61.479164 366.23438 60.58854Q366.23438 59.58854 367.03125 58.93229Q367.84375 58.260414 369.14062 58.260414Q370.01562 58.260414 370.70312 58.604164Q371.39062 58.947914 371.76562 59.541664Q372.15625 60.135414 372.15625 60.854164L371.01562 60.854164Q371.01562 60.072914 370.51562 59.635414Q370.03125 59.197914 369.14062 59.197914Q368.3125 59.197914 367.84375 59.572914Q367.375 59.93229 367.375 60.572914Q367.375 61.104164 367.8125 61.46354Q368.26562 61.822914 369.32812 62.11979Q370.39062 62.416664 370.98438 62.77604Q371.59375 63.135414 371.875 63.61979Q372.17188 64.104164 372.17188 64.74479Q372.17188 65.791664 371.35938 66.416664Q370.54688 67.041664 369.20312 67.041664Q368.3125 67.041664 367.54688 66.697914Q366.79688 66.354164 366.375 65.77604Q365.96875 65.18229 365.96875 64.447914L367.09375 64.447914Q367.09375 65.21354 367.67188 65.666664Q368.25 66.11979 369.20312 66.11979Q370.09375 66.11979 370.5625 65.760414Q371.03125 65.385414 371.03125 64.760414Q371.03125 64.135414 370.59375 63.791664Q370.15625 63.447914 369.0 63.11979ZM373.03125 63.68229Q373.03125 62.760414 373.39062 62.010414Q373.76562 61.260414 374.42188 60.86979Q375.07812 60.46354 375.90625 60.46354Q377.20312 60.46354 378.0 61.354164Q378.8125 62.24479 378.8125 63.74479L378.8125 63.822914Q378.8125 64.74479 378.45312 65.479164Q378.09375 66.21354 377.4375 66.635414Q376.78125 67.041664 375.92188 67.041664Q374.64062 67.041664 373.82812 66.15104Q373.03125 65.24479 373.03125 63.760414L373.03125 63.68229ZM374.125 63.822914Q374.125 64.86979 374.60938 65.510414Q375.10938 66.15104 375.92188 66.15104Q376.75 66.15104 377.23438 65.510414Q377.71875 64.854164 377.71875 63.68229Q377.71875 62.65104 377.21875 62.010414Q376.73438 61.354164 375.90625 61.354164Q375.10938 61.354164 374.60938 61.99479Q374.125 62.61979 374.125 63.822914ZM384.23438 66.291664Q383.60938 67.041664 382.375 67.041664Q381.35938 67.041664 380.82812 66.447914Q380.29688 65.854164 380.29688 64.697914L380.29688 60.572914L381.375 60.572914L381.375 64.666664Q381.375 66.11979 382.54688 66.11979Q383.79688 66.11979 384.20312 65.18229L384.20312 60.572914L385.29688 60.572914L385.29688 66.916664L384.26562 66.916664L384.23438 66.291664ZM388.79688 59.041664L388.79688 60.572914L389.96875 60.572914L389.96875 61.416664L388.79688 61.416664L388.79688 65.33854Q388.79688 65.729164 388.95312 65.916664Q389.10938 66.104164 389.48438 66.104164Q389.67188 66.104164 390.0 66.041664L390.0 66.916664Q389.57812 67.041664 389.17188 67.041664Q388.45312 67.041664 388.07812 66.604164Q387.70312 66.15104 387.70312 65.33854L387.70312 61.416664L386.54688 61.416664L386.54688 60.572914L387.70312 60.572914L387.70312 59.041664L388.79688 59.041664ZM392.40625 61.33854Q393.125 60.46354 394.28125 60.46354Q396.29688 60.46354 396.3125 62.729164L396.3125 66.916664L395.21875 66.916664L395.21875 62.71354Q395.21875 62.041664 394.90625 61.71354Q394.60938 61.385414 393.95312 61.385414Q393.42188 61.385414 393.01562 61.666664Q392.625 61.947914 392.40625 62.40104L392.40625 66.916664L391.32812 66.916664L391.32812 57.916664L392.40625 57.916664L392.40625 61.33854Z" fill-rule="nonzero"/><path fill="#000000" d="M28.2375 30.971874L22.08125 30.971874L22.08125 36.01875L29.2375 36.01875L29.2375 37.55L20.20625 37.55L20.20625 23.33125L29.14375 23.33125L29.14375 24.878124L22.08125 24.878124L22.08125 29.440624L28.2375 29.440624L28.2375 30.971874ZM30.471874 32.175Q30.471874 29.753124 31.628124 28.26875Q32.784374 26.784374 34.64375 26.784374Q36.503124 26.784374 37.58125 28.05L37.58125 22.55L39.39375 22.55L39.39375 37.55L37.7375 37.55L37.64375 36.409374Q36.565624 37.753124 34.628124 37.753124Q32.8 37.753124 31.628124 36.253124Q30.471874 34.7375 30.471874 32.315624L30.471874 32.175ZM32.284374 32.378124Q32.284374 34.175 33.01875 35.190624Q33.76875 36.20625 35.08125 36.20625Q36.8 36.20625 37.58125 34.675L37.58125 29.815624Q36.784374 28.315624 35.096874 28.315624Q33.76875 28.315624 33.01875 29.346874Q32.284374 30.378124 32.284374 32.378124ZM48.440624 36.503124Q47.39375 37.753124 45.346874 37.753124Q43.659374 37.753124 42.76875 36.76875Q41.89375 35.784374 41.878124 33.8625L41.878124 26.9875L43.690624 26.9875L43.690624 33.815624Q43.690624 36.20625 45.64375 36.20625Q47.70625 36.20625 48.39375 34.675L48.39375 26.9875L50.20625 26.9875L50.20625 37.55L48.4875 37.55L48.440624 36.503124ZM57.159374 36.26875Q58.128124 36.26875 58.846874 35.690624Q59.565624 35.096874 59.64375 34.221874L61.3625 34.221874Q61.3 35.128124 60.721874 35.95625Q60.159374 36.76875 59.190624 37.26875Q58.2375 37.753124 57.159374 37.753124Q55.003124 37.753124 53.721874 36.315624Q52.45625 34.8625 52.45625 32.3625L52.45625 32.065624Q52.45625 30.51875 53.01875 29.315624Q53.58125 28.1125 54.64375 27.45625Q55.70625 26.784374 57.14375 26.784374Q58.925 26.784374 60.096874 27.846874Q61.284374 28.909374 61.3625 30.6125L59.64375 30.6125Q59.565624 29.596874 58.8625 28.940624Q58.175 28.26875 57.14375 28.26875Q55.76875 28.26875 55.003124 29.26875Q54.253124 30.253124 54.253124 32.128124L54.253124 32.471874Q54.253124 34.3 55.003124 35.284374Q55.753124 36.26875 57.159374 36.26875ZM69.44063 37.55Q69.28438 37.2375 69.19063 36.440624Q67.925 37.753124 66.175 37.753124Q64.6125 37.753124 63.6125 36.8625Q62.6125 35.971874 62.6125 34.6125Q62.6125 32.971874 63.8625 32.065624Q65.12813 31.14375 67.39375 31.14375L69.15938 31.14375L69.15938 30.315624Q69.15938 29.3625 68.58125 28.8Q68.01875 28.2375 66.925 28.2375Q65.95625 28.2375 65.3 28.7375Q64.64375 29.221874 64.64375 29.909374L62.83125 29.909374Q62.83125 29.128124 63.39375 28.39375Q63.95625 27.64375 64.90938 27.221874Q65.87813 26.784374 67.03438 26.784374Q68.8625 26.784374 69.89375 27.70625Q70.925 28.6125 70.97188 30.221874L70.97188 35.08125Q70.97188 36.534374 71.33125 37.39375L71.33125 37.55L69.44063 37.55ZM66.44063 36.175Q67.3 36.175 68.05 35.7375Q68.81563 35.3 69.15938 34.596874L69.15938 32.425L67.7375 32.425Q64.425 32.425 64.425 34.3625Q64.425 35.221874 64.9875 35.70625Q65.55 36.175 66.44063 36.175ZM76.3625 24.425L76.3625 26.9875L78.34688 26.9875L78.34688 28.378124L76.3625 28.378124L76.3625 34.925Q76.3625 35.565624 76.62813 35.89375Q76.89375 36.20625 77.53438 36.20625Q77.84688 36.20625 78.39375 36.08125L78.39375 37.55Q77.675 37.753124 77.00313 37.753124Q75.8 37.753124 75.175 37.01875Q74.56563 36.284374 74.56563 34.925L74.56563 28.378124L72.64375 28.378124L72.64375 26.9875L74.56563 26.9875L74.56563 24.425L76.3625 24.425ZM82.87813 37.55L81.08125 37.55L81.08125 26.9875L82.87813 26.9875L82.87813 37.55ZM80.925 24.175Q80.925 23.7375 81.19063 23.440624Q81.47188 23.128124 81.9875 23.128124Q82.51875 23.128124 82.78438 23.440624Q83.06563 23.7375 83.06563 24.175Q83.06563 24.6125 82.78438 24.909374Q82.51875 25.20625 81.9875 25.20625Q81.47188 25.20625 81.19063 24.909374Q80.925 24.6125 80.925 24.175ZM85.44063 32.175Q85.44063 30.6125 86.05 29.378124Q86.65938 28.128124 87.7375 27.45625Q88.83125 26.784374 90.2375 26.784374Q92.39375 26.784374 93.72188 28.284374Q95.06563 29.76875 95.06563 32.253124L95.06563 32.378124Q95.06563 33.925 94.47188 35.159374Q93.87813 36.378124 92.76875 37.065624Q91.675 37.753124 90.25313 37.753124Q88.1125 37.753124 86.76875 36.253124Q85.44063 34.753124 85.44063 32.3L85.44063 32.175ZM87.25313 32.378124Q87.25313 34.14375 88.06563 35.20625Q88.89375 36.26875 90.25313 36.26875Q91.62813 36.26875 92.44063 35.190624Q93.25313 34.1125 93.25313 32.175Q93.25313 30.425 92.425 29.346874Q91.59688 28.26875 90.2375 28.26875Q88.89375 28.26875 88.06563 29.33125Q87.25313 30.39375 87.25313 32.378124ZM98.62813 26.9875L98.69063 28.315624Q99.89375 26.784374 101.84688 26.784374Q105.20625 26.784374 105.22188 30.565624L105.22188 37.55L103.425 37.55L103.425 30.55Q103.40938 29.409374 102.89375 28.8625Q102.39375 28.315624 101.3 28.315624Q100.425 28.315624 99.75313 28.784374Q99.09688 29.253124 98.72188 30.01875L98.72188 37.55L96.925 37.55L96.925 26.9875L98.62813 26.9875Z" fill-rule="nonzero"/></svg>