<svg version="1.1" viewBox="0.0 0.0 600.0 371.0" fill="none" stroke="none" stroke-linecap="square" stroke-miterlimit="10" width="600" height="371" xmlns:xlink="http://www.w3.org/1999/xlink" xmlns="http://www.w3.org/2000/svg"><path fill="#ffffff" d="M0 0L600.0 0L600.0 371.0L0 371.0L0 0Z" fill-rule="nonzero"/><path stroke="#333333" stroke-width="1.0" stroke-linecap="butt" d="M45.5 331.5L581.5 331.5" fill-rule="nonzero"/><path stroke="#000000" stroke-width="1.0" stroke-linecap="butt" d="M45.5 271.5L581.5 271.5" fill-rule="nonzero"/><path stroke="#000000" stroke-width="1.0" stroke-linecap="butt" d="M45.5 210.5L581.5 210.5" fill-rule="nonzero"/><path stroke="#000000" stroke-width="1.0" stroke-linecap="butt" d="M45.5 150.5L581.5 150.5" fill-rule="nonzero"/><path stroke="#000000" stroke-width="1.0" stroke-linecap="butt" d="M45.5 89.5L581.5 89.5" fill-rule="nonzero"/><clipPath id="id_0"><path d="M45.55 89.78333L581.45 89.78333L581.45 331.45L45.55 331.45L45.55 89.78333Z" clip-rule="nonzero"/></clipPath><path stroke="#000000" stroke-width="0.0" stroke-linecap="butt" stroke-opacity="0.0" clip-path="url(#id_0)" d="M128.0 331.0L89.0 331.0L89.0 167.0C89.0 165.89543 89.89543 165.0 91.0 165.0L126.0 165.0C127.10457 165.0 128.0 165.89543 128.0 167.0Z" fill-rule="nonzero"/><path fill="#b6d7a8" clip-path="url(#id_0)" d="M128.0 331.0L89.0 331.0L89.0 167.0C89.0 165.89543 89.89543 165.0 91.0 165.0L126.0 165.0C127.10457 165.0 128.0 165.89543 128.0 167.0Z" fill-rule="nonzero"/><path stroke="#000000" stroke-width="0.0" stroke-linecap="butt" stroke-opacity="0.0" clip-path="url(#id_0)" d="M251.0 331.0L212.0 331.0L212.0 329.5C212.0 328.67157 212.67157 328.0 213.5 328.0L249.5 328.0C250.32843 328.0 251.0 328.67157 251.0 329.5Z" fill-rule="nonzero"/><path fill="#b6d7a8" clip-path="url(#id_0)" d="M251.0 331.0L212.0 331.0L212.0 329.5C212.0 328.67157 212.67157 328.0 213.5 328.0L249.5 328.0C250.32843 328.0 251.0 328.67157 251.0 329.5Z" fill-rule="nonzero"/><path stroke="#000000" stroke-width="0.0" stroke-linecap="butt" stroke-opacity="0.0" clip-path="url(#id_0)" d="M374.0 331.0L335.0 331.0L335.0 191.0C335.0 189.89543 335.89542 189.0 337.0 189.0L372.0 189.0C373.10458 189.0 374.0 189.89543 374.0 191.0Z" fill-rule="nonzero"/><path fill="#b6d7a8" clip-path="url(#id_0)" d="M374.0 331.0L335.0 331.0L335.0 191.0C335.0 189.89543 335.89542 189.0 337.0 189.0L372.0 189.0C373.10458 189.0 374.0 189.89543 374.0 191.0Z" fill-rule="nonzero"/><path stroke="#000000" stroke-width="0.0" stroke-linecap="butt" stroke-opacity="0.0" clip-path="url(#id_0)" d="M497.0 331.0L458.0 331.0L458.0 329.5C458.0 328.67157 458.67157 328.0 459.5 328.0L495.5 328.0C496.32843 328.0 497.0 328.67157 497.0 329.5Z" fill-rule="nonzero"/><path fill="#b6d7a8" clip-path="url(#id_0)" d="M497.0 331.0L458.0 331.0L458.0 329.5C458.0 328.67157 458.67157 328.0 459.5 328.0L495.5 328.0C496.32843 328.0 497.0 328.67157 497.0 329.5Z" fill-rule="nonzero"/><path stroke="#000000" stroke-width="0.0" stroke-linecap="butt" stroke-opacity="0.0" clip-path="url(#id_0)" d="M168.0 331.0L129.0 331.0L129.0 122.0C129.0 120.89543 129.89543 120.0 131.0 120.0L166.0 120.0C167.10457 120.0 168.0 120.89543 168.0 122.0Z" fill-rule="nonzero"/><path fill="#ffd966" clip-path="url(#id_0)" d="M168.0 331.0L129.0 331.0L129.0 122.0C129.0 120.89543 129.89543 120.0 131.0 120.0L166.0 120.0C167.10457 120.0 168.0 120.89543 168.0 122.0Z" fill-rule="nonzero"/><path stroke="#000000" stroke-width="0.0" stroke-linecap="butt" stroke-opacity="0.0" clip-path="url(#id_0)" d="M291.0 331.0L252.0 331.0L252.0 331.0L291.0 331.0Z" fill-rule="nonzero"/><path fill="#ffd966" clip-path="url(#id_0)" d="M291.0 331.0L252.0 331.0L252.0 331.0L291.0 331.0Z" fill-rule="nonzero"/><path stroke="#000000" stroke-width="0.0" stroke-linecap="butt" stroke-opacity="0.0" clip-path="url(#id_0)" d="M414.0 331.0L375.0 331.0L375.0 113.0C375.0 111.89543 375.89542 111.0 377.0 111.0L412.0 111.0C413.10458 111.0 414.0 111.89543 414.0 113.0Z" fill-rule="nonzero"/><path fill="#ffd966" clip-path="url(#id_0)" d="M414.0 331.0L375.0 331.0L375.0 113.0C375.0 111.89543 375.89542 111.0 377.0 111.0L412.0 111.0C413.10458 111.0 414.0 111.89543 414.0 113.0Z" fill-rule="nonzero"/><path stroke="#000000" stroke-width="0.0" stroke-linecap="butt" stroke-opacity="0.0" clip-path="url(#id_0)" d="M537.0 331.0L498.0 331.0L498.0 331.0L537.0 331.0Z" fill-rule="nonzero"/><path fill="#ffd966" clip-path="url(#id_0)" d="M537.0 331.0L498.0 331.0L498.0 331.0L537.0 331.0Z" fill-rule="nonzero"/><path fill="#000000" d="M38.6125 332.3094Q38.6125 334.21564 37.95625 335.15314Q37.315624 336.075 35.925 336.075Q34.565624 336.075 33.909374 335.16876Q33.253124 334.2625 33.221874 332.45L33.221874 331.0125Q33.221874 329.1219 33.8625 328.21564Q34.51875 327.29376 35.909374 327.29376Q37.284374 327.29376 37.940624 328.1844Q38.596874 329.0594 38.6125 330.90314L38.6125 332.3094ZM37.51875 330.825Q37.51875 329.45 37.128124 328.825Q36.753124 328.1844 35.909374 328.1844Q35.08125 328.1844 34.690624 328.825Q34.315624 329.45 34.315624 330.7469L34.315624 332.48126Q34.315624 333.85626 34.70625 334.52814Q35.1125 335.1844 35.925 335.1844Q36.721874 335.1844 37.1125 334.5594Q37.503124 333.9344 37.51875 332.60626L37.51875 330.825Z" fill-rule="nonzero"/><path fill="#000000" d="M31.846874 275.53333L26.253124 275.53333L26.253124 274.75208L29.20625 271.47083Q29.8625 270.72083 30.1125 270.2677Q30.3625 269.79895 30.3625 269.29895Q30.3625 268.62708 29.95625 268.2052Q29.565624 267.7677 28.878124 267.7677Q28.08125 267.7677 27.628124 268.23645Q27.175 268.68958 27.175 269.5177L26.096874 269.5177Q26.096874 268.3302 26.846874 267.61145Q27.6125 266.87708 28.878124 266.87708Q30.08125 266.87708 30.76875 267.50208Q31.45625 268.12708 31.45625 269.17395Q31.45625 270.42395 29.846874 272.17395L27.565624 274.6427L31.846874 274.6427L31.846874 275.53333ZM38.6125 271.8927Q38.6125 273.79895 37.95625 274.73645Q37.315624 275.65833 35.925 275.65833Q34.565624 275.65833 33.909374 274.75208Q33.253124 273.84583 33.221874 272.03333L33.221874 270.59583Q33.221874 268.7052 33.8625 267.79895Q34.51875 266.87708 35.909374 266.87708Q37.284374 266.87708 37.940624 267.7677Q38.596874 268.6427 38.6125 270.48645L38.6125 271.8927ZM37.51875 270.40833Q37.51875 269.03333 37.128124 268.40833Q36.753124 267.7677 35.909374 267.7677Q35.08125 267.7677 34.690624 268.40833Q34.315624 269.03333 34.315624 270.3302L34.315624 272.06458Q34.315624 273.43958 34.70625 274.11145Q35.1125 274.7677 35.925 274.7677Q36.721874 274.7677 37.1125 274.1427Q37.503124 273.5177 37.51875 272.18958L37.51875 270.40833Z" fill-rule="nonzero"/><path fill="#000000" d="M30.83125 212.2573L32.01875 212.2573L32.01875 213.1323L30.83125 213.1323L30.83125 215.11667L29.753124 215.11667L29.753124 213.1323L25.8625 213.1323L25.8625 212.49167L29.675 206.58542L30.83125 206.58542L30.83125 212.2573ZM27.096874 212.2573L29.753124 212.2573L29.753124 208.0698L29.6125 208.30417L27.096874 212.2573ZM38.6125 211.47604Q38.6125 213.3823 37.95625 214.3198Q37.315624 215.24167 35.925 215.24167Q34.565624 215.24167 33.909374 214.33542Q33.253124 213.42917 33.221874 211.61667L33.221874 210.17917Q33.221874 208.28854 33.8625 207.3823Q34.51875 206.46042 35.909374 206.46042Q37.284374 206.46042 37.940624 207.35104Q38.596874 208.22604 38.6125 210.0698L38.6125 211.47604ZM37.51875 209.99167Q37.51875 208.61667 37.128124 207.99167Q36.753124 207.35104 35.909374 207.35104Q35.08125 207.35104 34.690624 207.99167Q34.315624 208.61667 34.315624 209.91354L34.315624 211.64792Q34.315624 213.02292 34.70625 213.6948Q35.1125 214.35104 35.925 214.35104Q36.721874 214.35104 37.1125 213.72604Q37.503124 213.10104 37.51875 211.77292L37.51875 209.99167Z" fill-rule="nonzero"/><path fill="#000000" d="M30.51875 146.16875L30.51875 147.075L30.315624 147.075Q29.05 147.10625 28.3 147.84062Q27.55 148.55937 27.425 149.87187Q28.1125 149.10625 29.26875 149.10625Q30.378124 149.10625 31.05 149.8875Q31.721874 150.66875 31.721874 151.91875Q31.721874 153.23125 31.003124 154.02812Q30.284374 154.825 29.065624 154.825Q27.846874 154.825 27.08125 153.8875Q26.33125 152.93437 26.33125 151.45L26.33125 151.04375Q26.33125 148.68437 27.33125 147.43437Q28.33125 146.18437 30.315624 146.16875L30.51875 146.16875ZM29.096874 150.0125Q28.534374 150.0125 28.065624 150.34062Q27.596874 150.66875 27.409374 151.18437L27.409374 151.575Q27.409374 152.6375 27.878124 153.27812Q28.3625 153.91875 29.065624 153.91875Q29.8 153.91875 30.221874 153.3875Q30.64375 152.84062 30.64375 151.96562Q30.64375 151.09062 30.221874 150.55937Q29.8 150.0125 29.096874 150.0125ZM38.6125 151.05937Q38.6125 152.96562 37.95625 153.90312Q37.315624 154.825 35.925 154.825Q34.565624 154.825 33.909374 153.91875Q33.253124 153.0125 33.221874 151.2L33.221874 149.7625Q33.221874 147.87187 33.8625 146.96562Q34.51875 146.04375 35.909374 146.04375Q37.284374 146.04375 37.940624 146.93437Q38.596874 147.80937 38.6125 149.65312L38.6125 151.05937ZM37.51875 149.575Q37.51875 148.2 37.128124 147.575Q36.753124 146.93437 35.909374 146.93437Q35.08125 146.93437 34.690624 147.575Q34.315624 148.2 34.315624 149.49687L34.315624 151.23125Q34.315624 152.60625 34.70625 153.27812Q35.1125 153.93437 35.925 153.93437Q36.721874 153.93437 37.1125 153.30937Q37.503124 152.68437 37.51875 151.35625L37.51875 149.575Z" fill-rule="nonzero"/><path fill="#000000" d="M31.440624 87.97083Q31.440624 88.61146 31.096874 89.11146Q30.753124 89.61146 30.190624 89.89271Q30.846874 90.17396 31.2375 90.73646Q31.628124 91.28333 31.628124 91.98646Q31.628124 93.08021 30.878124 93.75208Q30.14375 94.40833 28.925 94.40833Q27.690624 94.40833 26.940624 93.75208Q26.20625 93.08021 26.20625 91.98646Q26.20625 91.28333 26.58125 90.73646Q26.95625 90.17396 27.628124 89.89271Q27.065624 89.61146 26.7375 89.11146Q26.409374 88.61146 26.409374 87.97083Q26.409374 86.89271 27.096874 86.26771Q27.784374 85.62708 28.925 85.62708Q30.05 85.62708 30.7375 86.26771Q31.440624 86.89271 31.440624 87.97083ZM30.55 91.95521Q30.55 91.23646 30.096874 90.79896Q29.64375 90.34583 28.909374 90.34583Q28.175 90.34583 27.721874 90.79896Q27.284374 91.23646 27.284374 91.97083Q27.284374 92.68958 27.721874 93.11146Q28.159374 93.51771 28.925 93.51771Q29.675 93.51771 30.1125 93.09583Q30.55 92.67396 30.55 91.95521ZM28.925 86.51771Q28.284374 86.51771 27.878124 86.92396Q27.4875 87.31458 27.4875 88.00208Q27.4875 88.64271 27.878124 89.04896Q28.26875 89.45521 28.909374 89.45521Q29.565624 89.45521 29.95625 89.04896Q30.346874 88.64271 30.346874 88.00208Q30.346874 87.34583 29.940624 86.93958Q29.534374 86.51771 28.925 86.51771ZM38.6125 90.64271Q38.6125 92.54896 37.95625 93.48646Q37.315624 94.40833 35.925 94.40833Q34.565624 94.40833 33.909374 93.50208Q33.253124 92.59583 33.221874 90.78333L33.221874 89.34583Q33.221874 87.45521 33.8625 86.54896Q34.51875 85.62708 35.909374 85.62708Q37.284374 85.62708 37.940624 86.51771Q38.596874 87.39271 38.6125 89.23646L38.6125 90.64271ZM37.51875 89.15833Q37.51875 87.78333 37.128124 87.15833Q36.753124 86.51771 35.909374 86.51771Q35.08125 86.51771 34.690624 87.15833Q34.315624 87.78333 34.315624 89.08021L34.315624 90.81458Q34.315624 92.18958 34.70625 92.86146Q35.1125 93.51771 35.925 93.51771Q36.721874 93.51771 37.1125 92.89271Q37.503124 92.26771 37.51875 90.93958L37.51875 89.15833Z" fill-rule="nonzero"/><path fill="#000000" d="M114.41002 345.6844L110.81627 345.6844L110.81627 349.45L109.69127 349.45L109.69127 340.91876L114.988144 340.91876L114.988144 341.84064L110.81627 341.84064L110.81627 344.7625L114.41002 344.7625L114.41002 345.6844ZM119.16002 349.575Q117.863144 349.575 117.050644 348.73126Q116.25377 347.8719 116.25377 346.45L116.25377 346.2625Q116.25377 345.3094 116.613144 344.575Q116.97252 343.825 117.613144 343.41876Q118.269394 342.9969 119.019394 342.9969Q120.25377 342.9969 120.94127 343.8094Q121.62877 344.6219 121.62877 346.1375L121.62877 346.59064L117.331894 346.59064Q117.363144 347.52814 117.87877 348.10626Q118.41002 348.6844 119.22252 348.6844Q119.78502 348.6844 120.175644 348.45Q120.581894 348.21564 120.894394 347.825L121.550644 348.34064Q120.75377 349.575 119.16002 349.575ZM119.019394 343.8875Q118.363144 343.8875 117.91002 344.3719Q117.47252 344.84064 117.37877 345.7L120.550644 345.7L120.550644 345.6219Q120.50377 344.79376 120.09752 344.34064Q119.706894 343.8875 119.019394 343.8875ZM123.550644 343.10626L123.581894 343.8094Q124.269394 342.9969 125.456894 342.9969Q126.78502 342.9969 127.269394 344.0125Q127.581894 343.5594 128.0819 343.27814Q128.59752 342.9969 129.28502 342.9969Q131.37877 342.9969 131.41002 345.2L131.41002 349.45L130.3319 349.45L130.3319 345.2625Q130.3319 344.59064 130.0194 344.2625Q129.7069 343.91876 128.97252 343.91876Q128.36314 343.91876 127.956894 344.27814Q127.56627 344.6375 127.50377 345.2469L127.50377 349.45L126.425644 349.45L126.425644 345.29376Q126.425644 343.91876 125.06627 343.91876Q124.00377 343.91876 123.613144 344.825L123.613144 349.45L122.519394 349.45L122.519394 343.10626L123.550644 343.10626ZM137.44127 349.45Q137.34752 349.2625 137.28502 348.77814Q136.53502 349.575 135.48814 349.575Q134.55064 349.575 133.94127 349.04376Q133.34752 348.5125 133.34752 347.6844Q133.34752 346.7 134.09752 346.15314Q134.84752 345.60626 136.22252 345.60626L137.2694 345.60626L137.2694 345.10626Q137.2694 344.54376 136.92564 344.21564Q136.59752 343.8719 135.92564 343.8719Q135.34752 343.8719 134.9569 344.16876Q134.56627 344.45 134.56627 344.8719L133.47252 344.8719Q133.47252 344.3875 133.80064 343.95Q134.1444 343.5125 134.72252 343.2625Q135.30064 342.9969 135.98814 342.9969Q137.09752 342.9969 137.7069 343.54376Q138.3319 344.09064 138.36314 345.04376L138.36314 347.96564Q138.36314 348.84064 138.5819 349.35626L138.5819 349.45L137.44127 349.45ZM135.6444 348.6219Q136.16002 348.6219 136.61314 348.35626Q137.06627 348.09064 137.2694 347.66876L137.2694 346.3719L136.42564 346.3719Q134.42564 346.3719 134.42564 347.54376Q134.42564 348.04376 134.7694 348.34064Q135.11314 348.6219 135.6444 348.6219ZM141.7069 349.45L140.62877 349.45L140.62877 340.45L141.7069 340.45L141.7069 349.45ZM146.16002 349.575Q144.86314 349.575 144.05064 348.73126Q143.25377 347.8719 143.25377 346.45L143.25377 346.2625Q143.25377 345.3094 143.61314 344.575Q143.97252 343.825 144.61314 343.41876Q145.2694 342.9969 146.0194 342.9969Q147.25377 342.9969 147.94127 343.8094Q148.62877 344.6219 148.62877 346.1375L148.62877 346.59064L144.3319 346.59064Q144.36314 347.52814 144.87877 348.10626Q145.41002 348.6844 146.22252 348.6844Q146.78502 348.6844 147.17564 348.45Q147.5819 348.21564 147.8944 347.825L148.55064 348.34064Q147.75377 349.575 146.16002 349.575ZM146.0194 343.8875Q145.36314 343.8875 144.91002 344.3719Q144.47252 344.84064 144.37877 345.7L147.55064 345.7L147.55064 345.6219Q147.50377 344.79376 147.09752 344.34064Q146.7069 343.8875 146.0194 343.8875Z" fill-rule="nonzero"/><path fill="#000000" d="M197.10542 349.45L195.98042 349.45L195.98042 340.91876L197.10542 340.91876L197.10542 349.45ZM207.07417 346.35626Q207.07417 347.79376 206.41792 348.6844Q205.76167 349.575 204.62105 349.575Q203.4648 349.575 202.80855 348.84064L202.80855 351.8875L201.73042 351.8875L201.73042 343.10626L202.7148 343.10626L202.76167 343.8094Q203.43355 342.9969 204.60542 342.9969Q205.74605 342.9969 206.4023 343.85626Q207.07417 344.71564 207.07417 346.2469L207.07417 346.35626ZM205.99605 346.23126Q205.99605 345.15314 205.5273 344.54376Q205.07417 343.91876 204.2773 343.91876Q203.29292 343.91876 202.80855 344.77814L202.80855 347.8094Q203.29292 348.6844 204.29292 348.6844Q205.07417 348.6844 205.5273 348.075Q205.99605 347.45 205.99605 346.23126ZM211.79292 344.075Q211.54292 344.04376 211.26167 344.04376Q210.18355 344.04376 209.80855 344.95L209.80855 349.45L208.73042 349.45L208.73042 343.10626L209.7773 343.10626L209.79292 343.84064Q210.32417 342.9969 211.30855 342.9969Q211.62105 342.9969 211.79292 343.075L211.79292 344.075ZM215.35542 349.575Q214.05855 349.575 213.24605 348.73126Q212.44917 347.8719 212.44917 346.45L212.44917 346.2625Q212.44917 345.3094 212.80855 344.575Q213.16792 343.825 213.80855 343.41876Q214.4648 342.9969 215.2148 342.9969Q216.44917 342.9969 217.13667 343.8094Q217.82417 344.6219 217.82417 346.1375L217.82417 346.59064L213.5273 346.59064Q213.55855 347.52814 214.07417 348.10626Q214.60542 348.6844 215.41792 348.6844Q215.98042 348.6844 216.37105 348.45Q216.7773 348.21564 217.0898 347.825L217.74605 348.34064Q216.94917 349.575 215.35542 349.575ZM215.2148 343.8875Q214.55855 343.8875 214.10542 344.3719Q213.66792 344.84064 213.57417 345.7L216.74605 345.7L216.74605 345.6219Q216.69917 344.79376 216.29292 344.34064Q215.9023 343.8875 215.2148 343.8875ZM219.26167 349.45L219.26167 343.95L218.26167 343.95L218.26167 343.10626L219.26167 343.10626L219.26167 342.46564Q219.26167 341.4344 219.79292 340.8875Q220.3398 340.325 221.3398 340.325Q221.7148 340.325 222.0898 340.41876L222.0273 341.3094Q221.74605 341.2469 221.44917 341.2469Q220.91792 341.2469 220.62105 341.5594Q220.3398 341.8719 220.3398 342.4344L220.3398 343.10626L221.69917 343.10626L221.69917 343.95L220.3398 343.95L220.3398 349.45L219.26167 349.45ZM225.35542 349.575Q224.05855 349.575 223.24605 348.73126Q222.44917 347.8719 222.44917 346.45L222.44917 346.2625Q222.44917 345.3094 222.80855 344.575Q223.16792 343.825 223.80855 343.41876Q224.4648 342.9969 225.2148 342.9969Q226.44917 342.9969 227.13667 343.8094Q227.82417 344.6219 227.82417 346.1375L227.82417 346.59064L223.5273 346.59064Q223.55855 347.52814 224.07417 348.10626Q224.60542 348.6844 225.41792 348.6844Q225.98042 348.6844 226.37105 348.45Q226.7773 348.21564 227.0898 347.825L227.74605 348.34064Q226.94917 349.575 225.35542 349.575ZM225.2148 343.8875Q224.55855 343.8875 224.10542 344.3719Q223.66792 344.84064 223.57417 345.7L226.74605 345.7L226.74605 345.6219Q226.69917 344.79376 226.29292 344.34064Q225.9023 343.8875 225.2148 343.8875ZM231.79292 344.075Q231.54292 344.04376 231.26167 344.04376Q230.18355 344.04376 229.80855 344.95L229.80855 349.45L228.73042 349.45L228.73042 343.10626L229.7773 343.10626L229.79292 343.84064Q230.32417 342.9969 231.30855 342.9969Q231.62105 342.9969 231.79292 343.075L231.79292 344.075ZM236.74605 343.10626L236.7773 343.90314Q237.51167 342.9969 238.68355 342.9969Q240.69917 342.9969 240.7148 345.2625L240.7148 349.45L239.62105 349.45L239.62105 345.2469Q239.62105 344.575 239.30855 344.2469Q239.01167 343.91876 238.35542 343.91876Q237.82417 343.91876 237.41792 344.2Q237.0273 344.48126 236.80855 344.9344L236.80855 349.45L235.73042 349.45L235.73042 343.10626L236.74605 343.10626ZM242.43355 346.21564Q242.43355 345.29376 242.79292 344.54376Q243.16792 343.79376 243.82417 343.40314Q244.48042 342.9969 245.30855 342.9969Q246.60542 342.9969 247.4023 343.8875Q248.2148 344.77814 248.2148 346.27814L248.2148 346.35626Q248.2148 347.27814 247.85542 348.0125Q247.49605 348.7469 246.8398 349.16876Q246.18355 349.575 245.32417 349.575Q244.04292 349.575 243.23042 348.6844Q242.43355 347.77814 242.43355 346.29376L242.43355 346.21564ZM243.5273 346.35626Q243.5273 347.40314 244.01167 348.04376Q244.51167 348.6844 245.32417 348.6844Q246.1523 348.6844 246.63667 348.04376Q247.12105 347.3875 247.12105 346.21564Q247.12105 345.1844 246.62105 344.54376Q246.13667 343.8875 245.30855 343.8875Q244.51167 343.8875 244.01167 344.52814Q243.5273 345.15314 243.5273 346.35626ZM251.19917 341.575L251.19917 343.10626L252.37105 343.10626L252.37105 343.95L251.19917 343.95L251.19917 347.8719Q251.19917 348.2625 251.35542 348.45Q251.51167 348.6375 251.88667 348.6375Q252.07417 348.6375 252.4023 348.575L252.4023 349.45Q251.98042 349.575 251.57417 349.575Q250.85542 349.575 250.48042 349.1375Q250.10542 348.6844 250.10542 347.8719L250.10542 343.95L248.94917 343.95L248.94917 343.10626L250.10542 343.10626L250.10542 341.575L251.19917 341.575ZM258.19916 341.575L258.19916 343.10626L259.37103 343.10626L259.37103 343.95L258.19916 343.95L258.19916 347.8719Q258.19916 348.2625 258.3554 348.45Q258.51166 348.6375 258.88666 348.6375Q259.07416 348.6375 259.40228 348.575L259.40228 349.45Q258.9804 349.575 258.57416 349.575Q257.8554 349.575 257.4804 349.1375Q257.1054 348.6844 257.1054 347.8719L257.1054 343.95L255.94917 343.95L255.94917 343.10626L257.1054 343.10626L257.1054 341.575L258.19916 341.575ZM260.43353 346.21564Q260.43353 345.29376 260.7929 344.54376Q261.1679 343.79376 261.82416 343.40314Q262.4804 342.9969 263.30853 342.9969Q264.6054 342.9969 265.40228 343.8875Q266.21478 344.77814 266.21478 346.27814L266.21478 346.35626Q266.21478 347.27814 265.8554 348.0125Q265.49603 348.7469 264.83978 349.16876Q264.18353 349.575 263.32416 349.575Q262.0429 349.575 261.2304 348.6844Q260.43353 347.77814 260.43353 346.29376L260.43353 346.21564ZM261.52728 346.35626Q261.52728 347.40314 262.01166 348.04376Q262.51166 348.6844 263.32416 348.6844Q264.15228 348.6844 264.63666 348.04376Q265.12103 347.3875 265.12103 346.21564Q265.12103 345.1844 264.62103 344.54376Q264.13666 343.8875 263.30853 343.8875Q262.51166 343.8875 262.01166 344.52814Q261.52728 345.15314 261.52728 346.35626ZM274.63666 349.45Q274.5429 349.2625 274.4804 348.77814Q273.7304 349.575 272.68353 349.575Q271.74603 349.575 271.13666 349.04376Q270.5429 348.5125 270.5429 347.6844Q270.5429 346.7 271.2929 346.15314Q272.0429 345.60626 273.4179 345.60626L274.46478 345.60626L274.46478 345.10626Q274.46478 344.54376 274.12103 344.21564Q273.7929 343.8719 273.12103 343.8719Q272.5429 343.8719 272.15228 344.16876Q271.76166 344.45 271.76166 344.8719L270.6679 344.8719Q270.6679 344.3875 270.99603 343.95Q271.33978 343.5125 271.9179 343.2625Q272.49603 342.9969 273.18353 342.9969Q274.2929 342.9969 274.90228 343.54376Q275.52728 344.09064 275.55853 345.04376L275.55853 347.96564Q275.55853 348.84064 275.77728 349.35626L275.77728 349.45L274.63666 349.45ZM272.83978 348.6219Q273.3554 348.6219 273.80853 348.35626Q274.26166 348.09064 274.46478 347.66876L274.46478 346.3719L273.62103 346.3719Q271.62103 346.3719 271.62103 347.54376Q271.62103 348.04376 271.96478 348.34064Q272.30853 348.6219 272.83978 348.6219ZM278.74603 343.10626L278.77728 343.90314Q279.51166 342.9969 280.68353 342.9969Q282.69916 342.9969 282.71478 345.2625L282.71478 349.45L281.62103 349.45L281.62103 345.2469Q281.62103 344.575 281.30853 344.2469Q281.01166 343.91876 280.3554 343.91876Q279.82416 343.91876 279.4179 344.2Q279.02728 344.48126 278.80853 344.9344L278.80853 349.45L277.7304 349.45L277.7304 343.10626L278.74603 343.10626ZM288.4179 347.7625Q288.4179 347.325 288.07416 347.09064Q287.74603 346.84064 286.9179 346.66876Q286.1054 346.4969 285.62103 346.2469Q285.13666 345.9969 284.90228 345.66876Q284.68353 345.325 284.68353 344.85626Q284.68353 344.075 285.33978 343.54376Q285.99603 342.9969 287.02728 342.9969Q288.1054 342.9969 288.76166 343.5594Q289.43353 344.10626 289.43353 344.96564L288.3554 344.96564Q288.3554 344.52814 287.96478 344.21564Q287.58978 343.8875 287.02728 343.8875Q286.43353 343.8875 286.08978 344.15314Q285.76166 344.40314 285.76166 344.8094Q285.76166 345.2 286.07416 345.40314Q286.38666 345.60626 287.19916 345.79376Q288.01166 345.96564 288.51166 346.21564Q289.01166 346.46564 289.24603 346.825Q289.49603 347.1844 289.49603 347.6844Q289.49603 348.54376 288.80853 349.0594Q288.13666 349.575 287.05853 349.575Q286.2929 349.575 285.69916 349.3094Q285.12103 349.02814 284.7929 348.54376Q284.46478 348.0594 284.46478 347.4969L285.5429 347.4969Q285.57416 348.04376 285.9804 348.3719Q286.38666 348.6844 287.05853 348.6844Q287.6679 348.6844 288.0429 348.4344Q288.4179 348.1844 288.4179 347.7625ZM296.33978 347.95L297.55853 343.10626L298.63666 343.10626L296.7929 349.45L295.9179 349.45L294.37103 344.6375L292.87103 349.45L291.99603 349.45L290.15228 343.10626L291.2304 343.10626L292.4804 347.85626L293.96478 343.10626L294.82416 343.10626L296.33978 347.95ZM302.3554 349.575Q301.05853 349.575 300.24603 348.73126Q299.44916 347.8719 299.44916 346.45L299.44916 346.2625Q299.44916 345.3094 299.80853 344.575Q300.1679 343.825 300.80853 343.41876Q301.46478 342.9969 302.21478 342.9969Q303.44916 342.9969 304.13666 343.8094Q304.82416 344.6219 304.82416 346.1375L304.82416 346.59064L300.52728 346.59064Q300.55853 347.52814 301.07416 348.10626Q301.6054 348.6844 302.4179 348.6844Q302.9804 348.6844 303.37103 348.45Q303.77728 348.21564 304.08978 347.825L304.74603 348.34064Q303.94916 349.575 302.3554 349.575ZM302.21478 343.8875Q301.55853 343.8875 301.1054 344.3719Q300.6679 344.84064 300.57416 345.7L303.74603 345.7L303.74603 345.6219Q303.69916 344.79376 303.2929 344.34064Q302.90228 343.8875 302.21478 343.8875ZM308.7929 344.075Q308.5429 344.04376 308.26166 344.04376Q307.18353 344.04376 306.80853 344.95L306.80853 349.45L305.7304 349.45L305.7304 343.10626L306.77728 343.10626L306.7929 343.84064Q307.32416 342.9969 308.30853 342.9969Q308.62103 342.9969 308.7929 343.075L308.7929 344.075Z" fill-rule="nonzero"/><path fill="#000000" d="M364.5352 340.91876L367.33206 347.8719L370.1133 340.91876L371.58206 340.91876L371.58206 349.45L370.45706 349.45L370.45706 346.1219L370.56644 342.54376L367.75394 349.45L366.89456 349.45L364.0977 342.5594L364.20706 346.1219L364.20706 349.45L363.08206 349.45L363.08206 340.91876L364.5352 340.91876ZM376.83206 349.45Q376.7383 349.2625 376.6758 348.77814Q375.9258 349.575 374.87894 349.575Q373.94144 349.575 373.33206 349.04376Q372.7383 348.5125 372.7383 347.6844Q372.7383 346.7 373.4883 346.15314Q374.2383 345.60626 375.6133 345.60626L376.6602 345.60626L376.6602 345.10626Q376.6602 344.54376 376.31644 344.21564Q375.9883 343.8719 375.31644 343.8719Q374.7383 343.8719 374.3477 344.16876Q373.95706 344.45 373.95706 344.8719L372.8633 344.8719Q372.8633 344.3875 373.19144 343.95Q373.5352 343.5125 374.1133 343.2625Q374.69144 342.9969 375.37894 342.9969Q376.4883 342.9969 377.0977 343.54376Q377.7227 344.09064 377.75394 345.04376L377.75394 347.96564Q377.75394 348.84064 377.9727 349.35626L377.9727 349.45L376.83206 349.45ZM375.0352 348.6219Q375.5508 348.6219 376.00394 348.35626Q376.45706 348.09064 376.6602 347.66876L376.6602 346.3719L375.81644 346.3719Q373.81644 346.3719 373.81644 347.54376Q373.81644 348.04376 374.1602 348.34064Q374.50394 348.6219 375.0352 348.6219ZM381.0977 349.45L380.01956 349.45L380.01956 340.45L381.0977 340.45L381.0977 349.45ZM385.5508 349.575Q384.25394 349.575 383.44144 348.73126Q382.64456 347.8719 382.64456 346.45L382.64456 346.2625Q382.64456 345.3094 383.00394 344.575Q383.3633 343.825 384.00394 343.41876Q384.6602 342.9969 385.4102 342.9969Q386.64456 342.9969 387.33206 343.8094Q388.01956 344.6219 388.01956 346.1375L388.01956 346.59064L383.7227 346.59064Q383.75394 347.52814 384.26956 348.10626Q384.8008 348.6844 385.6133 348.6844Q386.1758 348.6844 386.56644 348.45Q386.9727 348.21564 387.2852 347.825L387.94144 348.34064Q387.14456 349.575 385.5508 349.575ZM385.4102 343.8875Q384.75394 343.8875 384.3008 344.3719Q383.8633 344.84064 383.76956 345.7L386.94144 345.7L386.94144 345.6219Q386.89456 344.79376 386.4883 344.34064Q386.0977 343.8875 385.4102 343.8875Z" fill-rule="nonzero"/><path fill="#000000" d="M491.33997 345.46564Q491.33997 346.71564 490.9181 347.65314Q490.49622 348.575 489.71497 349.075Q488.94934 349.575 487.9181 349.575Q486.9181 349.575 486.13684 349.075Q485.3556 348.575 484.9181 347.66876Q484.49622 346.7469 484.4806 345.52814L484.4806 344.91876Q484.4806 343.6844 484.90247 342.7469Q485.33997 341.8094 486.12122 341.3094Q486.90247 340.79376 487.9181 340.79376Q488.93372 340.79376 489.71497 341.29376Q490.49622 341.79376 490.9181 342.73126Q491.33997 343.66876 491.33997 344.91876L491.33997 345.46564ZM490.2306 344.90314Q490.2306 343.3875 489.62122 342.575Q489.01184 341.7625 487.9181 341.7625Q486.83997 341.7625 486.2306 342.575Q485.62122 343.3875 485.6056 344.825L485.6056 345.46564Q485.6056 346.9344 486.21497 347.77814Q486.83997 348.60626 487.9181 348.60626Q489.01184 348.60626 489.6056 347.825Q490.21497 347.02814 490.2306 345.54376L490.2306 344.90314ZM494.08997 341.575L494.08997 343.10626L495.26184 343.10626L495.26184 343.95L494.08997 343.95L494.08997 347.8719Q494.08997 348.2625 494.24622 348.45Q494.40247 348.6375 494.77747 348.6375Q494.96497 348.6375 495.2931 348.575L495.2931 349.45Q494.87122 349.575 494.46497 349.575Q493.74622 349.575 493.37122 349.1375Q492.99622 348.6844 492.99622 347.8719L492.99622 343.95L491.83997 343.95L491.83997 343.10626L492.99622 343.10626L492.99622 341.575L494.08997 341.575ZM497.69934 343.8719Q498.4181 342.9969 499.57434 342.9969Q501.58997 342.9969 501.6056 345.2625L501.6056 349.45L500.51184 349.45L500.51184 345.2469Q500.51184 344.575 500.19934 344.2469Q499.90247 343.91876 499.24622 343.91876Q498.71497 343.91876 498.30872 344.2Q497.9181 344.48126 497.69934 344.9344L497.69934 349.45L496.62122 349.45L496.62122 340.45L497.69934 340.45L497.69934 343.8719ZM506.24622 349.575Q504.94934 349.575 504.13684 348.73126Q503.33997 347.8719 503.33997 346.45L503.33997 346.2625Q503.33997 345.3094 503.69934 344.575Q504.05872 343.825 504.69934 343.41876Q505.3556 342.9969 506.1056 342.9969Q507.33997 342.9969 508.02747 343.8094Q508.71497 344.6219 508.71497 346.1375L508.71497 346.59064L504.4181 346.59064Q504.44934 347.52814 504.96497 348.10626Q505.49622 348.6844 506.30872 348.6844Q506.87122 348.6844 507.26184 348.45Q507.6681 348.21564 507.9806 347.825L508.63684 348.34064Q507.83997 349.575 506.24622 349.575ZM506.1056 343.8875Q505.44934 343.8875 504.99622 344.3719Q504.55872 344.84064 504.46497 345.7L507.63684 345.7L507.63684 345.6219Q507.58997 344.79376 507.18372 344.34064Q506.7931 343.8875 506.1056 343.8875ZM512.6837 344.075Q512.4337 344.04376 512.15247 344.04376Q511.07434 344.04376 510.69934 344.95L510.69934 349.45L509.62122 349.45L509.62122 343.10626L510.6681 343.10626L510.68372 343.84064Q511.21497 342.9969 512.19934 342.9969Q512.51184 342.9969 512.6837 343.075L512.6837 344.075Z" fill-rule="nonzero"/><path fill="#b6d7a8" d="M202.5 57.416668C202.5 56.864384 202.94771 56.416668 203.5 56.416668L213.5 56.416668C214.05229 56.416668 214.5 56.864384 214.5 57.416668L214.5 67.416664C214.5 67.96895 214.05229 68.416664 213.5 68.416664L203.5 68.416664C202.94771 68.416664 202.5 67.96895 202.5 67.416664Z" fill-rule="nonzero"/><path fill="#000000" d="M229.79688 65.791664Q229.35938 66.416664 228.57812 66.729164Q227.79688 67.041664 226.76562 67.041664Q225.73438 67.041664 224.92188 66.55729Q224.10938 66.05729 223.67188 65.15104Q223.23438 64.24479 223.21875 63.05729L223.21875 62.322914Q223.21875 60.385414 224.10938 59.322914Q225.01562 58.260414 226.64062 58.260414Q227.98438 58.260414 228.79688 58.947914Q229.60938 59.635414 229.79688 60.885414L228.67188 60.885414Q228.34375 59.197914 226.65625 59.197914Q225.51562 59.197914 224.9375 59.99479Q224.35938 60.77604 224.34375 62.291664L224.34375 62.979164Q224.34375 64.416664 225.0 65.27604Q225.65625 66.11979 226.78125 66.11979Q227.40625 66.11979 227.875 65.979164Q228.35938 65.83854 228.67188 65.49479L228.67188 63.58854L226.70312 63.58854L226.70312 62.666664L229.79688 62.666664L229.79688 65.791664ZM232.5 66.916664L231.42188 66.916664L231.42188 57.916664L232.5 57.916664L232.5 66.916664ZM234.03125 63.68229Q234.03125 62.760414 234.39062 62.010414Q234.76562 61.260414 235.42188 60.86979Q236.07812 60.46354 236.90625 60.46354Q238.20312 60.46354 239.0 61.354164Q239.8125 62.24479 239.8125 63.74479L239.8125 63.822914Q239.8125 64.74479 239.45312 65.479164Q239.09375 66.21354 238.4375 66.635414Q237.78125 67.041664 236.92188 67.041664Q235.64062 67.041664 234.82812 66.15104Q234.03125 65.24479 234.03125 63.760414L234.03125 63.68229ZM235.125 63.822914Q235.125 64.86979 235.60938 65.510414Q236.10938 66.15104 236.92188 66.15104Q237.75 66.15104 238.23438 65.510414Q238.71875 64.854164 238.71875 63.68229Q238.71875 62.65104 238.21875 62.010414Q237.73438 61.354164 236.90625 61.354164Q236.10938 61.354164 235.60938 61.99479Q235.125 62.61979 235.125 63.822914ZM246.6875 63.822914Q246.6875 65.27604 246.01562 66.166664Q245.35938 67.041664 244.23438 67.041664Q243.03125 67.041664 242.375 66.18229L242.3125 66.916664L241.32812 66.916664L241.32812 57.916664L242.40625 57.916664L242.40625 61.27604Q243.0625 60.46354 244.21875 60.46354Q245.375 60.46354 246.03125 61.33854Q246.6875 62.197914 246.6875 63.729164L246.6875 63.822914ZM245.60938 63.697914Q245.60938 62.58854 245.17188 61.99479Q244.75 61.385414 243.95312 61.385414Q242.875 61.385414 242.40625 62.36979L242.40625 65.11979Q242.90625 66.11979 243.95312 66.11979Q244.73438 66.11979 245.17188 65.510414Q245.60938 64.90104 245.60938 63.697914ZM252.23438 66.916664Q252.14062 66.729164 252.07812 66.24479Q251.32812 67.041664 250.28125 67.041664Q249.34375 67.041664 248.73438 66.510414Q248.14062 65.979164 248.14062 65.15104Q248.14062 64.166664 248.89062 63.61979Q249.64062 63.072914 251.01562 63.072914L252.0625 63.072914L252.0625 62.572914Q252.0625 62.010414 251.71875 61.68229Q251.39062 61.33854 250.71875 61.33854Q250.14062 61.33854 249.75 61.635414Q249.35938 61.916664 249.35938 62.33854L248.26562 62.33854Q248.26562 61.854164 248.59375 61.416664Q248.9375 60.979164 249.51562 60.729164Q250.09375 60.46354 250.78125 60.46354Q251.89062 60.46354 252.5 61.010414Q253.125 61.55729 253.15625 62.510414L253.15625 65.43229Q253.15625 66.30729 253.375 66.822914L253.375 66.916664L252.23438 66.916664ZM250.4375 66.08854Q250.95312 66.08854 251.40625 65.822914Q251.85938 65.55729 252.0625 65.135414L252.0625 63.83854L251.21875 63.83854Q249.21875 63.83854 249.21875 65.010414Q249.21875 65.510414 249.5625 65.80729Q249.90625 66.08854 250.4375 66.08854ZM256.5 66.916664L255.42188 66.916664L255.42188 57.916664L256.5 57.916664L256.5 66.916664ZM268.04688 66.916664L266.92188 66.916664L262.625 60.33854L262.625 66.916664L261.48438 66.916664L261.48438 58.385414L262.625 58.385414L266.92188 64.99479L266.92188 58.385414L268.04688 58.385414L268.04688 66.916664ZM270.03125 63.68229Q270.03125 62.760414 270.39062 62.010414Q270.76562 61.260414 271.42188 60.86979Q272.07812 60.46354 272.90625 60.46354Q274.20312 60.46354 275.0 61.354164Q275.8125 62.24479 275.8125 63.74479L275.8125 63.822914Q275.8125 64.74479 275.45312 65.479164Q275.09375 66.21354 274.4375 66.635414Q273.78125 67.041664 272.92188 67.041664Q271.64062 67.041664 270.82812 66.15104Q270.03125 65.24479 270.03125 63.760414L270.03125 63.68229ZM271.125 63.822914Q271.125 64.86979 271.60938 65.510414Q272.10938 66.15104 272.92188 66.15104Q273.75 66.15104 274.23438 65.510414Q274.71875 64.854164 274.71875 63.68229Q274.71875 62.65104 274.21875 62.010414Q273.73438 61.354164 272.90625 61.354164Q272.10938 61.354164 271.60938 61.99479Q271.125 62.61979 271.125 63.822914ZM280.39062 61.541664Q280.14062 61.510414 279.85938 61.510414Q278.78125 61.510414 278.40625 62.416664L278.40625 66.916664L277.32812 66.916664L277.32812 60.572914L278.375 60.572914L278.39062 61.30729Q278.92188 60.46354 279.90625 60.46354Q280.21875 60.46354 280.39062 60.541664L280.39062 61.541664ZM282.79688 59.041664L282.79688 60.572914L283.96875 60.572914L283.96875 61.416664L282.79688 61.416664L282.79688 65.33854Q282.79688 65.729164 282.95312 65.916664Q283.10938 66.104164 283.48438 66.104164Q283.67188 66.104164 284.0 66.041664L284.0 66.916664Q283.57812 67.041664 283.17188 67.041664Q282.45312 67.041664 282.07812 66.604164Q281.70312 66.15104 281.70312 65.33854L281.70312 61.416664L280.54688 61.416664L280.54688 60.572914L281.70312 60.572914L281.70312 59.041664L282.79688 59.041664ZM286.40625 61.33854Q287.125 60.46354 288.28125 60.46354Q290.29688 60.46354 290.3125 62.729164L290.3125 66.916664L289.21875 66.916664L289.21875 62.71354Q289.21875 62.041664 288.90625 61.71354Q288.60938 61.385414 287.95312 61.385414Q287.42188 61.385414 287.01562 61.666664Q286.625 61.947914 286.40625 62.40104L286.40625 66.916664L285.32812 66.916664L285.32812 57.916664L286.40625 57.916664L286.40625 61.33854Z" fill-rule="nonzero"/><path fill="#ffd966" d="M307.5 57.416668C307.5 56.864384 307.94772 56.416668 308.5 56.416668L318.5 56.416668C319.05228 56.416668 319.5 56.864384 319.5 57.416668L319.5 67.416664C319.5 67.96895 319.05228 68.416664 318.5 68.416664L308.5 68.416664C307.94772 68.416664 307.5 67.96895 307.5 67.416664Z" fill-rule="nonzero"/><path fill="#000000" d="M334.79688 65.791664Q334.35938 66.416664 333.57812 66.729164Q332.79688 67.041664 331.76562 67.041664Q330.73438 67.041664 329.92188 66.55729Q329.10938 66.05729 328.67188 65.15104Q328.23438 64.24479 328.21875 63.05729L328.21875 62.322914Q328.21875 60.385414 329.10938 59.322914Q330.01562 58.260414 331.64062 58.260414Q332.98438 58.260414 333.79688 58.947914Q334.60938 59.635414 334.79688 60.885414L333.67188 60.885414Q333.34375 59.197914 331.65625 59.197914Q330.51562 59.197914 329.9375 59.99479Q329.35938 60.77604 329.34375 62.291664L329.34375 62.979164Q329.34375 64.416664 330.0 65.27604Q330.65625 66.11979 331.78125 66.11979Q332.40625 66.11979 332.875 65.979164Q333.35938 65.83854 333.67188 65.49479L333.67188 63.58854L331.70312 63.58854L331.70312 62.666664L334.79688 62.666664L334.79688 65.791664ZM337.5 66.916664L336.42188 66.916664L336.42188 57.916664L337.5 57.916664L337.5 66.916664ZM339.03125 63.68229Q339.03125 62.760414 339.39062 62.010414Q339.76562 61.260414 340.42188 60.86979Q341.07812 60.46354 341.90625 60.46354Q343.20312 60.46354 344.0 61.354164Q344.8125 62.24479 344.8125 63.74479L344.8125 63.822914Q344.8125 64.74479 344.45312 65.479164Q344.09375 66.21354 343.4375 66.635414Q342.78125 67.041664 341.92188 67.041664Q340.64062 67.041664 339.82812 66.15104Q339.03125 65.24479 339.03125 63.760414L339.03125 63.68229ZM340.125 63.822914Q340.125 64.86979 340.60938 65.510414Q341.10938 66.15104 341.92188 66.15104Q342.75 66.15104 343.23438 65.510414Q343.71875 64.854164 343.71875 63.68229Q343.71875 62.65104 343.21875 62.010414Q342.73438 61.354164 341.90625 61.354164Q341.10938 61.354164 340.60938 61.99479Q340.125 62.61979 340.125 63.822914ZM351.6875 63.822914Q351.6875 65.27604 351.01562 66.166664Q350.35938 67.041664 349.23438 67.041664Q348.03125 67.041664 347.375 66.18229L347.3125 66.916664L346.32812 66.916664L346.32812 57.916664L347.40625 57.916664L347.40625 61.27604Q348.0625 60.46354 349.21875 60.46354Q350.375 60.46354 351.03125 61.33854Q351.6875 62.197914 351.6875 63.729164L351.6875 63.822914ZM350.60938 63.697914Q350.60938 62.58854 350.17188 61.99479Q349.75 61.385414 348.95312 61.385414Q347.875 61.385414 347.40625 62.36979L347.40625 65.11979Q347.90625 66.11979 348.95312 66.11979Q349.73438 66.11979 350.17188 65.510414Q350.60938 64.90104 350.60938 63.697914ZM357.23438 66.916664Q357.14062 66.729164 357.07812 66.24479Q356.32812 67.041664 355.28125 67.041664Q354.34375 67.041664 353.73438 66.510414Q353.14062 65.979164 353.14062 65.15104Q353.14062 64.166664 353.89062 63.61979Q354.64062 63.072914 356.01562 63.072914L357.0625 63.072914L357.0625 62.572914Q357.0625 62.010414 356.71875 61.68229Q356.39062 61.33854 355.71875 61.33854Q355.14062 61.33854 354.75 61.635414Q354.35938 61.916664 354.35938 62.33854L353.26562 62.33854Q353.26562 61.854164 353.59375 61.416664Q353.9375 60.979164 354.51562 60.729164Q355.09375 60.46354 355.78125 60.46354Q356.89062 60.46354 357.5 61.010414Q358.125 61.55729 358.15625 62.510414L358.15625 65.43229Q358.15625 66.30729 358.375 66.822914L358.375 66.916664L357.23438 66.916664ZM355.4375 66.08854Q355.95312 66.08854 356.40625 65.822914Q356.85938 65.55729 357.0625 65.135414L357.0625 63.83854L356.21875 63.83854Q354.21875 63.83854 354.21875 65.010414Q354.21875 65.510414 354.5625 65.80729Q354.90625 66.08854 355.4375 66.08854ZM361.5 66.916664L360.42188 66.916664L360.42188 57.916664L361.5 57.916664L361.5 66.916664ZM369.0 63.11979Q367.5625 62.697914 366.89062 62.08854Q366.23438 61.479164 366.23438 60.58854Q366.23438 59.58854 367.03125 58.93229Q367.84375 58.260414 369.14062 58.260414Q370.01562 58.260414 370.70312 58.604164Q371.39062 58.947914 371.76562 59.541664Q372.15625 60.135414 372.15625 60.854164L371.01562 60.854164Q371.01562 60.072914 370.51562 59.635414Q370.03125 59.197914 369.14062 59.197914Q368.3125 59.197914 367.84375 59.572914Q367.375 59.93229 367.375 60.572914Q367.375 61.104164 367.8125 61.46354Q368.26562 61.822914 369.32812 62.11979Q370.39062 62.416664 370.98438 62.77604Q371.59375 63.135414 371.875 63.61979Q372.17188 64.104164 372.17188 64.74479Q372.17188 65.791664 371.35938 66.416664Q370.54688 67.041664 369.20312 67.041664Q368.3125 67.041664 367.54688 66.697914Q366.79688 66.354164 366.375 65.77604Q365.96875 65.18229 365.96875 64.447914L367.09375 64.447914Q367.09375 65.21354 367.67188 65.666664Q368.25 66.11979 369.20312 66.11979Q370.09375 66.11979 370.5625 65.760414Q371.03125 65.385414 371.03125 64.760414Q371.03125 64.135414 370.59375 63.791664Q370.15625 63.447914 369.0 63.11979ZM373.03125 63.68229Q373.03125 62.760414 373.39062 62.010414Q373.76562 61.260414 374.42188 60.86979Q375.07812 60.46354 375.90625 60.46354Q377.20312 60.46354 378.0 61.354164Q378.8125 62.24479 378.8125 63.74479L378.8125 63.822914Q378.8125 64.74479 378.45312 65.479164Q378.09375 66.21354 377.4375 66.635414Q376.78125 67.041664 375.92188 67.041664Q374.64062 67.041664 373.82812 66.15104Q373.03125 65.24479 373.03125 63.760414L373.03125 63.68229ZM374.125 63.822914Q374.125 64.86979 374.60938 65.510414Q375.10938 66.15104 375.92188 66.15104Q376.75 66.15104 377.23438 65.510414Q377.71875 64.854164 377.71875 63.68229Q377.71875 62.65104 377.21875 62.010414Q376.73438 61.354164 375.90625 61.354164Q375.10938 61.354164 374.60938 61.99479Q374.125 62.61979 374.125 63.822914ZM384.23438 66.291664Q383.60938 67.041664 382.375 67.041664Q381.35938 67.041664 380.82812 66.447914Q380.29688 65.854164 380.29688 64.697914L380.29688 60.572914L381.375 60.572914L381.375 64.666664Q381.375 66.11979 382.54688 66.11979Q383.79688 66.11979 384.20312 65.18229L384.20312 60.572914L385.29688 60.572914L385.29688 66.916664L384.26562 66.916664L384.23438 66.291664ZM388.79688 59.041664L388.79688 60.572914L389.96875 60.572914L389.96875 61.416664L388.79688 61.416664L388.79688 65.33854Q388.79688 65.729164 388.95312 65.916664Q389.10938 66.104164 389.48438 66.104164Q389.67188 66.104164 390.0 66.041664L390.0 66.916664Q389.57812 67.041664 389.17188 67.041664Q388.45312 67.041664 388.07812 66.604164Q387.70312 66.15104 387.70312 65.33854L387.70312 61.416664L386.54688 61.416664L386.54688 60.572914L387.70312 60.572914L387.70312 59.041664L388.79688 59.041664ZM392.40625 61.33854Q393.125 60.46354 394.28125 60.46354Q396.29688 60.46354 396.3125 62.729164L396.3125 66.916664L395.21875 66.916664L395.21875 62.71354Q395.21875 62.041664 394.90625 61.71354Q394.60938 61.385414 393.95312 61.385414Q393.42188 61.385414 393.01562 61.666664Q392.625 61.947914 392.40625 62.40104L392.40625 66.916664L391.32812 66.916664L391.32812 57.916664L392.40625 57.916664L392.40625 61.33854Z" fill-rule="nonzero"/><path fill="#000000" d="M30.70625 35.690624Q29.971874 36.721874 28.675 37.2375Q27.39375 37.753124 25.675 37.753124Q23.925 37.753124 22.58125 36.940624Q21.2375 36.1125 20.503124 34.6125Q19.76875 33.1125 19.7375 31.128124L19.7375 29.878124Q19.7375 26.675 21.2375 24.909374Q22.7375 23.128124 25.45625 23.128124Q27.675 23.128124 29.034374 24.26875Q30.39375 25.409374 30.70625 27.503124L28.83125 27.503124Q28.3 24.675 25.471874 24.675Q23.58125 24.675 22.6125 26.003124Q21.64375 27.33125 21.628124 29.83125L21.628124 31.003124Q21.628124 33.39375 22.721874 34.8Q23.815624 36.20625 25.675 36.20625Q26.7375 36.20625 27.51875 35.971874Q28.315624 35.7375 28.83125 35.190624L28.83125 31.9875L25.55 31.9875L25.55 30.471874L30.70625 30.471874L30.70625 35.690624ZM38.3 37.753124Q36.159374 37.753124 34.8 36.346874Q33.45625 34.925 33.45625 32.565624L33.45625 32.221874Q33.45625 30.659374 34.05 29.425Q34.659374 28.190624 35.7375 27.4875Q36.815624 26.784374 38.08125 26.784374Q40.14375 26.784374 41.284374 28.14375Q42.425 29.503124 42.425 32.034374L42.425 32.784374L35.26875 32.784374Q35.3 34.346874 36.175 35.315624Q37.05 36.26875 38.39375 36.26875Q39.3625 36.26875 40.01875 35.878124Q40.690624 35.4875 41.190624 34.846874L42.284374 35.70625Q40.95625 37.753124 38.3 37.753124ZM38.08125 28.26875Q36.9875 28.26875 36.2375 29.065624Q35.503124 29.8625 35.33125 31.3L40.6125 31.3L40.6125 31.159374Q40.534374 29.784374 39.8625 29.034374Q39.20625 28.26875 38.08125 28.26875ZM46.628124 26.9875L46.690624 28.315624Q47.89375 26.784374 49.846874 26.784374Q53.20625 26.784374 53.221874 30.565624L53.221874 37.55L51.425 37.55L51.425 30.55Q51.409374 29.409374 50.89375 28.8625Q50.39375 28.315624 49.3 28.315624Q48.425 28.315624 47.753124 28.784374Q47.096874 29.253124 46.721874 30.01875L46.721874 37.55L44.925 37.55L44.925 26.9875L46.628124 26.9875ZM55.471874 32.175Q55.471874 29.753124 56.628124 28.26875Q57.784374 26.784374 59.64375 26.784374Q61.503124 26.784374 62.58125 28.05L62.58125 22.55L64.39375 22.55L64.39375 37.55L62.7375 37.55L62.64375 36.409374Q61.565624 37.753124 59.628124 37.753124Q57.8 37.753124 56.628124 36.253124Q55.471874 34.7375 55.471874 32.315624L55.471874 32.175ZM57.284374 32.378124Q57.284374 34.175 58.01875 35.190624Q58.76875 36.20625 60.08125 36.20625Q61.8 36.20625 62.58125 34.675L62.58125 29.815624Q61.784374 28.315624 60.096874 28.315624Q58.76875 28.315624 58.01875 29.346874Q57.284374 30.378124 57.284374 32.378124ZM71.3 37.753124Q69.15938 37.753124 67.8 36.346874Q66.45625 34.925 66.45625 32.565624L66.45625 32.221874Q66.45625 30.659374 67.05 29.425Q67.65938 28.190624 68.7375 27.4875Q69.81563 26.784374 71.08125 26.784374Q73.14375 26.784374 74.28438 28.14375Q75.425 29.503124 75.425 32.034374L75.425 32.784374L68.26875 32.784374Q68.3 34.346874 69.175 35.315624Q70.05 36.26875 71.39375 36.26875Q72.3625 36.26875 73.01875 35.878124Q73.69063 35.4875 74.19063 34.846874L75.28438 35.70625Q73.95625 37.753124 71.3 37.753124ZM71.08125 28.26875Q69.9875 28.26875 69.2375 29.065624Q68.50313 29.8625 68.33125 31.3L73.6125 31.3L73.6125 31.159374Q73.53438 29.784374 72.8625 29.034374Q72.20625 28.26875 71.08125 28.26875ZM83.01875 28.596874Q82.6125 28.534374 82.14375 28.534374Q80.3625 28.534374 79.72188 30.05L79.72188 37.55L77.925 37.55L77.925 26.9875L79.675 26.9875L79.70625 28.20625Q80.59688 26.784374 82.22188 26.784374Q82.75313 26.784374 83.01875 26.925L83.01875 28.596874Z" fill-rule="nonzero"/></svg>