<svg version="1.1" viewBox="0.0 0.0 600.0 371.0" fill="none" stroke="none" stroke-linecap="square" stroke-miterlimit="10" width="600" height="371" xmlns:xlink="http://www.w3.org/1999/xlink" xmlns="http://www.w3.org/2000/svg"><path fill="#ffffff" d="M0 0L600.0 0L600.0 371.0L0 371.0L0 0Z" fill-rule="nonzero"/><path stroke="#333333" stroke-width="1.0" stroke-linecap="butt" d="M45.5 331.5L581.5 331.5" fill-rule="nonzero"/><path stroke="#000000" stroke-width="1.0" stroke-linecap="butt" d="M45.5 283.5L581.5 283.5" fill-rule="nonzero"/><path stroke="#000000" stroke-width="1.0" stroke-linecap="butt" d="M45.5 234.5L581.5 234.5" fill-rule="nonzero"/><path stroke="#000000" stroke-width="1.0" stroke-linecap="butt" d="M45.5 186.5L581.5 186.5" fill-rule="nonzero"/><path stroke="#000000" stroke-width="1.0" stroke-linecap="butt" d="M45.5 138.5L581.5 138.5" fill-rule="nonzero"/><path stroke="#000000" stroke-width="1.0" stroke-linecap="butt" d="M45.5 89.5L581.5 89.5" fill-rule="nonzero"/><clipPath id="id_0"><path d="M45.55 89.78333L581.45 89.78333L581.45 331.45L45.55 331.45L45.55 89.78333Z" clip-rule="nonzero"/></clipPath><path stroke="#000000" stroke-width="0.0" stroke-linecap="butt" stroke-opacity="0.0" clip-path="url(#id_0)" d="M198.0 331.0L125.0 331.0L125.0 179.0C125.0 177.89543 125.89543 177.0 127.0 177.0L196.0 177.0C197.10457 177.0 198.0 177.89543 198.0 179.0Z" fill-rule="nonzero"/><path fill="#b6d7a8" clip-path="url(#id_0)" d="M198.0 331.0L125.0 331.0L125.0 179.0C125.0 177.89543 125.89543 177.0 127.0 177.0L196.0 177.0C197.10457 177.0 198.0 177.89543 198.0 179.0Z" fill-rule="nonzero"/><path stroke="#000000" stroke-width="0.0" stroke-linecap="butt" stroke-opacity="0.0" clip-path="url(#id_0)" d="M427.0 331.0L354.0 331.0L354.0 287.0C354.0 285.89542 354.89542 285.0 356.0 285.0L425.0 285.0C426.10458 285.0 427.0 285.89542 427.0 287.0Z" fill-rule="nonzero"/><path fill="#b6d7a8" clip-path="url(#id_0)" d="M427.0 331.0L354.0 331.0L354.0 287.0C354.0 285.89542 354.89542 285.0 356.0 285.0L425.0 285.0C426.10458 285.0 427.0 285.89542 427.0 287.0Z" fill-rule="nonzero"/><path stroke="#000000" stroke-width="0.0" stroke-linecap="butt" stroke-opacity="0.0" clip-path="url(#id_0)" d="M272.0 331.0L199.0 331.0L199.0 132.0C199.0 130.89543 199.89543 130.0 201.0 130.0L270.0 130.0C271.10458 130.0 272.0 130.89543 272.0 132.0Z" fill-rule="nonzero"/><path fill="#ffd966" clip-path="url(#id_0)" d="M272.0 331.0L199.0 331.0L199.0 132.0C199.0 130.89543 199.89543 130.0 201.0 130.0L270.0 130.0C271.10458 130.0 272.0 130.89543 272.0 132.0Z" fill-rule="nonzero"/><path stroke="#000000" stroke-width="0.0" stroke-linecap="butt" stroke-opacity="0.0" clip-path="url(#id_0)" d="M501.0 331.0L428.0 331.0L428.0 258.0C428.0 256.89542 428.89542 256.0 430.0 256.0L499.0 256.0C500.10458 256.0 501.0 256.89542 501.0 258.0Z" fill-rule="nonzero"/><path fill="#ffd966" clip-path="url(#id_0)" d="M501.0 331.0L428.0 331.0L428.0 258.0C428.0 256.89542 428.89542 256.0 430.0 256.0L499.0 256.0C500.10458 256.0 501.0 256.89542 501.0 258.0Z" fill-rule="nonzero"/><path fill="#000000" d="M38.6125 332.3094Q38.6125 334.21564 37.95625 335.15314Q37.315624 336.075 35.925 336.075Q34.565624 336.075 33.909374 335.16876Q33.253124 334.2625 33.221874 332.45L33.221874 331.0125Q33.221874 329.1219 33.8625 328.21564Q34.51875 327.29376 35.909374 327.29376Q37.284374 327.29376 37.940624 328.1844Q38.596874 329.0594 38.6125 330.90314L38.6125 332.3094ZM37.51875 330.825Q37.51875 329.45 37.128124 328.825Q36.753124 328.1844 35.909374 328.1844Q35.08125 328.1844 34.690624 328.825Q34.315624 329.45 34.315624 330.7469L34.315624 332.48126Q34.315624 333.85626 34.70625 334.52814Q35.1125 335.1844 35.925 335.1844Q36.721874 335.1844 37.1125 334.5594Q37.503124 333.9344 37.51875 332.60626L37.51875 330.825Z" fill-rule="nonzero"/><path fill="#000000" d="M31.846874 287.61667L26.253124 287.61667L26.253124 286.83542L29.20625 283.55417Q29.8625 282.80417 30.1125 282.35104Q30.3625 281.8823 30.3625 281.3823Q30.3625 280.71042 29.95625 280.28854Q29.565624 279.85104 28.878124 279.85104Q28.08125 279.85104 27.628124 280.3198Q27.175 280.77292 27.175 281.60104L26.096874 281.60104Q26.096874 280.41354 26.846874 279.6948Q27.6125 278.96042 28.878124 278.96042Q30.08125 278.96042 30.76875 279.58542Q31.45625 280.21042 31.45625 281.2573Q31.45625 282.5073 29.846874 284.2573L27.565624 286.72604L31.846874 286.72604L31.846874 287.61667ZM33.753124 283.33542L34.190624 279.08542L38.565624 279.08542L38.565624 280.08542L35.1125 280.08542L34.846874 282.41354Q35.4875 282.03854 36.284374 282.03854Q37.440624 282.03854 38.128124 282.8198Q38.815624 283.58542 38.815624 284.89792Q38.815624 286.21042 38.096874 286.97604Q37.39375 287.74167 36.1125 287.74167Q34.9875 287.74167 34.26875 287.11667Q33.55 286.47604 33.45625 285.36667L34.471874 285.36667Q34.58125 286.10104 35.003124 286.47604Q35.425 286.85104 36.1125 286.85104Q36.8625 286.85104 37.3 286.33542Q37.7375 285.8198 37.7375 284.91354Q37.7375 284.05417 37.26875 283.53854Q36.8 283.02292 36.01875 283.02292Q35.315624 283.02292 34.909374 283.3198L34.628124 283.55417L33.753124 283.33542Z" fill-rule="nonzero"/><path fill="#000000" d="M26.753124 235.00209L27.190624 230.75209L31.565624 230.75209L31.565624 231.75209L28.1125 231.75209L27.846874 234.08022Q28.4875 233.70522 29.284374 233.70522Q30.440624 233.70522 31.128124 234.48647Q31.815624 235.25209 31.815624 236.56459Q31.815624 237.87709 31.096874 238.64272Q30.39375 239.40834 29.1125 239.40834Q27.9875 239.40834 27.26875 238.78334Q26.55 238.14272 26.45625 237.03334L27.471874 237.03334Q27.58125 237.76772 28.003124 238.14272Q28.425 238.51772 29.1125 238.51772Q29.8625 238.51772 30.3 238.00209Q30.7375 237.48647 30.7375 236.58022Q30.7375 235.72084 30.26875 235.20522Q29.8 234.68959 29.01875 234.68959Q28.315624 234.68959 27.909374 234.98647L27.628124 235.22084L26.753124 235.00209ZM38.6125 235.64272Q38.6125 237.54897 37.95625 238.48647Q37.315624 239.40834 35.925 239.40834Q34.565624 239.40834 33.909374 238.50209Q33.253124 237.59584 33.221874 235.78334L33.221874 234.34584Q33.221874 232.45522 33.8625 231.54897Q34.51875 230.62709 35.909374 230.62709Q37.284374 230.62709 37.940624 231.51772Q38.596874 232.39272 38.6125 234.23647L38.6125 235.64272ZM37.51875 234.15834Q37.51875 232.78334 37.128124 232.15834Q36.753124 231.51772 35.909374 231.51772Q35.08125 231.51772 34.690624 232.15834Q34.315624 232.78334 34.315624 234.08022L34.315624 235.81459Q34.315624 237.18959 34.70625 237.86147Q35.1125 238.51772 35.925 238.51772Q36.721874 238.51772 37.1125 237.89272Q37.503124 237.26772 37.51875 235.93959L37.51875 234.15834Z" fill-rule="nonzero"/><path fill="#000000" d="M31.76875 183.02812L28.2375 190.95L27.096874 190.95L30.6125 183.30937L26.003124 183.30937L26.003124 182.41875L31.76875 182.41875L31.76875 183.02812ZM33.753124 186.66875L34.190624 182.41875L38.565624 182.41875L38.565624 183.41875L35.1125 183.41875L34.846874 185.74687Q35.4875 185.37187 36.284374 185.37187Q37.440624 185.37187 38.128124 186.15312Q38.815624 186.91875 38.815624 188.23125Q38.815624 189.54375 38.096874 190.30937Q37.39375 191.075 36.1125 191.075Q34.9875 191.075 34.26875 190.45Q33.55 189.80937 33.45625 188.7L34.471874 188.7Q34.58125 189.43437 35.003124 189.80937Q35.425 190.18437 36.1125 190.18437Q36.8625 190.18437 37.3 189.66875Q37.7375 189.15312 37.7375 188.24687Q37.7375 187.3875 37.26875 186.87187Q36.8 186.35625 36.01875 186.35625Q35.315624 186.35625 34.909374 186.65312L34.628124 186.8875L33.753124 186.66875Z" fill-rule="nonzero"/><path fill="#000000" d="M22.815624 142.61667L21.7375 142.61667L21.7375 135.39792L19.55 136.1948L19.55 135.21042L22.659374 134.03854L22.815624 134.03854L22.815624 142.61667ZM31.6125 138.97604Q31.6125 140.8823 30.95625 141.8198Q30.315624 142.74167 28.925 142.74167Q27.565624 142.74167 26.909374 141.83542Q26.253124 140.92917 26.221874 139.11667L26.221874 137.67917Q26.221874 135.78854 26.8625 134.8823Q27.51875 133.96042 28.909374 133.96042Q30.284374 133.96042 30.940624 134.85104Q31.596874 135.72604 31.6125 137.5698L31.6125 138.97604ZM30.51875 137.49167Q30.51875 136.11667 30.128124 135.49167Q29.753124 134.85104 28.909374 134.85104Q28.08125 134.85104 27.690624 135.49167Q27.315624 136.11667 27.315624 137.41354L27.315624 139.14792Q27.315624 140.52292 27.70625 141.1948Q28.1125 141.85104 28.925 141.85104Q29.721874 141.85104 30.1125 141.22604Q30.503124 140.60104 30.51875 139.27292L30.51875 137.49167ZM38.6125 138.97604Q38.6125 140.8823 37.95625 141.8198Q37.315624 142.74167 35.925 142.74167Q34.565624 142.74167 33.909374 141.83542Q33.253124 140.92917 33.221874 139.11667L33.221874 137.67917Q33.221874 135.78854 33.8625 134.8823Q34.51875 133.96042 35.909374 133.96042Q37.284374 133.96042 37.940624 134.85104Q38.596874 135.72604 38.6125 137.5698L38.6125 138.97604ZM37.51875 137.49167Q37.51875 136.11667 37.128124 135.49167Q36.753124 134.85104 35.909374 134.85104Q35.08125 134.85104 34.690624 135.49167Q34.315624 136.11667 34.315624 137.41354L34.315624 139.14792Q34.315624 140.52292 34.70625 141.1948Q35.1125 141.85104 35.925 141.85104Q36.721874 141.85104 37.1125 141.22604Q37.503124 140.60104 37.51875 139.27292L37.51875 137.49167Z" fill-rule="nonzero"/><path fill="#000000" d="M22.815624 94.28333L21.7375 94.28333L21.7375 87.06458L19.55 87.86146L19.55 86.87708L22.659374 85.70521L22.815624 85.70521L22.815624 94.28333ZM31.846874 94.28333L26.253124 94.28333L26.253124 93.50208L29.20625 90.22083Q29.8625 89.47083 30.1125 89.01771Q30.3625 88.54896 30.3625 88.04896Q30.3625 87.37708 29.95625 86.95521Q29.565624 86.51771 28.878124 86.51771Q28.08125 86.51771 27.628124 86.98646Q27.175 87.43958 27.175 88.26771L26.096874 88.26771Q26.096874 87.08021 26.846874 86.36146Q27.6125 85.62708 28.878124 85.62708Q30.08125 85.62708 30.76875 86.25208Q31.45625 86.87708 31.45625 87.92396Q31.45625 89.17396 29.846874 90.92396L27.565624 93.39271L31.846874 93.39271L31.846874 94.28333ZM33.753124 90.00208L34.190624 85.75208L38.565624 85.75208L38.565624 86.75208L35.1125 86.75208L34.846874 89.08021Q35.4875 88.70521 36.284374 88.70521Q37.440624 88.70521 38.128124 89.48646Q38.815624 90.25208 38.815624 91.56458Q38.815624 92.87708 38.096874 93.64271Q37.39375 94.40833 36.1125 94.40833Q34.9875 94.40833 34.26875 93.78333Q33.55 93.14271 33.45625 92.03333L34.471874 92.03333Q34.58125 92.76771 35.003124 93.14271Q35.425 93.51771 36.1125 93.51771Q36.8625 93.51771 37.3 93.00208Q37.7375 92.48646 37.7375 91.58021Q37.7375 90.72083 37.26875 90.20521Q36.8 89.68958 36.01875 89.68958Q35.315624 89.68958 34.909374 89.98646L34.628124 90.22083L33.753124 90.00208Z" fill-rule="nonzero"/><path fill="#000000" d="M199.0256 349.45L197.9006 349.45L193.60373 342.8719L193.60373 349.45L192.4631 349.45L192.4631 340.91876L193.60373 340.91876L197.9006 347.52814L197.9006 340.91876L199.0256 340.91876L199.0256 349.45ZM201.00998 346.21564Q201.00998 345.29376 201.36935 344.54376Q201.74435 343.79376 202.4006 343.40314Q203.05685 342.9969 203.88498 342.9969Q205.18185 342.9969 205.97873 343.8875Q206.79123 344.77814 206.79123 346.27814L206.79123 346.35626Q206.79123 347.27814 206.43185 348.0125Q206.07248 348.7469 205.41623 349.16876Q204.75998 349.575 203.9006 349.575Q202.61935 349.575 201.80685 348.6844Q201.00998 347.77814 201.00998 346.29376L201.00998 346.21564ZM202.10373 346.35626Q202.10373 347.40314 202.5881 348.04376Q203.0881 348.6844 203.9006 348.6844Q204.72873 348.6844 205.2131 348.04376Q205.69748 347.3875 205.69748 346.21564Q205.69748 345.1844 205.19748 344.54376Q204.7131 343.8875 203.88498 343.8875Q203.0881 343.8875 202.5881 344.52814Q202.10373 345.15314 202.10373 346.35626Z" fill-rule="nonzero"/><path fill="#000000" d="M421.61502 345.2L423.83377 340.91876L425.11502 340.91876L422.17752 346.2625L422.17752 349.45L421.05252 349.45L421.05252 346.2625L418.11502 340.91876L419.39627 340.91876L421.61502 345.2ZM428.4744 349.575Q427.17752 349.575 426.36502 348.73126Q425.56815 347.8719 425.56815 346.45L425.56815 346.2625Q425.56815 345.3094 425.92752 344.575Q426.2869 343.825 426.92752 343.41876Q427.58377 342.9969 428.33377 342.9969Q429.56815 342.9969 430.25565 343.8094Q430.94315 344.6219 430.94315 346.1375L430.94315 346.59064L426.64627 346.59064Q426.67752 347.52814 427.19315 348.10626Q427.7244 348.6844 428.5369 348.6844Q429.0994 348.6844 429.49002 348.45Q429.89627 348.21564 430.20877 347.825L430.86502 348.34064Q430.06815 349.575 428.4744 349.575ZM428.33377 343.8875Q427.67752 343.8875 427.2244 344.3719Q426.7869 344.84064 426.69315 345.7L429.86502 345.7L429.86502 345.6219Q429.81815 344.79376 429.4119 344.34064Q429.02127 343.8875 428.33377 343.8875ZM435.5369 347.7625Q435.5369 347.325 435.19315 347.09064Q434.86502 346.84064 434.0369 346.66876Q433.2244 346.4969 432.74002 346.2469Q432.25565 345.9969 432.02127 345.66876Q431.80252 345.325 431.80252 344.85626Q431.80252 344.075 432.45877 343.54376Q433.11502 342.9969 434.14627 342.9969Q435.2244 342.9969 435.88065 343.5594Q436.55252 344.10626 436.55252 344.96564L435.4744 344.96564Q435.4744 344.52814 435.08377 344.21564Q434.70877 343.8875 434.14627 343.8875Q433.55252 343.8875 433.20877 344.15314Q432.88065 344.40314 432.88065 344.8094Q432.88065 345.2 433.19315 345.40314Q433.50565 345.60626 434.31815 345.79376Q435.13065 345.96564 435.63065 346.21564Q436.13065 346.46564 436.36502 346.825Q436.61502 347.1844 436.61502 347.6844Q436.61502 348.54376 435.92752 349.0594Q435.25565 349.575 434.17752 349.575Q433.4119 349.575 432.81815 349.3094Q432.24002 349.02814 431.9119 348.54376Q431.58377 348.0594 431.58377 347.4969L432.6619 347.4969Q432.69315 348.04376 433.0994 348.3719Q433.50565 348.6844 434.17752 348.6844Q434.7869 348.6844 435.1619 348.4344Q435.5369 348.1844 435.5369 347.7625Z" fill-rule="nonzero"/><path fill="#b6d7a8" d="M202.5 57.416668C202.5 56.864384 202.94771 56.416668 203.5 56.416668L213.5 56.416668C214.05229 56.416668 214.5 56.864384 214.5 57.416668L214.5 67.416664C214.5 67.96895 214.05229 68.416664 213.5 68.416664L203.5 68.416664C202.94771 68.416664 202.5 67.96895 202.5 67.416664Z" fill-rule="nonzero"/><path fill="#000000" d="M229.79688 65.791664Q229.35938 66.416664 228.57812 66.729164Q227.79688 67.041664 226.76562 67.041664Q225.73438 67.041664 224.92188 66.55729Q224.10938 66.05729 223.67188 65.15104Q223.23438 64.24479 223.21875 63.05729L223.21875 62.322914Q223.21875 60.385414 224.10938 59.322914Q225.01562 58.260414 226.64062 58.260414Q227.98438 58.260414 228.79688 58.947914Q229.60938 59.635414 229.79688 60.885414L228.67188 60.885414Q228.34375 59.197914 226.65625 59.197914Q225.51562 59.197914 224.9375 59.99479Q224.35938 60.77604 224.34375 62.291664L224.34375 62.979164Q224.34375 64.416664 225.0 65.27604Q225.65625 66.11979 226.78125 66.11979Q227.40625 66.11979 227.875 65.979164Q228.35938 65.83854 228.67188 65.49479L228.67188 63.58854L226.70312 63.58854L226.70312 62.666664L229.79688 62.666664L229.79688 65.791664ZM232.5 66.916664L231.42188 66.916664L231.42188 57.916664L232.5 57.916664L232.5 66.916664ZM234.03125 63.68229Q234.03125 62.760414 234.39062 62.010414Q234.76562 61.260414 235.42188 60.86979Q236.07812 60.46354 236.90625 60.46354Q238.20312 60.46354 239.0 61.354164Q239.8125 62.24479 239.8125 63.74479L239.8125 63.822914Q239.8125 64.74479 239.45312 65.479164Q239.09375 66.21354 238.4375 66.635414Q237.78125 67.041664 236.92188 67.041664Q235.64062 67.041664 234.82812 66.15104Q234.03125 65.24479 234.03125 63.760414L234.03125 63.68229ZM235.125 63.822914Q235.125 64.86979 235.60938 65.510414Q236.10938 66.15104 236.92188 66.15104Q237.75 66.15104 238.23438 65.510414Q238.71875 64.854164 238.71875 63.68229Q238.71875 62.65104 238.21875 62.010414Q237.73438 61.354164 236.90625 61.354164Q236.10938 61.354164 235.60938 61.99479Q235.125 62.61979 235.125 63.822914ZM246.6875 63.822914Q246.6875 65.27604 246.01562 66.166664Q245.35938 67.041664 244.23438 67.041664Q243.03125 67.041664 242.375 66.18229L242.3125 66.916664L241.32812 66.916664L241.32812 57.916664L242.40625 57.916664L242.40625 61.27604Q243.0625 60.46354 244.21875 60.46354Q245.375 60.46354 246.03125 61.33854Q246.6875 62.197914 246.6875 63.729164L246.6875 63.822914ZM245.60938 63.697914Q245.60938 62.58854 245.17188 61.99479Q244.75 61.385414 243.95312 61.385414Q242.875 61.385414 242.40625 62.36979L242.40625 65.11979Q242.90625 66.11979 243.95312 66.11979Q244.73438 66.11979 245.17188 65.510414Q245.60938 64.90104 245.60938 63.697914ZM252.23438 66.916664Q252.14062 66.729164 252.07812 66.24479Q251.32812 67.041664 250.28125 67.041664Q249.34375 67.041664 248.73438 66.510414Q248.14062 65.979164 248.14062 65.15104Q248.14062 64.166664 248.89062 63.61979Q249.64062 63.072914 251.01562 63.072914L252.0625 63.072914L252.0625 62.572914Q252.0625 62.010414 251.71875 61.68229Q251.39062 61.33854 250.71875 61.33854Q250.14062 61.33854 249.75 61.635414Q249.35938 61.916664 249.35938 62.33854L248.26562 62.33854Q248.26562 61.854164 248.59375 61.416664Q248.9375 60.979164 249.51562 60.729164Q250.09375 60.46354 250.78125 60.46354Q251.89062 60.46354 252.5 61.010414Q253.125 61.55729 253.15625 62.510414L253.15625 65.43229Q253.15625 66.30729 253.375 66.822914L253.375 66.916664L252.23438 66.916664ZM250.4375 66.08854Q250.95312 66.08854 251.40625 65.822914Q251.85938 65.55729 252.0625 65.135414L252.0625 63.83854L251.21875 63.83854Q249.21875 63.83854 249.21875 65.010414Q249.21875 65.510414 249.5625 65.80729Q249.90625 66.08854 250.4375 66.08854ZM256.5 66.916664L255.42188 66.916664L255.42188 57.916664L256.5 57.916664L256.5 66.916664ZM268.04688 66.916664L266.92188 66.916664L262.625 60.33854L262.625 66.916664L261.48438 66.916664L261.48438 58.385414L262.625 58.385414L266.92188 64.99479L266.92188 58.385414L268.04688 58.385414L268.04688 66.916664ZM270.03125 63.68229Q270.03125 62.760414 270.39062 62.010414Q270.76562 61.260414 271.42188 60.86979Q272.07812 60.46354 272.90625 60.46354Q274.20312 60.46354 275.0 61.354164Q275.8125 62.24479 275.8125 63.74479L275.8125 63.822914Q275.8125 64.74479 275.45312 65.479164Q275.09375 66.21354 274.4375 66.635414Q273.78125 67.041664 272.92188 67.041664Q271.64062 67.041664 270.82812 66.15104Q270.03125 65.24479 270.03125 63.760414L270.03125 63.68229ZM271.125 63.822914Q271.125 64.86979 271.60938 65.510414Q272.10938 66.15104 272.92188 66.15104Q273.75 66.15104 274.23438 65.510414Q274.71875 64.854164 274.71875 63.68229Q274.71875 62.65104 274.21875 62.010414Q273.73438 61.354164 272.90625 61.354164Q272.10938 61.354164 271.60938 61.99479Q271.125 62.61979 271.125 63.822914ZM280.39062 61.541664Q280.14062 61.510414 279.85938 61.510414Q278.78125 61.510414 278.40625 62.416664L278.40625 66.916664L277.32812 66.916664L277.32812 60.572914L278.375 60.572914L278.39062 61.30729Q278.92188 60.46354 279.90625 60.46354Q280.21875 60.46354 280.39062 60.541664L280.39062 61.541664ZM282.79688 59.041664L282.79688 60.572914L283.96875 60.572914L283.96875 61.416664L282.79688 61.416664L282.79688 65.33854Q282.79688 65.729164 282.95312 65.916664Q283.10938 66.104164 283.48438 66.104164Q283.67188 66.104164 284.0 66.041664L284.0 66.916664Q283.57812 67.041664 283.17188 67.041664Q282.45312 67.041664 282.07812 66.604164Q281.70312 66.15104 281.70312 65.33854L281.70312 61.416664L280.54688 61.416664L280.54688 60.572914L281.70312 60.572914L281.70312 59.041664L282.79688 59.041664ZM286.40625 61.33854Q287.125 60.46354 288.28125 60.46354Q290.29688 60.46354 290.3125 62.729164L290.3125 66.916664L289.21875 66.916664L289.21875 62.71354Q289.21875 62.041664 288.90625 61.71354Q288.60938 61.385414 287.95312 61.385414Q287.42188 61.385414 287.01562 61.666664Q286.625 61.947914 286.40625 62.40104L286.40625 66.916664L285.32812 66.916664L285.32812 57.916664L286.40625 57.916664L286.40625 61.33854Z" fill-rule="nonzero"/><path fill="#ffd966" d="M307.5 57.416668C307.5 56.864384 307.94772 56.416668 308.5 56.416668L318.5 56.416668C319.05228 56.416668 319.5 56.864384 319.5 57.416668L319.5 67.416664C319.5 67.96895 319.05228 68.416664 318.5 68.416664L308.5 68.416664C307.94772 68.416664 307.5 67.96895 307.5 67.416664Z" fill-rule="nonzero"/><path fill="#000000" d="M334.79688 65.791664Q334.35938 66.416664 333.57812 66.729164Q332.79688 67.041664 331.76562 67.041664Q330.73438 67.041664 329.92188 66.55729Q329.10938 66.05729 328.67188 65.15104Q328.23438 64.24479 328.21875 63.05729L328.21875 62.322914Q328.21875 60.385414 329.10938 59.322914Q330.01562 58.260414 331.64062 58.260414Q332.98438 58.260414 333.79688 58.947914Q334.60938 59.635414 334.79688 60.885414L333.67188 60.885414Q333.34375 59.197914 331.65625 59.197914Q330.51562 59.197914 329.9375 59.99479Q329.35938 60.77604 329.34375 62.291664L329.34375 62.979164Q329.34375 64.416664 330.0 65.27604Q330.65625 66.11979 331.78125 66.11979Q332.40625 66.11979 332.875 65.979164Q333.35938 65.83854 333.67188 65.49479L333.67188 63.58854L331.70312 63.58854L331.70312 62.666664L334.79688 62.666664L334.79688 65.791664ZM337.5 66.916664L336.42188 66.916664L336.42188 57.916664L337.5 57.916664L337.5 66.916664ZM339.03125 63.68229Q339.03125 62.760414 339.39062 62.010414Q339.76562 61.260414 340.42188 60.86979Q341.07812 60.46354 341.90625 60.46354Q343.20312 60.46354 344.0 61.354164Q344.8125 62.24479 344.8125 63.74479L344.8125 63.822914Q344.8125 64.74479 344.45312 65.479164Q344.09375 66.21354 343.4375 66.635414Q342.78125 67.041664 341.92188 67.041664Q340.64062 67.041664 339.82812 66.15104Q339.03125 65.24479 339.03125 63.760414L339.03125 63.68229ZM340.125 63.822914Q340.125 64.86979 340.60938 65.510414Q341.10938 66.15104 341.92188 66.15104Q342.75 66.15104 343.23438 65.510414Q343.71875 64.854164 343.71875 63.68229Q343.71875 62.65104 343.21875 62.010414Q342.73438 61.354164 341.90625 61.354164Q341.10938 61.354164 340.60938 61.99479Q340.125 62.61979 340.125 63.822914ZM351.6875 63.822914Q351.6875 65.27604 351.01562 66.166664Q350.35938 67.041664 349.23438 67.041664Q348.03125 67.041664 347.375 66.18229L347.3125 66.916664L346.32812 66.916664L346.32812 57.916664L347.40625 57.916664L347.40625 61.27604Q348.0625 60.46354 349.21875 60.46354Q350.375 60.46354 351.03125 61.33854Q351.6875 62.197914 351.6875 63.729164L351.6875 63.822914ZM350.60938 63.697914Q350.60938 62.58854 350.17188 61.99479Q349.75 61.385414 348.95312 61.385414Q347.875 61.385414 347.40625 62.36979L347.40625 65.11979Q347.90625 66.11979 348.95312 66.11979Q349.73438 66.11979 350.17188 65.510414Q350.60938 64.90104 350.60938 63.697914ZM357.23438 66.916664Q357.14062 66.729164 357.07812 66.24479Q356.32812 67.041664 355.28125 67.041664Q354.34375 67.041664 353.73438 66.510414Q353.14062 65.979164 353.14062 65.15104Q353.14062 64.166664 353.89062 63.61979Q354.64062 63.072914 356.01562 63.072914L357.0625 63.072914L357.0625 62.572914Q357.0625 62.010414 356.71875 61.68229Q356.39062 61.33854 355.71875 61.33854Q355.14062 61.33854 354.75 61.635414Q354.35938 61.916664 354.35938 62.33854L353.26562 62.33854Q353.26562 61.854164 353.59375 61.416664Q353.9375 60.979164 354.51562 60.729164Q355.09375 60.46354 355.78125 60.46354Q356.89062 60.46354 357.5 61.010414Q358.125 61.55729 358.15625 62.510414L358.15625 65.43229Q358.15625 66.30729 358.375 66.822914L358.375 66.916664L357.23438 66.916664ZM355.4375 66.08854Q355.95312 66.08854 356.40625 65.822914Q356.85938 65.55729 357.0625 65.135414L357.0625 63.83854L356.21875 63.83854Q354.21875 63.83854 354.21875 65.010414Q354.21875 65.510414 354.5625 65.80729Q354.90625 66.08854 355.4375 66.08854ZM361.5 66.916664L360.42188 66.916664L360.42188 57.916664L361.5 57.916664L361.5 66.916664ZM369.0 63.11979Q367.5625 62.697914 366.89062 62.08854Q366.23438 61.479164 366.23438 60.58854Q366.23438 59.58854 367.03125 58.93229Q367.84375 58.260414 369.14062 58.260414Q370.01562 58.260414 370.70312 58.604164Q371.39062 58.947914 371.76562 59.541664Q372.15625 60.135414 372.15625 60.854164L371.01562 60.854164Q371.01562 60.072914 370.51562 59.635414Q370.03125 59.197914 369.14062 59.197914Q368.3125 59.197914 367.84375 59.572914Q367.375 59.93229 367.375 60.572914Q367.375 61.104164 367.8125 61.46354Q368.26562 61.822914 369.32812 62.11979Q370.39062 62.416664 370.98438 62.77604Q371.59375 63.135414 371.875 63.61979Q372.17188 64.104164 372.17188 64.74479Q372.17188 65.791664 371.35938 66.416664Q370.54688 67.041664 369.20312 67.041664Q368.3125 67.041664 367.54688 66.697914Q366.79688 66.354164 366.375 65.77604Q365.96875 65.18229 365.96875 64.447914L367.09375 64.447914Q367.09375 65.21354 367.67188 65.666664Q368.25 66.11979 369.20312 66.11979Q370.09375 66.11979 370.5625 65.760414Q371.03125 65.385414 371.03125 64.760414Q371.03125 64.135414 370.59375 63.791664Q370.15625 63.447914 369.0 63.11979ZM373.03125 63.68229Q373.03125 62.760414 373.39062 62.010414Q373.76562 61.260414 374.42188 60.86979Q375.07812 60.46354 375.90625 60.46354Q377.20312 60.46354 378.0 61.354164Q378.8125 62.24479 378.8125 63.74479L378.8125 63.822914Q378.8125 64.74479 378.45312 65.479164Q378.09375 66.21354 377.4375 66.635414Q376.78125 67.041664 375.92188 67.041664Q374.64062 67.041664 373.82812 66.15104Q373.03125 65.24479 373.03125 63.760414L373.03125 63.68229ZM374.125 63.822914Q374.125 64.86979 374.60938 65.510414Q375.10938 66.15104 375.92188 66.15104Q376.75 66.15104 377.23438 65.510414Q377.71875 64.854164 377.71875 63.68229Q377.71875 62.65104 377.21875 62.010414Q376.73438 61.354164 375.90625 61.354164Q375.10938 61.354164 374.60938 61.99479Q374.125 62.61979 374.125 63.822914ZM384.23438 66.291664Q383.60938 67.041664 382.375 67.041664Q381.35938 67.041664 380.82812 66.447914Q380.29688 65.854164 380.29688 64.697914L380.29688 60.572914L381.375 60.572914L381.375 64.666664Q381.375 66.11979 382.54688 66.11979Q383.79688 66.11979 384.20312 65.18229L384.20312 60.572914L385.29688 60.572914L385.29688 66.916664L384.26562 66.916664L384.23438 66.291664ZM388.79688 59.041664L388.79688 60.572914L389.96875 60.572914L389.96875 61.416664L388.79688 61.416664L388.79688 65.33854Q388.79688 65.729164 388.95312 65.916664Q389.10938 66.104164 389.48438 66.104164Q389.67188 66.104164 390.0 66.041664L390.0 66.916664Q389.57812 67.041664 389.17188 67.041664Q388.45312 67.041664 388.07812 66.604164Q387.70312 66.15104 387.70312 65.33854L387.70312 61.416664L386.54688 61.416664L386.54688 60.572914L387.70312 60.572914L387.70312 59.041664L388.79688 59.041664ZM392.40625 61.33854Q393.125 60.46354 394.28125 60.46354Q396.29688 60.46354 396.3125 62.729164L396.3125 66.916664L395.21875 66.916664L395.21875 62.71354Q395.21875 62.041664 394.90625 61.71354Q394.60938 61.385414 393.95312 61.385414Q393.42188 61.385414 393.01562 61.666664Q392.625 61.947914 392.40625 62.40104L392.40625 66.916664L391.32812 66.916664L391.32812 57.916664L392.40625 57.916664L392.40625 61.33854Z" fill-rule="nonzero"/><path fill="#000000" d="M31.128124 37.55L29.2375 37.55L29.2375 30.971874L22.08125 30.971874L22.08125 37.55L20.20625 37.55L20.20625 23.33125L22.08125 23.33125L22.08125 29.440624L29.2375 29.440624L29.2375 23.33125L31.128124 23.33125L31.128124 37.55ZM40.440624 37.55Q40.284374 37.2375 40.190624 36.440624Q38.925 37.753124 37.175 37.753124Q35.6125 37.753124 34.6125 36.8625Q33.6125 35.971874 33.6125 34.6125Q33.6125 32.971874 34.8625 32.065624Q36.128124 31.14375 38.39375 31.14375L40.159374 31.14375L40.159374 30.315624Q40.159374 29.3625 39.58125 28.8Q39.01875 28.2375 37.925 28.2375Q36.95625 28.2375 36.3 28.7375Q35.64375 29.221874 35.64375 29.909374L33.83125 29.909374Q33.83125 29.128124 34.39375 28.39375Q34.95625 27.64375 35.909374 27.221874Q36.878124 26.784374 38.034374 26.784374Q39.8625 26.784374 40.89375 27.70625Q41.925 28.6125 41.971874 30.221874L41.971874 35.08125Q41.971874 36.534374 42.33125 37.39375L42.33125 37.55L40.440624 37.55ZM37.440624 36.175Q38.3 36.175 39.05 35.7375Q39.815624 35.3 40.159374 34.596874L40.159374 32.425L38.7375 32.425Q35.425 32.425 35.425 34.3625Q35.425 35.221874 35.9875 35.70625Q36.55 36.175 37.440624 36.175ZM48.409374 35.096874L51.01875 26.9875L52.8625 26.9875L49.08125 37.55L47.70625 37.55L43.878124 26.9875L45.721874 26.9875L48.409374 35.096874ZM59.3 37.753124Q57.159374 37.753124 55.8 36.346874Q54.45625 34.925 54.45625 32.565624L54.45625 32.221874Q54.45625 30.659374 55.05 29.425Q55.659374 28.190624 56.7375 27.4875Q57.815624 26.784374 59.08125 26.784374Q61.14375 26.784374 62.284374 28.14375Q63.425 29.503124 63.425 32.034374L63.425 32.784374L56.26875 32.784374Q56.3 34.346874 57.175 35.315624Q58.05 36.26875 59.39375 36.26875Q60.3625 36.26875 61.01875 35.878124Q61.690624 35.4875 62.190624 34.846874L63.284374 35.70625Q61.95625 37.753124 59.3 37.753124ZM59.08125 28.26875Q57.9875 28.26875 57.2375 29.065624Q56.503124 29.8625 56.33125 31.3L61.6125 31.3L61.6125 31.159374Q61.534374 29.784374 60.8625 29.034374Q60.20625 28.26875 59.08125 28.26875ZM74.37813 34.909374L76.83125 26.9875L78.76875 26.9875L74.51875 39.175Q73.53438 41.815624 71.39375 41.815624L71.05 41.784374L70.37813 41.659374L70.37813 40.190624L70.8625 40.2375Q71.78438 40.2375 72.28438 39.8625Q72.8 39.4875 73.12813 38.503124L73.53438 37.425L69.76875 26.9875L71.7375 26.9875L74.37813 34.909374ZM79.44063 32.175Q79.44063 30.6125 80.05 29.378124Q80.65938 28.128124 81.7375 27.45625Q82.83125 26.784374 84.2375 26.784374Q86.39375 26.784374 87.72188 28.284374Q89.06563 29.76875 89.06563 32.253124L89.06563 32.378124Q89.06563 33.925 88.47188 35.159374Q87.87813 36.378124 86.76875 37.065624Q85.675 37.753124 84.25313 37.753124Q82.1125 37.753124 80.76875 36.253124Q79.44063 34.753124 79.44063 32.3L79.44063 32.175ZM81.25313 32.378124Q81.25313 34.14375 82.06563 35.20625Q82.89375 36.26875 84.25313 36.26875Q85.62813 36.26875 86.44063 35.190624Q87.25313 34.1125 87.25313 32.175Q87.25313 30.425 86.425 29.346874Q85.59688 28.26875 84.2375 28.26875Q82.89375 28.26875 82.06563 29.33125Q81.25313 30.39375 81.25313 32.378124ZM97.44063 36.503124Q96.39375 37.753124 94.34688 37.753124Q92.65938 37.753124 91.76875 36.76875Q90.89375 35.784374 90.87813 33.8625L90.87813 26.9875L92.69063 26.9875L92.69063 33.815624Q92.69063 36.20625 94.64375 36.20625Q96.70625 36.20625 97.39375 34.675L97.39375 26.9875L99.20625 26.9875L99.20625 37.55L97.4875 37.55L97.44063 36.503124ZM113.44063 36.503124Q112.39375 37.753124 110.34688 37.753124Q108.65938 37.753124 107.76875 36.76875Q106.89375 35.784374 106.87813 33.8625L106.87813 26.9875L108.69063 26.9875L108.69063 33.815624Q108.69063 36.20625 110.64375 36.20625Q112.70625 36.20625 113.39375 34.675L113.39375 26.9875L115.20625 26.9875L115.20625 37.55L113.4875 37.55L113.44063 36.503124ZM124.06563 34.753124Q124.06563 34.01875 123.51875 33.6125Q122.97188 33.20625 121.59688 32.909374Q120.22188 32.6125 119.40938 32.20625Q118.6125 31.8 118.22188 31.2375Q117.84688 30.659374 117.84688 29.878124Q117.84688 28.58125 118.94063 27.690624Q120.03438 26.784374 121.75313 26.784374Q123.55 26.784374 124.65938 27.721874Q125.78438 28.64375 125.78438 30.08125L123.95625 30.08125Q123.95625 29.346874 123.33125 28.815624Q122.70625 28.26875 121.75313 28.26875Q120.75313 28.26875 120.19063 28.70625Q119.64375 29.128124 119.64375 29.83125Q119.64375 30.471874 120.15938 30.815624Q120.675 31.14375 122.03438 31.45625Q123.39375 31.753124 124.22188 32.175Q125.06563 32.58125 125.47188 33.175Q125.87813 33.76875 125.87813 34.6125Q125.87813 36.034374 124.7375 36.89375Q123.6125 37.753124 121.8 37.753124Q120.53438 37.753124 119.55 37.3Q118.58125 36.846874 118.01875 36.05Q117.47188 35.2375 117.47188 34.3L119.28438 34.3Q119.33125 35.20625 120.00313 35.7375Q120.69063 36.26875 121.8 36.26875Q122.83125 36.26875 123.44063 35.8625Q124.06563 35.440624 124.06563 34.753124ZM132.3 37.753124Q130.15938 37.753124 128.8 36.346874Q127.45625 34.925 127.45625 32.565624L127.45625 32.221874Q127.45625 30.659374 128.05 29.425Q128.65938 28.190624 129.7375 27.4875Q130.81563 26.784374 132.08125 26.784374Q134.14375 26.784374 135.28438 28.14375Q136.425 29.503124 136.425 32.034374L136.425 32.784374L129.26875 32.784374Q129.3 34.346874 130.175 35.315624Q131.05 36.26875 132.39375 36.26875Q133.3625 36.26875 134.01875 35.878124Q134.69063 35.4875 135.19063 34.846874L136.28438 35.70625Q134.95625 37.753124 132.3 37.753124ZM132.08125 28.26875Q130.9875 28.26875 130.2375 29.065624Q129.50313 29.8625 129.33125 31.3L134.6125 31.3L134.6125 31.159374Q134.53438 29.784374 133.8625 29.034374Q133.20625 28.26875 132.08125 28.26875ZM138.47188 32.175Q138.47188 29.753124 139.62813 28.26875Q140.78438 26.784374 142.64375 26.784374Q144.50313 26.784374 145.58125 28.05L145.58125 22.55L147.39375 22.55L147.39375 37.55L145.7375 37.55L145.64375 36.409374Q144.56563 37.753124 142.62813 37.753124Q140.8 37.753124 139.62813 36.253124Q138.47188 34.7375 138.47188 32.315624L138.47188 32.175ZM140.28438 32.378124Q140.28438 34.175 141.01875 35.190624Q141.76875 36.20625 143.08125 36.20625Q144.8 36.20625 145.58125 34.675L145.58125 29.815624Q144.78438 28.315624 143.09688 28.315624Q141.76875 28.315624 141.01875 29.346874Q140.28438 30.378124 140.28438 32.378124ZM161.44063 37.55Q161.28438 37.2375 161.19063 36.440624Q159.925 37.753124 158.175 37.753124Q156.6125 37.753124 155.6125 36.8625Q154.6125 35.971874 154.6125 34.6125Q154.6125 32.971874 155.8625 32.065624Q157.12813 31.14375 159.39375 31.14375L161.15938 31.14375L161.15938 30.315624Q161.15938 29.3625 160.58125 28.8Q160.01875 28.2375 158.925 28.2375Q157.95625 28.2375 157.3 28.7375Q156.64375 29.221874 156.64375 29.909374L154.83125 29.909374Q154.83125 29.128124 155.39375 28.39375Q155.95625 27.64375 156.90938 27.221874Q157.87813 26.784374 159.03438 26.784374Q160.8625 26.784374 161.89375 27.70625Q162.925 28.6125 162.97188 30.221874L162.97188 35.08125Q162.97188 36.534374 163.33125 37.39375L163.33125 37.55L161.44063 37.55ZM158.44063 36.175Q159.3 36.175 160.05 35.7375Q160.81563 35.3 161.15938 34.596874L161.15938 32.425L159.7375 32.425Q156.425 32.425 156.425 34.3625Q156.425 35.221874 156.9875 35.70625Q157.55 36.175 158.44063 36.175ZM167.62813 26.9875L167.69063 28.315624Q168.89375 26.784374 170.84688 26.784374Q174.20625 26.784374 174.22188 30.565624L174.22188 37.55L172.425 37.55L172.425 30.55Q172.40938 29.409374 171.89375 28.8625Q171.39375 28.315624 170.3 28.315624Q169.425 28.315624 168.75313 28.784374Q168.09688 29.253124 167.72188 30.01875L167.72188 37.55L165.925 37.55L165.925 26.9875L167.62813 26.9875ZM180.37813 34.909374L182.83125 26.9875L184.76875 26.9875L180.51875 39.175Q179.53438 41.815624 177.39375 41.815624L177.05 41.784374L176.37813 41.659374L176.37813 40.190624L176.8625 40.2375Q177.78438 40.2375 178.28438 39.8625Q178.8 39.4875 179.12813 38.503124L179.53438 37.425L175.76875 26.9875L177.7375 26.9875L180.37813 34.909374ZM197.44063 37.55Q197.28438 37.2375 197.19063 36.440624Q195.925 37.753124 194.175 37.753124Q192.6125 37.753124 191.6125 36.8625Q190.6125 35.971874 190.6125 34.6125Q190.6125 32.971874 191.8625 32.065624Q193.12813 31.14375 195.39375 31.14375L197.15938 31.14375L197.15938 30.315624Q197.15938 29.3625 196.58125 28.8Q196.01875 28.2375 194.925 28.2375Q193.95625 28.2375 193.3 28.7375Q192.64375 29.221874 192.64375 29.909374L190.83125 29.909374Q190.83125 29.128124 191.39375 28.39375Q191.95625 27.64375 192.90938 27.221874Q193.87813 26.784374 195.03438 26.784374Q196.8625 26.784374 197.89375 27.70625Q198.925 28.6125 198.97188 30.221874L198.97188 35.08125Q198.97188 36.534374 199.33125 37.39375L199.33125 37.55L197.44063 37.55ZM194.44063 36.175Q195.3 36.175 196.05 35.7375Q196.81563 35.3 197.15938 34.596874L197.15938 32.425L195.7375 32.425Q192.425 32.425 192.425 34.3625Q192.425 35.221874 192.9875 35.70625Q193.55 36.175 194.44063 36.175ZM210.84688 32.378124Q210.84688 34.8 209.7375 36.284374Q208.64375 37.753124 206.75313 37.753124Q204.83125 37.753124 203.72188 36.51875L203.72188 41.6125L201.925 41.6125L201.925 26.9875L203.56563 26.9875L203.65938 28.159374Q204.75313 26.784374 206.72188 26.784374Q208.62813 26.784374 209.7375 28.221874Q210.84688 29.659374 210.84688 32.221874L210.84688 32.378124ZM209.03438 32.175Q209.03438 30.39375 208.26875 29.3625Q207.51875 28.315624 206.19063 28.315624Q204.55 28.315624 203.72188 29.76875L203.72188 34.83125Q204.53438 36.26875 206.20625 36.26875Q207.50313 36.26875 208.26875 35.2375Q209.03438 34.20625 209.03438 32.175ZM221.84688 32.378124Q221.84688 34.8 220.7375 36.284374Q219.64375 37.753124 217.75313 37.753124Q215.83125 37.753124 214.72188 36.51875L214.72188 41.6125L212.925 41.6125L212.925 26.9875L214.56563 26.9875L214.65938 28.159374Q215.75313 26.784374 217.72188 26.784374Q219.62813 26.784374 220.7375 28.221874Q221.84688 29.659374 221.84688 32.221874L221.84688 32.378124ZM220.03438 32.175Q220.03438 30.39375 219.26875 29.3625Q218.51875 28.315624 217.19063 28.315624Q215.55 28.315624 214.72188 29.76875L214.72188 34.83125Q215.53438 36.26875 217.20625 36.26875Q218.50313 36.26875 219.26875 35.2375Q220.03438 34.20625 220.03438 32.175ZM230.06563 34.753124Q230.06563 34.01875 229.51875 33.6125Q228.97188 33.20625 227.59688 32.909374Q226.22188 32.6125 225.40938 32.20625Q224.6125 31.8 224.22188 31.2375Q223.84688 30.659374 223.84688 29.878124Q223.84688 28.58125 224.94063 27.690624Q226.03438 26.784374 227.75313 26.784374Q229.55 26.784374 230.65938 27.721874Q231.78438 28.64375 231.78438 30.08125L229.95625 30.08125Q229.95625 29.346874 229.33125 28.815624Q228.70625 28.26875 227.75313 28.26875Q226.75313 28.26875 226.19063 28.70625Q225.64375 29.128124 225.64375 29.83125Q225.64375 30.471874 226.15938 30.815624Q226.675 31.14375 228.03438 31.45625Q229.39375 31.753124 230.22188 32.175Q231.06563 32.58125 231.47188 33.175Q231.87813 33.76875 231.87813 34.6125Q231.87813 36.034374 230.7375 36.89375Q229.6125 37.753124 227.8 37.753124Q226.53438 37.753124 225.55 37.3Q224.58125 36.846874 224.01875 36.05Q223.47188 35.2375 223.47188 34.3L225.28438 34.3Q225.33125 35.20625 226.00313 35.7375Q226.69063 36.26875 227.8 36.26875Q228.83125 36.26875 229.44063 35.8625Q230.06563 35.440624 230.06563 34.753124ZM244.01875 28.596874Q243.6125 28.534374 243.14375 28.534374Q241.3625 28.534374 240.72188 30.05L240.72188 37.55L238.925 37.55L238.925 26.9875L240.675 26.9875L240.70625 28.20625Q241.59688 26.784374 243.22188 26.784374Q243.75313 26.784374 244.01875 26.925L244.01875 28.596874ZM250.3 37.753124Q248.15938 37.753124 246.8 36.346874Q245.45625 34.925 245.45625 32.565624L245.45625 32.221874Q245.45625 30.659374 246.05 29.425Q246.65938 28.190624 247.7375 27.4875Q248.81563 26.784374 250.08125 26.784374Q252.14375 26.784374 253.28438 28.14375Q254.425 29.503124 254.425 32.034374L254.425 32.784374L247.26875 32.784374Q247.3 34.346874 248.175 35.315624Q249.05 36.26875 250.39375 36.26875Q251.3625 36.26875 252.01875 35.878124Q252.69063 35.4875 253.19063 34.846874L254.28438 35.70625Q252.95625 37.753124 250.3 37.753124ZM250.08125 28.26875Q248.9875 28.26875 248.2375 29.065624Q247.50313 29.8625 247.33125 31.3L252.6125 31.3L252.6125 31.159374Q252.53438 29.784374 251.8625 29.034374Q251.20625 28.26875 250.08125 28.26875ZM258.8781 37.55L257.08124 37.55L257.08124 22.55L258.8781 22.55L258.8781 37.55ZM268.4406 37.55Q268.28436 37.2375 268.1906 36.440624Q266.925 37.753124 265.175 37.753124Q263.6125 37.753124 262.6125 36.8625Q261.6125 35.971874 261.6125 34.6125Q261.6125 32.971874 262.8625 32.065624Q264.1281 31.14375 266.39374 31.14375L268.15936 31.14375L268.15936 30.315624Q268.15936 29.3625 267.58124 28.8Q267.01874 28.2375 265.925 28.2375Q264.95624 28.2375 264.3 28.7375Q263.64374 29.221874 263.64374 29.909374L261.83124 29.909374Q261.83124 29.128124 262.39374 28.39375Q262.95624 27.64375 263.90936 27.221874Q264.8781 26.784374 266.03436 26.784374Q267.8625 26.784374 268.89374 27.70625Q269.925 28.6125 269.97186 30.221874L269.97186 35.08125Q269.97186 36.534374 270.33124 37.39375L270.33124 37.55L268.4406 37.55ZM265.4406 36.175Q266.3 36.175 267.05 35.7375Q267.8156 35.3 268.15936 34.596874L268.15936 32.425L266.7375 32.425Q263.425 32.425 263.425 34.3625Q263.425 35.221874 263.9875 35.70625Q264.55 36.175 265.4406 36.175ZM275.3625 24.425L275.3625 26.9875L277.34686 26.9875L277.34686 28.378124L275.3625 28.378124L275.3625 34.925Q275.3625 35.565624 275.6281 35.89375Q275.89374 36.20625 276.53436 36.20625Q276.84686 36.20625 277.39374 36.08125L277.39374 37.55Q276.675 37.753124 276.0031 37.753124Q274.8 37.753124 274.175 37.01875Q273.5656 36.284374 273.5656 34.925L273.5656 28.378124L271.64374 28.378124L271.64374 26.9875L273.5656 26.9875L273.5656 24.425L275.3625 24.425ZM284.3 37.753124Q282.15936 37.753124 280.8 36.346874Q279.45624 34.925 279.45624 32.565624L279.45624 32.221874Q279.45624 30.659374 280.05 29.425Q280.65936 28.190624 281.7375 27.4875Q282.8156 26.784374 284.08124 26.784374Q286.14374 26.784374 287.28436 28.14375Q288.425 29.503124 288.425 32.034374L288.425 32.784374L281.26874 32.784374Q281.3 34.346874 282.175 35.315624Q283.05 36.26875 284.39374 36.26875Q285.3625 36.26875 286.01874 35.878124Q286.6906 35.4875 287.1906 34.846874L288.28436 35.70625Q286.95624 37.753124 284.3 37.753124ZM284.08124 28.26875Q282.9875 28.26875 282.2375 29.065624Q281.5031 29.8625 281.33124 31.3L286.6125 31.3L286.6125 31.159374Q286.53436 29.784374 285.8625 29.034374Q285.20624 28.26875 284.08124 28.26875ZM290.47186 32.175Q290.47186 29.753124 291.6281 28.26875Q292.78436 26.784374 294.64374 26.784374Q296.5031 26.784374 297.58124 28.05L297.58124 22.55L299.39374 22.55L299.39374 37.55L297.7375 37.55L297.64374 36.409374Q296.5656 37.753124 294.6281 37.753124Q292.8 37.753124 291.6281 36.253124Q290.47186 34.7375 290.47186 32.315624L290.47186 32.175ZM292.28436 32.378124Q292.28436 34.175 293.01874 35.190624Q293.76874 36.20625 295.08124 36.20625Q296.8 36.20625 297.58124 34.675L297.58124 29.815624Q296.78436 28.315624 295.09686 28.315624Q293.76874 28.315624 293.01874 29.346874Q292.28436 30.378124 292.28436 32.378124ZM309.3625 24.425L309.3625 26.9875L311.34686 26.9875L311.34686 28.378124L309.3625 28.378124L309.3625 34.925Q309.3625 35.565624 309.6281 35.89375Q309.89374 36.20625 310.53436 36.20625Q310.84686 36.20625 311.39374 36.08125L311.39374 37.55Q310.675 37.753124 310.0031 37.753124Q308.8 37.753124 308.175 37.01875Q307.5656 36.284374 307.5656 34.925L307.5656 28.378124L305.64374 28.378124L305.64374 26.9875L307.5656 26.9875L307.5656 24.425L309.3625 24.425ZM313.4406 32.175Q313.4406 30.6125 314.05 29.378124Q314.65936 28.128124 315.7375 27.45625Q316.83124 26.784374 318.2375 26.784374Q320.39374 26.784374 321.72186 28.284374Q323.0656 29.76875 323.0656 32.253124L323.0656 32.378124Q323.0656 33.925 322.47186 35.159374Q321.8781 36.378124 320.76874 37.065624Q319.675 37.753124 318.2531 37.753124Q316.1125 37.753124 314.76874 36.253124Q313.4406 34.753124 313.4406 32.3L313.4406 32.175ZM315.2531 32.378124Q315.2531 34.14375 316.0656 35.20625Q316.89374 36.26875 318.2531 36.26875Q319.6281 36.26875 320.4406 35.190624Q321.2531 34.1125 321.2531 32.175Q321.2531 30.425 320.425 29.346874Q319.59686 28.26875 318.2375 28.26875Q316.89374 28.26875 316.0656 29.33125Q315.2531 30.39375 315.2531 32.378124ZM340.65936 33.034374Q340.39374 35.3 338.9875 36.534374Q337.59686 37.753124 335.26874 37.753124Q332.7531 37.753124 331.22186 35.940624Q329.70624 34.128124 329.70624 31.096874L329.70624 29.7375Q329.70624 27.753124 330.40936 26.253124Q331.1281 24.753124 332.425 23.940624Q333.72186 23.128124 335.4406 23.128124Q337.70624 23.128124 339.0656 24.39375Q340.4406 25.659374 340.65936 27.89375L338.76874 27.89375Q338.53436 26.20625 337.70624 25.440624Q336.89374 24.675 335.4406 24.675Q333.64374 24.675 332.6125 26.003124Q331.59686 27.33125 331.59686 29.784374L331.59686 31.159374Q331.59686 33.471874 332.5656 34.846874Q333.53436 36.20625 335.26874 36.20625Q336.83124 36.20625 337.65936 35.503124Q338.5031 34.8 338.76874 33.034374L340.65936 33.034374ZM354.14374 30.89375Q354.14374 32.9875 353.4406 34.55Q352.7375 36.096874 351.4406 36.925Q350.15936 37.753124 348.4406 37.753124Q346.7531 37.753124 345.45624 36.925Q344.15936 36.096874 343.4406 34.565624Q342.72186 33.034374 342.70624 31.01875L342.70624 30.003124Q342.70624 27.95625 343.40936 26.378124Q344.1281 24.8 345.425 23.971874Q346.7375 23.128124 348.40936 23.128124Q350.1281 23.128124 351.425 23.95625Q352.7375 24.784374 353.4406 26.3625Q354.14374 27.925 354.14374 30.003124L354.14374 30.89375ZM352.26874 29.9875Q352.26874 27.45625 351.2531 26.1125Q350.2375 24.753124 348.40936 24.753124Q346.64374 24.753124 345.6125 26.1125Q344.59686 27.45625 344.5656 29.846874L344.5656 30.89375Q344.5656 33.346874 345.59686 34.753124Q346.6281 36.159374 348.4406 36.159374Q350.2531 36.159374 351.2375 34.83125Q352.2375 33.503124 352.26874 31.034374L352.26874 29.9875ZM361.90936 35.065624L365.97186 23.33125L368.01874 23.33125L362.7531 37.55L361.08124 37.55L355.83124 23.33125L357.8625 23.33125L361.90936 35.065624ZM372.20624 37.55L370.33124 37.55L370.33124 23.33125L372.20624 23.33125L372.20624 37.55ZM375.20624 37.55L375.20624 23.33125L379.22186 23.33125Q381.0656 23.33125 382.4875 24.159374Q383.925 24.971874 384.6906 26.4875Q385.47186 28.003124 385.4875 29.95625L385.4875 30.8625Q385.4875 32.878124 384.70624 34.39375Q383.925 35.909374 382.4875 36.721874Q381.05 37.534374 379.14374 37.55L375.20624 37.55ZM377.08124 24.878124L377.08124 36.01875L379.05 36.01875Q381.22186 36.01875 382.425 34.675Q383.6281 33.315624 383.6281 30.83125L383.6281 30.003124Q383.6281 27.58125 382.4875 26.2375Q381.34686 24.89375 379.26874 24.878124L377.08124 24.878124ZM393.675 37.55L391.84686 37.55L391.84686 25.503124L388.20624 26.846874L388.20624 25.20625L393.39374 23.26875L393.675 23.26875L393.675 37.55ZM405.65936 31.3Q405.09686 31.971874 404.3 32.39375Q403.51874 32.8 402.58124 32.8Q401.34686 32.8 400.425 32.190624Q399.51874 31.58125 399.01874 30.4875Q398.53436 29.378124 398.53436 28.05Q398.53436 26.628124 399.0656 25.4875Q399.6125 24.346874 400.59686 23.7375Q401.59686 23.128124 402.925 23.128124Q405.03436 23.128124 406.2531 24.70625Q407.47186 26.284374 407.47186 29.01875L407.47186 29.534374Q407.47186 33.690624 405.83124 35.596874Q404.1906 37.503124 400.8781 37.565624L400.53436 37.565624L400.53436 36.034374L400.90936 36.034374Q403.14374 36.003124 404.34686 34.878124Q405.55 33.7375 405.65936 31.3ZM402.8781 31.3Q403.78436 31.3 404.55 30.753124Q405.3156 30.190624 405.65936 29.3625L405.65936 28.64375Q405.65936 26.8625 404.89374 25.753124Q404.1281 24.64375 402.9406 24.64375Q401.7531 24.64375 401.01874 25.565624Q400.3 26.471874 400.3 27.95625Q400.3 29.409374 401.0031 30.3625Q401.70624 31.3 402.8781 31.3ZM412.03436 33.55Q412.05 32.378124 412.3 31.70625Q412.55 31.034374 413.3 30.221874L414.58124 28.89375Q415.39374 27.971874 415.39374 26.909374Q415.39374 25.878124 414.84686 25.3Q414.3156 24.721874 413.3 24.721874Q412.3 24.721874 411.6906 25.253124Q411.09686 25.76875 411.09686 26.659374L409.28436 26.659374Q409.3 25.08125 410.40936 24.1125Q411.51874 23.128124 413.3 23.128124Q415.14374 23.128124 416.175 24.128124Q417.20624 25.1125 417.20624 26.846874Q417.20624 28.55 415.6281 30.221874L414.55 31.26875Q413.84686 32.065624 413.84686 33.55L412.03436 33.55ZM411.95624 36.64375Q411.95624 36.20625 412.22186 35.909374Q412.5031 35.6125 413.01874 35.6125Q413.55 35.6125 413.8156 35.909374Q414.09686 36.20625 414.09686 36.64375Q414.09686 37.08125 413.8156 37.378124Q413.55 37.659374 413.01874 37.659374Q412.5031 37.659374 412.22186 37.378124Q411.95624 37.08125 411.95624 36.64375Z" fill-rule="nonzero"/></svg>