<svg version="1.1" viewBox="0.0 0.0 600.0 371.0" fill="none" stroke="none" stroke-linecap="square" stroke-miterlimit="10" width="600" height="371" xmlns:xlink="http://www.w3.org/1999/xlink" xmlns="http://www.w3.org/2000/svg"><path fill="#ffffff" d="M0 0L600.0 0L600.0 371.0L0 371.0L0 0Z" fill-rule="nonzero"/><path stroke="#333333" stroke-width="1.0" stroke-linecap="butt" d="M137.5 79.5L137.5 331.5" fill-rule="nonzero"/><path stroke="#000000" stroke-width="1.0" stroke-linecap="butt" d="M248.5 79.5L248.5 331.5" fill-rule="nonzero"/><path stroke="#000000" stroke-width="1.0" stroke-linecap="butt" d="M359.5 79.5L359.5 331.5" fill-rule="nonzero"/><path stroke="#000000" stroke-width="1.0" stroke-linecap="butt" d="M470.5 79.5L470.5 331.5" fill-rule="nonzero"/><path stroke="#000000" stroke-width="1.0" stroke-linecap="butt" d="M581.5 79.5L581.5 331.5" fill-rule="nonzero"/><clipPath id="id_0"><path d="M137.13 79.29413L581.45 79.29413L581.45 331.45L137.13 331.45L137.13 79.29413Z" clip-rule="nonzero"/></clipPath><path stroke="#000000" stroke-width="0.0" stroke-linecap="butt" stroke-opacity="0.0" clip-path="url(#id_0)" d="M137.0 187.0L137.0 117.0L203.0 117.0L203.0 187.0Z" fill-rule="nonzero"/><path fill="#f1c232" clip-path="url(#id_0)" d="M137.0 187.0L137.0 117.0L203.0 117.0L203.0 187.0Z" fill-rule="nonzero"/><path stroke="#000000" stroke-width="0.0" stroke-linecap="butt" stroke-opacity="0.0" clip-path="url(#id_0)" d="M137.0 294.0L137.0 224.0L216.0 224.0L216.0 294.0Z" fill-rule="nonzero"/><path fill="#f1c232" clip-path="url(#id_0)" d="M137.0 294.0L137.0 224.0L216.0 224.0L216.0 294.0Z" fill-rule="nonzero"/><path stroke="#000000" stroke-width="0.0" stroke-linecap="butt" stroke-opacity="0.0" clip-path="url(#id_0)" d="M203.0 187.0L203.0 117.0L311.0 117.0L311.0 187.0Z" fill-rule="nonzero"/><path fill="#ffe599" clip-path="url(#id_0)" d="M203.0 187.0L203.0 117.0L311.0 117.0L311.0 187.0Z" fill-rule="nonzero"/><path stroke="#000000" stroke-width="0.0" stroke-linecap="butt" stroke-opacity="0.0" clip-path="url(#id_0)" d="M216.0 294.0L216.0 224.0L379.0 224.0L379.0 294.0Z" fill-rule="nonzero"/><path fill="#ffe599" clip-path="url(#id_0)" d="M216.0 294.0L216.0 224.0L379.0 224.0L379.0 294.0Z" fill-rule="nonzero"/><path stroke="#000000" stroke-width="0.0" stroke-linecap="butt" stroke-opacity="0.0" clip-path="url(#id_0)" d="M311.0 187.0L311.0 117.0L431.0 117.0L431.0 187.0Z" fill-rule="nonzero"/><path fill="#f3f3f3" clip-path="url(#id_0)" d="M311.0 187.0L311.0 117.0L431.0 117.0L431.0 187.0Z" fill-rule="nonzero"/><path stroke="#000000" stroke-width="0.0" stroke-linecap="butt" stroke-opacity="0.0" clip-path="url(#id_0)" d="M379.0 294.0L379.0 224.0L482.0 224.0L482.0 294.0Z" fill-rule="nonzero"/><path fill="#f3f3f3" clip-path="url(#id_0)" d="M379.0 294.0L379.0 224.0L482.0 224.0L482.0 294.0Z" fill-rule="nonzero"/><path stroke="#000000" stroke-width="0.0" stroke-linecap="butt" stroke-opacity="0.0" clip-path="url(#id_0)" d="M431.0 187.0L431.0 117.0L566.0 117.0L566.0 187.0Z" fill-rule="nonzero"/><path fill="#b6d7a8" clip-path="url(#id_0)" d="M431.0 187.0L431.0 117.0L566.0 117.0L566.0 187.0Z" fill-rule="nonzero"/><path stroke="#000000" stroke-width="0.0" stroke-linecap="butt" stroke-opacity="0.0" clip-path="url(#id_0)" d="M482.0 294.0L482.0 224.0L546.0 224.0L546.0 294.0Z" fill-rule="nonzero"/><path fill="#b6d7a8" clip-path="url(#id_0)" d="M482.0 294.0L482.0 224.0L546.0 224.0L546.0 294.0Z" fill-rule="nonzero"/><path stroke="#000000" stroke-width="0.0" stroke-linecap="butt" stroke-opacity="0.0" clip-path="url(#id_0)" d="M566.0 187.0L566.0 117.0L579.0 117.0C580.10455 117.0 581.0 117.89543 581.0 119.0L581.0 185.0C581.0 186.10457 580.10455 187.0 579.0 187.0Z" fill-rule="nonzero"/><path fill="#6aa84f" clip-path="url(#id_0)" d="M566.0 187.0L566.0 117.0L579.0 117.0C580.10455 117.0 581.0 117.89543 581.0 119.0L581.0 185.0C581.0 186.10457 580.10455 187.0 579.0 187.0Z" fill-rule="nonzero"/><path stroke="#000000" stroke-width="0.0" stroke-linecap="butt" stroke-opacity="0.0" clip-path="url(#id_0)" d="M546.0 294.0L546.0 224.0L579.0 224.0C580.10455 224.0 581.0 224.89543 581.0 226.0L581.0 292.0C581.0 293.10458 580.10455 294.0 579.0 294.0Z" fill-rule="nonzero"/><path fill="#6aa84f" clip-path="url(#id_0)" d="M546.0 294.0L546.0 224.0L579.0 224.0C580.10455 224.0 581.0 224.89543 581.0 226.0L581.0 292.0C581.0 293.10458 580.10455 294.0 579.0 294.0Z" fill-rule="nonzero"/><path fill="#000000" d="M35.426872 140.09688Q34.989372 140.72188 34.208122 141.03438Q33.426872 141.34688 32.395622 141.34688Q31.364374 141.34688 30.551874 140.8625Q29.739374 140.3625 29.301874 139.45625Q28.864374 138.55 28.84875 137.3625L28.84875 136.62813Q28.84875 134.69063 29.739374 133.62813Q30.645624 132.56563 32.270622 132.56563Q33.614372 132.56563 34.426872 133.25313Q35.239372 133.94063 35.426872 135.19063L34.301872 135.19063Q33.973747 133.50313 32.286247 133.50313Q31.145624 133.50313 30.5675 134.3Q29.989374 135.08125 29.97375 136.59688L29.97375 137.28438Q29.97375 138.72188 30.63 139.58125Q31.28625 140.425 32.411247 140.425Q33.036247 140.425 33.504997 140.28438Q33.989372 140.14375 34.301872 139.8L34.301872 137.89375L32.333122 137.89375L32.333122 136.97188L35.426872 136.97188L35.426872 140.09688ZM36.661247 137.9875Q36.661247 137.06563 37.020622 136.31563Q37.395622 135.56563 38.051872 135.175Q38.708122 134.76875 39.536247 134.76875Q40.833122 134.76875 41.629997 135.65938Q42.442497 136.55 42.442497 138.05L42.442497 138.12813Q42.442497 139.05 42.083122 139.78438Q41.723747 140.51875 41.067497 140.94063Q40.411247 141.34688 39.551872 141.34688Q38.270622 141.34688 37.458122 140.45625Q36.661247 139.55 36.661247 138.06563L36.661247 137.9875ZM37.754997 138.12813Q37.754997 139.175 38.239372 139.81563Q38.739372 140.45625 39.551872 140.45625Q40.379997 140.45625 40.864372 139.81563Q41.348747 139.15938 41.348747 137.9875Q41.348747 136.95625 40.848747 136.31563Q40.364372 135.65938 39.536247 135.65938Q38.739372 135.65938 38.239372 136.3Q37.754997 136.925 37.754997 138.12813ZM46.036247 139.75313L47.614372 134.87813L48.723747 134.87813L46.442497 141.22188L45.614372 141.22188L43.317497 134.87813L44.426872 134.87813L46.036247 139.75313ZM51.426872 133.34688L51.426872 134.87813L52.598747 134.87813L52.598747 135.72188L51.426872 135.72188L51.426872 139.64375Q51.426872 140.03438 51.583122 140.22188Q51.739372 140.40938 52.114372 140.40938Q52.301872 140.40938 52.629997 140.34688L52.629997 141.22188Q52.208122 141.34688 51.801872 141.34688Q51.083122 141.34688 50.708122 140.90938Q50.333122 140.45625 50.333122 139.64375L50.333122 135.72188L49.176872 135.72188L49.176872 134.87813L50.333122 134.87813L50.333122 133.34688L51.426872 133.34688ZM53.973747 140.65938Q53.973747 140.37813 54.129997 140.19063Q54.301872 140.00313 54.629997 140.00313Q54.973747 140.00313 55.145622 140.19063Q55.317497 140.37813 55.317497 140.65938Q55.317497 140.925 55.145622 141.1125Q54.973747 141.28438 54.629997 141.28438Q54.301872 141.28438 54.129997 141.1125Q53.973747 140.925 53.973747 140.65938ZM66.67687 137.2375Q66.67687 138.4875 66.255 139.425Q65.83312 140.34688 65.05187 140.84688Q64.28625 141.34688 63.254997 141.34688Q62.254997 141.34688 61.473747 140.84688Q60.692497 140.34688 60.254997 139.44063Q59.833122 138.51875 59.817497 137.3L59.817497 136.69063Q59.817497 135.45625 60.239372 134.51875Q60.676872 133.58125 61.458122 133.08125Q62.239372 132.56563 63.254997 132.56563Q64.27062 132.56563 65.05187 133.06563Q65.83312 133.56563 66.255 134.50313Q66.67687 135.44063 66.67687 136.69063L66.67687 137.2375ZM65.5675 136.675Q65.5675 135.15938 64.95812 134.34688Q64.34875 133.53438 63.254997 133.53438Q62.176872 133.53438 61.567497 134.34688Q60.958122 135.15938 60.942497 136.59688L60.942497 137.2375Q60.942497 138.70625 61.551872 139.55Q62.176872 140.37813 63.254997 140.37813Q64.34875 140.37813 64.9425 139.59688Q65.55187 138.8 65.5675 137.31563L65.5675 136.675ZM74.67687 141.22188L73.55187 141.22188L69.255 134.64375L69.255 141.22188L68.11437 141.22188L68.11437 132.69063L69.255 132.69063L73.55187 139.3L73.55187 132.69063L74.67687 132.69063L74.67687 141.22188ZM78.255 140.3L82.30187 140.3L82.30187 141.22188L77.11437 141.22188L77.11437 132.69063L78.255 132.69063L78.255 140.3ZM85.72375 136.97188L87.9425 132.69063L89.22375 132.69063L86.28625 138.03438L86.28625 141.22188L85.16125 141.22188L85.16125 138.03438L82.22375 132.69063L83.505 132.69063L85.72375 136.97188ZM96.86437 140.59688Q96.23937 141.34688 95.005 141.34688Q93.98937 141.34688 93.45812 140.75313Q92.92687 140.15938 92.92687 139.00313L92.92687 134.87813L94.005 134.87813L94.005 138.97188Q94.005 140.425 95.17687 140.425Q96.42687 140.425 96.83312 139.4875L96.83312 134.87813L97.92687 134.87813L97.92687 141.22188L96.89562 141.22188L96.86437 140.59688ZM103.64562 139.53438Q103.64562 139.09688 103.30187 138.8625Q102.97375 138.6125 102.14562 138.44063Q101.33312 138.26875 100.84875 138.01875Q100.36437 137.76875 100.13 137.44063Q99.91125 137.09688 99.91125 136.62813Q99.91125 135.84688 100.5675 135.31563Q101.22375 134.76875 102.255 134.76875Q103.33312 134.76875 103.98937 135.33125Q104.66125 135.87813 104.66125 136.7375L103.58312 136.7375Q103.58312 136.3 103.1925 135.9875Q102.8175 135.65938 102.255 135.65938Q101.66125 135.65938 101.3175 135.925Q100.98937 136.175 100.98937 136.58125Q100.98937 136.97188 101.30187 137.175Q101.61437 137.37813 102.42687 137.56563Q103.23937 137.7375 103.73937 137.9875Q104.23937 138.2375 104.47375 138.59688Q104.72375 138.95625 104.72375 139.45625Q104.72375 140.31563 104.03625 140.83125Q103.36437 141.34688 102.28625 141.34688Q101.52062 141.34688 100.92687 141.08125Q100.34875 140.8 100.02062 140.31563Q99.6925 139.83125 99.6925 139.26875L100.77062 139.26875Q100.80187 139.81563 101.20812 140.14375Q101.61437 140.45625 102.28625 140.45625Q102.89562 140.45625 103.27062 140.20625Q103.64562 139.95625 103.64562 139.53438ZM108.58312 141.34688Q107.28625 141.34688 106.47375 140.50313Q105.67687 139.64375 105.67687 138.22188L105.67687 138.03438Q105.67687 137.08125 106.03625 136.34688Q106.39562 135.59688 107.03625 135.19063Q107.6925 134.76875 108.4425 134.76875Q109.67687 134.76875 110.36437 135.58125Q111.05187 136.39375 111.05187 137.90938L111.05187 138.3625L106.755 138.3625Q106.78625 139.3 107.30187 139.87813Q107.83312 140.45625 108.64562 140.45625Q109.20812 140.45625 109.59875 140.22188Q110.005 139.9875 110.3175 139.59688L110.97375 140.1125Q110.17687 141.34688 108.58312 141.34688ZM108.4425 135.65938Q107.78625 135.65938 107.33312 136.14375Q106.89562 136.6125 106.80187 137.47188L109.97375 137.47188L109.97375 137.39375Q109.92687 136.56563 109.52062 136.1125Q109.13 135.65938 108.4425 135.65938ZM116.42687 133.34688L116.42687 134.87813L117.59875 134.87813L117.59875 135.72188L116.42687 135.72188L116.42687 139.64375Q116.42687 140.03438 116.58312 140.22188Q116.73937 140.40938 117.11437 140.40938Q117.30187 140.40938 117.63 140.34688L117.63 141.22188Q117.20812 141.34688 116.80187 141.34688Q116.08312 141.34688 115.70812 140.90938Q115.33312 140.45625 115.33312 139.64375L115.33312 135.72188L114.17687 135.72188L114.17687 134.87813L115.33312 134.87813L115.33312 133.34688L116.42687 133.34688ZM120.03625 135.64375Q120.755 134.76875 121.91125 134.76875Q123.92687 134.76875 123.9425 137.03438L123.9425 141.22188L122.84875 141.22188L122.84875 137.01875Q122.84875 136.34688 122.53625 136.01875Q122.23937 135.69063 121.58312 135.69063Q121.05187 135.69063 120.64562 135.97188Q120.255 136.25313 120.03625 136.70625L120.03625 141.22188L118.95812 141.22188L118.95812 132.22188L120.03625 132.22188L120.03625 135.64375ZM128.58313 141.34688Q127.28625 141.34688 126.47375 140.50313Q125.67687 139.64375 125.67687 138.22188L125.67687 138.03438Q125.67687 137.08125 126.03625 136.34688Q126.39562 135.59688 127.03625 135.19063Q127.6925 134.76875 128.4425 134.76875Q129.67688 134.76875 130.36438 135.58125Q131.05188 136.39375 131.05188 137.90938L131.05188 138.3625L126.755 138.3625Q126.78625 139.3 127.30187 139.87813Q127.83312 140.45625 128.64563 140.45625Q129.20813 140.45625 129.59875 140.22188Q130.005 139.9875 130.3175 139.59688L130.97375 140.1125Q130.17688 141.34688 128.58313 141.34688ZM128.4425 135.65938Q127.78625 135.65938 127.33312 136.14375Q126.89562 136.6125 126.80187 137.47188L129.97375 137.47188L129.97375 137.39375Q129.92688 136.56563 129.52063 136.1125Q129.13 135.65938 128.4425 135.65938Z" fill-rule="nonzero"/><path fill="#000000" d="M38.6925 153.00313Q38.6925 151.53438 39.38 150.65938Q40.0675 149.76875 41.1925 149.76875Q42.301876 149.76875 42.958126 150.51875L42.958126 147.22188L44.03625 147.22188L44.03625 156.22188L43.03625 156.22188L42.989376 155.53438Q42.333126 156.34688 41.176876 156.34688Q40.083126 156.34688 39.38 155.44063Q38.6925 154.53438 38.6925 153.08125L38.6925 153.00313ZM39.770626 153.12813Q39.770626 154.20625 40.208126 154.81563Q40.66125 155.425 41.4425 155.425Q42.47375 155.425 42.958126 154.4875L42.958126 151.58125Q42.47375 150.69063 41.458126 150.69063Q40.66125 150.69063 40.208126 151.3Q39.770626 151.90938 39.770626 153.12813ZM49.864376 156.22188Q49.770626 156.03438 49.708126 155.55Q48.958126 156.34688 47.91125 156.34688Q46.97375 156.34688 46.364376 155.81563Q45.770626 155.28438 45.770626 154.45625Q45.770626 153.47188 46.520626 152.925Q47.270626 152.37813 48.645626 152.37813L49.6925 152.37813L49.6925 151.87813Q49.6925 151.31563 49.34875 150.9875Q49.020626 150.64375 48.34875 150.64375Q47.770626 150.64375 47.38 150.94063Q46.989376 151.22188 46.989376 151.64375L45.895626 151.64375Q45.895626 151.15938 46.22375 150.72188Q46.5675 150.28438 47.145626 150.03438Q47.72375 149.76875 48.41125 149.76875Q49.520626 149.76875 50.13 150.31563Q50.755 150.8625 50.78625 151.81563L50.78625 154.7375Q50.78625 155.6125 51.005 156.12813L51.005 156.22188L49.864376 156.22188ZM48.0675 155.39375Q48.583126 155.39375 49.03625 155.12813Q49.489376 154.8625 49.6925 154.44063L49.6925 153.14375L48.84875 153.14375Q46.84875 153.14375 46.84875 154.31563Q46.84875 154.81563 47.1925 155.1125Q47.53625 155.39375 48.0675 155.39375ZM54.426876 148.34688L54.426876 149.87813L55.59875 149.87813L55.59875 150.72188L54.426876 150.72188L54.426876 154.64375Q54.426876 155.03438 54.583126 155.22188Q54.739376 155.40938 55.114376 155.40938Q55.301876 155.40938 55.63 155.34688L55.63 156.22188Q55.208126 156.34688 54.801876 156.34688Q54.083126 156.34688 53.708126 155.90938Q53.333126 155.45625 53.333126 154.64375L53.333126 150.72188L52.176876 150.72188L52.176876 149.87813L53.333126 149.87813L53.333126 148.34688L54.426876 148.34688ZM60.864376 156.22188Q60.770626 156.03438 60.708126 155.55Q59.958126 156.34688 58.91125 156.34688Q57.97375 156.34688 57.364376 155.81563Q56.770626 155.28438 56.770626 154.45625Q56.770626 153.47188 57.520626 152.925Q58.270626 152.37813 59.645626 152.37813L60.6925 152.37813L60.6925 151.87813Q60.6925 151.31563 60.34875 150.9875Q60.020626 150.64375 59.34875 150.64375Q58.770626 150.64375 58.38 150.94063Q57.989376 151.22188 57.989376 151.64375L56.895626 151.64375Q56.895626 151.15938 57.22375 150.72188Q57.5675 150.28438 58.145626 150.03438Q58.72375 149.76875 59.41125 149.76875Q60.520626 149.76875 61.13 150.31563Q61.755 150.8625 61.78625 151.81563L61.78625 154.7375Q61.78625 155.6125 62.005 156.12813L62.005 156.22188L60.864376 156.22188ZM59.0675 155.39375Q59.583126 155.39375 60.03625 155.12813Q60.489376 154.8625 60.6925 154.44063L60.6925 153.14375L59.84875 153.14375Q57.84875 153.14375 57.84875 154.31563Q57.84875 154.81563 58.1925 155.1125Q58.53625 155.39375 59.0675 155.39375ZM67.48938 156.22188L67.48938 150.72188L66.48938 150.72188L66.48938 149.87813L67.48938 149.87813L67.48938 149.2375Q67.48938 148.20625 68.02063 147.65938Q68.567505 147.09688 69.567505 147.09688Q69.942505 147.09688 70.317505 147.19063L70.255005 148.08125Q69.973755 148.01875 69.67688 148.01875Q69.14563 148.01875 68.848755 148.33125Q68.567505 148.64375 68.567505 149.20625L68.567505 149.87813L69.92688 149.87813L69.92688 150.72188L68.567505 150.72188L68.567505 156.22188L67.48938 156.22188ZM70.661255 152.9875Q70.661255 152.06563 71.02063 151.31563Q71.39563 150.56563 72.05188 150.175Q72.70813 149.76875 73.536255 149.76875Q74.83313 149.76875 75.630005 150.65938Q76.442505 151.55 76.442505 153.05L76.442505 153.12813Q76.442505 154.05 76.08313 154.78438Q75.723755 155.51875 75.067505 155.94063Q74.411255 156.34688 73.55188 156.34688Q72.27063 156.34688 71.45813 155.45625Q70.661255 154.55 70.661255 153.06563L70.661255 152.9875ZM71.755005 153.12813Q71.755005 154.175 72.23938 154.81563Q72.73938 155.45625 73.55188 155.45625Q74.380005 155.45625 74.86438 154.81563Q75.348755 154.15938 75.348755 152.9875Q75.348755 151.95625 74.848755 151.31563Q74.36438 150.65938 73.536255 150.65938Q72.73938 150.65938 72.23938 151.3Q71.755005 151.925 71.755005 153.12813ZM81.02063 150.84688Q80.77063 150.81563 80.48938 150.81563Q79.411255 150.81563 79.036255 151.72188L79.036255 156.22188L77.95813 156.22188L77.95813 149.87813L79.005005 149.87813L79.02063 150.6125Q79.55188 149.76875 80.536255 149.76875Q80.848755 149.76875 81.02063 149.84688L81.02063 150.84688ZM86.130005 156.22188L85.05188 156.22188L85.05188 149.87813L86.130005 149.87813L86.130005 156.22188ZM84.95813 148.20625Q84.95813 147.94063 85.11438 147.75313Q85.286255 147.56563 85.598755 147.56563Q85.911255 147.56563 86.067505 147.75313Q86.23938 147.94063 86.23938 148.20625Q86.23938 148.45625 86.067505 148.64375Q85.911255 148.81563 85.598755 148.81563Q85.286255 148.81563 85.11438 148.64375Q84.95813 148.45625 84.95813 148.20625ZM88.973755 149.87813L89.005005 150.675Q89.73938 149.76875 90.911255 149.76875Q92.92688 149.76875 92.942505 152.03438L92.942505 156.22188L91.848755 156.22188L91.848755 152.01875Q91.848755 151.34688 91.536255 151.01875Q91.23938 150.69063 90.58313 150.69063Q90.05188 150.69063 89.64563 150.97188Q89.255005 151.25313 89.036255 151.70625L89.036255 156.22188L87.95813 156.22188L87.95813 149.87813L88.973755 149.87813ZM96.42688 148.34688L96.42688 149.87813L97.598755 149.87813L97.598755 150.72188L96.42688 150.72188L96.42688 154.64375Q96.42688 155.03438 96.58313 155.22188Q96.73938 155.40938 97.11438 155.40938Q97.30188 155.40938 97.630005 155.34688L97.630005 156.22188Q97.20813 156.34688 96.80188 156.34688Q96.08313 156.34688 95.70813 155.90938Q95.33313 155.45625 95.33313 154.64375L95.33313 150.72188L94.17688 150.72188L94.17688 149.87813L95.33313 149.87813L95.33313 148.34688L96.42688 148.34688ZM101.58313 156.34688Q100.286255 156.34688 99.473755 155.50313Q98.67688 154.64375 98.67688 153.22188L98.67688 153.03438Q98.67688 152.08125 99.036255 151.34688Q99.39563 150.59688 100.036255 150.19063Q100.692505 149.76875 101.442505 149.76875Q102.67688 149.76875 103.36438 150.58125Q104.05188 151.39375 104.05188 152.90938L104.05188 153.3625L99.755005 153.3625Q99.786255 154.3 100.30188 154.87813Q100.83313 155.45625 101.64563 155.45625Q102.20813 155.45625 102.598755 155.22188Q103.005005 154.9875 103.317505 154.59688L103.973755 155.1125Q103.17688 156.34688 101.58313 156.34688ZM101.442505 150.65938Q100.786255 150.65938 100.33313 151.14375Q99.89563 151.6125 99.80188 152.47188L102.973755 152.47188L102.973755 152.39375Q102.92688 151.56563 102.52063 151.1125Q102.130005 150.65938 101.442505 150.65938ZM105.973755 149.87813L106.005005 150.675Q106.73938 149.76875 107.911255 149.76875Q109.92688 149.76875 109.942505 152.03438L109.942505 156.22188L108.848755 156.22188L108.848755 152.01875Q108.848755 151.34688 108.536255 151.01875Q108.23938 150.69063 107.58313 150.69063Q107.05188 150.69063 106.64563 150.97188Q106.255005 151.25313 106.036255 151.70625L106.036255 156.22188L104.95813 156.22188L104.95813 149.87813L105.973755 149.87813ZM111.692505 153.00313Q111.692505 151.53438 112.380005 150.65938Q113.067505 149.76875 114.192505 149.76875Q115.30188 149.76875 115.95813 150.51875L115.95813 147.22188L117.036255 147.22188L117.036255 156.22188L116.036255 156.22188L115.98938 155.53438Q115.33313 156.34688 114.17688 156.34688Q113.08313 156.34688 112.380005 155.44063Q111.692505 154.53438 111.692505 153.08125L111.692505 153.00313ZM112.77063 153.12813Q112.77063 154.20625 113.20813 154.81563Q113.661255 155.425 114.442505 155.425Q115.473755 155.425 115.95813 154.4875L115.95813 151.58125Q115.473755 150.69063 114.45813 150.69063Q113.661255 150.69063 113.20813 151.3Q112.77063 151.90938 112.77063 153.12813ZM121.58313 156.34688Q120.286255 156.34688 119.473755 155.50313Q118.67688 154.64375 118.67688 153.22188L118.67688 153.03438Q118.67688 152.08125 119.036255 151.34688Q119.39563 150.59688 120.036255 150.19063Q120.692505 149.76875 121.442505 149.76875Q122.67688 149.76875 123.36438 150.58125Q124.05188 151.39375 124.05188 152.90938L124.05188 153.3625L119.755005 153.3625Q119.786255 154.3 120.30188 154.87813Q120.83313 155.45625 121.64563 155.45625Q122.20813 155.45625 122.598755 155.22188Q123.005005 154.9875 123.317505 154.59688L123.973755 155.1125Q123.17688 156.34688 121.58313 156.34688ZM121.442505 150.65938Q120.786255 150.65938 120.33313 151.14375Q119.89563 151.6125 119.80188 152.47188L122.973755 152.47188L122.973755 152.39375Q122.92688 151.56563 122.52063 151.1125Q122.130005 150.65938 121.442505 150.65938ZM124.692505 153.00313Q124.692505 151.53438 125.380005 150.65938Q126.067505 149.76875 127.192505 149.76875Q128.30188 149.76875 128.95813 150.51875L128.95813 147.22188L130.03625 147.22188L130.03625 156.22188L129.03625 156.22188L128.98938 155.53438Q128.33313 156.34688 127.17688 156.34688Q126.08313 156.34688 125.380005 155.44063Q124.692505 154.53438 124.692505 153.08125L124.692505 153.00313ZM125.77063 153.12813Q125.77063 154.20625 126.20813 154.81563Q126.661255 155.425 127.442505 155.425Q128.47375 155.425 128.95813 154.4875L128.95813 151.58125Q128.47375 150.69063 127.45813 150.69063Q126.661255 150.69063 126.20813 151.3Q125.77063 151.90938 125.77063 153.12813Z" fill-rule="nonzero"/><path fill="#000000" d="M93.30187 168.12813Q93.30187 169.56563 92.64562 170.45625Q91.98937 171.34688 90.84875 171.34688Q89.6925 171.34688 89.03625 170.6125L89.03625 173.65938L87.95812 173.65938L87.95812 164.87813L88.9425 164.87813L88.98937 165.58125Q89.66125 164.76875 90.83312 164.76875Q91.97375 164.76875 92.63 165.62813Q93.30187 166.4875 93.30187 168.01875L93.30187 168.12813ZM92.22375 168.00313Q92.22375 166.925 91.755 166.31563Q91.30187 165.69063 90.505 165.69063Q89.52062 165.69063 89.03625 166.55L89.03625 169.58125Q89.52062 170.45625 90.52062 170.45625Q91.30187 170.45625 91.755 169.84688Q92.22375 169.22188 92.22375 168.00313ZM98.86437 170.59688Q98.23937 171.34688 97.005 171.34688Q95.98937 171.34688 95.45812 170.75313Q94.92687 170.15938 94.92687 169.00313L94.92687 164.87813L96.005 164.87813L96.005 168.97188Q96.005 170.425 97.17687 170.425Q98.42687 170.425 98.83312 169.4875L98.83312 164.87813L99.92687 164.87813L99.92687 171.22188L98.89562 171.22188L98.86437 170.59688ZM105.02062 165.84688Q104.77062 165.81563 104.48937 165.81563Q103.41125 165.81563 103.03625 166.72188L103.03625 171.22188L101.95812 171.22188L101.95812 164.87813L103.005 164.87813L103.02062 165.6125Q103.55187 164.76875 104.53625 164.76875Q104.84875 164.76875 105.02062 164.84688L105.02062 165.84688ZM111.30187 168.12813Q111.30187 169.56563 110.64562 170.45625Q109.98937 171.34688 108.84875 171.34688Q107.6925 171.34688 107.03625 170.6125L107.03625 173.65938L105.95812 173.65938L105.95812 164.87813L106.9425 164.87813L106.98937 165.58125Q107.66125 164.76875 108.83312 164.76875Q109.97375 164.76875 110.63 165.62813Q111.30187 166.4875 111.30187 168.01875L111.30187 168.12813ZM110.22375 168.00313Q110.22375 166.925 109.755 166.31563Q109.30187 165.69063 108.505 165.69063Q107.52062 165.69063 107.03625 166.55L107.03625 169.58125Q107.52062 170.45625 108.52062 170.45625Q109.30187 170.45625 109.755 169.84688Q110.22375 169.22188 110.22375 168.00313ZM112.66125 167.9875Q112.66125 167.06563 113.02062 166.31563Q113.39562 165.56563 114.05187 165.175Q114.70812 164.76875 115.53625 164.76875Q116.83312 164.76875 117.63 165.65938Q118.4425 166.55 118.4425 168.05L118.4425 168.12813Q118.4425 169.05 118.08312 169.78438Q117.72375 170.51875 117.0675 170.94063Q116.41125 171.34688 115.55187 171.34688Q114.27062 171.34688 113.45812 170.45625Q112.66125 169.55 112.66125 168.06563L112.66125 167.9875ZM113.755 168.12813Q113.755 169.175 114.23937 169.81563Q114.73937 170.45625 115.55187 170.45625Q116.38 170.45625 116.86437 169.81563Q117.34875 169.15938 117.34875 167.9875Q117.34875 166.95625 116.84875 166.31563Q116.36437 165.65938 115.53625 165.65938Q114.73937 165.65938 114.23937 166.3Q113.755 166.925 113.755 168.12813ZM123.64562 169.53438Q123.64562 169.09688 123.30187 168.8625Q122.97375 168.6125 122.14562 168.44063Q121.33312 168.26875 120.84875 168.01875Q120.36437 167.76875 120.13 167.44063Q119.91125 167.09688 119.91125 166.62813Q119.91125 165.84688 120.5675 165.31563Q121.22375 164.76875 122.255 164.76875Q123.33312 164.76875 123.98937 165.33125Q124.66125 165.87813 124.66125 166.7375L123.58312 166.7375Q123.58312 166.3 123.1925 165.9875Q122.8175 165.65938 122.255 165.65938Q121.66125 165.65938 121.3175 165.925Q120.98937 166.175 120.98937 166.58125Q120.98937 166.97188 121.30187 167.175Q121.61437 167.37813 122.42687 167.56563Q123.23937 167.7375 123.73937 167.9875Q124.23937 168.2375 124.47375 168.59688Q124.72375 168.95625 124.72375 169.45625Q124.72375 170.31563 124.03625 170.83125Q123.36437 171.34688 122.28625 171.34688Q121.52062 171.34688 120.92687 171.08125Q120.34875 170.8 120.02062 170.31563Q119.6925 169.83125 119.6925 169.26875L120.77062 169.26875Q120.80187 169.81563 121.20812 170.14375Q121.61437 170.45625 122.28625 170.45625Q122.89562 170.45625 123.27062 170.20625Q123.64562 169.95625 123.64562 169.53438ZM128.58313 171.34688Q127.28625 171.34688 126.47375 170.50313Q125.67687 169.64375 125.67687 168.22188L125.67687 168.03438Q125.67687 167.08125 126.03625 166.34688Q126.39562 165.59688 127.03625 165.19063Q127.6925 164.76875 128.4425 164.76875Q129.67688 164.76875 130.36438 165.58125Q131.05188 166.39375 131.05188 167.90938L131.05188 168.3625L126.755 168.3625Q126.78625 169.3 127.30187 169.87813Q127.83312 170.45625 128.64563 170.45625Q129.20813 170.45625 129.59875 170.22188Q130.005 169.9875 130.3175 169.59688L130.97375 170.1125Q130.17688 171.34688 128.58313 171.34688ZM128.4425 165.65938Q127.78625 165.65938 127.33312 166.14375Q126.89562 166.6125 126.80187 167.47188L129.97375 167.47188L129.97375 167.39375Q129.92688 166.56563 129.52063 166.1125Q129.13 165.65938 128.4425 165.65938Z" fill-rule="nonzero"/><path fill="#000000" d="M44.426876 247.39725Q43.989376 248.02225 43.208126 248.33475Q42.426876 248.64725 41.395626 248.64725Q40.364376 248.64725 39.551876 248.16287Q38.739376 247.66287 38.301876 246.75662Q37.864376 245.85037 37.84875 244.66287L37.84875 243.9285Q37.84875 241.991 38.739376 240.9285Q39.645626 239.866 41.270626 239.866Q42.614376 239.866 43.426876 240.5535Q44.239376 241.241 44.426876 242.491L43.301876 242.491Q42.97375 240.8035 41.28625 240.8035Q40.145626 240.8035 39.5675 241.60037Q38.989376 242.38162 38.97375 243.89725L38.97375 244.58475Q38.97375 246.02225 39.63 246.88162Q40.28625 247.72537 41.41125 247.72537Q42.03625 247.72537 42.505 247.58475Q42.989376 247.44412 43.301876 247.10037L43.301876 245.19412L41.333126 245.19412L41.333126 244.27225L44.426876 244.27225L44.426876 247.39725ZM45.66125 245.28787Q45.66125 244.366 46.020626 243.616Q46.395626 242.866 47.051876 242.47537Q47.708126 242.06912 48.53625 242.06912Q49.833126 242.06912 50.63 242.95975Q51.4425 243.85037 51.4425 245.35037L51.4425 245.4285Q51.4425 246.35037 51.083126 247.08475Q50.72375 247.81912 50.0675 248.241Q49.41125 248.64725 48.551876 248.64725Q47.270626 248.64725 46.458126 247.75662Q45.66125 246.85037 45.66125 245.366L45.66125 245.28787ZM46.755 245.4285Q46.755 246.47537 47.239376 247.116Q47.739376 247.75662 48.551876 247.75662Q49.38 247.75662 49.864376 247.116Q50.34875 246.45975 50.34875 245.28787Q50.34875 244.25662 49.84875 243.616Q49.364376 242.95975 48.53625 242.95975Q47.739376 242.95975 47.239376 243.60037Q46.755 244.22537 46.755 245.4285ZM55.03625 247.0535L56.614376 242.1785L57.72375 242.1785L55.4425 248.52225L54.614376 248.52225L52.3175 242.1785L53.426876 242.1785L55.03625 247.0535ZM60.426876 240.64725L60.426876 242.1785L61.59875 242.1785L61.59875 243.02225L60.426876 243.02225L60.426876 246.94412Q60.426876 247.33475 60.583126 247.52225Q60.739376 247.70975 61.114376 247.70975Q61.301876 247.70975 61.63 247.64725L61.63 248.52225Q61.208126 248.64725 60.801876 248.64725Q60.083126 248.64725 59.708126 248.20975Q59.333126 247.75662 59.333126 246.94412L59.333126 243.02225L58.176876 243.02225L58.176876 242.1785L59.333126 242.1785L59.333126 240.64725L60.426876 240.64725ZM62.97375 247.95975Q62.97375 247.6785 63.13 247.491Q63.301876 247.3035 63.63 247.3035Q63.97375 247.3035 64.14563 247.491Q64.317505 247.6785 64.317505 247.95975Q64.317505 248.22537 64.14563 248.41287Q63.97375 248.58475 63.63 248.58475Q63.301876 248.58475 63.13 248.41287Q62.97375 248.22537 62.97375 247.95975ZM74.567505 247.02225L75.786255 242.1785L76.86438 242.1785L75.02063 248.52225L74.14563 248.52225L72.598755 243.70975L71.098755 248.52225L70.223755 248.52225L68.380005 242.1785L69.45813 242.1785L70.70813 246.9285L72.192505 242.1785L73.05188 242.1785L74.567505 247.02225ZM79.130005 248.52225L78.05188 248.52225L78.05188 242.1785L79.130005 242.1785L79.130005 248.52225ZM77.95813 240.50662Q77.95813 240.241 78.11438 240.0535Q78.286255 239.866 78.598755 239.866Q78.911255 239.866 79.067505 240.0535Q79.23938 240.241 79.23938 240.50662Q79.23938 240.75662 79.067505 240.94412Q78.911255 241.116 78.598755 241.116Q78.286255 241.116 78.11438 240.94412Q77.95813 240.75662 77.95813 240.50662ZM82.130005 248.52225L81.05188 248.52225L81.05188 239.52225L82.130005 239.52225L82.130005 248.52225ZM85.130005 248.52225L84.05188 248.52225L84.05188 239.52225L85.130005 239.52225L85.130005 248.52225ZM90.11438 248.52225L90.11438 239.991L92.536255 239.991Q93.64563 239.991 94.48938 240.491Q95.348755 240.97537 95.817505 241.88162Q96.286255 242.78787 96.286255 243.97537L96.286255 244.50662Q96.286255 245.72537 95.817505 246.63162Q95.36438 247.53787 94.48938 248.02225Q93.630005 248.50662 92.48938 248.52225L90.11438 248.52225ZM91.23938 240.91287L91.23938 247.60037L92.42688 247.60037Q93.723755 247.60037 94.442505 246.8035Q95.17688 245.991 95.17688 244.491L95.17688 243.991Q95.17688 242.53787 94.48938 241.741Q93.817505 240.9285 92.55188 240.91287L91.23938 240.91287ZM102.942505 244.58475L99.23938 244.58475L99.23938 247.60037L103.536255 247.60037L103.536255 248.52225L98.11438 248.52225L98.11438 239.991L103.48938 239.991L103.48938 240.91287L99.23938 240.91287L99.23938 243.66287L102.942505 243.66287L102.942505 244.58475ZM106.255005 247.60037L110.30188 247.60037L110.30188 248.52225L105.11438 248.52225L105.11438 239.991L106.255005 239.991L106.255005 247.60037ZM115.942505 244.58475L112.23938 244.58475L112.23938 247.60037L116.536255 247.60037L116.536255 248.52225L111.11438 248.52225L111.11438 239.991L116.48938 239.991L116.48938 240.91287L112.23938 240.91287L112.23938 243.66287L115.942505 243.66287L115.942505 244.58475ZM124.02063 240.91287L121.27063 240.91287L121.27063 248.52225L120.161255 248.52225L120.161255 240.91287L117.411255 240.91287L117.411255 239.991L124.02063 239.991L124.02063 240.91287ZM129.9425 244.58475L126.23938 244.58475L126.23938 247.60037L130.53625 247.60037L130.53625 248.52225L125.11438 248.52225L125.11438 239.991L130.48938 239.991L130.48938 240.91287L126.23938 240.91287L126.23938 243.66287L129.9425 243.66287L129.9425 244.58475Z" fill-rule="nonzero"/><path fill="#000000" d="M60.426876 255.64725L60.426876 257.1785L61.59875 257.1785L61.59875 258.02225L60.426876 258.02225L60.426876 261.94412Q60.426876 262.33475 60.583126 262.52225Q60.739376 262.70975 61.114376 262.70975Q61.301876 262.70975 61.63 262.64725L61.63 263.52225Q61.208126 263.64725 60.801876 263.64725Q60.083126 263.64725 59.708126 263.20975Q59.333126 262.75662 59.333126 261.94412L59.333126 258.02225L58.176876 258.02225L58.176876 257.1785L59.333126 257.1785L59.333126 255.64725L60.426876 255.64725ZM64.036255 257.94412Q64.755005 257.06912 65.911255 257.06912Q67.92688 257.06912 67.942505 259.33475L67.942505 263.52225L66.848755 263.52225L66.848755 259.31912Q66.848755 258.64725 66.536255 258.31912Q66.23938 257.991 65.58313 257.991Q65.05188 257.991 64.64563 258.27225Q64.255005 258.5535 64.036255 259.00662L64.036255 263.52225L62.958126 263.52225L62.958126 254.52225L64.036255 254.52225L64.036255 257.94412ZM72.58313 263.64725Q71.286255 263.64725 70.473755 262.8035Q69.67688 261.94412 69.67688 260.52225L69.67688 260.33475Q69.67688 259.38162 70.036255 258.64725Q70.39563 257.89725 71.036255 257.491Q71.692505 257.06912 72.442505 257.06912Q73.67688 257.06912 74.36438 257.88162Q75.05188 258.69412 75.05188 260.20975L75.05188 260.66287L70.755005 260.66287Q70.786255 261.60037 71.30188 262.1785Q71.83313 262.75662 72.64563 262.75662Q73.20813 262.75662 73.598755 262.52225Q74.005005 262.28787 74.317505 261.89725L74.973755 262.41287Q74.17688 263.64725 72.58313 263.64725ZM72.442505 257.95975Q71.786255 257.95975 71.33313 258.44412Q70.89563 258.91287 70.80188 259.77225L73.973755 259.77225L73.973755 259.69412Q73.92688 258.866 73.52063 258.41287Q73.130005 257.95975 72.442505 257.95975ZM78.692505 260.3035Q78.692505 258.83475 79.380005 257.95975Q80.067505 257.06912 81.192505 257.06912Q82.30188 257.06912 82.95813 257.81912L82.95813 254.52225L84.036255 254.52225L84.036255 263.52225L83.036255 263.52225L82.98938 262.83475Q82.33313 263.64725 81.17688 263.64725Q80.08313 263.64725 79.380005 262.741Q78.692505 261.83475 78.692505 260.38162L78.692505 260.3035ZM79.77063 260.4285Q79.77063 261.50662 80.20813 262.116Q80.661255 262.72537 81.442505 262.72537Q82.473755 262.72537 82.95813 261.78787L82.95813 258.88162Q82.473755 257.991 81.45813 257.991Q80.661255 257.991 80.20813 258.60037Q79.77063 259.20975 79.77063 260.4285ZM89.86438 263.52225Q89.77063 263.33475 89.70813 262.85037Q88.95813 263.64725 87.911255 263.64725Q86.973755 263.64725 86.36438 263.116Q85.77063 262.58475 85.77063 261.75662Q85.77063 260.77225 86.52063 260.22537Q87.27063 259.6785 88.64563 259.6785L89.692505 259.6785L89.692505 259.1785Q89.692505 258.616 89.348755 258.28787Q89.02063 257.94412 88.348755 257.94412Q87.77063 257.94412 87.380005 258.241Q86.98938 258.52225 86.98938 258.94412L85.89563 258.94412Q85.89563 258.45975 86.223755 258.02225Q86.567505 257.58475 87.14563 257.33475Q87.723755 257.06912 88.411255 257.06912Q89.52063 257.06912 90.130005 257.616Q90.755005 258.16287 90.786255 259.116L90.786255 262.03787Q90.786255 262.91287 91.005005 263.4285L91.005005 263.52225L89.86438 263.52225ZM88.067505 262.69412Q88.58313 262.69412 89.036255 262.4285Q89.48938 262.16287 89.692505 261.741L89.692505 260.44412L88.848755 260.44412Q86.848755 260.44412 86.848755 261.616Q86.848755 262.116 87.192505 262.41287Q87.536255 262.69412 88.067505 262.69412ZM94.42688 255.64725L94.42688 257.1785L95.598755 257.1785L95.598755 258.02225L94.42688 258.02225L94.42688 261.94412Q94.42688 262.33475 94.58313 262.52225Q94.73938 262.70975 95.11438 262.70975Q95.30188 262.70975 95.630005 262.64725L95.630005 263.52225Q95.20813 263.64725 94.80188 263.64725Q94.08313 263.64725 93.70813 263.20975Q93.33313 262.75662 93.33313 261.94412L93.33313 258.02225L92.17688 258.02225L92.17688 257.1785L93.33313 257.1785L93.33313 255.64725L94.42688 255.64725ZM100.86438 263.52225Q100.77063 263.33475 100.70813 262.85037Q99.95813 263.64725 98.911255 263.64725Q97.973755 263.64725 97.36438 263.116Q96.77063 262.58475 96.77063 261.75662Q96.77063 260.77225 97.52063 260.22537Q98.27063 259.6785 99.64563 259.6785L100.692505 259.6785L100.692505 259.1785Q100.692505 258.616 100.348755 258.28787Q100.02063 257.94412 99.348755 257.94412Q98.77063 257.94412 98.380005 258.241Q97.98938 258.52225 97.98938 258.94412L96.89563 258.94412Q96.89563 258.45975 97.223755 258.02225Q97.567505 257.58475 98.14563 257.33475Q98.723755 257.06912 99.411255 257.06912Q100.52063 257.06912 101.130005 257.616Q101.755005 258.16287 101.786255 259.116L101.786255 262.03787Q101.786255 262.91287 102.005005 263.4285L102.005005 263.52225L100.86438 263.52225ZM99.067505 262.69412Q99.58313 262.69412 100.036255 262.4285Q100.48938 262.16287 100.692505 261.741L100.692505 260.44412L99.848755 260.44412Q97.848755 260.44412 97.848755 261.616Q97.848755 262.116 98.192505 262.41287Q98.536255 262.69412 99.067505 262.69412ZM110.86438 263.52225Q110.77063 263.33475 110.70813 262.85037Q109.95813 263.64725 108.911255 263.64725Q107.973755 263.64725 107.36438 263.116Q106.77063 262.58475 106.77063 261.75662Q106.77063 260.77225 107.52063 260.22537Q108.27063 259.6785 109.64563 259.6785L110.692505 259.6785L110.692505 259.1785Q110.692505 258.616 110.348755 258.28787Q110.02063 257.94412 109.348755 257.94412Q108.77063 257.94412 108.380005 258.241Q107.98938 258.52225 107.98938 258.94412L106.89563 258.94412Q106.89563 258.45975 107.223755 258.02225Q107.567505 257.58475 108.14563 257.33475Q108.723755 257.06912 109.411255 257.06912Q110.52063 257.06912 111.130005 257.616Q111.755005 258.16287 111.786255 259.116L111.786255 262.03787Q111.786255 262.91287 112.005005 263.4285L112.005005 263.52225L110.86438 263.52225ZM109.067505 262.69412Q109.58313 262.69412 110.036255 262.4285Q110.48938 262.16287 110.692505 261.741L110.692505 260.44412L109.848755 260.44412Q107.848755 260.44412 107.848755 261.616Q107.848755 262.116 108.192505 262.41287Q108.536255 262.69412 109.067505 262.69412ZM114.48938 263.52225L114.48938 258.02225L113.48938 258.02225L113.48938 257.1785L114.48938 257.1785L114.48938 256.53787Q114.48938 255.50662 115.02063 254.95975Q115.567505 254.39725 116.567505 254.39725Q116.942505 254.39725 117.317505 254.491L117.255005 255.38162Q116.973755 255.31912 116.67688 255.31912Q116.14563 255.31912 115.848755 255.63162Q115.567505 255.94412 115.567505 256.50662L115.567505 257.1785L116.92688 257.1785L116.92688 258.02225L115.567505 258.02225L115.567505 263.52225L114.48938 263.52225ZM119.42688 255.64725L119.42688 257.1785L120.598755 257.1785L120.598755 258.02225L119.42688 258.02225L119.42688 261.94412Q119.42688 262.33475 119.58313 262.52225Q119.73938 262.70975 120.11438 262.70975Q120.30188 262.70975 120.630005 262.64725L120.630005 263.52225Q120.20813 263.64725 119.80188 263.64725Q119.08313 263.64725 118.70813 263.20975Q118.33313 262.75662 118.33313 261.94412L118.33313 258.02225L117.17688 258.02225L117.17688 257.1785L118.33313 257.1785L118.33313 255.64725L119.42688 255.64725ZM124.58313 263.64725Q123.286255 263.64725 122.473755 262.8035Q121.67688 261.94412 121.67688 260.52225L121.67688 260.33475Q121.67688 259.38162 122.036255 258.64725Q122.39563 257.89725 123.036255 257.491Q123.692505 257.06912 124.442505 257.06912Q125.67688 257.06912 126.36438 257.88162Q127.05188 258.69412 127.05188 260.20975L127.05188 260.66287L122.755005 260.66287Q122.786255 261.60037 123.30188 262.1785Q123.83313 262.75662 124.64563 262.75662Q125.20813 262.75662 125.598755 262.52225Q126.005005 262.28787 126.317505 261.89725L126.973755 262.41287Q126.17688 263.64725 124.58313 263.64725ZM124.442505 257.95975Q123.786255 257.95975 123.33313 258.44412Q122.89563 258.91287 122.80188 259.77225L125.973755 259.77225L125.973755 259.69412Q125.92688 258.866 125.52063 258.41287Q125.130005 257.95975 124.442505 257.95975ZM131.02063 258.14725Q130.77063 258.116 130.48938 258.116Q129.41125 258.116 129.03625 259.02225L129.03625 263.52225L127.95813 263.52225L127.95813 257.1785L129.005 257.1785L129.02063 257.91287Q129.55188 257.06912 130.53625 257.06912Q130.84875 257.06912 131.02063 257.14725L131.02063 258.14725Z" fill-rule="nonzero"/><path fill="#000000" d="M83.30187 275.4285Q83.30187 276.866 82.64562 277.75662Q81.98937 278.64725 80.84875 278.64725Q79.6925 278.64725 79.03625 277.91287L79.03625 280.95975L77.95812 280.95975L77.95812 272.1785L78.9425 272.1785L78.98937 272.88162Q79.66125 272.06912 80.83312 272.06912Q81.97375 272.06912 82.63 272.9285Q83.30187 273.78787 83.30187 275.31912L83.30187 275.4285ZM82.22375 275.3035Q82.22375 274.22537 81.755 273.616Q81.30187 272.991 80.505 272.991Q79.52062 272.991 79.03625 273.85037L79.03625 276.88162Q79.52062 277.75662 80.52062 277.75662Q81.30187 277.75662 81.755 277.14725Q82.22375 276.52225 82.22375 275.3035ZM88.86437 278.52225Q88.77062 278.33475 88.70812 277.85037Q87.95812 278.64725 86.91125 278.64725Q85.97375 278.64725 85.36437 278.116Q84.77062 277.58475 84.77062 276.75662Q84.77062 275.77225 85.52062 275.22537Q86.27062 274.6785 87.64562 274.6785L88.6925 274.6785L88.6925 274.1785Q88.6925 273.616 88.34875 273.28787Q88.02062 272.94412 87.34875 272.94412Q86.77062 272.94412 86.38 273.241Q85.98937 273.52225 85.98937 273.94412L84.89562 273.94412Q84.89562 273.45975 85.22375 273.02225Q85.5675 272.58475 86.14562 272.33475Q86.72375 272.06912 87.41125 272.06912Q88.52062 272.06912 89.13 272.616Q89.755 273.16287 89.78625 274.116L89.78625 277.03787Q89.78625 277.91287 90.005 278.4285L90.005 278.52225L88.86437 278.52225ZM87.0675 277.69412Q87.58312 277.69412 88.03625 277.4285Q88.48937 277.16287 88.6925 276.741L88.6925 275.44412L87.84875 275.44412Q85.84875 275.44412 85.84875 276.616Q85.84875 277.116 86.1925 277.41287Q86.53625 277.69412 87.0675 277.69412ZM92.97375 272.1785L93.005 272.97537Q93.73937 272.06912 94.91125 272.06912Q96.92687 272.06912 96.9425 274.33475L96.9425 278.52225L95.84875 278.52225L95.84875 274.31912Q95.84875 273.64725 95.53625 273.31912Q95.23937 272.991 94.58312 272.991Q94.05187 272.991 93.64562 273.27225Q93.255 273.5535 93.03625 274.00662L93.03625 278.52225L91.95812 278.52225L91.95812 272.1785L92.97375 272.1785ZM98.6925 275.3035Q98.6925 273.83475 99.38 272.95975Q100.0675 272.06912 101.1925 272.06912Q102.30187 272.06912 102.95812 272.81912L102.95812 269.52225L104.03625 269.52225L104.03625 278.52225L103.03625 278.52225L102.98937 277.83475Q102.33312 278.64725 101.17687 278.64725Q100.08312 278.64725 99.38 277.741Q98.6925 276.83475 98.6925 275.38162L98.6925 275.3035ZM99.77062 275.4285Q99.77062 276.50662 100.20812 277.116Q100.66125 277.72537 101.4425 277.72537Q102.47375 277.72537 102.95812 276.78787L102.95812 273.88162Q102.47375 272.991 101.45812 272.991Q100.66125 272.991 100.20812 273.60037Q99.77062 274.20975 99.77062 275.4285ZM108.58312 278.64725Q107.28625 278.64725 106.47375 277.8035Q105.67687 276.94412 105.67687 275.52225L105.67687 275.33475Q105.67687 274.38162 106.03625 273.64725Q106.39562 272.89725 107.03625 272.491Q107.6925 272.06912 108.4425 272.06912Q109.67687 272.06912 110.36437 272.88162Q111.05187 273.69412 111.05187 275.20975L111.05187 275.66287L106.755 275.66287Q106.78625 276.60037 107.30187 277.1785Q107.83312 277.75662 108.64562 277.75662Q109.20812 277.75662 109.59875 277.52225Q110.005 277.28787 110.3175 276.89725L110.97375 277.41287Q110.17687 278.64725 108.58312 278.64725ZM108.4425 272.95975Q107.78625 272.95975 107.33312 273.44412Q106.89562 273.91287 106.80187 274.77225L109.97375 274.77225L109.97375 274.69412Q109.92687 273.866 109.52062 273.41287Q109.13 272.95975 108.4425 272.95975ZM112.97375 272.1785L113.005 272.88162Q113.6925 272.06912 114.88 272.06912Q116.20812 272.06912 116.6925 273.08475Q117.005 272.63162 117.505 272.35037Q118.02062 272.06912 118.70812 272.06912Q120.80187 272.06912 120.83312 274.27225L120.83312 278.52225L119.755 278.52225L119.755 274.33475Q119.755 273.66287 119.4425 273.33475Q119.13 272.991 118.39562 272.991Q117.78625 272.991 117.38 273.35037Q116.98937 273.70975 116.92687 274.31912L116.92687 278.52225L115.84875 278.52225L115.84875 274.366Q115.84875 272.991 114.48937 272.991Q113.42687 272.991 113.03625 273.89725L113.03625 278.52225L111.9425 278.52225L111.9425 272.1785L112.97375 272.1785ZM124.13 278.52225L123.05187 278.52225L123.05187 272.1785L124.13 272.1785L124.13 278.52225ZM122.95812 270.50662Q122.95812 270.241 123.11437 270.0535Q123.28625 269.866 123.59875 269.866Q123.91125 269.866 124.0675 270.0535Q124.23937 270.241 124.23937 270.50662Q124.23937 270.75662 124.0675 270.94412Q123.91125 271.116 123.59875 271.116Q123.28625 271.116 123.11437 270.94412Q122.95812 270.75662 122.95812 270.50662ZM128.48938 277.75662Q129.0675 277.75662 129.505 277.41287Q129.9425 277.0535 129.98938 276.52225L131.02063 276.52225Q130.98938 277.06912 130.63 277.56912Q130.28625 278.0535 129.70813 278.35037Q129.14563 278.64725 128.48938 278.64725Q127.1925 278.64725 126.42687 277.78787Q125.67687 276.91287 125.67687 275.41287L125.67687 275.22537Q125.67687 274.3035 126.005 273.58475Q126.34875 272.866 126.97375 272.47537Q127.61437 272.06912 128.48938 272.06912Q129.55188 272.06912 130.255 272.70975Q130.97375 273.33475 131.02063 274.366L129.98938 274.366Q129.9425 273.741 129.52063 273.35037Q129.09875 272.95975 128.48938 272.95975Q127.66125 272.95975 127.20812 273.5535Q126.755 274.14725 126.755 275.27225L126.755 275.47537Q126.755 276.56912 127.20812 277.16287Q127.66125 277.75662 128.48938 277.75662Z" fill-rule="nonzero"/><path fill="#000000" d="M135.1925 345.8094Q135.1925 347.71564 134.53625 348.65314Q133.89563 349.575 132.505 349.575Q131.14563 349.575 130.48938 348.66876Q129.83313 347.7625 129.80188 345.95L129.80188 344.5125Q129.80188 342.6219 130.4425 341.71564Q131.09875 340.79376 132.48938 340.79376Q133.86438 340.79376 134.52063 341.6844Q135.17688 342.5594 135.1925 344.40314L135.1925 345.8094ZM134.09875 344.325Q134.09875 342.95 133.70813 342.325Q133.33313 341.6844 132.48938 341.6844Q131.66125 341.6844 131.27063 342.325Q130.89563 342.95 130.89563 344.2469L130.89563 345.98126Q130.89563 347.35626 131.28625 348.02814Q131.6925 348.6844 132.505 348.6844Q133.30188 348.6844 133.6925 348.0594Q134.08313 347.4344 134.09875 346.10626L134.09875 344.325ZM136.73938 342.5594Q136.73938 341.79376 137.22375 341.29376Q137.72375 340.79376 138.48938 340.79376Q139.27063 340.79376 139.755 341.29376Q140.23938 341.79376 140.23938 342.59064L140.23938 343.0125Q140.23938 343.77814 139.73938 344.27814Q139.255 344.7625 138.505 344.7625Q137.73938 344.7625 137.23938 344.27814Q136.73938 343.77814 136.73938 342.96564L136.73938 342.5594ZM137.55188 343.0125Q137.55188 343.46564 137.80188 343.7625Q138.0675 344.0594 138.505 344.0594Q138.92688 344.0594 139.17688 343.77814Q139.42688 343.48126 139.42688 342.98126L139.42688 342.5594Q139.42688 342.10626 139.17688 341.8094Q138.92688 341.4969 138.48938 341.4969Q138.05188 341.4969 137.80188 341.8094Q137.55188 342.10626 137.55188 342.575L137.55188 343.0125ZM140.89563 347.35626Q140.89563 346.59064 141.38 346.10626Q141.88 345.60626 142.64563 345.60626Q143.41125 345.60626 143.89563 346.10626Q144.39563 346.59064 144.39563 347.40314L144.39563 347.8094Q144.39563 348.575 143.91125 349.075Q143.42688 349.575 142.66125 349.575Q141.89563 349.575 141.39563 349.09064Q140.89563 348.59064 140.89563 347.77814L140.89563 347.35626ZM141.70813 347.8094Q141.70813 348.27814 141.95813 348.575Q142.22375 348.8719 142.66125 348.8719Q143.08313 348.8719 143.33313 348.59064Q143.58313 348.29376 143.58313 347.79376L143.58313 347.35626Q143.58313 346.8875 143.3175 346.60626Q143.0675 346.3094 142.64563 346.3094Q142.22375 346.3094 141.95813 346.60626Q141.70813 346.8875 141.70813 347.3875L141.70813 347.8094ZM138.755 348.8094L138.13 348.41876L142.30188 341.7469L142.91125 342.1375L138.755 348.8094Z" fill-rule="nonzero"/><path fill="#000000" d="M243.00688 349.45L237.41313 349.45L237.41313 348.66876L240.36626 345.3875Q241.0225 344.6375 241.2725 344.1844Q241.5225 343.71564 241.5225 343.21564Q241.5225 342.54376 241.11626 342.1219Q240.72563 341.6844 240.03813 341.6844Q239.24126 341.6844 238.78813 342.15314Q238.335 342.60626 238.335 343.4344L237.25688 343.4344Q237.25688 342.2469 238.00688 341.52814Q238.7725 340.79376 240.03813 340.79376Q241.24126 340.79376 241.92876 341.41876Q242.61626 342.04376 242.61626 343.09064Q242.61626 344.34064 241.00688 346.09064L238.72563 348.5594L243.00688 348.5594L243.00688 349.45ZM244.91313 345.16876L245.35063 340.91876L249.72563 340.91876L249.72563 341.91876L246.2725 341.91876L246.00688 344.2469Q246.6475 343.8719 247.44438 343.8719Q248.60063 343.8719 249.28813 344.65314Q249.97563 345.41876 249.97563 346.73126Q249.97563 348.04376 249.25688 348.8094Q248.55376 349.575 247.2725 349.575Q246.1475 349.575 245.42876 348.95Q244.71 348.3094 244.61626 347.2L245.63188 347.2Q245.74126 347.9344 246.16313 348.3094Q246.585 348.6844 247.2725 348.6844Q248.0225 348.6844 248.46 348.16876Q248.8975 347.65314 248.8975 346.7469Q248.8975 345.8875 248.42876 345.3719Q247.96 344.85626 247.17876 344.85626Q246.47563 344.85626 246.06938 345.15314L245.78813 345.3875L244.91313 345.16876ZM251.31938 342.5594Q251.31938 341.79376 251.80376 341.29376Q252.30376 340.79376 253.06938 340.79376Q253.85063 340.79376 254.335 341.29376Q254.81938 341.79376 254.81938 342.59064L254.81938 343.0125Q254.81938 343.77814 254.31938 344.27814Q253.835 344.7625 253.085 344.7625Q252.31938 344.7625 251.81938 344.27814Q251.31938 343.77814 251.31938 342.96564L251.31938 342.5594ZM252.13188 343.0125Q252.13188 343.46564 252.38188 343.7625Q252.6475 344.0594 253.085 344.0594Q253.50688 344.0594 253.75688 343.77814Q254.00688 343.48126 254.00688 342.98126L254.00688 342.5594Q254.00688 342.10626 253.75688 341.8094Q253.50688 341.4969 253.06938 341.4969Q252.63188 341.4969 252.38188 341.8094Q252.13188 342.10626 252.13188 342.575L252.13188 343.0125ZM255.47563 347.35626Q255.47563 346.59064 255.96 346.10626Q256.46002 345.60626 257.22565 345.60626Q257.99127 345.60626 258.47565 346.10626Q258.97565 346.59064 258.97565 347.40314L258.97565 347.8094Q258.97565 348.575 258.49127 349.075Q258.0069 349.575 257.24127 349.575Q256.47565 349.575 255.97563 349.09064Q255.47563 348.59064 255.47563 347.77814L255.47563 347.35626ZM256.28815 347.8094Q256.28815 348.27814 256.53815 348.575Q256.80377 348.8719 257.24127 348.8719Q257.66315 348.8719 257.91315 348.59064Q258.16315 348.29376 258.16315 347.79376L258.16315 347.35626Q258.16315 346.8875 257.89752 346.60626Q257.64752 346.3094 257.22565 346.3094Q256.80377 346.3094 256.53815 346.60626Q256.28815 346.8875 256.28815 347.3875L256.28815 347.8094ZM253.335 348.8094L252.71 348.41876L256.8819 341.7469L257.49127 342.1375L253.335 348.8094Z" fill-rule="nonzero"/><path fill="#000000" d="M348.99313 345.16876L349.43063 340.91876L353.80563 340.91876L353.80563 341.91876L350.3525 341.91876L350.08688 344.2469Q350.7275 343.8719 351.52438 343.8719Q352.68063 343.8719 353.36813 344.65314Q354.05563 345.41876 354.05563 346.73126Q354.05563 348.04376 353.33688 348.8094Q352.63376 349.575 351.3525 349.575Q350.2275 349.575 349.50876 348.95Q348.79 348.3094 348.69626 347.2L349.71188 347.2Q349.82126 347.9344 350.24313 348.3094Q350.665 348.6844 351.3525 348.6844Q352.1025 348.6844 352.54 348.16876Q352.9775 347.65314 352.9775 346.7469Q352.9775 345.8875 352.50876 345.3719Q352.04 344.85626 351.25876 344.85626Q350.55563 344.85626 350.14938 345.15314L349.86813 345.3875L348.99313 345.16876ZM360.8525 345.8094Q360.8525 347.71564 360.19626 348.65314Q359.55563 349.575 358.165 349.575Q356.80563 349.575 356.14938 348.66876Q355.49313 347.7625 355.46188 345.95L355.46188 344.5125Q355.46188 342.6219 356.1025 341.71564Q356.75876 340.79376 358.14938 340.79376Q359.52438 340.79376 360.18063 341.6844Q360.83688 342.5594 360.8525 344.40314L360.8525 345.8094ZM359.75876 344.325Q359.75876 342.95 359.36813 342.325Q358.99313 341.6844 358.14938 341.6844Q357.32126 341.6844 356.93063 342.325Q356.55563 342.95 356.55563 344.2469L356.55563 345.98126Q356.55563 347.35626 356.94626 348.02814Q357.3525 348.6844 358.165 348.6844Q358.96188 348.6844 359.3525 348.0594Q359.74313 347.4344 359.75876 346.10626L359.75876 344.325ZM362.39938 342.5594Q362.39938 341.79376 362.88376 341.29376Q363.38376 340.79376 364.14938 340.79376Q364.93063 340.79376 365.415 341.29376Q365.89938 341.79376 365.89938 342.59064L365.89938 343.0125Q365.89938 343.77814 365.39938 344.27814Q364.915 344.7625 364.165 344.7625Q363.39938 344.7625 362.89938 344.27814Q362.39938 343.77814 362.39938 342.96564L362.39938 342.5594ZM363.21188 343.0125Q363.21188 343.46564 363.46188 343.7625Q363.7275 344.0594 364.165 344.0594Q364.58688 344.0594 364.83688 343.77814Q365.08688 343.48126 365.08688 342.98126L365.08688 342.5594Q365.08688 342.10626 364.83688 341.8094Q364.58688 341.4969 364.14938 341.4969Q363.71188 341.4969 363.46188 341.8094Q363.21188 342.10626 363.21188 342.575L363.21188 343.0125ZM366.55563 347.35626Q366.55563 346.59064 367.04 346.10626Q367.54 345.60626 368.30563 345.60626Q369.07126 345.60626 369.55563 346.10626Q370.05563 346.59064 370.05563 347.40314L370.05563 347.8094Q370.05563 348.575 369.57126 349.075Q369.08688 349.575 368.32126 349.575Q367.55563 349.575 367.05563 349.09064Q366.55563 348.59064 366.55563 347.77814L366.55563 347.35626ZM367.36813 347.8094Q367.36813 348.27814 367.61813 348.575Q367.88376 348.8719 368.32126 348.8719Q368.74313 348.8719 368.99313 348.59064Q369.24313 348.29376 369.24313 347.79376L369.24313 347.35626Q369.24313 346.8875 368.9775 346.60626Q368.7275 346.3094 368.30563 346.3094Q367.88376 346.3094 367.61813 346.60626Q367.36813 346.8875 367.36813 347.3875L367.36813 347.8094ZM364.415 348.8094L363.79 348.41876L367.96188 341.7469L368.57126 342.1375L364.415 348.8094Z" fill-rule="nonzero"/><path fill="#000000" d="M465.08875 341.52814L461.5575 349.45L460.41687 349.45L463.9325 341.8094L459.32312 341.8094L459.32312 340.91876L465.08875 340.91876L465.08875 341.52814ZM467.07312 345.16876L467.51062 340.91876L471.88562 340.91876L471.88562 341.91876L468.4325 341.91876L468.16687 344.2469Q468.8075 343.8719 469.60437 343.8719Q470.76062 343.8719 471.44812 344.65314Q472.13562 345.41876 472.13562 346.73126Q472.13562 348.04376 471.41687 348.8094Q470.71375 349.575 469.4325 349.575Q468.3075 349.575 467.58875 348.95Q466.87 348.3094 466.77625 347.2L467.79187 347.2Q467.90125 347.9344 468.32312 348.3094Q468.745 348.6844 469.4325 348.6844Q470.1825 348.6844 470.62 348.16876Q471.0575 347.65314 471.0575 346.7469Q471.0575 345.8875 470.58875 345.3719Q470.12 344.85626 469.33875 344.85626Q468.63562 344.85626 468.22937 345.15314L467.94812 345.3875L467.07312 345.16876ZM473.47937 342.5594Q473.47937 341.79376 473.96375 341.29376Q474.46375 340.79376 475.22937 340.79376Q476.01062 340.79376 476.495 341.29376Q476.97937 341.79376 476.97937 342.59064L476.97937 343.0125Q476.97937 343.77814 476.47937 344.27814Q475.995 344.7625 475.245 344.7625Q474.47937 344.7625 473.97937 344.27814Q473.47937 343.77814 473.47937 342.96564L473.47937 342.5594ZM474.29187 343.0125Q474.29187 343.46564 474.54187 343.7625Q474.8075 344.0594 475.245 344.0594Q475.66687 344.0594 475.91687 343.77814Q476.16687 343.48126 476.16687 342.98126L476.16687 342.5594Q476.16687 342.10626 475.91687 341.8094Q475.66687 341.4969 475.22937 341.4969Q474.79187 341.4969 474.54187 341.8094Q474.29187 342.10626 474.29187 342.575L474.29187 343.0125ZM477.63562 347.35626Q477.63562 346.59064 478.12 346.10626Q478.62 345.60626 479.38562 345.60626Q480.15125 345.60626 480.63562 346.10626Q481.13562 346.59064 481.13562 347.40314L481.13562 347.8094Q481.13562 348.575 480.65125 349.075Q480.16687 349.575 479.40125 349.575Q478.63562 349.575 478.13562 349.09064Q477.63562 348.59064 477.63562 347.77814L477.63562 347.35626ZM478.44812 347.8094Q478.44812 348.27814 478.69812 348.575Q478.96375 348.8719 479.40125 348.8719Q479.82312 348.8719 480.07312 348.59064Q480.32312 348.29376 480.32312 347.79376L480.32312 347.35626Q480.32312 346.8875 480.0575 346.60626Q479.8075 346.3094 479.38562 346.3094Q478.96375 346.3094 478.69812 346.60626Q478.44812 346.8875 478.44812 347.3875L478.44812 347.8094ZM475.495 348.8094L474.87 348.41876L479.04187 341.7469L479.65125 342.1375L475.495 348.8094Z" fill-rule="nonzero"/><path fill="#000000" d="M570.71564 349.45L569.6375 349.45L569.6375 342.23126L567.45 343.02814L567.45 342.04376L570.5594 340.8719L570.71564 340.8719L570.71564 349.45ZM579.5125 345.8094Q579.5125 347.71564 578.85626 348.65314Q578.21564 349.575 576.825 349.575Q575.46564 349.575 574.8094 348.66876Q574.15314 347.7625 574.1219 345.95L574.1219 344.5125Q574.1219 342.6219 574.7625 341.71564Q575.41876 340.79376 576.8094 340.79376Q578.1844 340.79376 578.84064 341.6844Q579.4969 342.5594 579.5125 344.40314L579.5125 345.8094ZM578.41876 344.325Q578.41876 342.95 578.02814 342.325Q577.65314 341.6844 576.8094 341.6844Q575.98126 341.6844 575.59064 342.325Q575.21564 342.95 575.21564 344.2469L575.21564 345.98126Q575.21564 347.35626 575.60626 348.02814Q576.0125 348.6844 576.825 348.6844Q577.6219 348.6844 578.0125 348.0594Q578.40314 347.4344 578.41876 346.10626L578.41876 344.325ZM586.5125 345.8094Q586.5125 347.71564 585.85626 348.65314Q585.21564 349.575 583.825 349.575Q582.46564 349.575 581.8094 348.66876Q581.15314 347.7625 581.1219 345.95L581.1219 344.5125Q581.1219 342.6219 581.7625 341.71564Q582.41876 340.79376 583.8094 340.79376Q585.1844 340.79376 585.84064 341.6844Q586.4969 342.5594 586.5125 344.40314L586.5125 345.8094ZM585.41876 344.325Q585.41876 342.95 585.02814 342.325Q584.65314 341.6844 583.8094 341.6844Q582.98126 341.6844 582.59064 342.325Q582.21564 342.95 582.21564 344.2469L582.21564 345.98126Q582.21564 347.35626 582.60626 348.02814Q583.0125 348.6844 583.825 348.6844Q584.6219 348.6844 585.0125 348.0594Q585.40314 347.4344 585.41876 346.10626L585.41876 344.325ZM588.0594 342.5594Q588.0594 341.79376 588.54376 341.29376Q589.04376 340.79376 589.8094 340.79376Q590.59064 340.79376 591.075 341.29376Q591.5594 341.79376 591.5594 342.59064L591.5594 343.0125Q591.5594 343.77814 591.0594 344.27814Q590.575 344.7625 589.825 344.7625Q589.0594 344.7625 588.5594 344.27814Q588.0594 343.77814 588.0594 342.96564L588.0594 342.5594ZM588.8719 343.0125Q588.8719 343.46564 589.1219 343.7625Q589.3875 344.0594 589.825 344.0594Q590.2469 344.0594 590.4969 343.77814Q590.7469 343.48126 590.7469 342.98126L590.7469 342.5594Q590.7469 342.10626 590.4969 341.8094Q590.2469 341.4969 589.8094 341.4969Q589.3719 341.4969 589.1219 341.8094Q588.8719 342.10626 588.8719 342.575L588.8719 343.0125ZM592.21564 347.35626Q592.21564 346.59064 592.7 346.10626Q593.2 345.60626 593.96564 345.60626Q594.73126 345.60626 595.21564 346.10626Q595.71564 346.59064 595.71564 347.40314L595.71564 347.8094Q595.71564 348.575 595.23126 349.075Q594.7469 349.575 593.98126 349.575Q593.21564 349.575 592.71564 349.09064Q592.21564 348.59064 592.21564 347.77814L592.21564 347.35626ZM593.02814 347.8094Q593.02814 348.27814 593.27814 348.575Q593.54376 348.8719 593.98126 348.8719Q594.40314 348.8719 594.65314 348.59064Q594.90314 348.29376 594.90314 347.79376L594.90314 347.35626Q594.90314 346.8875 594.6375 346.60626Q594.3875 346.3094 593.96564 346.3094Q593.54376 346.3094 593.27814 346.60626Q593.02814 346.8875 593.02814 347.3875L593.02814 347.8094ZM590.075 348.8094L589.45 348.41876L593.6219 341.7469L594.23126 342.1375L590.075 348.8094Z" fill-rule="nonzero"/><path fill="#f1c232" d="M125.65397 53.509483C125.65397 52.9572 126.101685 52.509483 126.65397 52.509483L136.65398 52.509483C137.20625 52.509483 137.65398 52.9572 137.65398 53.509483L137.65398 63.509483C137.65398 64.06177 137.20625 64.50948 136.65398 64.50948L126.65397 64.50948C126.101685 64.50948 125.65397 64.06177 125.65397 63.509483Z" fill-rule="nonzero"/><path fill="#000000" d="M149.15398 59.21261Q147.71648 58.790733 147.0446 58.18136Q146.38835 57.571983 146.38835 56.68136Q146.38835 55.68136 147.18523 55.02511Q147.99773 54.353233 149.2946 54.353233Q150.1696 54.353233 150.8571 54.696983Q151.5446 55.040733 151.9196 55.634483Q152.31023 56.228233 152.31023 56.946983L151.1696 56.946983Q151.1696 56.165733 150.6696 55.728233Q150.18523 55.290733 149.2946 55.290733Q148.46648 55.290733 147.99773 55.665733Q147.52898 56.02511 147.52898 56.665733Q147.52898 57.196983 147.96648 57.55636Q148.4196 57.915733 149.4821 58.21261Q150.5446 58.509483 151.13835 58.86886Q151.74773 59.228233 152.02898 59.71261Q152.32585 60.196983 152.32585 60.83761Q152.32585 61.884483 151.51335 62.509483Q150.70085 63.134483 149.3571 63.134483Q148.46648 63.134483 147.70085 62.790733Q146.95085 62.446983 146.52898 61.86886Q146.12273 61.27511 146.12273 60.540733L147.24773 60.540733Q147.24773 61.30636 147.82585 61.759483Q148.40398 62.21261 149.3571 62.21261Q150.24773 62.21261 150.71648 61.853233Q151.18523 61.478233 151.18523 60.853233Q151.18523 60.228233 150.74773 59.884483Q150.31023 59.540733 149.15398 59.21261ZM154.95085 55.134483L154.95085 56.665733L156.12273 56.665733L156.12273 57.509483L154.95085 57.509483L154.95085 61.43136Q154.95085 61.821983 155.1071 62.009483Q155.26335 62.196983 155.63835 62.196983Q155.82585 62.196983 156.15398 62.134483L156.15398 63.009483Q155.7321 63.134483 155.32585 63.134483Q154.6071 63.134483 154.2321 62.696983Q153.8571 62.24386 153.8571 61.43136L153.8571 57.509483L152.70085 57.509483L152.70085 56.665733L153.8571 56.665733L153.8571 55.134483L154.95085 55.134483ZM160.5446 57.634483Q160.2946 57.603233 160.01335 57.603233Q158.93523 57.603233 158.56023 58.509483L158.56023 63.009483L157.4821 63.009483L157.4821 56.665733L158.52898 56.665733L158.5446 57.40011Q159.07585 56.55636 160.06023 56.55636Q160.37273 56.55636 160.5446 56.634483L160.5446 57.634483ZM161.18523 59.77511Q161.18523 58.853233 161.5446 58.103233Q161.9196 57.353233 162.57585 56.96261Q163.2321 56.55636 164.06023 56.55636Q165.3571 56.55636 166.15398 57.446983Q166.96648 58.33761 166.96648 59.83761L166.96648 59.915733Q166.96648 60.83761 166.6071 61.571983Q166.24773 62.30636 165.59148 62.728233Q164.93523 63.134483 164.07585 63.134483Q162.7946 63.134483 161.9821 62.24386Q161.18523 61.33761 161.18523 59.853233L161.18523 59.77511ZM162.27898 59.915733Q162.27898 60.96261 162.76335 61.603233Q163.26335 62.24386 164.07585 62.24386Q164.90398 62.24386 165.38835 61.603233Q165.87273 60.946983 165.87273 59.77511Q165.87273 58.74386 165.37273 58.103233Q164.88835 57.446983 164.06023 57.446983Q163.26335 57.446983 162.76335 58.08761Q162.27898 58.71261 162.27898 59.915733ZM169.49773 56.665733L169.52898 57.46261Q170.26335 56.55636 171.43523 56.55636Q173.45085 56.55636 173.46648 58.821983L173.46648 63.009483L172.37273 63.009483L172.37273 58.80636Q172.37273 58.134483 172.06023 57.80636Q171.76335 57.478233 171.1071 57.478233Q170.57585 57.478233 170.1696 57.759483Q169.77898 58.040733 169.56023 58.49386L169.56023 63.009483L168.4821 63.009483L168.4821 56.665733L169.49773 56.665733ZM175.21648 59.790733Q175.21648 58.30636 175.90398 57.43136Q176.59148 56.55636 177.71648 56.55636Q178.87273 56.55636 179.52898 57.36886L179.57585 56.665733L180.57585 56.665733L180.57585 62.853233Q180.57585 64.08761 179.84148 64.79073Q179.1071 65.50948 177.88835 65.50948Q177.20085 65.50948 176.5446 65.21261Q175.88835 64.91573 175.5446 64.41573L176.1071 63.759483Q176.7946 64.61886 177.81023 64.61886Q178.59148 64.61886 179.02898 64.16573Q179.4821 63.728233 179.4821 62.915733L179.4821 62.36886Q178.82585 63.134483 177.70085 63.134483Q176.59148 63.134483 175.90398 62.24386Q175.21648 61.33761 175.21648 59.790733ZM176.31023 59.915733Q176.31023 60.978233 176.74773 61.603233Q177.18523 62.21261 177.9821 62.21261Q178.99773 62.21261 179.4821 61.27511L179.4821 58.384483Q178.9821 57.478233 177.9821 57.478233Q177.20085 57.478233 176.74773 58.08761Q176.31023 58.696983 176.31023 59.915733ZM183.65398 63.009483L182.57585 63.009483L182.57585 54.009483L183.65398 54.009483L183.65398 63.009483ZM187.5446 61.415733L189.02898 56.665733L190.18523 56.665733L187.63835 63.99386Q187.0446 65.57198 185.76335 65.57198L185.5446 65.55636L185.15398 65.47823L185.15398 64.60323L185.43523 64.61886Q185.99773 64.61886 186.2946 64.40011Q186.6071 64.18136 186.81023 63.58761L187.0446 62.93136L184.77898 56.665733L185.96648 56.665733L187.5446 61.415733ZM194.21648 59.790733Q194.21648 58.321983 194.90398 57.446983Q195.59148 56.55636 196.71648 56.55636Q197.82585 56.55636 198.4821 57.30636L198.4821 54.009483L199.56023 54.009483L199.56023 63.009483L198.56023 63.009483L198.51335 62.321983Q197.8571 63.134483 196.70085 63.134483Q195.6071 63.134483 194.90398 62.228233Q194.21648 61.321983 194.21648 59.86886L194.21648 59.790733ZM195.2946 59.915733Q195.2946 60.99386 195.7321 61.603233Q196.18523 62.21261 196.96648 62.21261Q197.99773 62.21261 198.4821 61.27511L198.4821 58.36886Q197.99773 57.478233 196.9821 57.478233Q196.18523 57.478233 195.7321 58.08761Q195.2946 58.696983 195.2946 59.915733ZM202.65398 63.009483L201.57585 63.009483L201.57585 56.665733L202.65398 56.665733L202.65398 63.009483ZM201.4821 54.99386Q201.4821 54.728233 201.63835 54.540733Q201.81023 54.353233 202.12273 54.353233Q202.43523 54.353233 202.59148 54.540733Q202.76335 54.728233 202.76335 54.99386Q202.76335 55.24386 202.59148 55.43136Q202.43523 55.603233 202.12273 55.603233Q201.81023 55.603233 201.63835 55.43136Q201.4821 55.24386 201.4821 54.99386ZM208.1696 61.321983Q208.1696 60.884483 207.82585 60.65011Q207.49773 60.40011 206.6696 60.228233Q205.8571 60.05636 205.37273 59.80636Q204.88835 59.55636 204.65398 59.228233Q204.43523 58.884483 204.43523 58.415733Q204.43523 57.634483 205.09148 57.103233Q205.74773 56.55636 206.77898 56.55636Q207.8571 56.55636 208.51335 57.11886Q209.18523 57.665733 209.18523 58.52511L208.1071 58.52511Q208.1071 58.08761 207.71648 57.77511Q207.34148 57.446983 206.77898 57.446983Q206.18523 57.446983 205.84148 57.71261Q205.51335 57.96261 205.51335 58.36886Q205.51335 58.759483 205.82585 58.96261Q206.13835 59.165733 206.95085 59.353233Q207.76335 59.52511 208.26335 59.77511Q208.76335 60.02511 208.99773 60.384483Q209.24773 60.74386 209.24773 61.24386Q209.24773 62.103233 208.56023 62.61886Q207.88835 63.134483 206.81023 63.134483Q206.0446 63.134483 205.45085 62.86886Q204.87273 62.58761 204.5446 62.103233Q204.21648 61.61886 204.21648 61.05636L205.2946 61.05636Q205.32585 61.603233 205.7321 61.93136Q206.13835 62.24386 206.81023 62.24386Q207.4196 62.24386 207.7946 61.99386Q208.1696 61.74386 208.1696 61.321983ZM214.38835 63.009483Q214.2946 62.821983 214.2321 62.33761Q213.4821 63.134483 212.43523 63.134483Q211.49773 63.134483 210.88835 62.603233Q210.2946 62.071983 210.2946 61.24386Q210.2946 60.259483 211.0446 59.71261Q211.7946 59.165733 213.1696 59.165733L214.21648 59.165733L214.21648 58.665733Q214.21648 58.103233 213.87273 57.77511Q213.5446 57.43136 212.87273 57.43136Q212.2946 57.43136 211.90398 57.728233Q211.51335 58.009483 211.51335 58.43136L210.4196 58.43136Q210.4196 57.946983 210.74773 57.509483Q211.09148 57.071983 211.6696 56.821983Q212.24773 56.55636 212.93523 56.55636Q214.0446 56.55636 214.65398 57.103233Q215.27898 57.65011 215.31023 58.603233L215.31023 61.52511Q215.31023 62.40011 215.52898 62.915733L215.52898 63.009483L214.38835 63.009483ZM212.59148 62.18136Q213.1071 62.18136 213.56023 61.915733Q214.01335 61.65011 214.21648 61.228233L214.21648 59.93136L213.37273 59.93136Q211.37273 59.93136 211.37273 61.103233Q211.37273 61.603233 211.71648 61.90011Q212.06023 62.18136 212.59148 62.18136ZM217.21648 59.790733Q217.21648 58.30636 217.90398 57.43136Q218.59148 56.55636 219.71648 56.55636Q220.87273 56.55636 221.52898 57.36886L221.57585 56.665733L222.57585 56.665733L222.57585 62.853233Q222.57585 64.08761 221.84148 64.79073Q221.1071 65.50948 219.88835 65.50948Q219.20085 65.50948 218.5446 65.21261Q217.88835 64.91573 217.5446 64.41573L218.1071 63.759483Q218.7946 64.61886 219.81023 64.61886Q220.59148 64.61886 221.02898 64.16573Q221.4821 63.728233 221.4821 62.915733L221.4821 62.36886Q220.82585 63.134483 219.70085 63.134483Q218.59148 63.134483 217.90398 62.24386Q217.21648 61.33761 217.21648 59.790733ZM218.31023 59.915733Q218.31023 60.978233 218.74773 61.603233Q219.18523 62.21261 219.9821 62.21261Q220.99773 62.21261 221.4821 61.27511L221.4821 58.384483Q220.9821 57.478233 219.9821 57.478233Q219.20085 57.478233 218.74773 58.08761Q218.31023 58.696983 218.31023 59.915733ZM227.5446 57.634483Q227.2946 57.603233 227.01335 57.603233Q225.93523 57.603233 225.56023 58.509483L225.56023 63.009483L224.4821 63.009483L224.4821 56.665733L225.52898 56.665733L225.5446 57.40011Q226.07585 56.55636 227.06023 56.55636Q227.37273 56.55636 227.5446 56.634483L227.5446 57.634483ZM231.1071 63.134483Q229.81023 63.134483 228.99773 62.290733Q228.20085 61.43136 228.20085 60.009483L228.20085 59.821983Q228.20085 58.86886 228.56023 58.134483Q228.9196 57.384483 229.56023 56.978233Q230.21648 56.55636 230.96648 56.55636Q232.20085 56.55636 232.88835 57.36886Q233.57585 58.18136 233.57585 59.696983L233.57585 60.15011L229.27898 60.15011Q229.31023 61.08761 229.82585 61.665733Q230.3571 62.24386 231.1696 62.24386Q231.7321 62.24386 232.12273 62.009483Q232.52898 61.77511 232.84148 61.384483L233.49773 61.90011Q232.70085 63.134483 231.1071 63.134483ZM230.96648 57.446983Q230.31023 57.446983 229.8571 57.93136Q229.4196 58.40011 229.32585 59.259483L232.49773 59.259483L232.49773 59.18136Q232.45085 58.353233 232.0446 57.90011Q231.65398 57.446983 230.96648 57.446983ZM237.1071 63.134483Q235.81023 63.134483 234.99773 62.290733Q234.20085 61.43136 234.20085 60.009483L234.20085 59.821983Q234.20085 58.86886 234.56023 58.134483Q234.9196 57.384483 235.56023 56.978233Q236.21648 56.55636 236.96648 56.55636Q238.20085 56.55636 238.88835 57.36886Q239.57585 58.18136 239.57585 59.696983L239.57585 60.15011L235.27898 60.15011Q235.31023 61.08761 235.82585 61.665733Q236.3571 62.24386 237.1696 62.24386Q237.7321 62.24386 238.12273 62.009483Q238.52898 61.77511 238.84148 61.384483L239.49773 61.90011Q238.70085 63.134483 237.1071 63.134483ZM236.96648 57.446983Q236.31023 57.446983 235.8571 57.93136Q235.4196 58.40011 235.32585 59.259483L238.49773 59.259483L238.49773 59.18136Q238.45085 58.353233 238.0446 57.90011Q237.65398 57.446983 236.96648 57.446983Z" fill-rule="nonzero"/><path fill="#ffe599" d="M255.65398 53.509483C255.65398 52.9572 256.10168 52.509483 256.65396 52.509483L266.65396 52.509483C267.20627 52.509483 267.65396 52.9572 267.65396 53.509483L267.65396 63.509483C267.65396 64.06177 267.20627 64.50948 266.65396 64.50948L256.65396 64.50948C256.10168 64.50948 255.65398 64.06177 255.65398 63.509483Z" fill-rule="nonzero"/><path fill="#000000" d="M276.63834 63.009483L276.63834 54.478233L279.0602 54.478233Q280.1696 54.478233 281.01334 54.978233Q281.8727 55.46261 282.34146 56.36886Q282.8102 57.27511 282.8102 58.46261L282.8102 58.99386Q282.8102 60.21261 282.34146 61.11886Q281.88834 62.02511 281.01334 62.509483Q280.15396 62.99386 279.01334 63.009483L276.63834 63.009483ZM277.76334 55.40011L277.76334 62.08761L278.95084 62.08761Q280.2477 62.08761 280.96646 61.290733Q281.70084 60.478233 281.70084 58.978233L281.70084 58.478233Q281.70084 57.02511 281.01334 56.228233Q280.34146 55.415733 279.07584 55.40011L277.76334 55.40011ZM285.65396 63.009483L284.57584 63.009483L284.57584 56.665733L285.65396 56.665733L285.65396 63.009483ZM284.4821 54.99386Q284.4821 54.728233 284.63834 54.540733Q284.8102 54.353233 285.1227 54.353233Q285.4352 54.353233 285.59146 54.540733Q285.76334 54.728233 285.76334 54.99386Q285.76334 55.24386 285.59146 55.43136Q285.4352 55.603233 285.1227 55.603233Q284.8102 55.603233 284.63834 55.43136Q284.4821 55.24386 284.4821 54.99386ZM291.1696 61.321983Q291.1696 60.884483 290.82584 60.65011Q290.4977 60.40011 289.6696 60.228233Q288.8571 60.05636 288.3727 59.80636Q287.88834 59.55636 287.65396 59.228233Q287.4352 58.884483 287.4352 58.415733Q287.4352 57.634483 288.09146 57.103233Q288.7477 56.55636 289.77896 56.55636Q290.8571 56.55636 291.51334 57.11886Q292.1852 57.665733 292.1852 58.52511L291.1071 58.52511Q291.1071 58.08761 290.71646 57.77511Q290.34146 57.446983 289.77896 57.446983Q289.1852 57.446983 288.84146 57.71261Q288.51334 57.96261 288.51334 58.36886Q288.51334 58.759483 288.82584 58.96261Q289.13834 59.165733 289.95084 59.353233Q290.76334 59.52511 291.26334 59.77511Q291.76334 60.02511 291.9977 60.384483Q292.2477 60.74386 292.2477 61.24386Q292.2477 62.103233 291.5602 62.61886Q290.88834 63.134483 289.8102 63.134483Q289.0446 63.134483 288.45084 62.86886Q287.8727 62.58761 287.5446 62.103233Q287.21646 61.61886 287.21646 61.05636L288.2946 61.05636Q288.32584 61.603233 288.7321 61.93136Q289.13834 62.24386 289.8102 62.24386Q290.4196 62.24386 290.7946 61.99386Q291.1696 61.74386 291.1696 61.321983ZM297.38834 63.009483Q297.2946 62.821983 297.2321 62.33761Q296.4821 63.134483 295.4352 63.134483Q294.4977 63.134483 293.88834 62.603233Q293.2946 62.071983 293.2946 61.24386Q293.2946 60.259483 294.0446 59.71261Q294.7946 59.165733 296.1696 59.165733L297.21646 59.165733L297.21646 58.665733Q297.21646 58.103233 296.8727 57.77511Q296.5446 57.43136 295.8727 57.43136Q295.2946 57.43136 294.90396 57.728233Q294.51334 58.009483 294.51334 58.43136L293.4196 58.43136Q293.4196 57.946983 293.7477 57.509483Q294.09146 57.071983 294.6696 56.821983Q295.2477 56.55636 295.9352 56.55636Q297.0446 56.55636 297.65396 57.103233Q298.27896 57.65011 298.3102 58.603233L298.3102 61.52511Q298.3102 62.40011 298.52896 62.915733L298.52896 63.009483L297.38834 63.009483ZM295.59146 62.18136Q296.1071 62.18136 296.5602 61.915733Q297.01334 61.65011 297.21646 61.228233L297.21646 59.93136L296.3727 59.93136Q294.3727 59.93136 294.3727 61.103233Q294.3727 61.603233 294.71646 61.90011Q295.0602 62.18136 295.59146 62.18136ZM300.21646 59.790733Q300.21646 58.30636 300.90396 57.43136Q301.59146 56.55636 302.71646 56.55636Q303.8727 56.55636 304.52896 57.36886L304.57584 56.665733L305.57584 56.665733L305.57584 62.853233Q305.57584 64.08761 304.84146 64.79073Q304.1071 65.50948 302.88834 65.50948Q302.20084 65.50948 301.5446 65.21261Q300.88834 64.91573 300.5446 64.41573L301.1071 63.759483Q301.7946 64.61886 302.8102 64.61886Q303.59146 64.61886 304.02896 64.16573Q304.4821 63.728233 304.4821 62.915733L304.4821 62.36886Q303.82584 63.134483 302.70084 63.134483Q301.59146 63.134483 300.90396 62.24386Q300.21646 61.33761 300.21646 59.790733ZM301.3102 59.915733Q301.3102 60.978233 301.7477 61.603233Q302.1852 62.21261 302.9821 62.21261Q303.9977 62.21261 304.4821 61.27511L304.4821 58.384483Q303.9821 57.478233 302.9821 57.478233Q302.20084 57.478233 301.7477 58.08761Q301.3102 58.696983 301.3102 59.915733ZM310.5446 57.634483Q310.2946 57.603233 310.01334 57.603233Q308.9352 57.603233 308.5602 58.509483L308.5602 63.009483L307.4821 63.009483L307.4821 56.665733L308.52896 56.665733L308.5446 57.40011Q309.07584 56.55636 310.0602 56.55636Q310.3727 56.55636 310.5446 56.634483L310.5446 57.634483ZM314.1071 63.134483Q312.8102 63.134483 311.9977 62.290733Q311.20084 61.43136 311.20084 60.009483L311.20084 59.821983Q311.20084 58.86886 311.5602 58.134483Q311.9196 57.384483 312.5602 56.978233Q313.21646 56.55636 313.96646 56.55636Q315.20084 56.55636 315.88834 57.36886Q316.57584 58.18136 316.57584 59.696983L316.57584 60.15011L312.27896 60.15011Q312.3102 61.08761 312.82584 61.665733Q313.3571 62.24386 314.1696 62.24386Q314.7321 62.24386 315.1227 62.009483Q315.52896 61.77511 315.84146 61.384483L316.4977 61.90011Q315.70084 63.134483 314.1071 63.134483ZM313.96646 57.446983Q313.3102 57.446983 312.8571 57.93136Q312.4196 58.40011 312.32584 59.259483L315.4977 59.259483L315.4977 59.18136Q315.45084 58.353233 315.0446 57.90011Q314.65396 57.446983 313.96646 57.446983ZM320.1071 63.134483Q318.8102 63.134483 317.9977 62.290733Q317.20084 61.43136 317.20084 60.009483L317.20084 59.821983Q317.20084 58.86886 317.5602 58.134483Q317.9196 57.384483 318.5602 56.978233Q319.21646 56.55636 319.96646 56.55636Q321.20084 56.55636 321.88834 57.36886Q322.57584 58.18136 322.57584 59.696983L322.57584 60.15011L318.27896 60.15011Q318.3102 61.08761 318.82584 61.665733Q319.3571 62.24386 320.1696 62.24386Q320.7321 62.24386 321.1227 62.009483Q321.52896 61.77511 321.84146 61.384483L322.4977 61.90011Q321.70084 63.134483 320.1071 63.134483ZM319.96646 57.446983Q319.3102 57.446983 318.8571 57.93136Q318.4196 58.40011 318.32584 59.259483L321.4977 59.259483L321.4977 59.18136Q321.45084 58.353233 321.0446 57.90011Q320.65396 57.446983 319.96646 57.446983Z" fill-rule="nonzero"/><path fill="#f3f3f3" d="M338.65396 53.509483C338.65396 52.9572 339.10168 52.509483 339.65396 52.509483L349.65396 52.509483C350.20627 52.509483 350.65396 52.9572 350.65396 53.509483L350.65396 63.509483C350.65396 64.06177 350.20627 64.50948 349.65396 64.50948L339.65396 64.50948C339.10168 64.50948 338.65396 64.06177 338.65396 63.509483Z" fill-rule="nonzero"/><path fill="#000000" d="M366.20084 63.009483L365.07584 63.009483L360.77896 56.43136L360.77896 63.009483L359.63834 63.009483L359.63834 54.478233L360.77896 54.478233L365.07584 61.08761L365.07584 54.478233L366.20084 54.478233L366.20084 63.009483ZM371.1071 63.134483Q369.8102 63.134483 368.9977 62.290733Q368.20084 61.43136 368.20084 60.009483L368.20084 59.821983Q368.20084 58.86886 368.5602 58.134483Q368.9196 57.384483 369.5602 56.978233Q370.21646 56.55636 370.96646 56.55636Q372.20084 56.55636 372.88834 57.36886Q373.57584 58.18136 373.57584 59.696983L373.57584 60.15011L369.27896 60.15011Q369.3102 61.08761 369.82584 61.665733Q370.3571 62.24386 371.1696 62.24386Q371.7321 62.24386 372.1227 62.009483Q372.52896 61.77511 372.84146 61.384483L373.4977 61.90011Q372.70084 63.134483 371.1071 63.134483ZM370.96646 57.446983Q370.3102 57.446983 369.8571 57.93136Q369.4196 58.40011 369.32584 59.259483L372.4977 59.259483L372.4977 59.18136Q372.45084 58.353233 372.0446 57.90011Q371.65396 57.446983 370.96646 57.446983ZM378.38834 62.384483Q377.76334 63.134483 376.52896 63.134483Q375.51334 63.134483 374.9821 62.540733Q374.45084 61.946983 374.45084 60.790733L374.45084 56.665733L375.52896 56.665733L375.52896 60.759483Q375.52896 62.21261 376.70084 62.21261Q377.95084 62.21261 378.3571 61.27511L378.3571 56.665733L379.45084 56.665733L379.45084 63.009483L378.4196 63.009483L378.38834 62.384483ZM382.95084 55.134483L382.95084 56.665733L384.1227 56.665733L384.1227 57.509483L382.95084 57.509483L382.95084 61.43136Q382.95084 61.821983 383.1071 62.009483Q383.26334 62.196983 383.63834 62.196983Q383.82584 62.196983 384.15396 62.134483L384.15396 63.009483Q383.7321 63.134483 383.32584 63.134483Q382.6071 63.134483 382.2321 62.696983Q381.8571 62.24386 381.8571 61.43136L381.8571 57.509483L380.70084 57.509483L380.70084 56.665733L381.8571 56.665733L381.8571 55.134483L382.95084 55.134483ZM388.5446 57.634483Q388.2946 57.603233 388.01334 57.603233Q386.9352 57.603233 386.5602 58.509483L386.5602 63.009483L385.4821 63.009483L385.4821 56.665733L386.52896 56.665733L386.5446 57.40011Q387.07584 56.55636 388.0602 56.55636Q388.3727 56.55636 388.5446 56.634483L388.5446 57.634483ZM393.38834 63.009483Q393.2946 62.821983 393.2321 62.33761Q392.4821 63.134483 391.4352 63.134483Q390.4977 63.134483 389.88834 62.603233Q389.2946 62.071983 389.2946 61.24386Q389.2946 60.259483 390.0446 59.71261Q390.7946 59.165733 392.1696 59.165733L393.21646 59.165733L393.21646 58.665733Q393.21646 58.103233 392.8727 57.77511Q392.5446 57.43136 391.8727 57.43136Q391.2946 57.43136 390.90396 57.728233Q390.51334 58.009483 390.51334 58.43136L389.4196 58.43136Q389.4196 57.946983 389.7477 57.509483Q390.09146 57.071983 390.6696 56.821983Q391.2477 56.55636 391.9352 56.55636Q393.0446 56.55636 393.65396 57.103233Q394.27896 57.65011 394.3102 58.603233L394.3102 61.52511Q394.3102 62.40011 394.52896 62.915733L394.52896 63.009483L393.38834 63.009483ZM391.59146 62.18136Q392.1071 62.18136 392.5602 61.915733Q393.01334 61.65011 393.21646 61.228233L393.21646 59.93136L392.3727 59.93136Q390.3727 59.93136 390.3727 61.103233Q390.3727 61.603233 390.71646 61.90011Q391.0602 62.18136 391.59146 62.18136ZM397.65396 63.009483L396.57584 63.009483L396.57584 54.009483L397.65396 54.009483L397.65396 63.009483Z" fill-rule="nonzero"/><path fill="#b6d7a8" d="M414.65396 53.509483C414.65396 52.9572 415.10168 52.509483 415.65396 52.509483L425.65396 52.509483C426.20627 52.509483 426.65396 52.9572 426.65396 53.509483L426.65396 63.509483C426.65396 64.06177 426.20627 64.50948 425.65396 64.50948L415.65396 64.50948C415.10168 64.50948 414.65396 64.06177 414.65396 63.509483Z" fill-rule="nonzero"/><path fill="#000000" d="M440.3571 60.77511L436.77896 60.77511L435.9821 63.009483L434.82584 63.009483L438.07584 54.478233L439.0602 54.478233L442.32584 63.009483L441.1696 63.009483L440.3571 60.77511ZM437.1227 59.853233L440.02896 59.853233L438.57584 55.86886L437.1227 59.853233ZM443.21646 59.790733Q443.21646 58.30636 443.90396 57.43136Q444.59146 56.55636 445.71646 56.55636Q446.8727 56.55636 447.52896 57.36886L447.57584 56.665733L448.57584 56.665733L448.57584 62.853233Q448.57584 64.08761 447.84146 64.79073Q447.1071 65.50948 445.88834 65.50948Q445.20084 65.50948 444.5446 65.21261Q443.88834 64.91573 443.5446 64.41573L444.1071 63.759483Q444.7946 64.61886 445.8102 64.61886Q446.59146 64.61886 447.02896 64.16573Q447.4821 63.728233 447.4821 62.915733L447.4821 62.36886Q446.82584 63.134483 445.70084 63.134483Q444.59146 63.134483 443.90396 62.24386Q443.21646 61.33761 443.21646 59.790733ZM444.3102 59.915733Q444.3102 60.978233 444.7477 61.603233Q445.1852 62.21261 445.9821 62.21261Q446.9977 62.21261 447.4821 61.27511L447.4821 58.384483Q446.9821 57.478233 445.9821 57.478233Q445.20084 57.478233 444.7477 58.08761Q444.3102 58.696983 444.3102 59.915733ZM453.5446 57.634483Q453.2946 57.603233 453.01334 57.603233Q451.9352 57.603233 451.5602 58.509483L451.5602 63.009483L450.4821 63.009483L450.4821 56.665733L451.52896 56.665733L451.5446 57.40011Q452.07584 56.55636 453.0602 56.55636Q453.3727 56.55636 453.5446 56.634483L453.5446 57.634483ZM457.1071 63.134483Q455.8102 63.134483 454.9977 62.290733Q454.20084 61.43136 454.20084 60.009483L454.20084 59.821983Q454.20084 58.86886 454.5602 58.134483Q454.9196 57.384483 455.5602 56.978233Q456.21646 56.55636 456.96646 56.55636Q458.20084 56.55636 458.88834 57.36886Q459.57584 58.18136 459.57584 59.696983L459.57584 60.15011L455.27896 60.15011Q455.3102 61.08761 455.82584 61.665733Q456.3571 62.24386 457.1696 62.24386Q457.7321 62.24386 458.1227 62.009483Q458.52896 61.77511 458.84146 61.384483L459.4977 61.90011Q458.70084 63.134483 457.1071 63.134483ZM456.96646 57.446983Q456.3102 57.446983 455.8571 57.93136Q455.4196 58.40011 455.32584 59.259483L458.4977 59.259483L458.4977 59.18136Q458.45084 58.353233 458.0446 57.90011Q457.65396 57.446983 456.96646 57.446983ZM463.1071 63.134483Q461.8102 63.134483 460.9977 62.290733Q460.20084 61.43136 460.20084 60.009483L460.20084 59.821983Q460.20084 58.86886 460.5602 58.134483Q460.9196 57.384483 461.5602 56.978233Q462.21646 56.55636 462.96646 56.55636Q464.20084 56.55636 464.88834 57.36886Q465.57584 58.18136 465.57584 59.696983L465.57584 60.15011L461.27896 60.15011Q461.3102 61.08761 461.82584 61.665733Q462.3571 62.24386 463.1696 62.24386Q463.7321 62.24386 464.1227 62.009483Q464.52896 61.77511 464.84146 61.384483L465.4977 61.90011Q464.70084 63.134483 463.1071 63.134483ZM462.96646 57.446983Q462.3102 57.446983 461.8571 57.93136Q461.4196 58.40011 461.32584 59.259483L464.4977 59.259483L464.4977 59.18136Q464.45084 58.353233 464.0446 57.90011Q463.65396 57.446983 462.96646 57.446983Z" fill-rule="nonzero"/><path fill="#6aa84f" d="M481.65396 53.509483C481.65396 52.9572 482.10168 52.509483 482.65396 52.509483L492.65396 52.509483C493.20627 52.509483 493.65396 52.9572 493.65396 53.509483L493.65396 63.509483C493.65396 64.06177 493.20627 64.50948 492.65396 64.50948L482.65396 64.50948C482.10168 64.50948 481.65396 64.06177 481.65396 63.509483Z" fill-rule="nonzero"/><path fill="#000000" d="M505.15396 59.21261Q503.71646 58.790733 503.0446 58.18136Q502.38834 57.571983 502.38834 56.68136Q502.38834 55.68136 503.1852 55.02511Q503.9977 54.353233 505.2946 54.353233Q506.1696 54.353233 506.8571 54.696983Q507.5446 55.040733 507.9196 55.634483Q508.3102 56.228233 508.3102 56.946983L507.1696 56.946983Q507.1696 56.165733 506.6696 55.728233Q506.1852 55.290733 505.2946 55.290733Q504.46646 55.290733 503.9977 55.665733Q503.52896 56.02511 503.52896 56.665733Q503.52896 57.196983 503.96646 57.55636Q504.4196 57.915733 505.4821 58.21261Q506.5446 58.509483 507.13834 58.86886Q507.7477 59.228233 508.02896 59.71261Q508.32584 60.196983 508.32584 60.83761Q508.32584 61.884483 507.51334 62.509483Q506.70084 63.134483 505.3571 63.134483Q504.46646 63.134483 503.70084 62.790733Q502.95084 62.446983 502.52896 61.86886Q502.1227 61.27511 502.1227 60.540733L503.2477 60.540733Q503.2477 61.30636 503.82584 61.759483Q504.40396 62.21261 505.3571 62.21261Q506.2477 62.21261 506.71646 61.853233Q507.1852 61.478233 507.1852 60.853233Q507.1852 60.228233 506.7477 59.884483Q506.3102 59.540733 505.15396 59.21261ZM510.95084 55.134483L510.95084 56.665733L512.1227 56.665733L512.1227 57.509483L510.95084 57.509483L510.95084 61.43136Q510.95084 61.821983 511.1071 62.009483Q511.26334 62.196983 511.63834 62.196983Q511.82584 62.196983 512.15393 62.134483L512.15393 63.009483Q511.7321 63.134483 511.32584 63.134483Q510.6071 63.134483 510.2321 62.696983Q509.8571 62.24386 509.8571 61.43136L509.8571 57.509483L508.70084 57.509483L508.70084 56.665733L509.8571 56.665733L509.8571 55.134483L510.95084 55.134483ZM516.54456 57.634483Q516.29456 57.603233 516.0133 57.603233Q514.9352 57.603233 514.5602 58.509483L514.5602 63.009483L513.48206 63.009483L513.48206 56.665733L514.52893 56.665733L514.54456 57.40011Q515.0758 56.55636 516.0602 56.55636Q516.3727 56.55636 516.54456 56.634483L516.54456 57.634483ZM517.1852 59.77511Q517.1852 58.853233 517.54456 58.103233Q517.91956 57.353233 518.5758 56.96261Q519.23206 56.55636 520.0602 56.55636Q521.35706 56.55636 522.15393 57.446983Q522.96643 58.33761 522.96643 59.83761L522.96643 59.915733Q522.96643 60.83761 522.60706 61.571983Q522.2477 62.30636 521.59143 62.728233Q520.9352 63.134483 520.0758 63.134483Q518.79456 63.134483 517.98206 62.24386Q517.1852 61.33761 517.1852 59.853233L517.1852 59.77511ZM518.27893 59.915733Q518.27893 60.96261 518.7633 61.603233Q519.2633 62.24386 520.0758 62.24386Q520.90393 62.24386 521.3883 61.603233Q521.8727 60.946983 521.8727 59.77511Q521.8727 58.74386 521.3727 58.103233Q520.8883 57.446983 520.0602 57.446983Q519.2633 57.446983 518.7633 58.08761Q518.27893 58.71261 518.27893 59.915733ZM525.4977 56.665733L525.52893 57.46261Q526.2633 56.55636 527.4352 56.55636Q529.4508 56.55636 529.46643 58.821983L529.46643 63.009483L528.3727 63.009483L528.3727 58.80636Q528.3727 58.134483 528.0602 57.80636Q527.7633 57.478233 527.10706 57.478233Q526.5758 57.478233 526.16956 57.759483Q525.77893 58.040733 525.5602 58.49386L525.5602 63.009483L524.48206 63.009483L524.48206 56.665733L525.4977 56.665733ZM532.65393 63.009483L531.5758 63.009483L531.5758 54.009483L532.65393 54.009483L532.65393 63.009483ZM534.21643 59.790733Q534.21643 58.30636 534.90393 57.43136Q535.59143 56.55636 536.71643 56.55636Q537.8727 56.55636 538.52893 57.36886L538.5758 56.665733L539.5758 56.665733L539.5758 62.853233Q539.5758 64.08761 538.84143 64.79073Q538.10706 65.50948 536.8883 65.50948Q536.2008 65.50948 535.54456 65.21261Q534.8883 64.91573 534.54456 64.41573L535.10706 63.759483Q535.79456 64.61886 536.8102 64.61886Q537.59143 64.61886 538.02893 64.16573Q538.48206 63.728233 538.48206 62.915733L538.48206 62.36886Q537.8258 63.134483 536.7008 63.134483Q535.59143 63.134483 534.90393 62.24386Q534.21643 61.33761 534.21643 59.790733ZM535.3102 59.915733Q535.3102 60.978233 535.7477 61.603233Q536.1852 62.21261 536.98206 62.21261Q537.9977 62.21261 538.48206 61.27511L538.48206 58.384483Q537.98206 57.478233 536.98206 57.478233Q536.2008 57.478233 535.7477 58.08761Q535.3102 58.696983 535.3102 59.915733ZM543.54456 61.415733L545.02893 56.665733L546.1852 56.665733L543.6383 63.99386Q543.04456 65.57198 541.7633 65.57198L541.54456 65.55636L541.15393 65.47823L541.15393 64.60323L541.4352 64.61886Q541.9977 64.61886 542.29456 64.40011Q542.60706 64.18136 542.8102 63.58761L543.04456 62.93136L540.77893 56.665733L541.96643 56.665733L543.54456 61.415733ZM554.3883 63.009483Q554.29456 62.821983 554.23206 62.33761Q553.48206 63.134483 552.4352 63.134483Q551.4977 63.134483 550.8883 62.603233Q550.29456 62.071983 550.29456 61.24386Q550.29456 60.259483 551.04456 59.71261Q551.79456 59.165733 553.16956 59.165733L554.21643 59.165733L554.21643 58.665733Q554.21643 58.103233 553.8727 57.77511Q553.54456 57.43136 552.8727 57.43136Q552.29456 57.43136 551.90393 57.728233Q551.5133 58.009483 551.5133 58.43136L550.41956 58.43136Q550.41956 57.946983 550.7477 57.509483Q551.09143 57.071983 551.66956 56.821983Q552.2477 56.55636 552.9352 56.55636Q554.04456 56.55636 554.65393 57.103233Q555.27893 57.65011 555.3102 58.603233L555.3102 61.52511Q555.3102 62.40011 555.52893 62.915733L555.52893 63.009483L554.3883 63.009483ZM552.59143 62.18136Q553.10706 62.18136 553.5602 61.915733Q554.0133 61.65011 554.21643 61.228233L554.21643 59.93136L553.3727 59.93136Q551.3727 59.93136 551.3727 61.103233Q551.3727 61.603233 551.71643 61.90011Q552.0602 62.18136 552.59143 62.18136ZM557.21643 59.790733Q557.21643 58.30636 557.90393 57.43136Q558.59143 56.55636 559.71643 56.55636Q560.8727 56.55636 561.52893 57.36886L561.5758 56.665733L562.5758 56.665733L562.5758 62.853233Q562.5758 64.08761 561.84143 64.79073Q561.10706 65.50948 559.8883 65.50948Q559.2008 65.50948 558.54456 65.21261Q557.8883 64.91573 557.54456 64.41573L558.10706 63.759483Q558.79456 64.61886 559.8102 64.61886Q560.59143 64.61886 561.02893 64.16573Q561.48206 63.728233 561.48206 62.915733L561.48206 62.36886Q560.8258 63.134483 559.7008 63.134483Q558.59143 63.134483 557.90393 62.24386Q557.21643 61.33761 557.21643 59.790733ZM558.3102 59.915733Q558.3102 60.978233 558.7477 61.603233Q559.1852 62.21261 559.98206 62.21261Q560.9977 62.21261 561.48206 61.27511L561.48206 58.384483Q560.98206 57.478233 559.98206 57.478233Q559.2008 57.478233 558.7477 58.08761Q558.3102 58.696983 558.3102 59.915733ZM567.54456 57.634483Q567.29456 57.603233 567.0133 57.603233Q565.9352 57.603233 565.5602 58.509483L565.5602 63.009483L564.48206 63.009483L564.48206 56.665733L565.52893 56.665733L565.54456 57.40011Q566.0758 56.55636 567.0602 56.55636Q567.3727 56.55636 567.54456 56.634483L567.54456 57.634483ZM571.10706 63.134483Q569.8102 63.134483 568.9977 62.290733Q568.2008 61.43136 568.2008 60.009483L568.2008 59.821983Q568.2008 58.86886 568.5602 58.134483Q568.91956 57.384483 569.5602 56.978233Q570.21643 56.55636 570.96643 56.55636Q572.2008 56.55636 572.8883 57.36886Q573.5758 58.18136 573.5758 59.696983L573.5758 60.15011L569.27893 60.15011Q569.3102 61.08761 569.8258 61.665733Q570.35706 62.24386 571.16956 62.24386Q571.73206 62.24386 572.1227 62.009483Q572.52893 61.77511 572.84143 61.384483L573.4977 61.90011Q572.7008 63.134483 571.10706 63.134483ZM570.96643 57.446983Q570.3102 57.446983 569.85706 57.93136Q569.41956 58.40011 569.3258 59.259483L572.4977 59.259483L572.4977 59.18136Q572.4508 58.353233 572.04456 57.90011Q571.65393 57.446983 570.96643 57.446983ZM577.10706 63.134483Q575.8102 63.134483 574.9977 62.290733Q574.2008 61.43136 574.2008 60.009483L574.2008 59.821983Q574.2008 58.86886 574.5602 58.134483Q574.91956 57.384483 575.5602 56.978233Q576.21643 56.55636 576.96643 56.55636Q578.2008 56.55636 578.8883 57.36886Q579.5758 58.18136 579.5758 59.696983L579.5758 60.15011L575.27893 60.15011Q575.3102 61.08761 575.8258 61.665733Q576.35706 62.24386 577.16956 62.24386Q577.73206 62.24386 578.1227 62.009483Q578.52893 61.77511 578.84143 61.384483L579.4977 61.90011Q578.7008 63.134483 577.10706 63.134483ZM576.96643 57.446983Q576.3102 57.446983 575.85706 57.93136Q575.41956 58.40011 575.3258 59.259483L578.4977 59.259483L578.4977 59.18136Q578.4508 58.353233 578.04456 57.90011Q577.65393 57.446983 576.96643 57.446983Z" fill-rule="nonzero"/><path fill="#000000" d="M30.70625 35.690624Q29.971874 36.721874 28.675 37.2375Q27.39375 37.753124 25.675 37.753124Q23.925 37.753124 22.58125 36.940624Q21.2375 36.1125 20.503124 34.6125Q19.76875 33.1125 19.7375 31.128124L19.7375 29.878124Q19.7375 26.675 21.2375 24.909374Q22.7375 23.128124 25.45625 23.128124Q27.675 23.128124 29.034374 24.26875Q30.39375 25.409374 30.70625 27.503124L28.83125 27.503124Q28.3 24.675 25.471874 24.675Q23.58125 24.675 22.6125 26.003124Q21.64375 27.33125 21.628124 29.83125L21.628124 31.003124Q21.628124 33.39375 22.721874 34.8Q23.815624 36.20625 25.675 36.20625Q26.7375 36.20625 27.51875 35.971874Q28.315624 35.7375 28.83125 35.190624L28.83125 31.9875L25.55 31.9875L25.55 30.471874L30.70625 30.471874L30.70625 35.690624ZM35.878124 37.55L34.08125 37.55L34.08125 22.55L35.878124 22.55L35.878124 37.55ZM38.440624 32.175Q38.440624 30.6125 39.05 29.378124Q39.659374 28.128124 40.7375 27.45625Q41.83125 26.784374 43.2375 26.784374Q45.39375 26.784374 46.721874 28.284374Q48.065624 29.76875 48.065624 32.253124L48.065624 32.378124Q48.065624 33.925 47.471874 35.159374Q46.878124 36.378124 45.76875 37.065624Q44.675 37.753124 43.253124 37.753124Q41.1125 37.753124 39.76875 36.253124Q38.440624 34.753124 38.440624 32.3L38.440624 32.175ZM40.253124 32.378124Q40.253124 34.14375 41.065624 35.20625Q41.89375 36.26875 43.253124 36.26875Q44.628124 36.26875 45.440624 35.190624Q46.253124 34.1125 46.253124 32.175Q46.253124 30.425 45.425 29.346874Q44.596874 28.26875 43.2375 28.26875Q41.89375 28.26875 41.065624 29.33125Q40.253124 30.39375 40.253124 32.378124ZM58.8625 32.378124Q58.8625 34.8 57.753124 36.284374Q56.64375 37.753124 54.76875 37.753124Q52.753124 37.753124 51.659374 36.33125L51.58125 37.55L49.925 37.55L49.925 22.55L51.721874 22.55L51.721874 28.14375Q52.815624 26.784374 54.7375 26.784374Q56.659374 26.784374 57.753124 28.2375Q58.8625 29.690624 58.8625 32.221874L58.8625 32.378124ZM57.05 32.175Q57.05 30.33125 56.33125 29.33125Q55.628124 28.315624 54.3 28.315624Q52.503124 28.315624 51.721874 29.9875L51.721874 34.55Q52.55 36.20625 54.315624 36.20625Q55.6125 36.20625 56.33125 35.20625Q57.05 34.20625 57.05 32.175ZM67.44063 37.55Q67.28438 37.2375 67.19063 36.440624Q65.925 37.753124 64.175 37.753124Q62.6125 37.753124 61.6125 36.8625Q60.6125 35.971874 60.6125 34.6125Q60.6125 32.971874 61.8625 32.065624Q63.128124 31.14375 65.39375 31.14375L67.15938 31.14375L67.15938 30.315624Q67.15938 29.3625 66.58125 28.8Q66.01875 28.2375 64.925 28.2375Q63.95625 28.2375 63.3 28.7375Q62.64375 29.221874 62.64375 29.909374L60.83125 29.909374Q60.83125 29.128124 61.39375 28.39375Q61.95625 27.64375 62.909374 27.221874Q63.878124 26.784374 65.03438 26.784374Q66.8625 26.784374 67.89375 27.70625Q68.925 28.6125 68.97188 30.221874L68.97188 35.08125Q68.97188 36.534374 69.33125 37.39375L69.33125 37.55L67.44063 37.55ZM64.44063 36.175Q65.3 36.175 66.05 35.7375Q66.81563 35.3 67.15938 34.596874L67.15938 32.425L65.7375 32.425Q62.425 32.425 62.425 34.3625Q62.425 35.221874 62.9875 35.70625Q63.55 36.175 64.44063 36.175ZM73.87813 37.55L72.08125 37.55L72.08125 22.55L73.87813 22.55L73.87813 37.55ZM86.39375 31.20625Q83.97188 30.51875 82.87813 29.51875Q81.78438 28.503124 81.78438 27.01875Q81.78438 25.33125 83.12813 24.2375Q84.47188 23.128124 86.6125 23.128124Q88.08125 23.128124 89.22188 23.70625Q90.37813 24.26875 91.00313 25.26875Q91.62813 26.253124 91.62813 27.440624L89.75313 27.440624Q89.75313 26.159374 88.925 25.425Q88.1125 24.675 86.6125 24.675Q85.22188 24.675 84.44063 25.284374Q83.675 25.89375 83.675 26.9875Q83.675 27.846874 84.40938 28.45625Q85.14375 29.05 86.90938 29.55Q88.69063 30.05 89.69063 30.659374Q90.69063 31.253124 91.175 32.05Q91.65938 32.846874 91.65938 33.940624Q91.65938 35.659374 90.31563 36.70625Q88.97188 37.753124 86.70625 37.753124Q85.25313 37.753124 83.97188 37.190624Q82.70625 36.628124 82.01875 35.659374Q81.33125 34.675 81.33125 33.425L83.22188 33.425Q83.22188 34.721874 84.175 35.471874Q85.12813 36.20625 86.70625 36.20625Q88.19063 36.20625 88.9875 35.6125Q89.78438 35.003124 89.78438 33.95625Q89.78438 32.909374 89.05 32.346874Q88.31563 31.76875 86.39375 31.20625ZM93.44063 32.175Q93.44063 30.6125 94.05 29.378124Q94.65938 28.128124 95.7375 27.45625Q96.83125 26.784374 98.2375 26.784374Q100.39375 26.784374 101.72188 28.284374Q103.06563 29.76875 103.06563 32.253124L103.06563 32.378124Q103.06563 33.925 102.47188 35.159374Q101.87813 36.378124 100.76875 37.065624Q99.675 37.753124 98.25313 37.753124Q96.1125 37.753124 94.76875 36.253124Q93.44063 34.753124 93.44063 32.3L93.44063 32.175ZM95.25313 32.378124Q95.25313 34.14375 96.06563 35.20625Q96.89375 36.26875 98.25313 36.26875Q99.62813 36.26875 100.44063 35.190624Q101.25313 34.1125 101.25313 32.175Q101.25313 30.425 100.425 29.346874Q99.59688 28.26875 98.2375 28.26875Q96.89375 28.26875 96.06563 29.33125Q95.25313 30.39375 95.25313 32.378124ZM111.44063 36.503124Q110.39375 37.753124 108.34688 37.753124Q106.65938 37.753124 105.76875 36.76875Q104.89375 35.784374 104.87813 33.8625L104.87813 26.9875L106.69063 26.9875L106.69063 33.815624Q106.69063 36.20625 108.64375 36.20625Q110.70625 36.20625 111.39375 34.675L111.39375 26.9875L113.20625 26.9875L113.20625 37.55L111.4875 37.55L111.44063 36.503124ZM118.3625 24.425L118.3625 26.9875L120.34688 26.9875L120.34688 28.378124L118.3625 28.378124L118.3625 34.925Q118.3625 35.565624 118.62813 35.89375Q118.89375 36.20625 119.53438 36.20625Q119.84688 36.20625 120.39375 36.08125L120.39375 37.55Q119.675 37.753124 119.00313 37.753124Q117.8 37.753124 117.175 37.01875Q116.56563 36.284374 116.56563 34.925L116.56563 28.378124L114.64375 28.378124L114.64375 26.9875L116.56563 26.9875L116.56563 24.425L118.3625 24.425ZM124.72188 28.26875Q125.925 26.784374 127.84688 26.784374Q131.20625 26.784374 131.22188 30.565624L131.22188 37.55L129.425 37.55L129.425 30.55Q129.40938 29.409374 128.89375 28.8625Q128.39375 28.315624 127.3 28.315624Q126.425 28.315624 125.75313 28.784374Q125.09688 29.253124 124.72188 30.01875L124.72188 37.55L122.925 37.55L122.925 22.55L124.72188 22.55L124.72188 28.26875Z" fill-rule="nonzero"/></svg>