<svg version="1.1" viewBox="0.0 0.0 600.0 371.0" fill="none" stroke="none" stroke-linecap="square" stroke-miterlimit="10" width="600" height="371" xmlns:xlink="http://www.w3.org/1999/xlink" xmlns="http://www.w3.org/2000/svg"><path fill="#ffffff" d="M0 0L600.0 0L600.0 371.0L0 371.0L0 0Z" fill-rule="nonzero"/><path stroke="#333333" stroke-width="1.0" stroke-linecap="butt" d="M137.5 79.5L137.5 331.5" fill-rule="nonzero"/><path stroke="#000000" stroke-width="1.0" stroke-linecap="butt" d="M248.5 79.5L248.5 331.5" fill-rule="nonzero"/><path stroke="#000000" stroke-width="1.0" stroke-linecap="butt" d="M359.5 79.5L359.5 331.5" fill-rule="nonzero"/><path stroke="#000000" stroke-width="1.0" stroke-linecap="butt" d="M470.5 79.5L470.5 331.5" fill-rule="nonzero"/><path stroke="#000000" stroke-width="1.0" stroke-linecap="butt" d="M581.5 79.5L581.5 331.5" fill-rule="nonzero"/><clipPath id="id_0"><path d="M137.13 79.29413L581.45 79.29413L581.45 331.45L137.13 331.45L137.13 79.29413Z" clip-rule="nonzero"/></clipPath><path stroke="#000000" stroke-width="0.0" stroke-linecap="butt" stroke-opacity="0.0" clip-path="url(#id_0)" d="M137.0 187.0L137.0 117.0L254.0 117.0L254.0 187.0Z" fill-rule="nonzero"/><path fill="#f1c232" clip-path="url(#id_0)" d="M137.0 187.0L137.0 117.0L254.0 117.0L254.0 187.0Z" fill-rule="nonzero"/><path stroke="#000000" stroke-width="0.0" stroke-linecap="butt" stroke-opacity="0.0" clip-path="url(#id_0)" d="M137.0 294.0L137.0 224.0L298.0 224.0L298.0 294.0Z" fill-rule="nonzero"/><path fill="#f1c232" clip-path="url(#id_0)" d="M137.0 294.0L137.0 224.0L298.0 224.0L298.0 294.0Z" fill-rule="nonzero"/><path stroke="#000000" stroke-width="0.0" stroke-linecap="butt" stroke-opacity="0.0" clip-path="url(#id_0)" d="M254.0 187.0L254.0 117.0L362.0 117.0L362.0 187.0Z" fill-rule="nonzero"/><path fill="#ffe599" clip-path="url(#id_0)" d="M254.0 187.0L254.0 117.0L362.0 117.0L362.0 187.0Z" fill-rule="nonzero"/><path stroke="#000000" stroke-width="0.0" stroke-linecap="butt" stroke-opacity="0.0" clip-path="url(#id_0)" d="M298.0 294.0L298.0 224.0L459.0 224.0L459.0 294.0Z" fill-rule="nonzero"/><path fill="#ffe599" clip-path="url(#id_0)" d="M298.0 294.0L298.0 224.0L459.0 224.0L459.0 294.0Z" fill-rule="nonzero"/><path stroke="#000000" stroke-width="0.0" stroke-linecap="butt" stroke-opacity="0.0" clip-path="url(#id_0)" d="M362.0 187.0L362.0 117.0L415.0 117.0L415.0 187.0Z" fill-rule="nonzero"/><path fill="#f3f3f3" clip-path="url(#id_0)" d="M362.0 187.0L362.0 117.0L415.0 117.0L415.0 187.0Z" fill-rule="nonzero"/><path stroke="#000000" stroke-width="0.0" stroke-linecap="butt" stroke-opacity="0.0" clip-path="url(#id_0)" d="M459.0 294.0L459.0 224.0L523.0 224.0L523.0 294.0Z" fill-rule="nonzero"/><path fill="#f3f3f3" clip-path="url(#id_0)" d="M459.0 294.0L459.0 224.0L523.0 224.0L523.0 294.0Z" fill-rule="nonzero"/><path stroke="#000000" stroke-width="0.0" stroke-linecap="butt" stroke-opacity="0.0" clip-path="url(#id_0)" d="M415.0 187.0L415.0 117.0L552.0 117.0L552.0 187.0Z" fill-rule="nonzero"/><path fill="#b6d7a8" clip-path="url(#id_0)" d="M415.0 187.0L415.0 117.0L552.0 117.0L552.0 187.0Z" fill-rule="nonzero"/><path stroke="#000000" stroke-width="0.0" stroke-linecap="butt" stroke-opacity="0.0" clip-path="url(#id_0)" d="M523.0 294.0L523.0 224.0L567.0 224.0L567.0 294.0Z" fill-rule="nonzero"/><path fill="#b6d7a8" clip-path="url(#id_0)" d="M523.0 294.0L523.0 224.0L567.0 224.0L567.0 294.0Z" fill-rule="nonzero"/><path stroke="#000000" stroke-width="0.0" stroke-linecap="butt" stroke-opacity="0.0" clip-path="url(#id_0)" d="M552.0 187.0L552.0 117.0L579.0 117.0C580.10455 117.0 581.0 117.89543 581.0 119.0L581.0 185.0C581.0 186.10457 580.10455 187.0 579.0 187.0Z" fill-rule="nonzero"/><path fill="#6aa84f" clip-path="url(#id_0)" d="M552.0 187.0L552.0 117.0L579.0 117.0C580.10455 117.0 581.0 117.89543 581.0 119.0L581.0 185.0C581.0 186.10457 580.10455 187.0 579.0 187.0Z" fill-rule="nonzero"/><path stroke="#000000" stroke-width="0.0" stroke-linecap="butt" stroke-opacity="0.0" clip-path="url(#id_0)" d="M567.0 294.0L567.0 224.0L579.0 224.0C580.10455 224.0 581.0 224.89543 581.0 226.0L581.0 292.0C581.0 293.10458 580.10455 294.0 579.0 294.0Z" fill-rule="nonzero"/><path fill="#6aa84f" clip-path="url(#id_0)" d="M567.0 294.0L567.0 224.0L579.0 224.0C580.10455 224.0 581.0 224.89543 581.0 226.0L581.0 292.0C581.0 293.10458 580.10455 294.0 579.0 294.0Z" fill-rule="nonzero"/><path fill="#000000" d="M35.426872 140.09688Q34.989372 140.72188 34.208122 141.03438Q33.426872 141.34688 32.395622 141.34688Q31.364374 141.34688 30.551874 140.8625Q29.739374 140.3625 29.301874 139.45625Q28.864374 138.55 28.84875 137.3625L28.84875 136.62813Q28.84875 134.69063 29.739374 133.62813Q30.645624 132.56563 32.270622 132.56563Q33.614372 132.56563 34.426872 133.25313Q35.239372 133.94063 35.426872 135.19063L34.301872 135.19063Q33.973747 133.50313 32.286247 133.50313Q31.145624 133.50313 30.5675 134.3Q29.989374 135.08125 29.97375 136.59688L29.97375 137.28438Q29.97375 138.72188 30.63 139.58125Q31.28625 140.425 32.411247 140.425Q33.036247 140.425 33.504997 140.28438Q33.989372 140.14375 34.301872 139.8L34.301872 137.89375L32.333122 137.89375L32.333122 136.97188L35.426872 136.97188L35.426872 140.09688ZM36.661247 137.9875Q36.661247 137.06563 37.020622 136.31563Q37.395622 135.56563 38.051872 135.175Q38.708122 134.76875 39.536247 134.76875Q40.833122 134.76875 41.629997 135.65938Q42.442497 136.55 42.442497 138.05L42.442497 138.12813Q42.442497 139.05 42.083122 139.78438Q41.723747 140.51875 41.067497 140.94063Q40.411247 141.34688 39.551872 141.34688Q38.270622 141.34688 37.458122 140.45625Q36.661247 139.55 36.661247 138.06563L36.661247 137.9875ZM37.754997 138.12813Q37.754997 139.175 38.239372 139.81563Q38.739372 140.45625 39.551872 140.45625Q40.379997 140.45625 40.864372 139.81563Q41.348747 139.15938 41.348747 137.9875Q41.348747 136.95625 40.848747 136.31563Q40.364372 135.65938 39.536247 135.65938Q38.739372 135.65938 38.239372 136.3Q37.754997 136.925 37.754997 138.12813ZM46.036247 139.75313L47.614372 134.87813L48.723747 134.87813L46.442497 141.22188L45.614372 141.22188L43.317497 134.87813L44.426872 134.87813L46.036247 139.75313ZM51.426872 133.34688L51.426872 134.87813L52.598747 134.87813L52.598747 135.72188L51.426872 135.72188L51.426872 139.64375Q51.426872 140.03438 51.583122 140.22188Q51.739372 140.40938 52.114372 140.40938Q52.301872 140.40938 52.629997 140.34688L52.629997 141.22188Q52.208122 141.34688 51.801872 141.34688Q51.083122 141.34688 50.708122 140.90938Q50.333122 140.45625 50.333122 139.64375L50.333122 135.72188L49.176872 135.72188L49.176872 134.87813L50.333122 134.87813L50.333122 133.34688L51.426872 133.34688ZM53.973747 140.65938Q53.973747 140.37813 54.129997 140.19063Q54.301872 140.00313 54.629997 140.00313Q54.973747 140.00313 55.145622 140.19063Q55.317497 140.37813 55.317497 140.65938Q55.317497 140.925 55.145622 141.1125Q54.973747 141.28438 54.629997 141.28438Q54.301872 141.28438 54.129997 141.1125Q53.973747 140.925 53.973747 140.65938ZM66.67687 137.2375Q66.67687 138.4875 66.255 139.425Q65.83312 140.34688 65.05187 140.84688Q64.28625 141.34688 63.254997 141.34688Q62.254997 141.34688 61.473747 140.84688Q60.692497 140.34688 60.254997 139.44063Q59.833122 138.51875 59.817497 137.3L59.817497 136.69063Q59.817497 135.45625 60.239372 134.51875Q60.676872 133.58125 61.458122 133.08125Q62.239372 132.56563 63.254997 132.56563Q64.27062 132.56563 65.05187 133.06563Q65.83312 133.56563 66.255 134.50313Q66.67687 135.44063 66.67687 136.69063L66.67687 137.2375ZM65.5675 136.675Q65.5675 135.15938 64.95812 134.34688Q64.34875 133.53438 63.254997 133.53438Q62.176872 133.53438 61.567497 134.34688Q60.958122 135.15938 60.942497 136.59688L60.942497 137.2375Q60.942497 138.70625 61.551872 139.55Q62.176872 140.37813 63.254997 140.37813Q64.34875 140.37813 64.9425 139.59688Q65.55187 138.8 65.5675 137.31563L65.5675 136.675ZM74.67687 141.22188L73.55187 141.22188L69.255 134.64375L69.255 141.22188L68.11437 141.22188L68.11437 132.69063L69.255 132.69063L73.55187 139.3L73.55187 132.69063L74.67687 132.69063L74.67687 141.22188ZM78.255 140.3L82.30187 140.3L82.30187 141.22188L77.11437 141.22188L77.11437 132.69063L78.255 132.69063L78.255 140.3ZM85.72375 136.97188L87.9425 132.69063L89.22375 132.69063L86.28625 138.03438L86.28625 141.22188L85.16125 141.22188L85.16125 138.03438L82.22375 132.69063L83.505 132.69063L85.72375 136.97188ZM96.86437 140.59688Q96.23937 141.34688 95.005 141.34688Q93.98937 141.34688 93.45812 140.75313Q92.92687 140.15938 92.92687 139.00313L92.92687 134.87813L94.005 134.87813L94.005 138.97188Q94.005 140.425 95.17687 140.425Q96.42687 140.425 96.83312 139.4875L96.83312 134.87813L97.92687 134.87813L97.92687 141.22188L96.89562 141.22188L96.86437 140.59688ZM103.64562 139.53438Q103.64562 139.09688 103.30187 138.8625Q102.97375 138.6125 102.14562 138.44063Q101.33312 138.26875 100.84875 138.01875Q100.36437 137.76875 100.13 137.44063Q99.91125 137.09688 99.91125 136.62813Q99.91125 135.84688 100.5675 135.31563Q101.22375 134.76875 102.255 134.76875Q103.33312 134.76875 103.98937 135.33125Q104.66125 135.87813 104.66125 136.7375L103.58312 136.7375Q103.58312 136.3 103.1925 135.9875Q102.8175 135.65938 102.255 135.65938Q101.66125 135.65938 101.3175 135.925Q100.98937 136.175 100.98937 136.58125Q100.98937 136.97188 101.30187 137.175Q101.61437 137.37813 102.42687 137.56563Q103.23937 137.7375 103.73937 137.9875Q104.23937 138.2375 104.47375 138.59688Q104.72375 138.95625 104.72375 139.45625Q104.72375 140.31563 104.03625 140.83125Q103.36437 141.34688 102.28625 141.34688Q101.52062 141.34688 100.92687 141.08125Q100.34875 140.8 100.02062 140.31563Q99.6925 139.83125 99.6925 139.26875L100.77062 139.26875Q100.80187 139.81563 101.20812 140.14375Q101.61437 140.45625 102.28625 140.45625Q102.89562 140.45625 103.27062 140.20625Q103.64562 139.95625 103.64562 139.53438ZM108.58312 141.34688Q107.28625 141.34688 106.47375 140.50313Q105.67687 139.64375 105.67687 138.22188L105.67687 138.03438Q105.67687 137.08125 106.03625 136.34688Q106.39562 135.59688 107.03625 135.19063Q107.6925 134.76875 108.4425 134.76875Q109.67687 134.76875 110.36437 135.58125Q111.05187 136.39375 111.05187 137.90938L111.05187 138.3625L106.755 138.3625Q106.78625 139.3 107.30187 139.87813Q107.83312 140.45625 108.64562 140.45625Q109.20812 140.45625 109.59875 140.22188Q110.005 139.9875 110.3175 139.59688L110.97375 140.1125Q110.17687 141.34688 108.58312 141.34688ZM108.4425 135.65938Q107.78625 135.65938 107.33312 136.14375Q106.89562 136.6125 106.80187 137.47188L109.97375 137.47188L109.97375 137.39375Q109.92687 136.56563 109.52062 136.1125Q109.13 135.65938 108.4425 135.65938ZM116.42687 133.34688L116.42687 134.87813L117.59875 134.87813L117.59875 135.72188L116.42687 135.72188L116.42687 139.64375Q116.42687 140.03438 116.58312 140.22188Q116.73937 140.40938 117.11437 140.40938Q117.30187 140.40938 117.63 140.34688L117.63 141.22188Q117.20812 141.34688 116.80187 141.34688Q116.08312 141.34688 115.70812 140.90938Q115.33312 140.45625 115.33312 139.64375L115.33312 135.72188L114.17687 135.72188L114.17687 134.87813L115.33312 134.87813L115.33312 133.34688L116.42687 133.34688ZM120.03625 135.64375Q120.755 134.76875 121.91125 134.76875Q123.92687 134.76875 123.9425 137.03438L123.9425 141.22188L122.84875 141.22188L122.84875 137.01875Q122.84875 136.34688 122.53625 136.01875Q122.23937 135.69063 121.58312 135.69063Q121.05187 135.69063 120.64562 135.97188Q120.255 136.25313 120.03625 136.70625L120.03625 141.22188L118.95812 141.22188L118.95812 132.22188L120.03625 132.22188L120.03625 135.64375ZM128.58313 141.34688Q127.28625 141.34688 126.47375 140.50313Q125.67687 139.64375 125.67687 138.22188L125.67687 138.03438Q125.67687 137.08125 126.03625 136.34688Q126.39562 135.59688 127.03625 135.19063Q127.6925 134.76875 128.4425 134.76875Q129.67688 134.76875 130.36438 135.58125Q131.05188 136.39375 131.05188 137.90938L131.05188 138.3625L126.755 138.3625Q126.78625 139.3 127.30187 139.87813Q127.83312 140.45625 128.64563 140.45625Q129.20813 140.45625 129.59875 140.22188Q130.005 139.9875 130.3175 139.59688L130.97375 140.1125Q130.17688 141.34688 128.58313 141.34688ZM128.4425 135.65938Q127.78625 135.65938 127.33312 136.14375Q126.89562 136.6125 126.80187 137.47188L129.97375 137.47188L129.97375 137.39375Q129.92688 136.56563 129.52063 136.1125Q129.13 135.65938 128.4425 135.65938Z" fill-rule="nonzero"/><path fill="#000000" d="M38.6925 153.00313Q38.6925 151.53438 39.38 150.65938Q40.0675 149.76875 41.1925 149.76875Q42.301876 149.76875 42.958126 150.51875L42.958126 147.22188L44.03625 147.22188L44.03625 156.22188L43.03625 156.22188L42.989376 155.53438Q42.333126 156.34688 41.176876 156.34688Q40.083126 156.34688 39.38 155.44063Q38.6925 154.53438 38.6925 153.08125L38.6925 153.00313ZM39.770626 153.12813Q39.770626 154.20625 40.208126 154.81563Q40.66125 155.425 41.4425 155.425Q42.47375 155.425 42.958126 154.4875L42.958126 151.58125Q42.47375 150.69063 41.458126 150.69063Q40.66125 150.69063 40.208126 151.3Q39.770626 151.90938 39.770626 153.12813ZM49.864376 156.22188Q49.770626 156.03438 49.708126 155.55Q48.958126 156.34688 47.91125 156.34688Q46.97375 156.34688 46.364376 155.81563Q45.770626 155.28438 45.770626 154.45625Q45.770626 153.47188 46.520626 152.925Q47.270626 152.37813 48.645626 152.37813L49.6925 152.37813L49.6925 151.87813Q49.6925 151.31563 49.34875 150.9875Q49.020626 150.64375 48.34875 150.64375Q47.770626 150.64375 47.38 150.94063Q46.989376 151.22188 46.989376 151.64375L45.895626 151.64375Q45.895626 151.15938 46.22375 150.72188Q46.5675 150.28438 47.145626 150.03438Q47.72375 149.76875 48.41125 149.76875Q49.520626 149.76875 50.13 150.31563Q50.755 150.8625 50.78625 151.81563L50.78625 154.7375Q50.78625 155.6125 51.005 156.12813L51.005 156.22188L49.864376 156.22188ZM48.0675 155.39375Q48.583126 155.39375 49.03625 155.12813Q49.489376 154.8625 49.6925 154.44063L49.6925 153.14375L48.84875 153.14375Q46.84875 153.14375 46.84875 154.31563Q46.84875 154.81563 47.1925 155.1125Q47.53625 155.39375 48.0675 155.39375ZM54.426876 148.34688L54.426876 149.87813L55.59875 149.87813L55.59875 150.72188L54.426876 150.72188L54.426876 154.64375Q54.426876 155.03438 54.583126 155.22188Q54.739376 155.40938 55.114376 155.40938Q55.301876 155.40938 55.63 155.34688L55.63 156.22188Q55.208126 156.34688 54.801876 156.34688Q54.083126 156.34688 53.708126 155.90938Q53.333126 155.45625 53.333126 154.64375L53.333126 150.72188L52.176876 150.72188L52.176876 149.87813L53.333126 149.87813L53.333126 148.34688L54.426876 148.34688ZM60.864376 156.22188Q60.770626 156.03438 60.708126 155.55Q59.958126 156.34688 58.91125 156.34688Q57.97375 156.34688 57.364376 155.81563Q56.770626 155.28438 56.770626 154.45625Q56.770626 153.47188 57.520626 152.925Q58.270626 152.37813 59.645626 152.37813L60.6925 152.37813L60.6925 151.87813Q60.6925 151.31563 60.34875 150.9875Q60.020626 150.64375 59.34875 150.64375Q58.770626 150.64375 58.38 150.94063Q57.989376 151.22188 57.989376 151.64375L56.895626 151.64375Q56.895626 151.15938 57.22375 150.72188Q57.5675 150.28438 58.145626 150.03438Q58.72375 149.76875 59.41125 149.76875Q60.520626 149.76875 61.13 150.31563Q61.755 150.8625 61.78625 151.81563L61.78625 154.7375Q61.78625 155.6125 62.005 156.12813L62.005 156.22188L60.864376 156.22188ZM59.0675 155.39375Q59.583126 155.39375 60.03625 155.12813Q60.489376 154.8625 60.6925 154.44063L60.6925 153.14375L59.84875 153.14375Q57.84875 153.14375 57.84875 154.31563Q57.84875 154.81563 58.1925 155.1125Q58.53625 155.39375 59.0675 155.39375ZM67.48938 156.22188L67.48938 150.72188L66.48938 150.72188L66.48938 149.87813L67.48938 149.87813L67.48938 149.2375Q67.48938 148.20625 68.02063 147.65938Q68.567505 147.09688 69.567505 147.09688Q69.942505 147.09688 70.317505 147.19063L70.255005 148.08125Q69.973755 148.01875 69.67688 148.01875Q69.14563 148.01875 68.848755 148.33125Q68.567505 148.64375 68.567505 149.20625L68.567505 149.87813L69.92688 149.87813L69.92688 150.72188L68.567505 150.72188L68.567505 156.22188L67.48938 156.22188ZM70.661255 152.9875Q70.661255 152.06563 71.02063 151.31563Q71.39563 150.56563 72.05188 150.175Q72.70813 149.76875 73.536255 149.76875Q74.83313 149.76875 75.630005 150.65938Q76.442505 151.55 76.442505 153.05L76.442505 153.12813Q76.442505 154.05 76.08313 154.78438Q75.723755 155.51875 75.067505 155.94063Q74.411255 156.34688 73.55188 156.34688Q72.27063 156.34688 71.45813 155.45625Q70.661255 154.55 70.661255 153.06563L70.661255 152.9875ZM71.755005 153.12813Q71.755005 154.175 72.23938 154.81563Q72.73938 155.45625 73.55188 155.45625Q74.380005 155.45625 74.86438 154.81563Q75.348755 154.15938 75.348755 152.9875Q75.348755 151.95625 74.848755 151.31563Q74.36438 150.65938 73.536255 150.65938Q72.73938 150.65938 72.23938 151.3Q71.755005 151.925 71.755005 153.12813ZM81.02063 150.84688Q80.77063 150.81563 80.48938 150.81563Q79.411255 150.81563 79.036255 151.72188L79.036255 156.22188L77.95813 156.22188L77.95813 149.87813L79.005005 149.87813L79.02063 150.6125Q79.55188 149.76875 80.536255 149.76875Q80.848755 149.76875 81.02063 149.84688L81.02063 150.84688ZM86.130005 156.22188L85.05188 156.22188L85.05188 149.87813L86.130005 149.87813L86.130005 156.22188ZM84.95813 148.20625Q84.95813 147.94063 85.11438 147.75313Q85.286255 147.56563 85.598755 147.56563Q85.911255 147.56563 86.067505 147.75313Q86.23938 147.94063 86.23938 148.20625Q86.23938 148.45625 86.067505 148.64375Q85.911255 148.81563 85.598755 148.81563Q85.286255 148.81563 85.11438 148.64375Q84.95813 148.45625 84.95813 148.20625ZM88.973755 149.87813L89.005005 150.675Q89.73938 149.76875 90.911255 149.76875Q92.92688 149.76875 92.942505 152.03438L92.942505 156.22188L91.848755 156.22188L91.848755 152.01875Q91.848755 151.34688 91.536255 151.01875Q91.23938 150.69063 90.58313 150.69063Q90.05188 150.69063 89.64563 150.97188Q89.255005 151.25313 89.036255 151.70625L89.036255 156.22188L87.95813 156.22188L87.95813 149.87813L88.973755 149.87813ZM96.42688 148.34688L96.42688 149.87813L97.598755 149.87813L97.598755 150.72188L96.42688 150.72188L96.42688 154.64375Q96.42688 155.03438 96.58313 155.22188Q96.73938 155.40938 97.11438 155.40938Q97.30188 155.40938 97.630005 155.34688L97.630005 156.22188Q97.20813 156.34688 96.80188 156.34688Q96.08313 156.34688 95.70813 155.90938Q95.33313 155.45625 95.33313 154.64375L95.33313 150.72188L94.17688 150.72188L94.17688 149.87813L95.33313 149.87813L95.33313 148.34688L96.42688 148.34688ZM101.58313 156.34688Q100.286255 156.34688 99.473755 155.50313Q98.67688 154.64375 98.67688 153.22188L98.67688 153.03438Q98.67688 152.08125 99.036255 151.34688Q99.39563 150.59688 100.036255 150.19063Q100.692505 149.76875 101.442505 149.76875Q102.67688 149.76875 103.36438 150.58125Q104.05188 151.39375 104.05188 152.90938L104.05188 153.3625L99.755005 153.3625Q99.786255 154.3 100.30188 154.87813Q100.83313 155.45625 101.64563 155.45625Q102.20813 155.45625 102.598755 155.22188Q103.005005 154.9875 103.317505 154.59688L103.973755 155.1125Q103.17688 156.34688 101.58313 156.34688ZM101.442505 150.65938Q100.786255 150.65938 100.33313 151.14375Q99.89563 151.6125 99.80188 152.47188L102.973755 152.47188L102.973755 152.39375Q102.92688 151.56563 102.52063 151.1125Q102.130005 150.65938 101.442505 150.65938ZM105.973755 149.87813L106.005005 150.675Q106.73938 149.76875 107.911255 149.76875Q109.92688 149.76875 109.942505 152.03438L109.942505 156.22188L108.848755 156.22188L108.848755 152.01875Q108.848755 151.34688 108.536255 151.01875Q108.23938 150.69063 107.58313 150.69063Q107.05188 150.69063 106.64563 150.97188Q106.255005 151.25313 106.036255 151.70625L106.036255 156.22188L104.95813 156.22188L104.95813 149.87813L105.973755 149.87813ZM111.692505 153.00313Q111.692505 151.53438 112.380005 150.65938Q113.067505 149.76875 114.192505 149.76875Q115.30188 149.76875 115.95813 150.51875L115.95813 147.22188L117.036255 147.22188L117.036255 156.22188L116.036255 156.22188L115.98938 155.53438Q115.33313 156.34688 114.17688 156.34688Q113.08313 156.34688 112.380005 155.44063Q111.692505 154.53438 111.692505 153.08125L111.692505 153.00313ZM112.77063 153.12813Q112.77063 154.20625 113.20813 154.81563Q113.661255 155.425 114.442505 155.425Q115.473755 155.425 115.95813 154.4875L115.95813 151.58125Q115.473755 150.69063 114.45813 150.69063Q113.661255 150.69063 113.20813 151.3Q112.77063 151.90938 112.77063 153.12813ZM121.58313 156.34688Q120.286255 156.34688 119.473755 155.50313Q118.67688 154.64375 118.67688 153.22188L118.67688 153.03438Q118.67688 152.08125 119.036255 151.34688Q119.39563 150.59688 120.036255 150.19063Q120.692505 149.76875 121.442505 149.76875Q122.67688 149.76875 123.36438 150.58125Q124.05188 151.39375 124.05188 152.90938L124.05188 153.3625L119.755005 153.3625Q119.786255 154.3 120.30188 154.87813Q120.83313 155.45625 121.64563 155.45625Q122.20813 155.45625 122.598755 155.22188Q123.005005 154.9875 123.317505 154.59688L123.973755 155.1125Q123.17688 156.34688 121.58313 156.34688ZM121.442505 150.65938Q120.786255 150.65938 120.33313 151.14375Q119.89563 151.6125 119.80188 152.47188L122.973755 152.47188L122.973755 152.39375Q122.92688 151.56563 122.52063 151.1125Q122.130005 150.65938 121.442505 150.65938ZM124.692505 153.00313Q124.692505 151.53438 125.380005 150.65938Q126.067505 149.76875 127.192505 149.76875Q128.30188 149.76875 128.95813 150.51875L128.95813 147.22188L130.03625 147.22188L130.03625 156.22188L129.03625 156.22188L128.98938 155.53438Q128.33313 156.34688 127.17688 156.34688Q126.08313 156.34688 125.380005 155.44063Q124.692505 154.53438 124.692505 153.08125L124.692505 153.00313ZM125.77063 153.12813Q125.77063 154.20625 126.20813 154.81563Q126.661255 155.425 127.442505 155.425Q128.47375 155.425 128.95813 154.4875L128.95813 151.58125Q128.47375 150.69063 127.45813 150.69063Q126.661255 150.69063 126.20813 151.3Q125.77063 151.90938 125.77063 153.12813Z" fill-rule="nonzero"/><path fill="#000000" d="M93.30187 168.12813Q93.30187 169.56563 92.64562 170.45625Q91.98937 171.34688 90.84875 171.34688Q89.6925 171.34688 89.03625 170.6125L89.03625 173.65938L87.95812 173.65938L87.95812 164.87813L88.9425 164.87813L88.98937 165.58125Q89.66125 164.76875 90.83312 164.76875Q91.97375 164.76875 92.63 165.62813Q93.30187 166.4875 93.30187 168.01875L93.30187 168.12813ZM92.22375 168.00313Q92.22375 166.925 91.755 166.31563Q91.30187 165.69063 90.505 165.69063Q89.52062 165.69063 89.03625 166.55L89.03625 169.58125Q89.52062 170.45625 90.52062 170.45625Q91.30187 170.45625 91.755 169.84688Q92.22375 169.22188 92.22375 168.00313ZM98.86437 170.59688Q98.23937 171.34688 97.005 171.34688Q95.98937 171.34688 95.45812 170.75313Q94.92687 170.15938 94.92687 169.00313L94.92687 164.87813L96.005 164.87813L96.005 168.97188Q96.005 170.425 97.17687 170.425Q98.42687 170.425 98.83312 169.4875L98.83312 164.87813L99.92687 164.87813L99.92687 171.22188L98.89562 171.22188L98.86437 170.59688ZM105.02062 165.84688Q104.77062 165.81563 104.48937 165.81563Q103.41125 165.81563 103.03625 166.72188L103.03625 171.22188L101.95812 171.22188L101.95812 164.87813L103.005 164.87813L103.02062 165.6125Q103.55187 164.76875 104.53625 164.76875Q104.84875 164.76875 105.02062 164.84688L105.02062 165.84688ZM111.30187 168.12813Q111.30187 169.56563 110.64562 170.45625Q109.98937 171.34688 108.84875 171.34688Q107.6925 171.34688 107.03625 170.6125L107.03625 173.65938L105.95812 173.65938L105.95812 164.87813L106.9425 164.87813L106.98937 165.58125Q107.66125 164.76875 108.83312 164.76875Q109.97375 164.76875 110.63 165.62813Q111.30187 166.4875 111.30187 168.01875L111.30187 168.12813ZM110.22375 168.00313Q110.22375 166.925 109.755 166.31563Q109.30187 165.69063 108.505 165.69063Q107.52062 165.69063 107.03625 166.55L107.03625 169.58125Q107.52062 170.45625 108.52062 170.45625Q109.30187 170.45625 109.755 169.84688Q110.22375 169.22188 110.22375 168.00313ZM112.66125 167.9875Q112.66125 167.06563 113.02062 166.31563Q113.39562 165.56563 114.05187 165.175Q114.70812 164.76875 115.53625 164.76875Q116.83312 164.76875 117.63 165.65938Q118.4425 166.55 118.4425 168.05L118.4425 168.12813Q118.4425 169.05 118.08312 169.78438Q117.72375 170.51875 117.0675 170.94063Q116.41125 171.34688 115.55187 171.34688Q114.27062 171.34688 113.45812 170.45625Q112.66125 169.55 112.66125 168.06563L112.66125 167.9875ZM113.755 168.12813Q113.755 169.175 114.23937 169.81563Q114.73937 170.45625 115.55187 170.45625Q116.38 170.45625 116.86437 169.81563Q117.34875 169.15938 117.34875 167.9875Q117.34875 166.95625 116.84875 166.31563Q116.36437 165.65938 115.53625 165.65938Q114.73937 165.65938 114.23937 166.3Q113.755 166.925 113.755 168.12813ZM123.64562 169.53438Q123.64562 169.09688 123.30187 168.8625Q122.97375 168.6125 122.14562 168.44063Q121.33312 168.26875 120.84875 168.01875Q120.36437 167.76875 120.13 167.44063Q119.91125 167.09688 119.91125 166.62813Q119.91125 165.84688 120.5675 165.31563Q121.22375 164.76875 122.255 164.76875Q123.33312 164.76875 123.98937 165.33125Q124.66125 165.87813 124.66125 166.7375L123.58312 166.7375Q123.58312 166.3 123.1925 165.9875Q122.8175 165.65938 122.255 165.65938Q121.66125 165.65938 121.3175 165.925Q120.98937 166.175 120.98937 166.58125Q120.98937 166.97188 121.30187 167.175Q121.61437 167.37813 122.42687 167.56563Q123.23937 167.7375 123.73937 167.9875Q124.23937 168.2375 124.47375 168.59688Q124.72375 168.95625 124.72375 169.45625Q124.72375 170.31563 124.03625 170.83125Q123.36437 171.34688 122.28625 171.34688Q121.52062 171.34688 120.92687 171.08125Q120.34875 170.8 120.02062 170.31563Q119.6925 169.83125 119.6925 169.26875L120.77062 169.26875Q120.80187 169.81563 121.20812 170.14375Q121.61437 170.45625 122.28625 170.45625Q122.89562 170.45625 123.27062 170.20625Q123.64562 169.95625 123.64562 169.53438ZM128.58313 171.34688Q127.28625 171.34688 126.47375 170.50313Q125.67687 169.64375 125.67687 168.22188L125.67687 168.03438Q125.67687 167.08125 126.03625 166.34688Q126.39562 165.59688 127.03625 165.19063Q127.6925 164.76875 128.4425 164.76875Q129.67688 164.76875 130.36438 165.58125Q131.05188 166.39375 131.05188 167.90938L131.05188 168.3625L126.755 168.3625Q126.78625 169.3 127.30187 169.87813Q127.83312 170.45625 128.64563 170.45625Q129.20813 170.45625 129.59875 170.22188Q130.005 169.9875 130.3175 169.59688L130.97375 170.1125Q130.17688 171.34688 128.58313 171.34688ZM128.4425 165.65938Q127.78625 165.65938 127.33312 166.14375Q126.89562 166.6125 126.80187 167.47188L129.97375 167.47188L129.97375 167.39375Q129.92688 166.56563 129.52063 166.1125Q129.13 165.65938 128.4425 165.65938Z" fill-rule="nonzero"/><path fill="#000000" d="M44.426876 247.39725Q43.989376 248.02225 43.208126 248.33475Q42.426876 248.64725 41.395626 248.64725Q40.364376 248.64725 39.551876 248.16287Q38.739376 247.66287 38.301876 246.75662Q37.864376 245.85037 37.84875 244.66287L37.84875 243.9285Q37.84875 241.991 38.739376 240.9285Q39.645626 239.866 41.270626 239.866Q42.614376 239.866 43.426876 240.5535Q44.239376 241.241 44.426876 242.491L43.301876 242.491Q42.97375 240.8035 41.28625 240.8035Q40.145626 240.8035 39.5675 241.60037Q38.989376 242.38162 38.97375 243.89725L38.97375 244.58475Q38.97375 246.02225 39.63 246.88162Q40.28625 247.72537 41.41125 247.72537Q42.03625 247.72537 42.505 247.58475Q42.989376 247.44412 43.301876 247.10037L43.301876 245.19412L41.333126 245.19412L41.333126 244.27225L44.426876 244.27225L44.426876 247.39725ZM45.66125 245.28787Q45.66125 244.366 46.020626 243.616Q46.395626 242.866 47.051876 242.47537Q47.708126 242.06912 48.53625 242.06912Q49.833126 242.06912 50.63 242.95975Q51.4425 243.85037 51.4425 245.35037L51.4425 245.4285Q51.4425 246.35037 51.083126 247.08475Q50.72375 247.81912 50.0675 248.241Q49.41125 248.64725 48.551876 248.64725Q47.270626 248.64725 46.458126 247.75662Q45.66125 246.85037 45.66125 245.366L45.66125 245.28787ZM46.755 245.4285Q46.755 246.47537 47.239376 247.116Q47.739376 247.75662 48.551876 247.75662Q49.38 247.75662 49.864376 247.116Q50.34875 246.45975 50.34875 245.28787Q50.34875 244.25662 49.84875 243.616Q49.364376 242.95975 48.53625 242.95975Q47.739376 242.95975 47.239376 243.60037Q46.755 244.22537 46.755 245.4285ZM55.03625 247.0535L56.614376 242.1785L57.72375 242.1785L55.4425 248.52225L54.614376 248.52225L52.3175 242.1785L53.426876 242.1785L55.03625 247.0535ZM60.426876 240.64725L60.426876 242.1785L61.59875 242.1785L61.59875 243.02225L60.426876 243.02225L60.426876 246.94412Q60.426876 247.33475 60.583126 247.52225Q60.739376 247.70975 61.114376 247.70975Q61.301876 247.70975 61.63 247.64725L61.63 248.52225Q61.208126 248.64725 60.801876 248.64725Q60.083126 248.64725 59.708126 248.20975Q59.333126 247.75662 59.333126 246.94412L59.333126 243.02225L58.176876 243.02225L58.176876 242.1785L59.333126 242.1785L59.333126 240.64725L60.426876 240.64725ZM62.97375 247.95975Q62.97375 247.6785 63.13 247.491Q63.301876 247.3035 63.63 247.3035Q63.97375 247.3035 64.14563 247.491Q64.317505 247.6785 64.317505 247.95975Q64.317505 248.22537 64.14563 248.41287Q63.97375 248.58475 63.63 248.58475Q63.301876 248.58475 63.13 248.41287Q62.97375 248.22537 62.97375 247.95975ZM74.567505 247.02225L75.786255 242.1785L76.86438 242.1785L75.02063 248.52225L74.14563 248.52225L72.598755 243.70975L71.098755 248.52225L70.223755 248.52225L68.380005 242.1785L69.45813 242.1785L70.70813 246.9285L72.192505 242.1785L73.05188 242.1785L74.567505 247.02225ZM79.130005 248.52225L78.05188 248.52225L78.05188 242.1785L79.130005 242.1785L79.130005 248.52225ZM77.95813 240.50662Q77.95813 240.241 78.11438 240.0535Q78.286255 239.866 78.598755 239.866Q78.911255 239.866 79.067505 240.0535Q79.23938 240.241 79.23938 240.50662Q79.23938 240.75662 79.067505 240.94412Q78.911255 241.116 78.598755 241.116Q78.286255 241.116 78.11438 240.94412Q77.95813 240.75662 77.95813 240.50662ZM82.130005 248.52225L81.05188 248.52225L81.05188 239.52225L82.130005 239.52225L82.130005 248.52225ZM85.130005 248.52225L84.05188 248.52225L84.05188 239.52225L85.130005 239.52225L85.130005 248.52225ZM90.11438 248.52225L90.11438 239.991L92.536255 239.991Q93.64563 239.991 94.48938 240.491Q95.348755 240.97537 95.817505 241.88162Q96.286255 242.78787 96.286255 243.97537L96.286255 244.50662Q96.286255 245.72537 95.817505 246.63162Q95.36438 247.53787 94.48938 248.02225Q93.630005 248.50662 92.48938 248.52225L90.11438 248.52225ZM91.23938 240.91287L91.23938 247.60037L92.42688 247.60037Q93.723755 247.60037 94.442505 246.8035Q95.17688 245.991 95.17688 244.491L95.17688 243.991Q95.17688 242.53787 94.48938 241.741Q93.817505 240.9285 92.55188 240.91287L91.23938 240.91287ZM102.942505 244.58475L99.23938 244.58475L99.23938 247.60037L103.536255 247.60037L103.536255 248.52225L98.11438 248.52225L98.11438 239.991L103.48938 239.991L103.48938 240.91287L99.23938 240.91287L99.23938 243.66287L102.942505 243.66287L102.942505 244.58475ZM106.255005 247.60037L110.30188 247.60037L110.30188 248.52225L105.11438 248.52225L105.11438 239.991L106.255005 239.991L106.255005 247.60037ZM115.942505 244.58475L112.23938 244.58475L112.23938 247.60037L116.536255 247.60037L116.536255 248.52225L111.11438 248.52225L111.11438 239.991L116.48938 239.991L116.48938 240.91287L112.23938 240.91287L112.23938 243.66287L115.942505 243.66287L115.942505 244.58475ZM124.02063 240.91287L121.27063 240.91287L121.27063 248.52225L120.161255 248.52225L120.161255 240.91287L117.411255 240.91287L117.411255 239.991L124.02063 239.991L124.02063 240.91287ZM129.9425 244.58475L126.23938 244.58475L126.23938 247.60037L130.53625 247.60037L130.53625 248.52225L125.11438 248.52225L125.11438 239.991L130.48938 239.991L130.48938 240.91287L126.23938 240.91287L126.23938 243.66287L129.9425 243.66287L129.9425 244.58475Z" fill-rule="nonzero"/><path fill="#000000" d="M60.426876 255.64725L60.426876 257.1785L61.59875 257.1785L61.59875 258.02225L60.426876 258.02225L60.426876 261.94412Q60.426876 262.33475 60.583126 262.52225Q60.739376 262.70975 61.114376 262.70975Q61.301876 262.70975 61.63 262.64725L61.63 263.52225Q61.208126 263.64725 60.801876 263.64725Q60.083126 263.64725 59.708126 263.20975Q59.333126 262.75662 59.333126 261.94412L59.333126 258.02225L58.176876 258.02225L58.176876 257.1785L59.333126 257.1785L59.333126 255.64725L60.426876 255.64725ZM64.036255 257.94412Q64.755005 257.06912 65.911255 257.06912Q67.92688 257.06912 67.942505 259.33475L67.942505 263.52225L66.848755 263.52225L66.848755 259.31912Q66.848755 258.64725 66.536255 258.31912Q66.23938 257.991 65.58313 257.991Q65.05188 257.991 64.64563 258.27225Q64.255005 258.5535 64.036255 259.00662L64.036255 263.52225L62.958126 263.52225L62.958126 254.52225L64.036255 254.52225L64.036255 257.94412ZM72.58313 263.64725Q71.286255 263.64725 70.473755 262.8035Q69.67688 261.94412 69.67688 260.52225L69.67688 260.33475Q69.67688 259.38162 70.036255 258.64725Q70.39563 257.89725 71.036255 257.491Q71.692505 257.06912 72.442505 257.06912Q73.67688 257.06912 74.36438 257.88162Q75.05188 258.69412 75.05188 260.20975L75.05188 260.66287L70.755005 260.66287Q70.786255 261.60037 71.30188 262.1785Q71.83313 262.75662 72.64563 262.75662Q73.20813 262.75662 73.598755 262.52225Q74.005005 262.28787 74.317505 261.89725L74.973755 262.41287Q74.17688 263.64725 72.58313 263.64725ZM72.442505 257.95975Q71.786255 257.95975 71.33313 258.44412Q70.89563 258.91287 70.80188 259.77225L73.973755 259.77225L73.973755 259.69412Q73.92688 258.866 73.52063 258.41287Q73.130005 257.95975 72.442505 257.95975ZM78.692505 260.3035Q78.692505 258.83475 79.380005 257.95975Q80.067505 257.06912 81.192505 257.06912Q82.30188 257.06912 82.95813 257.81912L82.95813 254.52225L84.036255 254.52225L84.036255 263.52225L83.036255 263.52225L82.98938 262.83475Q82.33313 263.64725 81.17688 263.64725Q80.08313 263.64725 79.380005 262.741Q78.692505 261.83475 78.692505 260.38162L78.692505 260.3035ZM79.77063 260.4285Q79.77063 261.50662 80.20813 262.116Q80.661255 262.72537 81.442505 262.72537Q82.473755 262.72537 82.95813 261.78787L82.95813 258.88162Q82.473755 257.991 81.45813 257.991Q80.661255 257.991 80.20813 258.60037Q79.77063 259.20975 79.77063 260.4285ZM89.86438 263.52225Q89.77063 263.33475 89.70813 262.85037Q88.95813 263.64725 87.911255 263.64725Q86.973755 263.64725 86.36438 263.116Q85.77063 262.58475 85.77063 261.75662Q85.77063 260.77225 86.52063 260.22537Q87.27063 259.6785 88.64563 259.6785L89.692505 259.6785L89.692505 259.1785Q89.692505 258.616 89.348755 258.28787Q89.02063 257.94412 88.348755 257.94412Q87.77063 257.94412 87.380005 258.241Q86.98938 258.52225 86.98938 258.94412L85.89563 258.94412Q85.89563 258.45975 86.223755 258.02225Q86.567505 257.58475 87.14563 257.33475Q87.723755 257.06912 88.411255 257.06912Q89.52063 257.06912 90.130005 257.616Q90.755005 258.16287 90.786255 259.116L90.786255 262.03787Q90.786255 262.91287 91.005005 263.4285L91.005005 263.52225L89.86438 263.52225ZM88.067505 262.69412Q88.58313 262.69412 89.036255 262.4285Q89.48938 262.16287 89.692505 261.741L89.692505 260.44412L88.848755 260.44412Q86.848755 260.44412 86.848755 261.616Q86.848755 262.116 87.192505 262.41287Q87.536255 262.69412 88.067505 262.69412ZM94.42688 255.64725L94.42688 257.1785L95.598755 257.1785L95.598755 258.02225L94.42688 258.02225L94.42688 261.94412Q94.42688 262.33475 94.58313 262.52225Q94.73938 262.70975 95.11438 262.70975Q95.30188 262.70975 95.630005 262.64725L95.630005 263.52225Q95.20813 263.64725 94.80188 263.64725Q94.08313 263.64725 93.70813 263.20975Q93.33313 262.75662 93.33313 261.94412L93.33313 258.02225L92.17688 258.02225L92.17688 257.1785L93.33313 257.1785L93.33313 255.64725L94.42688 255.64725ZM100.86438 263.52225Q100.77063 263.33475 100.70813 262.85037Q99.95813 263.64725 98.911255 263.64725Q97.973755 263.64725 97.36438 263.116Q96.77063 262.58475 96.77063 261.75662Q96.77063 260.77225 97.52063 260.22537Q98.27063 259.6785 99.64563 259.6785L100.692505 259.6785L100.692505 259.1785Q100.692505 258.616 100.348755 258.28787Q100.02063 257.94412 99.348755 257.94412Q98.77063 257.94412 98.380005 258.241Q97.98938 258.52225 97.98938 258.94412L96.89563 258.94412Q96.89563 258.45975 97.223755 258.02225Q97.567505 257.58475 98.14563 257.33475Q98.723755 257.06912 99.411255 257.06912Q100.52063 257.06912 101.130005 257.616Q101.755005 258.16287 101.786255 259.116L101.786255 262.03787Q101.786255 262.91287 102.005005 263.4285L102.005005 263.52225L100.86438 263.52225ZM99.067505 262.69412Q99.58313 262.69412 100.036255 262.4285Q100.48938 262.16287 100.692505 261.741L100.692505 260.44412L99.848755 260.44412Q97.848755 260.44412 97.848755 261.616Q97.848755 262.116 98.192505 262.41287Q98.536255 262.69412 99.067505 262.69412ZM110.86438 263.52225Q110.77063 263.33475 110.70813 262.85037Q109.95813 263.64725 108.911255 263.64725Q107.973755 263.64725 107.36438 263.116Q106.77063 262.58475 106.77063 261.75662Q106.77063 260.77225 107.52063 260.22537Q108.27063 259.6785 109.64563 259.6785L110.692505 259.6785L110.692505 259.1785Q110.692505 258.616 110.348755 258.28787Q110.02063 257.94412 109.348755 257.94412Q108.77063 257.94412 108.380005 258.241Q107.98938 258.52225 107.98938 258.94412L106.89563 258.94412Q106.89563 258.45975 107.223755 258.02225Q107.567505 257.58475 108.14563 257.33475Q108.723755 257.06912 109.411255 257.06912Q110.52063 257.06912 111.130005 257.616Q111.755005 258.16287 111.786255 259.116L111.786255 262.03787Q111.786255 262.91287 112.005005 263.4285L112.005005 263.52225L110.86438 263.52225ZM109.067505 262.69412Q109.58313 262.69412 110.036255 262.4285Q110.48938 262.16287 110.692505 261.741L110.692505 260.44412L109.848755 260.44412Q107.848755 260.44412 107.848755 261.616Q107.848755 262.116 108.192505 262.41287Q108.536255 262.69412 109.067505 262.69412ZM114.48938 263.52225L114.48938 258.02225L113.48938 258.02225L113.48938 257.1785L114.48938 257.1785L114.48938 256.53787Q114.48938 255.50662 115.02063 254.95975Q115.567505 254.39725 116.567505 254.39725Q116.942505 254.39725 117.317505 254.491L117.255005 255.38162Q116.973755 255.31912 116.67688 255.31912Q116.14563 255.31912 115.848755 255.63162Q115.567505 255.94412 115.567505 256.50662L115.567505 257.1785L116.92688 257.1785L116.92688 258.02225L115.567505 258.02225L115.567505 263.52225L114.48938 263.52225ZM119.42688 255.64725L119.42688 257.1785L120.598755 257.1785L120.598755 258.02225L119.42688 258.02225L119.42688 261.94412Q119.42688 262.33475 119.58313 262.52225Q119.73938 262.70975 120.11438 262.70975Q120.30188 262.70975 120.630005 262.64725L120.630005 263.52225Q120.20813 263.64725 119.80188 263.64725Q119.08313 263.64725 118.70813 263.20975Q118.33313 262.75662 118.33313 261.94412L118.33313 258.02225L117.17688 258.02225L117.17688 257.1785L118.33313 257.1785L118.33313 255.64725L119.42688 255.64725ZM124.58313 263.64725Q123.286255 263.64725 122.473755 262.8035Q121.67688 261.94412 121.67688 260.52225L121.67688 260.33475Q121.67688 259.38162 122.036255 258.64725Q122.39563 257.89725 123.036255 257.491Q123.692505 257.06912 124.442505 257.06912Q125.67688 257.06912 126.36438 257.88162Q127.05188 258.69412 127.05188 260.20975L127.05188 260.66287L122.755005 260.66287Q122.786255 261.60037 123.30188 262.1785Q123.83313 262.75662 124.64563 262.75662Q125.20813 262.75662 125.598755 262.52225Q126.005005 262.28787 126.317505 261.89725L126.973755 262.41287Q126.17688 263.64725 124.58313 263.64725ZM124.442505 257.95975Q123.786255 257.95975 123.33313 258.44412Q122.89563 258.91287 122.80188 259.77225L125.973755 259.77225L125.973755 259.69412Q125.92688 258.866 125.52063 258.41287Q125.130005 257.95975 124.442505 257.95975ZM131.02063 258.14725Q130.77063 258.116 130.48938 258.116Q129.41125 258.116 129.03625 259.02225L129.03625 263.52225L127.95813 263.52225L127.95813 257.1785L129.005 257.1785L129.02063 257.91287Q129.55188 257.06912 130.53625 257.06912Q130.84875 257.06912 131.02063 257.14725L131.02063 258.14725Z" fill-rule="nonzero"/><path fill="#000000" d="M83.30187 275.4285Q83.30187 276.866 82.64562 277.75662Q81.98937 278.64725 80.84875 278.64725Q79.6925 278.64725 79.03625 277.91287L79.03625 280.95975L77.95812 280.95975L77.95812 272.1785L78.9425 272.1785L78.98937 272.88162Q79.66125 272.06912 80.83312 272.06912Q81.97375 272.06912 82.63 272.9285Q83.30187 273.78787 83.30187 275.31912L83.30187 275.4285ZM82.22375 275.3035Q82.22375 274.22537 81.755 273.616Q81.30187 272.991 80.505 272.991Q79.52062 272.991 79.03625 273.85037L79.03625 276.88162Q79.52062 277.75662 80.52062 277.75662Q81.30187 277.75662 81.755 277.14725Q82.22375 276.52225 82.22375 275.3035ZM88.86437 278.52225Q88.77062 278.33475 88.70812 277.85037Q87.95812 278.64725 86.91125 278.64725Q85.97375 278.64725 85.36437 278.116Q84.77062 277.58475 84.77062 276.75662Q84.77062 275.77225 85.52062 275.22537Q86.27062 274.6785 87.64562 274.6785L88.6925 274.6785L88.6925 274.1785Q88.6925 273.616 88.34875 273.28787Q88.02062 272.94412 87.34875 272.94412Q86.77062 272.94412 86.38 273.241Q85.98937 273.52225 85.98937 273.94412L84.89562 273.94412Q84.89562 273.45975 85.22375 273.02225Q85.5675 272.58475 86.14562 272.33475Q86.72375 272.06912 87.41125 272.06912Q88.52062 272.06912 89.13 272.616Q89.755 273.16287 89.78625 274.116L89.78625 277.03787Q89.78625 277.91287 90.005 278.4285L90.005 278.52225L88.86437 278.52225ZM87.0675 277.69412Q87.58312 277.69412 88.03625 277.4285Q88.48937 277.16287 88.6925 276.741L88.6925 275.44412L87.84875 275.44412Q85.84875 275.44412 85.84875 276.616Q85.84875 277.116 86.1925 277.41287Q86.53625 277.69412 87.0675 277.69412ZM92.97375 272.1785L93.005 272.97537Q93.73937 272.06912 94.91125 272.06912Q96.92687 272.06912 96.9425 274.33475L96.9425 278.52225L95.84875 278.52225L95.84875 274.31912Q95.84875 273.64725 95.53625 273.31912Q95.23937 272.991 94.58312 272.991Q94.05187 272.991 93.64562 273.27225Q93.255 273.5535 93.03625 274.00662L93.03625 278.52225L91.95812 278.52225L91.95812 272.1785L92.97375 272.1785ZM98.6925 275.3035Q98.6925 273.83475 99.38 272.95975Q100.0675 272.06912 101.1925 272.06912Q102.30187 272.06912 102.95812 272.81912L102.95812 269.52225L104.03625 269.52225L104.03625 278.52225L103.03625 278.52225L102.98937 277.83475Q102.33312 278.64725 101.17687 278.64725Q100.08312 278.64725 99.38 277.741Q98.6925 276.83475 98.6925 275.38162L98.6925 275.3035ZM99.77062 275.4285Q99.77062 276.50662 100.20812 277.116Q100.66125 277.72537 101.4425 277.72537Q102.47375 277.72537 102.95812 276.78787L102.95812 273.88162Q102.47375 272.991 101.45812 272.991Q100.66125 272.991 100.20812 273.60037Q99.77062 274.20975 99.77062 275.4285ZM108.58312 278.64725Q107.28625 278.64725 106.47375 277.8035Q105.67687 276.94412 105.67687 275.52225L105.67687 275.33475Q105.67687 274.38162 106.03625 273.64725Q106.39562 272.89725 107.03625 272.491Q107.6925 272.06912 108.4425 272.06912Q109.67687 272.06912 110.36437 272.88162Q111.05187 273.69412 111.05187 275.20975L111.05187 275.66287L106.755 275.66287Q106.78625 276.60037 107.30187 277.1785Q107.83312 277.75662 108.64562 277.75662Q109.20812 277.75662 109.59875 277.52225Q110.005 277.28787 110.3175 276.89725L110.97375 277.41287Q110.17687 278.64725 108.58312 278.64725ZM108.4425 272.95975Q107.78625 272.95975 107.33312 273.44412Q106.89562 273.91287 106.80187 274.77225L109.97375 274.77225L109.97375 274.69412Q109.92687 273.866 109.52062 273.41287Q109.13 272.95975 108.4425 272.95975ZM112.97375 272.1785L113.005 272.88162Q113.6925 272.06912 114.88 272.06912Q116.20812 272.06912 116.6925 273.08475Q117.005 272.63162 117.505 272.35037Q118.02062 272.06912 118.70812 272.06912Q120.80187 272.06912 120.83312 274.27225L120.83312 278.52225L119.755 278.52225L119.755 274.33475Q119.755 273.66287 119.4425 273.33475Q119.13 272.991 118.39562 272.991Q117.78625 272.991 117.38 273.35037Q116.98937 273.70975 116.92687 274.31912L116.92687 278.52225L115.84875 278.52225L115.84875 274.366Q115.84875 272.991 114.48937 272.991Q113.42687 272.991 113.03625 273.89725L113.03625 278.52225L111.9425 278.52225L111.9425 272.1785L112.97375 272.1785ZM124.13 278.52225L123.05187 278.52225L123.05187 272.1785L124.13 272.1785L124.13 278.52225ZM122.95812 270.50662Q122.95812 270.241 123.11437 270.0535Q123.28625 269.866 123.59875 269.866Q123.91125 269.866 124.0675 270.0535Q124.23937 270.241 124.23937 270.50662Q124.23937 270.75662 124.0675 270.94412Q123.91125 271.116 123.59875 271.116Q123.28625 271.116 123.11437 270.94412Q122.95812 270.75662 122.95812 270.50662ZM128.48938 277.75662Q129.0675 277.75662 129.505 277.41287Q129.9425 277.0535 129.98938 276.52225L131.02063 276.52225Q130.98938 277.06912 130.63 277.56912Q130.28625 278.0535 129.70813 278.35037Q129.14563 278.64725 128.48938 278.64725Q127.1925 278.64725 126.42687 277.78787Q125.67687 276.91287 125.67687 275.41287L125.67687 275.22537Q125.67687 274.3035 126.005 273.58475Q126.34875 272.866 126.97375 272.47537Q127.61437 272.06912 128.48938 272.06912Q129.55188 272.06912 130.255 272.70975Q130.97375 273.33475 131.02063 274.366L129.98938 274.366Q129.9425 273.741 129.52063 273.35037Q129.09875 272.95975 128.48938 272.95975Q127.66125 272.95975 127.20812 273.5535Q126.755 274.14725 126.755 275.27225L126.755 275.47537Q126.755 276.56912 127.20812 277.16287Q127.66125 277.75662 128.48938 277.75662Z" fill-rule="nonzero"/><path fill="#000000" d="M135.1925 345.8094Q135.1925 347.71564 134.53625 348.65314Q133.89563 349.575 132.505 349.575Q131.14563 349.575 130.48938 348.66876Q129.83313 347.7625 129.80188 345.95L129.80188 344.5125Q129.80188 342.6219 130.4425 341.71564Q131.09875 340.79376 132.48938 340.79376Q133.86438 340.79376 134.52063 341.6844Q135.17688 342.5594 135.1925 344.40314L135.1925 345.8094ZM134.09875 344.325Q134.09875 342.95 133.70813 342.325Q133.33313 341.6844 132.48938 341.6844Q131.66125 341.6844 131.27063 342.325Q130.89563 342.95 130.89563 344.2469L130.89563 345.98126Q130.89563 347.35626 131.28625 348.02814Q131.6925 348.6844 132.505 348.6844Q133.30188 348.6844 133.6925 348.0594Q134.08313 347.4344 134.09875 346.10626L134.09875 344.325ZM136.73938 342.5594Q136.73938 341.79376 137.22375 341.29376Q137.72375 340.79376 138.48938 340.79376Q139.27063 340.79376 139.755 341.29376Q140.23938 341.79376 140.23938 342.59064L140.23938 343.0125Q140.23938 343.77814 139.73938 344.27814Q139.255 344.7625 138.505 344.7625Q137.73938 344.7625 137.23938 344.27814Q136.73938 343.77814 136.73938 342.96564L136.73938 342.5594ZM137.55188 343.0125Q137.55188 343.46564 137.80188 343.7625Q138.0675 344.0594 138.505 344.0594Q138.92688 344.0594 139.17688 343.77814Q139.42688 343.48126 139.42688 342.98126L139.42688 342.5594Q139.42688 342.10626 139.17688 341.8094Q138.92688 341.4969 138.48938 341.4969Q138.05188 341.4969 137.80188 341.8094Q137.55188 342.10626 137.55188 342.575L137.55188 343.0125ZM140.89563 347.35626Q140.89563 346.59064 141.38 346.10626Q141.88 345.60626 142.64563 345.60626Q143.41125 345.60626 143.89563 346.10626Q144.39563 346.59064 144.39563 347.40314L144.39563 347.8094Q144.39563 348.575 143.91125 349.075Q143.42688 349.575 142.66125 349.575Q141.89563 349.575 141.39563 349.09064Q140.89563 348.59064 140.89563 347.77814L140.89563 347.35626ZM141.70813 347.8094Q141.70813 348.27814 141.95813 348.575Q142.22375 348.8719 142.66125 348.8719Q143.08313 348.8719 143.33313 348.59064Q143.58313 348.29376 143.58313 347.79376L143.58313 347.35626Q143.58313 346.8875 143.3175 346.60626Q143.0675 346.3094 142.64563 346.3094Q142.22375 346.3094 141.95813 346.60626Q141.70813 346.8875 141.70813 347.3875L141.70813 347.8094ZM138.755 348.8094L138.13 348.41876L142.30188 341.7469L142.91125 342.1375L138.755 348.8094Z" fill-rule="nonzero"/><path fill="#000000" d="M243.00688 349.45L237.41313 349.45L237.41313 348.66876L240.36626 345.3875Q241.0225 344.6375 241.2725 344.1844Q241.5225 343.71564 241.5225 343.21564Q241.5225 342.54376 241.11626 342.1219Q240.72563 341.6844 240.03813 341.6844Q239.24126 341.6844 238.78813 342.15314Q238.335 342.60626 238.335 343.4344L237.25688 343.4344Q237.25688 342.2469 238.00688 341.52814Q238.7725 340.79376 240.03813 340.79376Q241.24126 340.79376 241.92876 341.41876Q242.61626 342.04376 242.61626 343.09064Q242.61626 344.34064 241.00688 346.09064L238.72563 348.5594L243.00688 348.5594L243.00688 349.45ZM244.91313 345.16876L245.35063 340.91876L249.72563 340.91876L249.72563 341.91876L246.2725 341.91876L246.00688 344.2469Q246.6475 343.8719 247.44438 343.8719Q248.60063 343.8719 249.28813 344.65314Q249.97563 345.41876 249.97563 346.73126Q249.97563 348.04376 249.25688 348.8094Q248.55376 349.575 247.2725 349.575Q246.1475 349.575 245.42876 348.95Q244.71 348.3094 244.61626 347.2L245.63188 347.2Q245.74126 347.9344 246.16313 348.3094Q246.585 348.6844 247.2725 348.6844Q248.0225 348.6844 248.46 348.16876Q248.8975 347.65314 248.8975 346.7469Q248.8975 345.8875 248.42876 345.3719Q247.96 344.85626 247.17876 344.85626Q246.47563 344.85626 246.06938 345.15314L245.78813 345.3875L244.91313 345.16876ZM251.31938 342.5594Q251.31938 341.79376 251.80376 341.29376Q252.30376 340.79376 253.06938 340.79376Q253.85063 340.79376 254.335 341.29376Q254.81938 341.79376 254.81938 342.59064L254.81938 343.0125Q254.81938 343.77814 254.31938 344.27814Q253.835 344.7625 253.085 344.7625Q252.31938 344.7625 251.81938 344.27814Q251.31938 343.77814 251.31938 342.96564L251.31938 342.5594ZM252.13188 343.0125Q252.13188 343.46564 252.38188 343.7625Q252.6475 344.0594 253.085 344.0594Q253.50688 344.0594 253.75688 343.77814Q254.00688 343.48126 254.00688 342.98126L254.00688 342.5594Q254.00688 342.10626 253.75688 341.8094Q253.50688 341.4969 253.06938 341.4969Q252.63188 341.4969 252.38188 341.8094Q252.13188 342.10626 252.13188 342.575L252.13188 343.0125ZM255.47563 347.35626Q255.47563 346.59064 255.96 346.10626Q256.46002 345.60626 257.22565 345.60626Q257.99127 345.60626 258.47565 346.10626Q258.97565 346.59064 258.97565 347.40314L258.97565 347.8094Q258.97565 348.575 258.49127 349.075Q258.0069 349.575 257.24127 349.575Q256.47565 349.575 255.97563 349.09064Q255.47563 348.59064 255.47563 347.77814L255.47563 347.35626ZM256.28815 347.8094Q256.28815 348.27814 256.53815 348.575Q256.80377 348.8719 257.24127 348.8719Q257.66315 348.8719 257.91315 348.59064Q258.16315 348.29376 258.16315 347.79376L258.16315 347.35626Q258.16315 346.8875 257.89752 346.60626Q257.64752 346.3094 257.22565 346.3094Q256.80377 346.3094 256.53815 346.60626Q256.28815 346.8875 256.28815 347.3875L256.28815 347.8094ZM253.335 348.8094L252.71 348.41876L256.8819 341.7469L257.49127 342.1375L253.335 348.8094Z" fill-rule="nonzero"/><path fill="#000000" d="M348.99313 345.16876L349.43063 340.91876L353.80563 340.91876L353.80563 341.91876L350.3525 341.91876L350.08688 344.2469Q350.7275 343.8719 351.52438 343.8719Q352.68063 343.8719 353.36813 344.65314Q354.05563 345.41876 354.05563 346.73126Q354.05563 348.04376 353.33688 348.8094Q352.63376 349.575 351.3525 349.575Q350.2275 349.575 349.50876 348.95Q348.79 348.3094 348.69626 347.2L349.71188 347.2Q349.82126 347.9344 350.24313 348.3094Q350.665 348.6844 351.3525 348.6844Q352.1025 348.6844 352.54 348.16876Q352.9775 347.65314 352.9775 346.7469Q352.9775 345.8875 352.50876 345.3719Q352.04 344.85626 351.25876 344.85626Q350.55563 344.85626 350.14938 345.15314L349.86813 345.3875L348.99313 345.16876ZM360.8525 345.8094Q360.8525 347.71564 360.19626 348.65314Q359.55563 349.575 358.165 349.575Q356.80563 349.575 356.14938 348.66876Q355.49313 347.7625 355.46188 345.95L355.46188 344.5125Q355.46188 342.6219 356.1025 341.71564Q356.75876 340.79376 358.14938 340.79376Q359.52438 340.79376 360.18063 341.6844Q360.83688 342.5594 360.8525 344.40314L360.8525 345.8094ZM359.75876 344.325Q359.75876 342.95 359.36813 342.325Q358.99313 341.6844 358.14938 341.6844Q357.32126 341.6844 356.93063 342.325Q356.55563 342.95 356.55563 344.2469L356.55563 345.98126Q356.55563 347.35626 356.94626 348.02814Q357.3525 348.6844 358.165 348.6844Q358.96188 348.6844 359.3525 348.0594Q359.74313 347.4344 359.75876 346.10626L359.75876 344.325ZM362.39938 342.5594Q362.39938 341.79376 362.88376 341.29376Q363.38376 340.79376 364.14938 340.79376Q364.93063 340.79376 365.415 341.29376Q365.89938 341.79376 365.89938 342.59064L365.89938 343.0125Q365.89938 343.77814 365.39938 344.27814Q364.915 344.7625 364.165 344.7625Q363.39938 344.7625 362.89938 344.27814Q362.39938 343.77814 362.39938 342.96564L362.39938 342.5594ZM363.21188 343.0125Q363.21188 343.46564 363.46188 343.7625Q363.7275 344.0594 364.165 344.0594Q364.58688 344.0594 364.83688 343.77814Q365.08688 343.48126 365.08688 342.98126L365.08688 342.5594Q365.08688 342.10626 364.83688 341.8094Q364.58688 341.4969 364.14938 341.4969Q363.71188 341.4969 363.46188 341.8094Q363.21188 342.10626 363.21188 342.575L363.21188 343.0125ZM366.55563 347.35626Q366.55563 346.59064 367.04 346.10626Q367.54 345.60626 368.30563 345.60626Q369.07126 345.60626 369.55563 346.10626Q370.05563 346.59064 370.05563 347.40314L370.05563 347.8094Q370.05563 348.575 369.57126 349.075Q369.08688 349.575 368.32126 349.575Q367.55563 349.575 367.05563 349.09064Q366.55563 348.59064 366.55563 347.77814L366.55563 347.35626ZM367.36813 347.8094Q367.36813 348.27814 367.61813 348.575Q367.88376 348.8719 368.32126 348.8719Q368.74313 348.8719 368.99313 348.59064Q369.24313 348.29376 369.24313 347.79376L369.24313 347.35626Q369.24313 346.8875 368.9775 346.60626Q368.7275 346.3094 368.30563 346.3094Q367.88376 346.3094 367.61813 346.60626Q367.36813 346.8875 367.36813 347.3875L367.36813 347.8094ZM364.415 348.8094L363.79 348.41876L367.96188 341.7469L368.57126 342.1375L364.415 348.8094Z" fill-rule="nonzero"/><path fill="#000000" d="M465.08875 341.52814L461.5575 349.45L460.41687 349.45L463.9325 341.8094L459.32312 341.8094L459.32312 340.91876L465.08875 340.91876L465.08875 341.52814ZM467.07312 345.16876L467.51062 340.91876L471.88562 340.91876L471.88562 341.91876L468.4325 341.91876L468.16687 344.2469Q468.8075 343.8719 469.60437 343.8719Q470.76062 343.8719 471.44812 344.65314Q472.13562 345.41876 472.13562 346.73126Q472.13562 348.04376 471.41687 348.8094Q470.71375 349.575 469.4325 349.575Q468.3075 349.575 467.58875 348.95Q466.87 348.3094 466.77625 347.2L467.79187 347.2Q467.90125 347.9344 468.32312 348.3094Q468.745 348.6844 469.4325 348.6844Q470.1825 348.6844 470.62 348.16876Q471.0575 347.65314 471.0575 346.7469Q471.0575 345.8875 470.58875 345.3719Q470.12 344.85626 469.33875 344.85626Q468.63562 344.85626 468.22937 345.15314L467.94812 345.3875L467.07312 345.16876ZM473.47937 342.5594Q473.47937 341.79376 473.96375 341.29376Q474.46375 340.79376 475.22937 340.79376Q476.01062 340.79376 476.495 341.29376Q476.97937 341.79376 476.97937 342.59064L476.97937 343.0125Q476.97937 343.77814 476.47937 344.27814Q475.995 344.7625 475.245 344.7625Q474.47937 344.7625 473.97937 344.27814Q473.47937 343.77814 473.47937 342.96564L473.47937 342.5594ZM474.29187 343.0125Q474.29187 343.46564 474.54187 343.7625Q474.8075 344.0594 475.245 344.0594Q475.66687 344.0594 475.91687 343.77814Q476.16687 343.48126 476.16687 342.98126L476.16687 342.5594Q476.16687 342.10626 475.91687 341.8094Q475.66687 341.4969 475.22937 341.4969Q474.79187 341.4969 474.54187 341.8094Q474.29187 342.10626 474.29187 342.575L474.29187 343.0125ZM477.63562 347.35626Q477.63562 346.59064 478.12 346.10626Q478.62 345.60626 479.38562 345.60626Q480.15125 345.60626 480.63562 346.10626Q481.13562 346.59064 481.13562 347.40314L481.13562 347.8094Q481.13562 348.575 480.65125 349.075Q480.16687 349.575 479.40125 349.575Q478.63562 349.575 478.13562 349.09064Q477.63562 348.59064 477.63562 347.77814L477.63562 347.35626ZM478.44812 347.8094Q478.44812 348.27814 478.69812 348.575Q478.96375 348.8719 479.40125 348.8719Q479.82312 348.8719 480.07312 348.59064Q480.32312 348.29376 480.32312 347.79376L480.32312 347.35626Q480.32312 346.8875 480.0575 346.60626Q479.8075 346.3094 479.38562 346.3094Q478.96375 346.3094 478.69812 346.60626Q478.44812 346.8875 478.44812 347.3875L478.44812 347.8094ZM475.495 348.8094L474.87 348.41876L479.04187 341.7469L479.65125 342.1375L475.495 348.8094Z" fill-rule="nonzero"/><path fill="#000000" d="M570.71564 349.45L569.6375 349.45L569.6375 342.23126L567.45 343.02814L567.45 342.04376L570.5594 340.8719L570.71564 340.8719L570.71564 349.45ZM579.5125 345.8094Q579.5125 347.71564 578.85626 348.65314Q578.21564 349.575 576.825 349.575Q575.46564 349.575 574.8094 348.66876Q574.15314 347.7625 574.1219 345.95L574.1219 344.5125Q574.1219 342.6219 574.7625 341.71564Q575.41876 340.79376 576.8094 340.79376Q578.1844 340.79376 578.84064 341.6844Q579.4969 342.5594 579.5125 344.40314L579.5125 345.8094ZM578.41876 344.325Q578.41876 342.95 578.02814 342.325Q577.65314 341.6844 576.8094 341.6844Q575.98126 341.6844 575.59064 342.325Q575.21564 342.95 575.21564 344.2469L575.21564 345.98126Q575.21564 347.35626 575.60626 348.02814Q576.0125 348.6844 576.825 348.6844Q577.6219 348.6844 578.0125 348.0594Q578.40314 347.4344 578.41876 346.10626L578.41876 344.325ZM586.5125 345.8094Q586.5125 347.71564 585.85626 348.65314Q585.21564 349.575 583.825 349.575Q582.46564 349.575 581.8094 348.66876Q581.15314 347.7625 581.1219 345.95L581.1219 344.5125Q581.1219 342.6219 581.7625 341.71564Q582.41876 340.79376 583.8094 340.79376Q585.1844 340.79376 585.84064 341.6844Q586.4969 342.5594 586.5125 344.40314L586.5125 345.8094ZM585.41876 344.325Q585.41876 342.95 585.02814 342.325Q584.65314 341.6844 583.8094 341.6844Q582.98126 341.6844 582.59064 342.325Q582.21564 342.95 582.21564 344.2469L582.21564 345.98126Q582.21564 347.35626 582.60626 348.02814Q583.0125 348.6844 583.825 348.6844Q584.6219 348.6844 585.0125 348.0594Q585.40314 347.4344 585.41876 346.10626L585.41876 344.325ZM588.0594 342.5594Q588.0594 341.79376 588.54376 341.29376Q589.04376 340.79376 589.8094 340.79376Q590.59064 340.79376 591.075 341.29376Q591.5594 341.79376 591.5594 342.59064L591.5594 343.0125Q591.5594 343.77814 591.0594 344.27814Q590.575 344.7625 589.825 344.7625Q589.0594 344.7625 588.5594 344.27814Q588.0594 343.77814 588.0594 342.96564L588.0594 342.5594ZM588.8719 343.0125Q588.8719 343.46564 589.1219 343.7625Q589.3875 344.0594 589.825 344.0594Q590.2469 344.0594 590.4969 343.77814Q590.7469 343.48126 590.7469 342.98126L590.7469 342.5594Q590.7469 342.10626 590.4969 341.8094Q590.2469 341.4969 589.8094 341.4969Q589.3719 341.4969 589.1219 341.8094Q588.8719 342.10626 588.8719 342.575L588.8719 343.0125ZM592.21564 347.35626Q592.21564 346.59064 592.7 346.10626Q593.2 345.60626 593.96564 345.60626Q594.73126 345.60626 595.21564 346.10626Q595.71564 346.59064 595.71564 347.40314L595.71564 347.8094Q595.71564 348.575 595.23126 349.075Q594.7469 349.575 593.98126 349.575Q593.21564 349.575 592.71564 349.09064Q592.21564 348.59064 592.21564 347.77814L592.21564 347.35626ZM593.02814 347.8094Q593.02814 348.27814 593.27814 348.575Q593.54376 348.8719 593.98126 348.8719Q594.40314 348.8719 594.65314 348.59064Q594.90314 348.29376 594.90314 347.79376L594.90314 347.35626Q594.90314 346.8875 594.6375 346.60626Q594.3875 346.3094 593.96564 346.3094Q593.54376 346.3094 593.27814 346.60626Q593.02814 346.8875 593.02814 347.3875L593.02814 347.8094ZM590.075 348.8094L589.45 348.41876L593.6219 341.7469L594.23126 342.1375L590.075 348.8094Z" fill-rule="nonzero"/><path fill="#f1c232" d="M130.9873 56.176147C130.9873 55.623863 131.43501 55.176147 131.9873 55.176147L141.9873 55.176147C142.5396 55.176147 142.9873 55.623863 142.9873 56.176147L142.9873 66.17615C142.9873 66.72843 142.5396 67.17615 141.9873 67.17615L131.9873 67.17615C131.43501 67.17615 130.9873 66.72843 130.9873 66.17615Z" fill-rule="nonzero"/><path fill="#000000" d="M154.4873 61.879272Q153.0498 61.457397 152.37793 60.848022Q151.72168 60.238647 151.72168 59.348022Q151.72168 58.348022 152.51855 57.691772Q153.33105 57.019897 154.62793 57.019897Q155.50293 57.019897 156.19043 57.363647Q156.87793 57.707397 157.25293 58.301147Q157.64355 58.894897 157.64355 59.613647L156.50293 59.613647Q156.50293 58.832397 156.00293 58.394897Q155.51855 57.957397 154.62793 57.957397Q153.7998 57.957397 153.33105 58.332397Q152.8623 58.691772 152.8623 59.332397Q152.8623 59.863647 153.2998 60.223022Q153.75293 60.582397 154.81543 60.879272Q155.87793 61.176147 156.47168 61.535522Q157.08105 61.894897 157.3623 62.379272Q157.65918 62.863647 157.65918 63.504272Q157.65918 64.55115 156.84668 65.17615Q156.03418 65.80115 154.69043 65.80115Q153.7998 65.80115 153.03418 65.4574Q152.28418 65.11365 151.8623 64.53552Q151.45605 63.941772 151.45605 63.207397L152.58105 63.207397Q152.58105 63.973022 153.15918 64.42615Q153.7373 64.87927 154.69043 64.87927Q155.58105 64.87927 156.0498 64.5199Q156.51855 64.1449 156.51855 63.519897Q156.51855 62.894897 156.08105 62.551147Q155.64355 62.207397 154.4873 61.879272ZM160.28418 57.801147L160.28418 59.332397L161.45605 59.332397L161.45605 60.176147L160.28418 60.176147L160.28418 64.09802Q160.28418 64.48865 160.44043 64.67615Q160.59668 64.86365 160.97168 64.86365Q161.15918 64.86365 161.4873 64.80115L161.4873 65.67615Q161.06543 65.80115 160.65918 65.80115Q159.94043 65.80115 159.56543 65.36365Q159.19043 64.91052 159.19043 64.09802L159.19043 60.176147L158.03418 60.176147L158.03418 59.332397L159.19043 59.332397L159.19043 57.801147L160.28418 57.801147ZM165.87793 60.301147Q165.62793 60.269897 165.34668 60.269897Q164.26855 60.269897 163.89355 61.176147L163.89355 65.67615L162.81543 65.67615L162.81543 59.332397L163.8623 59.332397L163.87793 60.066772Q164.40918 59.223022 165.39355 59.223022Q165.70605 59.223022 165.87793 59.301147L165.87793 60.301147ZM166.51855 62.441772Q166.51855 61.519897 166.87793 60.769897Q167.25293 60.019897 167.90918 59.629272Q168.56543 59.223022 169.39355 59.223022Q170.69043 59.223022 171.4873 60.113647Q172.2998 61.004272 172.2998 62.504272L172.2998 62.582397Q172.2998 63.504272 171.94043 64.23865Q171.58105 64.97302 170.9248 65.3949Q170.26855 65.80115 169.40918 65.80115Q168.12793 65.80115 167.31543 64.91052Q166.51855 64.00427 166.51855 62.519897L166.51855 62.441772ZM167.6123 62.582397Q167.6123 63.629272 168.09668 64.2699Q168.59668 64.91052 169.40918 64.91052Q170.2373 64.91052 170.72168 64.2699Q171.20605 63.613647 171.20605 62.441772Q171.20605 61.410522 170.70605 60.769897Q170.22168 60.113647 169.39355 60.113647Q168.59668 60.113647 168.09668 60.754272Q167.6123 61.379272 167.6123 62.582397ZM174.83105 59.332397L174.8623 60.129272Q175.59668 59.223022 176.76855 59.223022Q178.78418 59.223022 178.7998 61.488647L178.7998 65.67615L177.70605 65.67615L177.70605 61.473022Q177.70605 60.801147 177.39355 60.473022Q177.09668 60.144897 176.44043 60.144897Q175.90918 60.144897 175.50293 60.426147Q175.1123 60.707397 174.89355 61.160522L174.89355 65.67615L173.81543 65.67615L173.81543 59.332397L174.83105 59.332397ZM180.5498 62.457397Q180.5498 60.973022 181.2373 60.098022Q181.9248 59.223022 183.0498 59.223022Q184.20605 59.223022 184.8623 60.035522L184.90918 59.332397L185.90918 59.332397L185.90918 65.5199Q185.90918 66.75427 185.1748 67.4574Q184.44043 68.17615 183.22168 68.17615Q182.53418 68.17615 181.87793 67.87927Q181.22168 67.5824 180.87793 67.0824L181.44043 66.42615Q182.12793 67.28552 183.14355 67.28552Q183.9248 67.28552 184.3623 66.8324Q184.81543 66.3949 184.81543 65.5824L184.81543 65.03552Q184.15918 65.80115 183.03418 65.80115Q181.9248 65.80115 181.2373 64.91052Q180.5498 64.00427 180.5498 62.457397ZM181.64355 62.582397Q181.64355 63.644897 182.08105 64.2699Q182.51855 64.87927 183.31543 64.87927Q184.33105 64.87927 184.81543 63.941772L184.81543 61.051147Q184.31543 60.144897 183.31543 60.144897Q182.53418 60.144897 182.08105 60.754272Q181.64355 61.363647 181.64355 62.582397ZM188.9873 65.67615L187.90918 65.67615L187.90918 56.676147L188.9873 56.676147L188.9873 65.67615ZM192.87793 64.0824L194.3623 59.332397L195.51855 59.332397L192.97168 66.66052Q192.37793 68.23865 191.09668 68.23865L190.87793 68.22302L190.4873 68.1449L190.4873 67.2699L190.76855 67.28552Q191.33105 67.28552 191.62793 67.06677Q191.94043 66.84802 192.14355 66.25427L192.37793 65.59802L190.1123 59.332397L191.2998 59.332397L192.87793 64.0824ZM199.5498 62.457397Q199.5498 60.988647 200.2373 60.113647Q200.9248 59.223022 202.0498 59.223022Q203.15918 59.223022 203.81543 59.973022L203.81543 56.676147L204.89355 56.676147L204.89355 65.67615L203.89355 65.67615L203.84668 64.98865Q203.19043 65.80115 202.03418 65.80115Q200.94043 65.80115 200.2373 64.8949Q199.5498 63.988647 199.5498 62.535522L199.5498 62.457397ZM200.62793 62.582397Q200.62793 63.660522 201.06543 64.2699Q201.51855 64.87927 202.2998 64.87927Q203.33105 64.87927 203.81543 63.941772L203.81543 61.035522Q203.33105 60.144897 202.31543 60.144897Q201.51855 60.144897 201.06543 60.754272Q200.62793 61.363647 200.62793 62.582397ZM207.9873 65.67615L206.90918 65.67615L206.90918 59.332397L207.9873 59.332397L207.9873 65.67615ZM206.81543 57.660522Q206.81543 57.394897 206.97168 57.207397Q207.14355 57.019897 207.45605 57.019897Q207.76855 57.019897 207.9248 57.207397Q208.09668 57.394897 208.09668 57.660522Q208.09668 57.910522 207.9248 58.098022Q207.76855 58.269897 207.45605 58.269897Q207.14355 58.269897 206.97168 58.098022Q206.81543 57.910522 206.81543 57.660522ZM213.50293 63.988647Q213.50293 63.551147 213.15918 63.316772Q212.83105 63.066772 212.00293 62.894897Q211.19043 62.723022 210.70605 62.473022Q210.22168 62.223022 209.9873 61.894897Q209.76855 61.551147 209.76855 61.082397Q209.76855 60.301147 210.4248 59.769897Q211.08105 59.223022 212.1123 59.223022Q213.19043 59.223022 213.84668 59.785522Q214.51855 60.332397 214.51855 61.191772L213.44043 61.191772Q213.44043 60.754272 213.0498 60.441772Q212.6748 60.113647 212.1123 60.113647Q211.51855 60.113647 211.1748 60.379272Q210.84668 60.629272 210.84668 61.035522Q210.84668 61.426147 211.15918 61.629272Q211.47168 61.832397 212.28418 62.019897Q213.09668 62.191772 213.59668 62.441772Q214.09668 62.691772 214.33105 63.051147Q214.58105 63.410522 214.58105 63.910522Q214.58105 64.7699 213.89355 65.28552Q213.22168 65.80115 212.14355 65.80115Q211.37793 65.80115 210.78418 65.53552Q210.20605 65.25427 209.87793 64.7699Q209.5498 64.28552 209.5498 63.723022L210.62793 63.723022Q210.65918 64.2699 211.06543 64.59802Q211.47168 64.91052 212.14355 64.91052Q212.75293 64.91052 213.12793 64.66052Q213.50293 64.41052 213.50293 63.988647ZM219.72168 65.67615Q219.62793 65.48865 219.56543 65.00427Q218.81543 65.80115 217.76855 65.80115Q216.83105 65.80115 216.22168 65.2699Q215.62793 64.73865 215.62793 63.910522Q215.62793 62.926147 216.37793 62.379272Q217.12793 61.832397 218.50293 61.832397L219.5498 61.832397L219.5498 61.332397Q219.5498 60.769897 219.20605 60.441772Q218.87793 60.098022 218.20605 60.098022Q217.62793 60.098022 217.2373 60.394897Q216.84668 60.676147 216.84668 61.098022L215.75293 61.098022Q215.75293 60.613647 216.08105 60.176147Q216.4248 59.738647 217.00293 59.488647Q217.58105 59.223022 218.26855 59.223022Q219.37793 59.223022 219.9873 59.769897Q220.6123 60.316772 220.64355 61.269897L220.64355 64.19177Q220.64355 65.06677 220.8623 65.5824L220.8623 65.67615L219.72168 65.67615ZM217.9248 64.84802Q218.44043 64.84802 218.89355 64.5824Q219.34668 64.31677 219.5498 63.894897L219.5498 62.598022L218.70605 62.598022Q216.70605 62.598022 216.70605 63.769897Q216.70605 64.2699 217.0498 64.56677Q217.39355 64.84802 217.9248 64.84802ZM222.5498 62.457397Q222.5498 60.973022 223.2373 60.098022Q223.9248 59.223022 225.0498 59.223022Q226.20605 59.223022 226.8623 60.035522L226.90918 59.332397L227.90918 59.332397L227.90918 65.5199Q227.90918 66.75427 227.1748 67.4574Q226.44043 68.17615 225.22168 68.17615Q224.53418 68.17615 223.87793 67.87927Q223.22168 67.5824 222.87793 67.0824L223.44043 66.42615Q224.12793 67.28552 225.14355 67.28552Q225.9248 67.28552 226.3623 66.8324Q226.81543 66.3949 226.81543 65.5824L226.81543 65.03552Q226.15918 65.80115 225.03418 65.80115Q223.9248 65.80115 223.2373 64.91052Q222.5498 64.00427 222.5498 62.457397ZM223.64355 62.582397Q223.64355 63.644897 224.08105 64.2699Q224.51855 64.87927 225.31543 64.87927Q226.33105 64.87927 226.81543 63.941772L226.81543 61.051147Q226.31543 60.144897 225.31543 60.144897Q224.53418 60.144897 224.08105 60.754272Q223.64355 61.363647 223.64355 62.582397ZM232.87793 60.301147Q232.62793 60.269897 232.34668 60.269897Q231.26855 60.269897 230.89355 61.176147L230.89355 65.67615L229.81543 65.67615L229.81543 59.332397L230.8623 59.332397L230.87793 60.066772Q231.40918 59.223022 232.39355 59.223022Q232.70605 59.223022 232.87793 59.301147L232.87793 60.301147ZM236.44043 65.80115Q235.14355 65.80115 234.33105 64.9574Q233.53418 64.09802 233.53418 62.676147L233.53418 62.488647Q233.53418 61.535522 233.89355 60.801147Q234.25293 60.051147 234.89355 59.644897Q235.5498 59.223022 236.2998 59.223022Q237.53418 59.223022 238.22168 60.035522Q238.90918 60.848022 238.90918 62.363647L238.90918 62.816772L234.6123 62.816772Q234.64355 63.754272 235.15918 64.3324Q235.69043 64.91052 236.50293 64.91052Q237.06543 64.91052 237.45605 64.67615Q237.8623 64.44177 238.1748 64.05115L238.83105 64.56677Q238.03418 65.80115 236.44043 65.80115ZM236.2998 60.113647Q235.64355 60.113647 235.19043 60.598022Q234.75293 61.066772 234.65918 61.926147L237.83105 61.926147L237.83105 61.848022Q237.78418 61.019897 237.37793 60.566772Q236.9873 60.113647 236.2998 60.113647ZM242.44043 65.80115Q241.14355 65.80115 240.33105 64.9574Q239.53418 64.09802 239.53418 62.676147L239.53418 62.488647Q239.53418 61.535522 239.89355 60.801147Q240.25293 60.051147 240.89355 59.644897Q241.5498 59.223022 242.2998 59.223022Q243.53418 59.223022 244.22168 60.035522Q244.90918 60.848022 244.90918 62.363647L244.90918 62.816772L240.6123 62.816772Q240.64355 63.754272 241.15918 64.3324Q241.69043 64.91052 242.50293 64.91052Q243.06543 64.91052 243.45605 64.67615Q243.8623 64.44177 244.1748 64.05115L244.83105 64.56677Q244.03418 65.80115 242.44043 65.80115ZM242.2998 60.113647Q241.64355 60.113647 241.19043 60.598022Q240.75293 61.066772 240.65918 61.926147L243.83105 61.926147L243.83105 61.848022Q243.78418 61.019897 243.37793 60.566772Q242.9873 60.113647 242.2998 60.113647Z" fill-rule="nonzero"/><path fill="#ffe599" d="M260.9873 56.176147C260.9873 55.623863 261.43503 55.176147 261.9873 55.176147L271.9873 55.176147C272.53958 55.176147 272.9873 55.623863 272.9873 56.176147L272.9873 66.17615C272.9873 66.72843 272.53958 67.17615 271.9873 67.17615L261.9873 67.17615C261.43503 67.17615 260.9873 66.72843 260.9873 66.17615Z" fill-rule="nonzero"/><path fill="#000000" d="M281.97168 65.67615L281.97168 57.144897L284.39355 57.144897Q285.50293 57.144897 286.34668 57.644897Q287.20605 58.129272 287.6748 59.035522Q288.14355 59.941772 288.14355 61.129272L288.14355 61.660522Q288.14355 62.879272 287.6748 63.785522Q287.22168 64.69177 286.34668 65.17615Q285.4873 65.66052 284.34668 65.67615L281.97168 65.67615ZM283.09668 58.066772L283.09668 64.75427L284.28418 64.75427Q285.58105 64.75427 286.2998 63.957397Q287.03418 63.144897 287.03418 61.644897L287.03418 61.144897Q287.03418 59.691772 286.34668 58.894897Q285.6748 58.082397 284.40918 58.066772L283.09668 58.066772ZM290.9873 65.67615L289.90918 65.67615L289.90918 59.332397L290.9873 59.332397L290.9873 65.67615ZM289.81543 57.660522Q289.81543 57.394897 289.97168 57.207397Q290.14355 57.019897 290.45605 57.019897Q290.76855 57.019897 290.9248 57.207397Q291.09668 57.394897 291.09668 57.660522Q291.09668 57.910522 290.9248 58.098022Q290.76855 58.269897 290.45605 58.269897Q290.14355 58.269897 289.97168 58.098022Q289.81543 57.910522 289.81543 57.660522ZM296.50293 63.988647Q296.50293 63.551147 296.15918 63.316772Q295.83105 63.066772 295.00293 62.894897Q294.19043 62.723022 293.70605 62.473022Q293.22168 62.223022 292.9873 61.894897Q292.76855 61.551147 292.76855 61.082397Q292.76855 60.301147 293.4248 59.769897Q294.08105 59.223022 295.1123 59.223022Q296.19043 59.223022 296.84668 59.785522Q297.51855 60.332397 297.51855 61.191772L296.44043 61.191772Q296.44043 60.754272 296.0498 60.441772Q295.6748 60.113647 295.1123 60.113647Q294.51855 60.113647 294.1748 60.379272Q293.84668 60.629272 293.84668 61.035522Q293.84668 61.426147 294.15918 61.629272Q294.47168 61.832397 295.28418 62.019897Q296.09668 62.191772 296.59668 62.441772Q297.09668 62.691772 297.33105 63.051147Q297.58105 63.410522 297.58105 63.910522Q297.58105 64.7699 296.89355 65.28552Q296.22168 65.80115 295.14355 65.80115Q294.37793 65.80115 293.78418 65.53552Q293.20605 65.25427 292.87793 64.7699Q292.5498 64.28552 292.5498 63.723022L293.62793 63.723022Q293.65918 64.2699 294.06543 64.59802Q294.47168 64.91052 295.14355 64.91052Q295.75293 64.91052 296.12793 64.66052Q296.50293 64.41052 296.50293 63.988647ZM302.72168 65.67615Q302.62793 65.48865 302.56543 65.00427Q301.81543 65.80115 300.76855 65.80115Q299.83105 65.80115 299.22168 65.2699Q298.62793 64.73865 298.62793 63.910522Q298.62793 62.926147 299.37793 62.379272Q300.12793 61.832397 301.50293 61.832397L302.5498 61.832397L302.5498 61.332397Q302.5498 60.769897 302.20605 60.441772Q301.87793 60.098022 301.20605 60.098022Q300.62793 60.098022 300.2373 60.394897Q299.84668 60.676147 299.84668 61.098022L298.75293 61.098022Q298.75293 60.613647 299.08105 60.176147Q299.4248 59.738647 300.00293 59.488647Q300.58105 59.223022 301.26855 59.223022Q302.37793 59.223022 302.9873 59.769897Q303.6123 60.316772 303.64355 61.269897L303.64355 64.19177Q303.64355 65.06677 303.8623 65.5824L303.8623 65.67615L302.72168 65.67615ZM300.9248 64.84802Q301.44043 64.84802 301.89355 64.5824Q302.34668 64.31677 302.5498 63.894897L302.5498 62.598022L301.70605 62.598022Q299.70605 62.598022 299.70605 63.769897Q299.70605 64.2699 300.0498 64.56677Q300.39355 64.84802 300.9248 64.84802ZM305.5498 62.457397Q305.5498 60.973022 306.2373 60.098022Q306.9248 59.223022 308.0498 59.223022Q309.20605 59.223022 309.8623 60.035522L309.90918 59.332397L310.90918 59.332397L310.90918 65.5199Q310.90918 66.75427 310.1748 67.4574Q309.44043 68.17615 308.22168 68.17615Q307.53418 68.17615 306.87793 67.87927Q306.22168 67.5824 305.87793 67.0824L306.44043 66.42615Q307.12793 67.28552 308.14355 67.28552Q308.9248 67.28552 309.3623 66.8324Q309.81543 66.3949 309.81543 65.5824L309.81543 65.03552Q309.15918 65.80115 308.03418 65.80115Q306.9248 65.80115 306.2373 64.91052Q305.5498 64.00427 305.5498 62.457397ZM306.64355 62.582397Q306.64355 63.644897 307.08105 64.2699Q307.51855 64.87927 308.31543 64.87927Q309.33105 64.87927 309.81543 63.941772L309.81543 61.051147Q309.31543 60.144897 308.31543 60.144897Q307.53418 60.144897 307.08105 60.754272Q306.64355 61.363647 306.64355 62.582397ZM315.87793 60.301147Q315.62793 60.269897 315.34668 60.269897Q314.26855 60.269897 313.89355 61.176147L313.89355 65.67615L312.81543 65.67615L312.81543 59.332397L313.8623 59.332397L313.87793 60.066772Q314.40918 59.223022 315.39355 59.223022Q315.70605 59.223022 315.87793 59.301147L315.87793 60.301147ZM319.44043 65.80115Q318.14355 65.80115 317.33105 64.9574Q316.53418 64.09802 316.53418 62.676147L316.53418 62.488647Q316.53418 61.535522 316.89355 60.801147Q317.25293 60.051147 317.89355 59.644897Q318.5498 59.223022 319.2998 59.223022Q320.53418 59.223022 321.22168 60.035522Q321.90918 60.848022 321.90918 62.363647L321.90918 62.816772L317.6123 62.816772Q317.64355 63.754272 318.15918 64.3324Q318.69043 64.91052 319.50293 64.91052Q320.06543 64.91052 320.45605 64.67615Q320.8623 64.44177 321.1748 64.05115L321.83105 64.56677Q321.03418 65.80115 319.44043 65.80115ZM319.2998 60.113647Q318.64355 60.113647 318.19043 60.598022Q317.75293 61.066772 317.65918 61.926147L320.83105 61.926147L320.83105 61.848022Q320.78418 61.019897 320.37793 60.566772Q319.9873 60.113647 319.2998 60.113647ZM325.44043 65.80115Q324.14355 65.80115 323.33105 64.9574Q322.53418 64.09802 322.53418 62.676147L322.53418 62.488647Q322.53418 61.535522 322.89355 60.801147Q323.25293 60.051147 323.89355 59.644897Q324.5498 59.223022 325.2998 59.223022Q326.53418 59.223022 327.22168 60.035522Q327.90918 60.848022 327.90918 62.363647L327.90918 62.816772L323.6123 62.816772Q323.64355 63.754272 324.15918 64.3324Q324.69043 64.91052 325.50293 64.91052Q326.06543 64.91052 326.45605 64.67615Q326.8623 64.44177 327.1748 64.05115L327.83105 64.56677Q327.03418 65.80115 325.44043 65.80115ZM325.2998 60.113647Q324.64355 60.113647 324.19043 60.598022Q323.75293 61.066772 323.65918 61.926147L326.83105 61.926147L326.83105 61.848022Q326.78418 61.019897 326.37793 60.566772Q325.9873 60.113647 325.2998 60.113647Z" fill-rule="nonzero"/><path fill="#f3f3f3" d="M343.9873 56.176147C343.9873 55.623863 344.43503 55.176147 344.9873 55.176147L354.9873 55.176147C355.53958 55.176147 355.9873 55.623863 355.9873 56.176147L355.9873 66.17615C355.9873 66.72843 355.53958 67.17615 354.9873 67.17615L344.9873 67.17615C344.43503 67.17615 343.9873 66.72843 343.9873 66.17615Z" fill-rule="nonzero"/><path fill="#000000" d="M371.53418 65.67615L370.40918 65.67615L366.1123 59.098022L366.1123 65.67615L364.97168 65.67615L364.97168 57.144897L366.1123 57.144897L370.40918 63.754272L370.40918 57.144897L371.53418 57.144897L371.53418 65.67615ZM376.44043 65.80115Q375.14355 65.80115 374.33105 64.9574Q373.53418 64.09802 373.53418 62.676147L373.53418 62.488647Q373.53418 61.535522 373.89355 60.801147Q374.25293 60.051147 374.89355 59.644897Q375.5498 59.223022 376.2998 59.223022Q377.53418 59.223022 378.22168 60.035522Q378.90918 60.848022 378.90918 62.363647L378.90918 62.816772L374.6123 62.816772Q374.64355 63.754272 375.15918 64.3324Q375.69043 64.91052 376.50293 64.91052Q377.06543 64.91052 377.45605 64.67615Q377.8623 64.44177 378.1748 64.05115L378.83105 64.56677Q378.03418 65.80115 376.44043 65.80115ZM376.2998 60.113647Q375.64355 60.113647 375.19043 60.598022Q374.75293 61.066772 374.65918 61.926147L377.83105 61.926147L377.83105 61.848022Q377.78418 61.019897 377.37793 60.566772Q376.9873 60.113647 376.2998 60.113647ZM383.72168 65.05115Q383.09668 65.80115 381.8623 65.80115Q380.84668 65.80115 380.31543 65.2074Q379.78418 64.61365 379.78418 63.457397L379.78418 59.332397L380.8623 59.332397L380.8623 63.426147Q380.8623 64.87927 382.03418 64.87927Q383.28418 64.87927 383.69043 63.941772L383.69043 59.332397L384.78418 59.332397L384.78418 65.67615L383.75293 65.67615L383.72168 65.05115ZM388.28418 57.801147L388.28418 59.332397L389.45605 59.332397L389.45605 60.176147L388.28418 60.176147L388.28418 64.09802Q388.28418 64.48865 388.44043 64.67615Q388.59668 64.86365 388.97168 64.86365Q389.15918 64.86365 389.4873 64.80115L389.4873 65.67615Q389.06543 65.80115 388.65918 65.80115Q387.94043 65.80115 387.56543 65.36365Q387.19043 64.91052 387.19043 64.09802L387.19043 60.176147L386.03418 60.176147L386.03418 59.332397L387.19043 59.332397L387.19043 57.801147L388.28418 57.801147ZM393.87793 60.301147Q393.62793 60.269897 393.34668 60.269897Q392.26855 60.269897 391.89355 61.176147L391.89355 65.67615L390.81543 65.67615L390.81543 59.332397L391.8623 59.332397L391.87793 60.066772Q392.40918 59.223022 393.39355 59.223022Q393.70605 59.223022 393.87793 59.301147L393.87793 60.301147ZM398.72168 65.67615Q398.62793 65.48865 398.56543 65.00427Q397.81543 65.80115 396.76855 65.80115Q395.83105 65.80115 395.22168 65.2699Q394.62793 64.73865 394.62793 63.910522Q394.62793 62.926147 395.37793 62.379272Q396.12793 61.832397 397.50293 61.832397L398.5498 61.832397L398.5498 61.332397Q398.5498 60.769897 398.20605 60.441772Q397.87793 60.098022 397.20605 60.098022Q396.62793 60.098022 396.2373 60.394897Q395.84668 60.676147 395.84668 61.098022L394.75293 61.098022Q394.75293 60.613647 395.08105 60.176147Q395.4248 59.738647 396.00293 59.488647Q396.58105 59.223022 397.26855 59.223022Q398.37793 59.223022 398.9873 59.769897Q399.6123 60.316772 399.64355 61.269897L399.64355 64.19177Q399.64355 65.06677 399.8623 65.5824L399.8623 65.67615L398.72168 65.67615ZM396.9248 64.84802Q397.44043 64.84802 397.89355 64.5824Q398.34668 64.31677 398.5498 63.894897L398.5498 62.598022L397.70605 62.598022Q395.70605 62.598022 395.70605 63.769897Q395.70605 64.2699 396.0498 64.56677Q396.39355 64.84802 396.9248 64.84802ZM402.9873 65.67615L401.90918 65.67615L401.90918 56.676147L402.9873 56.676147L402.9873 65.67615Z" fill-rule="nonzero"/><path fill="#b6d7a8" d="M419.9873 56.176147C419.9873 55.623863 420.43503 55.176147 420.9873 55.176147L430.9873 55.176147C431.53958 55.176147 431.9873 55.623863 431.9873 56.176147L431.9873 66.17615C431.9873 66.72843 431.53958 67.17615 430.9873 67.17615L420.9873 67.17615C420.43503 67.17615 419.9873 66.72843 419.9873 66.17615Z" fill-rule="nonzero"/><path fill="#000000" d="M445.69043 63.441772L442.1123 63.441772L441.31543 65.67615L440.15918 65.67615L443.40918 57.144897L444.39355 57.144897L447.65918 65.67615L446.50293 65.67615L445.69043 63.441772ZM442.45605 62.519897L445.3623 62.519897L443.90918 58.535522L442.45605 62.519897ZM448.5498 62.457397Q448.5498 60.973022 449.2373 60.098022Q449.9248 59.223022 451.0498 59.223022Q452.20605 59.223022 452.8623 60.035522L452.90918 59.332397L453.90918 59.332397L453.90918 65.5199Q453.90918 66.75427 453.1748 67.4574Q452.44043 68.17615 451.22168 68.17615Q450.53418 68.17615 449.87793 67.87927Q449.22168 67.5824 448.87793 67.0824L449.44043 66.42615Q450.12793 67.28552 451.14355 67.28552Q451.9248 67.28552 452.3623 66.8324Q452.81543 66.3949 452.81543 65.5824L452.81543 65.03552Q452.15918 65.80115 451.03418 65.80115Q449.9248 65.80115 449.2373 64.91052Q448.5498 64.00427 448.5498 62.457397ZM449.64355 62.582397Q449.64355 63.644897 450.08105 64.2699Q450.51855 64.87927 451.31543 64.87927Q452.33105 64.87927 452.81543 63.941772L452.81543 61.051147Q452.31543 60.144897 451.31543 60.144897Q450.53418 60.144897 450.08105 60.754272Q449.64355 61.363647 449.64355 62.582397ZM458.87793 60.301147Q458.62793 60.269897 458.34668 60.269897Q457.26855 60.269897 456.89355 61.176147L456.89355 65.67615L455.81543 65.67615L455.81543 59.332397L456.8623 59.332397L456.87793 60.066772Q457.40918 59.223022 458.39355 59.223022Q458.70605 59.223022 458.87793 59.301147L458.87793 60.301147ZM462.44043 65.80115Q461.14355 65.80115 460.33105 64.9574Q459.53418 64.09802 459.53418 62.676147L459.53418 62.488647Q459.53418 61.535522 459.89355 60.801147Q460.25293 60.051147 460.89355 59.644897Q461.5498 59.223022 462.2998 59.223022Q463.53418 59.223022 464.22168 60.035522Q464.90918 60.848022 464.90918 62.363647L464.90918 62.816772L460.6123 62.816772Q460.64355 63.754272 461.15918 64.3324Q461.69043 64.91052 462.50293 64.91052Q463.06543 64.91052 463.45605 64.67615Q463.8623 64.44177 464.1748 64.05115L464.83105 64.56677Q464.03418 65.80115 462.44043 65.80115ZM462.2998 60.113647Q461.64355 60.113647 461.19043 60.598022Q460.75293 61.066772 460.65918 61.926147L463.83105 61.926147L463.83105 61.848022Q463.78418 61.019897 463.37793 60.566772Q462.9873 60.113647 462.2998 60.113647ZM468.44043 65.80115Q467.14355 65.80115 466.33105 64.9574Q465.53418 64.09802 465.53418 62.676147L465.53418 62.488647Q465.53418 61.535522 465.89355 60.801147Q466.25293 60.051147 466.89355 59.644897Q467.5498 59.223022 468.2998 59.223022Q469.53418 59.223022 470.22168 60.035522Q470.90918 60.848022 470.90918 62.363647L470.90918 62.816772L466.6123 62.816772Q466.64355 63.754272 467.15918 64.3324Q467.69043 64.91052 468.50293 64.91052Q469.06543 64.91052 469.45605 64.67615Q469.8623 64.44177 470.1748 64.05115L470.83105 64.56677Q470.03418 65.80115 468.44043 65.80115ZM468.2998 60.113647Q467.64355 60.113647 467.19043 60.598022Q466.75293 61.066772 466.65918 61.926147L469.83105 61.926147L469.83105 61.848022Q469.78418 61.019897 469.37793 60.566772Q468.9873 60.113647 468.2998 60.113647Z" fill-rule="nonzero"/><path fill="#6aa84f" d="M486.9873 56.176147C486.9873 55.623863 487.43503 55.176147 487.9873 55.176147L497.9873 55.176147C498.53958 55.176147 498.9873 55.623863 498.9873 56.176147L498.9873 66.17615C498.9873 66.72843 498.53958 67.17615 497.9873 67.17615L487.9873 67.17615C487.43503 67.17615 486.9873 66.72843 486.9873 66.17615Z" fill-rule="nonzero"/><path fill="#000000" d="M510.4873 61.879272Q509.0498 61.457397 508.37793 60.848022Q507.72168 60.238647 507.72168 59.348022Q507.72168 58.348022 508.51855 57.691772Q509.33105 57.019897 510.62793 57.019897Q511.50293 57.019897 512.1904 57.363647Q512.8779 57.707397 513.2529 58.301147Q513.64355 58.894897 513.64355 59.613647L512.5029 59.613647Q512.5029 58.832397 512.0029 58.394897Q511.51855 57.957397 510.62793 57.957397Q509.7998 57.957397 509.33105 58.332397Q508.8623 58.691772 508.8623 59.332397Q508.8623 59.863647 509.2998 60.223022Q509.75293 60.582397 510.81543 60.879272Q511.87793 61.176147 512.4717 61.535522Q513.08105 61.894897 513.3623 62.379272Q513.6592 62.863647 513.6592 63.504272Q513.6592 64.55115 512.8467 65.17615Q512.0342 65.80115 510.69043 65.80115Q509.7998 65.80115 509.03418 65.4574Q508.28418 65.11365 507.8623 64.53552Q507.45605 63.941772 507.45605 63.207397L508.58105 63.207397Q508.58105 63.973022 509.15918 64.42615Q509.7373 64.87927 510.69043 64.87927Q511.58105 64.87927 512.0498 64.5199Q512.51855 64.1449 512.51855 63.519897Q512.51855 62.894897 512.08105 62.551147Q511.64355 62.207397 510.4873 61.879272ZM516.2842 57.801147L516.2842 59.332397L517.45605 59.332397L517.45605 60.176147L516.2842 60.176147L516.2842 64.09802Q516.2842 64.48865 516.4404 64.67615Q516.5967 64.86365 516.9717 64.86365Q517.1592 64.86365 517.4873 64.80115L517.4873 65.67615Q517.0654 65.80115 516.6592 65.80115Q515.9404 65.80115 515.5654 65.36365Q515.1904 64.91052 515.1904 64.09802L515.1904 60.176147L514.0342 60.176147L514.0342 59.332397L515.1904 59.332397L515.1904 57.801147L516.2842 57.801147ZM521.8779 60.301147Q521.6279 60.269897 521.3467 60.269897Q520.26855 60.269897 519.89355 61.176147L519.89355 65.67615L518.8154 65.67615L518.8154 59.332397L519.8623 59.332397L519.8779 60.066772Q520.4092 59.223022 521.39355 59.223022Q521.70605 59.223022 521.8779 59.301147L521.8779 60.301147ZM522.51855 62.441772Q522.51855 61.519897 522.8779 60.769897Q523.2529 60.019897 523.9092 59.629272Q524.5654 59.223022 525.39355 59.223022Q526.6904 59.223022 527.4873 60.113647Q528.2998 61.004272 528.2998 62.504272L528.2998 62.582397Q528.2998 63.504272 527.9404 64.23865Q527.58105 64.97302 526.9248 65.3949Q526.26855 65.80115 525.4092 65.80115Q524.1279 65.80115 523.3154 64.91052Q522.51855 64.00427 522.51855 62.519897L522.51855 62.441772ZM523.6123 62.582397Q523.6123 63.629272 524.0967 64.2699Q524.5967 64.91052 525.4092 64.91052Q526.2373 64.91052 526.7217 64.2699Q527.20605 63.613647 527.20605 62.441772Q527.20605 61.410522 526.70605 60.769897Q526.2217 60.113647 525.39355 60.113647Q524.5967 60.113647 524.0967 60.754272Q523.6123 61.379272 523.6123 62.582397ZM530.83105 59.332397L530.8623 60.129272Q531.5967 59.223022 532.76855 59.223022Q534.7842 59.223022 534.7998 61.488647L534.7998 65.67615L533.70605 65.67615L533.70605 61.473022Q533.70605 60.801147 533.39355 60.473022Q533.0967 60.144897 532.4404 60.144897Q531.9092 60.144897 531.5029 60.426147Q531.1123 60.707397 530.89355 61.160522L530.89355 65.67615L529.8154 65.67615L529.8154 59.332397L530.83105 59.332397ZM537.9873 65.67615L536.9092 65.67615L536.9092 56.676147L537.9873 56.676147L537.9873 65.67615ZM539.5498 62.457397Q539.5498 60.973022 540.2373 60.098022Q540.9248 59.223022 542.0498 59.223022Q543.20605 59.223022 543.8623 60.035522L543.9092 59.332397L544.9092 59.332397L544.9092 65.5199Q544.9092 66.75427 544.1748 67.4574Q543.4404 68.17615 542.2217 68.17615Q541.5342 68.17615 540.8779 67.87927Q540.2217 67.5824 539.8779 67.0824L540.4404 66.42615Q541.1279 67.28552 542.14355 67.28552Q542.9248 67.28552 543.3623 66.8324Q543.8154 66.3949 543.8154 65.5824L543.8154 65.03552Q543.1592 65.80115 542.0342 65.80115Q540.9248 65.80115 540.2373 64.91052Q539.5498 64.00427 539.5498 62.457397ZM540.64355 62.582397Q540.64355 63.644897 541.08105 64.2699Q541.51855 64.87927 542.3154 64.87927Q543.33105 64.87927 543.8154 63.941772L543.8154 61.051147Q543.3154 60.144897 542.3154 60.144897Q541.5342 60.144897 541.08105 60.754272Q540.64355 61.363647 540.64355 62.582397ZM548.8779 64.0824L550.3623 59.332397L551.51855 59.332397L548.9717 66.66052Q548.3779 68.23865 547.0967 68.23865L546.8779 68.22302L546.4873 68.1449L546.4873 67.2699L546.76855 67.28552Q547.33105 67.28552 547.6279 67.06677Q547.9404 66.84802 548.14355 66.25427L548.3779 65.59802L546.1123 59.332397L547.2998 59.332397L548.8779 64.0824ZM559.7217 65.67615Q559.6279 65.48865 559.5654 65.00427Q558.8154 65.80115 557.76855 65.80115Q556.83105 65.80115 556.2217 65.2699Q555.6279 64.73865 555.6279 63.910522Q555.6279 62.926147 556.3779 62.379272Q557.1279 61.832397 558.5029 61.832397L559.5498 61.832397L559.5498 61.332397Q559.5498 60.769897 559.20605 60.441772Q558.8779 60.098022 558.20605 60.098022Q557.6279 60.098022 557.2373 60.394897Q556.8467 60.676147 556.8467 61.098022L555.7529 61.098022Q555.7529 60.613647 556.08105 60.176147Q556.4248 59.738647 557.0029 59.488647Q557.58105 59.223022 558.26855 59.223022Q559.3779 59.223022 559.9873 59.769897Q560.6123 60.316772 560.64355 61.269897L560.64355 64.19177Q560.64355 65.06677 560.8623 65.5824L560.8623 65.67615L559.7217 65.67615ZM557.9248 64.84802Q558.4404 64.84802 558.89355 64.5824Q559.3467 64.31677 559.5498 63.894897L559.5498 62.598022L558.70605 62.598022Q556.70605 62.598022 556.70605 63.769897Q556.70605 64.2699 557.0498 64.56677Q557.39355 64.84802 557.9248 64.84802ZM562.5498 62.457397Q562.5498 60.973022 563.2373 60.098022Q563.9248 59.223022 565.0498 59.223022Q566.20605 59.223022 566.8623 60.035522L566.9092 59.332397L567.9092 59.332397L567.9092 65.5199Q567.9092 66.75427 567.1748 67.4574Q566.4404 68.17615 565.2217 68.17615Q564.5342 68.17615 563.8779 67.87927Q563.2217 67.5824 562.8779 67.0824L563.4404 66.42615Q564.1279 67.28552 565.14355 67.28552Q565.9248 67.28552 566.3623 66.8324Q566.8154 66.3949 566.8154 65.5824L566.8154 65.03552Q566.1592 65.80115 565.0342 65.80115Q563.9248 65.80115 563.2373 64.91052Q562.5498 64.00427 562.5498 62.457397ZM563.64355 62.582397Q563.64355 63.644897 564.08105 64.2699Q564.51855 64.87927 565.3154 64.87927Q566.33105 64.87927 566.8154 63.941772L566.8154 61.051147Q566.3154 60.144897 565.3154 60.144897Q564.5342 60.144897 564.08105 60.754272Q563.64355 61.363647 563.64355 62.582397ZM572.8779 60.301147Q572.6279 60.269897 572.3467 60.269897Q571.26855 60.269897 570.89355 61.176147L570.89355 65.67615L569.8154 65.67615L569.8154 59.332397L570.8623 59.332397L570.8779 60.066772Q571.4092 59.223022 572.39355 59.223022Q572.70605 59.223022 572.8779 59.301147L572.8779 60.301147ZM576.4404 65.80115Q575.14355 65.80115 574.33105 64.9574Q573.5342 64.09802 573.5342 62.676147L573.5342 62.488647Q573.5342 61.535522 573.89355 60.801147Q574.2529 60.051147 574.89355 59.644897Q575.5498 59.223022 576.2998 59.223022Q577.5342 59.223022 578.2217 60.035522Q578.9092 60.848022 578.9092 62.363647L578.9092 62.816772L574.6123 62.816772Q574.64355 63.754272 575.1592 64.3324Q575.6904 64.91052 576.5029 64.91052Q577.0654 64.91052 577.45605 64.67615Q577.8623 64.44177 578.1748 64.05115L578.83105 64.56677Q578.0342 65.80115 576.4404 65.80115ZM576.2998 60.113647Q575.64355 60.113647 575.1904 60.598022Q574.7529 61.066772 574.6592 61.926147L577.83105 61.926147L577.83105 61.848022Q577.7842 61.019897 577.3779 60.566772Q576.9873 60.113647 576.2998 60.113647ZM582.4404 65.80115Q581.14355 65.80115 580.33105 64.9574Q579.5342 64.09802 579.5342 62.676147L579.5342 62.488647Q579.5342 61.535522 579.89355 60.801147Q580.2529 60.051147 580.89355 59.644897Q581.5498 59.223022 582.2998 59.223022Q583.5342 59.223022 584.2217 60.035522Q584.9092 60.848022 584.9092 62.363647L584.9092 62.816772L580.6123 62.816772Q580.64355 63.754272 581.1592 64.3324Q581.6904 64.91052 582.5029 64.91052Q583.0654 64.91052 583.45605 64.67615Q583.8623 64.44177 584.1748 64.05115L584.83105 64.56677Q584.0342 65.80115 582.4404 65.80115ZM582.2998 60.113647Q581.64355 60.113647 581.1904 60.598022Q580.7529 61.066772 580.6592 61.926147L583.83105 61.926147L583.83105 61.848022Q583.7842 61.019897 583.3779 60.566772Q582.9873 60.113647 582.2998 60.113647Z" fill-rule="nonzero"/><path fill="#000000" d="M30.70625 35.690624Q29.971874 36.721874 28.675 37.2375Q27.39375 37.753124 25.675 37.753124Q23.925 37.753124 22.58125 36.940624Q21.2375 36.1125 20.503124 34.6125Q19.76875 33.1125 19.7375 31.128124L19.7375 29.878124Q19.7375 26.675 21.2375 24.909374Q22.7375 23.128124 25.45625 23.128124Q27.675 23.128124 29.034374 24.26875Q30.39375 25.409374 30.70625 27.503124L28.83125 27.503124Q28.3 24.675 25.471874 24.675Q23.58125 24.675 22.6125 26.003124Q21.64375 27.33125 21.628124 29.83125L21.628124 31.003124Q21.628124 33.39375 22.721874 34.8Q23.815624 36.20625 25.675 36.20625Q26.7375 36.20625 27.51875 35.971874Q28.315624 35.7375 28.83125 35.190624L28.83125 31.9875L25.55 31.9875L25.55 30.471874L30.70625 30.471874L30.70625 35.690624ZM35.878124 37.55L34.08125 37.55L34.08125 22.55L35.878124 22.55L35.878124 37.55ZM38.440624 32.175Q38.440624 30.6125 39.05 29.378124Q39.659374 28.128124 40.7375 27.45625Q41.83125 26.784374 43.2375 26.784374Q45.39375 26.784374 46.721874 28.284374Q48.065624 29.76875 48.065624 32.253124L48.065624 32.378124Q48.065624 33.925 47.471874 35.159374Q46.878124 36.378124 45.76875 37.065624Q44.675 37.753124 43.253124 37.753124Q41.1125 37.753124 39.76875 36.253124Q38.440624 34.753124 38.440624 32.3L38.440624 32.175ZM40.253124 32.378124Q40.253124 34.14375 41.065624 35.20625Q41.89375 36.26875 43.253124 36.26875Q44.628124 36.26875 45.440624 35.190624Q46.253124 34.1125 46.253124 32.175Q46.253124 30.425 45.425 29.346874Q44.596874 28.26875 43.2375 28.26875Q41.89375 28.26875 41.065624 29.33125Q40.253124 30.39375 40.253124 32.378124ZM58.8625 32.378124Q58.8625 34.8 57.753124 36.284374Q56.64375 37.753124 54.76875 37.753124Q52.753124 37.753124 51.659374 36.33125L51.58125 37.55L49.925 37.55L49.925 22.55L51.721874 22.55L51.721874 28.14375Q52.815624 26.784374 54.7375 26.784374Q56.659374 26.784374 57.753124 28.2375Q58.8625 29.690624 58.8625 32.221874L58.8625 32.378124ZM57.05 32.175Q57.05 30.33125 56.33125 29.33125Q55.628124 28.315624 54.3 28.315624Q52.503124 28.315624 51.721874 29.9875L51.721874 34.55Q52.55 36.20625 54.315624 36.20625Q55.6125 36.20625 56.33125 35.20625Q57.05 34.20625 57.05 32.175ZM67.44063 37.55Q67.28438 37.2375 67.19063 36.440624Q65.925 37.753124 64.175 37.753124Q62.6125 37.753124 61.6125 36.8625Q60.6125 35.971874 60.6125 34.6125Q60.6125 32.971874 61.8625 32.065624Q63.128124 31.14375 65.39375 31.14375L67.15938 31.14375L67.15938 30.315624Q67.15938 29.3625 66.58125 28.8Q66.01875 28.2375 64.925 28.2375Q63.95625 28.2375 63.3 28.7375Q62.64375 29.221874 62.64375 29.909374L60.83125 29.909374Q60.83125 29.128124 61.39375 28.39375Q61.95625 27.64375 62.909374 27.221874Q63.878124 26.784374 65.03438 26.784374Q66.8625 26.784374 67.89375 27.70625Q68.925 28.6125 68.97188 30.221874L68.97188 35.08125Q68.97188 36.534374 69.33125 37.39375L69.33125 37.55L67.44063 37.55ZM64.44063 36.175Q65.3 36.175 66.05 35.7375Q66.81563 35.3 67.15938 34.596874L67.15938 32.425L65.7375 32.425Q62.425 32.425 62.425 34.3625Q62.425 35.221874 62.9875 35.70625Q63.55 36.175 64.44063 36.175ZM73.87813 37.55L72.08125 37.55L72.08125 22.55L73.87813 22.55L73.87813 37.55ZM93.12813 37.55L91.2375 37.55L84.08125 26.596874L84.08125 37.55L82.20625 37.55L82.20625 23.33125L84.08125 23.33125L91.26875 34.33125L91.26875 23.33125L93.12813 23.33125L93.12813 37.55ZM95.44063 32.175Q95.44063 30.6125 96.05 29.378124Q96.65938 28.128124 97.7375 27.45625Q98.83125 26.784374 100.2375 26.784374Q102.39375 26.784374 103.72188 28.284374Q105.06563 29.76875 105.06563 32.253124L105.06563 32.378124Q105.06563 33.925 104.47188 35.159374Q103.87813 36.378124 102.76875 37.065624Q101.675 37.753124 100.25313 37.753124Q98.1125 37.753124 96.76875 36.253124Q95.44063 34.753124 95.44063 32.3L95.44063 32.175ZM97.25313 32.378124Q97.25313 34.14375 98.06563 35.20625Q98.89375 36.26875 100.25313 36.26875Q101.62813 36.26875 102.44063 35.190624Q103.25313 34.1125 103.25313 32.175Q103.25313 30.425 102.425 29.346874Q101.59688 28.26875 100.2375 28.26875Q98.89375 28.26875 98.06563 29.33125Q97.25313 30.39375 97.25313 32.378124ZM112.01875 28.596874Q111.6125 28.534374 111.14375 28.534374Q109.3625 28.534374 108.72188 30.05L108.72188 37.55L106.925 37.55L106.925 26.9875L108.675 26.9875L108.70625 28.20625Q109.59688 26.784374 111.22188 26.784374Q111.75313 26.784374 112.01875 26.925L112.01875 28.596874ZM116.3625 24.425L116.3625 26.9875L118.34688 26.9875L118.34688 28.378124L116.3625 28.378124L116.3625 34.925Q116.3625 35.565624 116.62813 35.89375Q116.89375 36.20625 117.53438 36.20625Q117.84688 36.20625 118.39375 36.08125L118.39375 37.55Q117.675 37.753124 117.00313 37.753124Q115.8 37.753124 115.175 37.01875Q114.56563 36.284374 114.56563 34.925L114.56563 28.378124L112.64375 28.378124L112.64375 26.9875L114.56563 26.9875L114.56563 24.425L116.3625 24.425ZM122.72188 28.26875Q123.925 26.784374 125.84688 26.784374Q129.20625 26.784374 129.22188 30.565624L129.22188 37.55L127.425 37.55L127.425 30.55Q127.40938 29.409374 126.89375 28.8625Q126.39375 28.315624 125.3 28.315624Q124.425 28.315624 123.75313 28.784374Q123.09688 29.253124 122.72188 30.01875L122.72188 37.55L120.925 37.55L120.925 22.55L122.72188 22.55L122.72188 28.26875Z" fill-rule="nonzero"/></svg>