<svg version="1.1" viewBox="0.0 0.0 600.0 371.0" fill="none" stroke="none" stroke-linecap="square" stroke-miterlimit="10" width="600" height="371" xmlns:xlink="http://www.w3.org/1999/xlink" xmlns="http://www.w3.org/2000/svg"><path fill="#ffffff" d="M0 0L600.0 0L600.0 371.0L0 371.0L0 0Z" fill-rule="nonzero"/><path stroke="#333333" stroke-width="1.0" stroke-linecap="butt" d="M94.5 82.5L94.5 331.5" fill-rule="nonzero"/><path stroke="#000000" stroke-width="1.0" stroke-linecap="butt" d="M216.5 82.5L216.5 331.5" fill-rule="nonzero"/><path stroke="#000000" stroke-width="1.0" stroke-linecap="butt" d="M338.5 82.5L338.5 331.5" fill-rule="nonzero"/><path stroke="#000000" stroke-width="1.0" stroke-linecap="butt" d="M459.5 82.5L459.5 331.5" fill-rule="nonzero"/><path stroke="#000000" stroke-width="1.0" stroke-linecap="butt" d="M581.5 82.5L581.5 331.5" fill-rule="nonzero"/><clipPath id="id_0"><path d="M94.55 82.28333L581.45 82.28333L581.45 331.45L94.55 331.45L94.55 82.28333Z" clip-rule="nonzero"/></clipPath><path stroke="#000000" stroke-width="0.0" stroke-linecap="butt" stroke-opacity="0.0" clip-path="url(#id_0)" d="M95.0 189.0L95.0 120.0L186.0 120.0L186.0 189.0Z" fill-rule="nonzero"/><path fill="#f1c232" clip-path="url(#id_0)" d="M95.0 189.0L95.0 120.0L186.0 120.0L186.0 189.0Z" fill-rule="nonzero"/><path stroke="#000000" stroke-width="0.0" stroke-linecap="butt" stroke-opacity="0.0" clip-path="url(#id_0)" d="M95.0 295.0L95.0 226.0L147.0 226.0L147.0 295.0Z" fill-rule="nonzero"/><path fill="#f1c232" clip-path="url(#id_0)" d="M95.0 295.0L95.0 226.0L147.0 226.0L147.0 295.0Z" fill-rule="nonzero"/><path stroke="#000000" stroke-width="0.0" stroke-linecap="butt" stroke-opacity="0.0" clip-path="url(#id_0)" d="M186.0 189.0L186.0 120.0L276.0 120.0L276.0 189.0Z" fill-rule="nonzero"/><path fill="#ffe599" clip-path="url(#id_0)" d="M186.0 189.0L186.0 120.0L276.0 120.0L276.0 189.0Z" fill-rule="nonzero"/><path stroke="#000000" stroke-width="0.0" stroke-linecap="butt" stroke-opacity="0.0" clip-path="url(#id_0)" d="M147.0 295.0L147.0 226.0L248.0 226.0L248.0 295.0Z" fill-rule="nonzero"/><path fill="#ffe599" clip-path="url(#id_0)" d="M147.0 295.0L147.0 226.0L248.0 226.0L248.0 295.0Z" fill-rule="nonzero"/><path stroke="#000000" stroke-width="0.0" stroke-linecap="butt" stroke-opacity="0.0" clip-path="url(#id_0)" d="M276.0 189.0L276.0 120.0L346.0 120.0L346.0 189.0Z" fill-rule="nonzero"/><path fill="#f3f3f3" clip-path="url(#id_0)" d="M276.0 189.0L276.0 120.0L346.0 120.0L346.0 189.0Z" fill-rule="nonzero"/><path stroke="#000000" stroke-width="0.0" stroke-linecap="butt" stroke-opacity="0.0" clip-path="url(#id_0)" d="M248.0 295.0L248.0 226.0L353.0 226.0L353.0 295.0Z" fill-rule="nonzero"/><path fill="#f3f3f3" clip-path="url(#id_0)" d="M248.0 295.0L248.0 226.0L353.0 226.0L353.0 295.0Z" fill-rule="nonzero"/><path stroke="#000000" stroke-width="0.0" stroke-linecap="butt" stroke-opacity="0.0" clip-path="url(#id_0)" d="M346.0 189.0L346.0 120.0L533.0 120.0L533.0 189.0Z" fill-rule="nonzero"/><path fill="#b6d7a8" clip-path="url(#id_0)" d="M346.0 189.0L346.0 120.0L533.0 120.0L533.0 189.0Z" fill-rule="nonzero"/><path stroke="#000000" stroke-width="0.0" stroke-linecap="butt" stroke-opacity="0.0" clip-path="url(#id_0)" d="M353.0 295.0L353.0 226.0L560.0 226.0L560.0 295.0Z" fill-rule="nonzero"/><path fill="#b6d7a8" clip-path="url(#id_0)" d="M353.0 295.0L353.0 226.0L560.0 226.0L560.0 295.0Z" fill-rule="nonzero"/><path stroke="#000000" stroke-width="0.0" stroke-linecap="butt" stroke-opacity="0.0" clip-path="url(#id_0)" d="M533.0 189.0L533.0 120.0L579.0 120.0C580.10455 120.0 581.0 120.89543 581.0 122.0L581.0 187.0C581.0 188.10457 580.10455 189.0 579.0 189.0Z" fill-rule="nonzero"/><path fill="#6aa84f" clip-path="url(#id_0)" d="M533.0 189.0L533.0 120.0L579.0 120.0C580.10455 120.0 581.0 120.89543 581.0 122.0L581.0 187.0C581.0 188.10457 580.10455 189.0 579.0 189.0Z" fill-rule="nonzero"/><path stroke="#000000" stroke-width="0.0" stroke-linecap="butt" stroke-opacity="0.0" clip-path="url(#id_0)" d="M560.0 295.0L560.0 226.0L579.0 226.0C580.10455 226.0 581.0 226.89543 581.0 228.0L581.0 293.0C581.0 294.10458 580.10455 295.0 579.0 295.0Z" fill-rule="nonzero"/><path fill="#6aa84f" clip-path="url(#id_0)" d="M560.0 295.0L560.0 226.0L579.0 226.0C580.10455 226.0 581.0 226.89543 581.0 228.0L581.0 293.0C581.0 294.10458 580.10455 295.0 579.0 295.0Z" fill-rule="nonzero"/><path fill="#000000" d="M26.846874 157.22748Q26.409374 157.85248 25.628124 158.16498Q24.846874 158.47748 23.815624 158.47748Q22.784374 158.47748 21.971874 157.9931Q21.159374 157.4931 20.721874 156.58685Q20.284374 155.6806 20.26875 154.4931L20.26875 153.75873Q20.26875 151.82123 21.159374 150.75873Q22.065624 149.69623 23.690624 149.69623Q25.034374 149.69623 25.846874 150.38373Q26.659374 151.07123 26.846874 152.32123L25.721874 152.32123Q25.39375 150.63373 23.70625 150.63373Q22.565624 150.63373 21.9875 151.4306Q21.409374 152.21185 21.39375 153.72748L21.39375 154.41498Q21.39375 155.85248 22.05 156.71185Q22.70625 157.5556 23.83125 157.5556Q24.45625 157.5556 24.925 157.41498Q25.409374 157.27435 25.721874 156.9306L25.721874 155.02435L23.753124 155.02435L23.753124 154.10248L26.846874 154.10248L26.846874 157.22748ZM29.55 158.35248L28.471874 158.35248L28.471874 149.35248L29.55 149.35248L29.55 158.35248ZM31.08125 155.1181Q31.08125 154.19623 31.440624 153.44623Q31.815624 152.69623 32.471874 152.3056Q33.128124 151.89935 33.95625 151.89935Q35.253124 151.89935 36.05 152.78998Q36.8625 153.6806 36.8625 155.1806L36.8625 155.25873Q36.8625 156.1806 36.503124 156.91498Q36.14375 157.64935 35.4875 158.07123Q34.83125 158.47748 33.971874 158.47748Q32.690624 158.47748 31.878124 157.58685Q31.08125 156.6806 31.08125 155.19623L31.08125 155.1181ZM32.175 155.25873Q32.175 156.3056 32.659374 156.94623Q33.159374 157.58685 33.971874 157.58685Q34.8 157.58685 35.284374 156.94623Q35.76875 156.28998 35.76875 155.1181Q35.76875 154.08685 35.26875 153.44623Q34.784374 152.78998 33.95625 152.78998Q33.159374 152.78998 32.659374 153.4306Q32.175 154.0556 32.175 155.25873ZM43.7375 155.25873Q43.7375 156.71185 43.065624 157.60248Q42.409374 158.47748 41.284374 158.47748Q40.08125 158.47748 39.425 157.6181L39.3625 158.35248L38.378124 158.35248L38.378124 149.35248L39.45625 149.35248L39.45625 152.71185Q40.1125 151.89935 41.26875 151.89935Q42.425 151.89935 43.08125 152.77435Q43.7375 153.63373 43.7375 155.16498L43.7375 155.25873ZM42.659374 155.13373Q42.659374 154.02435 42.221874 153.4306Q41.8 152.82123 41.003124 152.82123Q39.925 152.82123 39.45625 153.8056L39.45625 156.5556Q39.95625 157.5556 41.003124 157.5556Q41.784374 157.5556 42.221874 156.94623Q42.659374 156.33685 42.659374 155.13373ZM49.284374 158.35248Q49.190624 158.16498 49.128124 157.6806Q48.378124 158.47748 47.33125 158.47748Q46.39375 158.47748 45.784374 157.94623Q45.190624 157.41498 45.190624 156.58685Q45.190624 155.60248 45.940624 155.0556Q46.690624 154.50873 48.065624 154.50873L49.1125 154.50873L49.1125 154.00873Q49.1125 153.44623 48.76875 153.1181Q48.440624 152.77435 47.76875 152.77435Q47.190624 152.77435 46.8 153.07123Q46.409374 153.35248 46.409374 153.77435L45.315624 153.77435Q45.315624 153.28998 45.64375 152.85248Q45.9875 152.41498 46.565624 152.16498Q47.14375 151.89935 47.83125 151.89935Q48.940624 151.89935 49.55 152.44623Q50.175 152.9931 50.20625 153.94623L50.20625 156.8681Q50.20625 157.7431 50.425 158.25873L50.425 158.35248L49.284374 158.35248ZM47.4875 157.52435Q48.003124 157.52435 48.45625 157.25873Q48.909374 156.9931 49.1125 156.57123L49.1125 155.27435L48.26875 155.27435Q46.26875 155.27435 46.26875 156.44623Q46.26875 156.94623 46.6125 157.2431Q46.95625 157.52435 47.4875 157.52435ZM53.55 158.35248L52.471874 158.35248L52.471874 149.35248L53.55 149.35248L53.55 158.35248ZM65.09688 158.35248L63.971874 158.35248L59.675 151.77435L59.675 158.35248L58.534374 158.35248L58.534374 149.82123L59.675 149.82123L63.971874 156.4306L63.971874 149.82123L65.09688 149.82123L65.09688 158.35248ZM67.08125 155.1181Q67.08125 154.19623 67.44063 153.44623Q67.81563 152.69623 68.47188 152.3056Q69.12813 151.89935 69.95625 151.89935Q71.25313 151.89935 72.05 152.78998Q72.8625 153.6806 72.8625 155.1806L72.8625 155.25873Q72.8625 156.1806 72.50313 156.91498Q72.14375 157.64935 71.4875 158.07123Q70.83125 158.47748 69.97188 158.47748Q68.69063 158.47748 67.87813 157.58685Q67.08125 156.6806 67.08125 155.19623L67.08125 155.1181ZM68.175 155.25873Q68.175 156.3056 68.65938 156.94623Q69.15938 157.58685 69.97188 157.58685Q70.8 157.58685 71.28438 156.94623Q71.76875 156.28998 71.76875 155.1181Q71.76875 154.08685 71.26875 153.44623Q70.78438 152.78998 69.95625 152.78998Q69.15938 152.78998 68.65938 153.4306Q68.175 154.0556 68.175 155.25873ZM77.44063 152.97748Q77.19063 152.94623 76.90938 152.94623Q75.83125 152.94623 75.45625 153.85248L75.45625 158.35248L74.37813 158.35248L74.37813 152.00873L75.425 152.00873L75.44063 152.7431Q75.97188 151.89935 76.95625 151.89935Q77.26875 151.89935 77.44063 151.97748L77.44063 152.97748ZM79.84688 150.47748L79.84688 152.00873L81.01875 152.00873L81.01875 152.85248L79.84688 152.85248L79.84688 156.77435Q79.84688 157.16498 80.00313 157.35248Q80.15938 157.53998 80.53438 157.53998Q80.72188 157.53998 81.05 157.47748L81.05 158.35248Q80.62813 158.47748 80.22188 158.47748Q79.50313 158.47748 79.12813 158.03998Q78.75313 157.58685 78.75313 156.77435L78.75313 152.85248L77.59688 152.85248L77.59688 152.00873L78.75313 152.00873L78.75313 150.47748L79.84688 150.47748ZM83.45625 152.77435Q84.175 151.89935 85.33125 151.89935Q87.34688 151.89935 87.3625 154.16498L87.3625 158.35248L86.26875 158.35248L86.26875 154.14935Q86.26875 153.47748 85.95625 153.14935Q85.65938 152.82123 85.00313 152.82123Q84.47188 152.82123 84.06563 153.10248Q83.675 153.38373 83.45625 153.83685L83.45625 158.35248L82.37813 158.35248L82.37813 149.35248L83.45625 149.35248L83.45625 152.77435Z" fill-rule="nonzero"/><path fill="#000000" d="M25.846874 263.25586Q25.409374 263.88086 24.628124 264.19336Q23.846874 264.50586 22.815624 264.50586Q21.784374 264.50586 20.971874 264.02148Q20.159374 263.52148 19.721874 262.61523Q19.284374 261.70898 19.26875 260.52148L19.26875 259.7871Q19.26875 257.8496 20.159374 256.7871Q21.065624 255.72461 22.690624 255.72461Q24.034374 255.72461 24.846874 256.4121Q25.659374 257.0996 25.846874 258.3496L24.721874 258.3496Q24.39375 256.6621 22.70625 256.6621Q21.565624 256.6621 20.9875 257.45898Q20.409374 258.24023 20.39375 259.75586L20.39375 260.44336Q20.39375 261.88086 21.05 262.74023Q21.70625 263.58398 22.83125 263.58398Q23.45625 263.58398 23.925 263.44336Q24.409374 263.30273 24.721874 262.95898L24.721874 261.05273L22.753124 261.05273L22.753124 260.13086L25.846874 260.13086L25.846874 263.25586ZM28.55 264.38086L27.471874 264.38086L27.471874 255.38086L28.55 255.38086L28.55 264.38086ZM30.08125 261.14648Q30.08125 260.2246 30.440624 259.4746Q30.815624 258.7246 31.471874 258.33398Q32.128124 257.92773 32.95625 257.92773Q34.253124 257.92773 35.05 258.81836Q35.8625 259.70898 35.8625 261.20898L35.8625 261.2871Q35.8625 262.20898 35.503124 262.94336Q35.14375 263.67773 34.4875 264.0996Q33.83125 264.50586 32.971874 264.50586Q31.690624 264.50586 30.878124 263.61523Q30.08125 262.70898 30.08125 261.2246L30.08125 261.14648ZM31.175 261.2871Q31.175 262.33398 31.659374 262.9746Q32.159374 263.61523 32.971874 263.61523Q33.8 263.61523 34.284374 262.9746Q34.76875 262.31836 34.76875 261.14648Q34.76875 260.11523 34.26875 259.4746Q33.784374 258.81836 32.95625 258.81836Q32.159374 258.81836 31.659374 259.45898Q31.175 260.08398 31.175 261.2871ZM42.7375 261.2871Q42.7375 262.74023 42.065624 263.63086Q41.409374 264.50586 40.284374 264.50586Q39.08125 264.50586 38.425 263.64648L38.3625 264.38086L37.378124 264.38086L37.378124 255.38086L38.45625 255.38086L38.45625 258.74023Q39.1125 257.92773 40.26875 257.92773Q41.425 257.92773 42.08125 258.80273Q42.7375 259.6621 42.7375 261.19336L42.7375 261.2871ZM41.659374 261.1621Q41.659374 260.05273 41.221874 259.45898Q40.8 258.8496 40.003124 258.8496Q38.925 258.8496 38.45625 259.83398L38.45625 262.58398Q38.95625 263.58398 40.003124 263.58398Q40.784374 263.58398 41.221874 262.9746Q41.659374 262.36523 41.659374 261.1621ZM48.284374 264.38086Q48.190624 264.19336 48.128124 263.70898Q47.378124 264.50586 46.33125 264.50586Q45.39375 264.50586 44.784374 263.9746Q44.190624 263.44336 44.190624 262.61523Q44.190624 261.63086 44.940624 261.08398Q45.690624 260.5371 47.065624 260.5371L48.1125 260.5371L48.1125 260.0371Q48.1125 259.4746 47.76875 259.14648Q47.440624 258.80273 46.76875 258.80273Q46.190624 258.80273 45.8 259.0996Q45.409374 259.38086 45.409374 259.80273L44.315624 259.80273Q44.315624 259.31836 44.64375 258.88086Q44.9875 258.44336 45.565624 258.19336Q46.14375 257.92773 46.83125 257.92773Q47.940624 257.92773 48.55 258.4746Q49.175 259.02148 49.20625 259.9746L49.20625 262.89648Q49.20625 263.77148 49.425 264.2871L49.425 264.38086L48.284374 264.38086ZM46.4875 263.55273Q47.003124 263.55273 47.45625 263.2871Q47.909374 263.02148 48.1125 262.5996L48.1125 261.30273L47.26875 261.30273Q45.26875 261.30273 45.26875 262.4746Q45.26875 262.9746 45.6125 263.27148Q45.95625 263.55273 46.4875 263.55273ZM52.55 264.38086L51.471874 264.38086L51.471874 255.38086L52.55 255.38086L52.55 264.38086ZM60.05 260.58398Q58.6125 260.1621 57.940624 259.55273Q57.284374 258.94336 57.284374 258.05273Q57.284374 257.05273 58.08125 256.39648Q58.89375 255.72461 60.190624 255.72461Q61.065624 255.72461 61.753124 256.06836Q62.440624 256.4121 62.815624 257.00586Q63.20625 257.5996 63.20625 258.31836L62.065624 258.31836Q62.065624 257.5371 61.565624 257.0996Q61.08125 256.6621 60.190624 256.6621Q59.3625 256.6621 58.89375 257.0371Q58.425 257.39648 58.425 258.0371Q58.425 258.56836 58.8625 258.92773Q59.315624 259.2871 60.378124 259.58398Q61.440624 259.88086 62.034374 260.24023Q62.64375 260.5996 62.925 261.08398Q63.221874 261.56836 63.221874 262.20898Q63.221874 263.25586 62.409374 263.88086Q61.596874 264.50586 60.253124 264.50586Q59.3625 264.50586 58.596874 264.1621Q57.846874 263.81836 57.425 263.24023Q57.01875 262.64648 57.01875 261.9121L58.14375 261.9121Q58.14375 262.67773 58.721874 263.13086Q59.3 263.58398 60.253124 263.58398Q61.14375 263.58398 61.6125 263.2246Q62.08125 262.8496 62.08125 262.2246Q62.08125 261.5996 61.64375 261.25586Q61.20625 260.9121 60.05 260.58398ZM64.08125 261.14648Q64.08125 260.2246 64.44063 259.4746Q64.81563 258.7246 65.47188 258.33398Q66.12813 257.92773 66.95625 257.92773Q68.25313 257.92773 69.05 258.81836Q69.8625 259.70898 69.8625 261.20898L69.8625 261.2871Q69.8625 262.20898 69.50313 262.94336Q69.14375 263.67773 68.4875 264.0996Q67.83125 264.50586 66.97188 264.50586Q65.69063 264.50586 64.87813 263.61523Q64.08125 262.70898 64.08125 261.2246L64.08125 261.14648ZM65.175 261.2871Q65.175 262.33398 65.65938 262.9746Q66.15938 263.61523 66.97188 263.61523Q67.8 263.61523 68.28438 262.9746Q68.76875 262.31836 68.76875 261.14648Q68.76875 260.11523 68.26875 259.4746Q67.78438 258.81836 66.95625 258.81836Q66.15938 258.81836 65.65938 259.45898Q65.175 260.08398 65.175 261.2871ZM75.28438 263.75586Q74.65938 264.50586 73.425 264.50586Q72.40938 264.50586 71.87813 263.9121Q71.34688 263.31836 71.34688 262.1621L71.34688 258.0371L72.425 258.0371L72.425 262.13086Q72.425 263.58398 73.59688 263.58398Q74.84688 263.58398 75.25313 262.64648L75.25313 258.0371L76.34688 258.0371L76.34688 264.38086L75.31563 264.38086L75.28438 263.75586ZM79.84688 256.50586L79.84688 258.0371L81.01875 258.0371L81.01875 258.88086L79.84688 258.88086L79.84688 262.80273Q79.84688 263.19336 80.00313 263.38086Q80.15938 263.56836 80.53438 263.56836Q80.72188 263.56836 81.05 263.50586L81.05 264.38086Q80.62813 264.50586 80.22188 264.50586Q79.50313 264.50586 79.12813 264.06836Q78.75313 263.61523 78.75313 262.80273L78.75313 258.88086L77.59688 258.88086L77.59688 258.0371L78.75313 258.0371L78.75313 256.50586L79.84688 256.50586ZM83.45625 258.80273Q84.175 257.92773 85.33125 257.92773Q87.34688 257.92773 87.3625 260.19336L87.3625 264.38086L86.26875 264.38086L86.26875 260.17773Q86.26875 259.50586 85.95625 259.17773Q85.65938 258.8496 85.00313 258.8496Q84.47188 258.8496 84.06563 259.13086Q83.675 259.4121 83.45625 259.86523L83.45625 264.38086L82.37813 264.38086L82.37813 255.38086L83.45625 255.38086L83.45625 258.80273Z" fill-rule="nonzero"/><path fill="#000000" d="M92.6125 345.8094Q92.6125 347.71564 91.95625 348.65314Q91.31563 349.575 89.925 349.575Q88.56563 349.575 87.90938 348.66876Q87.25313 347.7625 87.22188 345.95L87.22188 344.5125Q87.22188 342.6219 87.8625 341.71564Q88.51875 340.79376 89.90938 340.79376Q91.28438 340.79376 91.94063 341.6844Q92.59688 342.5594 92.6125 344.40314L92.6125 345.8094ZM91.51875 344.325Q91.51875 342.95 91.12813 342.325Q90.75313 341.6844 89.90938 341.6844Q89.08125 341.6844 88.69063 342.325Q88.31563 342.95 88.31563 344.2469L88.31563 345.98126Q88.31563 347.35626 88.70625 348.02814Q89.1125 348.6844 89.925 348.6844Q90.72188 348.6844 91.1125 348.0594Q91.50313 347.4344 91.51875 346.10626L91.51875 344.325ZM94.15938 342.5594Q94.15938 341.79376 94.64375 341.29376Q95.14375 340.79376 95.90938 340.79376Q96.69063 340.79376 97.175 341.29376Q97.65938 341.79376 97.65938 342.59064L97.65938 343.0125Q97.65938 343.77814 97.15938 344.27814Q96.675 344.7625 95.925 344.7625Q95.15938 344.7625 94.65938 344.27814Q94.15938 343.77814 94.15938 342.96564L94.15938 342.5594ZM94.97188 343.0125Q94.97188 343.46564 95.22188 343.7625Q95.4875 344.0594 95.925 344.0594Q96.34688 344.0594 96.59688 343.77814Q96.84688 343.48126 96.84688 342.98126L96.84688 342.5594Q96.84688 342.10626 96.59688 341.8094Q96.34688 341.4969 95.90938 341.4969Q95.47188 341.4969 95.22188 341.8094Q94.97188 342.10626 94.97188 342.575L94.97188 343.0125ZM98.31563 347.35626Q98.31563 346.59064 98.8 346.10626Q99.3 345.60626 100.06563 345.60626Q100.83125 345.60626 101.31563 346.10626Q101.81563 346.59064 101.81563 347.40314L101.81563 347.8094Q101.81563 348.575 101.33125 349.075Q100.84688 349.575 100.08125 349.575Q99.31563 349.575 98.81563 349.09064Q98.31563 348.59064 98.31563 347.77814L98.31563 347.35626ZM99.12813 347.8094Q99.12813 348.27814 99.37813 348.575Q99.64375 348.8719 100.08125 348.8719Q100.50313 348.8719 100.75313 348.59064Q101.00313 348.29376 101.00313 347.79376L101.00313 347.35626Q101.00313 346.8875 100.7375 346.60626Q100.4875 346.3094 100.06563 346.3094Q99.64375 346.3094 99.37813 346.60626Q99.12813 346.8875 99.12813 347.3875L99.12813 347.8094ZM96.175 348.8094L95.55 348.41876L99.72188 341.7469L100.33125 342.1375L96.175 348.8094Z" fill-rule="nonzero"/><path fill="#000000" d="M211.07187 349.45L205.47812 349.45L205.47812 348.66876L208.43124 345.3875Q209.0875 344.6375 209.3375 344.1844Q209.5875 343.71564 209.5875 343.21564Q209.5875 342.54376 209.18124 342.1219Q208.79062 341.6844 208.10312 341.6844Q207.30624 341.6844 206.85312 342.15314Q206.4 342.60626 206.4 343.4344L205.32187 343.4344Q205.32187 342.2469 206.07187 341.52814Q206.8375 340.79376 208.10312 340.79376Q209.30624 340.79376 209.99374 341.41876Q210.68124 342.04376 210.68124 343.09064Q210.68124 344.34064 209.07187 346.09064L206.79062 348.5594L211.07187 348.5594L211.07187 349.45ZM212.97812 345.16876L213.41562 340.91876L217.79062 340.91876L217.79062 341.91876L214.3375 341.91876L214.07187 344.2469Q214.7125 343.8719 215.50937 343.8719Q216.66562 343.8719 217.35312 344.65314Q218.04062 345.41876 218.04062 346.73126Q218.04062 348.04376 217.32187 348.8094Q216.61874 349.575 215.3375 349.575Q214.2125 349.575 213.49374 348.95Q212.775 348.3094 212.68124 347.2L213.69687 347.2Q213.80624 347.9344 214.22812 348.3094Q214.65 348.6844 215.3375 348.6844Q216.0875 348.6844 216.525 348.16876Q216.9625 347.65314 216.9625 346.7469Q216.9625 345.8875 216.49374 345.3719Q216.025 344.85626 215.24374 344.85626Q214.54062 344.85626 214.13437 345.15314L213.85312 345.3875L212.97812 345.16876ZM219.38437 342.5594Q219.38437 341.79376 219.86874 341.29376Q220.36874 340.79376 221.13437 340.79376Q221.91562 340.79376 222.4 341.29376Q222.88437 341.79376 222.88437 342.59064L222.88437 343.0125Q222.88437 343.77814 222.38437 344.27814Q221.9 344.7625 221.15 344.7625Q220.38437 344.7625 219.88437 344.27814Q219.38437 343.77814 219.38437 342.96564L219.38437 342.5594ZM220.19687 343.0125Q220.19687 343.46564 220.44687 343.7625Q220.7125 344.0594 221.15 344.0594Q221.57187 344.0594 221.82187 343.77814Q222.07187 343.48126 222.07187 342.98126L222.07187 342.5594Q222.07187 342.10626 221.82187 341.8094Q221.57187 341.4969 221.13437 341.4969Q220.69687 341.4969 220.44687 341.8094Q220.19687 342.10626 220.19687 342.575L220.19687 343.0125ZM223.54062 347.35626Q223.54062 346.59064 224.025 346.10626Q224.525 345.60626 225.29062 345.60626Q226.05624 345.60626 226.54062 346.10626Q227.04062 346.59064 227.04062 347.40314L227.04062 347.8094Q227.04062 348.575 226.55624 349.075Q226.07187 349.575 225.30624 349.575Q224.54062 349.575 224.04062 349.09064Q223.54062 348.59064 223.54062 347.77814L223.54062 347.35626ZM224.35312 347.8094Q224.35312 348.27814 224.60312 348.575Q224.86874 348.8719 225.30624 348.8719Q225.72812 348.8719 225.97812 348.59064Q226.22812 348.29376 226.22812 347.79376L226.22812 347.35626Q226.22812 346.8875 225.9625 346.60626Q225.7125 346.3094 225.29062 346.3094Q224.86874 346.3094 224.60312 346.60626Q224.35312 346.8875 224.35312 347.3875L224.35312 347.8094ZM221.4 348.8094L220.775 348.41876L224.94687 341.7469L225.55624 342.1375L221.4 348.8094Z" fill-rule="nonzero"/><path fill="#000000" d="M327.70312 345.16876L328.14062 340.91876L332.51562 340.91876L332.51562 341.91876L329.0625 341.91876L328.79688 344.2469Q329.4375 343.8719 330.23438 343.8719Q331.39062 343.8719 332.07812 344.65314Q332.76562 345.41876 332.76562 346.73126Q332.76562 348.04376 332.04688 348.8094Q331.34375 349.575 330.0625 349.575Q328.9375 349.575 328.21875 348.95Q327.5 348.3094 327.40625 347.2L328.42188 347.2Q328.53125 347.9344 328.95312 348.3094Q329.375 348.6844 330.0625 348.6844Q330.8125 348.6844 331.25 348.16876Q331.6875 347.65314 331.6875 346.7469Q331.6875 345.8875 331.21875 345.3719Q330.75 344.85626 329.96875 344.85626Q329.26562 344.85626 328.85938 345.15314L328.57812 345.3875L327.70312 345.16876ZM339.5625 345.8094Q339.5625 347.71564 338.90625 348.65314Q338.26562 349.575 336.875 349.575Q335.51562 349.575 334.85938 348.66876Q334.20312 347.7625 334.17188 345.95L334.17188 344.5125Q334.17188 342.6219 334.8125 341.71564Q335.46875 340.79376 336.85938 340.79376Q338.23438 340.79376 338.89062 341.6844Q339.54688 342.5594 339.5625 344.40314L339.5625 345.8094ZM338.46875 344.325Q338.46875 342.95 338.07812 342.325Q337.70312 341.6844 336.85938 341.6844Q336.03125 341.6844 335.64062 342.325Q335.26562 342.95 335.26562 344.2469L335.26562 345.98126Q335.26562 347.35626 335.65625 348.02814Q336.0625 348.6844 336.875 348.6844Q337.67188 348.6844 338.0625 348.0594Q338.45312 347.4344 338.46875 346.10626L338.46875 344.325ZM341.10938 342.5594Q341.10938 341.79376 341.59375 341.29376Q342.09375 340.79376 342.85938 340.79376Q343.64062 340.79376 344.125 341.29376Q344.60938 341.79376 344.60938 342.59064L344.60938 343.0125Q344.60938 343.77814 344.10938 344.27814Q343.625 344.7625 342.875 344.7625Q342.10938 344.7625 341.60938 344.27814Q341.10938 343.77814 341.10938 342.96564L341.10938 342.5594ZM341.92188 343.0125Q341.92188 343.46564 342.17188 343.7625Q342.4375 344.0594 342.875 344.0594Q343.29688 344.0594 343.54688 343.77814Q343.79688 343.48126 343.79688 342.98126L343.79688 342.5594Q343.79688 342.10626 343.54688 341.8094Q343.29688 341.4969 342.85938 341.4969Q342.42188 341.4969 342.17188 341.8094Q341.92188 342.10626 341.92188 342.575L341.92188 343.0125ZM345.26562 347.35626Q345.26562 346.59064 345.75 346.10626Q346.25 345.60626 347.01562 345.60626Q347.78125 345.60626 348.26562 346.10626Q348.76562 346.59064 348.76562 347.40314L348.76562 347.8094Q348.76562 348.575 348.28125 349.075Q347.79688 349.575 347.03125 349.575Q346.26562 349.575 345.76562 349.09064Q345.26562 348.59064 345.26562 347.77814L345.26562 347.35626ZM346.07812 347.8094Q346.07812 348.27814 346.32812 348.575Q346.59375 348.8719 347.03125 348.8719Q347.45312 348.8719 347.70312 348.59064Q347.95312 348.29376 347.95312 347.79376L347.95312 347.35626Q347.95312 346.8875 347.6875 346.60626Q347.4375 346.3094 347.01562 346.3094Q346.59375 346.3094 346.32812 346.60626Q346.07812 346.8875 346.07812 347.3875L346.07812 347.8094ZM343.125 348.8094L342.5 348.41876L346.67188 341.7469L347.28125 342.1375L343.125 348.8094Z" fill-rule="nonzero"/><path fill="#000000" d="M454.44376 341.52814L450.9125 349.45L449.77188 349.45L453.2875 341.8094L448.67813 341.8094L448.67813 340.91876L454.44376 340.91876L454.44376 341.52814ZM456.42813 345.16876L456.86563 340.91876L461.24063 340.91876L461.24063 341.91876L457.7875 341.91876L457.52188 344.2469Q458.1625 343.8719 458.95938 343.8719Q460.11563 343.8719 460.80313 344.65314Q461.49063 345.41876 461.49063 346.73126Q461.49063 348.04376 460.77188 348.8094Q460.06876 349.575 458.7875 349.575Q457.6625 349.575 456.94376 348.95Q456.225 348.3094 456.13126 347.2L457.14688 347.2Q457.25626 347.9344 457.67813 348.3094Q458.1 348.6844 458.7875 348.6844Q459.5375 348.6844 459.975 348.16876Q460.4125 347.65314 460.4125 346.7469Q460.4125 345.8875 459.94376 345.3719Q459.475 344.85626 458.69376 344.85626Q457.99063 344.85626 457.58438 345.15314L457.30313 345.3875L456.42813 345.16876ZM462.83438 342.5594Q462.83438 341.79376 463.31876 341.29376Q463.81876 340.79376 464.58438 340.79376Q465.36563 340.79376 465.85 341.29376Q466.33438 341.79376 466.33438 342.59064L466.33438 343.0125Q466.33438 343.77814 465.83438 344.27814Q465.35 344.7625 464.6 344.7625Q463.83438 344.7625 463.33438 344.27814Q462.83438 343.77814 462.83438 342.96564L462.83438 342.5594ZM463.64688 343.0125Q463.64688 343.46564 463.89688 343.7625Q464.1625 344.0594 464.6 344.0594Q465.02188 344.0594 465.27188 343.77814Q465.52188 343.48126 465.52188 342.98126L465.52188 342.5594Q465.52188 342.10626 465.27188 341.8094Q465.02188 341.4969 464.58438 341.4969Q464.14688 341.4969 463.89688 341.8094Q463.64688 342.10626 463.64688 342.575L463.64688 343.0125ZM466.99063 347.35626Q466.99063 346.59064 467.475 346.10626Q467.975 345.60626 468.74063 345.60626Q469.50626 345.60626 469.99063 346.10626Q470.49063 346.59064 470.49063 347.40314L470.49063 347.8094Q470.49063 348.575 470.00626 349.075Q469.52188 349.575 468.75626 349.575Q467.99063 349.575 467.49063 349.09064Q466.99063 348.59064 466.99063 347.77814L466.99063 347.35626ZM467.80313 347.8094Q467.80313 348.27814 468.05313 348.575Q468.31876 348.8719 468.75626 348.8719Q469.17813 348.8719 469.42813 348.59064Q469.67813 348.29376 469.67813 347.79376L469.67813 347.35626Q469.67813 346.8875 469.4125 346.60626Q469.1625 346.3094 468.74063 346.3094Q468.31876 346.3094 468.05313 346.60626Q467.80313 346.8875 467.80313 347.3875L467.80313 347.8094ZM464.85 348.8094L464.225 348.41876L468.39688 341.7469L469.00626 342.1375L464.85 348.8094Z" fill-rule="nonzero"/><path fill="#000000" d="M570.71564 349.45L569.6375 349.45L569.6375 342.23126L567.45 343.02814L567.45 342.04376L570.5594 340.8719L570.71564 340.8719L570.71564 349.45ZM579.5125 345.8094Q579.5125 347.71564 578.85626 348.65314Q578.21564 349.575 576.825 349.575Q575.46564 349.575 574.8094 348.66876Q574.15314 347.7625 574.1219 345.95L574.1219 344.5125Q574.1219 342.6219 574.7625 341.71564Q575.41876 340.79376 576.8094 340.79376Q578.1844 340.79376 578.84064 341.6844Q579.4969 342.5594 579.5125 344.40314L579.5125 345.8094ZM578.41876 344.325Q578.41876 342.95 578.02814 342.325Q577.65314 341.6844 576.8094 341.6844Q575.98126 341.6844 575.59064 342.325Q575.21564 342.95 575.21564 344.2469L575.21564 345.98126Q575.21564 347.35626 575.60626 348.02814Q576.0125 348.6844 576.825 348.6844Q577.6219 348.6844 578.0125 348.0594Q578.40314 347.4344 578.41876 346.10626L578.41876 344.325ZM586.5125 345.8094Q586.5125 347.71564 585.85626 348.65314Q585.21564 349.575 583.825 349.575Q582.46564 349.575 581.8094 348.66876Q581.15314 347.7625 581.1219 345.95L581.1219 344.5125Q581.1219 342.6219 581.7625 341.71564Q582.41876 340.79376 583.8094 340.79376Q585.1844 340.79376 585.84064 341.6844Q586.4969 342.5594 586.5125 344.40314L586.5125 345.8094ZM585.41876 344.325Q585.41876 342.95 585.02814 342.325Q584.65314 341.6844 583.8094 341.6844Q582.98126 341.6844 582.59064 342.325Q582.21564 342.95 582.21564 344.2469L582.21564 345.98126Q582.21564 347.35626 582.60626 348.02814Q583.0125 348.6844 583.825 348.6844Q584.6219 348.6844 585.0125 348.0594Q585.40314 347.4344 585.41876 346.10626L585.41876 344.325ZM588.0594 342.5594Q588.0594 341.79376 588.54376 341.29376Q589.04376 340.79376 589.8094 340.79376Q590.59064 340.79376 591.075 341.29376Q591.5594 341.79376 591.5594 342.59064L591.5594 343.0125Q591.5594 343.77814 591.0594 344.27814Q590.575 344.7625 589.825 344.7625Q589.0594 344.7625 588.5594 344.27814Q588.0594 343.77814 588.0594 342.96564L588.0594 342.5594ZM588.8719 343.0125Q588.8719 343.46564 589.1219 343.7625Q589.3875 344.0594 589.825 344.0594Q590.2469 344.0594 590.4969 343.77814Q590.7469 343.48126 590.7469 342.98126L590.7469 342.5594Q590.7469 342.10626 590.4969 341.8094Q590.2469 341.4969 589.8094 341.4969Q589.3719 341.4969 589.1219 341.8094Q588.8719 342.10626 588.8719 342.575L588.8719 343.0125ZM592.21564 347.35626Q592.21564 346.59064 592.7 346.10626Q593.2 345.60626 593.96564 345.60626Q594.73126 345.60626 595.21564 346.10626Q595.71564 346.59064 595.71564 347.40314L595.71564 347.8094Q595.71564 348.575 595.23126 349.075Q594.7469 349.575 593.98126 349.575Q593.21564 349.575 592.71564 349.09064Q592.21564 348.59064 592.21564 347.77814L592.21564 347.35626ZM593.02814 347.8094Q593.02814 348.27814 593.27814 348.575Q593.54376 348.8719 593.98126 348.8719Q594.40314 348.8719 594.65314 348.59064Q594.90314 348.29376 594.90314 347.79376L594.90314 347.35626Q594.90314 346.8875 594.6375 346.60626Q594.3875 346.3094 593.96564 346.3094Q593.54376 346.3094 593.27814 346.60626Q593.02814 346.8875 593.02814 347.3875L593.02814 347.8094ZM590.075 348.8094L589.45 348.41876L593.6219 341.7469L594.23126 342.1375L590.075 348.8094Z" fill-rule="nonzero"/><path fill="#f1c232" d="M24.0 57.416668C24.0 56.864384 24.447716 56.416668 25.0 56.416668L35.0 56.416668C35.552284 56.416668 36.0 56.864384 36.0 57.416668L36.0 67.416664C36.0 67.96895 35.552284 68.416664 35.0 68.416664L25.0 68.416664C24.447716 68.416664 24.0 67.96895 24.0 67.416664Z" fill-rule="nonzero"/><path fill="#000000" d="M47.8125 65.416664L50.25 58.385414L51.484375 58.385414L48.3125 66.916664L47.328125 66.916664L44.171875 58.385414L45.390625 58.385414L47.8125 65.416664ZM55.453125 67.041664Q54.15625 67.041664 53.34375 66.197914Q52.546875 65.33854 52.546875 63.916664L52.546875 63.729164Q52.546875 62.77604 52.90625 62.041664Q53.265625 61.291664 53.90625 60.885414Q54.5625 60.46354 55.3125 60.46354Q56.546875 60.46354 57.234375 61.27604Q57.921875 62.08854 57.921875 63.604164L57.921875 64.05729L53.625 64.05729Q53.65625 64.99479 54.171875 65.572914Q54.703125 66.15104 55.515625 66.15104Q56.078125 66.15104 56.46875 65.916664Q56.875 65.68229 57.1875 65.291664L57.84375 65.80729Q57.046875 67.041664 55.453125 67.041664ZM55.3125 61.354164Q54.65625 61.354164 54.203125 61.83854Q53.765625 62.30729 53.671875 63.166664L56.84375 63.166664L56.84375 63.08854Q56.796875 62.260414 56.390625 61.80729Q56.0 61.354164 55.3125 61.354164ZM61.890625 61.541664Q61.640625 61.510414 61.359375 61.510414Q60.28125 61.510414 59.90625 62.416664L59.90625 66.916664L58.828125 66.916664L58.828125 60.572914L59.875 60.572914L59.890625 61.30729Q60.421875 60.46354 61.40625 60.46354Q61.71875 60.46354 61.890625 60.541664L61.890625 61.541664ZM64.890625 65.322914L66.375 60.572914L67.53125 60.572914L64.984375 67.90104Q64.390625 69.479164 63.109375 69.479164L62.890625 69.46354L62.5 69.385414L62.5 68.510414L62.78125 68.52604Q63.34375 68.52604 63.640625 68.30729Q63.953125 68.08854 64.15625 67.49479L64.390625 66.83854L62.125 60.572914L63.3125 60.572914L64.890625 65.322914ZM75.734375 66.291664Q75.109375 67.041664 73.875 67.041664Q72.859375 67.041664 72.328125 66.447914Q71.796875 65.854164 71.796875 64.697914L71.796875 60.572914L72.875 60.572914L72.875 64.666664Q72.875 66.11979 74.046875 66.11979Q75.296875 66.11979 75.703125 65.18229L75.703125 60.572914L76.796875 60.572914L76.796875 66.916664L75.765625 66.916664L75.734375 66.291664ZM79.84375 60.572914L79.875 61.36979Q80.609375 60.46354 81.78125 60.46354Q83.796875 60.46354 83.8125 62.729164L83.8125 66.916664L82.71875 66.916664L82.71875 62.71354Q82.71875 62.041664 82.40625 61.71354Q82.109375 61.385414 81.453125 61.385414Q80.921875 61.385414 80.515625 61.666664Q80.125 61.947914 79.90625 62.40104L79.90625 66.916664L78.828125 66.916664L78.828125 60.572914L79.84375 60.572914ZM88.359375 66.15104Q88.9375 66.15104 89.375 65.80729Q89.8125 65.447914 89.859375 64.916664L90.890625 64.916664Q90.859375 65.46354 90.5 65.96354Q90.15625 66.447914 89.578125 66.74479Q89.015625 67.041664 88.359375 67.041664Q87.0625 67.041664 86.296875 66.18229Q85.546875 65.30729 85.546875 63.80729L85.546875 63.61979Q85.546875 62.697914 85.875 61.979164Q86.21875 61.260414 86.84375 60.86979Q87.484375 60.46354 88.359375 60.46354Q89.421875 60.46354 90.125 61.104164Q90.84375 61.729164 90.890625 62.760414L89.859375 62.760414Q89.8125 62.135414 89.390625 61.74479Q88.96875 61.354164 88.359375 61.354164Q87.53125 61.354164 87.078125 61.947914Q86.625 62.541664 86.625 63.666664L86.625 63.86979Q86.625 64.96354 87.078125 65.55729Q87.53125 66.15104 88.359375 66.15104ZM91.53125 63.68229Q91.53125 62.760414 91.890625 62.010414Q92.265625 61.260414 92.921875 60.86979Q93.578125 60.46354 94.40625 60.46354Q95.703125 60.46354 96.5 61.354164Q97.3125 62.24479 97.3125 63.74479L97.3125 63.822914Q97.3125 64.74479 96.953125 65.479164Q96.59375 66.21354 95.9375 66.635414Q95.28125 67.041664 94.421875 67.041664Q93.140625 67.041664 92.328125 66.15104Q91.53125 65.24479 91.53125 63.760414L91.53125 63.68229ZM92.625 63.822914Q92.625 64.86979 93.109375 65.510414Q93.609375 66.15104 94.421875 66.15104Q95.25 66.15104 95.734375 65.510414Q96.21875 64.854164 96.21875 63.68229Q96.21875 62.65104 95.71875 62.010414Q95.234375 61.354164 94.40625 61.354164Q93.609375 61.354164 93.109375 61.99479Q92.625 62.61979 92.625 63.822914ZM99.84375 60.572914L99.875 61.27604Q100.5625 60.46354 101.75 60.46354Q103.078125 60.46354 103.5625 61.479164Q103.875 61.02604 104.375 60.74479Q104.890625 60.46354 105.578125 60.46354Q107.671875 60.46354 107.703125 62.666664L107.703125 66.916664L106.625 66.916664L106.625 62.729164Q106.625 62.05729 106.3125 61.729164Q106.0 61.385414 105.265625 61.385414Q104.65625 61.385414 104.25 61.74479Q103.859375 62.104164 103.796875 62.71354L103.796875 66.916664L102.71875 66.916664L102.71875 62.760414Q102.71875 61.385414 101.359375 61.385414Q100.296875 61.385414 99.90625 62.291664L99.90625 66.916664L98.8125 66.916664L98.8125 60.572914L99.84375 60.572914ZM110.359375 66.916664L110.359375 61.416664L109.359375 61.416664L109.359375 60.572914L110.359375 60.572914L110.359375 59.93229Q110.359375 58.90104 110.890625 58.354164Q111.4375 57.791664 112.4375 57.791664Q112.8125 57.791664 113.1875 57.885414L113.125 58.77604Q112.84375 58.71354 112.546875 58.71354Q112.015625 58.71354 111.71875 59.02604Q111.4375 59.33854 111.4375 59.90104L111.4375 60.572914L112.796875 60.572914L112.796875 61.416664L111.4375 61.416664L111.4375 66.916664L110.359375 66.916664ZM113.53125 63.68229Q113.53125 62.760414 113.890625 62.010414Q114.265625 61.260414 114.921875 60.86979Q115.578125 60.46354 116.40625 60.46354Q117.703125 60.46354 118.5 61.354164Q119.3125 62.24479 119.3125 63.74479L119.3125 63.822914Q119.3125 64.74479 118.953125 65.479164Q118.59375 66.21354 117.9375 66.635414Q117.28125 67.041664 116.421875 67.041664Q115.140625 67.041664 114.328125 66.15104Q113.53125 65.24479 113.53125 63.760414L113.53125 63.68229ZM114.625 63.822914Q114.625 64.86979 115.109375 65.510414Q115.609375 66.15104 116.421875 66.15104Q117.25 66.15104 117.734375 65.510414Q118.21875 64.854164 118.21875 63.68229Q118.21875 62.65104 117.71875 62.010414Q117.234375 61.354164 116.40625 61.354164Q115.609375 61.354164 115.109375 61.99479Q114.625 62.61979 114.625 63.822914ZM123.890625 61.541664Q123.640625 61.510414 123.359375 61.510414Q122.28125 61.510414 121.90625 62.416664L121.90625 66.916664L120.828125 66.916664L120.828125 60.572914L121.875 60.572914L121.890625 61.30729Q122.421875 60.46354 123.40625 60.46354Q123.71875 60.46354 123.890625 60.541664L123.890625 61.541664ZM126.296875 59.041664L126.296875 60.572914L127.46875 60.572914L127.46875 61.416664L126.296875 61.416664L126.296875 65.33854Q126.296875 65.729164 126.453125 65.916664Q126.609375 66.104164 126.984375 66.104164Q127.171875 66.104164 127.5 66.041664L127.5 66.916664Q127.078125 67.041664 126.671875 67.041664Q125.953125 67.041664 125.578125 66.604164Q125.203125 66.15104 125.203125 65.33854L125.203125 61.416664L124.046875 61.416664L124.046875 60.572914L125.203125 60.572914L125.203125 59.041664L126.296875 59.041664ZM132.73438 66.916664Q132.64062 66.729164 132.57812 66.24479Q131.82812 67.041664 130.78125 67.041664Q129.84375 67.041664 129.23438 66.510414Q128.64062 65.979164 128.64062 65.15104Q128.64062 64.166664 129.39062 63.61979Q130.14062 63.072914 131.51562 63.072914L132.5625 63.072914L132.5625 62.572914Q132.5625 62.010414 132.21875 61.68229Q131.89062 61.33854 131.21875 61.33854Q130.64062 61.33854 130.25 61.635414Q129.85938 61.916664 129.85938 62.33854L128.76562 62.33854Q128.76562 61.854164 129.09375 61.416664Q129.4375 60.979164 130.01562 60.729164Q130.59375 60.46354 131.28125 60.46354Q132.39062 60.46354 133.0 61.010414Q133.625 61.55729 133.65625 62.510414L133.65625 65.43229Q133.65625 66.30729 133.875 66.822914L133.875 66.916664L132.73438 66.916664ZM130.9375 66.08854Q131.45312 66.08854 131.90625 65.822914Q132.35938 65.55729 132.5625 65.135414L132.5625 63.83854L131.71875 63.83854Q129.71875 63.83854 129.71875 65.010414Q129.71875 65.510414 130.0625 65.80729Q130.40625 66.08854 130.9375 66.08854ZM141.1875 63.822914Q141.1875 65.27604 140.51562 66.166664Q139.85938 67.041664 138.73438 67.041664Q137.53125 67.041664 136.875 66.18229L136.8125 66.916664L135.82812 66.916664L135.82812 57.916664L136.90625 57.916664L136.90625 61.27604Q137.5625 60.46354 138.71875 60.46354Q139.875 60.46354 140.53125 61.33854Q141.1875 62.197914 141.1875 63.729164L141.1875 63.822914ZM140.10938 63.697914Q140.10938 62.58854 139.67188 61.99479Q139.25 61.385414 138.45312 61.385414Q137.375 61.385414 136.90625 62.36979L136.90625 65.11979Q137.40625 66.11979 138.45312 66.11979Q139.23438 66.11979 139.67188 65.510414Q140.10938 64.90104 140.10938 63.697914ZM144.0 66.916664L142.92188 66.916664L142.92188 57.916664L144.0 57.916664L144.0 66.916664ZM148.45312 67.041664Q147.15625 67.041664 146.34375 66.197914Q145.54688 65.33854 145.54688 63.916664L145.54688 63.729164Q145.54688 62.77604 145.90625 62.041664Q146.26562 61.291664 146.90625 60.885414Q147.5625 60.46354 148.3125 60.46354Q149.54688 60.46354 150.23438 61.27604Q150.92188 62.08854 150.92188 63.604164L150.92188 64.05729L146.625 64.05729Q146.65625 64.99479 147.17188 65.572914Q147.70312 66.15104 148.51562 66.15104Q149.07812 66.15104 149.46875 65.916664Q149.875 65.68229 150.1875 65.291664L150.84375 65.80729Q150.04688 67.041664 148.45312 67.041664ZM148.3125 61.354164Q147.65625 61.354164 147.20312 61.83854Q146.76562 62.30729 146.67188 63.166664L149.84375 63.166664L149.84375 63.08854Q149.79688 62.260414 149.39062 61.80729Q149.0 61.354164 148.3125 61.354164Z" fill-rule="nonzero"/><path fill="#ffe599" d="M167.0 57.416668C167.0 56.864384 167.44771 56.416668 168.0 56.416668L178.0 56.416668C178.55229 56.416668 179.0 56.864384 179.0 57.416668L179.0 67.416664C179.0 67.96895 178.55229 68.416664 178.0 68.416664L168.0 68.416664C167.44771 68.416664 167.0 67.96895 167.0 67.416664Z" fill-rule="nonzero"/><path fill="#000000" d="M194.0 58.385414L194.0 64.18229Q193.98438 65.385414 193.23438 66.166664Q192.48438 66.93229 191.20312 67.02604L190.89062 67.041664Q189.5 67.041664 188.65625 66.291664Q187.82812 65.52604 187.82812 64.197914L187.82812 58.385414L188.9375 58.385414L188.9375 64.166664Q188.9375 65.08854 189.4375 65.604164Q189.95312 66.11979 190.89062 66.11979Q191.85938 66.11979 192.35938 65.604164Q192.85938 65.08854 192.85938 64.166664L192.85938 58.385414L194.0 58.385414ZM196.84375 60.572914L196.875 61.36979Q197.60938 60.46354 198.78125 60.46354Q200.79688 60.46354 200.8125 62.729164L200.8125 66.916664L199.71875 66.916664L199.71875 62.71354Q199.71875 62.041664 199.40625 61.71354Q199.10938 61.385414 198.45312 61.385414Q197.92188 61.385414 197.51562 61.666664Q197.125 61.947914 196.90625 62.40104L196.90625 66.916664L195.82812 66.916664L195.82812 60.572914L196.84375 60.572914ZM205.35938 66.15104Q205.9375 66.15104 206.375 65.80729Q206.8125 65.447914 206.85938 64.916664L207.89062 64.916664Q207.85938 65.46354 207.5 65.96354Q207.15625 66.447914 206.57812 66.74479Q206.01562 67.041664 205.35938 67.041664Q204.0625 67.041664 203.29688 66.18229Q202.54688 65.30729 202.54688 63.80729L202.54688 63.61979Q202.54688 62.697914 202.875 61.979164Q203.21875 61.260414 203.84375 60.86979Q204.48438 60.46354 205.35938 60.46354Q206.42188 60.46354 207.125 61.104164Q207.84375 61.729164 207.89062 62.760414L206.85938 62.760414Q206.8125 62.135414 206.39062 61.74479Q205.96875 61.354164 205.35938 61.354164Q204.53125 61.354164 204.07812 61.947914Q203.625 62.541664 203.625 63.666664L203.625 63.86979Q203.625 64.96354 204.07812 65.55729Q204.53125 66.15104 205.35938 66.15104ZM208.53125 63.68229Q208.53125 62.760414 208.89062 62.010414Q209.26562 61.260414 209.92188 60.86979Q210.57812 60.46354 211.40625 60.46354Q212.70312 60.46354 213.5 61.354164Q214.3125 62.24479 214.3125 63.74479L214.3125 63.822914Q214.3125 64.74479 213.95312 65.479164Q213.59375 66.21354 212.9375 66.635414Q212.28125 67.041664 211.42188 67.041664Q210.14062 67.041664 209.32812 66.15104Q208.53125 65.24479 208.53125 63.760414L208.53125 63.68229ZM209.625 63.822914Q209.625 64.86979 210.10938 65.510414Q210.60938 66.15104 211.42188 66.15104Q212.25 66.15104 212.73438 65.510414Q213.21875 64.854164 213.21875 63.68229Q213.21875 62.65104 212.71875 62.010414Q212.23438 61.354164 211.40625 61.354164Q210.60938 61.354164 210.10938 61.99479Q209.625 62.61979 209.625 63.822914ZM216.84375 60.572914L216.875 61.27604Q217.5625 60.46354 218.75 60.46354Q220.07812 60.46354 220.5625 61.479164Q220.875 61.02604 221.375 60.74479Q221.89062 60.46354 222.57812 60.46354Q224.67188 60.46354 224.70312 62.666664L224.70312 66.916664L223.625 66.916664L223.625 62.729164Q223.625 62.05729 223.3125 61.729164Q223.0 61.385414 222.26562 61.385414Q221.65625 61.385414 221.25 61.74479Q220.85938 62.104164 220.79688 62.71354L220.79688 66.916664L219.71875 66.916664L219.71875 62.760414Q219.71875 61.385414 218.35938 61.385414Q217.29688 61.385414 216.90625 62.291664L216.90625 66.916664L215.8125 66.916664L215.8125 60.572914L216.84375 60.572914ZM227.35938 66.916664L227.35938 61.416664L226.35938 61.416664L226.35938 60.572914L227.35938 60.572914L227.35938 59.93229Q227.35938 58.90104 227.89062 58.354164Q228.4375 57.791664 229.4375 57.791664Q229.8125 57.791664 230.1875 57.885414L230.125 58.77604Q229.84375 58.71354 229.54688 58.71354Q229.01562 58.71354 228.71875 59.02604Q228.4375 59.33854 228.4375 59.90104L228.4375 60.572914L229.79688 60.572914L229.79688 61.416664L228.4375 61.416664L228.4375 66.916664L227.35938 66.916664ZM230.53125 63.68229Q230.53125 62.760414 230.89062 62.010414Q231.26562 61.260414 231.92188 60.86979Q232.57812 60.46354 233.40625 60.46354Q234.70312 60.46354 235.5 61.354164Q236.3125 62.24479 236.3125 63.74479L236.3125 63.822914Q236.3125 64.74479 235.95312 65.479164Q235.59375 66.21354 234.9375 66.635414Q234.28125 67.041664 233.42188 67.041664Q232.14062 67.041664 231.32812 66.15104Q230.53125 65.24479 230.53125 63.760414L230.53125 63.68229ZM231.625 63.822914Q231.625 64.86979 232.10938 65.510414Q232.60938 66.15104 233.42188 66.15104Q234.25 66.15104 234.73438 65.510414Q235.21875 64.854164 235.21875 63.68229Q235.21875 62.65104 234.71875 62.010414Q234.23438 61.354164 233.40625 61.354164Q232.60938 61.354164 232.10938 61.99479Q231.625 62.61979 231.625 63.822914ZM240.89062 61.541664Q240.64062 61.510414 240.35938 61.510414Q239.28125 61.510414 238.90625 62.416664L238.90625 66.916664L237.82812 66.916664L237.82812 60.572914L238.875 60.572914L238.89062 61.30729Q239.42188 60.46354 240.40625 60.46354Q240.71875 60.46354 240.89062 60.541664L240.89062 61.541664ZM243.29688 59.041664L243.29688 60.572914L244.46875 60.572914L244.46875 61.416664L243.29688 61.416664L243.29688 65.33854Q243.29688 65.729164 243.45312 65.916664Q243.60938 66.104164 243.98438 66.104164Q244.17188 66.104164 244.5 66.041664L244.5 66.916664Q244.07812 67.041664 243.67188 67.041664Q242.95312 67.041664 242.57812 66.604164Q242.20312 66.15104 242.20312 65.33854L242.20312 61.416664L241.04688 61.416664L241.04688 60.572914L242.20312 60.572914L242.20312 59.041664L243.29688 59.041664ZM249.73438 66.916664Q249.64062 66.729164 249.57812 66.24479Q248.82812 67.041664 247.78125 67.041664Q246.84375 67.041664 246.23438 66.510414Q245.64062 65.979164 245.64062 65.15104Q245.64062 64.166664 246.39062 63.61979Q247.14062 63.072914 248.51562 63.072914L249.5625 63.072914L249.5625 62.572914Q249.5625 62.010414 249.21875 61.68229Q248.89062 61.33854 248.21875 61.33854Q247.64062 61.33854 247.25 61.635414Q246.85938 61.916664 246.85938 62.33854L245.76562 62.33854Q245.76562 61.854164 246.09375 61.416664Q246.4375 60.979164 247.01562 60.729164Q247.59375 60.46354 248.28125 60.46354Q249.39062 60.46354 250.0 61.010414Q250.625 61.55729 250.65625 62.510414L250.65625 65.43229Q250.65625 66.30729 250.875 66.822914L250.875 66.916664L249.73438 66.916664ZM247.9375 66.08854Q248.45312 66.08854 248.90625 65.822914Q249.35938 65.55729 249.5625 65.135414L249.5625 63.83854L248.71875 63.83854Q246.71875 63.83854 246.71875 65.010414Q246.71875 65.510414 247.0625 65.80729Q247.40625 66.08854 247.9375 66.08854ZM258.1875 63.822914Q258.1875 65.27604 257.51562 66.166664Q256.85938 67.041664 255.73438 67.041664Q254.53125 67.041664 253.875 66.18229L253.8125 66.916664L252.82812 66.916664L252.82812 57.916664L253.90625 57.916664L253.90625 61.27604Q254.5625 60.46354 255.71875 60.46354Q256.875 60.46354 257.53125 61.33854Q258.1875 62.197914 258.1875 63.729164L258.1875 63.822914ZM257.10938 63.697914Q257.10938 62.58854 256.67188 61.99479Q256.25 61.385414 255.45312 61.385414Q254.375 61.385414 253.90625 62.36979L253.90625 65.11979Q254.40625 66.11979 255.45312 66.11979Q256.23438 66.11979 256.67188 65.510414Q257.10938 64.90104 257.10938 63.697914ZM261.0 66.916664L259.92188 66.916664L259.92188 57.916664L261.0 57.916664L261.0 66.916664ZM265.45312 67.041664Q264.15625 67.041664 263.34375 66.197914Q262.54688 65.33854 262.54688 63.916664L262.54688 63.729164Q262.54688 62.77604 262.90625 62.041664Q263.26562 61.291664 263.90625 60.885414Q264.5625 60.46354 265.3125 60.46354Q266.54688 60.46354 267.23438 61.27604Q267.92188 62.08854 267.92188 63.604164L267.92188 64.05729L263.625 64.05729Q263.65625 64.99479 264.17188 65.572914Q264.70312 66.15104 265.51562 66.15104Q266.07812 66.15104 266.46875 65.916664Q266.875 65.68229 267.1875 65.291664L267.84375 65.80729Q267.04688 67.041664 265.45312 67.041664ZM265.3125 61.354164Q264.65625 61.354164 264.20312 61.83854Q263.76562 62.30729 263.67188 63.166664L266.84375 63.166664L266.84375 63.08854Q266.79688 62.260414 266.39062 61.80729Q266.0 61.354164 265.3125 61.354164Z" fill-rule="nonzero"/><path fill="#f3f3f3" d="M284.0 57.416668C284.0 56.864384 284.44772 56.416668 285.0 56.416668L295.0 56.416668C295.55228 56.416668 296.0 56.864384 296.0 57.416668L296.0 67.416664C296.0 67.96895 295.55228 68.416664 295.0 68.416664L285.0 68.416664C284.44772 68.416664 284.0 67.96895 284.0 67.416664Z" fill-rule="nonzero"/><path fill="#000000" d="M311.54688 66.916664L310.42188 66.916664L306.125 60.33854L306.125 66.916664L304.98438 66.916664L304.98438 58.385414L306.125 58.385414L310.42188 64.99479L310.42188 58.385414L311.54688 58.385414L311.54688 66.916664ZM316.45312 67.041664Q315.15625 67.041664 314.34375 66.197914Q313.54688 65.33854 313.54688 63.916664L313.54688 63.729164Q313.54688 62.77604 313.90625 62.041664Q314.26562 61.291664 314.90625 60.885414Q315.5625 60.46354 316.3125 60.46354Q317.54688 60.46354 318.23438 61.27604Q318.92188 62.08854 318.92188 63.604164L318.92188 64.05729L314.625 64.05729Q314.65625 64.99479 315.17188 65.572914Q315.70312 66.15104 316.51562 66.15104Q317.07812 66.15104 317.46875 65.916664Q317.875 65.68229 318.1875 65.291664L318.84375 65.80729Q318.04688 67.041664 316.45312 67.041664ZM316.3125 61.354164Q315.65625 61.354164 315.20312 61.83854Q314.76562 62.30729 314.67188 63.166664L317.84375 63.166664L317.84375 63.08854Q317.79688 62.260414 317.39062 61.80729Q317.0 61.354164 316.3125 61.354164ZM321.0 66.916664L319.92188 66.916664L319.92188 60.572914L321.0 60.572914L321.0 66.916664ZM319.82812 58.90104Q319.82812 58.635414 319.98438 58.447914Q320.15625 58.260414 320.46875 58.260414Q320.78125 58.260414 320.9375 58.447914Q321.10938 58.635414 321.10938 58.90104Q321.10938 59.15104 320.9375 59.33854Q320.78125 59.510414 320.46875 59.510414Q320.15625 59.510414 319.98438 59.33854Q319.82812 59.15104 319.82812 58.90104ZM324.29688 59.041664L324.29688 60.572914L325.46875 60.572914L325.46875 61.416664L324.29688 61.416664L324.29688 65.33854Q324.29688 65.729164 324.45312 65.916664Q324.60938 66.104164 324.98438 66.104164Q325.17188 66.104164 325.5 66.041664L325.5 66.916664Q325.07812 67.041664 324.67188 67.041664Q323.95312 67.041664 323.57812 66.604164Q323.20312 66.15104 323.20312 65.33854L323.20312 61.416664L322.04688 61.416664L322.04688 60.572914L323.20312 60.572914L323.20312 59.041664L324.29688 59.041664ZM327.90625 61.33854Q328.625 60.46354 329.78125 60.46354Q331.79688 60.46354 331.8125 62.729164L331.8125 66.916664L330.71875 66.916664L330.71875 62.71354Q330.71875 62.041664 330.40625 61.71354Q330.10938 61.385414 329.45312 61.385414Q328.92188 61.385414 328.51562 61.666664Q328.125 61.947914 327.90625 62.40104L327.90625 66.916664L326.82812 66.916664L326.82812 57.916664L327.90625 57.916664L327.90625 61.33854ZM336.45312 67.041664Q335.15625 67.041664 334.34375 66.197914Q333.54688 65.33854 333.54688 63.916664L333.54688 63.729164Q333.54688 62.77604 333.90625 62.041664Q334.26562 61.291664 334.90625 60.885414Q335.5625 60.46354 336.3125 60.46354Q337.54688 60.46354 338.23438 61.27604Q338.92188 62.08854 338.92188 63.604164L338.92188 64.05729L334.625 64.05729Q334.65625 64.99479 335.17188 65.572914Q335.70312 66.15104 336.51562 66.15104Q337.07812 66.15104 337.46875 65.916664Q337.875 65.68229 338.1875 65.291664L338.84375 65.80729Q338.04688 67.041664 336.45312 67.041664ZM336.3125 61.354164Q335.65625 61.354164 335.20312 61.83854Q334.76562 62.30729 334.67188 63.166664L337.84375 63.166664L337.84375 63.08854Q337.79688 62.260414 337.39062 61.80729Q337.0 61.354164 336.3125 61.354164ZM342.89062 61.541664Q342.64062 61.510414 342.35938 61.510414Q341.28125 61.510414 340.90625 62.416664L340.90625 66.916664L339.82812 66.916664L339.82812 60.572914L340.875 60.572914L340.89062 61.30729Q341.42188 60.46354 342.40625 60.46354Q342.71875 60.46354 342.89062 60.541664L342.89062 61.541664Z" fill-rule="nonzero"/><path fill="#b6d7a8" d="M359.0 57.416668C359.0 56.864384 359.44772 56.416668 360.0 56.416668L370.0 56.416668C370.55228 56.416668 371.0 56.864384 371.0 57.416668L371.0 67.416664C371.0 67.96895 370.55228 68.416664 370.0 68.416664L360.0 68.416664C359.44772 68.416664 359.0 67.96895 359.0 67.416664Z" fill-rule="nonzero"/><path fill="#000000" d="M386.26562 64.21354Q386.10938 65.55729 385.26562 66.30729Q384.42188 67.041664 383.03125 67.041664Q381.51562 67.041664 380.60938 65.96354Q379.70312 64.86979 379.70312 63.041664L379.70312 62.229164Q379.70312 61.041664 380.125 60.135414Q380.54688 59.229164 381.32812 58.74479Q382.10938 58.260414 383.125 58.260414Q384.48438 58.260414 385.29688 59.02604Q386.125 59.791664 386.26562 61.11979L385.14062 61.11979Q384.98438 60.104164 384.5 59.65104Q384.01562 59.197914 383.125 59.197914Q382.04688 59.197914 381.4375 59.99479Q380.82812 60.791664 380.82812 62.260414L380.82812 63.08854Q380.82812 64.479164 381.40625 65.30729Q381.98438 66.11979 383.03125 66.11979Q383.96875 66.11979 384.46875 65.697914Q384.96875 65.260414 385.14062 64.21354L386.26562 64.21354ZM387.53125 63.68229Q387.53125 62.760414 387.89062 62.010414Q388.26562 61.260414 388.92188 60.86979Q389.57812 60.46354 390.40625 60.46354Q391.70312 60.46354 392.5 61.354164Q393.3125 62.24479 393.3125 63.74479L393.3125 63.822914Q393.3125 64.74479 392.95312 65.479164Q392.59375 66.21354 391.9375 66.635414Q391.28125 67.041664 390.42188 67.041664Q389.14062 67.041664 388.32812 66.15104Q387.53125 65.24479 387.53125 63.760414L387.53125 63.68229ZM388.625 63.822914Q388.625 64.86979 389.10938 65.510414Q389.60938 66.15104 390.42188 66.15104Q391.25 66.15104 391.73438 65.510414Q392.21875 64.854164 392.21875 63.68229Q392.21875 62.65104 391.71875 62.010414Q391.23438 61.354164 390.40625 61.354164Q389.60938 61.354164 389.10938 61.99479Q388.625 62.61979 388.625 63.822914ZM395.84375 60.572914L395.875 61.27604Q396.5625 60.46354 397.75 60.46354Q399.07812 60.46354 399.5625 61.479164Q399.875 61.02604 400.375 60.74479Q400.89062 60.46354 401.57812 60.46354Q403.67188 60.46354 403.70312 62.666664L403.70312 66.916664L402.625 66.916664L402.625 62.729164Q402.625 62.05729 402.3125 61.729164Q402.0 61.385414 401.26562 61.385414Q400.65625 61.385414 400.25 61.74479Q399.85938 62.104164 399.79688 62.71354L399.79688 66.916664L398.71875 66.916664L398.71875 62.760414Q398.71875 61.385414 397.35938 61.385414Q396.29688 61.385414 395.90625 62.291664L395.90625 66.916664L394.8125 66.916664L394.8125 60.572914L395.84375 60.572914ZM406.35938 66.916664L406.35938 61.416664L405.35938 61.416664L405.35938 60.572914L406.35938 60.572914L406.35938 59.93229Q406.35938 58.90104 406.89062 58.354164Q407.4375 57.791664 408.4375 57.791664Q408.8125 57.791664 409.1875 57.885414L409.125 58.77604Q408.84375 58.71354 408.54688 58.71354Q408.01562 58.71354 407.71875 59.02604Q407.4375 59.33854 407.4375 59.90104L407.4375 60.572914L408.79688 60.572914L408.79688 61.416664L407.4375 61.416664L407.4375 66.916664L406.35938 66.916664ZM409.53125 63.68229Q409.53125 62.760414 409.89062 62.010414Q410.26562 61.260414 410.92188 60.86979Q411.57812 60.46354 412.40625 60.46354Q413.70312 60.46354 414.5 61.354164Q415.3125 62.24479 415.3125 63.74479L415.3125 63.822914Q415.3125 64.74479 414.95312 65.479164Q414.59375 66.21354 413.9375 66.635414Q413.28125 67.041664 412.42188 67.041664Q411.14062 67.041664 410.32812 66.15104Q409.53125 65.24479 409.53125 63.760414L409.53125 63.68229ZM410.625 63.822914Q410.625 64.86979 411.10938 65.510414Q411.60938 66.15104 412.42188 66.15104Q413.25 66.15104 413.73438 65.510414Q414.21875 64.854164 414.21875 63.68229Q414.21875 62.65104 413.71875 62.010414Q413.23438 61.354164 412.40625 61.354164Q411.60938 61.354164 411.10938 61.99479Q410.625 62.61979 410.625 63.822914ZM419.89062 61.541664Q419.64062 61.510414 419.35938 61.510414Q418.28125 61.510414 417.90625 62.416664L417.90625 66.916664L416.82812 66.916664L416.82812 60.572914L417.875 60.572914L417.89062 61.30729Q418.42188 60.46354 419.40625 60.46354Q419.71875 60.46354 419.89062 60.541664L419.89062 61.541664ZM422.29688 59.041664L422.29688 60.572914L423.46875 60.572914L423.46875 61.416664L422.29688 61.416664L422.29688 65.33854Q422.29688 65.729164 422.45312 65.916664Q422.60938 66.104164 422.98438 66.104164Q423.17188 66.104164 423.5 66.041664L423.5 66.916664Q423.07812 67.041664 422.67188 67.041664Q421.95312 67.041664 421.57812 66.604164Q421.20312 66.15104 421.20312 65.33854L421.20312 61.416664L420.04688 61.416664L420.04688 60.572914L421.20312 60.572914L421.20312 59.041664L422.29688 59.041664ZM428.73438 66.916664Q428.64062 66.729164 428.57812 66.24479Q427.82812 67.041664 426.78125 67.041664Q425.84375 67.041664 425.23438 66.510414Q424.64062 65.979164 424.64062 65.15104Q424.64062 64.166664 425.39062 63.61979Q426.14062 63.072914 427.51562 63.072914L428.5625 63.072914L428.5625 62.572914Q428.5625 62.010414 428.21875 61.68229Q427.89062 61.33854 427.21875 61.33854Q426.64062 61.33854 426.25 61.635414Q425.85938 61.916664 425.85938 62.33854L424.76562 62.33854Q424.76562 61.854164 425.09375 61.416664Q425.4375 60.979164 426.01562 60.729164Q426.59375 60.46354 427.28125 60.46354Q428.39062 60.46354 429.0 61.010414Q429.625 61.55729 429.65625 62.510414L429.65625 65.43229Q429.65625 66.30729 429.875 66.822914L429.875 66.916664L428.73438 66.916664ZM426.9375 66.08854Q427.45312 66.08854 427.90625 65.822914Q428.35938 65.55729 428.5625 65.135414L428.5625 63.83854L427.71875 63.83854Q425.71875 63.83854 425.71875 65.010414Q425.71875 65.510414 426.0625 65.80729Q426.40625 66.08854 426.9375 66.08854ZM437.1875 63.822914Q437.1875 65.27604 436.51562 66.166664Q435.85938 67.041664 434.73438 67.041664Q433.53125 67.041664 432.875 66.18229L432.8125 66.916664L431.82812 66.916664L431.82812 57.916664L432.90625 57.916664L432.90625 61.27604Q433.5625 60.46354 434.71875 60.46354Q435.875 60.46354 436.53125 61.33854Q437.1875 62.197914 437.1875 63.729164L437.1875 63.822914ZM436.10938 63.697914Q436.10938 62.58854 435.67188 61.99479Q435.25 61.385414 434.45312 61.385414Q433.375 61.385414 432.90625 62.36979L432.90625 65.11979Q433.40625 66.11979 434.45312 66.11979Q435.23438 66.11979 435.67188 65.510414Q436.10938 64.90104 436.10938 63.697914ZM440.0 66.916664L438.92188 66.916664L438.92188 57.916664L440.0 57.916664L440.0 66.916664ZM444.45312 67.041664Q443.15625 67.041664 442.34375 66.197914Q441.54688 65.33854 441.54688 63.916664L441.54688 63.729164Q441.54688 62.77604 441.90625 62.041664Q442.26562 61.291664 442.90625 60.885414Q443.5625 60.46354 444.3125 60.46354Q445.54688 60.46354 446.23438 61.27604Q446.92188 62.08854 446.92188 63.604164L446.92188 64.05729L442.625 64.05729Q442.65625 64.99479 443.17188 65.572914Q443.70312 66.15104 444.51562 66.15104Q445.07812 66.15104 445.46875 65.916664Q445.875 65.68229 446.1875 65.291664L446.84375 65.80729Q446.04688 67.041664 444.45312 67.041664ZM444.3125 61.354164Q443.65625 61.354164 443.20312 61.83854Q442.76562 62.30729 442.67188 63.166664L445.84375 63.166664L445.84375 63.08854Q445.79688 62.260414 445.39062 61.80729Q445.0 61.354164 444.3125 61.354164Z" fill-rule="nonzero"/><path fill="#6aa84f" d="M463.0 57.416668C463.0 56.864384 463.44772 56.416668 464.0 56.416668L474.0 56.416668C474.55228 56.416668 475.0 56.864384 475.0 57.416668L475.0 67.416664C475.0 67.96895 474.55228 68.416664 474.0 68.416664L464.0 68.416664C463.44772 68.416664 463.0 67.96895 463.0 67.416664Z" fill-rule="nonzero"/><path fill="#000000" d="M486.8125 65.416664L489.25 58.385414L490.48438 58.385414L487.3125 66.916664L486.32812 66.916664L483.17188 58.385414L484.39062 58.385414L486.8125 65.416664ZM494.45312 67.041664Q493.15625 67.041664 492.34375 66.197914Q491.54688 65.33854 491.54688 63.916664L491.54688 63.729164Q491.54688 62.77604 491.90625 62.041664Q492.26562 61.291664 492.90625 60.885414Q493.5625 60.46354 494.3125 60.46354Q495.54688 60.46354 496.23438 61.27604Q496.92188 62.08854 496.92188 63.604164L496.92188 64.05729L492.625 64.05729Q492.65625 64.99479 493.17188 65.572914Q493.70312 66.15104 494.51562 66.15104Q495.07812 66.15104 495.46875 65.916664Q495.875 65.68229 496.1875 65.291664L496.84375 65.80729Q496.04688 67.041664 494.45312 67.041664ZM494.3125 61.354164Q493.65625 61.354164 493.20312 61.83854Q492.76562 62.30729 492.67188 63.166664L495.84375 63.166664L495.84375 63.08854Q495.79688 62.260414 495.39062 61.80729Q495.0 61.354164 494.3125 61.354164ZM500.89062 61.541664Q500.64062 61.510414 500.35938 61.510414Q499.28125 61.510414 498.90625 62.416664L498.90625 66.916664L497.82812 66.916664L497.82812 60.572914L498.875 60.572914L498.89062 61.30729Q499.42188 60.46354 500.40625 60.46354Q500.71875 60.46354 500.89062 60.541664L500.89062 61.541664ZM503.89062 65.322914L505.375 60.572914L506.53125 60.572914L503.98438 67.90104Q503.39062 69.479164 502.10938 69.479164L501.89062 69.46354L501.5 69.385414L501.5 68.510414L501.78125 68.52604Q502.34375 68.52604 502.64062 68.30729Q502.95312 68.08854 503.15625 67.49479L503.39062 66.83854L501.125 60.572914L502.3125 60.572914L503.89062 65.322914ZM513.3594 66.15104Q513.9375 66.15104 514.375 65.80729Q514.8125 65.447914 514.8594 64.916664L515.8906 64.916664Q515.8594 65.46354 515.5 65.96354Q515.15625 66.447914 514.5781 66.74479Q514.0156 67.041664 513.3594 67.041664Q512.0625 67.041664 511.29688 66.18229Q510.54688 65.30729 510.54688 63.80729L510.54688 63.61979Q510.54688 62.697914 510.875 61.979164Q511.21875 61.260414 511.84375 60.86979Q512.4844 60.46354 513.3594 60.46354Q514.4219 60.46354 515.125 61.104164Q515.84375 61.729164 515.8906 62.760414L514.8594 62.760414Q514.8125 62.135414 514.3906 61.74479Q513.96875 61.354164 513.3594 61.354164Q512.53125 61.354164 512.0781 61.947914Q511.625 62.541664 511.625 63.666664L511.625 63.86979Q511.625 64.96354 512.0781 65.55729Q512.53125 66.15104 513.3594 66.15104ZM516.53125 63.68229Q516.53125 62.760414 516.8906 62.010414Q517.2656 61.260414 517.9219 60.86979Q518.5781 60.46354 519.40625 60.46354Q520.7031 60.46354 521.5 61.354164Q522.3125 62.24479 522.3125 63.74479L522.3125 63.822914Q522.3125 64.74479 521.9531 65.479164Q521.59375 66.21354 520.9375 66.635414Q520.28125 67.041664 519.4219 67.041664Q518.1406 67.041664 517.3281 66.15104Q516.53125 65.24479 516.53125 63.760414L516.53125 63.68229ZM517.625 63.822914Q517.625 64.86979 518.1094 65.510414Q518.6094 66.15104 519.4219 66.15104Q520.25 66.15104 520.7344 65.510414Q521.21875 64.854164 521.21875 63.68229Q521.21875 62.65104 520.71875 62.010414Q520.2344 61.354164 519.40625 61.354164Q518.6094 61.354164 518.1094 61.99479Q517.625 62.61979 517.625 63.822914ZM524.84375 60.572914L524.875 61.27604Q525.5625 60.46354 526.75 60.46354Q528.0781 60.46354 528.5625 61.479164Q528.875 61.02604 529.375 60.74479Q529.8906 60.46354 530.5781 60.46354Q532.6719 60.46354 532.7031 62.666664L532.7031 66.916664L531.625 66.916664L531.625 62.729164Q531.625 62.05729 531.3125 61.729164Q531.0 61.385414 530.2656 61.385414Q529.65625 61.385414 529.25 61.74479Q528.8594 62.104164 528.7969 62.71354L528.7969 66.916664L527.71875 66.916664L527.71875 62.760414Q527.71875 61.385414 526.3594 61.385414Q525.2969 61.385414 524.90625 62.291664L524.90625 66.916664L523.8125 66.916664L523.8125 60.572914L524.84375 60.572914ZM535.3594 66.916664L535.3594 61.416664L534.3594 61.416664L534.3594 60.572914L535.3594 60.572914L535.3594 59.93229Q535.3594 58.90104 535.8906 58.354164Q536.4375 57.791664 537.4375 57.791664Q537.8125 57.791664 538.1875 57.885414L538.125 58.77604Q537.84375 58.71354 537.5469 58.71354Q537.0156 58.71354 536.71875 59.02604Q536.4375 59.33854 536.4375 59.90104L536.4375 60.572914L537.7969 60.572914L537.7969 61.416664L536.4375 61.416664L536.4375 66.916664L535.3594 66.916664ZM538.53125 63.68229Q538.53125 62.760414 538.8906 62.010414Q539.2656 61.260414 539.9219 60.86979Q540.5781 60.46354 541.40625 60.46354Q542.7031 60.46354 543.5 61.354164Q544.3125 62.24479 544.3125 63.74479L544.3125 63.822914Q544.3125 64.74479 543.9531 65.479164Q543.59375 66.21354 542.9375 66.635414Q542.28125 67.041664 541.4219 67.041664Q540.1406 67.041664 539.3281 66.15104Q538.53125 65.24479 538.53125 63.760414L538.53125 63.68229ZM539.625 63.822914Q539.625 64.86979 540.1094 65.510414Q540.6094 66.15104 541.4219 66.15104Q542.25 66.15104 542.7344 65.510414Q543.21875 64.854164 543.21875 63.68229Q543.21875 62.65104 542.71875 62.010414Q542.2344 61.354164 541.40625 61.354164Q540.6094 61.354164 540.1094 61.99479Q539.625 62.61979 539.625 63.822914ZM548.8906 61.541664Q548.6406 61.510414 548.3594 61.510414Q547.28125 61.510414 546.90625 62.416664L546.90625 66.916664L545.8281 66.916664L545.8281 60.572914L546.875 60.572914L546.8906 61.30729Q547.4219 60.46354 548.40625 60.46354Q548.71875 60.46354 548.8906 60.541664L548.8906 61.541664ZM551.2969 59.041664L551.2969 60.572914L552.46875 60.572914L552.46875 61.416664L551.2969 61.416664L551.2969 65.33854Q551.2969 65.729164 551.4531 65.916664Q551.6094 66.104164 551.9844 66.104164Q552.1719 66.104164 552.5 66.041664L552.5 66.916664Q552.0781 67.041664 551.6719 67.041664Q550.9531 67.041664 550.5781 66.604164Q550.2031 66.15104 550.2031 65.33854L550.2031 61.416664L549.0469 61.416664L549.0469 60.572914L550.2031 60.572914L550.2031 59.041664L551.2969 59.041664ZM557.7344 66.916664Q557.6406 66.729164 557.5781 66.24479Q556.8281 67.041664 555.78125 67.041664Q554.84375 67.041664 554.2344 66.510414Q553.6406 65.979164 553.6406 65.15104Q553.6406 64.166664 554.3906 63.61979Q555.1406 63.072914 556.5156 63.072914L557.5625 63.072914L557.5625 62.572914Q557.5625 62.010414 557.21875 61.68229Q556.8906 61.33854 556.21875 61.33854Q555.6406 61.33854 555.25 61.635414Q554.8594 61.916664 554.8594 62.33854L553.7656 62.33854Q553.7656 61.854164 554.09375 61.416664Q554.4375 60.979164 555.0156 60.729164Q555.59375 60.46354 556.28125 60.46354Q557.3906 60.46354 558.0 61.010414Q558.625 61.55729 558.65625 62.510414L558.65625 65.43229Q558.65625 66.30729 558.875 66.822914L558.875 66.916664L557.7344 66.916664ZM555.9375 66.08854Q556.4531 66.08854 556.90625 65.822914Q557.3594 65.55729 557.5625 65.135414L557.5625 63.83854L556.71875 63.83854Q554.71875 63.83854 554.71875 65.010414Q554.71875 65.510414 555.0625 65.80729Q555.40625 66.08854 555.9375 66.08854ZM566.1875 63.822914Q566.1875 65.27604 565.5156 66.166664Q564.8594 67.041664 563.7344 67.041664Q562.53125 67.041664 561.875 66.18229L561.8125 66.916664L560.8281 66.916664L560.8281 57.916664L561.90625 57.916664L561.90625 61.27604Q562.5625 60.46354 563.71875 60.46354Q564.875 60.46354 565.53125 61.33854Q566.1875 62.197914 566.1875 63.729164L566.1875 63.822914ZM565.1094 63.697914Q565.1094 62.58854 564.6719 61.99479Q564.25 61.385414 563.4531 61.385414Q562.375 61.385414 561.90625 62.36979L561.90625 65.11979Q562.40625 66.11979 563.4531 66.11979Q564.2344 66.11979 564.6719 65.510414Q565.1094 64.90104 565.1094 63.697914ZM569.0 66.916664L567.9219 66.916664L567.9219 57.916664L569.0 57.916664L569.0 66.916664ZM573.4531 67.041664Q572.15625 67.041664 571.34375 66.197914Q570.5469 65.33854 570.5469 63.916664L570.5469 63.729164Q570.5469 62.77604 570.90625 62.041664Q571.2656 61.291664 571.90625 60.885414Q572.5625 60.46354 573.3125 60.46354Q574.5469 60.46354 575.2344 61.27604Q575.9219 62.08854 575.9219 63.604164L575.9219 64.05729L571.625 64.05729Q571.65625 64.99479 572.1719 65.572914Q572.7031 66.15104 573.5156 66.15104Q574.0781 66.15104 574.46875 65.916664Q574.875 65.68229 575.1875 65.291664L575.84375 65.80729Q575.0469 67.041664 573.4531 67.041664ZM573.3125 61.354164Q572.65625 61.354164 572.2031 61.83854Q571.7656 62.30729 571.6719 63.166664L574.84375 63.166664L574.84375 63.08854Q574.7969 62.260414 574.3906 61.80729Q574.0 61.354164 573.3125 61.354164Z" fill-rule="nonzero"/><path fill="#000000" d="M22.08125 31.9875L22.08125 37.55L20.20625 37.55L20.20625 23.33125L25.440624 23.33125Q27.784374 23.33125 29.096874 24.51875Q30.425 25.70625 30.425 27.675Q30.425 29.753124 29.128124 30.878124Q27.83125 31.9875 25.425 31.9875L22.08125 31.9875ZM22.08125 30.45625L25.440624 30.45625Q26.95625 30.45625 27.753124 29.753124Q28.55 29.034374 28.55 27.690624Q28.55 26.425 27.753124 25.675Q26.95625 24.909374 25.55 24.878124L22.08125 24.878124L22.08125 30.45625ZM34.721874 28.26875Q35.925 26.784374 37.846874 26.784374Q41.20625 26.784374 41.221874 30.565624L41.221874 37.55L39.425 37.55L39.425 30.55Q39.409374 29.409374 38.89375 28.8625Q38.39375 28.315624 37.3 28.315624Q36.425 28.315624 35.753124 28.784374Q35.096874 29.253124 34.721874 30.01875L34.721874 37.55L32.925 37.55L32.925 22.55L34.721874 22.55L34.721874 28.26875ZM47.378124 34.909374L49.83125 26.9875L51.76875 26.9875L47.51875 39.175Q46.534374 41.815624 44.39375 41.815624L44.05 41.784374L43.378124 41.659374L43.378124 40.190624L43.8625 40.2375Q44.784374 40.2375 45.284374 39.8625Q45.8 39.4875 46.128124 38.503124L46.534374 37.425L42.76875 26.9875L44.7375 26.9875L47.378124 34.909374ZM59.065624 34.753124Q59.065624 34.01875 58.51875 33.6125Q57.971874 33.20625 56.596874 32.909374Q55.221874 32.6125 54.409374 32.20625Q53.6125 31.8 53.221874 31.2375Q52.846874 30.659374 52.846874 29.878124Q52.846874 28.58125 53.940624 27.690624Q55.034374 26.784374 56.753124 26.784374Q58.55 26.784374 59.659374 27.721874Q60.784374 28.64375 60.784374 30.08125L58.95625 30.08125Q58.95625 29.346874 58.33125 28.815624Q57.70625 28.26875 56.753124 28.26875Q55.753124 28.26875 55.190624 28.70625Q54.64375 29.128124 54.64375 29.83125Q54.64375 30.471874 55.159374 30.815624Q55.675 31.14375 57.034374 31.45625Q58.39375 31.753124 59.221874 32.175Q60.065624 32.58125 60.471874 33.175Q60.878124 33.76875 60.878124 34.6125Q60.878124 36.034374 59.7375 36.89375Q58.6125 37.753124 56.8 37.753124Q55.534374 37.753124 54.55 37.3Q53.58125 36.846874 53.01875 36.05Q52.471874 35.2375 52.471874 34.3L54.284374 34.3Q54.33125 35.20625 55.003124 35.7375Q55.690624 36.26875 56.8 36.26875Q57.83125 36.26875 58.440624 35.8625Q59.065624 35.440624 59.065624 34.753124ZM64.87813 37.55L63.08125 37.55L63.08125 26.9875L64.87813 26.9875L64.87813 37.55ZM62.925 24.175Q62.925 23.7375 63.190624 23.440624Q63.471874 23.128124 63.9875 23.128124Q64.51875 23.128124 64.78438 23.440624Q65.06563 23.7375 65.06563 24.175Q65.06563 24.6125 64.78438 24.909374Q64.51875 25.20625 63.9875 25.20625Q63.471874 25.20625 63.190624 24.909374Q62.925 24.6125 62.925 24.175ZM72.15938 36.26875Q73.12813 36.26875 73.84688 35.690624Q74.56563 35.096874 74.64375 34.221874L76.3625 34.221874Q76.3 35.128124 75.72188 35.95625Q75.15938 36.76875 74.19063 37.26875Q73.2375 37.753124 72.15938 37.753124Q70.00313 37.753124 68.72188 36.315624Q67.45625 34.8625 67.45625 32.3625L67.45625 32.065624Q67.45625 30.51875 68.01875 29.315624Q68.58125 28.1125 69.64375 27.45625Q70.70625 26.784374 72.14375 26.784374Q73.925 26.784374 75.09688 27.846874Q76.28438 28.909374 76.3625 30.6125L74.64375 30.6125Q74.56563 29.596874 73.8625 28.940624Q73.175 28.26875 72.14375 28.26875Q70.76875 28.26875 70.00313 29.26875Q69.25313 30.253124 69.25313 32.128124L69.25313 32.471874Q69.25313 34.3 70.00313 35.284374Q70.75313 36.26875 72.15938 36.26875ZM84.44063 37.55Q84.28438 37.2375 84.19063 36.440624Q82.925 37.753124 81.175 37.753124Q79.6125 37.753124 78.6125 36.8625Q77.6125 35.971874 77.6125 34.6125Q77.6125 32.971874 78.8625 32.065624Q80.12813 31.14375 82.39375 31.14375L84.15938 31.14375L84.15938 30.315624Q84.15938 29.3625 83.58125 28.8Q83.01875 28.2375 81.925 28.2375Q80.95625 28.2375 80.3 28.7375Q79.64375 29.221874 79.64375 29.909374L77.83125 29.909374Q77.83125 29.128124 78.39375 28.39375Q78.95625 27.64375 79.90938 27.221874Q80.87813 26.784374 82.03438 26.784374Q83.8625 26.784374 84.89375 27.70625Q85.925 28.6125 85.97188 30.221874L85.97188 35.08125Q85.97188 36.534374 86.33125 37.39375L86.33125 37.55L84.44063 37.55ZM81.44063 36.175Q82.3 36.175 83.05 35.7375Q83.81563 35.3 84.15938 34.596874L84.15938 32.425L82.7375 32.425Q79.425 32.425 79.425 34.3625Q79.425 35.221874 79.9875 35.70625Q80.55 36.175 81.44063 36.175ZM90.87813 37.55L89.08125 37.55L89.08125 22.55L90.87813 22.55L90.87813 37.55ZM107.2375 30.971874L101.08125 30.971874L101.08125 36.01875L108.2375 36.01875L108.2375 37.55L99.20625 37.55L99.20625 23.33125L108.14375 23.33125L108.14375 24.878124L101.08125 24.878124L101.08125 29.440624L107.2375 29.440624L107.2375 30.971874ZM111.62813 26.9875L111.69063 28.315624Q112.89375 26.784374 114.84688 26.784374Q118.20625 26.784374 118.22188 30.565624L118.22188 37.55L116.425 37.55L116.425 30.55Q116.40938 29.409374 115.89375 28.8625Q115.39375 28.315624 114.3 28.315624Q113.425 28.315624 112.75313 28.784374Q112.09688 29.253124 111.72188 30.01875L111.72188 37.55L109.925 37.55L109.925 26.9875L111.62813 26.9875ZM125.15938 36.26875Q126.12813 36.26875 126.84688 35.690624Q127.56563 35.096874 127.64375 34.221874L129.3625 34.221874Q129.3 35.128124 128.72188 35.95625Q128.15938 36.76875 127.19063 37.26875Q126.2375 37.753124 125.15938 37.753124Q123.00313 37.753124 121.72188 36.315624Q120.45625 34.8625 120.45625 32.3625L120.45625 32.065624Q120.45625 30.51875 121.01875 29.315624Q121.58125 28.1125 122.64375 27.45625Q123.70625 26.784374 125.14375 26.784374Q126.925 26.784374 128.09688 27.846874Q129.28438 28.909374 129.3625 30.6125L127.64375 30.6125Q127.56563 29.596874 126.8625 28.940624Q126.175 28.26875 125.14375 28.26875Q123.76875 28.26875 123.00313 29.26875Q122.25313 30.253124 122.25313 32.128124L122.25313 32.471874Q122.25313 34.3 123.00313 35.284374Q123.75313 36.26875 125.15938 36.26875ZM130.44063 32.175Q130.44063 30.6125 131.05 29.378124Q131.65938 28.128124 132.7375 27.45625Q133.83125 26.784374 135.2375 26.784374Q137.39375 26.784374 138.72188 28.284374Q140.06563 29.76875 140.06563 32.253124L140.06563 32.378124Q140.06563 33.925 139.47188 35.159374Q138.87813 36.378124 137.76875 37.065624Q136.675 37.753124 135.25313 37.753124Q133.1125 37.753124 131.76875 36.253124Q130.44063 34.753124 130.44063 32.3L130.44063 32.175ZM132.25313 32.378124Q132.25313 34.14375 133.06563 35.20625Q133.89375 36.26875 135.25313 36.26875Q136.62813 36.26875 137.44063 35.190624Q138.25313 34.1125 138.25313 32.175Q138.25313 30.425 137.425 29.346874Q136.59688 28.26875 135.2375 28.26875Q133.89375 28.26875 133.06563 29.33125Q132.25313 30.39375 132.25313 32.378124ZM148.44063 36.503124Q147.39375 37.753124 145.34688 37.753124Q143.65938 37.753124 142.76875 36.76875Q141.89375 35.784374 141.87813 33.8625L141.87813 26.9875L143.69063 26.9875L143.69063 33.815624Q143.69063 36.20625 145.64375 36.20625Q147.70625 36.20625 148.39375 34.675L148.39375 26.9875L150.20625 26.9875L150.20625 37.55L148.4875 37.55L148.44063 36.503124ZM154.62813 26.9875L154.69063 28.315624Q155.89375 26.784374 157.84688 26.784374Q161.20625 26.784374 161.22188 30.565624L161.22188 37.55L159.425 37.55L159.425 30.55Q159.40938 29.409374 158.89375 28.8625Q158.39375 28.315624 157.3 28.315624Q156.425 28.315624 155.75313 28.784374Q155.09688 29.253124 154.72188 30.01875L154.72188 37.55L152.925 37.55L152.925 26.9875L154.62813 26.9875ZM166.3625 24.425L166.3625 26.9875L168.34688 26.9875L168.34688 28.378124L166.3625 28.378124L166.3625 34.925Q166.3625 35.565624 166.62813 35.89375Q166.89375 36.20625 167.53438 36.20625Q167.84688 36.20625 168.39375 36.08125L168.39375 37.55Q167.675 37.753124 167.00313 37.753124Q165.8 37.753124 165.175 37.01875Q164.56563 36.284374 164.56563 34.925L164.56563 28.378124L162.64375 28.378124L162.64375 26.9875L164.56563 26.9875L164.56563 24.425L166.3625 24.425ZM175.3 37.753124Q173.15938 37.753124 171.8 36.346874Q170.45625 34.925 170.45625 32.565624L170.45625 32.221874Q170.45625 30.659374 171.05 29.425Q171.65938 28.190624 172.7375 27.4875Q173.81563 26.784374 175.08125 26.784374Q177.14375 26.784374 178.28438 28.14375Q179.425 29.503124 179.425 32.034374L179.425 32.784374L172.26875 32.784374Q172.3 34.346874 173.175 35.315624Q174.05 36.26875 175.39375 36.26875Q176.3625 36.26875 177.01875 35.878124Q177.69063 35.4875 178.19063 34.846874L179.28438 35.70625Q177.95625 37.753124 175.3 37.753124ZM175.08125 28.26875Q173.9875 28.26875 173.2375 29.065624Q172.50313 29.8625 172.33125 31.3L177.6125 31.3L177.6125 31.159374Q177.53438 29.784374 176.8625 29.034374Q176.20625 28.26875 175.08125 28.26875ZM187.01875 28.596874Q186.6125 28.534374 186.14375 28.534374Q184.3625 28.534374 183.72188 30.05L183.72188 37.55L181.925 37.55L181.925 26.9875L183.675 26.9875L183.70625 28.20625Q184.59688 26.784374 186.22188 26.784374Q186.75313 26.784374 187.01875 26.925L187.01875 28.596874ZM204.01875 24.878124L199.45625 24.878124L199.45625 37.55L197.59688 37.55L197.59688 24.878124L193.03438 24.878124L193.03438 23.33125L204.01875 23.33125L204.01875 24.878124ZM211.01875 28.596874Q210.6125 28.534374 210.14375 28.534374Q208.3625 28.534374 207.72188 30.05L207.72188 37.55L205.925 37.55L205.925 26.9875L207.675 26.9875L207.70625 28.20625Q208.59688 26.784374 210.22188 26.784374Q210.75313 26.784374 211.01875 26.925L211.01875 28.596874ZM219.44063 37.55Q219.28438 37.2375 219.19063 36.440624Q217.925 37.753124 216.175 37.753124Q214.6125 37.753124 213.6125 36.8625Q212.6125 35.971874 212.6125 34.6125Q212.6125 32.971874 213.8625 32.065624Q215.12813 31.14375 217.39375 31.14375L219.15938 31.14375L219.15938 30.315624Q219.15938 29.3625 218.58125 28.8Q218.01875 28.2375 216.925 28.2375Q215.95625 28.2375 215.3 28.7375Q214.64375 29.221874 214.64375 29.909374L212.83125 29.909374Q212.83125 29.128124 213.39375 28.39375Q213.95625 27.64375 214.90938 27.221874Q215.87813 26.784374 217.03438 26.784374Q218.8625 26.784374 219.89375 27.70625Q220.925 28.6125 220.97188 30.221874L220.97188 35.08125Q220.97188 36.534374 221.33125 37.39375L221.33125 37.55L219.44063 37.55ZM216.44063 36.175Q217.3 36.175 218.05 35.7375Q218.81563 35.3 219.15938 34.596874L219.15938 32.425L217.7375 32.425Q214.425 32.425 214.425 34.3625Q214.425 35.221874 214.9875 35.70625Q215.55 36.175 216.44063 36.175ZM228.15938 36.26875Q229.12813 36.26875 229.84688 35.690624Q230.56563 35.096874 230.64375 34.221874L232.3625 34.221874Q232.3 35.128124 231.72188 35.95625Q231.15938 36.76875 230.19063 37.26875Q229.2375 37.753124 228.15938 37.753124Q226.00313 37.753124 224.72188 36.315624Q223.45625 34.8625 223.45625 32.3625L223.45625 32.065624Q223.45625 30.51875 224.01875 29.315624Q224.58125 28.1125 225.64375 27.45625Q226.70625 26.784374 228.14375 26.784374Q229.925 26.784374 231.09688 27.846874Q232.28438 28.909374 232.3625 30.6125L230.64375 30.6125Q230.56563 29.596874 229.8625 28.940624Q229.175 28.26875 228.14375 28.26875Q226.76875 28.26875 226.00313 29.26875Q225.25313 30.253124 225.25313 32.128124L225.25313 32.471874Q225.25313 34.3 226.00313 35.284374Q226.75313 36.26875 228.15938 36.26875ZM236.8625 32.659374L235.7375 33.83125L235.7375 37.55L233.925 37.55L233.925 22.55L235.7375 22.55L235.7375 31.628124L236.70625 30.45625L239.9875 26.9875L242.19063 26.9875L238.08125 31.39375L242.675 37.55L240.55 37.55L236.8625 32.659374ZM245.87813 37.55L244.08125 37.55L244.08125 26.9875L245.87813 26.9875L245.87813 37.55ZM243.925 24.175Q243.925 23.7375 244.19063 23.440624Q244.47188 23.128124 244.9875 23.128124Q245.51875 23.128124 245.78438 23.440624Q246.06563 23.7375 246.06563 24.175Q246.06563 24.6125 245.78438 24.909374Q245.51875 25.20625 244.9875 25.20625Q244.47188 25.20625 244.19063 24.909374Q243.925 24.6125 243.925 24.175ZM250.62813 26.9875L250.69063 28.315624Q251.89375 26.784374 253.84688 26.784374Q257.20624 26.784374 257.22186 30.565624L257.22186 37.55L255.425 37.55L255.425 30.55Q255.40938 29.409374 254.89375 28.8625Q254.39375 28.315624 253.3 28.315624Q252.425 28.315624 251.75313 28.784374Q251.09688 29.253124 250.72188 30.01875L250.72188 37.55L248.925 37.55L248.925 26.9875L250.62813 26.9875ZM259.4875 32.175Q259.4875 29.70625 260.6281 28.253124Q261.76874 26.784374 263.65936 26.784374Q265.59686 26.784374 266.675 28.159374L266.76874 26.9875L268.40936 26.9875L268.40936 37.3Q268.40936 39.346874 267.1906 40.51875Q265.9875 41.70625 263.925 41.70625Q262.78436 41.70625 261.6906 41.221874Q260.59686 40.7375 260.01874 39.878124L260.95624 38.8Q262.1281 40.2375 263.8 40.2375Q265.1281 40.2375 265.8625 39.4875Q266.59686 38.753124 266.59686 37.409374L266.59686 36.4875Q265.51874 37.753124 263.64374 37.753124Q261.78436 37.753124 260.6281 36.253124Q259.4875 34.753124 259.4875 32.175ZM261.3 32.378124Q261.3 34.175 262.03436 35.190624Q262.76874 36.20625 264.08124 36.20625Q265.8 36.20625 266.59686 34.659374L266.59686 29.83125Q265.76874 28.315624 264.1125 28.315624Q262.78436 28.315624 262.03436 29.346874Q261.3 30.378124 261.3 32.378124Z" fill-rule="nonzero"/></svg>