<svg version="1.1" viewBox="0.0 0.0 600.0 371.0" fill="none" stroke="none" stroke-linecap="square" stroke-miterlimit="10" width="600" height="371" xmlns:xlink="http://www.w3.org/1999/xlink" xmlns="http://www.w3.org/2000/svg"><path fill="#ffffff" d="M0 0L600.0 0L600.0 371.0L0 371.0L0 0Z" fill-rule="nonzero"/><path fill="#4285f4" d="M300.0 88.38917C302.17896 88.38917 304.35764 88.422676 306.53445 88.48967L300.0 192.52583Z" fill-rule="nonzero"/><path fill="#a4c2f4" d="M306.53445 88.48967C310.88867 88.62368 315.23236 88.89156 319.55295 89.29256L300.0 192.52583Z" fill-rule="nonzero"/><path fill="#f4b400" d="M319.55295 89.29256C321.71298 89.49303 323.8665 89.72669 326.01184 89.993385L300.0 192.52583Z" fill-rule="nonzero"/><path fill="#4285f4" d="M293.46555 88.48967C295.64236 88.422676 297.82104 88.38917 300.0 88.38917L300.0 192.52583Z" fill-rule="nonzero"/><path fill="#f9cb9c" d="M286.9437 88.79099C289.11423 88.657135 291.2887 88.55667 293.46555 88.48967L300.0 192.52583Z" fill-rule="nonzero"/><path fill="#d9ead3" d="M236.71739 98.280685C252.53326 93.07696 269.53528 89.86462 286.9437 88.79099L300.0 192.52583Z" fill-rule="nonzero"/><path fill="#f975a8" d="M225.14543 102.53209C228.91193 100.99698 232.77296 99.578476 236.71739 98.280685L300.0 192.52583Z" fill-rule="nonzero"/><path fill="#3949ab" d="M219.57066 104.920494C221.40372 104.09588 223.26242 103.29955 225.14543 102.53209L300.0 192.52583Z" fill-rule="nonzero"/><path fill="#c1bc1f" d="M208.89735 110.19968C212.34293 108.33135 215.90414 106.56993 219.57066 104.920494L300.0 192.52583Z" fill-rule="nonzero"/><path fill="#ab30c4" d="M203.81941 113.08026C205.48172 112.09415 207.17477 111.13372 208.89735 110.19968L300.0 192.52583Z" fill-rule="nonzero"/><path fill="#31848b" d="M151.45766 220.55745C151.30814 218.6537 151.23334 216.74745 151.23334 214.84084L151.23334 192.52583C151.23334 194.43245 151.30814 196.33871 151.45766 198.24245Z" fill-rule="nonzero"/><path fill="#46bdc6" d="M151.45766 198.24245C148.90034 165.68199 168.27971 134.16302 203.81941 113.08026L300.0 192.52583Z" fill-rule="nonzero"/><path fill="#b3a06b" d="M151.95973 225.11916C151.74467 223.60135 151.57727 222.08041 151.45766 220.55745L151.45766 198.24245C151.57727 199.76541 151.74467 201.28635 151.95973 202.80415Z" fill-rule="nonzero"/><path fill="#ffe599" d="M151.95973 202.80415C151.74467 201.28635 151.57727 199.76541 151.45766 198.24245L300.0 192.52583Z" fill-rule="nonzero"/><path fill="#7f9776" d="M448.76666 214.84084C448.76666 270.35382 386.55804 316.1074 307.35065 318.8503C228.14323 321.59323 159.7871 280.36108 151.95973 225.11916L151.95973 202.80415C159.7871 258.04608 228.14323 299.27823 307.35065 296.5353C386.55804 293.7924 448.76666 248.03882 448.76666 192.52583Z" fill-rule="nonzero"/><path fill="#b6d7a8" d="M326.01184 89.993385C401.71982 99.40464 454.7073 147.65137 448.23944 201.28535C441.77158 254.91934 377.97986 296.26556 301.08942 296.6597C224.19899 297.05386 159.54904 256.3661 151.95973 202.80415L300.0 192.52583Z" fill-rule="nonzero"/><path fill="#000000" d="M20.659374 67.87107L20.659374 71.21482L19.534374 71.21482L19.534374 62.68357L22.690624 62.68357Q24.08125 62.68357 24.878124 63.40232Q25.675 64.105446 25.675 65.292946Q25.675 66.52732 24.89375 67.199196Q24.128124 67.87107 22.675 67.87107L20.659374 67.87107ZM20.659374 66.949196L22.690624 66.949196Q23.596874 66.949196 24.065624 66.52732Q24.55 66.105446 24.55 65.30857Q24.55 64.542946 24.065624 64.08982Q23.596874 63.62107 22.753124 63.605446L20.659374 63.605446L20.659374 66.949196ZM31.284374 71.21482Q31.190624 71.02732 31.128124 70.542946Q30.378124 71.33982 29.33125 71.33982Q28.39375 71.33982 27.784374 70.80857Q27.190624 70.27732 27.190624 69.449196Q27.190624 68.46482 27.940624 67.917946Q28.690624 67.37107 30.065624 67.37107L31.1125 67.37107L31.1125 66.87107Q31.1125 66.30857 30.76875 65.980446Q30.440624 65.636696 29.76875 65.636696Q29.190624 65.636696 28.8 65.93357Q28.409374 66.21482 28.409374 66.636696L27.315624 66.636696Q27.315624 66.15232 27.64375 65.71482Q27.9875 65.27732 28.565624 65.02732Q29.14375 64.761696 29.83125 64.761696Q30.940624 64.761696 31.55 65.30857Q32.175 65.855446 32.20625 66.80857L32.20625 69.730446Q32.20625 70.605446 32.425 71.12107L32.425 71.21482L31.284374 71.21482ZM29.4875 70.386696Q30.003124 70.386696 30.45625 70.12107Q30.909374 69.855446 31.1125 69.43357L31.1125 68.136696L30.26875 68.136696Q28.26875 68.136696 28.26875 69.30857Q28.26875 69.80857 28.6125 70.105446Q28.95625 70.386696 29.4875 70.386696ZM36.14375 68.27732L35.45625 68.980446L35.45625 71.21482L34.378124 71.21482L34.378124 62.21482L35.45625 62.21482L35.45625 67.65232L36.034374 66.96482L38.01875 64.87107L39.33125 64.87107L36.8625 67.52732L39.628124 71.21482L38.346874 71.21482L36.14375 68.27732ZM41.55 71.21482L40.471874 71.21482L40.471874 64.87107L41.55 64.87107L41.55 71.21482ZM40.378124 63.199196Q40.378124 62.93357 40.534374 62.74607Q40.70625 62.55857 41.01875 62.55857Q41.33125 62.55857 41.4875 62.74607Q41.659374 62.93357 41.659374 63.199196Q41.659374 63.449196 41.4875 63.636696Q41.33125 63.80857 41.01875 63.80857Q40.70625 63.80857 40.534374 63.636696Q40.378124 63.449196 40.378124 63.199196ZM47.065624 69.52732Q47.065624 69.08982 46.721874 68.855446Q46.39375 68.605446 45.565624 68.43357Q44.753124 68.261696 44.26875 68.011696Q43.784374 67.761696 43.55 67.43357Q43.33125 67.08982 43.33125 66.62107Q43.33125 65.83982 43.9875 65.30857Q44.64375 64.761696 45.675 64.761696Q46.753124 64.761696 47.409374 65.324196Q48.08125 65.87107 48.08125 66.730446L47.003124 66.730446Q47.003124 66.292946 46.6125 65.980446Q46.2375 65.65232 45.675 65.65232Q45.08125 65.65232 44.7375 65.917946Q44.409374 66.167946 44.409374 66.574196Q44.409374 66.96482 44.721874 67.167946Q45.034374 67.37107 45.846874 67.55857Q46.659374 67.730446 47.159374 67.980446Q47.659374 68.230446 47.89375 68.58982Q48.14375 68.949196 48.14375 69.449196Q48.14375 70.30857 47.45625 70.824196Q46.784374 71.33982 45.70625 71.33982Q44.940624 71.33982 44.346874 71.074196Q43.76875 70.792946 43.440624 70.30857Q43.1125 69.824196 43.1125 69.261696L44.190624 69.261696Q44.221874 69.80857 44.628124 70.136696Q45.034374 70.449196 45.70625 70.449196Q46.315624 70.449196 46.690624 70.199196Q47.065624 69.949196 47.065624 69.52732ZM50.846874 63.33982L50.846874 64.87107L52.01875 64.87107L52.01875 65.71482L50.846874 65.71482L50.846874 69.636696Q50.846874 70.02732 51.003124 70.21482Q51.159374 70.40232 51.534374 70.40232Q51.721874 70.40232 52.05 70.33982L52.05 71.21482Q51.628124 71.33982 51.221874 71.33982Q50.503124 71.33982 50.128124 70.90232Q49.753124 70.449196 49.753124 69.636696L49.753124 65.71482L48.596874 65.71482L48.596874 64.87107L49.753124 64.87107L49.753124 63.33982L50.846874 63.33982ZM57.284374 71.21482Q57.190624 71.02732 57.128124 70.542946Q56.378124 71.33982 55.33125 71.33982Q54.39375 71.33982 53.784374 70.80857Q53.190624 70.27732 53.190624 69.449196Q53.190624 68.46482 53.940624 67.917946Q54.690624 67.37107 56.065624 67.37107L57.1125 67.37107L57.1125 66.87107Q57.1125 66.30857 56.76875 65.980446Q56.440624 65.636696 55.76875 65.636696Q55.190624 65.636696 54.8 65.93357Q54.409374 66.21482 54.409374 66.636696L53.315624 66.636696Q53.315624 66.15232 53.64375 65.71482Q53.9875 65.27732 54.565624 65.02732Q55.14375 64.761696 55.83125 64.761696Q56.940624 64.761696 57.55 65.30857Q58.175 65.855446 58.20625 66.80857L58.20625 69.730446Q58.20625 70.605446 58.425 71.12107L58.425 71.21482L57.284374 71.21482ZM55.4875 70.386696Q56.003124 70.386696 56.45625 70.12107Q56.909374 69.855446 57.1125 69.43357L57.1125 68.136696L56.26875 68.136696Q54.26875 68.136696 54.26875 69.30857Q54.26875 69.80857 54.6125 70.105446Q54.95625 70.386696 55.4875 70.386696ZM61.39375 64.87107L61.425 65.667946Q62.159374 64.761696 63.33125 64.761696Q65.34688 64.761696 65.3625 67.02732L65.3625 71.21482L64.26875 71.21482L64.26875 67.011696Q64.26875 66.33982 63.95625 66.011696Q63.659374 65.68357 63.003124 65.68357Q62.471874 65.68357 62.065624 65.96482Q61.675 66.24607 61.45625 66.699196L61.45625 71.21482L60.378124 71.21482L60.378124 64.87107L61.39375 64.87107Z" fill-rule="nonzero"/><path fill="#9e9e9e" d="M19.753124 84.93357L20.190624 80.68357L24.565624 80.68357L24.565624 81.68357L21.1125 81.68357L20.846874 84.011696Q21.4875 83.636696 22.284374 83.636696Q23.440624 83.636696 24.128124 84.417946Q24.815624 85.18357 24.815624 86.49607Q24.815624 87.80857 24.096874 88.574196Q23.39375 89.33982 22.1125 89.33982Q20.9875 89.33982 20.26875 88.71482Q19.55 88.074196 19.45625 86.96482L20.471874 86.96482Q20.58125 87.699196 21.003124 88.074196Q21.425 88.449196 22.1125 88.449196Q22.8625 88.449196 23.3 87.93357Q23.7375 87.417946 23.7375 86.511696Q23.7375 85.65232 23.26875 85.136696Q22.8 84.62107 22.01875 84.62107Q21.315624 84.62107 20.909374 84.917946L20.628124 85.15232L19.753124 84.93357ZM26.39375 88.65232Q26.39375 88.37107 26.55 88.18357Q26.721874 87.99607 27.05 87.99607Q27.39375 87.99607 27.565624 88.18357Q27.7375 88.37107 27.7375 88.65232Q27.7375 88.917946 27.565624 89.105446Q27.39375 89.27732 27.05 89.27732Q26.721874 89.27732 26.55 89.105446Q26.39375 88.917946 26.39375 88.65232ZM33.51875 80.68357L33.51875 81.58982L33.315624 81.58982Q32.05 81.62107 31.3 82.355446Q30.55 83.074196 30.425 84.386696Q31.1125 83.62107 32.26875 83.62107Q33.378124 83.62107 34.05 84.40232Q34.721874 85.18357 34.721874 86.43357Q34.721874 87.74607 34.003124 88.542946Q33.284374 89.33982 32.065624 89.33982Q30.846874 89.33982 30.08125 88.40232Q29.33125 87.449196 29.33125 85.96482L29.33125 85.55857Q29.33125 83.199196 30.33125 81.949196Q31.33125 80.699196 33.315624 80.68357L33.51875 80.68357ZM32.096874 84.52732Q31.534374 84.52732 31.065624 84.855446Q30.596874 85.18357 30.409374 85.699196L30.409374 86.08982Q30.409374 87.15232 30.878124 87.792946Q31.3625 88.43357 32.065624 88.43357Q32.8 88.43357 33.221874 87.90232Q33.64375 87.355446 33.64375 86.480446Q33.64375 85.605446 33.221874 85.074196Q32.8 84.52732 32.096874 84.52732ZM36.159374 82.324196Q36.159374 81.55857 36.64375 81.05857Q37.14375 80.55857 37.909374 80.55857Q38.690624 80.55857 39.175 81.05857Q39.659374 81.55857 39.659374 82.355446L39.659374 82.77732Q39.659374 83.542946 39.159374 84.042946Q38.675 84.52732 37.925 84.52732Q37.159374 84.52732 36.659374 84.042946Q36.159374 83.542946 36.159374 82.730446L36.159374 82.324196ZM36.971874 82.77732Q36.971874 83.230446 37.221874 83.52732Q37.4875 83.824196 37.925 83.824196Q38.346874 83.824196 38.596874 83.542946Q38.846874 83.24607 38.846874 82.74607L38.846874 82.324196Q38.846874 81.87107 38.596874 81.574196Q38.346874 81.261696 37.909374 81.261696Q37.471874 81.261696 37.221874 81.574196Q36.971874 81.87107 36.971874 82.33982L36.971874 82.77732ZM40.315624 87.12107Q40.315624 86.355446 40.8 85.87107Q41.3 85.37107 42.065624 85.37107Q42.83125 85.37107 43.315624 85.87107Q43.815624 86.355446 43.815624 87.167946L43.815624 87.574196Q43.815624 88.33982 43.33125 88.83982Q42.846874 89.33982 42.08125 89.33982Q41.315624 89.33982 40.815624 88.855446Q40.315624 88.355446 40.315624 87.542946L40.315624 87.12107ZM41.128124 87.574196Q41.128124 88.042946 41.378124 88.33982Q41.64375 88.636696 42.08125 88.636696Q42.503124 88.636696 42.753124 88.355446Q43.003124 88.05857 43.003124 87.55857L43.003124 87.12107Q43.003124 86.65232 42.7375 86.37107Q42.4875 86.074196 42.065624 86.074196Q41.64375 86.074196 41.378124 86.37107Q41.128124 86.65232 41.128124 87.15232L41.128124 87.574196ZM38.175 88.574196L37.55 88.18357L41.721874 81.511696L42.33125 81.90232L38.175 88.574196Z" fill-rule="nonzero"/><path stroke="#757575" stroke-width="1.0" stroke-linecap="butt" d="M18.55 75.71482L145.23334 75.71482L263.17166 97.01399" fill-rule="nonzero"/><path fill="#9e9e9e" d="M265.17166 97.01399C265.17166 95.90942 264.27625 95.01399 263.17166 95.01399C262.0671 95.01399 261.17166 95.90942 261.17166 97.01399C261.17166 98.11856 262.0671 99.01399 263.17166 99.01399C264.27625 99.01399 265.17166 98.11856 265.17166 97.01399" fill-rule="nonzero"/><path fill="#000000" d="M26.096874 104.21482L24.971874 104.21482L20.675 97.636696L20.675 104.21482L19.534374 104.21482L19.534374 95.68357L20.675 95.68357L24.971874 102.292946L24.971874 95.68357L26.096874 95.68357L26.096874 104.21482ZM29.55 104.21482L28.471874 104.21482L28.471874 97.87107L29.55 97.87107L29.55 104.21482ZM28.378124 96.199196Q28.378124 95.93357 28.534374 95.74607Q28.70625 95.55857 29.01875 95.55857Q29.33125 95.55857 29.4875 95.74607Q29.659374 95.93357 29.659374 96.199196Q29.659374 96.449196 29.4875 96.636696Q29.33125 96.80857 29.01875 96.80857Q28.70625 96.80857 28.534374 96.636696Q28.378124 96.449196 28.378124 96.199196ZM31.1125 100.99607Q31.1125 99.511696 31.8 98.636696Q32.4875 97.761696 33.6125 97.761696Q34.76875 97.761696 35.425 98.574196L35.471874 97.87107L36.471874 97.87107L36.471874 104.05857Q36.471874 105.292946 35.7375 105.99607Q35.003124 106.71482 33.784374 106.71482Q33.096874 106.71482 32.440624 106.417946Q31.784374 106.12107 31.440624 105.62107L32.003124 104.96482Q32.690624 105.824196 33.70625 105.824196Q34.4875 105.824196 34.925 105.37107Q35.378124 104.93357 35.378124 104.12107L35.378124 103.574196Q34.721874 104.33982 33.596874 104.33982Q32.4875 104.33982 31.8 103.449196Q31.1125 102.542946 31.1125 100.99607ZM32.20625 101.12107Q32.20625 102.18357 32.64375 102.80857Q33.08125 103.417946 33.878124 103.417946Q34.89375 103.417946 35.378124 102.480446L35.378124 99.58982Q34.878124 98.68357 33.878124 98.68357Q33.096874 98.68357 32.64375 99.292946Q32.20625 99.90232 32.20625 101.12107ZM41.003124 104.33982Q39.70625 104.33982 38.89375 103.49607Q38.096874 102.636696 38.096874 101.21482L38.096874 101.02732Q38.096874 100.074196 38.45625 99.33982Q38.815624 98.58982 39.45625 98.18357Q40.1125 97.761696 40.8625 97.761696Q42.096874 97.761696 42.784374 98.574196Q43.471874 99.386696 43.471874 100.90232L43.471874 101.355446L39.175 101.355446Q39.20625 102.292946 39.721874 102.87107Q40.253124 103.449196 41.065624 103.449196Q41.628124 103.449196 42.01875 103.21482Q42.425 102.980446 42.7375 102.58982L43.39375 103.105446Q42.596874 104.33982 41.003124 104.33982ZM40.8625 98.65232Q40.20625 98.65232 39.753124 99.136696Q39.315624 99.605446 39.221874 100.46482L42.39375 100.46482L42.39375 100.386696Q42.346874 99.55857 41.940624 99.105446Q41.55 98.65232 40.8625 98.65232ZM47.440624 98.83982Q47.190624 98.80857 46.909374 98.80857Q45.83125 98.80857 45.45625 99.71482L45.45625 104.21482L44.378124 104.21482L44.378124 97.87107L45.425 97.87107L45.440624 98.605446Q45.971874 97.761696 46.95625 97.761696Q47.26875 97.761696 47.440624 97.83982L47.440624 98.83982ZM49.55 104.21482L48.471874 104.21482L48.471874 97.87107L49.55 97.87107L49.55 104.21482ZM48.378124 96.199196Q48.378124 95.93357 48.534374 95.74607Q48.70625 95.55857 49.01875 95.55857Q49.33125 95.55857 49.4875 95.74607Q49.659374 95.93357 49.659374 96.199196Q49.659374 96.449196 49.4875 96.636696Q49.33125 96.80857 49.01875 96.80857Q48.70625 96.80857 48.534374 96.636696Q48.378124 96.449196 48.378124 96.199196ZM55.284374 104.21482Q55.190624 104.02732 55.128124 103.542946Q54.378124 104.33982 53.33125 104.33982Q52.39375 104.33982 51.784374 103.80857Q51.190624 103.27732 51.190624 102.449196Q51.190624 101.46482 51.940624 100.917946Q52.690624 100.37107 54.065624 100.37107L55.1125 100.37107L55.1125 99.87107Q55.1125 99.30857 54.76875 98.980446Q54.440624 98.636696 53.76875 98.636696Q53.190624 98.636696 52.8 98.93357Q52.409374 99.21482 52.409374 99.636696L51.315624 99.636696Q51.315624 99.15232 51.64375 98.71482Q51.9875 98.27732 52.565624 98.02732Q53.14375 97.761696 53.83125 97.761696Q54.940624 97.761696 55.55 98.30857Q56.175 98.855446 56.20625 99.80857L56.20625 102.730446Q56.20625 103.605446 56.425 104.12107L56.425 104.21482L55.284374 104.21482ZM53.4875 103.386696Q54.003124 103.386696 54.45625 103.12107Q54.909374 102.855446 55.1125 102.43357L55.1125 101.136696L54.26875 101.136696Q52.26875 101.136696 52.26875 102.30857Q52.26875 102.80857 52.6125 103.105446Q52.95625 103.386696 53.4875 103.386696Z" fill-rule="nonzero"/><path fill="#9e9e9e" d="M22.815624 122.21482L21.7375 122.21482L21.7375 114.99607L19.55 115.792946L19.55 114.80857L22.659374 113.636696L22.815624 113.636696L22.815624 122.21482ZM26.39375 121.65232Q26.39375 121.37107 26.55 121.18357Q26.721874 120.99607 27.05 120.99607Q27.39375 120.99607 27.565624 121.18357Q27.7375 121.37107 27.7375 121.65232Q27.7375 121.917946 27.565624 122.105446Q27.39375 122.27732 27.05 122.27732Q26.721874 122.27732 26.55 122.105446Q26.39375 121.917946 26.39375 121.65232ZM33.83125 119.355446L35.01875 119.355446L35.01875 120.230446L33.83125 120.230446L33.83125 122.21482L32.753124 122.21482L32.753124 120.230446L28.8625 120.230446L28.8625 119.58982L32.675 113.68357L33.83125 113.68357L33.83125 119.355446ZM30.096874 119.355446L32.753124 119.355446L32.753124 115.167946L32.6125 115.40232L30.096874 119.355446ZM36.159374 115.324196Q36.159374 114.55857 36.64375 114.05857Q37.14375 113.55857 37.909374 113.55857Q38.690624 113.55857 39.175 114.05857Q39.659374 114.55857 39.659374 115.355446L39.659374 115.77732Q39.659374 116.542946 39.159374 117.042946Q38.675 117.52732 37.925 117.52732Q37.159374 117.52732 36.659374 117.042946Q36.159374 116.542946 36.159374 115.730446L36.159374 115.324196ZM36.971874 115.77732Q36.971874 116.230446 37.221874 116.52732Q37.4875 116.824196 37.925 116.824196Q38.346874 116.824196 38.596874 116.542946Q38.846874 116.24607 38.846874 115.74607L38.846874 115.324196Q38.846874 114.87107 38.596874 114.574196Q38.346874 114.261696 37.909374 114.261696Q37.471874 114.261696 37.221874 114.574196Q36.971874 114.87107 36.971874 115.33982L36.971874 115.77732ZM40.315624 120.12107Q40.315624 119.355446 40.8 118.87107Q41.3 118.37107 42.065624 118.37107Q42.83125 118.37107 43.315624 118.87107Q43.815624 119.355446 43.815624 120.167946L43.815624 120.574196Q43.815624 121.33982 43.33125 121.83982Q42.846874 122.33982 42.08125 122.33982Q41.315624 122.33982 40.815624 121.855446Q40.315624 121.355446 40.315624 120.542946L40.315624 120.12107ZM41.128124 120.574196Q41.128124 121.042946 41.378124 121.33982Q41.64375 121.636696 42.08125 121.636696Q42.503124 121.636696 42.753124 121.355446Q43.003124 121.05857 43.003124 120.55857L43.003124 120.12107Q43.003124 119.65232 42.7375 119.37107Q42.4875 119.074196 42.065624 119.074196Q41.64375 119.074196 41.378124 119.37107Q41.128124 119.65232 41.128124 120.15232L41.128124 120.574196ZM38.175 121.574196L37.55 121.18357L41.721874 114.511696L42.33125 114.90232L38.175 121.574196Z" fill-rule="nonzero"/><path stroke="#757575" stroke-width="1.0" stroke-linecap="butt" d="M18.55 108.71482L145.23334 108.71482L234.32144 104.92782" fill-rule="nonzero"/><path fill="#9e9e9e" d="M236.32144 104.92782C236.32144 103.82325 235.42603 102.92782 234.32144 102.92782C233.21687 102.92782 232.32144 103.82325 232.32144 104.92782C232.32144 106.03239 233.21687 106.92782 234.32144 106.92782C235.42603 106.92782 236.32144 106.03239 236.32144 104.92782" fill-rule="nonzero"/><path fill="#000000" d="M20.753124 137.21483L19.628124 137.21483L19.628124 128.68358L20.753124 128.68358L20.753124 137.21483ZM25.440624 131.83983Q25.190624 131.80858 24.909374 131.80858Q23.83125 131.80858 23.45625 132.71483L23.45625 137.21483L22.378124 137.21483L22.378124 130.87108L23.425 130.87108L23.440624 131.60545Q23.971874 130.7617 24.95625 130.7617Q25.26875 130.7617 25.440624 130.83983L25.440624 131.83983ZM30.284374 137.21483Q30.190624 137.02733 30.128124 136.54295Q29.378124 137.33983 28.33125 137.33983Q27.39375 137.33983 26.784374 136.80858Q26.190624 136.27733 26.190624 135.4492Q26.190624 134.46483 26.940624 133.91795Q27.690624 133.37108 29.065624 133.37108L30.1125 133.37108L30.1125 132.87108Q30.1125 132.30858 29.76875 131.98045Q29.440624 131.6367 28.76875 131.6367Q28.190624 131.6367 27.8 131.93358Q27.409374 132.21483 27.409374 132.6367L26.315624 132.6367Q26.315624 132.15233 26.64375 131.71483Q26.9875 131.27733 27.565624 131.02733Q28.14375 130.7617 28.83125 130.7617Q29.940624 130.7617 30.55 131.30858Q31.175 131.85545 31.20625 132.80858L31.20625 135.73045Q31.20625 136.60545 31.425 137.12108L31.425 137.21483L30.284374 137.21483ZM28.4875 136.3867Q29.003124 136.3867 29.45625 136.12108Q29.909374 135.85545 30.1125 135.43358L30.1125 134.1367L29.26875 134.1367Q27.26875 134.1367 27.26875 135.30858Q27.26875 135.80858 27.6125 136.10545Q27.95625 136.3867 28.4875 136.3867ZM34.39375 130.87108L34.425 131.66795Q35.159374 130.7617 36.33125 130.7617Q38.346874 130.7617 38.3625 133.02733L38.3625 137.21483L37.26875 137.21483L37.26875 133.0117Q37.26875 132.33983 36.95625 132.0117Q36.659374 131.68358 36.003124 131.68358Q35.471874 131.68358 35.065624 131.96483Q34.675 132.24608 34.45625 132.6992L34.45625 137.21483L33.378124 137.21483L33.378124 130.87108L34.39375 130.87108Z" fill-rule="nonzero"/><path fill="#9e9e9e" d="M22.815624 155.21483L21.7375 155.21483L21.7375 147.99608L19.55 148.79295L19.55 147.80858L22.659374 146.6367L22.815624 146.6367L22.815624 155.21483ZM26.39375 154.65233Q26.39375 154.37108 26.55 154.18358Q26.721874 153.99608 27.05 153.99608Q27.39375 153.99608 27.565624 154.18358Q27.7375 154.37108 27.7375 154.65233Q27.7375 154.91795 27.565624 155.10545Q27.39375 155.27733 27.05 155.27733Q26.721874 155.27733 26.55 155.10545Q26.39375 154.91795 26.39375 154.65233ZM33.83125 152.35545L35.01875 152.35545L35.01875 153.23045L33.83125 153.23045L33.83125 155.21483L32.753124 155.21483L32.753124 153.23045L28.8625 153.23045L28.8625 152.58983L32.675 146.68358L33.83125 146.68358L33.83125 152.35545ZM30.096874 152.35545L32.753124 152.35545L32.753124 148.16795L32.6125 148.40233L30.096874 152.35545ZM36.159374 148.3242Q36.159374 147.55858 36.64375 147.05858Q37.14375 146.55858 37.909374 146.55858Q38.690624 146.55858 39.175 147.05858Q39.659374 147.55858 39.659374 148.35545L39.659374 148.77733Q39.659374 149.54295 39.159374 150.04295Q38.675 150.52733 37.925 150.52733Q37.159374 150.52733 36.659374 150.04295Q36.159374 149.54295 36.159374 148.73045L36.159374 148.3242ZM36.971874 148.77733Q36.971874 149.23045 37.221874 149.52733Q37.4875 149.8242 37.925 149.8242Q38.346874 149.8242 38.596874 149.54295Q38.846874 149.24608 38.846874 148.74608L38.846874 148.3242Q38.846874 147.87108 38.596874 147.5742Q38.346874 147.2617 37.909374 147.2617Q37.471874 147.2617 37.221874 147.5742Q36.971874 147.87108 36.971874 148.33983L36.971874 148.77733ZM40.315624 153.12108Q40.315624 152.35545 40.8 151.87108Q41.3 151.37108 42.065624 151.37108Q42.83125 151.37108 43.315624 151.87108Q43.815624 152.35545 43.815624 153.16795L43.815624 153.5742Q43.815624 154.33983 43.33125 154.83983Q42.846874 155.33983 42.08125 155.33983Q41.315624 155.33983 40.815624 154.85545Q40.315624 154.35545 40.315624 153.54295L40.315624 153.12108ZM41.128124 153.5742Q41.128124 154.04295 41.378124 154.33983Q41.64375 154.6367 42.08125 154.6367Q42.503124 154.6367 42.753124 154.35545Q43.003124 154.05858 43.003124 153.55858L43.003124 153.12108Q43.003124 152.65233 42.7375 152.37108Q42.4875 152.0742 42.065624 152.0742Q41.64375 152.0742 41.378124 152.37108Q41.128124 152.65233 41.128124 153.15233L41.128124 153.5742ZM38.175 154.5742L37.55 154.18358L41.721874 147.5117L42.33125 147.90233L38.175 154.5742Z" fill-rule="nonzero"/><path stroke="#757575" stroke-width="1.0" stroke-linecap="butt" d="M18.55 141.71483L145.23334 141.71483L218.4436 111.73039" fill-rule="nonzero"/><path fill="#9e9e9e" d="M220.4436 111.73039C220.4436 110.625824 219.54817 109.73039 218.4436 109.73039C217.33904 109.73039 216.4436 110.625824 216.4436 111.73039C216.4436 112.83496 217.33904 113.73039 218.4436 113.73039C219.54817 113.73039 220.4436 112.83496 220.4436 111.73039" fill-rule="nonzero"/><path fill="#000000" d="M20.753124 170.21483L19.628124 170.21483L19.628124 161.68358L20.753124 161.68358L20.753124 170.21483ZM23.39375 163.87108L23.425 164.66795Q24.159374 163.7617 25.33125 163.7617Q27.346874 163.7617 27.3625 166.02733L27.3625 170.21483L26.26875 170.21483L26.26875 166.0117Q26.26875 165.33983 25.95625 165.0117Q25.659374 164.68358 25.003124 164.68358Q24.471874 164.68358 24.065624 164.96483Q23.675 165.24608 23.45625 165.6992L23.45625 170.21483L22.378124 170.21483L22.378124 163.87108L23.39375 163.87108ZM29.1125 166.99608Q29.1125 165.52733 29.8 164.65233Q30.4875 163.7617 31.6125 163.7617Q32.721874 163.7617 33.378124 164.5117L33.378124 161.21483L34.45625 161.21483L34.45625 170.21483L33.45625 170.21483L33.409374 169.52733Q32.753124 170.33983 31.596874 170.33983Q30.503124 170.33983 29.8 169.43358Q29.1125 168.52733 29.1125 167.0742L29.1125 166.99608ZM30.190624 167.12108Q30.190624 168.1992 30.628124 168.80858Q31.08125 169.41795 31.8625 169.41795Q32.89375 169.41795 33.378124 168.48045L33.378124 165.5742Q32.89375 164.68358 31.878124 164.68358Q31.08125 164.68358 30.628124 165.29295Q30.190624 165.90233 30.190624 167.12108ZM37.55 170.21483L36.471874 170.21483L36.471874 163.87108L37.55 163.87108L37.55 170.21483ZM36.378124 162.1992Q36.378124 161.93358 36.534374 161.74608Q36.70625 161.55858 37.01875 161.55858Q37.33125 161.55858 37.4875 161.74608Q37.659374 161.93358 37.659374 162.1992Q37.659374 162.4492 37.4875 162.6367Q37.33125 162.80858 37.01875 162.80858Q36.70625 162.80858 36.534374 162.6367Q36.378124 162.4492 36.378124 162.1992ZM43.284374 170.21483Q43.190624 170.02733 43.128124 169.54295Q42.378124 170.33983 41.33125 170.33983Q40.39375 170.33983 39.784374 169.80858Q39.190624 169.27733 39.190624 168.4492Q39.190624 167.46483 39.940624 166.91795Q40.690624 166.37108 42.065624 166.37108L43.1125 166.37108L43.1125 165.87108Q43.1125 165.30858 42.76875 164.98045Q42.440624 164.6367 41.76875 164.6367Q41.190624 164.6367 40.8 164.93358Q40.409374 165.21483 40.409374 165.6367L39.315624 165.6367Q39.315624 165.15233 39.64375 164.71483Q39.9875 164.27733 40.565624 164.02733Q41.14375 163.7617 41.83125 163.7617Q42.940624 163.7617 43.55 164.30858Q44.175 164.85545 44.20625 165.80858L44.20625 168.73045Q44.20625 169.60545 44.425 170.12108L44.425 170.21483L43.284374 170.21483ZM41.4875 169.3867Q42.003124 169.3867 42.45625 169.12108Q42.909374 168.85545 43.1125 168.43358L43.1125 167.1367L42.26875 167.1367Q40.26875 167.1367 40.26875 168.30858Q40.26875 168.80858 40.6125 169.10545Q40.95625 169.3867 41.4875 169.3867Z" fill-rule="nonzero"/><path fill="#9e9e9e" d="M22.815624 188.21483L21.7375 188.21483L21.7375 180.99608L19.55 181.79295L19.55 180.80858L22.659374 179.6367L22.815624 179.6367L22.815624 188.21483ZM30.83125 185.35545L32.01875 185.35545L32.01875 186.23045L30.83125 186.23045L30.83125 188.21483L29.753124 188.21483L29.753124 186.23045L25.8625 186.23045L25.8625 185.58983L29.675 179.68358L30.83125 179.68358L30.83125 185.35545ZM27.096874 185.35545L29.753124 185.35545L29.753124 181.16795L29.6125 181.40233L27.096874 185.35545ZM33.39375 187.65233Q33.39375 187.37108 33.55 187.18358Q33.721874 186.99608 34.05 186.99608Q34.39375 186.99608 34.565624 187.18358Q34.7375 187.37108 34.7375 187.65233Q34.7375 187.91795 34.565624 188.10545Q34.39375 188.27733 34.05 188.27733Q33.721874 188.27733 33.55 188.10545Q33.39375 187.91795 33.39375 187.65233ZM41.76875 180.29295L38.2375 188.21483L37.096874 188.21483L40.6125 180.5742L36.003124 180.5742L36.003124 179.68358L41.76875 179.68358L41.76875 180.29295ZM43.159374 181.3242Q43.159374 180.55858 43.64375 180.05858Q44.14375 179.55858 44.909374 179.55858Q45.690624 179.55858 46.175 180.05858Q46.659374 180.55858 46.659374 181.35545L46.659374 181.77733Q46.659374 182.54295 46.159374 183.04295Q45.675 183.52733 44.925 183.52733Q44.159374 183.52733 43.659374 183.04295Q43.159374 182.54295 43.159374 181.73045L43.159374 181.3242ZM43.971874 181.77733Q43.971874 182.23045 44.221874 182.52733Q44.4875 182.8242 44.925 182.8242Q45.346874 182.8242 45.596874 182.54295Q45.846874 182.24608 45.846874 181.74608L45.846874 181.3242Q45.846874 180.87108 45.596874 180.5742Q45.346874 180.2617 44.909374 180.2617Q44.471874 180.2617 44.221874 180.5742Q43.971874 180.87108 43.971874 181.33983L43.971874 181.77733ZM47.315624 186.12108Q47.315624 185.35545 47.8 184.87108Q48.3 184.37108 49.065624 184.37108Q49.83125 184.37108 50.315624 184.87108Q50.815624 185.35545 50.815624 186.16795L50.815624 186.5742Q50.815624 187.33983 50.33125 187.83983Q49.846874 188.33983 49.08125 188.33983Q48.315624 188.33983 47.815624 187.85545Q47.315624 187.35545 47.315624 186.54295L47.315624 186.12108ZM48.128124 186.5742Q48.128124 187.04295 48.378124 187.33983Q48.64375 187.6367 49.08125 187.6367Q49.503124 187.6367 49.753124 187.35545Q50.003124 187.05858 50.003124 186.55858L50.003124 186.12108Q50.003124 185.65233 49.7375 185.37108Q49.4875 185.0742 49.065624 185.0742Q48.64375 185.0742 48.378124 185.37108Q48.128124 185.65233 48.128124 186.15233L48.128124 186.5742ZM45.175 187.5742L44.55 187.18358L48.721874 180.5117L49.33125 180.90233L45.175 187.5742Z" fill-rule="nonzero"/><path stroke="#757575" stroke-width="1.0" stroke-linecap="butt" d="M18.55 174.71483L145.23334 174.71483L170.18454 153.41565" fill-rule="nonzero"/><path fill="#9e9e9e" d="M172.18454 153.41565C172.18454 152.31108 171.28911 151.41565 170.18454 151.41565C169.07997 151.41565 168.18454 152.31108 168.18454 153.41565C168.18454 154.52022 169.07997 155.41565 170.18454 155.41565C171.28911 155.41565 172.18454 154.52022 172.18454 153.41565" fill-rule="nonzero"/><path fill="#000000" d="M549.15314 87.24336L545.575 87.24336L544.77814 89.47774L543.6219 89.47774L546.8719 80.94649L547.85626 80.94649L551.1219 89.47774L549.96564 89.47774L549.15314 87.24336ZM545.91876 86.32149L548.825 86.32149L547.3719 82.33711L545.91876 86.32149ZM553.45 89.47774L552.3719 89.47774L552.3719 80.47774L553.45 80.47774L553.45 89.47774ZM555.0125 86.25899Q555.0125 84.77461 555.7 83.89961Q556.3875 83.02461 557.5125 83.02461Q558.66876 83.02461 559.325 83.83711L559.3719 83.13399L560.3719 83.13399L560.3719 89.32149Q560.3719 90.55586 559.6375 91.25899Q558.90314 91.97774 557.6844 91.97774Q556.9969 91.97774 556.34064 91.68086Q555.6844 91.38399 555.34064 90.88399L555.90314 90.22774Q556.59064 91.08711 557.60626 91.08711Q558.3875 91.08711 558.825 90.63399Q559.27814 90.19649 559.27814 89.38399L559.27814 88.83711Q558.6219 89.60274 557.4969 89.60274Q556.3875 89.60274 555.7 88.71211Q555.0125 87.80586 555.0125 86.25899ZM556.10626 86.38399Q556.10626 87.44649 556.54376 88.07149Q556.98126 88.68086 557.77814 88.68086Q558.79376 88.68086 559.27814 87.74336L559.27814 84.85274Q558.77814 83.94649 557.77814 83.94649Q556.9969 83.94649 556.54376 84.55586Q556.10626 85.16524 556.10626 86.38399ZM564.90314 89.60274Q563.60626 89.60274 562.79376 88.75899Q561.9969 87.89961 561.9969 86.47774L561.9969 86.29024Q561.9969 85.33711 562.35626 84.60274Q562.71564 83.85274 563.35626 83.44649Q564.0125 83.02461 564.7625 83.02461Q565.9969 83.02461 566.6844 83.83711Q567.3719 84.64961 567.3719 86.16524L567.3719 86.61836L563.075 86.61836Q563.10626 87.55586 563.6219 88.13399Q564.15314 88.71211 564.96564 88.71211Q565.52814 88.71211 565.91876 88.47774Q566.325 88.24336 566.6375 87.85274L567.29376 88.36836Q566.4969 89.60274 564.90314 89.60274ZM564.7625 83.91524Q564.10626 83.91524 563.65314 84.39961Q563.21564 84.86836 563.1219 85.72774L566.29376 85.72774L566.29376 85.64961Q566.2469 84.82149 565.84064 84.36836Q565.45 83.91524 564.7625 83.91524ZM571.34064 84.10274Q571.09064 84.07149 570.8094 84.07149Q569.73126 84.07149 569.35626 84.97774L569.35626 89.47774L568.27814 89.47774L568.27814 83.13399L569.325 83.13399L569.34064 83.86836Q569.8719 83.02461 570.85626 83.02461Q571.16876 83.02461 571.34064 83.10274L571.34064 84.10274ZM573.45 89.47774L572.3719 89.47774L572.3719 83.13399L573.45 83.13399L573.45 89.47774ZM572.27814 81.46211Q572.27814 81.19649 572.4344 81.00899Q572.60626 80.82149 572.91876 80.82149Q573.23126 80.82149 573.3875 81.00899Q573.5594 81.19649 573.5594 81.46211Q573.5594 81.71211 573.3875 81.89961Q573.23126 82.07149 572.91876 82.07149Q572.60626 82.07149 572.4344 81.89961Q572.27814 81.71211 572.27814 81.46211ZM579.1844 89.47774Q579.09064 89.29024 579.02814 88.80586Q578.27814 89.60274 577.23126 89.60274Q576.29376 89.60274 575.6844 89.07149Q575.09064 88.54024 575.09064 87.71211Q575.09064 86.72774 575.84064 86.18086Q576.59064 85.63399 577.96564 85.63399L579.0125 85.63399L579.0125 85.13399Q579.0125 84.57149 578.66876 84.24336Q578.34064 83.89961 577.66876 83.89961Q577.09064 83.89961 576.7 84.19649Q576.3094 84.47774 576.3094 84.89961L575.21564 84.89961Q575.21564 84.41524 575.54376 83.97774Q575.8875 83.54024 576.46564 83.29024Q577.04376 83.02461 577.73126 83.02461Q578.84064 83.02461 579.45 83.57149Q580.075 84.11836 580.10626 85.07149L580.10626 87.99336Q580.10626 88.86836 580.325 89.38399L580.325 89.47774L579.1844 89.47774ZM577.3875 88.64961Q577.90314 88.64961 578.35626 88.38399Q578.8094 88.11836 579.0125 87.69649L579.0125 86.39961L578.16876 86.39961Q576.16876 86.39961 576.16876 87.57149Q576.16876 88.07149 576.5125 88.36836Q576.85626 88.64961 577.3875 88.64961Z" fill-rule="nonzero"/><path fill="#9e9e9e" d="M559.71564 107.47774L558.6375 107.47774L558.6375 100.25899L556.45 101.05586L556.45 100.07149L559.5594 98.89961L559.71564 98.89961L559.71564 107.47774ZM563.29376 106.91524Q563.29376 106.63399 563.45 106.44649Q563.6219 106.25899 563.95 106.25899Q564.29376 106.25899 564.46564 106.44649Q564.6375 106.63399 564.6375 106.91524Q564.6375 107.18086 564.46564 107.36836Q564.29376 107.54024 563.95 107.54024Q563.6219 107.54024 563.45 107.36836Q563.29376 107.18086 563.29376 106.91524ZM570.73126 104.61836L571.91876 104.61836L571.91876 105.49336L570.73126 105.49336L570.73126 107.47774L569.65314 107.47774L569.65314 105.49336L565.7625 105.49336L565.7625 104.85274L569.575 98.94649L570.73126 98.94649L570.73126 104.61836ZM566.9969 104.61836L569.65314 104.61836L569.65314 100.43086L569.5125 100.66524L566.9969 104.61836ZM573.0594 100.58711Q573.0594 99.82149 573.54376 99.32149Q574.04376 98.82149 574.8094 98.82149Q575.59064 98.82149 576.075 99.32149Q576.5594 99.82149 576.5594 100.61836L576.5594 101.04024Q576.5594 101.80586 576.0594 102.30586Q575.575 102.79024 574.825 102.79024Q574.0594 102.79024 573.5594 102.30586Q573.0594 101.80586 573.0594 100.99336L573.0594 100.58711ZM573.8719 101.04024Q573.8719 101.49336 574.1219 101.79024Q574.3875 102.08711 574.825 102.08711Q575.2469 102.08711 575.4969 101.80586Q575.7469 101.50899 575.7469 101.00899L575.7469 100.58711Q575.7469 100.13399 575.4969 99.83711Q575.2469 99.52461 574.8094 99.52461Q574.3719 99.52461 574.1219 99.83711Q573.8719 100.13399 573.8719 100.60274L573.8719 101.04024ZM577.21564 105.38399Q577.21564 104.61836 577.7 104.13399Q578.2 103.63399 578.96564 103.63399Q579.73126 103.63399 580.21564 104.13399Q580.71564 104.61836 580.71564 105.43086L580.71564 105.83711Q580.71564 106.60274 580.23126 107.10274Q579.7469 107.60274 578.98126 107.60274Q578.21564 107.60274 577.71564 107.11836Q577.21564 106.61836 577.21564 105.80586L577.21564 105.38399ZM578.02814 105.83711Q578.02814 106.30586 578.27814 106.60274Q578.54376 106.89961 578.98126 106.89961Q579.40314 106.89961 579.65314 106.61836Q579.90314 106.32149 579.90314 105.82149L579.90314 105.38399Q579.90314 104.91524 579.6375 104.63399Q579.3875 104.33711 578.96564 104.33711Q578.54376 104.33711 578.27814 104.63399Q578.02814 104.91524 578.02814 105.41524L578.02814 105.83711ZM575.075 106.83711L574.45 106.44649L578.6219 99.77461L579.23126 100.16524L575.075 106.83711Z" fill-rule="nonzero"/><path stroke="#757575" stroke-width="1.0" stroke-linecap="butt" d="M581.45 93.97774L454.76666 93.97774L312.4035 93.97774" fill-rule="nonzero"/><path fill="#9e9e9e" d="M314.4035 93.97774C314.4035 92.87317 313.50806 91.97774 312.4035 91.97774C311.29892 91.97774 310.4035 92.87317 310.4035 93.97774C310.4035 95.082306 311.29892 95.97774 312.4035 95.97774C313.50806 95.97774 314.4035 95.082306 314.4035 93.97774" fill-rule="nonzero"/><path fill="#000000" d="M518.4344 260.61688L518.4344 252.08563L521.23126 252.08563Q522.6219 252.08563 523.3094 252.66376Q524.0125 253.22626 524.0125 254.35126Q524.0125 254.96063 523.66876 255.42938Q523.34064 255.8825 522.7469 256.1325Q523.45 256.32 523.84064 256.86688Q524.2469 257.39813 524.2469 258.14813Q524.2469 259.30438 523.4969 259.96063Q522.7625 260.61688 521.40314 260.61688L518.4344 260.61688ZM519.5594 256.6325L519.5594 259.695L521.41876 259.695Q522.21564 259.695 522.66876 259.28876Q523.1219 258.8825 523.1219 258.16376Q523.1219 256.6325 521.4344 256.6325L519.5594 256.6325ZM519.5594 255.72626L521.2625 255.72626Q521.9969 255.72626 522.4344 255.36688Q522.8875 254.99188 522.8875 254.35126Q522.8875 253.64813 522.48126 253.33563Q522.075 253.0075 521.23126 253.0075L519.5594 253.0075L519.5594 255.72626ZM529.1844 260.61688Q529.09064 260.42938 529.02814 259.945Q528.27814 260.74188 527.23126 260.74188Q526.29376 260.74188 525.6844 260.21063Q525.09064 259.67938 525.09064 258.85126Q525.09064 257.86688 525.84064 257.32Q526.59064 256.77313 527.96564 256.77313L529.0125 256.77313L529.0125 256.27313Q529.0125 255.71063 528.66876 255.3825Q528.34064 255.03876 527.66876 255.03876Q527.09064 255.03876 526.7 255.33563Q526.3094 255.61688 526.3094 256.03876L525.21564 256.03876Q525.21564 255.55438 525.54376 255.11688Q525.8875 254.67938 526.46564 254.42938Q527.04376 254.16376 527.73126 254.16376Q528.84064 254.16376 529.45 254.71063Q530.075 255.2575 530.10626 256.21063L530.10626 259.1325Q530.10626 260.0075 530.325 260.52313L530.325 260.61688L529.1844 260.61688ZM527.3875 259.78876Q527.90314 259.78876 528.35626 259.52313Q528.8094 259.2575 529.0125 258.83563L529.0125 257.53876L528.16876 257.53876Q526.16876 257.53876 526.16876 258.71063Q526.16876 259.21063 526.5125 259.5075Q526.85626 259.78876 527.3875 259.78876ZM533.29376 254.27313L533.325 255.07Q534.0594 254.16376 535.23126 254.16376Q537.2469 254.16376 537.2625 256.42938L537.2625 260.61688L536.16876 260.61688L536.16876 256.41376Q536.16876 255.74188 535.85626 255.41376Q535.5594 255.08563 534.90314 255.08563Q534.3719 255.08563 533.96564 255.36688Q533.575 255.64813 533.35626 256.10126L533.35626 260.61688L532.27814 260.61688L532.27814 254.27313L533.29376 254.27313ZM539.0125 257.39813Q539.0125 255.91376 539.7 255.03876Q540.3875 254.16376 541.5125 254.16376Q542.66876 254.16376 543.325 254.97626L543.3719 254.27313L544.3719 254.27313L544.3719 260.46063Q544.3719 261.695 543.6375 262.39813Q542.90314 263.11688 541.6844 263.11688Q540.9969 263.11688 540.34064 262.82Q539.6844 262.52313 539.34064 262.02313L539.90314 261.36688Q540.59064 262.22626 541.60626 262.22626Q542.3875 262.22626 542.825 261.77313Q543.27814 261.33563 543.27814 260.52313L543.27814 259.97626Q542.6219 260.74188 541.4969 260.74188Q540.3875 260.74188 539.7 259.85126Q539.0125 258.945 539.0125 257.39813ZM540.10626 257.52313Q540.10626 258.58563 540.54376 259.21063Q540.98126 259.82 541.77814 259.82Q542.79376 259.82 543.27814 258.8825L543.27814 255.99188Q542.77814 255.08563 541.77814 255.08563Q540.9969 255.08563 540.54376 255.695Q540.10626 256.30438 540.10626 257.52313ZM547.45 260.61688L546.3719 260.61688L546.3719 251.61688L547.45 251.61688L547.45 260.61688ZM553.1844 260.61688Q553.09064 260.42938 553.02814 259.945Q552.27814 260.74188 551.23126 260.74188Q550.29376 260.74188 549.6844 260.21063Q549.09064 259.67938 549.09064 258.85126Q549.09064 257.86688 549.84064 257.32Q550.59064 256.77313 551.96564 256.77313L553.0125 256.77313L553.0125 256.27313Q553.0125 255.71063 552.66876 255.3825Q552.34064 255.03876 551.66876 255.03876Q551.09064 255.03876 550.7 255.33563Q550.3094 255.61688 550.3094 256.03876L549.21564 256.03876Q549.21564 255.55438 549.54376 255.11688Q549.8875 254.67938 550.46564 254.42938Q551.04376 254.16376 551.73126 254.16376Q552.84064 254.16376 553.45 254.71063Q554.075 255.2575 554.10626 256.21063L554.10626 259.1325Q554.10626 260.0075 554.325 260.52313L554.325 260.61688L553.1844 260.61688ZM551.3875 259.78876Q551.90314 259.78876 552.35626 259.52313Q552.8094 259.2575 553.0125 258.83563L553.0125 257.53876L552.16876 257.53876Q550.16876 257.53876 550.16876 258.71063Q550.16876 259.21063 550.5125 259.5075Q550.85626 259.78876 551.3875 259.78876ZM556.0125 257.39813Q556.0125 255.92938 556.7 255.05438Q557.3875 254.16376 558.5125 254.16376Q559.6219 254.16376 560.27814 254.91376L560.27814 251.61688L561.35626 251.61688L561.35626 260.61688L560.35626 260.61688L560.3094 259.92938Q559.65314 260.74188 558.4969 260.74188Q557.40314 260.74188 556.7 259.83563Q556.0125 258.92938 556.0125 257.47626L556.0125 257.39813ZM557.09064 257.52313Q557.09064 258.60126 557.52814 259.21063Q557.98126 259.82 558.7625 259.82Q559.79376 259.82 560.27814 258.8825L560.27814 255.97626Q559.79376 255.08563 558.77814 255.08563Q557.98126 255.08563 557.52814 255.695Q557.09064 256.30438 557.09064 257.52313ZM565.90314 260.74188Q564.60626 260.74188 563.79376 259.89813Q562.9969 259.03876 562.9969 257.61688L562.9969 257.42938Q562.9969 256.47626 563.35626 255.74188Q563.71564 254.99188 564.35626 254.58563Q565.0125 254.16376 565.7625 254.16376Q566.9969 254.16376 567.6844 254.97626Q568.3719 255.78876 568.3719 257.30438L568.3719 257.7575L564.075 257.7575Q564.10626 258.695 564.6219 259.27313Q565.15314 259.85126 565.96564 259.85126Q566.52814 259.85126 566.91876 259.61688Q567.325 259.3825 567.6375 258.99188L568.29376 259.5075Q567.4969 260.74188 565.90314 260.74188ZM565.7625 255.05438Q565.10626 255.05438 564.65314 255.53876Q564.21564 256.0075 564.1219 256.86688L567.29376 256.86688L567.29376 256.78876Q567.2469 255.96063 566.84064 255.5075Q566.45 255.05438 565.7625 255.05438ZM572.96564 258.92938Q572.96564 258.49188 572.6219 258.2575Q572.29376 258.0075 571.46564 257.83563Q570.65314 257.66376 570.16876 257.41376Q569.6844 257.16376 569.45 256.83563Q569.23126 256.49188 569.23126 256.02313Q569.23126 255.24188 569.8875 254.71063Q570.54376 254.16376 571.575 254.16376Q572.65314 254.16376 573.3094 254.72626Q573.98126 255.27313 573.98126 256.1325L572.90314 256.1325Q572.90314 255.695 572.5125 255.3825Q572.1375 255.05438 571.575 255.05438Q570.98126 255.05438 570.6375 255.32Q570.3094 255.57 570.3094 255.97626Q570.3094 256.36688 570.6219 256.57Q570.9344 256.77313 571.7469 256.96063Q572.5594 257.1325 573.0594 257.3825Q573.5594 257.6325 573.79376 257.99188Q574.04376 258.35126 574.04376 258.85126Q574.04376 259.71063 573.35626 260.22626Q572.6844 260.74188 571.60626 260.74188Q570.84064 260.74188 570.2469 260.47626Q569.66876 260.195 569.34064 259.71063Q569.0125 259.22626 569.0125 258.66376L570.09064 258.66376Q570.1219 259.21063 570.52814 259.53876Q570.9344 259.85126 571.60626 259.85126Q572.21564 259.85126 572.59064 259.60126Q572.96564 259.35126 572.96564 258.92938ZM576.35626 255.03876Q577.075 254.16376 578.23126 254.16376Q580.2469 254.16376 580.2625 256.42938L580.2625 260.61688L579.16876 260.61688L579.16876 256.41376Q579.16876 255.74188 578.85626 255.41376Q578.5594 255.08563 577.90314 255.08563Q577.3719 255.08563 576.96564 255.36688Q576.575 255.64813 576.35626 256.10126L576.35626 260.61688L575.27814 260.61688L575.27814 251.61688L576.35626 251.61688L576.35626 255.03876Z" fill-rule="nonzero"/><path fill="#9e9e9e" d="M554.66876 270.695L551.1375 278.61688L549.9969 278.61688L553.5125 270.97626L548.90314 270.97626L548.90314 270.08563L554.66876 270.08563L554.66876 270.695ZM561.5125 274.97626Q561.5125 276.8825 560.85626 277.82Q560.21564 278.74188 558.825 278.74188Q557.46564 278.74188 556.8094 277.83563Q556.15314 276.92938 556.1219 275.11688L556.1219 273.67938Q556.1219 271.78876 556.7625 270.8825Q557.41876 269.96063 558.8094 269.96063Q560.1844 269.96063 560.84064 270.85126Q561.4969 271.72626 561.5125 273.57L561.5125 274.97626ZM560.41876 273.49188Q560.41876 272.11688 560.02814 271.49188Q559.65314 270.85126 558.8094 270.85126Q557.98126 270.85126 557.59064 271.49188Q557.21564 272.11688 557.21564 273.41376L557.21564 275.14813Q557.21564 276.52313 557.60626 277.195Q558.0125 277.85126 558.825 277.85126Q559.6219 277.85126 560.0125 277.22626Q560.40314 276.60126 560.41876 275.27313L560.41876 273.49188ZM563.29376 278.05438Q563.29376 277.77313 563.45 277.58563Q563.6219 277.39813 563.95 277.39813Q564.29376 277.39813 564.46564 277.58563Q564.6375 277.77313 564.6375 278.05438Q564.6375 278.32 564.46564 278.5075Q564.29376 278.67938 563.95 278.67938Q563.6219 278.67938 563.45 278.5075Q563.29376 278.32 563.29376 278.05438ZM570.41876 270.08563L570.41876 270.99188L570.21564 270.99188Q568.95 271.02313 568.2 271.7575Q567.45 272.47626 567.325 273.78876Q568.0125 273.02313 569.16876 273.02313Q570.27814 273.02313 570.95 273.80438Q571.6219 274.58563 571.6219 275.83563Q571.6219 277.14813 570.90314 277.945Q570.1844 278.74188 568.96564 278.74188Q567.7469 278.74188 566.98126 277.80438Q566.23126 276.85126 566.23126 275.36688L566.23126 274.96063Q566.23126 272.60126 567.23126 271.35126Q568.23126 270.10126 570.21564 270.08563L570.41876 270.08563ZM568.9969 273.92938Q568.4344 273.92938 567.96564 274.2575Q567.4969 274.58563 567.3094 275.10126L567.3094 275.49188Q567.3094 276.55438 567.77814 277.195Q568.2625 277.83563 568.96564 277.83563Q569.7 277.83563 570.1219 277.30438Q570.54376 276.7575 570.54376 275.8825Q570.54376 275.0075 570.1219 274.47626Q569.7 273.92938 568.9969 273.92938ZM573.0594 271.72626Q573.0594 270.96063 573.54376 270.46063Q574.04376 269.96063 574.8094 269.96063Q575.59064 269.96063 576.075 270.46063Q576.5594 270.96063 576.5594 271.7575L576.5594 272.17938Q576.5594 272.945 576.0594 273.445Q575.575 273.92938 574.825 273.92938Q574.0594 273.92938 573.5594 273.445Q573.0594 272.945 573.0594 272.1325L573.0594 271.72626ZM573.8719 272.17938Q573.8719 272.6325 574.1219 272.92938Q574.3875 273.22626 574.825 273.22626Q575.2469 273.22626 575.4969 272.945Q575.7469 272.64813 575.7469 272.14813L575.7469 271.72626Q575.7469 271.27313 575.4969 270.97626Q575.2469 270.66376 574.8094 270.66376Q574.3719 270.66376 574.1219 270.97626Q573.8719 271.27313 573.8719 271.74188L573.8719 272.17938ZM577.21564 276.52313Q577.21564 275.7575 577.7 275.27313Q578.2 274.77313 578.96564 274.77313Q579.73126 274.77313 580.21564 275.27313Q580.71564 275.7575 580.71564 276.57L580.71564 276.97626Q580.71564 277.74188 580.23126 278.24188Q579.7469 278.74188 578.98126 278.74188Q578.21564 278.74188 577.71564 278.2575Q577.21564 277.7575 577.21564 276.945L577.21564 276.52313ZM578.02814 276.97626Q578.02814 277.445 578.27814 277.74188Q578.54376 278.03876 578.98126 278.03876Q579.40314 278.03876 579.65314 277.7575Q579.90314 277.46063 579.90314 276.96063L579.90314 276.52313Q579.90314 276.05438 579.6375 275.77313Q579.3875 275.47626 578.96564 275.47626Q578.54376 275.47626 578.27814 275.77313Q578.02814 276.05438 578.02814 276.55438L578.02814 276.97626ZM575.075 277.97626L574.45 277.58563L578.6219 270.91376L579.23126 271.30438L575.075 277.97626Z" fill-rule="nonzero"/><path stroke="#757575" stroke-width="1.0" stroke-linecap="butt" d="M581.45 265.11688L454.76666 265.11688L396.01926 265.11688" fill-rule="nonzero"/><path fill="#9e9e9e" d="M398.01926 265.11688C398.01926 264.01233 397.1238 263.11688 396.01926 263.11688C394.91467 263.11688 394.01926 264.01233 394.01926 265.11688C394.01926 266.22147 394.91467 267.11688 396.01926 267.11688C397.1238 267.11688 398.01926 266.22147 398.01926 265.11688" fill-rule="nonzero"/><path fill="#000000" d="M30.70625 35.690624Q29.971874 36.721874 28.675 37.2375Q27.39375 37.753124 25.675 37.753124Q23.925 37.753124 22.58125 36.940624Q21.2375 36.1125 20.503124 34.6125Q19.76875 33.1125 19.7375 31.128124L19.7375 29.878124Q19.7375 26.675 21.2375 24.909374Q22.7375 23.128124 25.45625 23.128124Q27.675 23.128124 29.034374 24.26875Q30.39375 25.409374 30.70625 27.503124L28.83125 27.503124Q28.3 24.675 25.471874 24.675Q23.58125 24.675 22.6125 26.003124Q21.64375 27.33125 21.628124 29.83125L21.628124 31.003124Q21.628124 33.39375 22.721874 34.8Q23.815624 36.20625 25.675 36.20625Q26.7375 36.20625 27.51875 35.971874Q28.315624 35.7375 28.83125 35.190624L28.83125 31.9875L25.55 31.9875L25.55 30.471874L30.70625 30.471874L30.70625 35.690624ZM35.878124 37.55L34.08125 37.55L34.08125 22.55L35.878124 22.55L35.878124 37.55ZM38.440624 32.175Q38.440624 30.6125 39.05 29.378124Q39.659374 28.128124 40.7375 27.45625Q41.83125 26.784374 43.2375 26.784374Q45.39375 26.784374 46.721874 28.284374Q48.065624 29.76875 48.065624 32.253124L48.065624 32.378124Q48.065624 33.925 47.471874 35.159374Q46.878124 36.378124 45.76875 37.065624Q44.675 37.753124 43.253124 37.753124Q41.1125 37.753124 39.76875 36.253124Q38.440624 34.753124 38.440624 32.3L38.440624 32.175ZM40.253124 32.378124Q40.253124 34.14375 41.065624 35.20625Q41.89375 36.26875 43.253124 36.26875Q44.628124 36.26875 45.440624 35.190624Q46.253124 34.1125 46.253124 32.175Q46.253124 30.425 45.425 29.346874Q44.596874 28.26875 43.2375 28.26875Q41.89375 28.26875 41.065624 29.33125Q40.253124 30.39375 40.253124 32.378124ZM58.8625 32.378124Q58.8625 34.8 57.753124 36.284374Q56.64375 37.753124 54.76875 37.753124Q52.753124 37.753124 51.659374 36.33125L51.58125 37.55L49.925 37.55L49.925 22.55L51.721874 22.55L51.721874 28.14375Q52.815624 26.784374 54.7375 26.784374Q56.659374 26.784374 57.753124 28.2375Q58.8625 29.690624 58.8625 32.221874L58.8625 32.378124ZM57.05 32.175Q57.05 30.33125 56.33125 29.33125Q55.628124 28.315624 54.3 28.315624Q52.503124 28.315624 51.721874 29.9875L51.721874 34.55Q52.55 36.20625 54.315624 36.20625Q55.6125 36.20625 56.33125 35.20625Q57.05 34.20625 57.05 32.175ZM67.44063 37.55Q67.28438 37.2375 67.19063 36.440624Q65.925 37.753124 64.175 37.753124Q62.6125 37.753124 61.6125 36.8625Q60.6125 35.971874 60.6125 34.6125Q60.6125 32.971874 61.8625 32.065624Q63.128124 31.14375 65.39375 31.14375L67.15938 31.14375L67.15938 30.315624Q67.15938 29.3625 66.58125 28.8Q66.01875 28.2375 64.925 28.2375Q63.95625 28.2375 63.3 28.7375Q62.64375 29.221874 62.64375 29.909374L60.83125 29.909374Q60.83125 29.128124 61.39375 28.39375Q61.95625 27.64375 62.909374 27.221874Q63.878124 26.784374 65.03438 26.784374Q66.8625 26.784374 67.89375 27.70625Q68.925 28.6125 68.97188 30.221874L68.97188 35.08125Q68.97188 36.534374 69.33125 37.39375L69.33125 37.55L67.44063 37.55ZM64.44063 36.175Q65.3 36.175 66.05 35.7375Q66.81563 35.3 67.15938 34.596874L67.15938 32.425L65.7375 32.425Q62.425 32.425 62.425 34.3625Q62.425 35.221874 62.9875 35.70625Q63.55 36.175 64.44063 36.175ZM73.87813 37.55L72.08125 37.55L72.08125 22.55L73.87813 22.55L73.87813 37.55ZM86.39375 31.20625Q83.97188 30.51875 82.87813 29.51875Q81.78438 28.503124 81.78438 27.01875Q81.78438 25.33125 83.12813 24.2375Q84.47188 23.128124 86.6125 23.128124Q88.08125 23.128124 89.22188 23.70625Q90.37813 24.26875 91.00313 25.26875Q91.62813 26.253124 91.62813 27.440624L89.75313 27.440624Q89.75313 26.159374 88.925 25.425Q88.1125 24.675 86.6125 24.675Q85.22188 24.675 84.44063 25.284374Q83.675 25.89375 83.675 26.9875Q83.675 27.846874 84.40938 28.45625Q85.14375 29.05 86.90938 29.55Q88.69063 30.05 89.69063 30.659374Q90.69063 31.253124 91.175 32.05Q91.65938 32.846874 91.65938 33.940624Q91.65938 35.659374 90.31563 36.70625Q88.97188 37.753124 86.70625 37.753124Q85.25313 37.753124 83.97188 37.190624Q82.70625 36.628124 82.01875 35.659374Q81.33125 34.675 81.33125 33.425L83.22188 33.425Q83.22188 34.721874 84.175 35.471874Q85.12813 36.20625 86.70625 36.20625Q88.19063 36.20625 88.9875 35.6125Q89.78438 35.003124 89.78438 33.95625Q89.78438 32.909374 89.05 32.346874Q88.31563 31.76875 86.39375 31.20625ZM93.44063 32.175Q93.44063 30.6125 94.05 29.378124Q94.65938 28.128124 95.7375 27.45625Q96.83125 26.784374 98.2375 26.784374Q100.39375 26.784374 101.72188 28.284374Q103.06563 29.76875 103.06563 32.253124L103.06563 32.378124Q103.06563 33.925 102.47188 35.159374Q101.87813 36.378124 100.76875 37.065624Q99.675 37.753124 98.25313 37.753124Q96.1125 37.753124 94.76875 36.253124Q93.44063 34.753124 93.44063 32.3L93.44063 32.175ZM95.25313 32.378124Q95.25313 34.14375 96.06563 35.20625Q96.89375 36.26875 98.25313 36.26875Q99.62813 36.26875 100.44063 35.190624Q101.25313 34.1125 101.25313 32.175Q101.25313 30.425 100.425 29.346874Q99.59688 28.26875 98.2375 28.26875Q96.89375 28.26875 96.06563 29.33125Q95.25313 30.39375 95.25313 32.378124ZM111.44063 36.503124Q110.39375 37.753124 108.34688 37.753124Q106.65938 37.753124 105.76875 36.76875Q104.89375 35.784374 104.87813 33.8625L104.87813 26.9875L106.69063 26.9875L106.69063 33.815624Q106.69063 36.20625 108.64375 36.20625Q110.70625 36.20625 111.39375 34.675L111.39375 26.9875L113.20625 26.9875L113.20625 37.55L111.4875 37.55L111.44063 36.503124ZM118.3625 24.425L118.3625 26.9875L120.34688 26.9875L120.34688 28.378124L118.3625 28.378124L118.3625 34.925Q118.3625 35.565624 118.62813 35.89375Q118.89375 36.20625 119.53438 36.20625Q119.84688 36.20625 120.39375 36.08125L120.39375 37.55Q119.675 37.753124 119.00313 37.753124Q117.8 37.753124 117.175 37.01875Q116.56563 36.284374 116.56563 34.925L116.56563 28.378124L114.64375 28.378124L114.64375 26.9875L116.56563 26.9875L116.56563 24.425L118.3625 24.425ZM124.72188 28.26875Q125.925 26.784374 127.84688 26.784374Q131.20625 26.784374 131.22188 30.565624L131.22188 37.55L129.425 37.55L129.425 30.55Q129.40938 29.409374 128.89375 28.8625Q128.39375 28.315624 127.3 28.315624Q126.425 28.315624 125.75313 28.784374Q125.09688 29.253124 124.72188 30.01875L124.72188 37.55L122.925 37.55L122.925 22.55L124.72188 22.55L124.72188 28.26875ZM149.65938 33.034374Q149.39375 35.3 147.9875 36.534374Q146.59688 37.753124 144.26875 37.753124Q141.75313 37.753124 140.22188 35.940624Q138.70625 34.128124 138.70625 31.096874L138.70625 29.7375Q138.70625 27.753124 139.40938 26.253124Q140.12813 24.753124 141.425 23.940624Q142.72188 23.128124 144.44063 23.128124Q146.70625 23.128124 148.06563 24.39375Q149.44063 25.659374 149.65938 27.89375L147.76875 27.89375Q147.53438 26.20625 146.70625 25.440624Q145.89375 24.675 144.44063 24.675Q142.64375 24.675 141.6125 26.003124Q140.59688 27.33125 140.59688 29.784374L140.59688 31.159374Q140.59688 33.471874 141.56563 34.846874Q142.53438 36.20625 144.26875 36.20625Q145.83125 36.20625 146.65938 35.503124Q147.50313 34.8 147.76875 33.034374L149.65938 33.034374ZM151.44063 32.175Q151.44063 30.6125 152.05 29.378124Q152.65938 28.128124 153.7375 27.45625Q154.83125 26.784374 156.2375 26.784374Q158.39375 26.784374 159.72188 28.284374Q161.06563 29.76875 161.06563 32.253124L161.06563 32.378124Q161.06563 33.925 160.47188 35.159374Q159.87813 36.378124 158.76875 37.065624Q157.675 37.753124 156.25313 37.753124Q154.1125 37.753124 152.76875 36.253124Q151.44063 34.753124 151.44063 32.3L151.44063 32.175ZM153.25313 32.378124Q153.25313 34.14375 154.06563 35.20625Q154.89375 36.26875 156.25313 36.26875Q157.62813 36.26875 158.44063 35.190624Q159.25313 34.1125 159.25313 32.175Q159.25313 30.425 158.425 29.346874Q157.59688 28.26875 156.2375 28.26875Q154.89375 28.26875 154.06563 29.33125Q153.25313 30.39375 153.25313 32.378124ZM169.44063 36.503124Q168.39375 37.753124 166.34688 37.753124Q164.65938 37.753124 163.76875 36.76875Q162.89375 35.784374 162.87813 33.8625L162.87813 26.9875L164.69063 26.9875L164.69063 33.815624Q164.69063 36.20625 166.64375 36.20625Q168.70625 36.20625 169.39375 34.675L169.39375 26.9875L171.20625 26.9875L171.20625 37.55L169.4875 37.55L169.44063 36.503124ZM175.62813 26.9875L175.69063 28.315624Q176.89375 26.784374 178.84688 26.784374Q182.20625 26.784374 182.22188 30.565624L182.22188 37.55L180.425 37.55L180.425 30.55Q180.40938 29.409374 179.89375 28.8625Q179.39375 28.315624 178.3 28.315624Q177.425 28.315624 176.75313 28.784374Q176.09688 29.253124 175.72188 30.01875L175.72188 37.55L173.925 37.55L173.925 26.9875L175.62813 26.9875ZM187.3625 24.425L187.3625 26.9875L189.34688 26.9875L189.34688 28.378124L187.3625 28.378124L187.3625 34.925Q187.3625 35.565624 187.62813 35.89375Q187.89375 36.20625 188.53438 36.20625Q188.84688 36.20625 189.39375 36.08125L189.39375 37.55Q188.675 37.753124 188.00313 37.753124Q186.8 37.753124 186.175 37.01875Q185.56563 36.284374 185.56563 34.925L185.56563 28.378124L183.64375 28.378124L183.64375 26.9875L185.56563 26.9875L185.56563 24.425L187.3625 24.425ZM197.01875 28.596874Q196.6125 28.534374 196.14375 28.534374Q194.3625 28.534374 193.72188 30.05L193.72188 37.55L191.925 37.55L191.925 26.9875L193.675 26.9875L193.70625 28.20625Q194.59688 26.784374 196.22188 26.784374Q196.75313 26.784374 197.01875 26.925L197.01875 28.596874ZM200.87813 37.55L199.08125 37.55L199.08125 26.9875L200.87813 26.9875L200.87813 37.55ZM198.925 24.175Q198.925 23.7375 199.19063 23.440624Q199.47188 23.128124 199.9875 23.128124Q200.51875 23.128124 200.78438 23.440624Q201.06563 23.7375 201.06563 24.175Q201.06563 24.6125 200.78438 24.909374Q200.51875 25.20625 199.9875 25.20625Q199.47188 25.20625 199.19063 24.909374Q198.925 24.6125 198.925 24.175ZM208.3 37.753124Q206.15938 37.753124 204.8 36.346874Q203.45625 34.925 203.45625 32.565624L203.45625 32.221874Q203.45625 30.659374 204.05 29.425Q204.65938 28.190624 205.7375 27.4875Q206.81563 26.784374 208.08125 26.784374Q210.14375 26.784374 211.28438 28.14375Q212.425 29.503124 212.425 32.034374L212.425 32.784374L205.26875 32.784374Q205.3 34.346874 206.175 35.315624Q207.05 36.26875 208.39375 36.26875Q209.3625 36.26875 210.01875 35.878124Q210.69063 35.4875 211.19063 34.846874L212.28438 35.70625Q210.95625 37.753124 208.3 37.753124ZM208.08125 28.26875Q206.9875 28.26875 206.2375 29.065624Q205.50313 29.8625 205.33125 31.3L210.6125 31.3L210.6125 31.159374Q210.53438 29.784374 209.8625 29.034374Q209.20625 28.26875 208.08125 28.26875ZM221.06563 34.753124Q221.06563 34.01875 220.51875 33.6125Q219.97188 33.20625 218.59688 32.909374Q217.22188 32.6125 216.40938 32.20625Q215.6125 31.8 215.22188 31.2375Q214.84688 30.659374 214.84688 29.878124Q214.84688 28.58125 215.94063 27.690624Q217.03438 26.784374 218.75313 26.784374Q220.55 26.784374 221.65938 27.721874Q222.78438 28.64375 222.78438 30.08125L220.95625 30.08125Q220.95625 29.346874 220.33125 28.815624Q219.70625 28.26875 218.75313 28.26875Q217.75313 28.26875 217.19063 28.70625Q216.64375 29.128124 216.64375 29.83125Q216.64375 30.471874 217.15938 30.815624Q217.675 31.14375 219.03438 31.45625Q220.39375 31.753124 221.22188 32.175Q222.06563 32.58125 222.47188 33.175Q222.87813 33.76875 222.87813 34.6125Q222.87813 36.034374 221.7375 36.89375Q220.6125 37.753124 218.8 37.753124Q217.53438 37.753124 216.55 37.3Q215.58125 36.846874 215.01875 36.05Q214.47188 35.2375 214.47188 34.3L216.28438 34.3Q216.33125 35.20625 217.00313 35.7375Q217.69063 36.26875 218.8 36.26875Q219.83125 36.26875 220.44063 35.8625Q221.06563 35.440624 221.06563 34.753124Z" fill-rule="nonzero"/></svg>