<svg version="1.1" viewBox="0.0 0.0 600.0 371.0" fill="none" stroke="none" stroke-linecap="square" stroke-miterlimit="10" width="600" height="371" xmlns:xlink="http://www.w3.org/1999/xlink" xmlns="http://www.w3.org/2000/svg"><path fill="#ffffff" d="M0 0L600.0 0L600.0 371.0L0 371.0L0 0Z" fill-rule="nonzero"/><path fill="#3c78d8" d="M300.0 88.38917C302.99615 88.38917 305.9916 88.45253 308.9823 88.579155L300.0 192.52583Z" fill-rule="nonzero"/><path fill="#fce5cd" d="M308.9823 88.579155C333.0231 89.5971 356.35138 94.68567 376.96262 103.40762L300.0 192.52583Z" fill-rule="nonzero"/><path fill="#f4b400" d="M376.96262 103.40762C400.1805 113.23262 419.1181 127.31502 431.72635 144.13112L300.0 192.52583Z" fill-rule="nonzero"/><path fill="#93c47d" d="M431.72635 144.13112C441.50876 157.17828 447.22427 171.53012 448.49524 186.23822L300.0 192.52583Z" fill-rule="nonzero"/><path fill="#a4929a" d="M448.76666 214.84084L448.76666 192.52583Z" fill-rule="nonzero"/><path fill="#ead1dc" d="M448.49524 186.23822C448.67615 188.3317 448.76666 190.42853 448.76666 192.52583L300.0 192.52583Z" fill-rule="nonzero"/><path fill="#31848b" d="M448.76666 214.84084C448.76666 216.93814 448.67615 219.03497 448.49524 221.12845L448.49524 198.81345C448.67615 196.71997 448.76666 194.62314 448.76666 192.52583Z" fill-rule="nonzero"/><path fill="#46bdc6" d="M448.76666 192.52583C448.76666 194.62314 448.67615 196.71997 448.49524 198.81345L300.0 192.52583Z" fill-rule="nonzero"/><path fill="#635789" d="M448.49524 221.12845C447.7708 229.51193 445.60016 237.80328 442.03064 245.82181L442.03064 223.5068C445.60016 215.4883 447.7708 207.19693 448.49524 198.81345Z" fill-rule="nonzero"/><path fill="#8e7cc3" d="M448.49524 198.81345C447.7708 207.19693 445.60016 215.4883 442.03064 223.5068L300.0 192.52583Z" fill-rule="nonzero"/><path fill="#878416" d="M442.03064 245.82181C441.13928 247.82416 440.1617 249.80719 439.09924 251.7682L439.09924 229.4532C440.1617 227.49219 441.13928 225.50916 442.03064 223.5068Z" fill-rule="nonzero"/><path fill="#c1bc1f" d="M442.03064 223.5068C441.13928 225.50916 440.1617 227.49219 439.09924 229.4532L300.0 192.52583Z" fill-rule="nonzero"/><path fill="#283378" d="M439.09924 251.7682C438.0368 253.72922 436.88995 255.66733 435.6603 257.57986L435.6603 235.26486C436.88995 233.35233 438.0368 231.41422 439.09924 229.4532Z" fill-rule="nonzero"/><path fill="#3949ab" d="M439.09924 229.4532C438.0368 231.41422 436.88995 233.35233 435.6603 235.26486L300.0 192.52583Z" fill-rule="nonzero"/><path fill="#ae5276" d="M435.6603 257.57986C434.43063 259.4924 433.1187 261.37848 431.72635 263.23557L431.72635 240.92056C433.1187 239.06348 434.43063 237.17738 435.6603 235.26486Z" fill-rule="nonzero"/><path fill="#f975a8" d="M435.6603 235.26486C434.43063 237.17738 433.1187 239.06348 431.72635 240.92056L300.0 192.52583Z" fill-rule="nonzero"/><path fill="#004a40" d="M431.72635 263.23557C430.33395 265.09262 428.86176 266.91983 427.31174 268.71466L427.31174 246.39967C428.86176 244.60483 430.33395 242.77763 431.72635 240.92056Z" fill-rule="nonzero"/><path fill="#00695c" d="M431.72635 240.92056C430.33395 242.77763 428.86176 244.60483 427.31174 246.39967L300.0 192.52583Z" fill-rule="nonzero"/><path fill="#881140" d="M427.31174 268.71466C425.76172 270.5095 424.13458 272.27115 422.43256 273.9972L422.43256 251.6822C424.13458 249.95615 425.76172 248.1945 427.31174 246.39967Z" fill-rule="nonzero"/><path fill="#c2185b" d="M427.31174 246.39967C425.76172 248.1945 424.13458 249.95615 422.43256 251.6822L300.0 192.52583Z" fill-rule="nonzero"/><path fill="#2e5dab" d="M422.43256 273.9972C420.73056 275.72327 418.95444 277.4129 417.10666 279.06387L417.10666 256.74887C418.95444 255.09792 420.73056 253.40825 422.43256 251.6822Z" fill-rule="nonzero"/><path fill="#4285f4" d="M422.43256 251.6822C420.73056 253.40825 418.95444 255.09792 417.10666 256.74887L300.0 192.52583Z" fill-rule="nonzero"/><path fill="#919eaa" d="M417.10666 279.06387C377.97128 314.03073 311.4582 327.7712 251.4719 313.28122C191.48561 298.79123 151.23334 259.26102 151.23334 214.84084L151.23334 192.52583C151.23334 236.94603 191.48561 276.47623 251.4719 290.96622C311.4582 305.4562 377.97128 291.71573 417.10666 256.74887Z" fill-rule="nonzero"/><path fill="#cfe2f3" d="M417.10666 256.74887C374.2029 295.0827 299.07587 307.48438 236.22484 286.60815C173.3738 265.7319 139.58348 217.1529 154.86859 169.64542C170.15369 122.13794 230.43222 88.38917 300.0 88.38917L300.0 192.52583Z" fill-rule="nonzero"/><path fill="#000000" d="M25.55 222.80287L25.55 228.59975Q25.534374 229.80287 24.784374 230.58412Q24.034374 231.34975 22.753124 231.4435L22.440624 231.45912Q21.05 231.45912 20.20625 230.70912Q19.378124 229.9435 19.378124 228.61537L19.378124 222.80287L20.4875 222.80287L20.4875 228.58412Q20.4875 229.506 20.9875 230.02162Q21.503124 230.53725 22.440624 230.53725Q23.409374 230.53725 23.909374 230.02162Q24.409374 229.506 24.409374 228.58412L24.409374 222.80287L25.55 222.80287ZM28.39375 224.99037L28.425 225.78725Q29.159374 224.881 30.33125 224.881Q32.346874 224.881 32.3625 227.14662L32.3625 231.33412L31.26875 231.33412L31.26875 227.131Q31.26875 226.45912 30.95625 226.131Q30.659374 225.80287 30.003124 225.80287Q29.471874 225.80287 29.065624 226.08412Q28.675 226.36537 28.45625 226.8185L28.45625 231.33412L27.378124 231.33412L27.378124 224.99037L28.39375 224.99037ZM35.55 231.33412L34.471874 231.33412L34.471874 224.99037L35.55 224.99037L35.55 231.33412ZM34.378124 223.3185Q34.378124 223.05287 34.534374 222.86537Q34.70625 222.67787 35.01875 222.67787Q35.33125 222.67787 35.4875 222.86537Q35.659374 223.05287 35.659374 223.3185Q35.659374 223.5685 35.4875 223.756Q35.33125 223.92787 35.01875 223.92787Q34.70625 223.92787 34.534374 223.756Q34.378124 223.5685 34.378124 223.3185ZM38.846874 223.45912L38.846874 224.99037L40.01875 224.99037L40.01875 225.83412L38.846874 225.83412L38.846874 229.756Q38.846874 230.14662 39.003124 230.33412Q39.159374 230.52162 39.534374 230.52162Q39.721874 230.52162 40.05 230.45912L40.05 231.33412Q39.628124 231.45912 39.221874 231.45912Q38.503124 231.45912 38.128124 231.02162Q37.753124 230.5685 37.753124 229.756L37.753124 225.83412L36.596874 225.83412L36.596874 224.99037L37.753124 224.99037L37.753124 223.45912L38.846874 223.45912ZM44.003124 231.45912Q42.70625 231.45912 41.89375 230.61537Q41.096874 229.756 41.096874 228.33412L41.096874 228.14662Q41.096874 227.1935 41.45625 226.45912Q41.815624 225.70912 42.45625 225.30287Q43.1125 224.881 43.8625 224.881Q45.096874 224.881 45.784374 225.6935Q46.471874 226.506 46.471874 228.02162L46.471874 228.47475L42.175 228.47475Q42.20625 229.41225 42.721874 229.99037Q43.253124 230.5685 44.065624 230.5685Q44.628124 230.5685 45.01875 230.33412Q45.425 230.09975 45.7375 229.70912L46.39375 230.22475Q45.596874 231.45912 44.003124 231.45912ZM43.8625 225.77162Q43.20625 225.77162 42.753124 226.256Q42.315624 226.72475 42.221874 227.58412L45.39375 227.58412L45.39375 227.506Q45.346874 226.67787 44.940624 226.22475Q44.55 225.77162 43.8625 225.77162ZM47.1125 228.11537Q47.1125 226.64662 47.8 225.77162Q48.4875 224.881 49.6125 224.881Q50.721874 224.881 51.378124 225.631L51.378124 222.33412L52.45625 222.33412L52.45625 231.33412L51.45625 231.33412L51.409374 230.64662Q50.753124 231.45912 49.596874 231.45912Q48.503124 231.45912 47.8 230.55287Q47.1125 229.64662 47.1125 228.1935L47.1125 228.11537ZM48.190624 228.24037Q48.190624 229.3185 48.628124 229.92787Q49.08125 230.53725 49.8625 230.53725Q50.89375 230.53725 51.378124 229.59975L51.378124 226.6935Q50.89375 225.80287 49.878124 225.80287Q49.08125 225.80287 48.628124 226.41225Q48.190624 227.02162 48.190624 228.24037ZM60.05 227.53725Q58.6125 227.11537 57.940624 226.506Q57.284374 225.89662 57.284374 225.006Q57.284374 224.006 58.08125 223.34975Q58.89375 222.67787 60.190624 222.67787Q61.065624 222.67787 61.753124 223.02162Q62.440624 223.36537 62.815624 223.95912Q63.20625 224.55287 63.20625 225.27162L62.065624 225.27162Q62.065624 224.49037 61.565624 224.05287Q61.08125 223.61537 60.190624 223.61537Q59.3625 223.61537 58.89375 223.99037Q58.425 224.34975 58.425 224.99037Q58.425 225.52162 58.8625 225.881Q59.315624 226.24037 60.378124 226.53725Q61.440624 226.83412 62.034374 227.1935Q62.64375 227.55287 62.925 228.03725Q63.221874 228.52162 63.221874 229.16225Q63.221874 230.20912 62.409374 230.83412Q61.596874 231.45912 60.253124 231.45912Q59.3625 231.45912 58.596874 231.11537Q57.846874 230.77162 57.425 230.1935Q57.01875 229.59975 57.01875 228.86537L58.14375 228.86537Q58.14375 229.631 58.721874 230.08412Q59.3 230.53725 60.253124 230.53725Q61.14375 230.53725 61.6125 230.17787Q62.08125 229.80287 62.08125 229.17787Q62.08125 228.55287 61.64375 228.20912Q61.20625 227.86537 60.05 227.53725ZM65.84688 223.45912L65.84688 224.99037L67.01875 224.99037L67.01875 225.83412L65.84688 225.83412L65.84688 229.756Q65.84688 230.14662 66.00313 230.33412Q66.15938 230.52162 66.53438 230.52162Q66.72188 230.52162 67.05 230.45912L67.05 231.33412Q66.62813 231.45912 66.22188 231.45912Q65.50313 231.45912 65.12813 231.02162Q64.75313 230.5685 64.75313 229.756L64.75313 225.83412L63.596874 225.83412L63.596874 224.99037L64.75313 224.99037L64.75313 223.45912L65.84688 223.45912ZM72.28438 231.33412Q72.19063 231.14662 72.12813 230.66225Q71.37813 231.45912 70.33125 231.45912Q69.39375 231.45912 68.78438 230.92787Q68.19063 230.39662 68.19063 229.5685Q68.19063 228.58412 68.94063 228.03725Q69.69063 227.49037 71.06563 227.49037L72.1125 227.49037L72.1125 226.99037Q72.1125 226.42787 71.76875 226.09975Q71.44063 225.756 70.76875 225.756Q70.19063 225.756 69.8 226.05287Q69.40938 226.33412 69.40938 226.756L68.31563 226.756Q68.31563 226.27162 68.64375 225.83412Q68.9875 225.39662 69.56563 225.14662Q70.14375 224.881 70.83125 224.881Q71.94063 224.881 72.55 225.42787Q73.175 225.97475 73.20625 226.92787L73.20625 229.84975Q73.20625 230.72475 73.425 231.24037L73.425 231.33412L72.28438 231.33412ZM70.4875 230.506Q71.00313 230.506 71.45625 230.24037Q71.90938 229.97475 72.1125 229.55287L72.1125 228.256L71.26875 228.256Q69.26875 228.256 69.26875 229.42787Q69.26875 229.92787 69.6125 230.22475Q69.95625 230.506 70.4875 230.506ZM76.84688 223.45912L76.84688 224.99037L78.01875 224.99037L78.01875 225.83412L76.84688 225.83412L76.84688 229.756Q76.84688 230.14662 77.00313 230.33412Q77.15938 230.52162 77.53438 230.52162Q77.72188 230.52162 78.05 230.45912L78.05 231.33412Q77.62813 231.45912 77.22188 231.45912Q76.50313 231.45912 76.12813 231.02162Q75.75313 230.5685 75.75313 229.756L75.75313 225.83412L74.59688 225.83412L74.59688 224.99037L75.75313 224.99037L75.75313 223.45912L76.84688 223.45912ZM82.00313 231.45912Q80.70625 231.45912 79.89375 230.61537Q79.09688 229.756 79.09688 228.33412L79.09688 228.14662Q79.09688 227.1935 79.45625 226.45912Q79.81563 225.70912 80.45625 225.30287Q81.1125 224.881 81.8625 224.881Q83.09688 224.881 83.78438 225.6935Q84.47188 226.506 84.47188 228.02162L84.47188 228.47475L80.175 228.47475Q80.20625 229.41225 80.72188 229.99037Q81.25313 230.5685 82.06563 230.5685Q82.62813 230.5685 83.01875 230.33412Q83.425 230.09975 83.7375 229.70912L84.39375 230.22475Q83.59688 231.45912 82.00313 231.45912ZM81.8625 225.77162Q81.20625 225.77162 80.75313 226.256Q80.31563 226.72475 80.22188 227.58412L83.39375 227.58412L83.39375 227.506Q83.34688 226.67787 82.94063 226.22475Q82.55 225.77162 81.8625 225.77162ZM89.06563 229.64662Q89.06563 229.20912 88.72188 228.97475Q88.39375 228.72475 87.56563 228.55287Q86.75313 228.381 86.26875 228.131Q85.78438 227.881 85.55 227.55287Q85.33125 227.20912 85.33125 226.74037Q85.33125 225.95912 85.9875 225.42787Q86.64375 224.881 87.675 224.881Q88.75313 224.881 89.40938 225.4435Q90.08125 225.99037 90.08125 226.84975L89.00313 226.84975Q89.00313 226.41225 88.6125 226.09975Q88.2375 225.77162 87.675 225.77162Q87.08125 225.77162 86.7375 226.03725Q86.40938 226.28725 86.40938 226.6935Q86.40938 227.08412 86.72188 227.28725Q87.03438 227.49037 87.84688 227.67787Q88.65938 227.84975 89.15938 228.09975Q89.65938 228.34975 89.89375 228.70912Q90.14375 229.0685 90.14375 229.5685Q90.14375 230.42787 89.45625 230.9435Q88.78438 231.45912 87.70625 231.45912Q86.94063 231.45912 86.34688 231.1935Q85.76875 230.91225 85.44063 230.42787Q85.1125 229.9435 85.1125 229.381L86.19063 229.381Q86.22188 229.92787 86.62813 230.256Q87.03438 230.5685 87.70625 230.5685Q88.31563 230.5685 88.69063 230.3185Q89.06563 230.0685 89.06563 229.64662Z" fill-rule="nonzero"/><path fill="#9e9e9e" d="M23.51875 240.80287L23.51875 241.70912L23.315624 241.70912Q22.05 241.74037 21.3 242.47475Q20.55 243.1935 20.425 244.506Q21.1125 243.74037 22.26875 243.74037Q23.378124 243.74037 24.05 244.52162Q24.721874 245.30287 24.721874 246.55287Q24.721874 247.86537 24.003124 248.66225Q23.284374 249.45912 22.065624 249.45912Q20.846874 249.45912 20.08125 248.52162Q19.33125 247.5685 19.33125 246.08412L19.33125 245.67787Q19.33125 243.3185 20.33125 242.0685Q21.33125 240.8185 23.315624 240.80287L23.51875 240.80287ZM22.096874 244.64662Q21.534374 244.64662 21.065624 244.97475Q20.596874 245.30287 20.409374 245.8185L20.409374 246.20912Q20.409374 247.27162 20.878124 247.91225Q21.3625 248.55287 22.065624 248.55287Q22.8 248.55287 23.221874 248.02162Q23.64375 247.47475 23.64375 246.59975Q23.64375 245.72475 23.221874 245.1935Q22.8 244.64662 22.096874 244.64662ZM30.83125 246.47475L32.01875 246.47475L32.01875 247.34975L30.83125 247.34975L30.83125 249.33412L29.753124 249.33412L29.753124 247.34975L25.8625 247.34975L25.8625 246.70912L29.675 240.80287L30.83125 240.80287L30.83125 246.47475ZM27.096874 246.47475L29.753124 246.47475L29.753124 242.28725L29.6125 242.52162L27.096874 246.47475ZM33.39375 248.77162Q33.39375 248.49037 33.55 248.30287Q33.721874 248.11537 34.05 248.11537Q34.39375 248.11537 34.565624 248.30287Q34.7375 248.49037 34.7375 248.77162Q34.7375 249.03725 34.565624 249.22475Q34.39375 249.39662 34.05 249.39662Q33.721874 249.39662 33.55 249.22475Q33.39375 249.03725 33.39375 248.77162ZM40.83125 246.47475L42.01875 246.47475L42.01875 247.34975L40.83125 247.34975L40.83125 249.33412L39.753124 249.33412L39.753124 247.34975L35.8625 247.34975L35.8625 246.70912L39.675 240.80287L40.83125 240.80287L40.83125 246.47475ZM37.096874 246.47475L39.753124 246.47475L39.753124 242.28725L39.6125 242.52162L37.096874 246.47475ZM43.159374 242.4435Q43.159374 241.67787 43.64375 241.17787Q44.14375 240.67787 44.909374 240.67787Q45.690624 240.67787 46.175 241.17787Q46.659374 241.67787 46.659374 242.47475L46.659374 242.89662Q46.659374 243.66225 46.159374 244.16225Q45.675 244.64662 44.925 244.64662Q44.159374 244.64662 43.659374 244.16225Q43.159374 243.66225 43.159374 242.84975L43.159374 242.4435ZM43.971874 242.89662Q43.971874 243.34975 44.221874 243.64662Q44.4875 243.9435 44.925 243.9435Q45.346874 243.9435 45.596874 243.66225Q45.846874 243.36537 45.846874 242.86537L45.846874 242.4435Q45.846874 241.99037 45.596874 241.6935Q45.346874 241.381 44.909374 241.381Q44.471874 241.381 44.221874 241.6935Q43.971874 241.99037 43.971874 242.45912L43.971874 242.89662ZM47.315624 247.24037Q47.315624 246.47475 47.8 245.99037Q48.3 245.49037 49.065624 245.49037Q49.83125 245.49037 50.315624 245.99037Q50.815624 246.47475 50.815624 247.28725L50.815624 247.6935Q50.815624 248.45912 50.33125 248.95912Q49.846874 249.45912 49.08125 249.45912Q48.315624 249.45912 47.815624 248.97475Q47.315624 248.47475 47.315624 247.66225L47.315624 247.24037ZM48.128124 247.6935Q48.128124 248.16225 48.378124 248.45912Q48.64375 248.756 49.08125 248.756Q49.503124 248.756 49.753124 248.47475Q50.003124 248.17787 50.003124 247.67787L50.003124 247.24037Q50.003124 246.77162 49.7375 246.49037Q49.4875 246.1935 49.065624 246.1935Q48.64375 246.1935 48.378124 246.49037Q48.128124 246.77162 48.128124 247.27162L48.128124 247.6935ZM45.175 248.6935L44.55 248.30287L48.721874 241.631L49.33125 242.02162L45.175 248.6935Z" fill-rule="nonzero"/><path stroke="#757575" stroke-width="1.0" stroke-linecap="butt" d="M18.55 235.83412L145.23334 235.83412L172.93338 235.83412" fill-rule="nonzero"/><path fill="#9e9e9e" d="M174.93338 235.83412C174.93338 234.72955 174.03795 233.83412 172.93338 233.83412C171.82881 233.83412 170.93338 234.72955 170.93338 235.83412C170.93338 236.93869 171.82881 237.83412 172.93338 237.83412C174.03795 237.83412 174.93338 236.93869 174.93338 235.83412" fill-rule="nonzero"/><path fill="#000000" d="M545.15314 64.68229L541.575 64.68229L540.77814 66.916664L539.6219 66.916664L542.8719 58.385414L543.85626 58.385414L547.1219 66.916664L545.96564 66.916664L545.15314 64.68229ZM541.91876 63.760414L544.825 63.760414L543.3719 59.77604L541.91876 63.760414ZM549.45 66.916664L548.3719 66.916664L548.3719 57.916664L549.45 57.916664L549.45 66.916664ZM556.6375 63.822914Q556.6375 65.27604 555.96564 66.166664Q555.3094 67.041664 554.1844 67.041664Q552.98126 67.041664 552.325 66.18229L552.2625 66.916664L551.27814 66.916664L551.27814 57.916664L552.35626 57.916664L552.35626 61.27604Q553.0125 60.46354 554.16876 60.46354Q555.325 60.46354 555.98126 61.33854Q556.6375 62.197914 556.6375 63.729164L556.6375 63.822914ZM555.5594 63.697914Q555.5594 62.58854 555.1219 61.99479Q554.7 61.385414 553.90314 61.385414Q552.825 61.385414 552.35626 62.36979L552.35626 65.11979Q552.85626 66.11979 553.90314 66.11979Q554.6844 66.11979 555.1219 65.510414Q555.5594 64.90104 555.5594 63.697914ZM562.1844 66.916664Q562.09064 66.729164 562.02814 66.24479Q561.27814 67.041664 560.23126 67.041664Q559.29376 67.041664 558.6844 66.510414Q558.09064 65.979164 558.09064 65.15104Q558.09064 64.166664 558.84064 63.61979Q559.59064 63.072914 560.96564 63.072914L562.0125 63.072914L562.0125 62.572914Q562.0125 62.010414 561.66876 61.68229Q561.34064 61.33854 560.66876 61.33854Q560.09064 61.33854 559.7 61.635414Q559.3094 61.916664 559.3094 62.33854L558.21564 62.33854Q558.21564 61.854164 558.54376 61.416664Q558.8875 60.979164 559.46564 60.729164Q560.04376 60.46354 560.73126 60.46354Q561.84064 60.46354 562.45 61.010414Q563.075 61.55729 563.10626 62.510414L563.10626 65.43229Q563.10626 66.30729 563.325 66.822914L563.325 66.916664L562.1844 66.916664ZM560.3875 66.08854Q560.90314 66.08854 561.35626 65.822914Q561.8094 65.55729 562.0125 65.135414L562.0125 63.83854L561.16876 63.83854Q559.16876 63.83854 559.16876 65.010414Q559.16876 65.510414 559.5125 65.80729Q559.85626 66.08854 560.3875 66.08854ZM566.29376 60.572914L566.325 61.36979Q567.0594 60.46354 568.23126 60.46354Q570.2469 60.46354 570.2625 62.729164L570.2625 66.916664L569.16876 66.916664L569.16876 62.71354Q569.16876 62.041664 568.85626 61.71354Q568.5594 61.385414 567.90314 61.385414Q567.3719 61.385414 566.96564 61.666664Q566.575 61.947914 566.35626 62.40104L566.35626 66.916664L565.27814 66.916664L565.27814 60.572914L566.29376 60.572914ZM573.45 66.916664L572.3719 66.916664L572.3719 60.572914L573.45 60.572914L573.45 66.916664ZM572.27814 58.90104Q572.27814 58.635414 572.4344 58.447914Q572.60626 58.260414 572.91876 58.260414Q573.23126 58.260414 573.3875 58.447914Q573.5594 58.635414 573.5594 58.90104Q573.5594 59.15104 573.3875 59.33854Q573.23126 59.510414 572.91876 59.510414Q572.60626 59.510414 572.4344 59.33854Q572.27814 59.15104 572.27814 58.90104ZM579.1844 66.916664Q579.09064 66.729164 579.02814 66.24479Q578.27814 67.041664 577.23126 67.041664Q576.29376 67.041664 575.6844 66.510414Q575.09064 65.979164 575.09064 65.15104Q575.09064 64.166664 575.84064 63.61979Q576.59064 63.072914 577.96564 63.072914L579.0125 63.072914L579.0125 62.572914Q579.0125 62.010414 578.66876 61.68229Q578.34064 61.33854 577.66876 61.33854Q577.09064 61.33854 576.7 61.635414Q576.3094 61.916664 576.3094 62.33854L575.21564 62.33854Q575.21564 61.854164 575.54376 61.416664Q575.8875 60.979164 576.46564 60.729164Q577.04376 60.46354 577.73126 60.46354Q578.84064 60.46354 579.45 61.010414Q580.075 61.55729 580.10626 62.510414L580.10626 65.43229Q580.10626 66.30729 580.325 66.822914L580.325 66.916664L579.1844 66.916664ZM577.3875 66.08854Q577.90314 66.08854 578.35626 65.822914Q578.8094 65.55729 579.0125 65.135414L579.0125 63.83854L578.16876 63.83854Q576.16876 63.83854 576.16876 65.010414Q576.16876 65.510414 576.5125 65.80729Q576.85626 66.08854 577.3875 66.08854Z" fill-rule="nonzero"/><path fill="#9e9e9e" d="M559.71564 84.916664L558.6375 84.916664L558.6375 77.697914L556.45 78.49479L556.45 77.510414L559.5594 76.33854L559.71564 76.33854L559.71564 84.916664ZM563.29376 84.354164Q563.29376 84.072914 563.45 83.885414Q563.6219 83.697914 563.95 83.697914Q564.29376 83.697914 564.46564 83.885414Q564.6375 84.072914 564.6375 84.354164Q564.6375 84.61979 564.46564 84.80729Q564.29376 84.979164 563.95 84.979164Q563.6219 84.979164 563.45 84.80729Q563.29376 84.61979 563.29376 84.354164ZM571.5125 81.27604Q571.5125 83.18229 570.85626 84.11979Q570.21564 85.041664 568.825 85.041664Q567.46564 85.041664 566.8094 84.135414Q566.15314 83.229164 566.1219 81.416664L566.1219 79.979164Q566.1219 78.08854 566.7625 77.18229Q567.41876 76.260414 568.8094 76.260414Q570.1844 76.260414 570.84064 77.15104Q571.4969 78.02604 571.5125 79.86979L571.5125 81.27604ZM570.41876 79.791664Q570.41876 78.416664 570.02814 77.791664Q569.65314 77.15104 568.8094 77.15104Q567.98126 77.15104 567.59064 77.791664Q567.21564 78.416664 567.21564 79.71354L567.21564 81.447914Q567.21564 82.822914 567.60626 83.49479Q568.0125 84.15104 568.825 84.15104Q569.6219 84.15104 570.0125 83.52604Q570.40314 82.90104 570.41876 81.572914L570.41876 79.791664ZM573.0594 78.02604Q573.0594 77.260414 573.54376 76.760414Q574.04376 76.260414 574.8094 76.260414Q575.59064 76.260414 576.075 76.760414Q576.5594 77.260414 576.5594 78.05729L576.5594 78.479164Q576.5594 79.24479 576.0594 79.74479Q575.575 80.229164 574.825 80.229164Q574.0594 80.229164 573.5594 79.74479Q573.0594 79.24479 573.0594 78.43229L573.0594 78.02604ZM573.8719 78.479164Q573.8719 78.93229 574.1219 79.229164Q574.3875 79.52604 574.825 79.52604Q575.2469 79.52604 575.4969 79.24479Q575.7469 78.947914 575.7469 78.447914L575.7469 78.02604Q575.7469 77.572914 575.4969 77.27604Q575.2469 76.96354 574.8094 76.96354Q574.3719 76.96354 574.1219 77.27604Q573.8719 77.572914 573.8719 78.041664L573.8719 78.479164ZM577.21564 82.822914Q577.21564 82.05729 577.7 81.572914Q578.2 81.072914 578.96564 81.072914Q579.73126 81.072914 580.21564 81.572914Q580.71564 82.05729 580.71564 82.86979L580.71564 83.27604Q580.71564 84.041664 580.23126 84.541664Q579.7469 85.041664 578.98126 85.041664Q578.21564 85.041664 577.71564 84.55729Q577.21564 84.05729 577.21564 83.24479L577.21564 82.822914ZM578.02814 83.27604Q578.02814 83.74479 578.27814 84.041664Q578.54376 84.33854 578.98126 84.33854Q579.40314 84.33854 579.65314 84.05729Q579.90314 83.760414 579.90314 83.260414L579.90314 82.822914Q579.90314 82.354164 579.6375 82.072914Q579.3875 81.77604 578.96564 81.77604Q578.54376 81.77604 578.27814 82.072914Q578.02814 82.354164 578.02814 82.854164L578.02814 83.27604ZM575.075 84.27604L574.45 83.885414L578.6219 77.21354L579.23126 77.604164L575.075 84.27604Z" fill-rule="nonzero"/><path stroke="#757575" stroke-width="1.0" stroke-linecap="butt" d="M581.45 71.416664L454.76666 71.416664L304.26855 93.641136" fill-rule="nonzero"/><path fill="#9e9e9e" d="M306.26855 93.641136C306.26855 92.53656 305.3731 91.641136 304.26855 91.641136C303.16397 91.641136 302.26855 92.53656 302.26855 93.641136C302.26855 94.745705 303.16397 95.641136 304.26855 95.641136C305.3731 95.641136 306.26855 94.745705 306.26855 93.641136" fill-rule="nonzero"/><path fill="#000000" d="M538.15314 97.68229L534.575 97.68229L533.77814 99.916664L532.6219 99.916664L535.8719 91.385414L536.85626 91.385414L540.1219 99.916664L538.96564 99.916664L538.15314 97.68229ZM534.91876 96.760414L537.825 96.760414L536.3719 92.77604L534.91876 96.760414ZM545.1844 99.291664Q544.5594 100.041664 543.325 100.041664Q542.3094 100.041664 541.77814 99.447914Q541.2469 98.854164 541.2469 97.697914L541.2469 93.572914L542.325 93.572914L542.325 97.666664Q542.325 99.11979 543.4969 99.11979Q544.7469 99.11979 545.15314 98.18229L545.15314 93.572914L546.2469 93.572914L546.2469 99.916664L545.21564 99.916664L545.1844 99.291664ZM551.96564 98.229164Q551.96564 97.791664 551.6219 97.55729Q551.29376 97.30729 550.46564 97.135414Q549.65314 96.96354 549.16876 96.71354Q548.6844 96.46354 548.45 96.135414Q548.23126 95.791664 548.23126 95.322914Q548.23126 94.541664 548.8875 94.010414Q549.54376 93.46354 550.575 93.46354Q551.65314 93.46354 552.3094 94.02604Q552.98126 94.572914 552.98126 95.43229L551.90314 95.43229Q551.90314 94.99479 551.5125 94.68229Q551.1375 94.354164 550.575 94.354164Q549.98126 94.354164 549.6375 94.61979Q549.3094 94.86979 549.3094 95.27604Q549.3094 95.666664 549.6219 95.86979Q549.9344 96.072914 550.7469 96.260414Q551.5594 96.43229 552.0594 96.68229Q552.5594 96.93229 552.79376 97.291664Q553.04376 97.65104 553.04376 98.15104Q553.04376 99.010414 552.35626 99.52604Q551.6844 100.041664 550.60626 100.041664Q549.84064 100.041664 549.2469 99.77604Q548.66876 99.49479 548.34064 99.010414Q548.0125 98.52604 548.0125 97.96354L549.09064 97.96354Q549.1219 98.510414 549.52814 98.83854Q549.9344 99.15104 550.60626 99.15104Q551.21564 99.15104 551.59064 98.90104Q551.96564 98.65104 551.96564 98.229164ZM555.7469 92.041664L555.7469 93.572914L556.91876 93.572914L556.91876 94.416664L555.7469 94.416664L555.7469 98.33854Q555.7469 98.729164 555.90314 98.916664Q556.0594 99.104164 556.4344 99.104164Q556.6219 99.104164 556.95 99.041664L556.95 99.916664Q556.52814 100.041664 556.1219 100.041664Q555.40314 100.041664 555.02814 99.604164Q554.65314 99.15104 554.65314 98.33854L554.65314 94.416664L553.4969 94.416664L553.4969 93.572914L554.65314 93.572914L554.65314 92.041664L555.7469 92.041664ZM561.34064 94.541664Q561.09064 94.510414 560.8094 94.510414Q559.73126 94.510414 559.35626 95.416664L559.35626 99.916664L558.27814 99.916664L558.27814 93.572914L559.325 93.572914L559.34064 94.30729Q559.8719 93.46354 560.85626 93.46354Q561.16876 93.46354 561.34064 93.541664L561.34064 94.541664ZM566.1844 99.916664Q566.09064 99.729164 566.02814 99.24479Q565.27814 100.041664 564.23126 100.041664Q563.29376 100.041664 562.6844 99.510414Q562.09064 98.979164 562.09064 98.15104Q562.09064 97.166664 562.84064 96.61979Q563.59064 96.072914 564.96564 96.072914L566.0125 96.072914L566.0125 95.572914Q566.0125 95.010414 565.66876 94.68229Q565.34064 94.33854 564.66876 94.33854Q564.09064 94.33854 563.7 94.635414Q563.3094 94.916664 563.3094 95.33854L562.21564 95.33854Q562.21564 94.854164 562.54376 94.416664Q562.8875 93.979164 563.46564 93.729164Q564.04376 93.46354 564.73126 93.46354Q565.84064 93.46354 566.45 94.010414Q567.075 94.55729 567.10626 95.510414L567.10626 98.43229Q567.10626 99.30729 567.325 99.822914L567.325 99.916664L566.1844 99.916664ZM564.3875 99.08854Q564.90314 99.08854 565.35626 98.822914Q565.8094 98.55729 566.0125 98.135414L566.0125 96.83854L565.16876 96.83854Q563.16876 96.83854 563.16876 98.010414Q563.16876 98.510414 563.5125 98.80729Q563.85626 99.08854 564.3875 99.08854ZM570.45 99.916664L569.3719 99.916664L569.3719 90.916664L570.45 90.916664L570.45 99.916664ZM573.45 99.916664L572.3719 99.916664L572.3719 93.572914L573.45 93.572914L573.45 99.916664ZM572.27814 91.90104Q572.27814 91.635414 572.4344 91.447914Q572.60626 91.260414 572.91876 91.260414Q573.23126 91.260414 573.3875 91.447914Q573.5594 91.635414 573.5594 91.90104Q573.5594 92.15104 573.3875 92.33854Q573.23126 92.510414 572.91876 92.510414Q572.60626 92.510414 572.4344 92.33854Q572.27814 92.15104 572.27814 91.90104ZM579.1844 99.916664Q579.09064 99.729164 579.02814 99.24479Q578.27814 100.041664 577.23126 100.041664Q576.29376 100.041664 575.6844 99.510414Q575.09064 98.979164 575.09064 98.15104Q575.09064 97.166664 575.84064 96.61979Q576.59064 96.072914 577.96564 96.072914L579.0125 96.072914L579.0125 95.572914Q579.0125 95.010414 578.66876 94.68229Q578.34064 94.33854 577.66876 94.33854Q577.09064 94.33854 576.7 94.635414Q576.3094 94.916664 576.3094 95.33854L575.21564 95.33854Q575.21564 94.854164 575.54376 94.416664Q575.8875 93.979164 576.46564 93.729164Q577.04376 93.46354 577.73126 93.46354Q578.84064 93.46354 579.45 94.010414Q580.075 94.55729 580.10626 95.510414L580.10626 98.43229Q580.10626 99.30729 580.325 99.822914L580.325 99.916664L579.1844 99.916664ZM577.3875 99.08854Q577.90314 99.08854 578.35626 98.822914Q578.8094 98.55729 579.0125 98.135414L579.0125 96.83854L578.16876 96.83854Q576.16876 96.83854 576.16876 98.010414Q576.16876 98.510414 576.5125 98.80729Q576.85626 99.08854 577.3875 99.08854Z" fill-rule="nonzero"/><path fill="#9e9e9e" d="M561.66876 109.99479L558.1375 117.916664L556.9969 117.916664L560.5125 110.27604L555.90314 110.27604L555.90314 109.385414L561.66876 109.385414L561.66876 109.99479ZM563.29376 117.354164Q563.29376 117.072914 563.45 116.885414Q563.6219 116.697914 563.95 116.697914Q564.29376 116.697914 564.46564 116.885414Q564.6375 117.072914 564.6375 117.354164Q564.6375 117.61979 564.46564 117.80729Q564.29376 117.979164 563.95 117.979164Q563.6219 117.979164 563.45 117.80729Q563.29376 117.61979 563.29376 117.354164ZM571.66876 109.99479L568.1375 117.916664L566.9969 117.916664L570.5125 110.27604L565.90314 110.27604L565.90314 109.385414L571.66876 109.385414L571.66876 109.99479ZM573.0594 111.02604Q573.0594 110.260414 573.54376 109.760414Q574.04376 109.260414 574.8094 109.260414Q575.59064 109.260414 576.075 109.760414Q576.5594 110.260414 576.5594 111.05729L576.5594 111.479164Q576.5594 112.24479 576.0594 112.74479Q575.575 113.229164 574.825 113.229164Q574.0594 113.229164 573.5594 112.74479Q573.0594 112.24479 573.0594 111.43229L573.0594 111.02604ZM573.8719 111.479164Q573.8719 111.93229 574.1219 112.229164Q574.3875 112.52604 574.825 112.52604Q575.2469 112.52604 575.4969 112.24479Q575.7469 111.947914 575.7469 111.447914L575.7469 111.02604Q575.7469 110.572914 575.4969 110.27604Q575.2469 109.96354 574.8094 109.96354Q574.3719 109.96354 574.1219 110.27604Q573.8719 110.572914 573.8719 111.041664L573.8719 111.479164ZM577.21564 115.822914Q577.21564 115.05729 577.7 114.572914Q578.2 114.072914 578.96564 114.072914Q579.73126 114.072914 580.21564 114.572914Q580.71564 115.05729 580.71564 115.86979L580.71564 116.27604Q580.71564 117.041664 580.23126 117.541664Q579.7469 118.041664 578.98126 118.041664Q578.21564 118.041664 577.71564 117.55729Q577.21564 117.05729 577.21564 116.24479L577.21564 115.822914ZM578.02814 116.27604Q578.02814 116.74479 578.27814 117.041664Q578.54376 117.33854 578.98126 117.33854Q579.40314 117.33854 579.65314 117.05729Q579.90314 116.760414 579.90314 116.260414L579.90314 115.822914Q579.90314 115.354164 579.6375 115.072914Q579.3875 114.77604 578.96564 114.77604Q578.54376 114.77604 578.27814 115.072914Q578.02814 115.354164 578.02814 115.854164L578.02814 116.27604ZM575.075 117.27604L574.45 116.885414L578.6219 110.21354L579.23126 110.604164L575.075 117.27604Z" fill-rule="nonzero"/><path stroke="#757575" stroke-width="1.0" stroke-linecap="butt" d="M581.45 104.416664L454.76666 104.416664L342.04562 98.075455" fill-rule="nonzero"/><path fill="#9e9e9e" d="M344.04562 98.075455C344.04562 96.97089 343.15018 96.075455 342.04562 96.075455C340.94104 96.075455 340.04562 96.97089 340.04562 98.075455C340.04562 99.18002 340.94104 100.075455 342.04562 100.075455C343.15018 100.075455 344.04562 99.18002 344.04562 98.075455" fill-rule="nonzero"/><path fill="#000000" d="M538.4344 132.91667L538.4344 124.38542L541.23126 124.38542Q542.6219 124.38542 543.3094 124.96355Q544.0125 125.52605 544.0125 126.65105Q544.0125 127.26042 543.66876 127.72917Q543.34064 128.1823 542.7469 128.4323Q543.45 128.6198 543.84064 129.16667Q544.2469 129.69792 544.2469 130.44792Q544.2469 131.60417 543.4969 132.26042Q542.7625 132.91667 541.40314 132.91667L538.4344 132.91667ZM539.5594 128.9323L539.5594 131.9948L541.41876 131.9948Q542.21564 131.9948 542.66876 131.58855Q543.1219 131.1823 543.1219 130.46355Q543.1219 128.9323 541.4344 128.9323L539.5594 128.9323ZM539.5594 128.02605L541.2625 128.02605Q541.9969 128.02605 542.4344 127.66667Q542.8875 127.29167 542.8875 126.65105Q542.8875 125.94792 542.48126 125.63542Q542.075 125.3073 541.23126 125.3073L539.5594 125.3073L539.5594 128.02605ZM547.90314 133.04167Q546.60626 133.04167 545.79376 132.19792Q544.9969 131.33855 544.9969 129.91667L544.9969 129.72917Q544.9969 128.77605 545.35626 128.04167Q545.71564 127.29167 546.35626 126.88542Q547.0125 126.46355 547.7625 126.46355Q548.9969 126.46355 549.6844 127.27605Q550.3719 128.08855 550.3719 129.60417L550.3719 130.0573L546.075 130.0573Q546.10626 130.9948 546.6219 131.57292Q547.15314 132.15105 547.96564 132.15105Q548.52814 132.15105 548.91876 131.91667Q549.325 131.6823 549.6375 131.29167L550.29376 131.8073Q549.4969 133.04167 547.90314 133.04167ZM547.7625 127.35417Q547.10626 127.35417 546.65314 127.83855Q546.21564 128.3073 546.1219 129.16667L549.29376 129.16667L549.29376 129.08855Q549.2469 128.26042 548.84064 127.8073Q548.45 127.35417 547.7625 127.35417ZM552.45 132.91667L551.3719 132.91667L551.3719 123.91667L552.45 123.91667L552.45 132.91667ZM554.0125 129.69792Q554.0125 128.21355 554.7 127.33855Q555.3875 126.46355 556.5125 126.46355Q557.66876 126.46355 558.325 127.27605L558.3719 126.57292L559.3719 126.57292L559.3719 132.76042Q559.3719 133.9948 558.6375 134.69792Q557.90314 135.41667 556.6844 135.41667Q555.9969 135.41667 555.34064 135.1198Q554.6844 134.82292 554.34064 134.32292L554.90314 133.66667Q555.59064 134.52605 556.60626 134.52605Q557.3875 134.52605 557.825 134.07292Q558.27814 133.63542 558.27814 132.82292L558.27814 132.27605Q557.6219 133.04167 556.4969 133.04167Q555.3875 133.04167 554.7 132.15105Q554.0125 131.2448 554.0125 129.69792ZM555.10626 129.82292Q555.10626 130.88542 555.54376 131.51042Q555.98126 132.1198 556.77814 132.1198Q557.79376 132.1198 558.27814 131.1823L558.27814 128.29167Q557.77814 127.38542 556.77814 127.38542Q555.9969 127.38542 555.54376 127.9948Q555.10626 128.60417 555.10626 129.82292ZM562.45 132.91667L561.3719 132.91667L561.3719 126.57292L562.45 126.57292L562.45 132.91667ZM561.27814 124.90105Q561.27814 124.63542 561.4344 124.44792Q561.60626 124.26042 561.91876 124.26042Q562.23126 124.26042 562.3875 124.44792Q562.5594 124.63542 562.5594 124.90105Q562.5594 125.15105 562.3875 125.33855Q562.23126 125.51042 561.91876 125.51042Q561.60626 125.51042 561.4344 125.33855Q561.27814 125.15105 561.27814 124.90105ZM568.1844 132.29167Q567.5594 133.04167 566.325 133.04167Q565.3094 133.04167 564.77814 132.44792Q564.2469 131.85417 564.2469 130.69792L564.2469 126.57292L565.325 126.57292L565.325 130.66667Q565.325 132.1198 566.4969 132.1198Q567.7469 132.1198 568.15314 131.1823L568.15314 126.57292L569.2469 126.57292L569.2469 132.91667L568.21564 132.91667L568.1844 132.29167ZM572.29376 126.57292L572.325 127.27605Q573.0125 126.46355 574.2 126.46355Q575.52814 126.46355 576.0125 127.47917Q576.325 127.02605 576.825 126.7448Q577.34064 126.46355 578.02814 126.46355Q580.1219 126.46355 580.15314 128.66667L580.15314 132.91667L579.075 132.91667L579.075 128.72917Q579.075 128.0573 578.7625 127.72917Q578.45 127.38542 577.71564 127.38542Q577.10626 127.38542 576.7 127.7448Q576.3094 128.10417 576.2469 128.71355L576.2469 132.91667L575.16876 132.91667L575.16876 128.76042Q575.16876 127.38542 573.8094 127.38542Q572.7469 127.38542 572.35626 128.29167L572.35626 132.91667L571.2625 132.91667L571.2625 126.57292L572.29376 126.57292Z" fill-rule="nonzero"/><path fill="#9e9e9e" d="M561.34064 144.60417Q561.34064 145.2448 560.9969 145.7448Q560.65314 146.2448 560.09064 146.52605Q560.7469 146.8073 561.1375 147.3698Q561.52814 147.91667 561.52814 148.6198Q561.52814 149.71355 560.77814 150.38542Q560.04376 151.04167 558.825 151.04167Q557.59064 151.04167 556.84064 150.38542Q556.10626 149.71355 556.10626 148.6198Q556.10626 147.91667 556.48126 147.3698Q556.85626 146.8073 557.52814 146.52605Q556.96564 146.2448 556.6375 145.7448Q556.3094 145.2448 556.3094 144.60417Q556.3094 143.52605 556.9969 142.90105Q557.6844 142.26042 558.825 142.26042Q559.95 142.26042 560.6375 142.90105Q561.34064 143.52605 561.34064 144.60417ZM560.45 148.58855Q560.45 147.8698 559.9969 147.4323Q559.54376 146.97917 558.8094 146.97917Q558.075 146.97917 557.6219 147.4323Q557.1844 147.8698 557.1844 148.60417Q557.1844 149.32292 557.6219 149.7448Q558.0594 150.15105 558.825 150.15105Q559.575 150.15105 560.0125 149.72917Q560.45 149.3073 560.45 148.58855ZM558.825 143.15105Q558.1844 143.15105 557.77814 143.5573Q557.3875 143.94792 557.3875 144.63542Q557.3875 145.27605 557.77814 145.6823Q558.16876 146.08855 558.8094 146.08855Q559.46564 146.08855 559.85626 145.6823Q560.2469 145.27605 560.2469 144.63542Q560.2469 143.97917 559.84064 143.57292Q559.4344 143.15105 558.825 143.15105ZM563.29376 150.35417Q563.29376 150.07292 563.45 149.88542Q563.6219 149.69792 563.95 149.69792Q564.29376 149.69792 564.46564 149.88542Q564.6375 150.07292 564.6375 150.35417Q564.6375 150.6198 564.46564 150.8073Q564.29376 150.97917 563.95 150.97917Q563.6219 150.97917 563.45 150.8073Q563.29376 150.6198 563.29376 150.35417ZM571.66876 142.9948L568.1375 150.91667L566.9969 150.91667L570.5125 143.27605L565.90314 143.27605L565.90314 142.38542L571.66876 142.38542L571.66876 142.9948ZM573.0594 144.02605Q573.0594 143.26042 573.54376 142.76042Q574.04376 142.26042 574.8094 142.26042Q575.59064 142.26042 576.075 142.76042Q576.5594 143.26042 576.5594 144.0573L576.5594 144.47917Q576.5594 145.2448 576.0594 145.7448Q575.575 146.22917 574.825 146.22917Q574.0594 146.22917 573.5594 145.7448Q573.0594 145.2448 573.0594 144.4323L573.0594 144.02605ZM573.8719 144.47917Q573.8719 144.9323 574.1219 145.22917Q574.3875 145.52605 574.825 145.52605Q575.2469 145.52605 575.4969 145.2448Q575.7469 144.94792 575.7469 144.44792L575.7469 144.02605Q575.7469 143.57292 575.4969 143.27605Q575.2469 142.96355 574.8094 142.96355Q574.3719 142.96355 574.1219 143.27605Q573.8719 143.57292 573.8719 144.04167L573.8719 144.47917ZM577.21564 148.82292Q577.21564 148.0573 577.7 147.57292Q578.2 147.07292 578.96564 147.07292Q579.73126 147.07292 580.21564 147.57292Q580.71564 148.0573 580.71564 148.8698L580.71564 149.27605Q580.71564 150.04167 580.23126 150.54167Q579.7469 151.04167 578.98126 151.04167Q578.21564 151.04167 577.71564 150.5573Q577.21564 150.0573 577.21564 149.2448L577.21564 148.82292ZM578.02814 149.27605Q578.02814 149.7448 578.27814 150.04167Q578.54376 150.33855 578.98126 150.33855Q579.40314 150.33855 579.65314 150.0573Q579.90314 149.76042 579.90314 149.26042L579.90314 148.82292Q579.90314 148.35417 579.6375 148.07292Q579.3875 147.77605 578.96564 147.77605Q578.54376 147.77605 578.27814 148.07292Q578.02814 148.35417 578.02814 148.85417L578.02814 149.27605ZM575.075 150.27605L574.45 149.88542L578.6219 143.21355L579.23126 143.60417L575.075 150.27605Z" fill-rule="nonzero"/><path stroke="#757575" stroke-width="1.0" stroke-linecap="butt" d="M581.45 137.41667L454.76666 137.41667L402.90695 124.71661" fill-rule="nonzero"/><path fill="#9e9e9e" d="M404.90695 124.71661C404.90695 123.612045 404.0115 122.71661 402.90695 122.71661C401.80237 122.71661 400.90695 123.612045 400.90695 124.71661C400.90695 125.82118 401.80237 126.71661 402.90695 126.71661C404.0115 126.71661 404.90695 125.82118 404.90695 124.71661" fill-rule="nonzero"/><path fill="#000000" d="M545.71564 163.21355Q545.5594 164.5573 544.71564 165.3073Q543.8719 166.04167 542.48126 166.04167Q540.96564 166.04167 540.0594 164.96355Q539.15314 163.8698 539.15314 162.04167L539.15314 161.22917Q539.15314 160.04167 539.575 159.13542Q539.9969 158.22917 540.77814 157.7448Q541.5594 157.26042 542.575 157.26042Q543.9344 157.26042 544.7469 158.02605Q545.575 158.79167 545.71564 160.1198L544.59064 160.1198Q544.4344 159.10417 543.95 158.65105Q543.46564 158.19792 542.575 158.19792Q541.4969 158.19792 540.8875 158.9948Q540.27814 159.79167 540.27814 161.26042L540.27814 162.08855Q540.27814 163.47917 540.85626 164.3073Q541.4344 165.1198 542.48126 165.1198Q543.41876 165.1198 543.91876 164.69792Q544.41876 164.26042 544.59064 163.21355L545.71564 163.21355ZM551.1844 165.91667Q551.09064 165.72917 551.02814 165.2448Q550.27814 166.04167 549.23126 166.04167Q548.29376 166.04167 547.6844 165.51042Q547.09064 164.97917 547.09064 164.15105Q547.09064 163.16667 547.84064 162.6198Q548.59064 162.07292 549.96564 162.07292L551.0125 162.07292L551.0125 161.57292Q551.0125 161.01042 550.66876 160.6823Q550.34064 160.33855 549.66876 160.33855Q549.09064 160.33855 548.7 160.63542Q548.3094 160.91667 548.3094 161.33855L547.21564 161.33855Q547.21564 160.85417 547.54376 160.41667Q547.8875 159.97917 548.46564 159.72917Q549.04376 159.46355 549.73126 159.46355Q550.84064 159.46355 551.45 160.01042Q552.075 160.5573 552.10626 161.51042L552.10626 164.4323Q552.10626 165.3073 552.325 165.82292L552.325 165.91667L551.1844 165.91667ZM549.3875 165.08855Q549.90314 165.08855 550.35626 164.82292Q550.8094 164.5573 551.0125 164.13542L551.0125 162.83855L550.16876 162.83855Q548.16876 162.83855 548.16876 164.01042Q548.16876 164.51042 548.5125 164.8073Q548.85626 165.08855 549.3875 165.08855ZM555.29376 159.57292L555.325 160.3698Q556.0594 159.46355 557.23126 159.46355Q559.2469 159.46355 559.2625 161.72917L559.2625 165.91667L558.16876 165.91667L558.16876 161.71355Q558.16876 161.04167 557.85626 160.71355Q557.5594 160.38542 556.90314 160.38542Q556.3719 160.38542 555.96564 160.66667Q555.575 160.94792 555.35626 161.40105L555.35626 165.91667L554.27814 165.91667L554.27814 159.57292L555.29376 159.57292ZM565.1844 165.91667Q565.09064 165.72917 565.02814 165.2448Q564.27814 166.04167 563.23126 166.04167Q562.29376 166.04167 561.6844 165.51042Q561.09064 164.97917 561.09064 164.15105Q561.09064 163.16667 561.84064 162.6198Q562.59064 162.07292 563.96564 162.07292L565.0125 162.07292L565.0125 161.57292Q565.0125 161.01042 564.66876 160.6823Q564.34064 160.33855 563.66876 160.33855Q563.09064 160.33855 562.7 160.63542Q562.3094 160.91667 562.3094 161.33855L561.21564 161.33855Q561.21564 160.85417 561.54376 160.41667Q561.8875 159.97917 562.46564 159.72917Q563.04376 159.46355 563.73126 159.46355Q564.84064 159.46355 565.45 160.01042Q566.075 160.5573 566.10626 161.51042L566.10626 164.4323Q566.10626 165.3073 566.325 165.82292L566.325 165.91667L565.1844 165.91667ZM563.3875 165.08855Q563.90314 165.08855 564.35626 164.82292Q564.8094 164.5573 565.0125 164.13542L565.0125 162.83855L564.16876 162.83855Q562.16876 162.83855 562.16876 164.01042Q562.16876 164.51042 562.5125 164.8073Q562.85626 165.08855 563.3875 165.08855ZM568.0125 162.69792Q568.0125 161.22917 568.7 160.35417Q569.3875 159.46355 570.5125 159.46355Q571.6219 159.46355 572.27814 160.21355L572.27814 156.91667L573.35626 156.91667L573.35626 165.91667L572.35626 165.91667L572.3094 165.22917Q571.65314 166.04167 570.4969 166.04167Q569.40314 166.04167 568.7 165.13542Q568.0125 164.22917 568.0125 162.77605L568.0125 162.69792ZM569.09064 162.82292Q569.09064 163.90105 569.52814 164.51042Q569.98126 165.1198 570.7625 165.1198Q571.79376 165.1198 572.27814 164.1823L572.27814 161.27605Q571.79376 160.38542 570.77814 160.38542Q569.98126 160.38542 569.52814 160.9948Q569.09064 161.60417 569.09064 162.82292ZM579.1844 165.91667Q579.09064 165.72917 579.02814 165.2448Q578.27814 166.04167 577.23126 166.04167Q576.29376 166.04167 575.6844 165.51042Q575.09064 164.97917 575.09064 164.15105Q575.09064 163.16667 575.84064 162.6198Q576.59064 162.07292 577.96564 162.07292L579.0125 162.07292L579.0125 161.57292Q579.0125 161.01042 578.66876 160.6823Q578.34064 160.33855 577.66876 160.33855Q577.09064 160.33855 576.7 160.63542Q576.3094 160.91667 576.3094 161.33855L575.21564 161.33855Q575.21564 160.85417 575.54376 160.41667Q575.8875 159.97917 576.46564 159.72917Q577.04376 159.46355 577.73126 159.46355Q578.84064 159.46355 579.45 160.01042Q580.075 160.5573 580.10626 161.51042L580.10626 164.4323Q580.10626 165.3073 580.325 165.82292L580.325 165.91667L579.1844 165.91667ZM577.3875 165.08855Q577.90314 165.08855 578.35626 164.82292Q578.8094 164.5573 579.0125 164.13542L579.0125 162.83855L578.16876 162.83855Q576.16876 162.83855 576.16876 164.01042Q576.16876 164.51042 576.5125 164.8073Q576.85626 165.08855 577.3875 165.08855Z" fill-rule="nonzero"/><path fill="#9e9e9e" d="M560.41876 175.38542L560.41876 176.29167L560.21564 176.29167Q558.95 176.32292 558.2 177.0573Q557.45 177.77605 557.325 179.08855Q558.0125 178.32292 559.16876 178.32292Q560.27814 178.32292 560.95 179.10417Q561.6219 179.88542 561.6219 181.13542Q561.6219 182.44792 560.90314 183.2448Q560.1844 184.04167 558.96564 184.04167Q557.7469 184.04167 556.98126 183.10417Q556.23126 182.15105 556.23126 180.66667L556.23126 180.26042Q556.23126 177.90105 557.23126 176.65105Q558.23126 175.40105 560.21564 175.38542L560.41876 175.38542ZM558.9969 179.22917Q558.4344 179.22917 557.96564 179.5573Q557.4969 179.88542 557.3094 180.40105L557.3094 180.79167Q557.3094 181.85417 557.77814 182.4948Q558.2625 183.13542 558.96564 183.13542Q559.7 183.13542 560.1219 182.60417Q560.54376 182.0573 560.54376 181.1823Q560.54376 180.3073 560.1219 179.77605Q559.7 179.22917 558.9969 179.22917ZM563.29376 183.35417Q563.29376 183.07292 563.45 182.88542Q563.6219 182.69792 563.95 182.69792Q564.29376 182.69792 564.46564 182.88542Q564.6375 183.07292 564.6375 183.35417Q564.6375 183.6198 564.46564 183.8073Q564.29376 183.97917 563.95 183.97917Q563.6219 183.97917 563.45 183.8073Q563.29376 183.6198 563.29376 183.35417ZM571.66876 175.9948L568.1375 183.91667L566.9969 183.91667L570.5125 176.27605L565.90314 176.27605L565.90314 175.38542L571.66876 175.38542L571.66876 175.9948ZM573.0594 177.02605Q573.0594 176.26042 573.54376 175.76042Q574.04376 175.26042 574.8094 175.26042Q575.59064 175.26042 576.075 175.76042Q576.5594 176.26042 576.5594 177.0573L576.5594 177.47917Q576.5594 178.2448 576.0594 178.7448Q575.575 179.22917 574.825 179.22917Q574.0594 179.22917 573.5594 178.7448Q573.0594 178.2448 573.0594 177.4323L573.0594 177.02605ZM573.8719 177.47917Q573.8719 177.9323 574.1219 178.22917Q574.3875 178.52605 574.825 178.52605Q575.2469 178.52605 575.4969 178.2448Q575.7469 177.94792 575.7469 177.44792L575.7469 177.02605Q575.7469 176.57292 575.4969 176.27605Q575.2469 175.96355 574.8094 175.96355Q574.3719 175.96355 574.1219 176.27605Q573.8719 176.57292 573.8719 177.04167L573.8719 177.47917ZM577.21564 181.82292Q577.21564 181.0573 577.7 180.57292Q578.2 180.07292 578.96564 180.07292Q579.73126 180.07292 580.21564 180.57292Q580.71564 181.0573 580.71564 181.8698L580.71564 182.27605Q580.71564 183.04167 580.23126 183.54167Q579.7469 184.04167 578.98126 184.04167Q578.21564 184.04167 577.71564 183.5573Q577.21564 183.0573 577.21564 182.2448L577.21564 181.82292ZM578.02814 182.27605Q578.02814 182.7448 578.27814 183.04167Q578.54376 183.33855 578.98126 183.33855Q579.40314 183.33855 579.65314 183.0573Q579.90314 182.76042 579.90314 182.26042L579.90314 181.82292Q579.90314 181.35417 579.6375 181.07292Q579.3875 180.77605 578.96564 180.77605Q578.54376 180.77605 578.27814 181.07292Q578.02814 181.35417 578.02814 181.85417L578.02814 182.27605ZM575.075 183.27605L574.45 182.88542L578.6219 176.21355L579.23126 176.60417L575.075 183.27605Z" fill-rule="nonzero"/><path stroke="#757575" stroke-width="1.0" stroke-linecap="butt" d="M581.45 170.41667L454.76666 170.41667L436.13745 165.96002" fill-rule="nonzero"/><path fill="#9e9e9e" d="M438.13745 165.96002C438.13745 164.85545 437.24203 163.96002 436.13745 163.96002C435.0329 163.96002 434.13745 164.85545 434.13745 165.96002C434.13745 167.06459 435.0329 167.96002 436.13745 167.96002C437.24203 167.96002 438.13745 167.06459 438.13745 165.96002" fill-rule="nonzero"/><path fill="#000000" d="M546.15314 195.15105L542.5594 195.15105L542.5594 198.91667L541.4344 198.91667L541.4344 190.38542L546.73126 190.38542L546.73126 191.3073L542.5594 191.3073L542.5594 194.22917L546.15314 194.22917L546.15314 195.15105ZM549.45 198.91667L548.3719 198.91667L548.3719 192.57292L549.45 192.57292L549.45 198.91667ZM548.27814 190.90105Q548.27814 190.63542 548.4344 190.44792Q548.60626 190.26042 548.91876 190.26042Q549.23126 190.26042 549.3875 190.44792Q549.5594 190.63542 549.5594 190.90105Q549.5594 191.15105 549.3875 191.33855Q549.23126 191.51042 548.91876 191.51042Q548.60626 191.51042 548.4344 191.33855Q548.27814 191.15105 548.27814 190.90105ZM552.29376 192.57292L552.325 193.3698Q553.0594 192.46355 554.23126 192.46355Q556.2469 192.46355 556.2625 194.72917L556.2625 198.91667L555.16876 198.91667L555.16876 194.71355Q555.16876 194.04167 554.85626 193.71355Q554.5594 193.38542 553.90314 193.38542Q553.3719 193.38542 552.96564 193.66667Q552.575 193.94792 552.35626 194.40105L552.35626 198.91667L551.27814 198.91667L551.27814 192.57292L552.29376 192.57292ZM559.45 198.91667L558.3719 198.91667L558.3719 189.91667L559.45 189.91667L559.45 198.91667ZM565.1844 198.91667Q565.09064 198.72917 565.02814 198.2448Q564.27814 199.04167 563.23126 199.04167Q562.29376 199.04167 561.6844 198.51042Q561.09064 197.97917 561.09064 197.15105Q561.09064 196.16667 561.84064 195.6198Q562.59064 195.07292 563.96564 195.07292L565.0125 195.07292L565.0125 194.57292Q565.0125 194.01042 564.66876 193.6823Q564.34064 193.33855 563.66876 193.33855Q563.09064 193.33855 562.7 193.63542Q562.3094 193.91667 562.3094 194.33855L561.21564 194.33855Q561.21564 193.85417 561.54376 193.41667Q561.8875 192.97917 562.46564 192.72917Q563.04376 192.46355 563.73126 192.46355Q564.84064 192.46355 565.45 193.01042Q566.075 193.5573 566.10626 194.51042L566.10626 197.4323Q566.10626 198.3073 566.325 198.82292L566.325 198.91667L565.1844 198.91667ZM563.3875 198.08855Q563.90314 198.08855 564.35626 197.82292Q564.8094 197.5573 565.0125 197.13542L565.0125 195.83855L564.16876 195.83855Q562.16876 195.83855 562.16876 197.01042Q562.16876 197.51042 562.5125 197.8073Q562.85626 198.08855 563.3875 198.08855ZM569.29376 192.57292L569.325 193.3698Q570.0594 192.46355 571.23126 192.46355Q573.2469 192.46355 573.2625 194.72917L573.2625 198.91667L572.16876 198.91667L572.16876 194.71355Q572.16876 194.04167 571.85626 193.71355Q571.5594 193.38542 570.90314 193.38542Q570.3719 193.38542 569.96564 193.66667Q569.575 193.94792 569.35626 194.40105L569.35626 198.91667L568.27814 198.91667L568.27814 192.57292L569.29376 192.57292ZM575.0125 195.69792Q575.0125 194.22917 575.7 193.35417Q576.3875 192.46355 577.5125 192.46355Q578.6219 192.46355 579.27814 193.21355L579.27814 189.91667L580.35626 189.91667L580.35626 198.91667L579.35626 198.91667L579.3094 198.22917Q578.65314 199.04167 577.4969 199.04167Q576.40314 199.04167 575.7 198.13542Q575.0125 197.22917 575.0125 195.77605L575.0125 195.69792ZM576.09064 195.82292Q576.09064 196.90105 576.52814 197.51042Q576.98126 198.1198 577.7625 198.1198Q578.79376 198.1198 579.27814 197.1823L579.27814 194.27605Q578.79376 193.38542 577.77814 193.38542Q576.98126 193.38542 576.52814 193.9948Q576.09064 194.60417 576.09064 195.82292Z" fill-rule="nonzero"/><path fill="#9e9e9e" d="M559.71564 216.91667L558.6375 216.91667L558.6375 209.69792L556.45 210.4948L556.45 209.51042L559.5594 208.33855L559.71564 208.33855L559.71564 216.91667ZM563.29376 216.35417Q563.29376 216.07292 563.45 215.88542Q563.6219 215.69792 563.95 215.69792Q564.29376 215.69792 564.46564 215.88542Q564.6375 216.07292 564.6375 216.35417Q564.6375 216.6198 564.46564 216.8073Q564.29376 216.97917 563.95 216.97917Q563.6219 216.97917 563.45 216.8073Q563.29376 216.6198 563.29376 216.35417ZM571.5125 213.27605Q571.5125 215.1823 570.85626 216.1198Q570.21564 217.04167 568.825 217.04167Q567.46564 217.04167 566.8094 216.13542Q566.15314 215.22917 566.1219 213.41667L566.1219 211.97917Q566.1219 210.08855 566.7625 209.1823Q567.41876 208.26042 568.8094 208.26042Q570.1844 208.26042 570.84064 209.15105Q571.4969 210.02605 571.5125 211.8698L571.5125 213.27605ZM570.41876 211.79167Q570.41876 210.41667 570.02814 209.79167Q569.65314 209.15105 568.8094 209.15105Q567.98126 209.15105 567.59064 209.79167Q567.21564 210.41667 567.21564 211.71355L567.21564 213.44792Q567.21564 214.82292 567.60626 215.4948Q568.0125 216.15105 568.825 216.15105Q569.6219 216.15105 570.0125 215.52605Q570.40314 214.90105 570.41876 213.57292L570.41876 211.79167ZM573.0594 210.02605Q573.0594 209.26042 573.54376 208.76042Q574.04376 208.26042 574.8094 208.26042Q575.59064 208.26042 576.075 208.76042Q576.5594 209.26042 576.5594 210.0573L576.5594 210.47917Q576.5594 211.2448 576.0594 211.7448Q575.575 212.22917 574.825 212.22917Q574.0594 212.22917 573.5594 211.7448Q573.0594 211.2448 573.0594 210.4323L573.0594 210.02605ZM573.8719 210.47917Q573.8719 210.9323 574.1219 211.22917Q574.3875 211.52605 574.825 211.52605Q575.2469 211.52605 575.4969 211.2448Q575.7469 210.94792 575.7469 210.44792L575.7469 210.02605Q575.7469 209.57292 575.4969 209.27605Q575.2469 208.96355 574.8094 208.96355Q574.3719 208.96355 574.1219 209.27605Q573.8719 209.57292 573.8719 210.04167L573.8719 210.47917ZM577.21564 214.82292Q577.21564 214.0573 577.7 213.57292Q578.2 213.07292 578.96564 213.07292Q579.73126 213.07292 580.21564 213.57292Q580.71564 214.0573 580.71564 214.8698L580.71564 215.27605Q580.71564 216.04167 580.23126 216.54167Q579.7469 217.04167 578.98126 217.04167Q578.21564 217.04167 577.71564 216.5573Q577.21564 216.0573 577.21564 215.2448L577.21564 214.82292ZM578.02814 215.27605Q578.02814 215.7448 578.27814 216.04167Q578.54376 216.33855 578.98126 216.33855Q579.40314 216.33855 579.65314 216.0573Q579.90314 215.76042 579.90314 215.26042L579.90314 214.82292Q579.90314 214.35417 579.6375 214.07292Q579.3875 213.77605 578.96564 213.77605Q578.54376 213.77605 578.27814 214.07292Q578.02814 214.35417 578.02814 214.85417L578.02814 215.27605ZM575.075 216.27605L574.45 215.88542L578.6219 209.21355L579.23126 209.60417L575.075 216.27605Z" fill-rule="nonzero"/><path stroke="#757575" stroke-width="1.0" stroke-linecap="butt" d="M581.45 203.41667L454.76666 203.41667L441.26385 189.53786" fill-rule="nonzero"/><path fill="#9e9e9e" d="M443.26385 189.53786C443.26385 188.43329 442.36844 187.53786 441.26385 187.53786C440.1593 187.53786 439.26385 188.43329 439.26385 189.53786C439.26385 190.64243 440.1593 191.53786 441.26385 191.53786C442.36844 191.53786 443.26385 190.64243 443.26385 189.53786" fill-rule="nonzero"/><path fill="#000000" d="M550.15314 228.15105L546.5594 228.15105L546.5594 231.91667L545.4344 231.91667L545.4344 223.38542L550.73126 223.38542L550.73126 224.3073L546.5594 224.3073L546.5594 227.22917L550.15314 227.22917L550.15314 228.15105ZM555.34064 226.54167Q555.09064 226.51042 554.8094 226.51042Q553.73126 226.51042 553.35626 227.41667L553.35626 231.91667L552.27814 231.91667L552.27814 225.57292L553.325 225.57292L553.34064 226.3073Q553.8719 225.46355 554.85626 225.46355Q555.16876 225.46355 555.34064 225.54167L555.34064 226.54167ZM560.1844 231.91667Q560.09064 231.72917 560.02814 231.2448Q559.27814 232.04167 558.23126 232.04167Q557.29376 232.04167 556.6844 231.51042Q556.09064 230.97917 556.09064 230.15105Q556.09064 229.16667 556.84064 228.6198Q557.59064 228.07292 558.96564 228.07292L560.0125 228.07292L560.0125 227.57292Q560.0125 227.01042 559.66876 226.6823Q559.34064 226.33855 558.66876 226.33855Q558.09064 226.33855 557.7 226.63542Q557.3094 226.91667 557.3094 227.33855L556.21564 227.33855Q556.21564 226.85417 556.54376 226.41667Q556.8875 225.97917 557.46564 225.72917Q558.04376 225.46355 558.73126 225.46355Q559.84064 225.46355 560.45 226.01042Q561.075 226.5573 561.10626 227.51042L561.10626 230.4323Q561.10626 231.3073 561.325 231.82292L561.325 231.91667L560.1844 231.91667ZM558.3875 231.08855Q558.90314 231.08855 559.35626 230.82292Q559.8094 230.5573 560.0125 230.13542L560.0125 228.83855L559.16876 228.83855Q557.16876 228.83855 557.16876 230.01042Q557.16876 230.51042 557.5125 230.8073Q557.85626 231.08855 558.3875 231.08855ZM564.29376 225.57292L564.325 226.3698Q565.0594 225.46355 566.23126 225.46355Q568.2469 225.46355 568.2625 227.72917L568.2625 231.91667L567.16876 231.91667L567.16876 227.71355Q567.16876 227.04167 566.85626 226.71355Q566.5594 226.38542 565.90314 226.38542Q565.3719 226.38542 564.96564 226.66667Q564.575 226.94792 564.35626 227.40105L564.35626 231.91667L563.27814 231.91667L563.27814 225.57292L564.29376 225.57292ZM572.8094 231.15105Q573.3875 231.15105 573.825 230.8073Q574.2625 230.44792 574.3094 229.91667L575.34064 229.91667Q575.3094 230.46355 574.95 230.96355Q574.60626 231.44792 574.02814 231.7448Q573.46564 232.04167 572.8094 232.04167Q571.5125 232.04167 570.7469 231.1823Q569.9969 230.3073 569.9969 228.8073L569.9969 228.6198Q569.9969 227.69792 570.325 226.97917Q570.66876 226.26042 571.29376 225.8698Q571.9344 225.46355 572.8094 225.46355Q573.8719 225.46355 574.575 226.10417Q575.29376 226.72917 575.34064 227.76042L574.3094 227.76042Q574.2625 227.13542 573.84064 226.7448Q573.41876 226.35417 572.8094 226.35417Q571.98126 226.35417 571.52814 226.94792Q571.075 227.54167 571.075 228.66667L571.075 228.8698Q571.075 229.96355 571.52814 230.5573Q571.98126 231.15105 572.8094 231.15105ZM578.90314 232.04167Q577.60626 232.04167 576.79376 231.19792Q575.9969 230.33855 575.9969 228.91667L575.9969 228.72917Q575.9969 227.77605 576.35626 227.04167Q576.71564 226.29167 577.35626 225.88542Q578.0125 225.46355 578.7625 225.46355Q579.9969 225.46355 580.6844 226.27605Q581.3719 227.08855 581.3719 228.60417L581.3719 229.0573L577.075 229.0573Q577.10626 229.9948 577.6219 230.57292Q578.15314 231.15105 578.96564 231.15105Q579.52814 231.15105 579.91876 230.91667Q580.325 230.6823 580.6375 230.29167L581.29376 230.8073Q580.4969 232.04167 578.90314 232.04167ZM578.7625 226.35417Q578.10626 226.35417 577.65314 226.83855Q577.21564 227.3073 577.1219 228.16667L580.29376 228.16667L580.29376 228.08855Q580.2469 227.26042 579.84064 226.8073Q579.45 226.35417 578.7625 226.35417Z" fill-rule="nonzero"/><path fill="#9e9e9e" d="M559.71564 249.91667L558.6375 249.91667L558.6375 242.69792L556.45 243.4948L556.45 242.51042L559.5594 241.33855L559.71564 241.33855L559.71564 249.91667ZM563.29376 249.35417Q563.29376 249.07292 563.45 248.88542Q563.6219 248.69792 563.95 248.69792Q564.29376 248.69792 564.46564 248.88542Q564.6375 249.07292 564.6375 249.35417Q564.6375 249.6198 564.46564 249.8073Q564.29376 249.97917 563.95 249.97917Q563.6219 249.97917 563.45 249.8073Q563.29376 249.6198 563.29376 249.35417ZM571.5125 246.27605Q571.5125 248.1823 570.85626 249.1198Q570.21564 250.04167 568.825 250.04167Q567.46564 250.04167 566.8094 249.13542Q566.15314 248.22917 566.1219 246.41667L566.1219 244.97917Q566.1219 243.08855 566.7625 242.1823Q567.41876 241.26042 568.8094 241.26042Q570.1844 241.26042 570.84064 242.15105Q571.4969 243.02605 571.5125 244.8698L571.5125 246.27605ZM570.41876 244.79167Q570.41876 243.41667 570.02814 242.79167Q569.65314 242.15105 568.8094 242.15105Q567.98126 242.15105 567.59064 242.79167Q567.21564 243.41667 567.21564 244.71355L567.21564 246.44792Q567.21564 247.82292 567.60626 248.4948Q568.0125 249.15105 568.825 249.15105Q569.6219 249.15105 570.0125 248.52605Q570.40314 247.90105 570.41876 246.57292L570.41876 244.79167ZM573.0594 243.02605Q573.0594 242.26042 573.54376 241.76042Q574.04376 241.26042 574.8094 241.26042Q575.59064 241.26042 576.075 241.76042Q576.5594 242.26042 576.5594 243.0573L576.5594 243.47917Q576.5594 244.2448 576.0594 244.7448Q575.575 245.22917 574.825 245.22917Q574.0594 245.22917 573.5594 244.7448Q573.0594 244.2448 573.0594 243.4323L573.0594 243.02605ZM573.8719 243.47917Q573.8719 243.9323 574.1219 244.22917Q574.3875 244.52605 574.825 244.52605Q575.2469 244.52605 575.4969 244.2448Q575.7469 243.94792 575.7469 243.44792L575.7469 243.02605Q575.7469 242.57292 575.4969 242.27605Q575.2469 241.96355 574.8094 241.96355Q574.3719 241.96355 574.1219 242.27605Q573.8719 242.57292 573.8719 243.04167L573.8719 243.47917ZM577.21564 247.82292Q577.21564 247.0573 577.7 246.57292Q578.2 246.07292 578.96564 246.07292Q579.73126 246.07292 580.21564 246.57292Q580.71564 247.0573 580.71564 247.8698L580.71564 248.27605Q580.71564 249.04167 580.23126 249.54167Q579.7469 250.04167 578.98126 250.04167Q578.21564 250.04167 577.71564 249.5573Q577.21564 249.0573 577.21564 248.2448L577.21564 247.82292ZM578.02814 248.27605Q578.02814 248.7448 578.27814 249.04167Q578.54376 249.33855 578.98126 249.33855Q579.40314 249.33855 579.65314 249.0573Q579.90314 248.76042 579.90314 248.26042L579.90314 247.82292Q579.90314 247.35417 579.6375 247.07292Q579.3875 246.77605 578.96564 246.77605Q578.54376 246.77605 578.27814 247.07292Q578.02814 247.35417 578.02814 247.85417L578.02814 248.27605ZM575.075 249.27605L574.45 248.88542L578.6219 242.21355L579.23126 242.60417L575.075 249.27605Z" fill-rule="nonzero"/><path stroke="#757575" stroke-width="1.0" stroke-linecap="butt" d="M581.45 236.41667L454.76666 236.41667L441.26385 195.51381" fill-rule="nonzero"/><path fill="#9e9e9e" d="M443.26385 195.51381C443.26385 194.40924 442.36844 193.51381 441.26385 193.51381C440.1593 193.51381 439.26385 194.40924 439.26385 195.51381C439.26385 196.61838 440.1593 197.51381 441.26385 197.51381C442.36844 197.51381 443.26385 196.61838 443.26385 195.51381" fill-rule="nonzero"/><path fill="#000000" d="M539.7469 263.79166Q539.3094 264.41666 538.52814 264.72916Q537.7469 265.04166 536.71564 265.04166Q535.6844 265.04166 534.8719 264.55728Q534.0594 264.05728 533.6219 263.15103Q533.1844 262.24478 533.16876 261.05728L533.16876 260.3229Q533.16876 258.3854 534.0594 257.3229Q534.96564 256.2604 536.59064 256.2604Q537.9344 256.2604 538.7469 256.9479Q539.5594 257.6354 539.7469 258.8854L538.6219 258.8854Q538.29376 257.1979 536.60626 257.1979Q535.46564 257.1979 534.8875 257.99478Q534.3094 258.77603 534.29376 260.29166L534.29376 260.97916Q534.29376 262.41666 534.95 263.27603Q535.60626 264.11978 536.73126 264.11978Q537.35626 264.11978 537.825 263.97916Q538.3094 263.83853 538.6219 263.49478L538.6219 261.58853L536.65314 261.58853L536.65314 260.66666L539.7469 260.66666L539.7469 263.79166ZM543.90314 265.04166Q542.60626 265.04166 541.79376 264.1979Q540.9969 263.33853 540.9969 261.91666L540.9969 261.72916Q540.9969 260.77603 541.35626 260.04166Q541.71564 259.29166 542.35626 258.8854Q543.0125 258.46353 543.7625 258.46353Q544.9969 258.46353 545.6844 259.27603Q546.3719 260.08853 546.3719 261.60416L546.3719 262.05728L542.075 262.05728Q542.10626 262.99478 542.6219 263.5729Q543.15314 264.15103 543.96564 264.15103Q544.52814 264.15103 544.91876 263.91666Q545.325 263.68228 545.6375 263.29166L546.29376 263.80728Q545.4969 265.04166 543.90314 265.04166ZM543.7625 259.35416Q543.10626 259.35416 542.65314 259.83853Q542.21564 260.30728 542.1219 261.16666L545.29376 261.16666L545.29376 261.08853Q545.2469 260.2604 544.84064 259.80728Q544.45 259.35416 543.7625 259.35416ZM550.34064 259.54166Q550.09064 259.5104 549.8094 259.5104Q548.73126 259.5104 548.35626 260.41666L548.35626 264.91666L547.27814 264.91666L547.27814 258.5729L548.325 258.5729L548.34064 259.30728Q548.8719 258.46353 549.85626 258.46353Q550.16876 258.46353 550.34064 258.54166L550.34064 259.54166ZM552.29376 258.5729L552.325 259.27603Q553.0125 258.46353 554.2 258.46353Q555.52814 258.46353 556.0125 259.47916Q556.325 259.02603 556.825 258.74478Q557.34064 258.46353 558.02814 258.46353Q560.1219 258.46353 560.15314 260.66666L560.15314 264.91666L559.075 264.91666L559.075 260.72916Q559.075 260.05728 558.7625 259.72916Q558.45 259.3854 557.71564 259.3854Q557.10626 259.3854 556.7 259.74478Q556.3094 260.10416 556.2469 260.71353L556.2469 264.91666L555.16876 264.91666L555.16876 260.7604Q555.16876 259.3854 553.8094 259.3854Q552.7469 259.3854 552.35626 260.29166L552.35626 264.91666L551.2625 264.91666L551.2625 258.5729L552.29376 258.5729ZM566.1844 264.91666Q566.09064 264.72916 566.02814 264.24478Q565.27814 265.04166 564.23126 265.04166Q563.29376 265.04166 562.6844 264.5104Q562.09064 263.97916 562.09064 263.15103Q562.09064 262.16666 562.84064 261.61978Q563.59064 261.0729 564.96564 261.0729L566.0125 261.0729L566.0125 260.5729Q566.0125 260.0104 565.66876 259.68228Q565.34064 259.33853 564.66876 259.33853Q564.09064 259.33853 563.7 259.6354Q563.3094 259.91666 563.3094 260.33853L562.21564 260.33853Q562.21564 259.85416 562.54376 259.41666Q562.8875 258.97916 563.46564 258.72916Q564.04376 258.46353 564.73126 258.46353Q565.84064 258.46353 566.45 259.0104Q567.075 259.55728 567.10626 260.5104L567.10626 263.43228Q567.10626 264.30728 567.325 264.8229L567.325 264.91666L566.1844 264.91666ZM564.3875 264.08853Q564.90314 264.08853 565.35626 263.8229Q565.8094 263.55728 566.0125 263.1354L566.0125 261.83853L565.16876 261.83853Q563.16876 261.83853 563.16876 263.0104Q563.16876 263.5104 563.5125 263.80728Q563.85626 264.08853 564.3875 264.08853ZM570.29376 258.5729L570.325 259.36978Q571.0594 258.46353 572.23126 258.46353Q574.2469 258.46353 574.2625 260.72916L574.2625 264.91666L573.16876 264.91666L573.16876 260.71353Q573.16876 260.04166 572.85626 259.71353Q572.5594 259.3854 571.90314 259.3854Q571.3719 259.3854 570.96564 259.66666Q570.575 259.9479 570.35626 260.40103L570.35626 264.91666L569.27814 264.91666L569.27814 258.5729L570.29376 258.5729ZM578.34064 263.3229L579.825 258.5729L580.98126 258.5729L578.4344 265.90103Q577.84064 267.47916 576.5594 267.47916L576.34064 267.46353L575.95 267.3854L575.95 266.5104L576.23126 266.52603Q576.79376 266.52603 577.09064 266.30728Q577.40314 266.08853 577.60626 265.49478L577.84064 264.83853L575.575 258.5729L576.7625 258.5729L578.34064 263.3229Z" fill-rule="nonzero"/><path fill="#9e9e9e" d="M557.73126 278.11978L558.54376 278.11978Q559.325 278.10416 559.7625 277.71353Q560.2 277.3229 560.2 276.65103Q560.2 275.15103 558.7 275.15103Q557.9969 275.15103 557.575 275.55728Q557.16876 275.96353 557.16876 276.61978L556.075 276.61978Q556.075 275.60416 556.8094 274.93228Q557.5594 274.2604 558.7 274.2604Q559.90314 274.2604 560.59064 274.90103Q561.27814 275.54166 561.27814 276.68228Q561.27814 277.24478 560.91876 277.7604Q560.5594 278.27603 559.9344 278.54166Q560.6375 278.7604 561.0125 279.27603Q561.40314 279.79166 561.40314 280.54166Q561.40314 281.68228 560.65314 282.36978Q559.90314 283.04166 558.7 283.04166Q557.5125 283.04166 556.7469 282.3854Q555.9969 281.72916 555.9969 280.66666L557.09064 280.66666Q557.09064 281.33853 557.52814 281.74478Q557.96564 282.15103 558.71564 282.15103Q559.4969 282.15103 559.90314 281.74478Q560.325 281.3229 560.325 280.55728Q560.325 279.8229 559.8719 279.43228Q559.41876 279.02603 558.54376 279.0104L557.73126 279.0104L557.73126 278.11978ZM563.29376 282.35416Q563.29376 282.0729 563.45 281.8854Q563.6219 281.6979 563.95 281.6979Q564.29376 281.6979 564.46564 281.8854Q564.6375 282.0729 564.6375 282.35416Q564.6375 282.61978 564.46564 282.80728Q564.29376 282.97916 563.95 282.97916Q563.6219 282.97916 563.45 282.80728Q563.29376 282.61978 563.29376 282.35416ZM571.34064 276.60416Q571.34064 277.24478 570.9969 277.74478Q570.65314 278.24478 570.09064 278.52603Q570.7469 278.80728 571.1375 279.36978Q571.52814 279.91666 571.52814 280.61978Q571.52814 281.71353 570.77814 282.3854Q570.04376 283.04166 568.825 283.04166Q567.59064 283.04166 566.84064 282.3854Q566.10626 281.71353 566.10626 280.61978Q566.10626 279.91666 566.48126 279.36978Q566.85626 278.80728 567.52814 278.52603Q566.96564 278.24478 566.6375 277.74478Q566.3094 277.24478 566.3094 276.60416Q566.3094 275.52603 566.9969 274.90103Q567.6844 274.2604 568.825 274.2604Q569.95 274.2604 570.6375 274.90103Q571.34064 275.52603 571.34064 276.60416ZM570.45 280.58853Q570.45 279.86978 569.9969 279.43228Q569.54376 278.97916 568.8094 278.97916Q568.075 278.97916 567.6219 279.43228Q567.1844 279.86978 567.1844 280.60416Q567.1844 281.3229 567.6219 281.74478Q568.0594 282.15103 568.825 282.15103Q569.575 282.15103 570.0125 281.72916Q570.45 281.30728 570.45 280.58853ZM568.825 275.15103Q568.1844 275.15103 567.77814 275.55728Q567.3875 275.9479 567.3875 276.6354Q567.3875 277.27603 567.77814 277.68228Q568.16876 278.08853 568.8094 278.08853Q569.46564 278.08853 569.85626 277.68228Q570.2469 277.27603 570.2469 276.6354Q570.2469 275.97916 569.84064 275.5729Q569.4344 275.15103 568.825 275.15103ZM573.0594 276.02603Q573.0594 275.2604 573.54376 274.7604Q574.04376 274.2604 574.8094 274.2604Q575.59064 274.2604 576.075 274.7604Q576.5594 275.2604 576.5594 276.05728L576.5594 276.47916Q576.5594 277.24478 576.0594 277.74478Q575.575 278.22916 574.825 278.22916Q574.0594 278.22916 573.5594 277.74478Q573.0594 277.24478 573.0594 276.43228L573.0594 276.02603ZM573.8719 276.47916Q573.8719 276.93228 574.1219 277.22916Q574.3875 277.52603 574.825 277.52603Q575.2469 277.52603 575.4969 277.24478Q575.7469 276.9479 575.7469 276.4479L575.7469 276.02603Q575.7469 275.5729 575.4969 275.27603Q575.2469 274.96353 574.8094 274.96353Q574.3719 274.96353 574.1219 275.27603Q573.8719 275.5729 573.8719 276.04166L573.8719 276.47916ZM577.21564 280.8229Q577.21564 280.05728 577.7 279.5729Q578.2 279.0729 578.96564 279.0729Q579.73126 279.0729 580.21564 279.5729Q580.71564 280.05728 580.71564 280.86978L580.71564 281.27603Q580.71564 282.04166 580.23126 282.54166Q579.7469 283.04166 578.98126 283.04166Q578.21564 283.04166 577.71564 282.55728Q577.21564 282.05728 577.21564 281.24478L577.21564 280.8229ZM578.02814 281.27603Q578.02814 281.74478 578.27814 282.04166Q578.54376 282.33853 578.98126 282.33853Q579.40314 282.33853 579.65314 282.05728Q579.90314 281.7604 579.90314 281.2604L579.90314 280.8229Q579.90314 280.35416 579.6375 280.0729Q579.3875 279.77603 578.96564 279.77603Q578.54376 279.77603 578.27814 280.0729Q578.02814 280.35416 578.02814 280.85416L578.02814 281.27603ZM575.075 282.27603L574.45 281.8854L578.6219 275.21353L579.23126 275.60416L575.075 282.27603Z" fill-rule="nonzero"/><path stroke="#757575" stroke-width="1.0" stroke-linecap="butt" d="M581.45 269.41666L454.76666 269.41666L439.01337 210.35843" fill-rule="nonzero"/><path fill="#9e9e9e" d="M441.01337 210.35843C441.01337 209.25386 440.11792 208.35843 439.01337 208.35843C437.90878 208.35843 437.01337 209.25386 437.01337 210.35843C437.01337 211.463 437.90878 212.35843 439.01337 212.35843C440.11792 212.35843 441.01337 211.463 441.01337 210.35843" fill-rule="nonzero"/><path fill="#000000" d="M522.9969 297.91666L521.8719 297.91666L517.575 291.33853L517.575 297.91666L516.4344 297.91666L516.4344 289.3854L517.575 289.3854L521.8719 295.99478L521.8719 289.3854L522.9969 289.3854L522.9969 297.91666ZM527.90314 298.04166Q526.60626 298.04166 525.79376 297.1979Q524.9969 296.33853 524.9969 294.91666L524.9969 294.72916Q524.9969 293.77603 525.35626 293.04166Q525.71564 292.29166 526.35626 291.8854Q527.0125 291.46353 527.7625 291.46353Q528.9969 291.46353 529.6844 292.27603Q530.3719 293.08853 530.3719 294.60416L530.3719 295.05728L526.075 295.05728Q526.10626 295.99478 526.6219 296.5729Q527.15314 297.15103 527.96564 297.15103Q528.52814 297.15103 528.91876 296.91666Q529.325 296.68228 529.6375 296.29166L530.29376 296.80728Q529.4969 298.04166 527.90314 298.04166ZM527.7625 292.35416Q527.10626 292.35416 526.65314 292.83853Q526.21564 293.30728 526.1219 294.16666L529.29376 294.16666L529.29376 294.08853Q529.2469 293.2604 528.84064 292.80728Q528.45 292.35416 527.7625 292.35416ZM532.7469 290.04166L532.7469 291.5729L533.91876 291.5729L533.91876 292.41666L532.7469 292.41666L532.7469 296.33853Q532.7469 296.72916 532.90314 296.91666Q533.0594 297.10416 533.4344 297.10416Q533.6219 297.10416 533.95 297.04166L533.95 297.91666Q533.52814 298.04166 533.1219 298.04166Q532.40314 298.04166 532.02814 297.60416Q531.65314 297.15103 531.65314 296.33853L531.65314 292.41666L530.4969 292.41666L530.4969 291.5729L531.65314 291.5729L531.65314 290.04166L532.7469 290.04166ZM536.35626 292.33853Q537.075 291.46353 538.23126 291.46353Q540.2469 291.46353 540.2625 293.72916L540.2625 297.91666L539.16876 297.91666L539.16876 293.71353Q539.16876 293.04166 538.85626 292.71353Q538.5594 292.3854 537.90314 292.3854Q537.3719 292.3854 536.96564 292.66666Q536.575 292.9479 536.35626 293.40103L536.35626 297.91666L535.27814 297.91666L535.27814 288.91666L536.35626 288.91666L536.35626 292.33853ZM544.90314 298.04166Q543.60626 298.04166 542.79376 297.1979Q541.9969 296.33853 541.9969 294.91666L541.9969 294.72916Q541.9969 293.77603 542.35626 293.04166Q542.71564 292.29166 543.35626 291.8854Q544.0125 291.46353 544.7625 291.46353Q545.9969 291.46353 546.6844 292.27603Q547.3719 293.08853 547.3719 294.60416L547.3719 295.05728L543.075 295.05728Q543.10626 295.99478 543.6219 296.5729Q544.15314 297.15103 544.96564 297.15103Q545.52814 297.15103 545.91876 296.91666Q546.325 296.68228 546.6375 296.29166L547.29376 296.80728Q546.4969 298.04166 544.90314 298.04166ZM544.7625 292.35416Q544.10626 292.35416 543.65314 292.83853Q543.21564 293.30728 543.1219 294.16666L546.29376 294.16666L546.29376 294.08853Q546.2469 293.2604 545.84064 292.80728Q545.45 292.35416 544.7625 292.35416ZM551.34064 292.54166Q551.09064 292.5104 550.8094 292.5104Q549.73126 292.5104 549.35626 293.41666L549.35626 297.91666L548.27814 297.91666L548.27814 291.5729L549.325 291.5729L549.34064 292.30728Q549.8719 291.46353 550.85626 291.46353Q551.16876 291.46353 551.34064 291.54166L551.34064 292.54166ZM553.45 297.91666L552.3719 297.91666L552.3719 288.91666L553.45 288.91666L553.45 297.91666ZM559.1844 297.91666Q559.09064 297.72916 559.02814 297.24478Q558.27814 298.04166 557.23126 298.04166Q556.29376 298.04166 555.6844 297.5104Q555.09064 296.97916 555.09064 296.15103Q555.09064 295.16666 555.84064 294.61978Q556.59064 294.0729 557.96564 294.0729L559.0125 294.0729L559.0125 293.5729Q559.0125 293.0104 558.66876 292.68228Q558.34064 292.33853 557.66876 292.33853Q557.09064 292.33853 556.7 292.6354Q556.3094 292.91666 556.3094 293.33853L555.21564 293.33853Q555.21564 292.85416 555.54376 292.41666Q555.8875 291.97916 556.46564 291.72916Q557.04376 291.46353 557.73126 291.46353Q558.84064 291.46353 559.45 292.0104Q560.075 292.55728 560.10626 293.5104L560.10626 296.43228Q560.10626 297.30728 560.325 297.8229L560.325 297.91666L559.1844 297.91666ZM557.3875 297.08853Q557.90314 297.08853 558.35626 296.8229Q558.8094 296.55728 559.0125 296.1354L559.0125 294.83853L558.16876 294.83853Q556.16876 294.83853 556.16876 296.0104Q556.16876 296.5104 556.5125 296.80728Q556.85626 297.08853 557.3875 297.08853ZM563.29376 291.5729L563.325 292.36978Q564.0594 291.46353 565.23126 291.46353Q567.2469 291.46353 567.2625 293.72916L567.2625 297.91666L566.16876 297.91666L566.16876 293.71353Q566.16876 293.04166 565.85626 292.71353Q565.5594 292.3854 564.90314 292.3854Q564.3719 292.3854 563.96564 292.66666Q563.575 292.9479 563.35626 293.40103L563.35626 297.91666L562.27814 297.91666L562.27814 291.5729L563.29376 291.5729ZM569.0125 294.6979Q569.0125 293.22916 569.7 292.35416Q570.3875 291.46353 571.5125 291.46353Q572.6219 291.46353 573.27814 292.21353L573.27814 288.91666L574.35626 288.91666L574.35626 297.91666L573.35626 297.91666L573.3094 297.22916Q572.65314 298.04166 571.4969 298.04166Q570.40314 298.04166 569.7 297.1354Q569.0125 296.22916 569.0125 294.77603L569.0125 294.6979ZM570.09064 294.8229Q570.09064 295.90103 570.52814 296.5104Q570.98126 297.11978 571.7625 297.11978Q572.79376 297.11978 573.27814 296.18228L573.27814 293.27603Q572.79376 292.3854 571.77814 292.3854Q570.98126 292.3854 570.52814 292.99478Q570.09064 293.60416 570.09064 294.8229ZM579.96564 296.22916Q579.96564 295.79166 579.6219 295.55728Q579.29376 295.30728 578.46564 295.1354Q577.65314 294.96353 577.16876 294.71353Q576.6844 294.46353 576.45 294.1354Q576.23126 293.79166 576.23126 293.3229Q576.23126 292.54166 576.8875 292.0104Q577.54376 291.46353 578.575 291.46353Q579.65314 291.46353 580.3094 292.02603Q580.98126 292.5729 580.98126 293.43228L579.90314 293.43228Q579.90314 292.99478 579.5125 292.68228Q579.1375 292.35416 578.575 292.35416Q577.98126 292.35416 577.6375 292.61978Q577.3094 292.86978 577.3094 293.27603Q577.3094 293.66666 577.6219 293.86978Q577.9344 294.0729 578.7469 294.2604Q579.5594 294.43228 580.0594 294.68228Q580.5594 294.93228 580.79376 295.29166Q581.04376 295.65103 581.04376 296.15103Q581.04376 297.0104 580.35626 297.52603Q579.6844 298.04166 578.60626 298.04166Q577.84064 298.04166 577.2469 297.77603Q576.66876 297.49478 576.34064 297.0104Q576.0125 296.52603 576.0125 295.96353L577.09064 295.96353Q577.1219 296.5104 577.52814 296.83853Q577.9344 297.15103 578.60626 297.15103Q579.21564 297.15103 579.59064 296.90103Q579.96564 296.65103 579.96564 296.22916Z" fill-rule="nonzero"/><path fill="#9e9e9e" d="M559.71564 315.91666L558.6375 315.91666L558.6375 308.6979L556.45 309.49478L556.45 308.5104L559.5594 307.33853L559.71564 307.33853L559.71564 315.91666ZM563.29376 315.35416Q563.29376 315.0729 563.45 314.8854Q563.6219 314.6979 563.95 314.6979Q564.29376 314.6979 564.46564 314.8854Q564.6375 315.0729 564.6375 315.35416Q564.6375 315.61978 564.46564 315.80728Q564.29376 315.97916 563.95 315.97916Q563.6219 315.97916 563.45 315.80728Q563.29376 315.61978 563.29376 315.35416ZM571.5125 312.27603Q571.5125 314.18228 570.85626 315.11978Q570.21564 316.04166 568.825 316.04166Q567.46564 316.04166 566.8094 315.1354Q566.15314 314.22916 566.1219 312.41666L566.1219 310.97916Q566.1219 309.08853 566.7625 308.18228Q567.41876 307.2604 568.8094 307.2604Q570.1844 307.2604 570.84064 308.15103Q571.4969 309.02603 571.5125 310.86978L571.5125 312.27603ZM570.41876 310.79166Q570.41876 309.41666 570.02814 308.79166Q569.65314 308.15103 568.8094 308.15103Q567.98126 308.15103 567.59064 308.79166Q567.21564 309.41666 567.21564 310.71353L567.21564 312.4479Q567.21564 313.8229 567.60626 314.49478Q568.0125 315.15103 568.825 315.15103Q569.6219 315.15103 570.0125 314.52603Q570.40314 313.90103 570.41876 312.5729L570.41876 310.79166ZM573.0594 309.02603Q573.0594 308.2604 573.54376 307.7604Q574.04376 307.2604 574.8094 307.2604Q575.59064 307.2604 576.075 307.7604Q576.5594 308.2604 576.5594 309.05728L576.5594 309.47916Q576.5594 310.24478 576.0594 310.74478Q575.575 311.22916 574.825 311.22916Q574.0594 311.22916 573.5594 310.74478Q573.0594 310.24478 573.0594 309.43228L573.0594 309.02603ZM573.8719 309.47916Q573.8719 309.93228 574.1219 310.22916Q574.3875 310.52603 574.825 310.52603Q575.2469 310.52603 575.4969 310.24478Q575.7469 309.9479 575.7469 309.4479L575.7469 309.02603Q575.7469 308.5729 575.4969 308.27603Q575.2469 307.96353 574.8094 307.96353Q574.3719 307.96353 574.1219 308.27603Q573.8719 308.5729 573.8719 309.04166L573.8719 309.47916ZM577.21564 313.8229Q577.21564 313.05728 577.7 312.5729Q578.2 312.0729 578.96564 312.0729Q579.73126 312.0729 580.21564 312.5729Q580.71564 313.05728 580.71564 313.86978L580.71564 314.27603Q580.71564 315.04166 580.23126 315.54166Q579.7469 316.04166 578.98126 316.04166Q578.21564 316.04166 577.71564 315.55728Q577.21564 315.05728 577.21564 314.24478L577.21564 313.8229ZM578.02814 314.27603Q578.02814 314.74478 578.27814 315.04166Q578.54376 315.33853 578.98126 315.33853Q579.40314 315.33853 579.65314 315.05728Q579.90314 314.7604 579.90314 314.2604L579.90314 313.8229Q579.90314 313.35416 579.6375 313.0729Q579.3875 312.77603 578.96564 312.77603Q578.54376 312.77603 578.27814 313.0729Q578.02814 313.35416 578.02814 313.85416L578.02814 314.27603ZM575.075 315.27603L574.45 314.8854L578.6219 308.21353L579.23126 308.60416L575.075 315.27603Z" fill-rule="nonzero"/><path stroke="#757575" stroke-width="1.0" stroke-linecap="butt" d="M581.45 302.41666L454.76666 302.41666L433.59766 224.79703" fill-rule="nonzero"/><path fill="#9e9e9e" d="M435.59766 224.79703C435.59766 223.69244 434.7022 222.79703 433.59766 222.79703C432.49307 222.79703 431.59766 223.69244 431.59766 224.79703C431.59766 225.9016 432.49307 226.79703 433.59766 226.79703C434.7022 226.79703 435.59766 225.9016 435.59766 224.79703" fill-rule="nonzero"/><path fill="#000000" d="M546.9969 330.91666L545.8719 330.91666L541.575 324.33853L541.575 330.91666L540.4344 330.91666L540.4344 322.3854L541.575 322.3854L545.8719 328.99478L545.8719 322.3854L546.9969 322.3854L546.9969 330.91666ZM548.98126 327.68228Q548.98126 326.7604 549.34064 326.0104Q549.71564 325.2604 550.3719 324.86978Q551.02814 324.46353 551.85626 324.46353Q553.15314 324.46353 553.95 325.35416Q554.7625 326.24478 554.7625 327.74478L554.7625 327.8229Q554.7625 328.74478 554.40314 329.47916Q554.04376 330.21353 553.3875 330.6354Q552.73126 331.04166 551.8719 331.04166Q550.59064 331.04166 549.77814 330.15103Q548.98126 329.24478 548.98126 327.7604L548.98126 327.68228ZM550.075 327.8229Q550.075 328.86978 550.5594 329.5104Q551.0594 330.15103 551.8719 330.15103Q552.7 330.15103 553.1844 329.5104Q553.66876 328.85416 553.66876 327.68228Q553.66876 326.65103 553.16876 326.0104Q552.6844 325.35416 551.85626 325.35416Q551.0594 325.35416 550.5594 325.99478Q550.075 326.61978 550.075 327.8229ZM559.34064 325.54166Q559.09064 325.5104 558.8094 325.5104Q557.73126 325.5104 557.35626 326.41666L557.35626 330.91666L556.27814 330.91666L556.27814 324.5729L557.325 324.5729L557.34064 325.30728Q557.8719 324.46353 558.85626 324.46353Q559.16876 324.46353 559.34064 324.54166L559.34064 325.54166ZM565.8875 329.41666L567.10626 324.5729L568.1844 324.5729L566.34064 330.91666L565.46564 330.91666L563.91876 326.10416L562.41876 330.91666L561.54376 330.91666L559.7 324.5729L560.77814 324.5729L562.02814 329.3229L563.5125 324.5729L564.3719 324.5729L565.8875 329.41666ZM573.1844 330.91666Q573.09064 330.72916 573.02814 330.24478Q572.27814 331.04166 571.23126 331.04166Q570.29376 331.04166 569.6844 330.5104Q569.09064 329.97916 569.09064 329.15103Q569.09064 328.16666 569.84064 327.61978Q570.59064 327.0729 571.96564 327.0729L573.0125 327.0729L573.0125 326.5729Q573.0125 326.0104 572.66876 325.68228Q572.34064 325.33853 571.66876 325.33853Q571.09064 325.33853 570.7 325.6354Q570.3094 325.91666 570.3094 326.33853L569.21564 326.33853Q569.21564 325.85416 569.54376 325.41666Q569.8875 324.97916 570.46564 324.72916Q571.04376 324.46353 571.73126 324.46353Q572.84064 324.46353 573.45 325.0104Q574.075 325.55728 574.10626 326.5104L574.10626 329.43228Q574.10626 330.30728 574.325 330.8229L574.325 330.91666L573.1844 330.91666ZM571.3875 330.08853Q571.90314 330.08853 572.35626 329.8229Q572.8094 329.55728 573.0125 329.1354L573.0125 327.83853L572.16876 327.83853Q570.16876 327.83853 570.16876 329.0104Q570.16876 329.5104 570.5125 329.80728Q570.85626 330.08853 571.3875 330.08853ZM578.34064 329.3229L579.825 324.5729L580.98126 324.5729L578.4344 331.90103Q577.84064 333.47916 576.5594 333.47916L576.34064 333.46353L575.95 333.3854L575.95 332.5104L576.23126 332.52603Q576.79376 332.52603 577.09064 332.30728Q577.40314 332.08853 577.60626 331.49478L577.84064 330.83853L575.575 324.5729L576.7625 324.5729L578.34064 329.3229Z" fill-rule="nonzero"/><path fill="#9e9e9e" d="M559.71564 348.91666L558.6375 348.91666L558.6375 341.6979L556.45 342.49478L556.45 341.5104L559.5594 340.33853L559.71564 340.33853L559.71564 348.91666ZM563.29376 348.35416Q563.29376 348.0729 563.45 347.8854Q563.6219 347.6979 563.95 347.6979Q564.29376 347.6979 564.46564 347.8854Q564.6375 348.0729 564.6375 348.35416Q564.6375 348.61978 564.46564 348.80728Q564.29376 348.97916 563.95 348.97916Q563.6219 348.97916 563.45 348.80728Q563.29376 348.61978 563.29376 348.35416ZM571.5125 345.27603Q571.5125 347.18228 570.85626 348.11978Q570.21564 349.04166 568.825 349.04166Q567.46564 349.04166 566.8094 348.1354Q566.15314 347.22916 566.1219 345.41666L566.1219 343.97916Q566.1219 342.08853 566.7625 341.18228Q567.41876 340.2604 568.8094 340.2604Q570.1844 340.2604 570.84064 341.15103Q571.4969 342.02603 571.5125 343.86978L571.5125 345.27603ZM570.41876 343.79166Q570.41876 342.41666 570.02814 341.79166Q569.65314 341.15103 568.8094 341.15103Q567.98126 341.15103 567.59064 341.79166Q567.21564 342.41666 567.21564 343.71353L567.21564 345.4479Q567.21564 346.8229 567.60626 347.49478Q568.0125 348.15103 568.825 348.15103Q569.6219 348.15103 570.0125 347.52603Q570.40314 346.90103 570.41876 345.5729L570.41876 343.79166ZM573.0594 342.02603Q573.0594 341.2604 573.54376 340.7604Q574.04376 340.2604 574.8094 340.2604Q575.59064 340.2604 576.075 340.7604Q576.5594 341.2604 576.5594 342.05728L576.5594 342.47916Q576.5594 343.24478 576.0594 343.74478Q575.575 344.22916 574.825 344.22916Q574.0594 344.22916 573.5594 343.74478Q573.0594 343.24478 573.0594 342.43228L573.0594 342.02603ZM573.8719 342.47916Q573.8719 342.93228 574.1219 343.22916Q574.3875 343.52603 574.825 343.52603Q575.2469 343.52603 575.4969 343.24478Q575.7469 342.9479 575.7469 342.4479L575.7469 342.02603Q575.7469 341.5729 575.4969 341.27603Q575.2469 340.96353 574.8094 340.96353Q574.3719 340.96353 574.1219 341.27603Q573.8719 341.5729 573.8719 342.04166L573.8719 342.47916ZM577.21564 346.8229Q577.21564 346.05728 577.7 345.5729Q578.2 345.0729 578.96564 345.0729Q579.73126 345.0729 580.21564 345.5729Q580.71564 346.05728 580.71564 346.86978L580.71564 347.27603Q580.71564 348.04166 580.23126 348.54166Q579.7469 349.04166 578.98126 349.04166Q578.21564 349.04166 577.71564 348.55728Q577.21564 348.05728 577.21564 347.24478L577.21564 346.8229ZM578.02814 347.27603Q578.02814 347.74478 578.27814 348.04166Q578.54376 348.33853 578.98126 348.33853Q579.40314 348.33853 579.65314 348.05728Q579.90314 347.7604 579.90314 347.2604L579.90314 346.8229Q579.90314 346.35416 579.6375 346.0729Q579.3875 345.77603 578.96564 345.77603Q578.54376 345.77603 578.27814 346.0729Q578.02814 346.35416 578.02814 346.85416L578.02814 347.27603ZM575.075 348.27603L574.45 347.8854L578.6219 341.21353L579.23126 341.60416L575.075 348.27603Z" fill-rule="nonzero"/><path stroke="#757575" stroke-width="1.0" stroke-linecap="butt" d="M581.45 335.41666L454.76666 335.41666L430.57034 230.38464" fill-rule="nonzero"/><path fill="#9e9e9e" d="M432.57034 230.38464C432.57034 229.28008 431.67493 228.38464 430.57034 228.38464C429.4658 228.38464 428.57034 229.28008 428.57034 230.38464C428.57034 231.48921 429.4658 232.38464 430.57034 232.38464C431.67493 232.38464 432.57034 231.48921 432.57034 230.38464" fill-rule="nonzero"/><path fill="#000000" d="M32.03958 35.707306Q31.305208 36.738556 30.008333 37.25418Q28.727083 37.769806 27.008333 37.769806Q25.258333 37.769806 23.914583 36.957306Q22.570833 36.12918 21.836458 34.62918Q21.102083 33.12918 21.070833 31.144806L21.070833 29.894806Q21.070833 26.69168 22.570833 24.926056Q24.070833 23.144806 26.789583 23.144806Q29.008333 23.144806 30.367708 24.28543Q31.727083 25.426056 32.03958 27.519806L30.164583 27.519806Q29.633333 24.69168 26.805208 24.69168Q24.914583 24.69168 23.945833 26.019806Q22.977083 27.34793 22.961458 29.84793L22.961458 31.019806Q22.961458 33.41043 24.055208 34.81668Q25.148958 36.22293 27.008333 36.22293Q28.070833 36.22293 28.852083 35.988556Q29.648958 35.75418 30.164583 35.207306L30.164583 32.00418L26.883333 32.00418L26.883333 30.488556L32.03958 30.488556L32.03958 35.707306ZM37.211456 37.56668L35.41458 37.56668L35.41458 22.56668L37.211456 22.56668L37.211456 37.56668ZM39.773956 32.19168Q39.773956 30.62918 40.38333 29.394806Q40.992706 28.144806 42.07083 27.47293Q43.16458 26.801056 44.57083 26.801056Q46.72708 26.801056 48.055206 28.301056Q49.398956 29.78543 49.398956 32.269806L49.398956 32.394806Q49.398956 33.94168 48.805206 35.176056Q48.211456 36.394806 47.10208 37.082306Q46.00833 37.769806 44.586456 37.769806Q42.44583 37.769806 41.10208 36.269806Q39.773956 34.769806 39.773956 32.31668L39.773956 32.19168ZM41.586456 32.394806Q41.586456 34.16043 42.398956 35.22293Q43.22708 36.28543 44.586456 36.28543Q45.961456 36.28543 46.773956 35.207306Q47.586456 34.12918 47.586456 32.19168Q47.586456 30.44168 46.75833 29.363556Q45.930206 28.28543 44.57083 28.28543Q43.22708 28.28543 42.398956 29.34793Q41.586456 30.41043 41.586456 32.394806ZM60.19583 32.394806Q60.19583 34.81668 59.086456 36.301056Q57.97708 37.769806 56.10208 37.769806Q54.086456 37.769806 52.992706 36.34793L52.91458 37.56668L51.25833 37.56668L51.25833 22.56668L53.055206 22.56668L53.055206 28.16043Q54.148956 26.801056 56.07083 26.801056Q57.992706 26.801056 59.086456 28.25418Q60.19583 29.707306 60.19583 32.238556L60.19583 32.394806ZM58.38333 32.19168Q58.38333 30.34793 57.66458 29.34793Q56.961456 28.332306 55.63333 28.332306Q53.836456 28.332306 53.055206 30.00418L53.055206 34.56668Q53.88333 36.22293 55.648956 36.22293Q56.94583 36.22293 57.66458 35.22293Q58.38333 34.22293 58.38333 32.19168ZM68.77396 37.56668Q68.61771 37.25418 68.52396 36.457306Q67.25833 37.769806 65.50833 37.769806Q63.94583 37.769806 62.94583 36.87918Q61.94583 35.988556 61.94583 34.62918Q61.94583 32.988556 63.19583 32.082306Q64.46146 31.16043 66.72708 31.16043L68.49271 31.16043L68.49271 30.332306Q68.49271 29.37918 67.91458 28.81668Q67.35208 28.25418 66.25833 28.25418Q65.28958 28.25418 64.63333 28.75418Q63.97708 29.238556 63.97708 29.926056L62.16458 29.926056Q62.16458 29.144806 62.72708 28.41043Q63.28958 27.66043 64.24271 27.238556Q65.21146 26.801056 66.36771 26.801056Q68.19583 26.801056 69.22708 27.72293Q70.25833 28.62918 70.30521 30.238556L70.30521 35.09793Q70.30521 36.551056 70.66458 37.41043L70.66458 37.56668L68.77396 37.56668ZM65.77396 36.19168Q66.63333 36.19168 67.38333 35.75418Q68.14896 35.31668 68.49271 34.613556L68.49271 32.44168L67.07083 32.44168Q63.75833 32.44168 63.75833 34.37918Q63.75833 35.238556 64.32083 35.72293Q64.88333 36.19168 65.77396 36.19168ZM75.21146 37.56668L73.41458 37.56668L73.41458 22.56668L75.21146 22.56668L75.21146 37.56668ZM94.46146 37.56668L92.57083 37.56668L85.41458 26.613556L85.41458 37.56668L83.53958 37.56668L83.53958 23.34793L85.41458 23.34793L92.60208 34.34793L92.60208 23.34793L94.46146 23.34793L94.46146 37.56668ZM96.77396 32.19168Q96.77396 30.62918 97.38333 29.394806Q97.99271 28.144806 99.07083 27.47293Q100.16458 26.801056 101.57083 26.801056Q103.72708 26.801056 105.05521 28.301056Q106.39896 29.78543 106.39896 32.269806L106.39896 32.394806Q106.39896 33.94168 105.80521 35.176056Q105.21146 36.394806 104.10208 37.082306Q103.00833 37.769806 101.58646 37.769806Q99.44583 37.769806 98.10208 36.269806Q96.77396 34.769806 96.77396 32.31668L96.77396 32.19168ZM98.58646 32.394806Q98.58646 34.16043 99.39896 35.22293Q100.22708 36.28543 101.58646 36.28543Q102.96146 36.28543 103.77396 35.207306Q104.58646 34.12918 104.58646 32.19168Q104.58646 30.44168 103.75833 29.363556Q102.93021 28.28543 101.57083 28.28543Q100.22708 28.28543 99.39896 29.34793Q98.58646 30.41043 98.58646 32.394806ZM113.35208 28.613556Q112.94583 28.551056 112.47708 28.551056Q110.69583 28.551056 110.05521 30.06668L110.05521 37.56668L108.25833 37.56668L108.25833 27.00418L110.00833 27.00418L110.03958 28.22293Q110.93021 26.801056 112.55521 26.801056Q113.08646 26.801056 113.35208 26.94168L113.35208 28.613556ZM117.69583 24.44168L117.69583 27.00418L119.68021 27.00418L119.68021 28.394806L117.69583 28.394806L117.69583 34.94168Q117.69583 35.582306 117.96146 35.91043Q118.22708 36.22293 118.86771 36.22293Q119.18021 36.22293 119.72708 36.09793L119.72708 37.56668Q119.00833 37.769806 118.33646 37.769806Q117.13333 37.769806 116.50833 37.03543Q115.89896 36.301056 115.89896 34.94168L115.89896 28.394806L113.97708 28.394806L113.97708 27.00418L115.89896 27.00418L115.89896 24.44168L117.69583 24.44168ZM124.05521 28.28543Q125.25833 26.801056 127.18021 26.801056Q130.53958 26.801056 130.5552 30.582306L130.5552 37.56668L128.75833 37.56668L128.75833 30.56668Q128.7427 29.426056 128.22708 28.87918Q127.72708 28.332306 126.63333 28.332306Q125.75833 28.332306 125.08646 28.801056Q124.43021 29.269806 124.05521 30.03543L124.05521 37.56668L122.25833 37.56668L122.25833 22.56668L124.05521 22.56668L124.05521 28.28543ZM148.9927 33.051056Q148.72708 35.31668 147.32083 36.551056Q145.9302 37.769806 143.60208 37.769806Q141.08646 37.769806 139.5552 35.957306Q138.03958 34.144806 138.03958 31.113556L138.03958 29.75418Q138.03958 27.769806 138.7427 26.269806Q139.46146 24.769806 140.75833 23.957306Q142.0552 23.144806 143.77396 23.144806Q146.03958 23.144806 147.39896 24.41043Q148.77396 25.676056 148.9927 27.91043L147.10208 27.91043Q146.8677 26.22293 146.03958 25.457306Q145.22708 24.69168 143.77396 24.69168Q141.97708 24.69168 140.94583 26.019806Q139.9302 27.34793 139.9302 29.801056L139.9302 31.176056Q139.9302 33.488556 140.89896 34.863556Q141.8677 36.22293 143.60208 36.22293Q145.16458 36.22293 145.9927 35.519806Q146.83646 34.81668 147.10208 33.051056L148.9927 33.051056ZM150.77396 32.19168Q150.77396 30.62918 151.38333 29.394806Q151.9927 28.144806 153.07083 27.47293Q154.16458 26.801056 155.57083 26.801056Q157.72708 26.801056 159.0552 28.301056Q160.39896 29.78543 160.39896 32.269806L160.39896 32.394806Q160.39896 33.94168 159.8052 35.176056Q159.21146 36.394806 158.10208 37.082306Q157.00833 37.769806 155.58646 37.769806Q153.44583 37.769806 152.10208 36.269806Q150.77396 34.769806 150.77396 32.31668L150.77396 32.19168ZM152.58646 32.394806Q152.58646 34.16043 153.39896 35.22293Q154.22708 36.28543 155.58646 36.28543Q156.96146 36.28543 157.77396 35.207306Q158.58646 34.12918 158.58646 32.19168Q158.58646 30.44168 157.75833 29.363556Q156.9302 28.28543 155.57083 28.28543Q154.22708 28.28543 153.39896 29.34793Q152.58646 30.41043 152.58646 32.394806ZM168.77396 36.519806Q167.72708 37.769806 165.6802 37.769806Q163.9927 37.769806 163.10208 36.78543Q162.22708 35.801056 162.21146 33.87918L162.21146 27.00418L164.02396 27.00418L164.02396 33.832306Q164.02396 36.22293 165.97708 36.22293Q168.03958 36.22293 168.72708 34.69168L168.72708 27.00418L170.53958 27.00418L170.53958 37.56668L168.82083 37.56668L168.77396 36.519806ZM174.96146 27.00418L175.02396 28.332306Q176.22708 26.801056 178.1802 26.801056Q181.53958 26.801056 181.5552 30.582306L181.5552 37.56668L179.75833 37.56668L179.75833 30.56668Q179.7427 29.426056 179.22708 28.87918Q178.72708 28.332306 177.63333 28.332306Q176.75833 28.332306 176.08646 28.801056Q175.4302 29.269806 175.0552 30.03543L175.0552 37.56668L173.25833 37.56668L173.25833 27.00418L174.96146 27.00418ZM186.69583 24.44168L186.69583 27.00418L188.6802 27.00418L188.6802 28.394806L186.69583 28.394806L186.69583 34.94168Q186.69583 35.582306 186.96146 35.91043Q187.22708 36.22293 187.8677 36.22293Q188.1802 36.22293 188.72708 36.09793L188.72708 37.56668Q188.00833 37.769806 187.33646 37.769806Q186.13333 37.769806 185.50833 37.03543Q184.89896 36.301056 184.89896 34.94168L184.89896 28.394806L182.97708 28.394806L182.97708 27.00418L184.89896 27.00418L184.89896 24.44168L186.69583 24.44168ZM196.35208 28.613556Q195.94583 28.551056 195.47708 28.551056Q193.69583 28.551056 193.0552 30.06668L193.0552 37.56668L191.25833 37.56668L191.25833 27.00418L193.00833 27.00418L193.03958 28.22293Q193.9302 26.801056 195.5552 26.801056Q196.08646 26.801056 196.35208 26.94168L196.35208 28.613556ZM200.21146 37.56668L198.41458 37.56668L198.41458 27.00418L200.21146 27.00418L200.21146 37.56668ZM198.25833 24.19168Q198.25833 23.75418 198.52396 23.457306Q198.8052 23.144806 199.32083 23.144806Q199.85208 23.144806 200.1177 23.457306Q200.39896 23.75418 200.39896 24.19168Q200.39896 24.62918 200.1177 24.926056Q199.85208 25.22293 199.32083 25.22293Q198.8052 25.22293 198.52396 24.926056Q198.25833 24.62918 198.25833 24.19168ZM207.63333 37.769806Q205.4927 37.769806 204.13333 36.363556Q202.78958 34.94168 202.78958 32.582306L202.78958 32.238556Q202.78958 30.676056 203.38333 29.44168Q203.9927 28.207306 205.07083 27.50418Q206.14896 26.801056 207.41458 26.801056Q209.47708 26.801056 210.6177 28.16043Q211.75833 29.519806 211.75833 32.051056L211.75833 32.801056L204.60208 32.801056Q204.63333 34.363556 205.50833 35.332306Q206.38333 36.28543 207.72708 36.28543Q208.69583 36.28543 209.35208 35.894806Q210.02396 35.50418 210.52396 34.863556L211.6177 35.72293Q210.28958 37.769806 207.63333 37.769806ZM207.41458 28.28543Q206.32083 28.28543 205.57083 29.082306Q204.83646 29.87918 204.66458 31.31668L209.94583 31.31668L209.94583 31.176056Q209.8677 29.801056 209.19583 29.051056Q208.53958 28.28543 207.41458 28.28543ZM220.39896 34.769806Q220.39896 34.03543 219.85208 33.62918Q219.3052 33.22293 217.9302 32.926056Q216.5552 32.62918 215.7427 32.22293Q214.94583 31.81668 214.5552 31.25418Q214.1802 30.676056 214.1802 29.894806Q214.1802 28.59793 215.27396 27.707306Q216.3677 26.801056 218.08646 26.801056Q219.88333 26.801056 220.9927 27.738556Q222.1177 28.66043 222.1177 30.09793L220.28958 30.09793Q220.28958 29.363556 219.66458 28.832306Q219.03958 28.28543 218.08646 28.28543Q217.08646 28.28543 216.52396 28.72293Q215.97708 29.144806 215.97708 29.84793Q215.97708 30.488556 216.4927 30.832306Q217.00833 31.16043 218.3677 31.47293Q219.72708 31.769806 220.5552 32.19168Q221.39896 32.59793 221.8052 33.19168Q222.21146 33.78543 222.21146 34.62918Q222.21146 36.051056 221.07083 36.91043Q219.94583 37.769806 218.13333 37.769806Q216.8677 37.769806 215.88333 37.31668Q214.91458 36.863556 214.35208 36.06668Q213.8052 35.25418 213.8052 34.31668L215.6177 34.31668Q215.66458 35.22293 216.33646 35.75418Q217.02396 36.28543 218.13333 36.28543Q219.16458 36.28543 219.77396 35.87918Q220.39896 35.457306 220.39896 34.769806Z" fill-rule="nonzero"/></svg>