<svg version="1.1" viewBox="0.0 0.0 600.0 371.0" fill="none" stroke="none" stroke-linecap="square" stroke-miterlimit="10" width="600" height="371" xmlns:xlink="http://www.w3.org/1999/xlink" xmlns="http://www.w3.org/2000/svg"><path fill="#ffffff" d="M0 0L600.0 0L600.0 371.0L0 371.0L0 0Z" fill-rule="nonzero"/><path stroke="#333333" stroke-width="1.0" stroke-linecap="butt" d="M94.5 54.5L94.5 331.5" fill-rule="nonzero"/><path stroke="#000000" stroke-width="1.0" stroke-linecap="butt" d="M158.5 54.5L158.5 331.5" fill-rule="nonzero"/><path stroke="#000000" stroke-width="1.0" stroke-linecap="butt" d="M221.5 54.5L221.5 331.5" fill-rule="nonzero"/><path stroke="#000000" stroke-width="1.0" stroke-linecap="butt" d="M285.5 54.5L285.5 331.5" fill-rule="nonzero"/><path stroke="#000000" stroke-width="1.0" stroke-linecap="butt" d="M349.5 54.5L349.5 331.5" fill-rule="nonzero"/><path stroke="#000000" stroke-width="1.0" stroke-linecap="butt" d="M412.5 54.5L412.5 331.5" fill-rule="nonzero"/><clipPath id="id_0"><path d="M94.55 54.916668L412.84668 54.916668L412.84668 331.45L94.55 331.45L94.55 54.916668Z" clip-rule="nonzero"/></clipPath><path stroke="#000000" stroke-width="0.0" stroke-linecap="butt" stroke-opacity="0.0" clip-path="url(#id_0)" d="M95.0 111.0L95.0 97.0L271.0 97.0C272.10458 97.0 273.0 97.89543 273.0 99.0L273.0 109.0C273.0 110.10457 272.10458 111.0 271.0 111.0Z" fill-rule="nonzero"/><path fill="#c9daf8" clip-path="url(#id_0)" d="M95.0 111.0L95.0 97.0L271.0 97.0C272.10458 97.0 273.0 97.89543 273.0 99.0L273.0 109.0C273.0 110.10457 272.10458 111.0 271.0 111.0Z" fill-rule="nonzero"/><path stroke="#000000" stroke-width="0.0" stroke-linecap="butt" stroke-opacity="0.0" clip-path="url(#id_0)" d="M95.0 229.0L95.0 215.0L334.0 215.0C335.10458 215.0 336.0 215.89543 336.0 217.0L336.0 227.0C336.0 228.10457 335.10458 229.0 334.0 229.0Z" fill-rule="nonzero"/><path fill="#c9daf8" clip-path="url(#id_0)" d="M95.0 229.0L95.0 215.0L334.0 215.0C335.10458 215.0 336.0 215.89543 336.0 217.0L336.0 227.0C336.0 228.10457 335.10458 229.0 334.0 229.0Z" fill-rule="nonzero"/><path stroke="#000000" stroke-width="0.0" stroke-linecap="butt" stroke-opacity="0.0" clip-path="url(#id_0)" d="M95.0 126.0L95.0 112.0L194.0 112.0C195.10457 112.0 196.0 112.89543 196.0 114.0L196.0 124.0C196.0 125.10457 195.10457 126.0 194.0 126.0Z" fill-rule="nonzero"/><path fill="#ea9999" clip-path="url(#id_0)" d="M95.0 126.0L95.0 112.0L194.0 112.0C195.10457 112.0 196.0 112.89543 196.0 114.0L196.0 124.0C196.0 125.10457 195.10457 126.0 194.0 126.0Z" fill-rule="nonzero"/><path stroke="#000000" stroke-width="0.0" stroke-linecap="butt" stroke-opacity="0.0" clip-path="url(#id_0)" d="M95.0 244.0L95.0 230.0L347.0 230.0C348.10458 230.0 349.0 230.89543 349.0 232.0L349.0 242.0C349.0 243.10457 348.10458 244.0 347.0 244.0Z" fill-rule="nonzero"/><path fill="#ea9999" clip-path="url(#id_0)" d="M95.0 244.0L95.0 230.0L347.0 230.0C348.10458 230.0 349.0 230.89543 349.0 232.0L349.0 242.0C349.0 243.10457 348.10458 244.0 347.0 244.0Z" fill-rule="nonzero"/><path stroke="#000000" stroke-width="0.0" stroke-linecap="butt" stroke-opacity="0.0" clip-path="url(#id_0)" d="M95.0 141.0L95.0 127.0L118.0 127.0C119.10457 127.0 120.0 127.89543 120.0 129.0L120.0 139.0C120.0 140.10457 119.10457 141.0 118.0 141.0Z" fill-rule="nonzero"/><path fill="#ffe599" clip-path="url(#id_0)" d="M95.0 141.0L95.0 127.0L118.0 127.0C119.10457 127.0 120.0 127.89543 120.0 129.0L120.0 139.0C120.0 140.10457 119.10457 141.0 118.0 141.0Z" fill-rule="nonzero"/><path stroke="#000000" stroke-width="0.0" stroke-linecap="butt" stroke-opacity="0.0" clip-path="url(#id_0)" d="M95.0 259.0L95.0 245.0L118.0 245.0C119.10457 245.0 120.0 245.89543 120.0 247.0L120.0 257.0C120.0 258.10458 119.10457 259.0 118.0 259.0Z" fill-rule="nonzero"/><path fill="#ffe599" clip-path="url(#id_0)" d="M95.0 259.0L95.0 245.0L118.0 245.0C119.10457 245.0 120.0 245.89543 120.0 247.0L120.0 257.0C120.0 258.10458 119.10457 259.0 118.0 259.0Z" fill-rule="nonzero"/><path stroke="#000000" stroke-width="0.0" stroke-linecap="butt" stroke-opacity="0.0" clip-path="url(#id_0)" d="M95.0 156.0L95.0 142.0L245.0 142.0C246.10457 142.0 247.0 142.89543 247.0 144.0L247.0 154.0C247.0 155.10457 246.10457 156.0 245.0 156.0Z" fill-rule="nonzero"/><path fill="#b6d7a8" clip-path="url(#id_0)" d="M95.0 156.0L95.0 142.0L245.0 142.0C246.10457 142.0 247.0 142.89543 247.0 144.0L247.0 154.0C247.0 155.10457 246.10457 156.0 245.0 156.0Z" fill-rule="nonzero"/><path stroke="#000000" stroke-width="0.0" stroke-linecap="butt" stroke-opacity="0.0" clip-path="url(#id_0)" d="M95.0 274.0L95.0 260.0L360.0 260.0C361.10458 260.0 362.0 260.89542 362.0 262.0L362.0 272.0C362.0 273.10458 361.10458 274.0 360.0 274.0Z" fill-rule="nonzero"/><path fill="#b6d7a8" clip-path="url(#id_0)" d="M95.0 274.0L95.0 260.0L360.0 260.0C361.10458 260.0 362.0 260.89542 362.0 262.0L362.0 272.0C362.0 273.10458 361.10458 274.0 360.0 274.0Z" fill-rule="nonzero"/><path stroke="#000000" stroke-width="0.0" stroke-linecap="butt" stroke-opacity="0.0" clip-path="url(#id_0)" d="M95.0 171.0L95.0 157.0L105.0 157.0C106.10457 157.0 107.0 157.89543 107.0 159.0L107.0 169.0C107.0 170.10457 106.10457 171.0 105.0 171.0Z" fill-rule="nonzero"/><path fill="#d5a6bd" clip-path="url(#id_0)" d="M95.0 171.0L95.0 157.0L105.0 157.0C106.10457 157.0 107.0 157.89543 107.0 159.0L107.0 169.0C107.0 170.10457 106.10457 171.0 105.0 171.0Z" fill-rule="nonzero"/><path stroke="#000000" stroke-width="0.0" stroke-linecap="butt" stroke-opacity="0.0" clip-path="url(#id_0)" d="M95.0 289.0L95.0 275.0L131.0 275.0C132.10457 275.0 133.0 275.89542 133.0 277.0L133.0 287.0C133.0 288.10458 132.10457 289.0 131.0 289.0Z" fill-rule="nonzero"/><path fill="#d5a6bd" clip-path="url(#id_0)" d="M95.0 289.0L95.0 275.0L131.0 275.0C132.10457 275.0 133.0 275.89542 133.0 277.0L133.0 287.0C133.0 288.10458 132.10457 289.0 131.0 289.0Z" fill-rule="nonzero"/><path fill="#000000" d="M26.846874 137.72145Q26.409374 138.34645 25.628124 138.65895Q24.846874 138.97145 23.815624 138.97145Q22.784374 138.97145 21.971874 138.48708Q21.159374 137.98708 20.721874 137.08083Q20.284374 136.17458 20.26875 134.98708L20.26875 134.2527Q20.26875 132.3152 21.159374 131.2527Q22.065624 130.1902 23.690624 130.1902Q25.034374 130.1902 25.846874 130.8777Q26.659374 131.5652 26.846874 132.8152L25.721874 132.8152Q25.39375 131.1277 23.70625 131.1277Q22.565624 131.1277 21.9875 131.92458Q21.409374 132.70583 21.39375 134.22145L21.39375 134.90895Q21.39375 136.34645 22.05 137.20583Q22.70625 138.04958 23.83125 138.04958Q24.45625 138.04958 24.925 137.90895Q25.409374 137.76833 25.721874 137.42458L25.721874 135.51833L23.753124 135.51833L23.753124 134.59645L26.846874 134.59645L26.846874 137.72145ZM29.55 138.84645L28.471874 138.84645L28.471874 129.84645L29.55 129.84645L29.55 138.84645ZM31.08125 135.61208Q31.08125 134.6902 31.440624 133.9402Q31.815624 133.1902 32.471874 132.79958Q33.128124 132.39333 33.95625 132.39333Q35.253124 132.39333 36.05 133.28395Q36.8625 134.17458 36.8625 135.67458L36.8625 135.7527Q36.8625 136.67458 36.503124 137.40895Q36.14375 138.14333 35.4875 138.5652Q34.83125 138.97145 33.971874 138.97145Q32.690624 138.97145 31.878124 138.08083Q31.08125 137.17458 31.08125 135.6902L31.08125 135.61208ZM32.175 135.7527Q32.175 136.79958 32.659374 137.4402Q33.159374 138.08083 33.971874 138.08083Q34.8 138.08083 35.284374 137.4402Q35.76875 136.78395 35.76875 135.61208Q35.76875 134.58083 35.26875 133.9402Q34.784374 133.28395 33.95625 133.28395Q33.159374 133.28395 32.659374 133.92458Q32.175 134.54958 32.175 135.7527ZM43.7375 135.7527Q43.7375 137.20583 43.065624 138.09645Q42.409374 138.97145 41.284374 138.97145Q40.08125 138.97145 39.425 138.11208L39.3625 138.84645L38.378124 138.84645L38.378124 129.84645L39.45625 129.84645L39.45625 133.20583Q40.1125 132.39333 41.26875 132.39333Q42.425 132.39333 43.08125 133.26833Q43.7375 134.1277 43.7375 135.65895L43.7375 135.7527ZM42.659374 135.6277Q42.659374 134.51833 42.221874 133.92458Q41.8 133.3152 41.003124 133.3152Q39.925 133.3152 39.45625 134.29958L39.45625 137.04958Q39.95625 138.04958 41.003124 138.04958Q41.784374 138.04958 42.221874 137.4402Q42.659374 136.83083 42.659374 135.6277ZM49.284374 138.84645Q49.190624 138.65895 49.128124 138.17458Q48.378124 138.97145 47.33125 138.97145Q46.39375 138.97145 45.784374 138.4402Q45.190624 137.90895 45.190624 137.08083Q45.190624 136.09645 45.940624 135.54958Q46.690624 135.0027 48.065624 135.0027L49.1125 135.0027L49.1125 134.5027Q49.1125 133.9402 48.76875 133.61208Q48.440624 133.26833 47.76875 133.26833Q47.190624 133.26833 46.8 133.5652Q46.409374 133.84645 46.409374 134.26833L45.315624 134.26833Q45.315624 133.78395 45.64375 133.34645Q45.9875 132.90895 46.565624 132.65895Q47.14375 132.39333 47.83125 132.39333Q48.940624 132.39333 49.55 132.9402Q50.175 133.48708 50.20625 134.4402L50.20625 137.36208Q50.20625 138.23708 50.425 138.7527L50.425 138.84645L49.284374 138.84645ZM47.4875 138.01833Q48.003124 138.01833 48.45625 137.7527Q48.909374 137.48708 49.1125 137.0652L49.1125 135.76833L48.26875 135.76833Q46.26875 135.76833 46.26875 136.9402Q46.26875 137.4402 46.6125 137.73708Q46.95625 138.01833 47.4875 138.01833ZM53.55 138.84645L52.471874 138.84645L52.471874 129.84645L53.55 129.84645L53.55 138.84645ZM65.09688 138.84645L63.971874 138.84645L59.675 132.26833L59.675 138.84645L58.534374 138.84645L58.534374 130.3152L59.675 130.3152L63.971874 136.92458L63.971874 130.3152L65.09688 130.3152L65.09688 138.84645ZM67.08125 135.61208Q67.08125 134.6902 67.44063 133.9402Q67.81563 133.1902 68.47188 132.79958Q69.12813 132.39333 69.95625 132.39333Q71.25313 132.39333 72.05 133.28395Q72.8625 134.17458 72.8625 135.67458L72.8625 135.7527Q72.8625 136.67458 72.50313 137.40895Q72.14375 138.14333 71.4875 138.5652Q70.83125 138.97145 69.97188 138.97145Q68.69063 138.97145 67.87813 138.08083Q67.08125 137.17458 67.08125 135.6902L67.08125 135.61208ZM68.175 135.7527Q68.175 136.79958 68.65938 137.4402Q69.15938 138.08083 69.97188 138.08083Q70.8 138.08083 71.28438 137.4402Q71.76875 136.78395 71.76875 135.61208Q71.76875 134.58083 71.26875 133.9402Q70.78438 133.28395 69.95625 133.28395Q69.15938 133.28395 68.65938 133.92458Q68.175 134.54958 68.175 135.7527ZM77.44063 133.47145Q77.19063 133.4402 76.90938 133.4402Q75.83125 133.4402 75.45625 134.34645L75.45625 138.84645L74.37813 138.84645L74.37813 132.5027L75.425 132.5027L75.44063 133.23708Q75.97188 132.39333 76.95625 132.39333Q77.26875 132.39333 77.44063 132.47145L77.44063 133.47145ZM79.84688 130.97145L79.84688 132.5027L81.01875 132.5027L81.01875 133.34645L79.84688 133.34645L79.84688 137.26833Q79.84688 137.65895 80.00313 137.84645Q80.15938 138.03395 80.53438 138.03395Q80.72188 138.03395 81.05 137.97145L81.05 138.84645Q80.62813 138.97145 80.22188 138.97145Q79.50313 138.97145 79.12813 138.53395Q78.75313 138.08083 78.75313 137.26833L78.75313 133.34645L77.59688 133.34645L77.59688 132.5027L78.75313 132.5027L78.75313 130.97145L79.84688 130.97145ZM83.45625 133.26833Q84.175 132.39333 85.33125 132.39333Q87.34688 132.39333 87.3625 134.65895L87.3625 138.84645L86.26875 138.84645L86.26875 134.64333Q86.26875 133.97145 85.95625 133.64333Q85.65938 133.3152 85.00313 133.3152Q84.47188 133.3152 84.06563 133.59645Q83.675 133.8777 83.45625 134.33083L83.45625 138.84645L82.37813 138.84645L82.37813 129.84645L83.45625 129.84645L83.45625 133.26833Z" fill-rule="nonzero"/><path fill="#000000" d="M25.846874 255.3952Q25.409374 256.0202 24.628124 256.3327Q23.846874 256.6452 22.815624 256.6452Q21.784374 256.6452 20.971874 256.16083Q20.159374 255.66083 19.721874 254.75458Q19.284374 253.84833 19.26875 252.66083L19.26875 251.92645Q19.26875 249.98895 20.159374 248.92645Q21.065624 247.86395 22.690624 247.86395Q24.034374 247.86395 24.846874 248.55145Q25.659374 249.23895 25.846874 250.48895L24.721874 250.48895Q24.39375 248.80145 22.70625 248.80145Q21.565624 248.80145 20.9875 249.59833Q20.409374 250.37958 20.39375 251.8952L20.39375 252.5827Q20.39375 254.0202 21.05 254.87958Q21.70625 255.72333 22.83125 255.72333Q23.45625 255.72333 23.925 255.5827Q24.409374 255.44208 24.721874 255.09833L24.721874 253.19208L22.753124 253.19208L22.753124 252.2702L25.846874 252.2702L25.846874 255.3952ZM28.55 256.5202L27.471874 256.5202L27.471874 247.5202L28.55 247.5202L28.55 256.5202ZM30.08125 253.28583Q30.08125 252.36395 30.440624 251.61395Q30.815624 250.86395 31.471874 250.47333Q32.128124 250.06708 32.95625 250.06708Q34.253124 250.06708 35.05 250.9577Q35.8625 251.84833 35.8625 253.34833L35.8625 253.42645Q35.8625 254.34833 35.503124 255.0827Q35.14375 255.81708 34.4875 256.23895Q33.83125 256.6452 32.971874 256.6452Q31.690624 256.6452 30.878124 255.75458Q30.08125 254.84833 30.08125 253.36395L30.08125 253.28583ZM31.175 253.42645Q31.175 254.47333 31.659374 255.11395Q32.159374 255.75458 32.971874 255.75458Q33.8 255.75458 34.284374 255.11395Q34.76875 254.4577 34.76875 253.28583Q34.76875 252.25458 34.26875 251.61395Q33.784374 250.9577 32.95625 250.9577Q32.159374 250.9577 31.659374 251.59833Q31.175 252.22333 31.175 253.42645ZM42.7375 253.42645Q42.7375 254.87958 42.065624 255.7702Q41.409374 256.6452 40.284374 256.6452Q39.08125 256.6452 38.425 255.78583L38.3625 256.5202L37.378124 256.5202L37.378124 247.5202L38.45625 247.5202L38.45625 250.87958Q39.1125 250.06708 40.26875 250.06708Q41.425 250.06708 42.08125 250.94208Q42.7375 251.80145 42.7375 253.3327L42.7375 253.42645ZM41.659374 253.30145Q41.659374 252.19208 41.221874 251.59833Q40.8 250.98895 40.003124 250.98895Q38.925 250.98895 38.45625 251.97333L38.45625 254.72333Q38.95625 255.72333 40.003124 255.72333Q40.784374 255.72333 41.221874 255.11395Q41.659374 254.50458 41.659374 253.30145ZM48.284374 256.5202Q48.190624 256.3327 48.128124 255.84833Q47.378124 256.6452 46.33125 256.6452Q45.39375 256.6452 44.784374 256.11395Q44.190624 255.5827 44.190624 254.75458Q44.190624 253.7702 44.940624 253.22333Q45.690624 252.67645 47.065624 252.67645L48.1125 252.67645L48.1125 252.17645Q48.1125 251.61395 47.76875 251.28583Q47.440624 250.94208 46.76875 250.94208Q46.190624 250.94208 45.8 251.23895Q45.409374 251.5202 45.409374 251.94208L44.315624 251.94208Q44.315624 251.4577 44.64375 251.0202Q44.9875 250.5827 45.565624 250.3327Q46.14375 250.06708 46.83125 250.06708Q47.940624 250.06708 48.55 250.61395Q49.175 251.16083 49.20625 252.11395L49.20625 255.03583Q49.20625 255.91083 49.425 256.42645L49.425 256.5202L48.284374 256.5202ZM46.4875 255.69208Q47.003124 255.69208 47.45625 255.42645Q47.909374 255.16083 48.1125 254.73895L48.1125 253.44208L47.26875 253.44208Q45.26875 253.44208 45.26875 254.61395Q45.26875 255.11395 45.6125 255.41083Q45.95625 255.69208 46.4875 255.69208ZM52.55 256.5202L51.471874 256.5202L51.471874 247.5202L52.55 247.5202L52.55 256.5202ZM60.05 252.72333Q58.6125 252.30145 57.940624 251.69208Q57.284374 251.0827 57.284374 250.19208Q57.284374 249.19208 58.08125 248.53583Q58.89375 247.86395 60.190624 247.86395Q61.065624 247.86395 61.753124 248.2077Q62.440624 248.55145 62.815624 249.1452Q63.20625 249.73895 63.20625 250.4577L62.065624 250.4577Q62.065624 249.67645 61.565624 249.23895Q61.08125 248.80145 60.190624 248.80145Q59.3625 248.80145 58.89375 249.17645Q58.425 249.53583 58.425 250.17645Q58.425 250.7077 58.8625 251.06708Q59.315624 251.42645 60.378124 251.72333Q61.440624 252.0202 62.034374 252.37958Q62.64375 252.73895 62.925 253.22333Q63.221874 253.7077 63.221874 254.34833Q63.221874 255.3952 62.409374 256.0202Q61.596874 256.6452 60.253124 256.6452Q59.3625 256.6452 58.596874 256.30145Q57.846874 255.9577 57.425 255.37958Q57.01875 254.78583 57.01875 254.05145L58.14375 254.05145Q58.14375 254.81708 58.721874 255.2702Q59.3 255.72333 60.253124 255.72333Q61.14375 255.72333 61.6125 255.36395Q62.08125 254.98895 62.08125 254.36395Q62.08125 253.73895 61.64375 253.3952Q61.20625 253.05145 60.05 252.72333ZM64.08125 253.28583Q64.08125 252.36395 64.44063 251.61395Q64.81563 250.86395 65.47188 250.47333Q66.12813 250.06708 66.95625 250.06708Q68.25313 250.06708 69.05 250.9577Q69.8625 251.84833 69.8625 253.34833L69.8625 253.42645Q69.8625 254.34833 69.50313 255.0827Q69.14375 255.81708 68.4875 256.23895Q67.83125 256.6452 66.97188 256.6452Q65.69063 256.6452 64.87813 255.75458Q64.08125 254.84833 64.08125 253.36395L64.08125 253.28583ZM65.175 253.42645Q65.175 254.47333 65.65938 255.11395Q66.15938 255.75458 66.97188 255.75458Q67.8 255.75458 68.28438 255.11395Q68.76875 254.4577 68.76875 253.28583Q68.76875 252.25458 68.26875 251.61395Q67.78438 250.9577 66.95625 250.9577Q66.15938 250.9577 65.65938 251.59833Q65.175 252.22333 65.175 253.42645ZM75.28438 255.8952Q74.65938 256.6452 73.425 256.6452Q72.40938 256.6452 71.87813 256.05145Q71.34688 255.4577 71.34688 254.30145L71.34688 250.17645L72.425 250.17645L72.425 254.2702Q72.425 255.72333 73.59688 255.72333Q74.84688 255.72333 75.25313 254.78583L75.25313 250.17645L76.34688 250.17645L76.34688 256.5202L75.31563 256.5202L75.28438 255.8952ZM79.84688 248.6452L79.84688 250.17645L81.01875 250.17645L81.01875 251.0202L79.84688 251.0202L79.84688 254.94208Q79.84688 255.3327 80.00313 255.5202Q80.15938 255.7077 80.53438 255.7077Q80.72188 255.7077 81.05 255.6452L81.05 256.5202Q80.62813 256.6452 80.22188 256.6452Q79.50313 256.6452 79.12813 256.2077Q78.75313 255.75458 78.75313 254.94208L78.75313 251.0202L77.59688 251.0202L77.59688 250.17645L78.75313 250.17645L78.75313 248.6452L79.84688 248.6452ZM83.45625 250.94208Q84.175 250.06708 85.33125 250.06708Q87.34688 250.06708 87.3625 252.3327L87.3625 256.5202L86.26875 256.5202L86.26875 252.31708Q86.26875 251.6452 85.95625 251.31708Q85.65938 250.98895 85.00313 250.98895Q84.47188 250.98895 84.06563 251.2702Q83.675 251.55145 83.45625 252.00458L83.45625 256.5202L82.37813 256.5202L82.37813 247.5202L83.45625 247.5202L83.45625 250.94208Z" fill-rule="nonzero"/><path fill="#000000" d="M97.1125 345.8094Q97.1125 347.71564 96.45625 348.65314Q95.81563 349.575 94.425 349.575Q93.06563 349.575 92.40938 348.66876Q91.75313 347.7625 91.72188 345.95L91.72188 344.5125Q91.72188 342.6219 92.3625 341.71564Q93.01875 340.79376 94.40938 340.79376Q95.78438 340.79376 96.44063 341.6844Q97.09688 342.5594 97.1125 344.40314L97.1125 345.8094ZM96.01875 344.325Q96.01875 342.95 95.62813 342.325Q95.25313 341.6844 94.40938 341.6844Q93.58125 341.6844 93.19063 342.325Q92.81563 342.95 92.81563 344.2469L92.81563 345.98126Q92.81563 347.35626 93.20625 348.02814Q93.6125 348.6844 94.425 348.6844Q95.22188 348.6844 95.6125 348.0594Q96.00313 347.4344 96.01875 346.10626L96.01875 344.325Z" fill-rule="nonzero"/><path fill="#000000" d="M155.91246 345.16876L156.34996 340.91876L160.72496 340.91876L160.72496 341.91876L157.27184 341.91876L157.00621 344.2469Q157.64684 343.8719 158.44371 343.8719Q159.59996 343.8719 160.28746 344.65314Q160.97496 345.41876 160.97496 346.73126Q160.97496 348.04376 160.25621 348.8094Q159.55309 349.575 158.27184 349.575Q157.14684 349.575 156.42809 348.95Q155.70934 348.3094 155.61559 347.2L156.63121 347.2Q156.74059 347.9344 157.16246 348.3094Q157.58434 348.6844 158.27184 348.6844Q159.02184 348.6844 159.45934 348.16876Q159.89684 347.65314 159.89684 346.7469Q159.89684 345.8875 159.42809 345.3719Q158.95934 344.85626 158.17809 344.85626Q157.47496 344.85626 157.06871 345.15314L156.78746 345.3875L155.91246 345.16876Z" fill-rule="nonzero"/><path fill="#000000" d="M219.1343 349.45L218.05617 349.45L218.05617 342.23126L215.86867 343.02814L215.86867 342.04376L218.97804 340.8719L219.1343 340.8719L219.1343 349.45ZM227.93117 345.8094Q227.93117 347.71564 227.27492 348.65314Q226.6343 349.575 225.24367 349.575Q223.8843 349.575 223.22804 348.66876Q222.5718 347.7625 222.54054 345.95L222.54054 344.5125Q222.54054 342.6219 223.18117 341.71564Q223.83742 340.79376 225.22804 340.79376Q226.60304 340.79376 227.2593 341.6844Q227.91554 342.5594 227.93117 344.40314L227.93117 345.8094ZM226.83742 344.325Q226.83742 342.95 226.4468 342.325Q226.0718 341.6844 225.22804 341.6844Q224.39992 341.6844 224.0093 342.325Q223.6343 342.95 223.6343 344.2469L223.6343 345.98126Q223.6343 347.35626 224.02492 348.02814Q224.43117 348.6844 225.24367 348.6844Q226.04054 348.6844 226.43117 348.0594Q226.8218 347.4344 226.83742 346.10626L226.83742 344.325Z" fill-rule="nonzero"/><path fill="#000000" d="M282.79364 349.45L281.7155 349.45L281.7155 342.23126L279.528 343.02814L279.528 342.04376L282.6374 340.8719L282.79364 340.8719L282.79364 349.45ZM286.73114 345.16876L287.16864 340.91876L291.54364 340.91876L291.54364 341.91876L288.0905 341.91876L287.8249 344.2469Q288.4655 343.8719 289.2624 343.8719Q290.41864 343.8719 291.10614 344.65314Q291.79364 345.41876 291.79364 346.73126Q291.79364 348.04376 291.0749 348.8094Q290.37177 349.575 289.0905 349.575Q287.9655 349.575 287.24677 348.95Q286.528 348.3094 286.43427 347.2L287.4499 347.2Q287.55927 347.9344 287.98114 348.3094Q288.403 348.6844 289.0905 348.6844Q289.8405 348.6844 290.278 348.16876Q290.7155 347.65314 290.7155 346.7469Q290.7155 345.8875 290.24677 345.3719Q289.778 344.85626 288.99677 344.85626Q288.29364 344.85626 287.8874 345.15314L287.60614 345.3875L286.73114 345.16876Z" fill-rule="nonzero"/><path fill="#000000" d="M348.48422 349.45L342.89047 349.45L342.89047 348.66876L345.8436 345.3875Q346.49985 344.6375 346.74985 344.1844Q346.99985 343.71564 346.99985 343.21564Q346.99985 342.54376 346.5936 342.1219Q346.20297 341.6844 345.51547 341.6844Q344.7186 341.6844 344.26547 342.15314Q343.81235 342.60626 343.81235 343.4344L342.73422 343.4344Q342.73422 342.2469 343.48422 341.52814Q344.24985 340.79376 345.51547 340.79376Q346.7186 340.79376 347.4061 341.41876Q348.0936 342.04376 348.0936 343.09064Q348.0936 344.34064 346.48422 346.09064L344.20297 348.5594L348.48422 348.5594L348.48422 349.45ZM355.24985 345.8094Q355.24985 347.71564 354.5936 348.65314Q353.95297 349.575 352.56235 349.575Q351.20297 349.575 350.54672 348.66876Q349.89047 347.7625 349.85922 345.95L349.85922 344.5125Q349.85922 342.6219 350.49985 341.71564Q351.1561 340.79376 352.54672 340.79376Q353.92172 340.79376 354.57797 341.6844Q355.23422 342.5594 355.24985 344.40314L355.24985 345.8094ZM354.1561 344.325Q354.1561 342.95 353.76547 342.325Q353.39047 341.6844 352.54672 341.6844Q351.7186 341.6844 351.32797 342.325Q350.95297 342.95 350.95297 344.2469L350.95297 345.98126Q350.95297 347.35626 351.3436 348.02814Q351.74985 348.6844 352.56235 348.6844Q353.35922 348.6844 353.74985 348.0594Q354.14047 347.4344 354.1561 346.10626L354.1561 344.325Z" fill-rule="nonzero"/><path fill="#000000" d="M412.14355 349.45L406.5498 349.45L406.5498 348.66876L409.50293 345.3875Q410.15918 344.6375 410.40918 344.1844Q410.65918 343.71564 410.65918 343.21564Q410.65918 342.54376 410.25293 342.1219Q409.8623 341.6844 409.1748 341.6844Q408.37793 341.6844 407.9248 342.15314Q407.47168 342.60626 407.47168 343.4344L406.39355 343.4344Q406.39355 342.2469 407.14355 341.52814Q407.90918 340.79376 409.1748 340.79376Q410.37793 340.79376 411.06543 341.41876Q411.75293 342.04376 411.75293 343.09064Q411.75293 344.34064 410.14355 346.09064L407.8623 348.5594L412.14355 348.5594L412.14355 349.45ZM414.0498 345.16876L414.4873 340.91876L418.8623 340.91876L418.8623 341.91876L415.40918 341.91876L415.14355 344.2469Q415.78418 343.8719 416.58105 343.8719Q417.7373 343.8719 418.4248 344.65314Q419.1123 345.41876 419.1123 346.73126Q419.1123 348.04376 418.39355 348.8094Q417.69043 349.575 416.40918 349.575Q415.28418 349.575 414.56543 348.95Q413.84668 348.3094 413.75293 347.2L414.76855 347.2Q414.87793 347.9344 415.2998 348.3094Q415.72168 348.6844 416.40918 348.6844Q417.15918 348.6844 417.59668 348.16876Q418.03418 347.65314 418.03418 346.7469Q418.03418 345.8875 417.56543 345.3719Q417.09668 344.85626 416.31543 344.85626Q415.6123 344.85626 415.20605 345.15314L414.9248 345.3875L414.0498 345.16876Z" fill-rule="nonzero"/><path fill="#c9daf8" d="M432.68222 118.520905C432.68222 117.96862 433.12994 117.520905 433.68222 117.520905L443.68222 117.520905C444.2345 117.520905 444.68222 117.96862 444.68222 118.520905L444.68222 128.5209C444.68222 129.0732 444.2345 129.5209 443.68222 129.5209L433.68222 129.5209C433.12994 129.5209 432.68222 129.0732 432.68222 128.5209Z" fill-rule="nonzero"/><path fill="#000000" d="M459.94785 125.31778Q459.7916 126.66153 458.94785 127.41153Q458.1041 128.1459 456.71347 128.1459Q455.19785 128.1459 454.2916 127.06778Q453.38535 125.97403 453.38535 124.145905L453.38535 123.333405Q453.38535 122.145905 453.80722 121.239655Q454.2291 120.333405 455.01035 119.84903Q455.7916 119.364655 456.80722 119.364655Q458.1666 119.364655 458.9791 120.13028Q459.80722 120.895905 459.94785 122.22403L458.82285 122.22403Q458.6666 121.208405 458.18222 120.75528Q457.69785 120.302155 456.80722 120.302155Q455.7291 120.302155 455.11972 121.09903Q454.51035 121.895905 454.51035 123.364655L454.51035 124.19278Q454.51035 125.583405 455.08847 126.41153Q455.6666 127.22403 456.71347 127.22403Q457.65097 127.22403 458.15097 126.802155Q458.65097 126.364655 458.82285 125.31778L459.94785 125.31778ZM465.4166 127.395905Q464.7916 128.1459 463.55722 128.1459Q462.5416 128.1459 462.01035 127.552155Q461.4791 126.958405 461.4791 125.802155L461.4791 121.677155L462.55722 121.677155L462.55722 125.770905Q462.55722 127.22403 463.7291 127.22403Q464.9791 127.22403 465.38535 126.28653L465.38535 121.677155L466.4791 121.677155L466.4791 128.0209L465.44785 128.0209L465.4166 127.395905ZM471.57285 122.645905Q471.32285 122.614655 471.0416 122.614655Q469.96347 122.614655 469.58847 123.520905L469.58847 128.0209L468.51035 128.0209L468.51035 121.677155L469.55722 121.677155L469.57285 122.41153Q470.1041 121.56778 471.08847 121.56778Q471.40097 121.56778 471.57285 121.645905L471.57285 122.645905ZM473.68222 128.0209L472.6041 128.0209L472.6041 121.677155L473.68222 121.677155L473.68222 128.0209ZM472.51035 120.00528Q472.51035 119.739655 472.6666 119.552155Q472.83847 119.364655 473.15097 119.364655Q473.46347 119.364655 473.61972 119.552155Q473.7916 119.739655 473.7916 120.00528Q473.7916 120.25528 473.61972 120.44278Q473.46347 120.614655 473.15097 120.614655Q472.83847 120.614655 472.6666 120.44278Q472.51035 120.25528 472.51035 120.00528ZM475.21347 124.78653Q475.21347 123.864655 475.57285 123.114655Q475.94785 122.364655 476.6041 121.97403Q477.26035 121.56778 478.08847 121.56778Q479.38535 121.56778 480.18222 122.458405Q480.99472 123.34903 480.99472 124.84903L480.99472 124.927155Q480.99472 125.84903 480.63535 126.583405Q480.27597 127.31778 479.61972 127.739655Q478.96347 128.1459 478.1041 128.1459Q476.82285 128.1459 476.01035 127.25528Q475.21347 126.34903 475.21347 124.864655L475.21347 124.78653ZM476.30722 124.927155Q476.30722 125.97403 476.7916 126.614655Q477.2916 127.25528 478.1041 127.25528Q478.93222 127.25528 479.4166 126.614655Q479.90097 125.958405 479.90097 124.78653Q479.90097 123.75528 479.40097 123.114655Q478.9166 122.458405 478.08847 122.458405Q477.2916 122.458405 476.7916 123.09903Q476.30722 123.72403 476.30722 124.927155ZM486.19785 126.333405Q486.19785 125.895905 485.8541 125.66153Q485.52597 125.41153 484.69785 125.239655Q483.88535 125.06778 483.40097 124.81778Q482.9166 124.56778 482.68222 124.239655Q482.46347 123.895905 482.46347 123.427155Q482.46347 122.645905 483.11972 122.114655Q483.77597 121.56778 484.80722 121.56778Q485.88535 121.56778 486.5416 122.13028Q487.21347 122.677155 487.21347 123.53653L486.13535 123.53653Q486.13535 123.09903 485.74472 122.78653Q485.36972 122.458405 484.80722 122.458405Q484.21347 122.458405 483.86972 122.72403Q483.5416 122.97403 483.5416 123.38028Q483.5416 123.770905 483.8541 123.97403Q484.1666 124.177155 484.9791 124.364655Q485.7916 124.53653 486.2916 124.78653Q486.7916 125.03653 487.02597 125.395905Q487.27597 125.75528 487.27597 126.25528Q487.27597 127.114655 486.58847 127.63028Q485.9166 128.1459 484.83847 128.1459Q484.07285 128.1459 483.4791 127.88028Q482.90097 127.59903 482.57285 127.114655Q482.24472 126.63028 482.24472 126.06778L483.32285 126.06778Q483.3541 126.614655 483.76035 126.94278Q484.1666 127.25528 484.83847 127.25528Q485.44785 127.25528 485.82285 127.00528Q486.19785 126.75528 486.19785 126.333405ZM489.68222 128.0209L488.6041 128.0209L488.6041 121.677155L489.68222 121.677155L489.68222 128.0209ZM488.51035 120.00528Q488.51035 119.739655 488.6666 119.552155Q488.83847 119.364655 489.15097 119.364655Q489.46347 119.364655 489.61972 119.552155Q489.7916 119.739655 489.7916 120.00528Q489.7916 120.25528 489.61972 120.44278Q489.46347 120.614655 489.15097 120.614655Q488.83847 120.614655 488.6666 120.44278Q488.51035 120.25528 488.51035 120.00528ZM492.9791 120.145905L492.9791 121.677155L494.15097 121.677155L494.15097 122.520905L492.9791 122.520905L492.9791 126.44278Q492.9791 126.833405 493.13535 127.020905Q493.2916 127.208405 493.6666 127.208405Q493.8541 127.208405 494.18222 127.145905L494.18222 128.0209Q493.76035 128.1459 493.3541 128.1459Q492.63535 128.1459 492.26035 127.708405Q491.88535 127.25528 491.88535 126.44278L491.88535 122.520905L490.7291 122.520905L490.7291 121.677155L491.88535 121.677155L491.88535 120.145905L492.9791 120.145905ZM497.57285 126.427155L499.05722 121.677155L500.21347 121.677155L497.6666 129.00528Q497.07285 130.5834 495.7916 130.5834L495.57285 130.56778L495.18222 130.48965L495.18222 129.61465L495.46347 129.63028Q496.02597 129.63028 496.32285 129.41153Q496.63535 129.19278 496.83847 128.59903L497.07285 127.94278L494.80722 121.677155L495.99472 121.677155L497.57285 126.427155Z" fill-rule="nonzero"/><path fill="#ea9999" d="M432.68222 143.5209C432.68222 142.96863 433.12994 142.5209 433.68222 142.5209L443.68222 142.5209C444.2345 142.5209 444.68222 142.96863 444.68222 143.5209L444.68222 153.5209C444.68222 154.0732 444.2345 154.5209 443.68222 154.5209L433.68222 154.5209C433.12994 154.5209 432.68222 154.0732 432.68222 153.5209Z" fill-rule="nonzero"/><path fill="#000000" d="M454.88535 153.0209L453.76035 153.0209L453.76035 144.48965L454.88535 144.48965L454.88535 153.0209ZM457.52597 146.67715L457.55722 147.47403Q458.2916 146.56778 459.46347 146.56778Q461.4791 146.56778 461.49472 148.8334L461.49472 153.0209L460.40097 153.0209L460.40097 148.81778Q460.40097 148.1459 460.08847 147.81778Q459.7916 147.48965 459.13535 147.48965Q458.6041 147.48965 458.19785 147.7709Q457.80722 148.05215 457.58847 148.50528L457.58847 153.0209L456.51035 153.0209L456.51035 146.67715L457.52597 146.67715ZM467.19785 151.3334Q467.19785 150.8959 466.8541 150.66153Q466.52597 150.41153 465.69785 150.23965Q464.88535 150.06778 464.40097 149.81778Q463.9166 149.56778 463.68222 149.23965Q463.46347 148.8959 463.46347 148.42715Q463.46347 147.6459 464.11972 147.11465Q464.77597 146.56778 465.80722 146.56778Q466.88535 146.56778 467.5416 147.13028Q468.21347 147.67715 468.21347 148.53653L467.13535 148.53653Q467.13535 148.09903 466.74472 147.78653Q466.36972 147.4584 465.80722 147.4584Q465.21347 147.4584 464.86972 147.72403Q464.5416 147.97403 464.5416 148.38028Q464.5416 148.7709 464.8541 148.97403Q465.1666 149.17715 465.9791 149.36465Q466.7916 149.53653 467.2916 149.78653Q467.7916 150.03653 468.02597 150.3959Q468.27597 150.75528 468.27597 151.25528Q468.27597 152.11465 467.58847 152.63028Q466.9166 153.1459 465.83847 153.1459Q465.07285 153.1459 464.4791 152.88028Q463.90097 152.59903 463.57285 152.11465Q463.24472 151.63028 463.24472 151.06778L464.32285 151.06778Q464.3541 151.61465 464.76035 151.94278Q465.1666 152.25528 465.83847 152.25528Q466.44785 152.25528 466.82285 152.00528Q467.19785 151.75528 467.19785 151.3334ZM470.9791 145.1459L470.9791 146.67715L472.15097 146.67715L472.15097 147.5209L470.9791 147.5209L470.9791 151.44278Q470.9791 151.8334 471.13535 152.0209Q471.2916 152.2084 471.6666 152.2084Q471.8541 152.2084 472.18222 152.1459L472.18222 153.0209Q471.76035 153.1459 471.3541 153.1459Q470.63535 153.1459 470.26035 152.7084Q469.88535 152.25528 469.88535 151.44278L469.88535 147.5209L468.7291 147.5209L468.7291 146.67715L469.88535 146.67715L469.88535 145.1459L470.9791 145.1459ZM476.57285 147.6459Q476.32285 147.61465 476.0416 147.61465Q474.96347 147.61465 474.58847 148.5209L474.58847 153.0209L473.51035 153.0209L473.51035 146.67715L474.55722 146.67715L474.57285 147.41153Q475.1041 146.56778 476.08847 146.56778Q476.40097 146.56778 476.57285 146.6459L476.57285 147.6459ZM481.4166 152.3959Q480.7916 153.1459 479.55722 153.1459Q478.5416 153.1459 478.01035 152.55215Q477.4791 151.9584 477.4791 150.80215L477.4791 146.67715L478.55722 146.67715L478.55722 150.7709Q478.55722 152.22403 479.7291 152.22403Q480.9791 152.22403 481.38535 151.28653L481.38535 146.67715L482.4791 146.67715L482.4791 153.0209L481.44785 153.0209L481.4166 152.3959ZM487.0416 152.25528Q487.61972 152.25528 488.05722 151.91153Q488.49472 151.55215 488.5416 151.0209L489.57285 151.0209Q489.5416 151.56778 489.18222 152.06778Q488.83847 152.55215 488.26035 152.84903Q487.69785 153.1459 487.0416 153.1459Q485.74472 153.1459 484.9791 152.28653Q484.2291 151.41153 484.2291 149.91153L484.2291 149.72403Q484.2291 148.80215 484.55722 148.0834Q484.90097 147.36465 485.52597 146.97403Q486.1666 146.56778 487.0416 146.56778Q488.1041 146.56778 488.80722 147.2084Q489.52597 147.8334 489.57285 148.86465L488.5416 148.86465Q488.49472 148.23965 488.07285 147.84903Q487.65097 147.4584 487.0416 147.4584Q486.21347 147.4584 485.76035 148.05215Q485.30722 148.6459 485.30722 149.7709L485.30722 149.97403Q485.30722 151.06778 485.76035 151.66153Q486.21347 152.25528 487.0416 152.25528ZM491.9791 145.1459L491.9791 146.67715L493.15097 146.67715L493.15097 147.5209L491.9791 147.5209L491.9791 151.44278Q491.9791 151.8334 492.13535 152.0209Q492.2916 152.2084 492.6666 152.2084Q492.8541 152.2084 493.18222 152.1459L493.18222 153.0209Q492.76035 153.1459 492.3541 153.1459Q491.63535 153.1459 491.26035 152.7084Q490.88535 152.25528 490.88535 151.44278L490.88535 147.5209L489.7291 147.5209L489.7291 146.67715L490.88535 146.67715L490.88535 145.1459L491.9791 145.1459ZM495.68222 153.0209L494.6041 153.0209L494.6041 146.67715L495.68222 146.67715L495.68222 153.0209ZM494.51035 145.00528Q494.51035 144.73965 494.6666 144.55215Q494.83847 144.36465 495.15097 144.36465Q495.46347 144.36465 495.61972 144.55215Q495.7916 144.73965 495.7916 145.00528Q495.7916 145.25528 495.61972 145.44278Q495.46347 145.61465 495.15097 145.61465Q494.83847 145.61465 494.6666 145.44278Q494.51035 145.25528 494.51035 145.00528ZM497.21347 149.78653Q497.21347 148.86465 497.57285 148.11465Q497.94785 147.36465 498.6041 146.97403Q499.26035 146.56778 500.08847 146.56778Q501.38535 146.56778 502.18222 147.4584Q502.99472 148.34903 502.99472 149.84903L502.99472 149.92715Q502.99472 150.84903 502.63535 151.5834Q502.27597 152.31778 501.61972 152.73965Q500.96347 153.1459 500.1041 153.1459Q498.82285 153.1459 498.01035 152.25528Q497.21347 151.34903 497.21347 149.86465L497.21347 149.78653ZM498.30722 149.92715Q498.30722 150.97403 498.7916 151.61465Q499.2916 152.25528 500.1041 152.25528Q500.93222 152.25528 501.4166 151.61465Q501.90097 150.9584 501.90097 149.78653Q501.90097 148.75528 501.40097 148.11465Q500.9166 147.4584 500.08847 147.4584Q499.2916 147.4584 498.7916 148.09903Q498.30722 148.72403 498.30722 149.92715ZM505.52597 146.67715L505.55722 147.47403Q506.2916 146.56778 507.46347 146.56778Q509.4791 146.56778 509.49472 148.8334L509.49472 153.0209L508.40097 153.0209L508.40097 148.81778Q508.40097 148.1459 508.08847 147.81778Q507.7916 147.48965 507.13535 147.48965Q506.6041 147.48965 506.19785 147.7709Q505.80722 148.05215 505.58847 148.50528L505.58847 153.0209L504.51035 153.0209L504.51035 146.67715L505.52597 146.67715ZM515.0416 153.0209L515.0416 147.5209L514.0416 147.5209L514.0416 146.67715L515.0416 146.67715L515.0416 146.03653Q515.0416 145.00528 515.5729 144.4584Q516.11975 143.8959 517.11975 143.8959Q517.49475 143.8959 517.86975 143.98965L517.80725 144.88028Q517.526 144.81778 517.2291 144.81778Q516.6979 144.81778 516.401 145.13028Q516.11975 145.44278 516.11975 146.00528L516.11975 146.67715L517.4791 146.67715L517.4791 147.5209L516.11975 147.5209L516.11975 153.0209L515.0416 153.0209ZM521.5729 147.6459Q521.3229 147.61465 521.0416 147.61465Q519.9635 147.61465 519.5885 148.5209L519.5885 153.0209L518.5104 153.0209L518.5104 146.67715L519.55725 146.67715L519.5729 147.41153Q520.1041 146.56778 521.0885 146.56778Q521.401 146.56778 521.5729 146.6459L521.5729 147.6459ZM522.2135 149.78653Q522.2135 148.86465 522.5729 148.11465Q522.9479 147.36465 523.6041 146.97403Q524.2604 146.56778 525.0885 146.56778Q526.3854 146.56778 527.18225 147.4584Q527.99475 148.34903 527.99475 149.84903L527.99475 149.92715Q527.99475 150.84903 527.6354 151.5834Q527.276 152.31778 526.61975 152.73965Q525.9635 153.1459 525.1041 153.1459Q523.8229 153.1459 523.0104 152.25528Q522.2135 151.34903 522.2135 149.86465L522.2135 149.78653ZM523.30725 149.92715Q523.30725 150.97403 523.7916 151.61465Q524.2916 152.25528 525.1041 152.25528Q525.93225 152.25528 526.4166 151.61465Q526.901 150.9584 526.901 149.78653Q526.901 148.75528 526.401 148.11465Q525.9166 147.4584 525.0885 147.4584Q524.2916 147.4584 523.7916 148.09903Q523.30725 148.72403 523.30725 149.92715ZM530.526 146.67715L530.55725 147.38028Q531.24475 146.56778 532.43225 146.56778Q533.7604 146.56778 534.24475 147.5834Q534.55725 147.13028 535.05725 146.84903Q535.5729 146.56778 536.2604 146.56778Q538.3541 146.56778 538.3854 148.7709L538.3854 153.0209L537.30725 153.0209L537.30725 148.8334Q537.30725 148.16153 536.99475 147.8334Q536.68225 147.48965 535.9479 147.48965Q535.3385 147.48965 534.93225 147.84903Q534.5416 148.2084 534.4791 148.81778L534.4791 153.0209L533.401 153.0209L533.401 148.86465Q533.401 147.48965 532.0416 147.48965Q530.9791 147.48965 530.5885 148.3959L530.5885 153.0209L529.49475 153.0209L529.49475 146.67715L530.526 146.67715ZM544.9791 145.1459L544.9791 146.67715L546.151 146.67715L546.151 147.5209L544.9791 147.5209L544.9791 151.44278Q544.9791 151.8334 545.1354 152.0209Q545.2916 152.2084 545.6666 152.2084Q545.8541 152.2084 546.18225 152.1459L546.18225 153.0209Q545.7604 153.1459 545.3541 153.1459Q544.6354 153.1459 544.2604 152.7084Q543.8854 152.25528 543.8854 151.44278L543.8854 147.5209L542.7291 147.5209L542.7291 146.67715L543.8854 146.67715L543.8854 145.1459L544.9791 145.1459ZM548.5885 147.44278Q549.30725 146.56778 550.4635 146.56778Q552.4791 146.56778 552.49475 148.8334L552.49475 153.0209L551.401 153.0209L551.401 148.81778Q551.401 148.1459 551.0885 147.81778Q550.7916 147.48965 550.1354 147.48965Q549.6041 147.48965 549.1979 147.7709Q548.80725 148.05215 548.5885 148.50528L548.5885 153.0209L547.5104 153.0209L547.5104 144.0209L548.5885 144.0209L548.5885 147.44278ZM557.1354 153.1459Q555.8385 153.1459 555.026 152.30215Q554.2291 151.44278 554.2291 150.0209L554.2291 149.8334Q554.2291 148.88028 554.5885 148.1459Q554.9479 147.3959 555.5885 146.98965Q556.24475 146.56778 556.99475 146.56778Q558.2291 146.56778 558.9166 147.38028Q559.6041 148.19278 559.6041 149.7084L559.6041 150.16153L555.30725 150.16153Q555.3385 151.09903 555.8541 151.67715Q556.3854 152.25528 557.1979 152.25528Q557.7604 152.25528 558.151 152.0209Q558.55725 151.78653 558.86975 151.3959L559.526 151.91153Q558.7291 153.1459 557.1354 153.1459ZM556.99475 147.4584Q556.3385 147.4584 555.8854 147.94278Q555.4479 148.41153 555.3541 149.2709L558.526 149.2709L558.526 149.19278Q558.4791 148.36465 558.0729 147.91153Q557.68225 147.4584 556.99475 147.4584Z" fill-rule="nonzero"/><path fill="#000000" d="M453.24472 164.80215Q453.24472 163.31778 453.93222 162.44278Q454.61972 161.56778 455.74472 161.56778Q456.90097 161.56778 457.55722 162.38028L457.6041 161.67715L458.6041 161.67715L458.6041 167.86465Q458.6041 169.09903 457.86972 169.80215Q457.13535 170.5209 455.9166 170.5209Q455.2291 170.5209 454.57285 170.22403Q453.9166 169.92715 453.57285 169.42715L454.13535 168.7709Q454.82285 169.63028 455.83847 169.63028Q456.61972 169.63028 457.05722 169.17715Q457.51035 168.73965 457.51035 167.92715L457.51035 167.38028Q456.8541 168.1459 455.7291 168.1459Q454.61972 168.1459 453.93222 167.25528Q453.24472 166.34903 453.24472 164.80215ZM454.33847 164.92715Q454.33847 165.98965 454.77597 166.61465Q455.21347 167.22403 456.01035 167.22403Q457.02597 167.22403 457.51035 166.28653L457.51035 163.3959Q457.01035 162.48965 456.01035 162.48965Q455.2291 162.48965 454.77597 163.09903Q454.33847 163.7084 454.33847 164.92715ZM460.21347 164.78653Q460.21347 163.86465 460.57285 163.11465Q460.94785 162.36465 461.6041 161.97403Q462.26035 161.56778 463.08847 161.56778Q464.38535 161.56778 465.18222 162.4584Q465.99472 163.34903 465.99472 164.84903L465.99472 164.92715Q465.99472 165.84903 465.63535 166.5834Q465.27597 167.31778 464.61972 167.73965Q463.96347 168.1459 463.1041 168.1459Q461.82285 168.1459 461.01035 167.25528Q460.21347 166.34903 460.21347 164.86465L460.21347 164.78653ZM461.30722 164.92715Q461.30722 165.97403 461.7916 166.61465Q462.2916 167.25528 463.1041 167.25528Q463.93222 167.25528 464.4166 166.61465Q464.90097 165.9584 464.90097 164.78653Q464.90097 163.75528 464.40097 163.11465Q463.9166 162.4584 463.08847 162.4584Q462.2916 162.4584 461.7916 163.09903Q461.30722 163.72403 461.30722 164.92715ZM469.58847 166.55215L471.1666 161.67715L472.27597 161.67715L469.99472 168.0209L469.1666 168.0209L466.86972 161.67715L467.9791 161.67715L469.58847 166.55215ZM476.13535 168.1459Q474.83847 168.1459 474.02597 167.30215Q473.2291 166.44278 473.2291 165.0209L473.2291 164.8334Q473.2291 163.88028 473.58847 163.1459Q473.94785 162.3959 474.58847 161.98965Q475.24472 161.56778 475.99472 161.56778Q477.2291 161.56778 477.9166 162.38028Q478.6041 163.19278 478.6041 164.7084L478.6041 165.16153L474.30722 165.16153Q474.33847 166.09903 474.8541 166.67715Q475.38535 167.25528 476.19785 167.25528Q476.76035 167.25528 477.15097 167.0209Q477.55722 166.78653 477.86972 166.3959L478.52597 166.91153Q477.7291 168.1459 476.13535 168.1459ZM475.99472 162.4584Q475.33847 162.4584 474.88535 162.94278Q474.44785 163.41153 474.3541 164.2709L477.52597 164.2709L477.52597 164.19278Q477.4791 163.36465 477.07285 162.91153Q476.68222 162.4584 475.99472 162.4584ZM482.57285 162.6459Q482.32285 162.61465 482.0416 162.61465Q480.96347 162.61465 480.58847 163.5209L480.58847 168.0209L479.51035 168.0209L479.51035 161.67715L480.55722 161.67715L480.57285 162.41153Q481.1041 161.56778 482.08847 161.56778Q482.40097 161.56778 482.57285 161.6459L482.57285 162.6459ZM484.52597 161.67715L484.55722 162.47403Q485.2916 161.56778 486.46347 161.56778Q488.4791 161.56778 488.49472 163.8334L488.49472 168.0209L487.40097 168.0209L487.40097 163.81778Q487.40097 163.1459 487.08847 162.81778Q486.7916 162.48965 486.13535 162.48965Q485.6041 162.48965 485.19785 162.7709Q484.80722 163.05215 484.58847 163.50528L484.58847 168.0209L483.51035 168.0209L483.51035 161.67715L484.52597 161.67715ZM491.52597 161.67715L491.55722 162.38028Q492.24472 161.56778 493.43222 161.56778Q494.76035 161.56778 495.24472 162.5834Q495.55722 162.13028 496.05722 161.84903Q496.57285 161.56778 497.26035 161.56778Q499.3541 161.56778 499.38535 163.7709L499.38535 168.0209L498.30722 168.0209L498.30722 163.8334Q498.30722 163.16153 497.99472 162.8334Q497.68222 162.48965 496.94785 162.48965Q496.33847 162.48965 495.93222 162.84903Q495.5416 163.2084 495.4791 163.81778L495.4791 168.0209L494.40097 168.0209L494.40097 163.86465Q494.40097 162.48965 493.0416 162.48965Q491.9791 162.48965 491.58847 163.3959L491.58847 168.0209L490.49472 168.0209L490.49472 161.67715L491.52597 161.67715ZM504.13535 168.1459Q502.83847 168.1459 502.02597 167.30215Q501.2291 166.44278 501.2291 165.0209L501.2291 164.8334Q501.2291 163.88028 501.58847 163.1459Q501.94785 162.3959 502.58847 161.98965Q503.24472 161.56778 503.99472 161.56778Q505.2291 161.56778 505.9166 162.38028Q506.6041 163.19278 506.6041 164.7084L506.6041 165.16153L502.30722 165.16153Q502.33847 166.09903 502.8541 166.67715Q503.38535 167.25528 504.19785 167.25528Q504.76035 167.25528 505.15097 167.0209Q505.55722 166.78653 505.86972 166.3959L506.52597 166.91153Q505.7291 168.1459 504.13535 168.1459ZM503.99472 162.4584Q503.33847 162.4584 502.88535 162.94278Q502.44785 163.41153 502.3541 164.2709L505.52597 164.2709L505.52597 164.19278Q505.4791 163.36465 505.07285 162.91153Q504.68222 162.4584 503.99472 162.4584ZM508.52597 161.67715L508.55722 162.47403Q509.2916 161.56778 510.46347 161.56778Q512.4791 161.56778 512.49475 163.8334L512.49475 168.0209L511.40097 168.0209L511.40097 163.81778Q511.40097 163.1459 511.08847 162.81778Q510.7916 162.48965 510.13535 162.48965Q509.6041 162.48965 509.19785 162.7709Q508.80722 163.05215 508.58847 163.50528L508.58847 168.0209L507.51035 168.0209L507.51035 161.67715L508.52597 161.67715ZM515.9791 160.1459L515.9791 161.67715L517.151 161.67715L517.151 162.5209L515.9791 162.5209L515.9791 166.44278Q515.9791 166.8334 516.1354 167.0209Q516.2916 167.2084 516.6666 167.2084Q516.8541 167.2084 517.18225 167.1459L517.18225 168.0209Q516.7604 168.1459 516.3541 168.1459Q515.6354 168.1459 515.2604 167.7084Q514.8854 167.25528 514.8854 166.44278L514.8854 162.5209L513.7291 162.5209L513.7291 161.67715L514.8854 161.67715L514.8854 160.1459L515.9791 160.1459Z" fill-rule="nonzero"/><path fill="#ffe599" d="M432.68222 183.5209C432.68222 182.96863 433.12994 182.5209 433.68222 182.5209L443.68222 182.5209C444.2345 182.5209 444.68222 182.96863 444.68222 183.5209L444.68222 193.5209C444.68222 194.0732 444.2345 194.5209 443.68222 194.5209L433.68222 194.5209C433.12994 194.5209 432.68222 194.0732 432.68222 193.5209Z" fill-rule="nonzero"/><path fill="#000000" d="M454.7916 189.67715L454.7916 193.0209L453.6666 193.0209L453.6666 184.48965L456.82285 184.48965Q458.21347 184.48965 459.01035 185.2084Q459.80722 185.91153 459.80722 187.09903Q459.80722 188.3334 459.02597 189.00528Q458.26035 189.67715 456.80722 189.67715L454.7916 189.67715ZM454.7916 188.75528L456.82285 188.75528Q457.7291 188.75528 458.19785 188.3334Q458.68222 187.91153 458.68222 187.11465Q458.68222 186.34903 458.19785 185.8959Q457.7291 185.42715 456.88535 185.41153L454.7916 185.41153L454.7916 188.75528ZM464.13535 193.1459Q462.83847 193.1459 462.02597 192.30215Q461.2291 191.44278 461.2291 190.0209L461.2291 189.8334Q461.2291 188.88028 461.58847 188.1459Q461.94785 187.3959 462.58847 186.98965Q463.24472 186.56778 463.99472 186.56778Q465.2291 186.56778 465.9166 187.38028Q466.6041 188.19278 466.6041 189.7084L466.6041 190.16153L462.30722 190.16153Q462.33847 191.09903 462.8541 191.67715Q463.38535 192.25528 464.19785 192.25528Q464.76035 192.25528 465.15097 192.0209Q465.55722 191.78653 465.86972 191.3959L466.52597 191.91153Q465.7291 193.1459 464.13535 193.1459ZM463.99472 187.4584Q463.33847 187.4584 462.88535 187.94278Q462.44785 188.41153 462.3541 189.2709L465.52597 189.2709L465.52597 189.19278Q465.4791 188.36465 465.07285 187.91153Q464.68222 187.4584 463.99472 187.4584ZM470.13535 193.1459Q468.83847 193.1459 468.02597 192.30215Q467.2291 191.44278 467.2291 190.0209L467.2291 189.8334Q467.2291 188.88028 467.58847 188.1459Q467.94785 187.3959 468.58847 186.98965Q469.24472 186.56778 469.99472 186.56778Q471.2291 186.56778 471.9166 187.38028Q472.6041 188.19278 472.6041 189.7084L472.6041 190.16153L468.30722 190.16153Q468.33847 191.09903 468.8541 191.67715Q469.38535 192.25528 470.19785 192.25528Q470.76035 192.25528 471.15097 192.0209Q471.55722 191.78653 471.86972 191.3959L472.52597 191.91153Q471.7291 193.1459 470.13535 193.1459ZM469.99472 187.4584Q469.33847 187.4584 468.88535 187.94278Q468.44785 188.41153 468.3541 189.2709L471.52597 189.2709L471.52597 189.19278Q471.4791 188.36465 471.07285 187.91153Q470.68222 187.4584 469.99472 187.4584ZM476.57285 187.6459Q476.32285 187.61465 476.0416 187.61465Q474.96347 187.61465 474.58847 188.5209L474.58847 193.0209L473.51035 193.0209L473.51035 186.67715L474.55722 186.67715L474.57285 187.41153Q475.1041 186.56778 476.08847 186.56778Q476.40097 186.56778 476.57285 186.6459L476.57285 187.6459ZM485.8541 189.92715Q485.8541 191.36465 485.19785 192.25528Q484.5416 193.1459 483.40097 193.1459Q482.24472 193.1459 481.58847 192.41153L481.58847 195.4584L480.51035 195.4584L480.51035 186.67715L481.49472 186.67715L481.5416 187.38028Q482.21347 186.56778 483.38535 186.56778Q484.52597 186.56778 485.18222 187.42715Q485.8541 188.28653 485.8541 189.81778L485.8541 189.92715ZM484.77597 189.80215Q484.77597 188.72403 484.30722 188.11465Q483.8541 187.48965 483.05722 187.48965Q482.07285 187.48965 481.58847 188.34903L481.58847 191.38028Q482.07285 192.25528 483.07285 192.25528Q483.8541 192.25528 484.30722 191.6459Q484.77597 191.0209 484.77597 189.80215ZM490.57285 187.6459Q490.32285 187.61465 490.0416 187.61465Q488.96347 187.61465 488.58847 188.5209L488.58847 193.0209L487.51035 193.0209L487.51035 186.67715L488.55722 186.67715L488.57285 187.41153Q489.1041 186.56778 490.08847 186.56778Q490.40097 186.56778 490.57285 186.6459L490.57285 187.6459ZM494.13535 193.1459Q492.83847 193.1459 492.02597 192.30215Q491.2291 191.44278 491.2291 190.0209L491.2291 189.8334Q491.2291 188.88028 491.58847 188.1459Q491.94785 187.3959 492.58847 186.98965Q493.24472 186.56778 493.99472 186.56778Q495.2291 186.56778 495.9166 187.38028Q496.6041 188.19278 496.6041 189.7084L496.6041 190.16153L492.30722 190.16153Q492.33847 191.09903 492.8541 191.67715Q493.38535 192.25528 494.19785 192.25528Q494.76035 192.25528 495.15097 192.0209Q495.55722 191.78653 495.86972 191.3959L496.52597 191.91153Q495.7291 193.1459 494.13535 193.1459ZM493.99472 187.4584Q493.33847 187.4584 492.88535 187.94278Q492.44785 188.41153 492.3541 189.2709L495.52597 189.2709L495.52597 189.19278Q495.4791 188.36465 495.07285 187.91153Q494.68222 187.4584 493.99472 187.4584ZM501.19785 191.3334Q501.19785 190.8959 500.8541 190.66153Q500.52597 190.41153 499.69785 190.23965Q498.88535 190.06778 498.40097 189.81778Q497.9166 189.56778 497.68222 189.23965Q497.46347 188.8959 497.46347 188.42715Q497.46347 187.6459 498.11972 187.11465Q498.77597 186.56778 499.80722 186.56778Q500.88535 186.56778 501.5416 187.13028Q502.21347 187.67715 502.21347 188.53653L501.13535 188.53653Q501.13535 188.09903 500.74472 187.78653Q500.36972 187.4584 499.80722 187.4584Q499.21347 187.4584 498.86972 187.72403Q498.5416 187.97403 498.5416 188.38028Q498.5416 188.7709 498.8541 188.97403Q499.1666 189.17715 499.9791 189.36465Q500.7916 189.53653 501.2916 189.78653Q501.7916 190.03653 502.02597 190.3959Q502.27597 190.75528 502.27597 191.25528Q502.27597 192.11465 501.58847 192.63028Q500.9166 193.1459 499.83847 193.1459Q499.07285 193.1459 498.4791 192.88028Q497.90097 192.59903 497.57285 192.11465Q497.24472 191.63028 497.24472 191.06778L498.32285 191.06778Q498.3541 191.61465 498.76035 191.94278Q499.1666 192.25528 499.83847 192.25528Q500.44785 192.25528 500.82285 192.00528Q501.19785 191.75528 501.19785 191.3334ZM507.19785 191.3334Q507.19785 190.8959 506.8541 190.66153Q506.52597 190.41153 505.69785 190.23965Q504.88535 190.06778 504.40097 189.81778Q503.9166 189.56778 503.68222 189.23965Q503.46347 188.8959 503.46347 188.42715Q503.46347 187.6459 504.11972 187.11465Q504.77597 186.56778 505.80722 186.56778Q506.88535 186.56778 507.5416 187.13028Q508.21347 187.67715 508.21347 188.53653L507.13535 188.53653Q507.13535 188.09903 506.74472 187.78653Q506.36972 187.4584 505.80722 187.4584Q505.21347 187.4584 504.86972 187.72403Q504.5416 187.97403 504.5416 188.38028Q504.5416 188.7709 504.8541 188.97403Q505.1666 189.17715 505.9791 189.36465Q506.7916 189.53653 507.2916 189.78653Q507.7916 190.03653 508.02597 190.3959Q508.27597 190.75528 508.27597 191.25528Q508.27597 192.11465 507.58847 192.63028Q506.9166 193.1459 505.83847 193.1459Q505.07285 193.1459 504.4791 192.88028Q503.90097 192.59903 503.57285 192.11465Q503.24472 191.63028 503.24472 191.06778L504.32285 191.06778Q504.3541 191.61465 504.76035 191.94278Q505.1666 192.25528 505.83847 192.25528Q506.44785 192.25528 506.82285 192.00528Q507.19785 191.75528 507.19785 191.3334ZM513.4166 192.3959Q512.7916 193.1459 511.55722 193.1459Q510.5416 193.1459 510.01035 192.55215Q509.4791 191.9584 509.4791 190.80215L509.4791 186.67715L510.55722 186.67715L510.55722 190.7709Q510.55722 192.22403 511.7291 192.22403Q512.9791 192.22403 513.3854 191.28653L513.3854 186.67715L514.4791 186.67715L514.4791 193.0209L513.4479 193.0209L513.4166 192.3959ZM519.5729 187.6459Q519.3229 187.61465 519.0416 187.61465Q517.9635 187.61465 517.5885 188.5209L517.5885 193.0209L516.5104 193.0209L516.5104 186.67715L517.55725 186.67715L517.5729 187.41153Q518.1041 186.56778 519.0885 186.56778Q519.401 186.56778 519.5729 186.6459L519.5729 187.6459ZM523.1354 193.1459Q521.8385 193.1459 521.026 192.30215Q520.2291 191.44278 520.2291 190.0209L520.2291 189.8334Q520.2291 188.88028 520.5885 188.1459Q520.9479 187.3959 521.5885 186.98965Q522.24475 186.56778 522.99475 186.56778Q524.2291 186.56778 524.9166 187.38028Q525.6041 188.19278 525.6041 189.7084L525.6041 190.16153L521.30725 190.16153Q521.3385 191.09903 521.8541 191.67715Q522.3854 192.25528 523.1979 192.25528Q523.7604 192.25528 524.151 192.0209Q524.55725 191.78653 524.86975 191.3959L525.526 191.91153Q524.7291 193.1459 523.1354 193.1459ZM522.99475 187.4584Q522.3385 187.4584 521.8854 187.94278Q521.4479 188.41153 521.3541 189.2709L524.526 189.2709L524.526 189.19278Q524.4791 188.36465 524.0729 187.91153Q523.68225 187.4584 522.99475 187.4584Z" fill-rule="nonzero"/><path fill="#b6d7a8" d="M432.68222 208.5209C432.68222 207.96863 433.12994 207.5209 433.68222 207.5209L443.68222 207.5209C444.2345 207.5209 444.68222 207.96863 444.68222 208.5209L444.68222 218.5209C444.68222 219.0732 444.2345 219.5209 443.68222 219.5209L433.68222 219.5209C433.12994 219.5209 432.68222 219.0732 432.68222 218.5209Z" fill-rule="nonzero"/><path fill="#000000" d="M455.51035 215.3334L455.68222 216.4584L455.9166 215.44278L457.6041 209.48965L458.55722 209.48965L460.19785 215.44278L460.43222 216.47403L460.61972 215.31778L461.94785 209.48965L463.07285 209.48965L461.01035 218.0209L459.9791 218.0209L458.21347 211.80215L458.08847 211.1459L457.94785 211.80215L456.13535 218.0209L455.1041 218.0209L453.0416 209.48965L454.1666 209.48965L455.51035 215.3334ZM467.13535 218.1459Q465.83847 218.1459 465.02597 217.30215Q464.2291 216.44278 464.2291 215.0209L464.2291 214.8334Q464.2291 213.88028 464.58847 213.1459Q464.94785 212.3959 465.58847 211.98965Q466.24472 211.56778 466.99472 211.56778Q468.2291 211.56778 468.9166 212.38028Q469.6041 213.19278 469.6041 214.7084L469.6041 215.16153L465.30722 215.16153Q465.33847 216.09903 465.8541 216.67715Q466.38535 217.25528 467.19785 217.25528Q467.76035 217.25528 468.15097 217.0209Q468.55722 216.78653 468.86972 216.3959L469.52597 216.91153Q468.7291 218.1459 467.13535 218.1459ZM466.99472 212.4584Q466.33847 212.4584 465.88535 212.94278Q465.44785 213.41153 465.3541 214.2709L468.52597 214.2709L468.52597 214.19278Q468.4791 213.36465 468.07285 212.91153Q467.68222 212.4584 466.99472 212.4584ZM471.68222 218.0209L470.6041 218.0209L470.6041 209.0209L471.68222 209.0209L471.68222 218.0209ZM474.68222 218.0209L473.6041 218.0209L473.6041 209.0209L474.68222 209.0209L474.68222 218.0209ZM481.86972 214.92715Q481.86972 216.38028 481.19785 217.2709Q480.5416 218.1459 479.4166 218.1459Q478.21347 218.1459 477.55722 217.28653L477.49472 218.0209L476.51035 218.0209L476.51035 209.0209L477.58847 209.0209L477.58847 212.38028Q478.24472 211.56778 479.40097 211.56778Q480.55722 211.56778 481.21347 212.44278Q481.86972 213.30215 481.86972 214.8334L481.86972 214.92715ZM480.7916 214.80215Q480.7916 213.69278 480.3541 213.09903Q479.93222 212.48965 479.13535 212.48965Q478.05722 212.48965 477.58847 213.47403L477.58847 216.22403Q478.08847 217.22403 479.13535 217.22403Q479.9166 217.22403 480.3541 216.61465Q480.7916 216.00528 480.7916 214.80215ZM486.13535 218.1459Q484.83847 218.1459 484.02597 217.30215Q483.2291 216.44278 483.2291 215.0209L483.2291 214.8334Q483.2291 213.88028 483.58847 213.1459Q483.94785 212.3959 484.58847 211.98965Q485.24472 211.56778 485.99472 211.56778Q487.2291 211.56778 487.9166 212.38028Q488.6041 213.19278 488.6041 214.7084L488.6041 215.16153L484.30722 215.16153Q484.33847 216.09903 484.8541 216.67715Q485.38535 217.25528 486.19785 217.25528Q486.76035 217.25528 487.15097 217.0209Q487.55722 216.78653 487.86972 216.3959L488.52597 216.91153Q487.7291 218.1459 486.13535 218.1459ZM485.99472 212.4584Q485.33847 212.4584 484.88535 212.94278Q484.44785 213.41153 484.3541 214.2709L487.52597 214.2709L487.52597 214.19278Q487.4791 213.36465 487.07285 212.91153Q486.68222 212.4584 485.99472 212.4584ZM490.68222 218.0209L489.6041 218.0209L489.6041 211.67715L490.68222 211.67715L490.68222 218.0209ZM489.51035 210.00528Q489.51035 209.73965 489.6666 209.55215Q489.83847 209.36465 490.15097 209.36465Q490.46347 209.36465 490.61972 209.55215Q490.7916 209.73965 490.7916 210.00528Q490.7916 210.25528 490.61972 210.44278Q490.46347 210.61465 490.15097 210.61465Q489.83847 210.61465 489.6666 210.44278Q489.51035 210.25528 489.51035 210.00528ZM493.52597 211.67715L493.55722 212.47403Q494.2916 211.56778 495.46347 211.56778Q497.4791 211.56778 497.49472 213.8334L497.49472 218.0209L496.40097 218.0209L496.40097 213.81778Q496.40097 213.1459 496.08847 212.81778Q495.7916 212.48965 495.13535 212.48965Q494.6041 212.48965 494.19785 212.7709Q493.80722 213.05215 493.58847 213.50528L493.58847 218.0209L492.51035 218.0209L492.51035 211.67715L493.52597 211.67715ZM499.24472 214.80215Q499.24472 213.31778 499.93222 212.44278Q500.61972 211.56778 501.74472 211.56778Q502.90097 211.56778 503.55722 212.38028L503.6041 211.67715L504.6041 211.67715L504.6041 217.86465Q504.6041 219.09903 503.86972 219.80215Q503.13535 220.5209 501.9166 220.5209Q501.2291 220.5209 500.57285 220.22403Q499.9166 219.92715 499.57285 219.42715L500.13535 218.7709Q500.82285 219.63028 501.83847 219.63028Q502.61972 219.63028 503.05722 219.17715Q503.51035 218.73965 503.51035 217.92715L503.51035 217.38028Q502.8541 218.1459 501.7291 218.1459Q500.61972 218.1459 499.93222 217.25528Q499.24472 216.34903 499.24472 214.80215ZM500.33847 214.92715Q500.33847 215.98965 500.77597 216.61465Q501.21347 217.22403 502.01035 217.22403Q503.02597 217.22403 503.51035 216.28653L503.51035 213.3959Q503.01035 212.48965 502.01035 212.48965Q501.2291 212.48965 500.77597 213.09903Q500.33847 213.7084 500.33847 214.92715ZM509.21347 214.78653Q509.21347 213.86465 509.57285 213.11465Q509.94785 212.36465 510.6041 211.97403Q511.26035 211.56778 512.0885 211.56778Q513.3854 211.56778 514.18225 212.4584Q514.99475 213.34903 514.99475 214.84903L514.99475 214.92715Q514.99475 215.84903 514.6354 216.5834Q514.276 217.31778 513.61975 217.73965Q512.9635 218.1459 512.1041 218.1459Q510.82285 218.1459 510.01035 217.25528Q509.21347 216.34903 509.21347 214.86465L509.21347 214.78653ZM510.30722 214.92715Q510.30722 215.97403 510.7916 216.61465Q511.2916 217.25528 512.1041 217.25528Q512.93225 217.25528 513.4166 216.61465Q513.901 215.9584 513.901 214.78653Q513.901 213.75528 513.401 213.11465Q512.9166 212.4584 512.0885 212.4584Q511.2916 212.4584 510.7916 213.09903Q510.30722 213.72403 510.30722 214.92715ZM517.0416 218.0209L517.0416 212.5209L516.0416 212.5209L516.0416 211.67715L517.0416 211.67715L517.0416 211.03653Q517.0416 210.00528 517.5729 209.4584Q518.11975 208.8959 519.11975 208.8959Q519.49475 208.8959 519.86975 208.98965L519.80725 209.88028Q519.526 209.81778 519.2291 209.81778Q518.6979 209.81778 518.401 210.13028Q518.11975 210.44278 518.11975 211.00528L518.11975 211.67715L519.4791 211.67715L519.4791 212.5209L518.11975 212.5209L518.11975 218.0209L517.0416 218.0209ZM524.526 211.67715L524.55725 212.38028Q525.24475 211.56778 526.43225 211.56778Q527.7604 211.56778 528.24475 212.5834Q528.55725 212.13028 529.05725 211.84903Q529.5729 211.56778 530.2604 211.56778Q532.3541 211.56778 532.3854 213.7709L532.3854 218.0209L531.30725 218.0209L531.30725 213.8334Q531.30725 213.16153 530.99475 212.8334Q530.68225 212.48965 529.9479 212.48965Q529.3385 212.48965 528.93225 212.84903Q528.5416 213.2084 528.4791 213.81778L528.4791 218.0209L527.401 218.0209L527.401 213.86465Q527.401 212.48965 526.0416 212.48965Q524.9791 212.48965 524.5885 213.3959L524.5885 218.0209L523.49475 218.0209L523.49475 211.67715L524.526 211.67715ZM536.5729 216.42715L538.05725 211.67715L539.2135 211.67715L536.6666 219.00528Q536.0729 220.5834 534.7916 220.5834L534.5729 220.56778L534.18225 220.48965L534.18225 219.61465L534.4635 219.63028Q535.026 219.63028 535.3229 219.41153Q535.6354 219.19278 535.8385 218.59903L536.0729 217.94278L533.80725 211.67715L534.99475 211.67715L536.5729 216.42715ZM544.1979 216.3334Q544.1979 215.8959 543.8541 215.66153Q543.526 215.41153 542.6979 215.23965Q541.8854 215.06778 541.401 214.81778Q540.9166 214.56778 540.68225 214.23965Q540.4635 213.8959 540.4635 213.42715Q540.4635 212.6459 541.11975 212.11465Q541.776 211.56778 542.80725 211.56778Q543.8854 211.56778 544.5416 212.13028Q545.2135 212.67715 545.2135 213.53653L544.1354 213.53653Q544.1354 213.09903 543.74475 212.78653Q543.36975 212.4584 542.80725 212.4584Q542.2135 212.4584 541.86975 212.72403Q541.5416 212.97403 541.5416 213.38028Q541.5416 213.7709 541.8541 213.97403Q542.1666 214.17715 542.9791 214.36465Q543.7916 214.53653 544.2916 214.78653Q544.7916 215.03653 545.026 215.3959Q545.276 215.75528 545.276 216.25528Q545.276 217.11465 544.5885 217.63028Q543.9166 218.1459 542.8385 218.1459Q542.0729 218.1459 541.4791 217.88028Q540.901 217.59903 540.5729 217.11465Q540.24475 216.63028 540.24475 216.06778L541.3229 216.06778Q541.3541 216.61465 541.7604 216.94278Q542.1666 217.25528 542.8385 217.25528Q543.4479 217.25528 543.8229 217.00528Q544.1979 216.75528 544.1979 216.3334ZM549.1354 218.1459Q547.8385 218.1459 547.026 217.30215Q546.2291 216.44278 546.2291 215.0209L546.2291 214.8334Q546.2291 213.88028 546.5885 213.1459Q546.9479 212.3959 547.5885 211.98965Q548.24475 211.56778 548.99475 211.56778Q550.2291 211.56778 550.9166 212.38028Q551.6041 213.19278 551.6041 214.7084L551.6041 215.16153L547.30725 215.16153Q547.3385 216.09903 547.8541 216.67715Q548.3854 217.25528 549.1979 217.25528Q549.7604 217.25528 550.151 217.0209Q550.55725 216.78653 550.86975 216.3959L551.526 216.91153Q550.7291 218.1459 549.1354 218.1459ZM548.99475 212.4584Q548.3385 212.4584 547.8854 212.94278Q547.4479 213.41153 547.3541 214.2709L550.526 214.2709L550.526 214.19278Q550.4791 213.36465 550.0729 212.91153Q549.68225 212.4584 548.99475 212.4584ZM553.68225 218.0209L552.6041 218.0209L552.6041 209.0209L553.68225 209.0209L553.68225 218.0209ZM556.0416 218.0209L556.0416 212.5209L555.0416 212.5209L555.0416 211.67715L556.0416 211.67715L556.0416 211.03653Q556.0416 210.00528 556.5729 209.4584Q557.11975 208.8959 558.11975 208.8959Q558.49475 208.8959 558.86975 208.98965L558.80725 209.88028Q558.526 209.81778 558.2291 209.81778Q557.6979 209.81778 557.401 210.13028Q557.11975 210.44278 557.11975 211.00528L557.11975 211.67715L558.4791 211.67715L558.4791 212.5209L557.11975 212.5209L557.11975 218.0209L556.0416 218.0209Z" fill-rule="nonzero"/><path fill="#000000" d="M457.4166 233.0209Q457.32285 232.8334 457.26035 232.34903Q456.51035 233.1459 455.46347 233.1459Q454.52597 233.1459 453.9166 232.61465Q453.32285 232.0834 453.32285 231.25528Q453.32285 230.2709 454.07285 229.72403Q454.82285 229.17715 456.19785 229.17715L457.24472 229.17715L457.24472 228.67715Q457.24472 228.11465 456.90097 227.78653Q456.57285 227.44278 455.90097 227.44278Q455.32285 227.44278 454.93222 227.73965Q454.5416 228.0209 454.5416 228.44278L453.44785 228.44278Q453.44785 227.9584 453.77597 227.5209Q454.11972 227.0834 454.69785 226.8334Q455.27597 226.56778 455.96347 226.56778Q457.07285 226.56778 457.68222 227.11465Q458.30722 227.66153 458.33847 228.61465L458.33847 231.53653Q458.33847 232.41153 458.55722 232.92715L458.55722 233.0209L457.4166 233.0209ZM455.61972 232.19278Q456.13535 232.19278 456.58847 231.92715Q457.0416 231.66153 457.24472 231.23965L457.24472 229.94278L456.40097 229.94278Q454.40097 229.94278 454.40097 231.11465Q454.40097 231.61465 454.74472 231.91153Q455.08847 232.19278 455.61972 232.19278ZM461.52597 226.67715L461.55722 227.47403Q462.2916 226.56778 463.46347 226.56778Q465.4791 226.56778 465.49472 228.8334L465.49472 233.0209L464.40097 233.0209L464.40097 228.81778Q464.40097 228.1459 464.08847 227.81778Q463.7916 227.48965 463.13535 227.48965Q462.6041 227.48965 462.19785 227.7709Q461.80722 228.05215 461.58847 228.50528L461.58847 233.0209L460.51035 233.0209L460.51035 226.67715L461.52597 226.67715ZM467.24472 229.80215Q467.24472 228.3334 467.93222 227.4584Q468.61972 226.56778 469.74472 226.56778Q470.8541 226.56778 471.51035 227.31778L471.51035 224.0209L472.58847 224.0209L472.58847 233.0209L471.58847 233.0209L471.5416 232.3334Q470.88535 233.1459 469.7291 233.1459Q468.63535 233.1459 467.93222 232.23965Q467.24472 231.3334 467.24472 229.88028L467.24472 229.80215ZM468.32285 229.92715Q468.32285 231.00528 468.76035 231.61465Q469.21347 232.22403 469.99472 232.22403Q471.02597 232.22403 471.51035 231.28653L471.51035 228.38028Q471.02597 227.48965 470.01035 227.48965Q469.21347 227.48965 468.76035 228.09903Q468.32285 228.7084 468.32285 229.92715ZM478.52597 226.67715L478.55722 227.38028Q479.24472 226.56778 480.43222 226.56778Q481.76035 226.56778 482.24472 227.5834Q482.55722 227.13028 483.05722 226.84903Q483.57285 226.56778 484.26035 226.56778Q486.3541 226.56778 486.38535 228.7709L486.38535 233.0209L485.30722 233.0209L485.30722 228.8334Q485.30722 228.16153 484.99472 227.8334Q484.68222 227.48965 483.94785 227.48965Q483.33847 227.48965 482.93222 227.84903Q482.5416 228.2084 482.4791 228.81778L482.4791 233.0209L481.40097 233.0209L481.40097 228.86465Q481.40097 227.48965 480.0416 227.48965Q478.9791 227.48965 478.58847 228.3959L478.58847 233.0209L477.49472 233.0209L477.49472 226.67715L478.52597 226.67715ZM490.57285 231.42715L492.05722 226.67715L493.21347 226.67715L490.6666 234.00528Q490.07285 235.5834 488.7916 235.5834L488.57285 235.56778L488.18222 235.48965L488.18222 234.61465L488.46347 234.63028Q489.02597 234.63028 489.32285 234.41153Q489.63535 234.19278 489.83847 233.59903L490.07285 232.94278L487.80722 226.67715L488.99472 226.67715L490.57285 231.42715ZM498.0416 233.0209L498.0416 227.5209L497.0416 227.5209L497.0416 226.67715L498.0416 226.67715L498.0416 226.03653Q498.0416 225.00528 498.57285 224.4584Q499.11972 223.8959 500.11972 223.8959Q500.49472 223.8959 500.86972 223.98965L500.80722 224.88028Q500.52597 224.81778 500.2291 224.81778Q499.69785 224.81778 499.40097 225.13028Q499.11972 225.44278 499.11972 226.00528L499.11972 226.67715L500.4791 226.67715L500.4791 227.5209L499.11972 227.5209L499.11972 233.0209L498.0416 233.0209ZM505.4166 233.0209Q505.32285 232.8334 505.26035 232.34903Q504.51035 233.1459 503.46347 233.1459Q502.52597 233.1459 501.9166 232.61465Q501.32285 232.0834 501.32285 231.25528Q501.32285 230.2709 502.07285 229.72403Q502.82285 229.17715 504.19785 229.17715L505.24472 229.17715L505.24472 228.67715Q505.24472 228.11465 504.90097 227.78653Q504.57285 227.44278 503.90097 227.44278Q503.32285 227.44278 502.93222 227.73965Q502.5416 228.0209 502.5416 228.44278L501.44785 228.44278Q501.44785 227.9584 501.77597 227.5209Q502.11972 227.0834 502.69785 226.8334Q503.27597 226.56778 503.96347 226.56778Q505.07285 226.56778 505.68222 227.11465Q506.30722 227.66153 506.33847 228.61465L506.33847 231.53653Q506.33847 232.41153 506.55722 232.92715L506.55722 233.0209L505.4166 233.0209ZM503.61972 232.19278Q504.13535 232.19278 504.58847 231.92715Q505.0416 231.66153 505.24472 231.23965L505.24472 229.94278L504.40097 229.94278Q502.40097 229.94278 502.40097 231.11465Q502.40097 231.61465 502.74472 231.91153Q503.08847 232.19278 503.61972 232.19278ZM509.52597 226.67715L509.55722 227.38028Q510.24472 226.56778 511.43222 226.56778Q512.7604 226.56778 513.24475 227.5834Q513.55725 227.13028 514.05725 226.84903Q514.5729 226.56778 515.2604 226.56778Q517.3541 226.56778 517.3854 228.7709L517.3854 233.0209L516.30725 233.0209L516.30725 228.8334Q516.30725 228.16153 515.99475 227.8334Q515.68225 227.48965 514.9479 227.48965Q514.3385 227.48965 513.93225 227.84903Q513.5416 228.2084 513.4791 228.81778L513.4791 233.0209L512.401 233.0209L512.401 228.86465Q512.401 227.48965 511.0416 227.48965Q509.9791 227.48965 509.58847 228.3959L509.58847 233.0209L508.49472 233.0209L508.49472 226.67715L509.52597 226.67715ZM520.68225 233.0209L519.6041 233.0209L519.6041 226.67715L520.68225 226.67715L520.68225 233.0209ZM519.5104 225.00528Q519.5104 224.73965 519.6666 224.55215Q519.8385 224.36465 520.151 224.36465Q520.4635 224.36465 520.61975 224.55215Q520.7916 224.73965 520.7916 225.00528Q520.7916 225.25528 520.61975 225.44278Q520.4635 225.61465 520.151 225.61465Q519.8385 225.61465 519.6666 225.44278Q519.5104 225.25528 519.5104 225.00528ZM523.68225 233.0209L522.6041 233.0209L522.6041 224.0209L523.68225 224.0209L523.68225 233.0209ZM527.5729 231.42715L529.05725 226.67715L530.2135 226.67715L527.6666 234.00528Q527.0729 235.5834 525.7916 235.5834L525.5729 235.56778L525.18225 235.48965L525.18225 234.61465L525.4635 234.63028Q526.026 234.63028 526.3229 234.41153Q526.6354 234.19278 526.8385 233.59903L527.0729 232.94278L524.80725 226.67715L525.99475 226.67715L527.5729 231.42715Z" fill-rule="nonzero"/><path fill="#d5a6bd" d="M432.68222 248.5209C432.68222 247.96863 433.12994 247.5209 433.68222 247.5209L443.68222 247.5209C444.2345 247.5209 444.68222 247.96863 444.68222 248.5209L444.68222 258.5209C444.68222 259.07318 444.2345 259.5209 443.68222 259.5209L433.68222 259.5209C433.12994 259.5209 432.68222 259.07318 432.68222 258.5209Z" fill-rule="nonzero"/><path fill="#000000" d="M460.2291 254.03653Q460.2291 255.28653 459.80722 256.22403Q459.38535 257.1459 458.6041 257.6459Q457.83847 258.1459 456.80722 258.1459Q455.80722 258.1459 455.02597 257.6459Q454.24472 257.1459 453.80722 256.23965Q453.38535 255.31778 453.36972 254.09903L453.36972 253.48965Q453.36972 252.25528 453.7916 251.31778Q454.2291 250.38028 455.01035 249.88028Q455.7916 249.36465 456.80722 249.36465Q457.82285 249.36465 458.6041 249.86465Q459.38535 250.36465 459.80722 251.30215Q460.2291 252.23965 460.2291 253.48965L460.2291 254.03653ZM459.11972 253.47403Q459.11972 251.9584 458.51035 251.1459Q457.90097 250.3334 456.80722 250.3334Q455.7291 250.3334 455.11972 251.1459Q454.51035 251.9584 454.49472 253.3959L454.49472 254.03653Q454.49472 255.50528 455.1041 256.34903Q455.7291 257.17715 456.80722 257.17715Q457.90097 257.17715 458.49472 256.3959Q459.1041 255.59903 459.11972 254.11465L459.11972 253.47403ZM462.9791 250.1459L462.9791 251.67715L464.15097 251.67715L464.15097 252.5209L462.9791 252.5209L462.9791 256.44278Q462.9791 256.8334 463.13535 257.0209Q463.2916 257.2084 463.6666 257.2084Q463.8541 257.2084 464.18222 257.1459L464.18222 258.0209Q463.76035 258.1459 463.3541 258.1459Q462.63535 258.1459 462.26035 257.7084Q461.88535 257.25528 461.88535 256.44278L461.88535 252.5209L460.7291 252.5209L460.7291 251.67715L461.88535 251.67715L461.88535 250.1459L462.9791 250.1459ZM466.58847 252.44278Q467.30722 251.56778 468.46347 251.56778Q470.4791 251.56778 470.49472 253.8334L470.49472 258.0209L469.40097 258.0209L469.40097 253.81778Q469.40097 253.1459 469.08847 252.81778Q468.7916 252.48965 468.13535 252.48965Q467.6041 252.48965 467.19785 252.7709Q466.80722 253.05215 466.58847 253.50528L466.58847 258.0209L465.51035 258.0209L465.51035 249.0209L466.58847 249.0209L466.58847 252.44278ZM475.13535 258.1459Q473.83847 258.1459 473.02597 257.30215Q472.2291 256.44278 472.2291 255.0209L472.2291 254.8334Q472.2291 253.88028 472.58847 253.1459Q472.94785 252.3959 473.58847 251.98965Q474.24472 251.56778 474.99472 251.56778Q476.2291 251.56778 476.9166 252.38028Q477.6041 253.19278 477.6041 254.7084L477.6041 255.16153L473.30722 255.16153Q473.33847 256.09903 473.8541 256.67715Q474.38535 257.25528 475.19785 257.25528Q475.76035 257.25528 476.15097 257.0209Q476.55722 256.78653 476.86972 256.3959L477.52597 256.91153Q476.7291 258.1459 475.13535 258.1459ZM474.99472 252.4584Q474.33847 252.4584 473.88535 252.94278Q473.44785 253.41153 473.3541 254.2709L476.52597 254.2709L476.52597 254.19278Q476.4791 253.36465 476.07285 252.91153Q475.68222 252.4584 474.99472 252.4584ZM481.57285 252.6459Q481.32285 252.61465 481.0416 252.61465Q479.96347 252.61465 479.58847 253.5209L479.58847 258.0209L478.51035 258.0209L478.51035 251.67715L479.55722 251.67715L479.57285 252.41153Q480.1041 251.56778 481.08847 251.56778Q481.40097 251.56778 481.57285 251.6459L481.57285 252.6459Z" fill-rule="nonzero"/><path fill="#000000" d="M23.26875 33.065624L23.534374 34.940624L23.940624 33.253124L26.753124 23.33125L28.33125 23.33125L31.08125 33.253124L31.471874 34.971874L31.76875 33.05L33.9875 23.33125L35.8625 23.33125L32.425 37.55L30.70625 37.55L27.784374 27.190624L27.55 26.096874L27.33125 27.190624L24.3 37.55L22.58125 37.55L19.14375 23.33125L21.01875 23.33125L23.26875 33.065624ZM39.721874 28.26875Q40.925 26.784374 42.846874 26.784374Q46.20625 26.784374 46.221874 30.565624L46.221874 37.55L44.425 37.55L44.425 30.55Q44.409374 29.409374 43.89375 28.8625Q43.39375 28.315624 42.3 28.315624Q41.425 28.315624 40.753124 28.784374Q40.096874 29.253124 39.721874 30.01875L39.721874 37.55L37.925 37.55L37.925 22.55L39.721874 22.55L39.721874 28.26875ZM55.440624 37.55Q55.284374 37.2375 55.190624 36.440624Q53.925 37.753124 52.175 37.753124Q50.6125 37.753124 49.6125 36.8625Q48.6125 35.971874 48.6125 34.6125Q48.6125 32.971874 49.8625 32.065624Q51.128124 31.14375 53.39375 31.14375L55.159374 31.14375L55.159374 30.315624Q55.159374 29.3625 54.58125 28.8Q54.01875 28.2375 52.925 28.2375Q51.95625 28.2375 51.3 28.7375Q50.64375 29.221874 50.64375 29.909374L48.83125 29.909374Q48.83125 29.128124 49.39375 28.39375Q49.95625 27.64375 50.909374 27.221874Q51.878124 26.784374 53.034374 26.784374Q54.8625 26.784374 55.89375 27.70625Q56.925 28.6125 56.971874 30.221874L56.971874 35.08125Q56.971874 36.534374 57.33125 37.39375L57.33125 37.55L55.440624 37.55ZM52.440624 36.175Q53.3 36.175 54.05 35.7375Q54.815624 35.3 55.159374 34.596874L55.159374 32.425L53.7375 32.425Q50.425 32.425 50.425 34.3625Q50.425 35.221874 50.9875 35.70625Q51.55 36.175 52.440624 36.175ZM62.3625 24.425L62.3625 26.9875L64.34688 26.9875L64.34688 28.378124L62.3625 28.378124L62.3625 34.925Q62.3625 35.565624 62.628124 35.89375Q62.89375 36.20625 63.534374 36.20625Q63.846874 36.20625 64.39375 36.08125L64.39375 37.55Q63.675 37.753124 63.003124 37.753124Q61.8 37.753124 61.175 37.01875Q60.565624 36.284374 60.565624 34.925L60.565624 28.378124L58.64375 28.378124L58.64375 26.9875L60.565624 26.9875L60.565624 24.425L62.3625 24.425ZM73.6125 26.9875L73.65938 28.159374Q74.83125 26.784374 76.8 26.784374Q79.01875 26.784374 79.81563 28.4875Q80.34688 27.721874 81.19063 27.253124Q82.03438 26.784374 83.19063 26.784374Q86.65938 26.784374 86.72188 30.471874L86.72188 37.55L84.90938 37.55L84.90938 30.58125Q84.90938 29.440624 84.39375 28.878124Q83.87813 28.315624 82.65938 28.315624Q81.65938 28.315624 80.9875 28.925Q80.33125 29.51875 80.22188 30.534374L80.22188 37.55L78.40938 37.55L78.40938 30.628124Q78.40938 28.315624 76.14375 28.315624Q74.3625 28.315624 73.72188 29.83125L73.72188 37.55L71.90938 37.55L71.90938 26.9875L73.6125 26.9875ZM96.44063 37.55Q96.28438 37.2375 96.19063 36.440624Q94.925 37.753124 93.175 37.753124Q91.6125 37.753124 90.6125 36.8625Q89.6125 35.971874 89.6125 34.6125Q89.6125 32.971874 90.8625 32.065624Q92.12813 31.14375 94.39375 31.14375L96.15938 31.14375L96.15938 30.315624Q96.15938 29.3625 95.58125 28.8Q95.01875 28.2375 93.925 28.2375Q92.95625 28.2375 92.3 28.7375Q91.64375 29.221874 91.64375 29.909374L89.83125 29.909374Q89.83125 29.128124 90.39375 28.39375Q90.95625 27.64375 91.90938 27.221874Q92.87813 26.784374 94.03438 26.784374Q95.8625 26.784374 96.89375 27.70625Q97.925 28.6125 97.97188 30.221874L97.97188 35.08125Q97.97188 36.534374 98.33125 37.39375L98.33125 37.55L96.44063 37.55ZM93.44063 36.175Q94.3 36.175 95.05 35.7375Q95.81563 35.3 96.15938 34.596874L96.15938 32.425L94.7375 32.425Q91.425 32.425 91.425 34.3625Q91.425 35.221874 91.9875 35.70625Q92.55 36.175 93.44063 36.175ZM100.47188 32.175Q100.47188 29.753124 101.62813 28.26875Q102.78438 26.784374 104.64375 26.784374Q106.50313 26.784374 107.58125 28.05L107.58125 22.55L109.39375 22.55L109.39375 37.55L107.7375 37.55L107.64375 36.409374Q106.56563 37.753124 104.62813 37.753124Q102.8 37.753124 101.62813 36.253124Q100.47188 34.7375 100.47188 32.315624L100.47188 32.175ZM102.28438 32.378124Q102.28438 34.175 103.01875 35.190624Q103.76875 36.20625 105.08125 36.20625Q106.8 36.20625 107.58125 34.675L107.58125 29.815624Q106.78438 28.315624 105.09688 28.315624Q103.76875 28.315624 103.01875 29.346874Q102.28438 30.378124 102.28438 32.378124ZM116.3 37.753124Q114.15938 37.753124 112.8 36.346874Q111.45625 34.925 111.45625 32.565624L111.45625 32.221874Q111.45625 30.659374 112.05 29.425Q112.65938 28.190624 113.7375 27.4875Q114.81563 26.784374 116.08125 26.784374Q118.14375 26.784374 119.28438 28.14375Q120.425 29.503124 120.425 32.034374L120.425 32.784374L113.26875 32.784374Q113.3 34.346874 114.175 35.315624Q115.05 36.26875 116.39375 36.26875Q117.3625 36.26875 118.01875 35.878124Q118.69063 35.4875 119.19063 34.846874L120.28438 35.70625Q118.95625 37.753124 116.3 37.753124ZM116.08125 28.26875Q114.9875 28.26875 114.2375 29.065624Q113.50313 29.8625 113.33125 31.3L118.6125 31.3L118.6125 31.159374Q118.53438 29.784374 117.8625 29.034374Q117.20625 28.26875 116.08125 28.26875ZM131.37813 34.909374L133.83125 26.9875L135.76875 26.9875L131.51875 39.175Q130.53438 41.815624 128.39375 41.815624L128.05 41.784374L127.37813 41.659374L127.37813 40.190624L127.8625 40.2375Q128.78438 40.2375 129.28438 39.8625Q129.8 39.4875 130.12813 38.503124L130.53438 37.425L126.76875 26.9875L128.7375 26.9875L131.37813 34.909374ZM136.44063 32.175Q136.44063 30.6125 137.05 29.378124Q137.65938 28.128124 138.7375 27.45625Q139.83125 26.784374 141.2375 26.784374Q143.39375 26.784374 144.72188 28.284374Q146.06563 29.76875 146.06563 32.253124L146.06563 32.378124Q146.06563 33.925 145.47188 35.159374Q144.87813 36.378124 143.76875 37.065624Q142.675 37.753124 141.25313 37.753124Q139.1125 37.753124 137.76875 36.253124Q136.44063 34.753124 136.44063 32.3L136.44063 32.175ZM138.25313 32.378124Q138.25313 34.14375 139.06563 35.20625Q139.89375 36.26875 141.25313 36.26875Q142.62813 36.26875 143.44063 35.190624Q144.25313 34.1125 144.25313 32.175Q144.25313 30.425 143.425 29.346874Q142.59688 28.26875 141.2375 28.26875Q139.89375 28.26875 139.06563 29.33125Q138.25313 30.39375 138.25313 32.378124ZM154.44063 36.503124Q153.39375 37.753124 151.34688 37.753124Q149.65938 37.753124 148.76875 36.76875Q147.89375 35.784374 147.87813 33.8625L147.87813 26.9875L149.69063 26.9875L149.69063 33.815624Q149.69063 36.20625 151.64375 36.20625Q153.70625 36.20625 154.39375 34.675L154.39375 26.9875L156.20625 26.9875L156.20625 37.55L154.4875 37.55L154.44063 36.503124ZM165.87813 37.55L164.08125 37.55L164.08125 26.9875L165.87813 26.9875L165.87813 37.55ZM163.925 24.175Q163.925 23.7375 164.19063 23.440624Q164.47188 23.128124 164.9875 23.128124Q165.51875 23.128124 165.78438 23.440624Q166.06563 23.7375 166.06563 24.175Q166.06563 24.6125 165.78438 24.909374Q165.51875 25.20625 164.9875 25.20625Q164.47188 25.20625 164.19063 24.909374Q163.925 24.6125 163.925 24.175ZM170.62813 26.9875L170.69063 28.315624Q171.89375 26.784374 173.84688 26.784374Q177.20625 26.784374 177.22188 30.565624L177.22188 37.55L175.425 37.55L175.425 30.55Q175.40938 29.409374 174.89375 28.8625Q174.39375 28.315624 173.3 28.315624Q172.425 28.315624 171.75313 28.784374Q171.09688 29.253124 170.72188 30.01875L170.72188 37.55L168.925 37.55L168.925 26.9875L170.62813 26.9875ZM186.06563 34.753124Q186.06563 34.01875 185.51875 33.6125Q184.97188 33.20625 183.59688 32.909374Q182.22188 32.6125 181.40938 32.20625Q180.6125 31.8 180.22188 31.2375Q179.84688 30.659374 179.84688 29.878124Q179.84688 28.58125 180.94063 27.690624Q182.03438 26.784374 183.75313 26.784374Q185.55 26.784374 186.65938 27.721874Q187.78438 28.64375 187.78438 30.08125L185.95625 30.08125Q185.95625 29.346874 185.33125 28.815624Q184.70625 28.26875 183.75313 28.26875Q182.75313 28.26875 182.19063 28.70625Q181.64375 29.128124 181.64375 29.83125Q181.64375 30.471874 182.15938 30.815624Q182.675 31.14375 184.03438 31.45625Q185.39375 31.753124 186.22188 32.175Q187.06563 32.58125 187.47188 33.175Q187.87813 33.76875 187.87813 34.6125Q187.87813 36.034374 186.7375 36.89375Q185.6125 37.753124 183.8 37.753124Q182.53438 37.753124 181.55 37.3Q180.58125 36.846874 180.01875 36.05Q179.47188 35.2375 179.47188 34.3L181.28438 34.3Q181.33125 35.20625 182.00313 35.7375Q182.69063 36.26875 183.8 36.26875Q184.83125 36.26875 185.44063 35.8625Q186.06563 35.440624 186.06563 34.753124ZM192.3625 24.425L192.3625 26.9875L194.34688 26.9875L194.34688 28.378124L192.3625 28.378124L192.3625 34.925Q192.3625 35.565624 192.62813 35.89375Q192.89375 36.20625 193.53438 36.20625Q193.84688 36.20625 194.39375 36.08125L194.39375 37.55Q193.675 37.753124 193.00313 37.753124Q191.8 37.753124 191.175 37.01875Q190.56563 36.284374 190.56563 34.925L190.56563 28.378124L188.64375 28.378124L188.64375 26.9875L190.56563 26.9875L190.56563 24.425L192.3625 24.425ZM203.44063 37.55Q203.28438 37.2375 203.19063 36.440624Q201.925 37.753124 200.175 37.753124Q198.6125 37.753124 197.6125 36.8625Q196.6125 35.971874 196.6125 34.6125Q196.6125 32.971874 197.8625 32.065624Q199.12813 31.14375 201.39375 31.14375L203.15938 31.14375L203.15938 30.315624Q203.15938 29.3625 202.58125 28.8Q202.01875 28.2375 200.925 28.2375Q199.95625 28.2375 199.3 28.7375Q198.64375 29.221874 198.64375 29.909374L196.83125 29.909374Q196.83125 29.128124 197.39375 28.39375Q197.95625 27.64375 198.90938 27.221874Q199.87813 26.784374 201.03438 26.784374Q202.8625 26.784374 203.89375 27.70625Q204.925 28.6125 204.97188 30.221874L204.97188 35.08125Q204.97188 36.534374 205.33125 37.39375L205.33125 37.55L203.44063 37.55ZM200.44063 36.175Q201.3 36.175 202.05 35.7375Q202.81563 35.3 203.15938 34.596874L203.15938 32.425L201.7375 32.425Q198.425 32.425 198.425 34.3625Q198.425 35.221874 198.9875 35.70625Q199.55 36.175 200.44063 36.175ZM209.87813 37.55L208.08125 37.55L208.08125 22.55L209.87813 22.55L209.87813 37.55ZM214.87813 37.55L213.08125 37.55L213.08125 22.55L214.87813 22.55L214.87813 37.55ZM233.65938 33.034374Q233.39375 35.3 231.9875 36.534374Q230.59688 37.753124 228.26875 37.753124Q225.75313 37.753124 224.22188 35.940624Q222.70625 34.128124 222.70625 31.096874L222.70625 29.7375Q222.70625 27.753124 223.40938 26.253124Q224.12813 24.753124 225.425 23.940624Q226.72188 23.128124 228.44063 23.128124Q230.70625 23.128124 232.06563 24.39375Q233.44063 25.659374 233.65938 27.89375L231.76875 27.89375Q231.53438 26.20625 230.70625 25.440624Q229.89375 24.675 228.44063 24.675Q226.64375 24.675 225.6125 26.003124Q224.59688 27.33125 224.59688 29.784374L224.59688 31.159374Q224.59688 33.471874 225.56563 34.846874Q226.53438 36.20625 228.26875 36.20625Q229.83125 36.20625 230.65938 35.503124Q231.50313 34.8 231.76875 33.034374L233.65938 33.034374ZM247.14375 30.89375Q247.14375 32.9875 246.44063 34.55Q245.7375 36.096874 244.44063 36.925Q243.15938 37.753124 241.44063 37.753124Q239.75313 37.753124 238.45625 36.925Q237.15938 36.096874 236.44063 34.565624Q235.72188 33.034374 235.70625 31.01875L235.70625 30.003124Q235.70625 27.95625 236.40938 26.378124Q237.12813 24.8 238.425 23.971874Q239.7375 23.128124 241.40938 23.128124Q243.12813 23.128124 244.425 23.95625Q245.7375 24.784374 246.44063 26.3625Q247.14375 27.925 247.14375 30.003124L247.14375 30.89375ZM245.26875 29.9875Q245.26875 27.45625 244.25313 26.1125Q243.2375 24.753124 241.40938 24.753124Q239.64375 24.753124 238.6125 26.1125Q237.59688 27.45625 237.56563 29.846874L237.56563 30.89375Q237.56563 33.346874 238.59688 34.753124Q239.62813 36.159374 241.44063 36.159374Q243.25313 36.159374 244.2375 34.83125Q245.2375 33.503124 245.26875 31.034374L245.26875 29.9875ZM254.90938 35.065624L258.97186 23.33125L261.01874 23.33125L255.75313 37.55L254.08125 37.55L248.83125 23.33125L250.8625 23.33125L254.90938 35.065624ZM265.20624 37.55L263.33124 37.55L263.33124 23.33125L265.20624 23.33125L265.20624 37.55ZM268.20624 37.55L268.20624 23.33125L272.22186 23.33125Q274.0656 23.33125 275.4875 24.159374Q276.925 24.971874 277.6906 26.4875Q278.47186 28.003124 278.4875 29.95625L278.4875 30.8625Q278.4875 32.878124 277.70624 34.39375Q276.925 35.909374 275.4875 36.721874Q274.05 37.534374 272.14374 37.55L268.20624 37.55ZM270.08124 24.878124L270.08124 36.01875L272.05 36.01875Q274.22186 36.01875 275.425 34.675Q276.6281 33.315624 276.6281 30.83125L276.6281 30.003124Q276.6281 27.58125 275.4875 26.2375Q274.34686 24.89375 272.26874 24.878124L270.08124 24.878124ZM286.675 37.55L284.84686 37.55L284.84686 25.503124L281.20624 26.846874L281.20624 25.20625L286.39374 23.26875L286.675 23.26875L286.675 37.55ZM298.65936 31.3Q298.09686 31.971874 297.3 32.39375Q296.51874 32.8 295.58124 32.8Q294.34686 32.8 293.425 32.190624Q292.51874 31.58125 292.01874 30.4875Q291.53436 29.378124 291.53436 28.05Q291.53436 26.628124 292.0656 25.4875Q292.6125 24.346874 293.59686 23.7375Q294.59686 23.128124 295.925 23.128124Q298.03436 23.128124 299.2531 24.70625Q300.47186 26.284374 300.47186 29.01875L300.47186 29.534374Q300.47186 33.690624 298.83124 35.596874Q297.1906 37.503124 293.8781 37.565624L293.53436 37.565624L293.53436 36.034374L293.90936 36.034374Q296.14374 36.003124 297.34686 34.878124Q298.55 33.7375 298.65936 31.3ZM295.8781 31.3Q296.78436 31.3 297.55 30.753124Q298.3156 30.190624 298.65936 29.3625L298.65936 28.64375Q298.65936 26.8625 297.89374 25.753124Q297.1281 24.64375 295.9406 24.64375Q294.7531 24.64375 294.01874 25.565624Q293.3 26.471874 293.3 27.95625Q293.3 29.409374 294.0031 30.3625Q294.70624 31.3 295.8781 31.3ZM314.4406 37.55Q314.28436 37.2375 314.1906 36.440624Q312.925 37.753124 311.175 37.753124Q309.6125 37.753124 308.6125 36.8625Q307.6125 35.971874 307.6125 34.6125Q307.6125 32.971874 308.8625 32.065624Q310.1281 31.14375 312.39374 31.14375L314.15936 31.14375L314.15936 30.315624Q314.15936 29.3625 313.58124 28.8Q313.01874 28.2375 311.925 28.2375Q310.95624 28.2375 310.3 28.7375Q309.64374 29.221874 309.64374 29.909374L307.83124 29.909374Q307.83124 29.128124 308.39374 28.39375Q308.95624 27.64375 309.90936 27.221874Q310.8781 26.784374 312.03436 26.784374Q313.8625 26.784374 314.89374 27.70625Q315.925 28.6125 315.97186 30.221874L315.97186 35.08125Q315.97186 36.534374 316.33124 37.39375L316.33124 37.55L314.4406 37.55ZM311.4406 36.175Q312.3 36.175 313.05 35.7375Q313.8156 35.3 314.15936 34.596874L314.15936 32.425L312.7375 32.425Q309.425 32.425 309.425 34.3625Q309.425 35.221874 309.9875 35.70625Q310.55 36.175 311.4406 36.175ZM327.84686 32.378124Q327.84686 34.8 326.7375 36.284374Q325.64374 37.753124 323.7531 37.753124Q321.83124 37.753124 320.72186 36.51875L320.72186 41.6125L318.925 41.6125L318.925 26.9875L320.5656 26.9875L320.65936 28.159374Q321.7531 26.784374 323.72186 26.784374Q325.6281 26.784374 326.7375 28.221874Q327.84686 29.659374 327.84686 32.221874L327.84686 32.378124ZM326.03436 32.175Q326.03436 30.39375 325.26874 29.3625Q324.51874 28.315624 323.1906 28.315624Q321.55 28.315624 320.72186 29.76875L320.72186 34.83125Q321.53436 36.26875 323.20624 36.26875Q324.5031 36.26875 325.26874 35.2375Q326.03436 34.20625 326.03436 32.175ZM338.84686 32.378124Q338.84686 34.8 337.7375 36.284374Q336.64374 37.753124 334.7531 37.753124Q332.83124 37.753124 331.72186 36.51875L331.72186 41.6125L329.925 41.6125L329.925 26.9875L331.5656 26.9875L331.65936 28.159374Q332.7531 26.784374 334.72186 26.784374Q336.6281 26.784374 337.7375 28.221874Q338.84686 29.659374 338.84686 32.221874L338.84686 32.378124ZM337.03436 32.175Q337.03436 30.39375 336.26874 29.3625Q335.51874 28.315624 334.1906 28.315624Q332.55 28.315624 331.72186 29.76875L331.72186 34.83125Q332.53436 36.26875 334.20624 36.26875Q335.5031 36.26875 336.26874 35.2375Q337.03436 34.20625 337.03436 32.175ZM343.03436 33.55Q343.05 32.378124 343.3 31.70625Q343.55 31.034374 344.3 30.221874L345.58124 28.89375Q346.39374 27.971874 346.39374 26.909374Q346.39374 25.878124 345.84686 25.3Q345.3156 24.721874 344.3 24.721874Q343.3 24.721874 342.6906 25.253124Q342.09686 25.76875 342.09686 26.659374L340.28436 26.659374Q340.3 25.08125 341.40936 24.1125Q342.51874 23.128124 344.3 23.128124Q346.14374 23.128124 347.175 24.128124Q348.20624 25.1125 348.20624 26.846874Q348.20624 28.55 346.6281 30.221874L345.55 31.26875Q344.84686 32.065624 344.84686 33.55L343.03436 33.55ZM342.95624 36.64375Q342.95624 36.20625 343.22186 35.909374Q343.5031 35.6125 344.01874 35.6125Q344.55 35.6125 344.8156 35.909374Q345.09686 36.20625 345.09686 36.64375Q345.09686 37.08125 344.8156 37.378124Q344.55 37.659374 344.01874 37.659374Q343.5031 37.659374 343.22186 37.378124Q342.95624 37.08125 342.95624 36.64375Z" fill-rule="nonzero"/></svg>